<svg width="13" height="23" viewBox="0 0 13 23" fill="none" xmlns="http://www.w3.org/2000/svg">
<path d="M0.93125 21.7273V21.8273H1.03125H3.09375H3.19375V21.7273V3.72188V3.54758L3.04328 3.63555C2.74747 3.80848 2.40836 3.9 2.0625 3.9C1.71664 3.9 1.37753 3.80848 1.08172 3.63555L0.93125 3.54758V3.72188V21.7273ZM3.90436 22.509L3.97089 22.5776L3.90436 22.509C3.82664 22.5844 3.72058 22.6273 3.60938 22.6273H0.515625C0.404418 22.6273 0.298363 22.5844 0.220638 22.509L0.151124 22.5807L0.220637 22.509C0.143017 22.4338 0.1 22.3323 0.1 22.2273V2C0.1 1.4971 0.305991 1.01415 0.673707 0.657577C1.04153 0.300902 1.54104 0.1 2.0625 0.1C2.58396 0.1 3.08347 0.300902 3.45129 0.657577C3.81901 1.01415 4.025 1.4971 4.025 2V22.2273C4.025 22.3323 3.98198 22.4338 3.90436 22.509ZM2.0625 0.9L2.06237 0.9C1.76348 0.90038 1.47634 1.01566 1.26408 1.22149C1.05171 1.42742 0.931645 1.70727 0.93125 1.99986V2C0.93125 2.21826 0.998009 2.43135 1.1227 2.61231C1.24737 2.79323 1.42423 2.93379 1.63059 3.01667C1.83691 3.09955 2.06378 3.12119 2.28263 3.07898C2.50148 3.03676 2.70292 2.93249 2.86132 2.7789C3.01975 2.62527 3.128 2.42916 3.1719 2.21518C3.21579 2.00119 3.19323 1.77941 3.10721 1.57803C3.02121 1.37669 2.87578 1.20511 2.68981 1.08461C2.50387 0.964129 2.28557 0.9 2.0625 0.9Z" fill="black" stroke="#FFF5EB" stroke-width="0.2"/>
<path d="M8.98235 1.3763L8.9829 1.37657L8.98669 1.36615C9.12089 0.997518 9.36961 0.677635 9.69931 0.450741C10.029 0.223856 10.4233 0.101208 10.8282 0.1C11.3495 0.100554 11.8486 0.301622 12.2163 0.658161C12.5837 1.01445 12.7899 1.49681 12.7906 1.99929C12.7879 2.17747 12.7589 2.35439 12.7045 2.5247L12.701 2.53554L12.7001 2.54688C12.6968 2.58665 12.6871 2.62575 12.6713 2.66274C12.6713 2.66277 12.6713 2.66279 12.6713 2.66281L9.70501 9.5605L9.69688 9.57941V9.6V22.2273C9.69688 22.3323 9.65386 22.4338 9.57624 22.509L9.64276 22.5776L9.57624 22.509C9.49851 22.5844 9.39246 22.6273 9.28125 22.6273H6.1875C6.07629 22.6273 5.97024 22.5844 5.89251 22.509L5.823 22.5807L5.89251 22.509C5.81489 22.4338 5.77188 22.3323 5.77188 22.2273V10.9952C5.77264 9.9582 5.97062 8.93022 6.35594 7.96275L8.94623 1.46861L8.94671 1.4688L8.9495 1.45901C8.95727 1.43182 8.9684 1.40447 8.98235 1.3763ZM9.69688 1.99986V2C9.69688 2.21826 9.76363 2.43135 9.88833 2.61231C10.013 2.79323 10.1899 2.93379 10.3962 3.01667C10.6025 3.09955 10.8294 3.12119 11.0483 3.07898C11.2671 3.03676 11.4685 2.93249 11.6269 2.7789C11.7854 2.62527 11.8936 2.42916 11.9375 2.21518C11.9814 2.00119 11.9589 1.77941 11.8728 1.57803C11.7868 1.37669 11.6414 1.20511 11.4554 1.08461C11.2695 0.964129 11.0512 0.9 10.8281 0.9L10.828 0.9C10.5291 0.90038 10.242 1.01566 10.0297 1.22149C9.81734 1.42742 9.69727 1.70727 9.69688 1.99986ZM8.76562 21.8273H8.86562V21.7273V9.50009C8.86567 9.44766 8.8764 9.39568 8.89727 9.34711L11.1912 4.01294L11.2637 3.84439L11.0828 3.87482C10.7509 3.93063 10.4097 3.89616 10.0971 3.77533C9.7844 3.65451 9.51281 3.4522 9.31219 3.19124L9.20512 3.05197L9.14003 3.21514L7.13231 8.24807L7.1323 8.24812C6.78326 9.12434 6.60385 10.0556 6.60312 10.995V10.9951V21.7273V21.8273H6.70312H8.76562Z" fill="black" stroke="#FFF5EB" stroke-width="0.2"/>
</svg>
