<svg width="23" height="24" viewBox="0 0 23 24" fill="none" xmlns="http://www.w3.org/2000/svg">
<path d="M8.36537 23C8.49267 23 8.61477 22.949 8.70478 22.8582C8.7948 22.7675 8.84537 22.6444 8.84537 22.516V2.936C8.84537 2.42254 8.64309 1.93011 8.28302 1.56704C7.92295 1.20397 7.43459 1 6.92537 1C6.41616 1 5.9278 1.20397 5.56773 1.56704C5.20766 1.93011 5.00537 2.42254 5.00537 2.936V22.516C5.00537 22.6444 5.05594 22.7675 5.14596 22.8582C5.23598 22.949 5.35807 23 5.48537 23H8.36537ZM5.96537 22.032V4.60278C6.25512 4.77892 6.58704 4.872 6.92537 4.872C7.2637 4.872 7.59562 4.77892 7.88537 4.60278V22.032H5.96537ZM6.92537 1.968C7.11524 1.968 7.30085 2.02477 7.45872 2.13114C7.61659 2.2375 7.73964 2.38868 7.8123 2.56556C7.88496 2.74244 7.90397 2.93707 7.86692 3.12485C7.82988 3.31262 7.73845 3.4851 7.60419 3.62048C7.46993 3.75586 7.29888 3.84805 7.11266 3.8854C6.92644 3.92275 6.73341 3.90358 6.55799 3.83032C6.38258 3.75705 6.23265 3.63298 6.12716 3.47379C6.02167 3.3146 5.96537 3.12745 5.96537 2.936C5.9657 2.67937 6.06695 2.43335 6.24692 2.25189C6.42688 2.07043 6.67087 1.96834 6.92537 1.968Z" fill="#272727" stroke="#272727" stroke-width="0.3"/>
<path d="M15.0854 1C14.6899 1.00119 14.3044 1.12574 13.9818 1.35658C13.6592 1.58741 13.4154 1.91322 13.2837 2.28932C13.2689 2.32044 13.2562 2.35247 13.2471 2.38575L10.8357 8.67213C10.4727 9.61997 10.2861 10.6272 10.2854 11.6433V22.516C10.2854 22.6444 10.336 22.7675 10.426 22.8582C10.516 22.949 10.6381 23 10.7654 23H13.6454C13.7727 23 13.8948 22.949 13.9848 22.8582C14.0748 22.7675 14.1254 22.6444 14.1254 22.516V10.2928L16.8868 3.61566C16.9054 3.57031 16.9169 3.52229 16.9208 3.47336C16.9743 3.29923 17.0028 3.11827 17.0054 2.936C17.0049 2.4227 16.8024 1.93057 16.4425 1.56761C16.0825 1.20465 15.5945 1.00051 15.0854 1ZM15.0854 1.968C15.2753 1.968 15.4609 2.02477 15.6187 2.13114C15.7766 2.2375 15.8997 2.38868 15.9723 2.56556C16.045 2.74244 16.064 2.93707 16.027 3.12485C15.9899 3.31262 15.8985 3.4851 15.7642 3.62048C15.63 3.75586 15.4589 3.84805 15.2727 3.8854C15.0865 3.92275 14.8934 3.90358 14.718 3.83032C14.5426 3.75705 14.3927 3.63298 14.2872 3.47379C14.1817 3.3146 14.1254 3.12745 14.1254 2.936C14.1257 2.67937 14.227 2.43335 14.4069 2.25189C14.5869 2.07043 14.8309 1.96834 15.0854 1.968ZM13.2024 10.0098C13.178 10.0688 13.1655 10.1321 13.1654 10.196V22.032H11.2454V11.6433C11.2461 10.7462 11.4108 9.85686 11.7314 9.02L13.6004 4.14812C13.7977 4.41503 14.0646 4.62157 14.3713 4.74481C14.678 4.86806 15.0126 4.90318 15.3379 4.84629L13.2024 10.0098Z" fill="#272727" stroke="#272727" stroke-width="0.3"/>
</svg>
