<svg width="27" height="25" viewBox="0 0 27 25" fill="none" xmlns="http://www.w3.org/2000/svg">
<path fill-rule="evenodd" clip-rule="evenodd" d="M25.8415 3.36484C26.0614 3.36484 26.1714 3.47704 26.2814 3.58919C26.3913 3.70133 26.3913 3.92568 26.3913 3.92568L24.192 12.8987C24.192 13.123 23.9721 13.3474 23.7522 13.3474L7.69745 15.5906C8.13734 16.3758 9.01701 16.8244 9.89674 16.8244H22.4326C22.7625 16.8244 22.9824 17.0488 22.9824 17.3853C22.9824 17.7217 22.7625 17.9461 22.4326 17.9461H9.78679C8.02739 17.9461 6.37793 16.6001 6.04804 14.8055L3.40891 1.12161H0.549836C0.219945 1.12161 0 0.89727 0 0.560781C0 0.224291 0.219945 -5.2558e-05 0.549784 9.23601e-09H3.8487C4.06864 9.23601e-09 4.39853 0.224291 4.39853 0.448635L4.94837 3.36484H25.8415ZM7.14685 14.4684L23.2016 12.3373L25.071 4.37371H5.1675L7.14685 14.4684Z" fill="white"/>
<path fill-rule="evenodd" clip-rule="evenodd" d="M7.38892 21.6412C7.38892 20.1633 8.55016 19.0021 10.028 19.0021C11.506 19.0021 12.6672 20.1633 12.6672 21.6412C12.6672 23.1191 11.506 24.2803 10.028 24.2803C8.55016 24.2803 7.38892 23.1191 7.38892 21.6412ZM8.44578 21.6406C8.44578 22.4851 9.18473 23.2241 10.0293 23.2241C10.8738 23.2241 11.6128 22.4851 11.6128 21.6406C11.6128 20.7961 10.8738 20.0571 10.0293 20.0571C9.18473 20.0571 8.44578 20.7961 8.44578 21.6406Z" fill="white"/>
<path fill-rule="evenodd" clip-rule="evenodd" d="M17.9463 21.6412C17.9463 20.1633 19.1075 19.0021 20.5854 19.0021C22.0633 19.0021 23.2245 20.1633 23.2245 21.6412C23.2245 23.1191 22.0634 24.2803 20.5854 24.2803C19.1075 24.2803 17.9463 23.1191 17.9463 21.6412ZM19.0014 21.6406C19.0014 22.4851 19.7403 23.2241 20.5848 23.2241C21.4293 23.2241 22.1683 22.4851 22.1683 21.6406C22.1683 20.7961 21.4294 20.0571 20.5848 20.0571C19.7403 20.0571 19.0014 20.7961 19.0014 21.6406Z" fill="white"/>
</svg>
