<svg width="22" height="22" viewBox="0 0 22 22" fill="none" xmlns="http://www.w3.org/2000/svg">
<path d="M8.84474 3.15424C6.92276 1.23325 3.16169 1.0105 0.499493 1.0105C0.223782 1.0105 0 1.23423 0 1.50994C0 4.17215 0.221768 7.93321 2.14374 9.85524C2.95491 10.6664 4.19861 11.029 5.43131 11.029C6.77091 11.029 8.09852 10.6005 8.84474 9.85425C10.2763 8.42273 10.539 4.84747 8.84474 3.15424ZM8.13851 9.14896C7.06961 10.2168 4.10173 10.3996 2.85105 9.14896C1.29966 7.59761 1.03092 4.44589 1.00194 2.01243C3.43539 2.04142 6.58711 2.31011 8.13846 3.8615C9.38918 5.11218 9.20638 8.08109 8.13851 9.14896Z" fill="white"/>
<path d="M21.5001 2.98627C18.8379 2.98627 15.0768 3.20804 13.1548 5.13001C11.4606 6.82324 11.7233 10.3985 13.1548 11.83C13.901 12.5753 15.2277 13.0038 16.5672 13.0038C17.7999 13.0038 19.0427 12.6422 19.8558 11.8311C21.7768 9.90908 21.9995 6.14801 21.9995 3.48576C21.9996 3.21005 21.7758 2.98627 21.5001 2.98627ZM19.1476 11.1237C17.8969 12.3744 14.928 12.1916 13.8601 11.1237C12.7922 10.0559 12.6094 7.08697 13.8601 5.83629C15.4115 4.28489 18.5632 4.01621 20.9966 3.98722C20.9677 6.42166 20.6989 9.57338 19.1476 11.1237Z" fill="white"/>
<path d="M17.893 7.30988C17.7751 7.05912 17.4375 6.97324 17.1887 7.08909C13.3577 8.89021 11.4757 12.0309 10.6206 15.2595C9.56267 8.3947 6.50287 6.3019 5.20522 5.41384C5.04339 5.30296 4.91752 5.22204 4.84761 5.15312C4.65282 4.95832 4.33613 4.95832 4.14134 5.15312C3.94654 5.34791 3.94654 5.6646 4.14134 5.85939C4.24023 5.95731 4.41105 6.08018 4.64181 6.23798C6.10428 7.23795 9.98921 9.89617 9.98921 20.4901C9.98921 20.7658 10.213 20.9896 10.4887 20.9896C10.7644 20.9896 10.9882 20.7658 10.9882 20.4911C10.9882 16.2106 12.138 10.5675 17.6143 7.99419C17.6143 7.99321 17.6952 7.95523 17.6952 7.95523C17.9439 7.83733 18.0108 7.5596 17.893 7.30988Z" fill="white"/>
</svg>
