<svg width="23" height="23" viewBox="0 0 23 23" fill="none" xmlns="http://www.w3.org/2000/svg">
<path d="M4.91489 0.875C2.67697 0.875 0.875 2.67697 0.875 4.91488V18.9601C0.875 21.198 2.67697 23 4.91489 23H12.5273V14.3505H10.2401V11.2364H12.5273V8.57588C12.5273 6.48562 13.8787 4.56642 16.9917 4.56642C18.2521 4.56642 19.1841 4.68742 19.1841 4.68742L19.1108 7.59548C19.1108 7.59548 18.1603 7.58649 17.123 7.58649C16.0004 7.58649 15.8204 8.10373 15.8204 8.9624V11.2364H19.2L19.0528 14.3505H15.8204V23H18.9601C21.198 23 23 21.198 23 18.9601V4.91491C23 2.67699 21.198 0.875022 18.9601 0.875022H4.91487L4.91489 0.875Z" fill="#FA9511"/>
</svg>
