<svg width="24" height="24" viewBox="0 0 24 24" fill="none" xmlns="http://www.w3.org/2000/svg">
<g clip-path="url(#clip0_154_242)">
<path d="M12.0003 8.21825C9.9178 8.21825 8.21834 9.91771 8.21834 12.0002C8.21834 14.0827 9.9178 15.7821 12.0003 15.7821C14.0828 15.7821 15.7822 14.0827 15.7822 12.0002C15.7822 9.91771 14.0828 8.21825 12.0003 8.21825ZM23.3433 12.0002C23.3433 10.4341 23.3575 8.88214 23.2695 7.31886C23.1816 5.50307 22.7674 3.89156 21.4396 2.56377C20.1089 1.23313 18.5002 0.821742 16.6845 0.73379C15.1183 0.645838 13.5664 0.660024 12.0031 0.660024C10.437 0.660024 8.88507 0.645838 7.32179 0.73379C5.506 0.821742 3.89449 1.23597 2.5667 2.56377C1.23606 3.8944 0.824672 5.50307 0.73672 7.31886C0.648767 8.88498 0.662953 10.4369 0.662953 12.0002C0.662953 13.5635 0.648767 15.1182 0.73672 16.6815C0.824672 18.4973 1.2389 20.1088 2.5667 21.4366C3.89733 22.7673 5.506 23.1786 7.32179 23.2666C8.88791 23.3546 10.4398 23.3404 12.0031 23.3404C13.5692 23.3404 15.1212 23.3546 16.6845 23.2666C18.5002 23.1786 20.1118 22.7644 21.4396 21.4366C22.7702 20.106 23.1816 18.4973 23.2695 16.6815C23.3603 15.1182 23.3433 13.5663 23.3433 12.0002ZM12.0003 17.8192C8.7801 17.8192 6.18125 15.2204 6.18125 12.0002C6.18125 8.78001 8.7801 6.18116 12.0003 6.18116C15.2205 6.18116 17.8193 8.78001 17.8193 12.0002C17.8193 15.2204 15.2205 17.8192 12.0003 17.8192ZM18.0576 7.30184C17.3058 7.30184 16.6986 6.69469 16.6986 5.94284C16.6986 5.19099 17.3058 4.58383 18.0576 4.58383C18.8095 4.58383 19.4167 5.19099 19.4167 5.94284C19.4169 6.12137 19.3819 6.29819 19.3137 6.46317C19.2454 6.62815 19.1453 6.77806 19.0191 6.9043C18.8929 7.03054 18.743 7.13063 18.578 7.19885C18.413 7.26707 18.2362 7.30206 18.0576 7.30184Z" fill="#F75D1B"/>
</g>
<defs>
<clipPath id="clip0_154_242">
<rect width="24" height="24" fill="white"/>
</clipPath>
</defs>
</svg>
