<svg width="24" height="24" viewBox="0 0 24 24" fill="none" xmlns="http://www.w3.org/2000/svg">
<g clip-path="url(#clip0)">
<path d="M15.3967 4.29371L15.3968 4.29353C15.4346 4.24161 15.4816 4.19901 15.5372 4.16685L15.3967 4.29371ZM15.3967 4.29371L11.1667 10.141L11.0621 10.2856L11.24 10.2993C11.4833 10.318 11.7369 10.3282 12 10.3282C12.0227 10.3282 12.0457 10.3279 12.0679 10.3276C12.0777 10.3275 12.0872 10.3274 12.0966 10.3273L12.147 10.3267L12.1766 10.2859L16.0178 4.97599C16.0178 4.97598 16.0179 4.97597 16.0179 4.97596C16.044 4.93982 16.0754 4.90793 16.1111 4.8813L16.1111 4.88128L20.7898 1.38363L20.8611 1.33034L20.8164 1.25336L20.8027 1.22967L20.7525 1.14319L20.666 1.19333L15.5373 4.16677L15.3967 4.29371ZM16.4853 8.88967L16.4854 8.88971C18.2061 9.40318 19.551 10.24 20.4887 11.3727C21.5196 12.618 22.0453 14.2062 22.0453 16.1C22.0453 18.5832 21.1322 20.5275 19.429 21.8538C17.7222 23.1828 15.2106 23.9 12 23.9C8.7893 23.9 6.27767 23.1828 4.5709 21.8538C2.86766 20.5275 1.95461 18.5832 1.95461 16.1C1.95461 14.2061 2.4803 12.6178 3.5112 11.3726C4.44884 10.24 5.79377 9.40324 7.51507 8.88954L7.51514 8.88952C8.65009 8.54988 9.94052 8.35509 11.3546 8.31064L11.4037 8.3091L11.4325 8.2693L14.683 3.77614C14.683 3.7761 14.683 3.77606 14.6831 3.77603C14.795 3.62212 14.9335 3.4974 15.0958 3.40374L15.0959 3.40364L20.6917 0.159408L20.6416 0.0728962L20.6917 0.159408C20.7928 0.100776 20.9131 0.0846941 21.0261 0.114751L21.0261 0.114753C21.1391 0.144813 21.2355 0.218557 21.2941 0.31968L21.8204 1.22751L21.9069 1.17736L21.8204 1.22752C21.9325 1.42093 21.8821 1.66773 21.703 1.8016L21.7628 1.8817L21.703 1.8016L16.705 5.53796L16.6928 5.54709L16.6838 5.55944L14.6701 8.34308L14.5744 8.47541L14.7358 8.50051C15.354 8.59664 15.9402 8.72636 16.4853 8.88967ZM20.5575 18.9972L20.6009 18.9835L20.6191 18.9418C20.6821 18.7974 20.7403 18.6495 20.7925 18.4975L20.8561 18.3123L20.6688 18.3694C19.6487 18.68 18.5095 18.9263 17.2663 19.1035C15.6723 19.3306 13.9005 19.4459 12 19.4459C10.0994 19.4459 8.32756 19.3306 6.7334 19.1035C5.49042 18.9265 4.35131 18.6802 3.33128 18.3698L3.14406 18.3128L3.20758 18.4979C3.25975 18.6499 3.31796 18.7977 3.3809 18.9421L3.3991 18.9838L3.4425 18.9975C5.7249 19.717 8.60296 20.0802 12 20.0802C15.3975 20.0802 18.2757 19.7169 20.5575 18.9972ZM3.3826 13.5456L3.28233 13.4958L3.24417 13.601C2.97301 14.3487 2.83621 15.1837 2.83621 16.1C2.83621 16.4985 2.8624 16.8808 2.91347 17.2472L2.9219 17.3077L2.97957 17.3279C5.30384 18.1387 8.41026 18.5643 11.9999 18.5643C15.5899 18.5643 18.6964 18.1386 21.0203 17.3273L21.078 17.3072L21.0864 17.2467C21.1375 16.8803 21.1636 16.4982 21.1636 16.0999C21.1636 15.1837 21.0268 14.3486 20.7556 13.601L20.7174 13.4958L20.6171 13.5455C18.3132 14.6876 14.7146 14.9406 11.9999 14.9406C9.28491 14.9406 5.686 14.6876 3.3826 13.5456ZM15.2495 9.66976L15.4985 9.5394L15.2231 9.48319C14.8451 9.40604 14.4518 9.34297 14.0443 9.29543L13.986 9.28864L13.9517 9.33615L13.4366 10.0481L13.2937 10.2456L13.5342 10.2053C14.2326 10.0883 14.8161 9.89669 15.2495 9.66976ZM10.0204 10.1173L10.0849 10.1321L10.1237 10.0785L10.6163 9.39762L10.7433 9.22197L10.5273 9.23933C9.9134 9.28862 9.32866 9.36994 8.77605 9.48282L8.50083 9.53903L8.74966 9.66938C9.08774 9.84647 9.51698 10.0019 10.0204 10.1173ZM7.52955 9.86767L7.48568 9.82317L7.42645 9.84311C6.04716 10.3073 4.95731 11.0083 4.1903 11.9348C4.01506 12.1464 3.85729 12.3704 3.71598 12.6056L3.66027 12.6984L3.75709 12.7466C5.46707 13.5989 8.36767 14.0591 12 14.0591C15.6317 14.0591 18.5323 13.5989 20.2427 12.7466L20.3395 12.6984L20.2838 12.6056C20.1426 12.3704 19.9848 12.1465 19.8096 11.9349C19.0425 11.0083 17.9525 10.3072 16.5735 9.84311L16.5142 9.82317L16.4704 9.86767C15.6664 10.683 13.9858 11.2097 12 11.2097C10.0141 11.2097 8.33354 10.6831 7.52955 9.86767ZM4.34338 20.164L4.04242 20.0899L4.2433 20.3259C4.58615 20.7288 4.99011 21.0887 5.45558 21.4038C7.02151 22.464 9.28729 23.0183 12 23.0183C14.7124 23.0183 16.9782 22.464 18.5442 21.4038C19.0097 21.0886 19.4138 20.7287 19.7567 20.3257L19.9575 20.0896L19.6566 20.1638C17.5086 20.6932 14.9417 20.9617 12 20.9617C9.05863 20.9617 6.49166 20.6933 4.34338 20.164Z" fill="white" stroke="#FFFAF3" stroke-width="0.2"/>
<path d="M20.2412 14.765L20.2412 14.765C19.9442 14.5138 19.568 14.4065 19.2099 14.4665L19.2099 14.4665C18.8517 14.5265 18.531 14.7504 18.3321 15.0847L18.3321 15.0847C18.146 15.3974 18.0774 15.7797 18.1413 16.1616C18.2052 16.5434 18.3946 16.8825 18.6724 17.1175L20.2412 14.765ZM20.2412 14.765C20.519 15 20.7085 15.3391 20.7724 15.7209C20.9103 16.5442 20.4195 17.2961 19.7038 17.416C19.6387 17.427 19.5731 17.4323 19.5074 17.4323C19.2116 17.4323 18.9155 17.3231 18.6724 17.1175L20.2412 14.765ZM19.6718 15.438L19.6718 15.4381L19.6718 15.438ZM19.6718 15.438C19.6279 15.401 19.5314 15.3316 19.4084 15.3316C19.3914 15.3316 19.3735 15.3329 19.3552 15.336L19.372 15.4346L19.3555 15.336C19.2071 15.3608 19.1222 15.4808 19.0896 15.5356M19.6718 15.438L19.2418 16.4445M19.2418 16.4445L19.2418 16.4444C19.1207 16.3421 19.039 16.185 19.0107 16.0159C18.9824 15.8469 19.0086 15.6718 19.0896 15.5356M19.2418 16.4445C19.2903 16.4854 19.4094 16.5715 19.5582 16.5465M19.2418 16.4445L19.9029 15.8666C19.9313 16.0358 19.9041 16.192 19.8424 16.3127C19.7821 16.4307 19.6817 16.5259 19.5582 16.5465M19.0896 15.5356L19.1756 15.5867L19.0896 15.5356C19.0896 15.5356 19.0896 15.5356 19.0896 15.5356ZM19.5582 16.5465L19.5417 16.4479L19.5582 16.5465C19.5582 16.5465 19.5582 16.5465 19.5582 16.5465Z" fill="white" stroke="#FFFAF3" stroke-width="0.2"/>
<path d="M14.8932 16.473L14.8932 16.473L15.0896 16.6314L15.1674 16.6942L15.1047 16.7721L14.9462 16.9685C14.9462 16.9685 14.9462 16.9685 14.9462 16.9685L14.8932 16.473ZM14.8932 16.473C14.7036 16.3203 14.6739 16.0427 14.8267 15.8532C14.9795 15.6637 15.257 15.6339 15.4465 15.7868L15.4465 15.7868L15.643 15.9452L15.7208 16.0079L15.7836 15.9301L15.942 15.7336L15.942 15.7336C16.0949 15.5441 16.3724 15.5143 16.5619 15.6672L16.5619 15.6672C16.7514 15.82 16.7811 16.0976 16.6283 16.287M14.8932 16.473L16.6283 16.287M16.6105 16.4684L16.7062 16.3498C16.8937 16.1173 16.8571 15.7768 16.6247 15.5893L16.6105 16.4684ZM16.6105 16.4684L16.5477 16.5463L16.6255 16.6091L16.7442 16.7047L16.6105 16.4684ZM16.6283 16.287L16.4699 16.4835L16.4071 16.5614L16.4849 16.6241L16.6814 16.7826L16.6814 16.7826C16.8709 16.9354 16.9007 17.2129 16.7478 17.4024C16.6608 17.5104 16.5333 17.5665 16.4043 17.5665C16.3072 17.5665 16.2096 17.5346 16.128 17.4689L15.9315 17.3104L15.8537 17.2476L15.7909 17.3255L15.6325 17.5219C15.6325 17.522 15.6325 17.522 15.6325 17.522C15.6325 17.522 15.6325 17.522 15.6325 17.522C15.5454 17.6299 15.418 17.6861 15.289 17.6861C15.1918 17.6861 15.0942 17.6542 15.0126 17.5884L16.6283 16.287Z" fill="white" stroke="#FFFAF3" stroke-width="0.2"/>
<path d="M12.0001 15.2356C12.8245 15.2356 13.4954 15.9065 13.4954 16.7309C13.4954 17.5553 12.8245 18.2262 12.0001 18.2262C11.1757 18.2262 10.5048 17.5553 10.5048 16.7309C10.5048 15.9065 11.1757 15.2356 12.0001 15.2356ZM12.0001 16.1172C11.6616 16.1172 11.3864 16.3924 11.3864 16.7309C11.3864 17.0694 11.6616 17.3446 12.0001 17.3446C12.3386 17.3446 12.6138 17.0694 12.6138 16.7309C12.6138 16.3924 12.3386 16.1172 12.0001 16.1172Z" fill="white" stroke="#FFFAF3" stroke-width="0.2"/>
<path d="M4.79007 14.4666L4.79005 14.4666C4.43198 14.4066 4.05568 14.5139 3.75869 14.7651L4.79007 14.4666ZM4.79007 14.4666C5.1482 14.5266 5.46895 14.7506 5.6679 15.0849L5.66791 15.0849C5.85402 15.3975 5.92263 15.7798 5.85871 16.1617C5.73366 16.9082 5.13727 17.4326 4.49394 17.4326C4.42851 17.4326 4.36249 17.4273 4.29615 17.4162C3.58041 17.2962 3.0896 16.5443 3.22749 15.721M4.79007 14.4666L3.12886 15.7045L3.22749 15.721M3.22749 15.721C3.29146 15.3392 3.48093 15.0002 3.75869 14.7652L3.22749 15.721ZM4.64432 15.3361L4.64447 15.3362C4.79285 15.361 4.87778 15.4811 4.91033 15.5358M4.64432 15.3361L4.89051 15.9995L4.98913 16.0161C4.98913 16.0161 4.98913 16.0161 4.98913 16.0161C5.0175 15.847 4.99131 15.6719 4.91033 15.5358M4.64432 15.3361C4.6265 15.3332 4.60886 15.3318 4.59145 15.3318C4.46847 15.3318 4.37197 15.4011 4.32808 15.4382L4.64432 15.3361ZM4.91033 15.5358L4.82437 15.5869L4.91031 15.5358C4.91031 15.5358 4.91032 15.5358 4.91033 15.5358ZM4.44168 16.5466L4.44169 16.5466L4.09696 15.8667C4.06861 16.0359 4.09578 16.1921 4.15747 16.3128C4.21782 16.4308 4.31816 16.526 4.44168 16.5466ZM4.32807 15.4383C4.20703 15.5406 4.12527 15.6976 4.09696 15.8667L4.32807 15.4383Z" fill="white" stroke="#FFFAF3" stroke-width="0.2"/>
<path d="M8.27892 16.0081L8.21614 15.9303L8.05769 15.7338L8.05768 15.7338C7.90487 15.5443 7.62734 15.5146 7.43783 15.6674L8.27892 16.0081ZM8.27892 16.0081L8.35676 15.9454M8.27892 16.0081L8.35676 15.9454M8.35676 15.9454L8.55321 15.7869C8.74272 15.6341 9.02026 15.6638 9.17308 15.8533C9.32591 16.0428 9.29618 16.3204 9.10666 16.4731L9.10666 16.4731L8.91018 16.6315L8.83233 16.6943L8.8951 16.7721L9.0535 16.9686L9.05351 16.9686C9.20632 17.1581 9.17658 17.4356 8.9871 17.5884C8.90549 17.6542 8.80787 17.6862 8.71072 17.6862C8.5817 17.6862 8.4543 17.63 8.36722 17.522C8.36722 17.522 8.36722 17.522 8.36722 17.522L8.20882 17.3256L8.14605 17.2478L8.06821 17.3106L7.87176 17.469C7.79015 17.5348 7.69253 17.5667 7.59538 17.5667C7.46636 17.5667 7.33896 17.5105 7.25188 17.4026C7.09907 17.2131 7.12881 16.9356 7.31831 16.7827C7.31831 16.7827 7.31831 16.7827 7.31832 16.7827L7.51478 16.6243L7.59264 16.5616M8.35676 15.9454L7.59264 16.5616M7.59264 16.5616L7.52985 16.4837M7.59264 16.5616L7.52985 16.4837M7.52985 16.4837L7.3714 16.2872C7.3714 16.2872 7.3714 16.2872 7.3714 16.2872M7.52985 16.4837L7.3714 16.2872M7.3714 16.2872C7.21858 16.0977 7.24833 15.8202 7.43782 15.6674L7.3714 16.2872Z" fill="white" stroke="#FFFAF3" stroke-width="0.2"/>
</g>
<defs>
<clipPath id="clip0">
<rect width="24" height="24" fill="white"/>
</clipPath>
</defs>
</svg>
