<svg width="23" height="22" viewBox="0 0 23 22" fill="none" xmlns="http://www.w3.org/2000/svg">
<g clip-path="url(#clip0_154_494)">
<path d="M18.8569 10.3666C17.9835 9.31159 16.7338 8.53587 15.1428 8.06111C14.6387 7.91007 14.0972 7.7903 13.5269 7.70161L15.3728 5.14994L19.9543 1.72494C20.1557 1.57439 20.2125 1.29683 20.0863 1.07931L19.604 0.247125C19.538 0.133404 19.4296 0.0504689 19.3025 0.0166601C19.1754 -0.0171487 19.0402 0.000945453 18.9264 0.0668775L13.797 3.04076C13.637 3.13311 13.5004 3.2562 13.3903 3.4076L10.4105 7.52652C9.10781 7.56747 7.91687 7.74697 6.86761 8.06097C5.27612 8.53592 4.02633 9.31159 3.15301 10.3665C2.19223 11.527 1.70508 13.0046 1.70508 14.7584C1.70508 19.3606 5.09473 22 11.005 22C16.9152 22 20.3049 19.3606 20.3049 14.7584C20.3049 13.0048 19.8177 11.5272 18.8569 10.3666ZM18.8218 17.3267C16.742 17.9827 14.1137 18.3152 11.005 18.3152C7.8968 18.3152 5.26858 17.9828 3.1882 17.327C3.13139 17.1967 3.07894 17.0635 3.032 16.9267C3.9722 17.2129 5.02107 17.4395 6.16437 17.6024C7.63064 17.8113 9.25926 17.9172 11.005 17.9172C12.7507 17.9172 14.3793 17.8112 15.8454 17.6023C16.9889 17.4394 18.0379 17.2126 18.9781 16.9263C18.9311 17.0632 18.8787 17.1964 18.8218 17.3267ZM2.69654 14.7584C2.69654 13.9275 2.82057 13.1729 3.06501 12.4989C5.19769 13.5564 8.51656 13.7873 11.0049 13.7873C13.493 13.7873 16.8116 13.5564 18.9448 12.4989C19.1893 13.1728 19.3134 13.9275 19.3134 14.7583C19.3134 15.1194 19.2896 15.4654 19.2434 15.7969C17.1262 16.536 14.2898 16.9257 11.0049 16.9257C7.72041 16.9257 4.884 16.5361 2.76649 15.7974C2.72028 15.4658 2.69654 15.1197 2.69654 14.7584ZM13.9412 8.7828C13.5543 8.98535 13.0291 9.15851 12.3962 9.26455L12.8683 8.61192C13.2394 8.6552 13.5973 8.7126 13.9412 8.7828ZM14.1929 3.98969C14.2201 3.95231 14.2536 3.92197 14.2934 3.89897L18.9949 1.17325L19.0074 1.19496L14.7186 4.40114C14.6785 4.43113 14.6432 4.46702 14.6138 4.50762L11.0926 9.37505C11.0634 9.37534 11.0344 9.37589 11.005 9.37589C10.7662 9.37589 10.5361 9.36667 10.3154 9.34967L14.1929 3.98969ZM9.21083 9.18493C8.75545 9.08053 8.36967 8.94044 8.06807 8.78245C8.57069 8.67979 9.10301 8.60572 9.66234 8.56081L9.21083 9.18493ZM3.91673 10.9987C4.60673 10.1653 5.59001 9.5311 6.84183 9.10978C7.60431 9.88307 9.17508 10.3673 11.005 10.3673C12.8349 10.3673 14.4056 9.88302 15.1681 9.10978C16.4197 9.531 17.4031 10.1653 18.0932 10.9989C18.2508 11.1892 18.3927 11.3906 18.5199 11.6024C16.9717 12.3739 14.3305 12.7959 11.005 12.7959C7.67892 12.7959 5.03772 12.3739 3.4899 11.6024C3.61716 11.3906 3.75914 11.189 3.91673 10.9987ZM16.9524 19.5443C15.5375 20.5022 13.4809 21.0085 11.005 21.0085C8.52885 21.0085 6.47222 20.5022 5.05735 19.5443C4.63717 19.2598 4.27316 18.9354 3.96452 18.5728C5.94283 19.0601 8.30359 19.3066 11.005 19.3066C13.7067 19.3066 16.0675 19.0601 18.0455 18.5726C17.7368 18.9353 17.3727 19.2598 16.9524 19.5443Z" fill="#272727"/>
<path d="M17.0622 15.7609C17.3008 15.9627 17.593 16.0712 17.8868 16.0712C17.952 16.0712 18.0172 16.0659 18.082 16.055C18.7968 15.9353 19.27 15.1909 19.1368 14.3956C19.0748 14.0254 18.8908 13.6947 18.6187 13.4646C18.3272 13.2179 17.9554 13.1108 17.599 13.1705C17.2424 13.2302 16.9259 13.4526 16.7307 13.7807C16.5484 14.087 16.4822 14.4596 16.5441 14.8298C16.6061 15.2001 16.7901 15.5307 17.0622 15.7609ZM17.5826 14.2878C17.6096 14.2424 17.6688 14.164 17.7627 14.1483C17.774 14.1464 17.7852 14.1455 17.7961 14.1455C17.8756 14.1455 17.9429 14.1915 17.9783 14.2215C18.0702 14.2992 18.136 14.4224 18.159 14.5594C18.2048 14.8331 18.0689 15.052 17.9182 15.0772C17.8241 15.093 17.7428 15.0381 17.7025 15.004C17.6107 14.9263 17.5449 14.8031 17.5219 14.6661C17.4989 14.529 17.5211 14.3911 17.5826 14.2878Z" fill="#272727"/>
<path d="M13.5996 15.1719L13.7797 15.3171L13.6344 15.4972C13.4626 15.7104 13.496 16.0225 13.7091 16.1943C13.8008 16.2683 13.9108 16.3042 14.02 16.3042C14.1648 16.3042 14.3083 16.2411 14.4062 16.1196L14.5514 15.9395L14.7315 16.0848C14.8232 16.1587 14.9332 16.1946 15.0424 16.1946C15.1872 16.1946 15.3307 16.1315 15.4286 16.0101C15.6005 15.797 15.567 15.4849 15.3539 15.313L15.1738 15.1677L15.3191 14.9876C15.4909 14.7745 15.4575 14.4624 15.2444 14.2905C15.0313 14.1186 14.7191 14.1521 14.5473 14.3652L14.402 14.5453L14.2219 14.4001C14.0088 14.2283 13.6967 14.2617 13.5248 14.4749C13.3531 14.688 13.3865 15.0001 13.5996 15.1719Z" fill="#272727"/>
<path d="M12.4672 15.3364C12.4672 14.53 11.8112 13.874 11.0048 13.874C10.1985 13.874 9.54248 14.53 9.54248 15.3364C9.54248 16.1427 10.1985 16.7987 11.0048 16.7987C11.8112 16.7987 12.4672 16.1427 12.4672 15.3364ZM10.5339 15.3364C10.5339 15.0767 10.7452 14.8655 11.0048 14.8655C11.2645 14.8655 11.4757 15.0767 11.4757 15.3364C11.4757 15.596 11.2645 15.8073 11.0048 15.8073C10.7452 15.8073 10.5339 15.596 10.5339 15.3364Z" fill="#272727"/>
<path d="M4.41143 13.1705C4.05495 13.1108 3.68315 13.218 3.39166 13.4646C3.11956 13.6948 2.93554 14.0254 2.87353 14.3956C2.74032 15.1909 3.21355 15.9353 3.92839 16.055C3.99422 16.066 4.05981 16.0714 4.12485 16.0714C4.76553 16.0714 5.34534 15.5519 5.4663 14.8298C5.52826 14.4596 5.46208 14.087 5.27975 13.7807C5.08448 13.4526 4.76796 13.2302 4.41143 13.1705ZM4.48837 14.6661C4.44251 14.9398 4.24283 15.1024 4.09208 15.0772C3.94143 15.0519 3.8055 14.8331 3.85135 14.5594C3.87431 14.4224 3.94014 14.2992 4.032 14.2215C4.06739 14.1916 4.13471 14.1456 4.21423 14.1456C4.22518 14.1456 4.23634 14.1465 4.24769 14.1484C4.34153 14.1641 4.40077 14.2425 4.42774 14.2878C4.48921 14.3911 4.51137 14.529 4.48837 14.6661Z" fill="#272727"/>
<path d="M8.48473 14.4746C8.31286 14.2615 8.00075 14.2281 7.78763 14.3999L7.60753 14.5452L7.46228 14.3651C7.29042 14.152 6.9783 14.1186 6.76519 14.2904C6.55207 14.4622 6.51861 14.7744 6.69048 14.9875L6.83573 15.1676L6.65563 15.3128C6.44252 15.4846 6.40906 15.7967 6.58093 16.0099C6.67888 16.1313 6.82235 16.1944 6.96715 16.1944C7.07641 16.1944 7.18636 16.1584 7.27802 16.0846L7.45812 15.9393L7.60332 16.1194C7.70128 16.2408 7.84474 16.3039 7.98954 16.3039C8.0988 16.3039 8.20876 16.2679 8.30042 16.1941C8.51353 16.0222 8.54699 15.7101 8.37512 15.497L8.22992 15.3169L8.41002 15.1717C8.62319 14.9999 8.6566 14.6878 8.48473 14.4746Z" fill="#272727"/>
</g>
<defs>
<clipPath id="clip0_154_494">
<rect width="22" height="22" fill="white" transform="translate(0.00537109)"/>
</clipPath>
</defs>
</svg>
