<svg width="23" height="22" viewBox="0 0 23 22" fill="none" xmlns="http://www.w3.org/2000/svg">
<g clip-path="url(#clip0_154_546)">
<path d="M0.344837 4.43907H2.1361C2.08407 4.36605 2.03691 4.28935 1.99562 4.20895C1.75862 3.74603 1.72656 3.20086 1.90766 2.71309L2.45048 1.25416C2.63142 0.766902 3.01159 0.375147 3.49315 0.179437C3.97521 -0.0164412 4.52122 -0.000831425 4.99136 0.222406L9.28724 2.26259C9.49957 2.11086 9.75923 2.02123 10.0395 2.02123H11.9711C12.2514 2.02123 12.5113 2.11102 12.7236 2.26276L17.0193 0.222238C17.4894 -0.00083141 18.0354 -0.0164412 18.5175 0.179437C18.9991 0.375147 19.3792 0.766902 19.5602 1.254L20.103 2.71326C20.2841 3.20086 20.252 3.74603 20.0149 4.20895C19.9737 4.28935 19.9264 4.36622 19.8744 4.43907H21.6658C21.8533 4.43907 22.0054 4.59097 22.0054 4.77862V9.22298C22.0054 9.41047 21.8533 9.56254 21.6658 9.56254C21.4783 9.56254 21.3263 9.41047 21.3263 9.22298V5.11801H18.9678C18.9301 5.13127 18.8918 5.14352 18.853 5.15426L16.0025 5.93895C16.6359 6.90961 17.1947 7.93063 17.6731 8.98857H21.3263V8.58104C21.3263 8.39355 21.4783 8.24165 21.6658 8.24165C21.8533 8.24165 22.0054 8.39355 22.0054 8.58104V9.32812C22.0054 9.51561 21.8533 9.66768 21.6658 9.66768H20.455V21.6884C20.455 21.8761 20.3029 22.028 20.1154 22.028H1.89524C1.70776 22.028 1.55569 21.8761 1.55569 21.6884V19.7169C1.55569 19.5294 1.70776 19.3773 1.89524 19.3773C2.0829 19.3773 2.2348 19.5294 2.2348 19.7169V21.349H8.96833V9.87648C8.00657 11.6981 7.35548 13.6789 7.05588 15.7255C7.03607 15.8609 6.93671 15.9712 6.80394 16.0051C6.77608 16.0123 6.74788 16.0157 6.71985 16.0157C6.61494 16.0157 6.5139 15.967 6.44877 15.8806C5.96067 15.233 5.50681 14.5398 5.0971 13.816C4.41094 14.2833 3.74475 14.8043 3.11264 15.3683C3.00606 15.4633 2.8513 15.4816 2.72558 15.4138C2.59987 15.3461 2.52987 15.207 2.55069 15.0657C2.82176 13.2165 3.32715 11.398 4.04352 9.66768H2.23497V20.3586C2.23497 20.5463 2.0829 20.6982 1.89541 20.6982C1.70776 20.6982 1.55585 20.5463 1.55585 20.3586V9.66768H0.344837C0.157352 9.66768 0.0054493 9.51561 0.0054493 9.32812V4.77862C0.00528145 4.59097 0.157185 4.43907 0.344837 4.43907ZM4.70014 0.83572C4.39717 0.692042 4.05947 0.682307 3.74878 0.808529C3.4386 0.934582 3.20361 1.17679 3.08696 1.49083L2.54431 2.94959C2.42749 3.2638 2.44746 3.60117 2.6002 3.89944C2.75278 4.19753 3.01478 4.4107 3.33772 4.49949L8.74258 5.98746V4.35565C7.5277 3.61175 4.49906 2.07745 3.74526 3.14144C3.637 3.29435 3.42517 3.33077 3.27209 3.22234C3.11902 3.11391 3.08276 2.90192 3.19119 2.74901C3.77295 1.92773 4.99891 1.88779 6.83533 2.63051C7.59181 2.93633 8.29023 3.30962 8.74258 3.56861V3.31801C8.74258 3.13624 8.78034 2.96302 8.84815 2.80574L4.70014 0.83572ZM11.9711 2.70017H10.0395C9.6988 2.70017 9.42169 2.97745 9.42169 3.31801V6.12459C9.42169 6.46532 9.6988 6.74244 10.0395 6.74244H11.9711C12.3118 6.74244 12.589 6.46532 12.589 6.12459V3.31801C12.589 2.97728 12.3118 2.70017 11.9711 2.70017ZM12.5418 8.9884C12.217 8.44877 11.8635 7.92576 11.4832 7.42155H10.5278C10.1473 7.92576 9.7938 8.44877 9.46919 8.9884H12.5418ZM19.4105 3.89944C19.5632 3.60117 19.5832 3.2638 19.4665 2.94976L18.9235 1.49066C18.807 1.17679 18.5721 0.934582 18.2619 0.808529C17.9514 0.682307 17.6135 0.692042 17.3107 0.83572L13.1625 2.80608C13.2303 2.96319 13.2681 3.13624 13.2681 3.31818V3.58808C13.7189 3.32859 14.4331 2.94422 15.2089 2.63051C17.0451 1.88779 18.2713 1.92773 18.853 2.74901C18.9615 2.90192 18.9252 3.11391 18.7721 3.22234C18.6191 3.33077 18.4072 3.29452 18.299 3.14144C17.5381 2.06738 14.4596 3.64079 13.2681 4.37629V5.98746L18.6728 4.49966C18.9959 4.4107 19.2579 4.19753 19.4105 3.89944ZM13.1157 6.73371C12.9466 7.04993 12.6506 7.28844 12.2959 7.38026C13.8839 9.59584 14.9771 12.1416 15.4899 14.8174C15.8506 14.2904 16.1878 13.738 16.4965 13.1675C16.5416 13.0839 16.6195 13.0231 16.7116 12.9998C16.8036 12.9765 16.9011 12.9927 16.9805 13.0446C17.546 13.4134 18.0997 13.8179 18.6345 14.2523C18.0838 11.3616 16.9459 8.57432 15.3143 6.12845L13.1157 6.73371ZM19.7759 9.66768H17.9671C18.6835 11.398 19.1889 13.2163 19.4601 15.0657C19.4808 15.207 19.411 15.3461 19.2852 15.4138C19.1594 15.4814 19.0048 15.4633 18.8982 15.3683C18.2661 14.8043 17.5999 14.2833 16.9136 13.816C16.5038 14.5398 16.0501 15.2328 15.5619 15.8806C15.4968 15.967 15.3957 16.0158 15.2908 16.0158C15.2628 16.0158 15.2346 16.0123 15.2067 16.0051C15.0739 15.9712 14.9747 15.8609 14.9549 15.7255C14.6552 13.6789 14.0041 11.698 13.0425 9.87631V21.349H19.7759V9.66768ZM12.3634 21.349V9.66768H9.64727V21.349H12.3634ZM5.03013 13.0446C5.10952 12.9927 5.20721 12.9766 5.29902 13C5.391 13.0233 5.46905 13.084 5.5142 13.1675C5.82287 13.738 6.16008 14.2905 6.52078 14.8174C7.03355 12.1414 8.12674 9.59584 9.71492 7.38042C9.36025 7.28878 9.064 7.0501 8.89498 6.73371L6.69585 6.12828C5.06454 8.57466 3.9267 11.3619 3.37599 14.2523C3.91092 13.8179 4.46465 13.4134 5.03013 13.0446ZM0.684391 8.98857H4.33742C4.81579 7.93063 5.37455 6.90961 6.00784 5.93895L3.15762 5.15426C3.11885 5.14352 3.08058 5.13127 3.04281 5.11801H0.684391V8.98857Z" fill="#272727" stroke="#272727" stroke-width="0.7"/>
</g>
<defs>
<clipPath id="clip0_154_546">
<rect width="22" height="22" fill="white" transform="matrix(-1 0 0 1 22.0054 0)"/>
</clipPath>
</defs>
</svg>
