<svg width="32" height="32" viewBox="0 0 32 32" fill="none" xmlns="http://www.w3.org/2000/svg">
<path d="M4.79995 16H16M16 16L11.1999 20.8M16 16L11.1999 11.2M4.79995 6.4V4.8C4.79995 3.95131 5.13709 3.13737 5.73721 2.53726C6.33732 1.93714 7.15126 1.6 7.99995 1.6H24C24.8486 1.6 25.6626 1.93714 26.2627 2.53726C26.8628 3.13737 27.2 3.95131 27.2 4.8V27.2C27.2 28.0487 26.8628 28.8626 26.2627 29.4627C25.6626 30.0629 24.8486 30.4 24 30.4H7.99995C7.15126 30.4 6.33732 30.0629 5.73721 29.4627C5.13709 28.8626 4.79995 28.0487 4.79995 27.2V25.6" stroke="white" stroke-width="1.5" stroke-linecap="round" stroke-linejoin="round"/>
</svg>
