<svg width="23" height="22" viewBox="0 0 23 22" fill="none" xmlns="http://www.w3.org/2000/svg">
<g clip-path="url(#clip0_154_373)">
<path d="M8.85011 3.15449C6.92813 1.23349 3.16707 1.01074 0.504865 1.01074C0.229153 1.01074 0.00537109 1.23448 0.00537109 1.51019C0.00537109 4.17239 0.227139 7.93346 2.14911 9.85548C2.96028 10.6666 4.20398 11.0293 5.43668 11.0293C6.77628 11.0293 8.10389 10.6007 8.85011 9.8545C10.2816 8.42298 10.5444 4.84771 8.85011 3.15449ZM8.14388 9.1492C7.07498 10.2171 4.1071 10.3999 2.85642 9.1492C1.30503 7.59786 1.03629 4.44613 1.00731 2.01268C3.44076 2.04166 6.59248 2.31035 8.14383 3.86175C9.39456 5.11242 9.21175 8.08133 8.14388 9.1492Z" fill="#272727" stroke="#272727" stroke-width="0.5"/>
<path d="M21.5055 2.98633C18.8433 2.98633 15.0822 3.2081 13.1602 5.13007C11.466 6.8233 11.7287 10.3986 13.1602 11.8301C13.9064 12.5753 15.233 13.0039 16.5726 13.0039C17.8053 13.0039 19.048 12.6422 19.8612 11.8311C21.7822 9.90914 22.0049 6.14807 22.0049 3.48582C22.005 3.21011 21.7812 2.98633 21.5055 2.98633ZM19.1529 11.1238C17.9022 12.3745 14.9333 12.1917 13.8655 11.1238C12.7976 10.0559 12.6148 7.08703 13.8655 5.83635C15.4169 4.28496 18.5685 4.01627 21.002 3.98728C20.9731 6.42172 20.7043 9.57344 19.1529 11.1238Z" fill="#272727" stroke="#272727" stroke-width="0.5"/>
<path d="M17.8983 7.30982C17.7805 7.05906 17.4428 6.97318 17.1941 7.08903C13.3631 8.89015 11.4811 12.0309 10.6259 15.2595C9.56804 8.39464 6.50824 6.30184 5.2106 5.41378C5.04876 5.3029 4.9229 5.22198 4.85298 5.15306C4.65819 4.95826 4.3415 4.95826 4.14671 5.15306C3.95191 5.34785 3.95191 5.66454 4.14671 5.85933C4.2456 5.95725 4.41643 6.08012 4.64718 6.23792C6.10966 7.23789 9.99458 9.89611 9.99458 20.49C9.99458 20.7657 10.2184 20.9895 10.4941 20.9895C10.7698 20.9895 10.9936 20.7657 10.9936 20.4911C10.9936 16.2106 12.1434 10.5675 17.6196 7.99413C17.6196 7.99315 17.7006 7.95517 17.7006 7.95517C17.9493 7.83727 18.0162 7.55954 17.8983 7.30982Z" fill="#272727" stroke="#272727" stroke-width="0.5"/>
</g>
<defs>
<clipPath id="clip0_154_373">
<rect width="22" height="22" fill="white" transform="translate(0.00537109)"/>
</clipPath>
</defs>
</svg>
