<svg width="24" height="24" viewBox="0 0 24 24" fill="none" xmlns="http://www.w3.org/2000/svg">
<path d="M23.496 6.20321C23.3566 5.70501 23.091 5.25124 22.7248 4.88583C22.3586 4.52042 21.9043 4.25575 21.4058 4.11746C19.5345 3.61721 12.012 3.61721 12.012 3.61721C12.012 3.61721 4.50376 3.60521 2.61301 4.11746C2.11531 4.25636 1.66186 4.5213 1.29648 4.88668C0.931103 5.25206 0.666161 5.70551 0.527261 6.20321C0.171911 8.11888 -0.00310482 10.0636 0.00451065 12.012C0.00104333 13.9509 0.176031 15.8861 0.527261 17.793C0.66661 18.2909 0.931631 18.7447 1.29688 19.1108C1.66213 19.4768 2.11534 19.7428 2.61301 19.8832C4.48426 20.3835 12.012 20.3835 12.012 20.3835C12.012 20.3835 19.5158 20.3835 21.4058 19.8832C21.9042 19.7434 22.3583 19.4777 22.7244 19.1116C23.0905 18.7455 23.3562 18.2914 23.496 17.793C23.8403 15.8872 24.0083 13.9492 23.9963 12.012C24.0083 10.062 23.844 8.12096 23.496 6.20321ZM9.60901 15.6022V8.40596L15.8708 12.012L9.60901 15.6022Z" fill="#F75D1B"/>
</svg>
