<svg width="249" height="534" viewBox="0 0 249 534" fill="none" xmlns="http://www.w3.org/2000/svg">
<g id="soccerGuy">
<g id="ball">
<path id="Vector" d="M67.1827 507.355C85.0694 507.355 99.6369 492.833 99.6369 474.865C99.6369 456.897 85.0694 442.436 67.1827 442.436C49.296 442.436 34.7285 456.958 34.7285 474.926C34.7285 492.833 49.2346 507.355 67.1827 507.355Z" fill="white"/>
<path id="Vector_2" d="M99.4522 474.865C99.4522 474.127 99.698 463.112 93.1826 455.974C92.8753 455.358 91.5845 452.712 87.1589 449.574C85.192 448.036 83.1021 446.682 80.8893 445.451C77.1399 443.544 72.9602 442.498 68.719 442.436C68.2273 442.436 67.7356 442.436 67.1824 442.559C62.7568 442.498 58.3927 443.421 54.3359 445.267C52.246 446.128 50.2791 447.236 48.3737 448.528C44.6857 450.559 37.6785 458.804 37.1253 463.235C34.8511 466.065 33.0071 478.926 37.1253 486.68C40.0142 497.448 50.8323 502.863 51.6928 503.294C52.246 503.602 58.0853 507.294 65.2769 507.294H66.2604C66.875 507.355 67.4897 507.417 68.1044 507.417C75.8491 507.417 87.5277 501.879 89.9249 497.571C96.6862 492.525 100.128 480.034 99.4522 474.865ZM51.8772 491.172C48.7425 486.187 47.0214 479.603 46.5911 478.126C47.5746 476.588 52.4304 469.511 55.135 467.358C56.6716 467.665 63.2485 468.896 69.3951 469.942C70.1327 471.973 73.5749 480.711 74.5583 484.218C71.6079 487.726 68.4731 491.049 65.154 494.187C60.7284 494.187 53.291 491.602 51.8772 491.172ZM90.724 456.035C90.6625 457.512 90.3552 458.927 89.7405 460.22C86.1754 458.497 82.3031 457.451 78.3078 457.327C75.9106 453.82 72.7758 450.866 69.1493 448.59C69.7639 447.174 70.7474 445.574 71.4235 445.021C71.6079 445.021 71.8538 444.897 72.2841 444.897C74.9886 444.897 79.7215 446.743 80.1517 446.867C80.582 446.99 89.1258 451.666 90.724 456.035ZM45.4233 477.019C41.7353 476.403 39.461 475.296 38.8464 474.865C37.4327 469.881 38.6005 464.527 38.7235 463.727C40.1372 461.327 43.8866 455.112 46.4682 453.882C49.0498 453.328 52.4304 454.005 53.7212 454.312C53.4754 458.251 53.5983 462.189 54.09 466.127C51.2626 468.465 46.5911 475.296 45.4233 477.019ZM66.875 444.097C67.8585 444.159 68.8419 444.344 69.7639 444.651C68.9034 445.759 68.2273 446.928 67.7356 448.22C66.0145 448.528 59.622 449.759 54.5818 452.958C52.3075 452.405 49.9103 452.097 47.5746 452.22C48.0663 451.297 48.7425 450.497 49.5415 449.759C49.8489 449.389 57.5321 443.974 66.875 444.097ZM87.5277 485.203C83.6553 485.08 79.8444 484.526 76.095 483.603C75.1115 480.034 71.6694 471.296 70.9318 469.265C74.251 464.527 77.5087 460.097 78.3692 458.804C82.3031 459.05 86.1754 460.158 89.679 461.943C92.0147 465.758 93.5514 470.004 94.1046 474.496C92.7523 478.495 90.4781 482.188 87.5277 485.203ZM36.6951 471.05C36.818 472.465 37.0639 473.88 37.4327 475.234C37.0639 476.157 36.818 477.142 36.6951 478.126C36.3877 475.849 36.3877 473.45 36.6951 471.05ZM52.6763 501.817L52.246 502.433L52.6763 501.817C49.9718 500.525 47.9434 497.51 47.0829 496.279C48.4351 494.925 49.9718 493.695 51.5084 492.587C53.2295 493.202 60.4825 495.602 65.0925 495.602C66.998 498.125 69.1493 500.463 71.5465 502.494C69.5795 504.463 66.8136 505.325 66.2604 505.509C58.9459 505.817 52.6763 501.817 52.6763 501.817ZM70.2557 505.509C71.3621 504.894 72.2841 504.156 73.1446 503.233C77.7546 502.556 82.1801 500.771 85.991 498.064C86.2984 498.064 86.9745 498.187 87.5892 498.187C84.27 501.325 76.2794 504.894 70.2557 505.509ZM86.8516 496.464C88.1424 493.264 88.757 489.756 88.5726 486.31C91.5845 483.234 93.9202 479.48 95.3954 475.419C96.133 475.542 96.8706 475.726 97.5467 476.034C97.7926 477.019 97.854 478.003 97.7311 478.926C96.8706 484.341 94.0431 492.525 89.0029 496.094C88.3268 496.464 87.5892 496.525 86.8516 496.464Z" fill="#2D2D2D"/>
</g>
<g id="Soccer Guy">
<path id="Vector_3" d="M146.966 110.394C146.966 118.086 140.758 124.301 133.013 124.301C128.711 124.301 124.654 122.331 122.011 118.947C120.905 117.593 120.106 115.993 119.614 114.27L121.396 113.778H121.458C127.789 112.117 131.968 111.132 132.214 111.071C133.567 111.071 134.919 111.009 136.271 110.824H136.394C137.193 110.701 137.992 110.578 138.73 110.455H138.791C141.496 110.024 144.2 109.594 146.843 109.224C146.905 109.655 146.966 110.024 146.966 110.394Z" fill="#E5AF88"/>
<path id="Vector_4" d="M151.207 114.64C151.207 124.67 143.094 132.854 133.013 132.792C126.252 132.792 119.983 128.977 116.909 122.947C115.741 120.67 115.004 118.147 114.881 115.563C116.54 115.07 118.139 114.64 119.675 114.209C120.167 115.87 120.966 117.47 122.072 118.885C126.805 124.977 135.534 126.085 141.619 121.347C144.999 118.701 146.966 114.64 146.966 110.332C146.966 109.901 146.966 109.532 146.905 109.101L150.224 108.609C150.839 110.64 151.207 112.609 151.207 114.64Z" fill="#BF4027"/>
<path id="Vector_5" d="M224.475 199.312C224.352 199.25 224.291 199.189 224.168 199.127C215.993 194.081 193.742 192.789 186.12 191.804L186.059 191.435L174.749 105.963C184.338 105.286 200.258 109.963 209.785 122.578C215.747 130.516 229.761 202.819 224.475 199.312Z" fill="#CF6632"/>
<path id="Vector_6" d="M83.2871 126.516L82.1193 211.742H39.7075C39.7075 211.742 49.1119 155.314 62.0198 139.746C66.0151 134.946 74.0057 130.454 83.2871 126.516Z" fill="#CF6632"/>
<path id="Vector_7" d="M193.804 249.524C192.697 249.093 190.915 249.093 188.579 249.401C175.118 251.186 144.323 263.677 129.879 264.046H128.219C112.422 263.185 81.689 243.74 81.689 243.74L82.1192 211.742L83.2871 126.516C93.552 122.147 105.354 118.393 114.819 115.686C114.942 118.27 115.618 120.793 116.848 123.07C121.458 131.993 132.46 135.5 141.311 130.823C149.302 126.701 153.051 117.286 150.162 108.732C157.231 107.748 163.624 107.009 168.111 106.517H168.418H169.524C170.692 106.394 172.475 106.271 174.749 106.086L186.12 191.374C185.997 191.435 185.813 191.558 185.69 191.681C183.047 193.22 178.621 194.635 171.553 194.02C156.985 192.789 142.172 198.881 143.708 196.42C146.474 191.681 148.073 186.389 148.38 180.974C148.441 177.528 147.089 175.928 146.352 175.621C145.86 175.436 142.418 184.728 141.188 187.066C139.959 189.405 125.453 191.804 124.531 191.804C123.609 191.804 111.439 186.82 107.997 184.42C106.03 183.005 104.985 180.667 105.231 178.267C105.108 178.882 103.632 187.128 103.878 190.451C104.063 193.158 113.651 207.311 116.479 208.911C119.737 210.757 135.472 209.157 148.749 210.142C162.763 211.188 177.146 215.372 189.501 217.157L193.804 249.524Z" fill="#DD7337"/>
<path id="Vector_8" d="M130.432 281.03C130.432 281.03 118.815 291.983 105.845 303.798C101.174 308.105 96.3179 312.536 91.7694 316.597C83.4715 303.244 67.859 277.83 60.1143 264.908L79.3532 245.955L81.6889 243.74C81.6889 243.74 112.422 263.246 128.219 264.046H129.879L130.432 281.03Z" fill="#002F3D"/>
<path id="Vector_9" d="M91.7694 316.597C80.644 326.566 71.4856 334.381 71.4856 333.089C71.4241 330.319 71.3626 327.735 70.2562 324.658C68.5352 320.043 64.4169 314.32 54.275 305.213C47.2064 298.875 41.2441 296.537 36.6956 295.921C30.9178 295.121 27.4142 297.214 27.0454 297.398L60.1143 264.908C67.859 277.892 83.4715 303.244 91.7694 316.597Z" fill="#002F3D"/>
<path id="Vector_10" d="M73.5139 400.715L51.0173 404.715C40.3221 369.825 22.9272 312.105 23.3574 309.767C23.7262 307.551 31.4095 300.598 36.6956 295.983C41.2441 296.598 47.2678 298.937 54.275 305.275C64.4169 314.382 68.5352 320.166 70.2562 324.72L62.6959 329.15C62.6959 329.15 72.2231 353.764 73.1451 374.071C73.4525 381.209 73.5139 391.177 73.5139 400.715Z" fill="#F5C49C"/>
<path id="Vector_11" d="M190.914 340.104C190.914 340.104 183.6 345.273 177.33 348.226C175.486 349.211 173.519 349.888 171.43 350.195C167.496 350.565 152.375 348.165 142.11 346.442C139.221 345.949 136.763 345.519 134.98 345.211C135.841 343.734 136.332 342.75 136.332 342.75C134.919 342.319 133.443 341.765 132.091 341.15L130.309 281.092L129.817 264.046C144.261 263.677 175.056 251.186 188.517 249.401L190.914 340.104Z" fill="#002F3D"/>
<path id="Vector_12" d="M212.059 481.757H145.491L146.105 453.697C149.425 455.482 153.174 456.405 156.923 456.281C162.087 456.281 164.914 454.866 166.512 453.635C166.881 455.112 167.926 455.912 170.323 457.143C176.839 460.343 203.331 466.681 208.801 471.788C211.506 474.25 212.059 481.757 212.059 481.757Z" fill="#191817"/>
<path id="Vector_13" d="M177.331 348.226C175.302 363.487 168.479 414.745 167.066 427.483H145.184L142.172 346.38C152.437 348.165 167.496 350.564 171.491 350.195C173.52 349.826 175.487 349.149 177.331 348.226Z" fill="#F5C49C"/>
<path id="Vector_14" d="M84.8235 445.451L25.8773 471.788C24.648 468.588 24.1563 465.204 24.4636 461.82C25.0783 453.328 57.471 426.129 57.471 426.129C59.7453 426.929 60.7902 427.237 64.5396 427.237C68.3505 427.237 71.1165 426.56 72.9605 425.699H73.022L84.8235 445.451Z" fill="#191817"/>
<path id="Vector_15" d="M73.514 405.392C73.4526 413.638 73.3296 421.145 73.2682 425.883V426.006C70.871 427.052 68.2894 427.545 65.6464 427.422C62.8804 427.483 60.1144 426.991 57.5328 426.068C57.5328 426.006 57.4713 425.945 57.4713 425.883C56.3035 422.007 54.5209 416.161 52.3696 409.146L73.514 405.392Z" fill="#002F3D"/>
<path id="Vector_16" d="M86.7291 448.836L27.7214 474.865L25.8774 471.727L84.7622 445.39L86.7291 448.836Z" fill="black"/>
<path id="Vector_17" d="M166.574 453.636C165.037 454.866 162.148 456.281 156.985 456.281C153.236 456.343 149.486 455.482 146.167 453.697L146.106 451.605L145.368 432.037H166.697C166.267 438.99 166.328 448.528 166.574 453.636Z" fill="#002F3D"/>
<path id="Vector_18" d="M212.059 481.757H145.491V485.326H212.059V481.757Z" fill="black"/>
<path id="Vector_19" d="M167.066 427.483C167.004 428.283 166.881 428.96 166.881 429.452C166.82 430.252 166.758 431.175 166.697 432.037H145.368L145.184 427.422L167.066 427.483Z" fill="#BF4027"/>
<path id="Vector_20" d="M73.5142 400.715V405.392L52.3083 409.146C51.878 407.73 51.4478 406.254 50.9561 404.715L73.5142 400.715Z" fill="#BF4027"/>
<path id="Vector_21" d="M27.0453 297.46C27.0453 297.46 26.9224 299.737 29.6269 302.383L36.6955 295.983C35.0359 295.737 33.3148 295.737 31.6553 295.983C30.0571 296.106 28.459 296.66 27.0453 297.46Z" fill="#071D23"/>
<path id="Vector_22" d="M71.547 333.212C71.547 333.212 64.5398 332.35 62.6958 329.089L70.2562 324.658C70.8094 326.012 71.1782 327.489 71.3011 328.904C71.4855 330.381 71.547 331.796 71.547 333.212Z" fill="#071D23"/>
<path id="Vector_23" d="M39.7075 211.742H82.1193L82.2422 203.681H41.2442L39.7075 211.742Z" fill="#002F3D"/>
<path id="Vector_24" d="M185.198 184.42L186.182 191.804C186.182 191.804 211.936 194.02 218.083 196.543L224.967 199.373C224.967 199.373 225.582 199.004 225.705 196.912C225.827 195.066 225.336 189.528 225.336 189.528C209.723 182.205 185.198 184.42 185.198 184.42Z" fill="#002F3D"/>
<path id="Vector_25" d="M193.804 249.524C193.804 249.524 191.837 249.832 190.362 249.955C188.886 250.078 188.579 250.078 188.579 250.078V249.401C189.624 249.216 190.669 249.155 191.714 249.216C192.451 249.155 193.128 249.278 193.804 249.524Z" fill="#CE6028"/>
<path id="Vector_26" opacity="0.3" d="M83.2872 126.516C83.2872 126.516 72.0389 164.114 71.5472 182.636C71.0554 201.219 71.5472 211.68 71.5472 211.68H82.1808L83.2872 126.516Z" fill="#0B0B0B"/>
<path id="Vector_27" opacity="0.3" d="M196.262 192.85L174.749 105.963L186.12 191.435L196.262 192.85Z" fill="#0B0B0B"/>
<path id="Vector_28" opacity="0.3" d="M120.905 114.024C120.905 114.024 111.5 116.547 111.439 116.793C110.455 120.732 114.574 136.484 128.711 136.792C142.848 137.1 149.855 130.762 152.314 126.516C154.404 122.885 155.51 114.024 153.359 108.363L120.905 114.024Z" fill="#0B0B0B"/>
<path id="Vector_29" opacity="0.3" d="M83.8402 244.971L109.41 300.598L105.907 303.859L79.7835 251.001L79.5376 246.14L81.8119 243.801L83.8402 244.971Z" fill="#0B0B0B"/>
<path id="Vector_30" d="M31.9014 300.352C38.7241 302.998 44.9322 306.875 50.3413 311.798C58.2089 319.12 62.696 329.089 62.696 329.089L70.2563 324.658C70.2563 324.658 68.7197 317.459 55.5659 305.89C42.4121 294.322 36.6957 295.922 36.6957 295.922L31.9014 300.352Z" fill="#E8B690"/>
<path id="Vector_31" d="M58.8237 322.258C58.8237 322.258 53.7834 324.966 54.7054 329.15C55.6274 333.335 63.4336 352.472 66.1382 366.133C68.9656 380.716 68.9656 401.577 68.9656 401.577L73.4527 400.777C73.4527 400.777 73.6985 370.625 71.3628 360.102C69.0271 349.58 62.6961 329.15 62.6961 329.15L58.8237 322.258Z" fill="#E8B690"/>
<path id="Vector_32" opacity="0.3" d="M69.0269 401.515V427.483L73.268 426.068L73.5139 400.777L69.0269 401.515Z" fill="#0B0B0B"/>
<path id="Vector_33" opacity="0.3" d="M188.579 249.401L188.763 256.847C188.763 256.847 156.125 266.262 143.032 266.446C129.94 266.631 122.257 263 122.257 263C126.621 263.985 131.169 264.17 135.595 263.37C143.278 262.139 174.319 252.724 178.13 251.678C182.002 250.693 188.579 249.401 188.579 249.401Z" fill="#0B0B0B"/>
<path id="Shadow" opacity="0.3" d="M149.855 195.312C149.855 195.312 155.633 190.943 155.387 181.774C155.08 168.236 144.876 163.375 144.876 163.375C144.876 163.375 144.508 159.129 144.077 158.699C143.647 158.268 137.439 158.452 137.439 158.452L141.127 134.946L137.869 135.869L133.689 160.545L144.139 195.804L149.855 195.312Z" fill="#0B0B0B"/>
<path id="Vector_34" opacity="0.3" d="M190.361 223.618L189.501 217.095C189.501 217.095 165.037 211.188 152.928 210.449C140.819 209.711 126.682 209.772 126.682 209.772C126.682 209.772 156.801 214.88 169.401 217.957C182.002 221.033 190.361 223.618 190.361 223.618Z" fill="#0B0B0B"/>
<path id="Vector_35" d="M153.666 348.288L151.945 427.483H145.122L142.11 346.38L153.666 348.288Z" fill="#E8B690"/>
<path id="Vector_36" opacity="0.3" d="M152.006 427.483L152.99 455.974C152.99 455.974 148.749 455.42 146.167 453.697L145.184 427.483H152.006V427.483Z" fill="#0B0B0B"/>
<path id="Vector_37" d="M169.709 81.1031C169.709 85.9643 165.775 89.9641 160.857 89.9641C160.55 89.9641 160.181 89.9641 159.874 89.9026C159.935 89.5334 160.058 89.1642 160.12 88.795C161.226 83.3183 161.165 77.7187 159.935 72.3036C160.243 72.2421 160.612 72.2421 160.919 72.2421C165.775 72.2421 169.709 76.1803 169.709 81.1031Z" fill="#E46545"/>
<path id="Vector_38" d="M100.928 89.9026C100.621 89.9641 100.252 89.9641 99.9444 89.9641C95.0886 89.9641 91.0933 86.0259 91.0933 81.1031C91.0933 78.3956 92.3226 75.8111 94.4739 74.1496C95.273 73.4728 96.195 72.9805 97.1784 72.6728C98.039 72.3651 99.0224 72.2421 99.9444 72.2421C100.252 72.2421 100.559 72.2421 100.928 72.3036C100.313 75.1957 99.9444 78.0879 99.9444 81.0416C99.9444 83.0722 100.129 85.1644 100.436 87.195C100.559 88.0565 100.743 88.9796 100.928 89.9026Z" fill="#E46545"/>
<path id="Vector_39" d="M100.498 86.9488C100.252 86.9488 100.067 87.0104 99.8216 87.0104C96.5639 87.0104 93.9208 84.4259 93.8594 81.1646C93.8594 79.3185 94.6584 77.5955 96.1336 76.4879C96.6868 76.0572 97.3015 75.7495 97.9776 75.5034C98.5923 75.3187 99.2069 75.1957 99.8216 75.1957C100.006 75.1957 100.252 75.1957 100.436 75.2572C100.006 77.1648 99.8216 79.1339 99.8216 81.103C99.8216 82.4568 99.9445 83.8721 100.129 85.2259C100.252 85.7797 100.313 86.3335 100.498 86.9488Z" fill="#D85A40"/>
<path id="Vector_40" d="M160.489 86.9489C160.735 86.9489 160.919 87.0104 161.165 87.0104C164.423 87.0104 167.066 84.3644 167.066 81.103C167.066 79.257 166.267 77.5956 164.791 76.4264C164.238 75.9956 163.624 75.688 162.947 75.4418C162.333 75.2572 161.718 75.1342 161.103 75.1342C160.919 75.1342 160.673 75.1342 160.489 75.1957C160.919 77.1033 161.103 79.0724 161.103 81.0415C161.103 82.3953 160.981 83.8106 160.796 85.1643C160.735 85.7182 160.612 86.3335 160.489 86.9489Z" fill="#D85A40"/>
<path id="Vector_41" d="M160.857 81.0415C160.857 83.626 160.612 86.272 160.12 88.7949C160.058 89.1641 159.997 89.5333 159.874 89.9026C157.661 99.4405 152.068 107.378 144.569 111.871C143.893 112.301 143.217 112.67 142.479 113.04C140.389 114.086 138.176 114.824 135.902 115.316H135.841L133.874 115.624H133.751C128.895 116.239 123.916 115.501 119.491 113.532C118.692 113.163 117.954 112.794 117.216 112.424C109.287 108.055 103.202 99.8712 100.928 89.9641C100.743 89.0411 100.559 88.1796 100.436 87.2566C100.129 85.2259 99.9443 83.1337 99.9443 81.1031C99.9443 78.1494 100.252 75.2572 100.928 72.3651C103.325 61.7811 109.902 53.1662 118.569 49.0434C122.257 47.2589 126.252 46.3358 130.37 46.2743H130.432C132.337 46.2743 134.304 46.4589 136.209 46.8896C138.299 47.3819 140.389 48.0588 142.295 48.9818C150.961 53.1662 157.538 61.7811 159.935 72.3036C160.55 75.1342 160.919 78.0878 160.857 81.0415Z" fill="#F5C49C"/>
<path id="Vector_42" d="M118.077 71.3191H113.405C112.606 71.3191 111.93 71.7498 111.93 72.3036C111.93 72.8575 112.606 73.2882 113.405 73.2882H118.077C118.876 73.2882 119.552 72.8575 119.552 72.3036C119.552 71.7498 118.876 71.3191 118.077 71.3191Z" fill="black"/>
<path id="Vector_43" d="M147.397 71.3191H142.725C141.926 71.3191 141.25 71.7498 141.25 72.3036C141.25 72.8575 141.926 73.2882 142.725 73.2882H147.397C148.196 73.2882 148.872 72.8575 148.872 72.3036C148.872 71.7498 148.257 71.3191 147.397 71.3191Z" fill="black"/>
<path id="Vector_44" d="M133.874 86.3335L132.583 80.3031C132.522 79.7493 132.276 79.257 131.907 78.8878C131.047 78.0879 129.756 78.0879 128.957 78.8878C128.527 79.257 128.342 79.7493 128.281 80.3031L126.99 86.3335C126.129 88.2411 127.051 90.4564 128.957 91.3179C130.862 92.1793 133.075 91.2563 133.936 89.3487C134.366 88.4257 134.366 87.3181 133.874 86.3335Z" fill="#E46545"/>
<path id="Vector_45" fill-rule="evenodd" clip-rule="evenodd" d="M123.24 99.4404C122.687 99.0096 121.827 99.0712 121.335 99.5634C120.905 100.056 120.905 100.856 121.396 101.286L121.458 101.348L122.318 100.363L121.458 101.348L121.519 101.409L121.642 101.533C121.765 101.594 121.888 101.717 122.134 101.84C122.687 102.209 123.302 102.517 123.917 102.763C128.342 104.486 133.259 104.486 137.685 102.763C138.3 102.517 138.914 102.209 139.467 101.84C139.652 101.717 139.836 101.594 139.959 101.533L140.082 101.409L140.144 101.348L139.283 100.363L140.144 101.348C140.697 100.917 140.758 100.179 140.389 99.625L140.328 99.5634C139.836 99.0096 139.037 98.9481 138.423 99.4404L138.361 99.5019C138.3 99.5634 138.177 99.625 138.054 99.748C137.624 99.9942 137.132 100.24 136.64 100.425C132.891 101.84 128.772 101.84 125.023 100.425C124.531 100.24 124.039 99.9942 123.609 99.748C123.486 99.625 123.363 99.5019 123.24 99.4404Z" fill="#D85A40"/>
<path id="Vector_46" d="M116.172 82.0875C117.094 82.0875 117.77 80.6107 117.77 78.8262C117.77 77.0417 117.032 75.5648 116.172 75.5648C115.311 75.5648 114.574 77.0417 114.574 78.8262C114.574 80.6107 115.25 82.0875 116.172 82.0875Z" fill="#191817"/>
<path id="Vector_47" d="M145.122 82.0875C146.044 82.0875 146.72 80.6107 146.72 78.8262C146.72 77.0417 145.983 75.5648 145.122 75.5648C144.262 75.5648 143.524 77.0417 143.524 78.8262C143.524 80.6107 144.2 82.0875 145.122 82.0875Z" fill="#191817"/>
<path id="Vector_48" d="M111.931 56.1814C111.931 56.1814 104.124 65.2886 104.124 81.0415C104.124 93.7177 109.595 106.455 109.595 106.455C109.595 106.455 99.8832 96.056 99.9446 82.5183C100.006 68.9807 106.952 58.4582 111.931 56.1814Z" fill="#E8B690"/>
<path id="Vector_49" d="M148.872 56.8584C148.872 56.8584 156.248 65.2887 156.248 81.0416C156.248 93.7178 150.777 106.456 150.777 106.456C150.777 106.456 161.165 96.0561 161.042 82.5185C160.98 68.9808 154.957 58.5198 148.872 56.8584Z" fill="#E8B690"/>
<path id="Vector_50" opacity="0.3" d="M131.6 322.258C131.6 322.258 137.931 327.673 138.054 332.35C138.177 337.088 143.155 346.503 145.122 346.872L132.214 344.596L131.6 322.258Z" fill="#0B0B0B"/>
<path id="Vector_51" d="M136.455 342.688C136.455 342.688 135.902 343.672 135.103 345.149C132.644 349.518 127.789 358.133 127.42 358.379C126.99 358.687 121.089 360.533 118.138 359.918C115.188 359.302 103.878 354.995 103.878 354.995C103.878 354.995 99.5756 328.843 97.1169 325.15C96.6252 324.412 94.6583 321.212 91.7694 316.659C83.4714 303.306 67.859 277.892 60.1142 264.969C57.6556 260.785 55.9345 257.954 55.6272 257.154C54.0905 253.831 51.0172 222.018 50.0952 211.742H79.8449C79.6605 219.064 79.2917 237.217 79.4146 246.017C79.4146 247.493 79.4761 248.909 79.599 250.385C80.0908 254.447 96.9325 287.06 105.845 303.859C108.427 308.782 110.394 312.351 111.008 313.459C113.897 318.382 127.789 319.612 129.756 321.766C131.722 323.92 132.767 336.227 131.108 336.227C129.448 336.227 126.559 327.92 126.068 326.689C125.576 325.458 120.659 325.889 120.413 325.827C120.597 326.197 125.391 335.673 127.42 338.073C128.342 339.18 130.309 340.288 132.214 341.088C133.566 341.703 134.98 342.196 136.455 342.688Z" fill="#F5C49C"/>
<path id="Vector_52" d="M71.5469 211.742L72.7762 252.539C72.7762 252.539 106.214 315.797 108.795 317.335C111.377 318.874 124.9 319.797 125.883 320.105C126.805 320.412 113.713 317.151 111.746 314.628C109.41 311.736 80.9512 255.431 79.7219 251.001C78.4311 246.386 79.8448 211.742 79.8448 211.742H71.5469Z" fill="#E8B690"/>
<path id="Vector_53" d="M114.143 187.559C114.143 187.559 113.59 205.958 114.942 207.434C114.942 207.434 110.086 201.896 108.427 198.819C106.952 196.05 104.554 193.158 104.063 190.943C103.694 189.282 104.063 185.959 104.309 184.174C104.493 182.882 105.169 178.513 105.169 178.513C105.169 178.513 105.354 181.959 107.505 183.805C109.226 185.405 114.143 187.559 114.143 187.559Z" fill="#E8B690"/>
</g>
<g id="bombile">
<g id="Layer 1 2 1">
<path id="Vector_54" d="M138.422 119.439C138.422 119.439 132.951 124.424 132.767 125.839L131.968 129.592L123.547 166.636L123.24 168.236H126.252L126.559 166.636C128.157 157.222 134.55 128.485 134.795 127.439C134.98 126.393 140.143 121.224 140.143 121.224L138.422 119.439Z" fill="#B9BDC1"/>
<path id="Vector_55" d="M131.476 175.436C131.476 180.051 127.297 184.235 122.687 184.235C118.077 184.235 114.88 180.051 114.88 175.436C114.88 170.821 118.63 167.129 123.178 167.129C127.788 167.129 131.476 170.821 131.476 175.436Z" fill="#B9BDC1"/>
<path id="Vector_56" d="M131.169 131.069C130.8 130.946 130.677 130.516 130.8 130.146C130.923 129.9 131.107 129.777 131.415 129.716L134.549 130.269C134.549 130.269 135.041 130.639 134.918 131.069C134.795 131.5 134.304 131.623 134.304 131.623L131.169 131.069Z" fill="#AFB2B5"/>
<path id="Vector_57" d="M130.923 132.362C130.554 132.239 130.431 131.808 130.554 131.439C130.677 131.192 130.862 131.069 131.169 131.008L134.304 131.562C134.304 131.562 134.796 131.931 134.673 132.362C134.55 132.792 134.058 132.915 134.058 132.915L130.923 132.362Z" fill="#AFB2B5"/>
<path id="Vector_58" d="M130.554 133.654C130.185 133.531 130.062 133.1 130.185 132.731C130.308 132.485 130.493 132.362 130.8 132.3L133.935 132.854C133.935 132.854 134.426 133.223 134.304 133.654C134.181 134.085 133.689 134.208 133.689 134.208L130.554 133.654Z" fill="#AFB2B5"/>
<path id="Vector_59" d="M121.273 170.759C121.545 170.759 121.765 170.539 121.765 170.267C121.765 169.995 121.545 169.775 121.273 169.775C121.001 169.775 120.781 169.995 120.781 170.267C120.781 170.539 121.001 170.759 121.273 170.759Z" fill="white"/>
<path id="Vector_60" d="M122.748 171.436C123.02 171.436 123.24 171.216 123.24 170.944C123.24 170.672 123.02 170.452 122.748 170.452C122.477 170.452 122.256 170.672 122.256 170.944C122.256 171.216 122.477 171.436 122.748 171.436Z" fill="white"/>
<path id="Vector_61" d="M124.469 171.805C124.741 171.805 124.961 171.585 124.961 171.313C124.961 171.041 124.741 170.821 124.469 170.821C124.198 170.821 123.978 171.041 123.978 171.313C123.978 171.585 124.198 171.805 124.469 171.805Z" fill="white"/>
<path id="Vector_62" d="M126.19 171.744C126.462 171.744 126.682 171.524 126.682 171.252C126.682 170.98 126.462 170.759 126.19 170.759C125.918 170.759 125.698 170.98 125.698 171.252C125.698 171.524 125.918 171.744 126.19 171.744Z" fill="white"/>
<path id="Vector_63" d="M127.973 171.067C128.244 171.067 128.464 170.847 128.464 170.575C128.464 170.303 128.244 170.082 127.973 170.082C127.701 170.082 127.481 170.303 127.481 170.575C127.481 170.847 127.701 171.067 127.973 171.067Z" fill="white"/>
<path id="Vector_64" d="M119.797 169.59C120.069 169.59 120.289 169.37 120.289 169.098C120.289 168.826 120.069 168.606 119.797 168.606C119.526 168.606 119.306 168.826 119.306 169.098C119.306 169.37 119.526 169.59 119.797 169.59Z" fill="white"/>
<path id="Vector_65" d="M120.597 172.728C120.868 172.728 121.088 172.508 121.088 172.236C121.088 171.964 120.868 171.744 120.597 171.744C120.325 171.744 120.105 171.964 120.105 172.236C120.105 172.508 120.325 172.728 120.597 172.728Z" fill="white"/>
<path id="Vector_66" d="M122.011 173.467C122.282 173.467 122.503 173.246 122.503 172.975C122.503 172.703 122.282 172.482 122.011 172.482C121.739 172.482 121.519 172.703 121.519 172.975C121.519 173.246 121.739 173.467 122.011 173.467Z" fill="white"/>
<path id="Vector_67" d="M123.731 173.898C124.003 173.898 124.223 173.677 124.223 173.405C124.223 173.133 124.003 172.913 123.731 172.913C123.46 172.913 123.24 173.133 123.24 173.405C123.24 173.677 123.46 173.898 123.731 173.898Z" fill="white"/>
<path id="Vector_68" d="M125.453 173.898C125.724 173.898 125.944 173.677 125.944 173.405C125.944 173.133 125.724 172.913 125.453 172.913C125.181 172.913 124.961 173.133 124.961 173.405C124.961 173.677 125.181 173.898 125.453 173.898Z" fill="white"/>
<path id="Vector_69" d="M127.296 173.344C127.568 173.344 127.788 173.123 127.788 172.852C127.788 172.58 127.568 172.359 127.296 172.359C127.025 172.359 126.805 172.58 126.805 172.852C126.805 173.123 127.025 173.344 127.296 173.344Z" fill="white"/>
<path id="Vector_70" d="M119.183 171.498C119.455 171.498 119.675 171.277 119.675 171.005C119.675 170.734 119.455 170.513 119.183 170.513C118.912 170.513 118.691 170.734 118.691 171.005C118.691 171.277 118.912 171.498 119.183 171.498Z" fill="white"/>
<path id="Vector_71" d="M117.77 170.698C118.041 170.698 118.261 170.477 118.261 170.206C118.261 169.934 118.041 169.713 117.77 169.713C117.498 169.713 117.278 169.934 117.278 170.206C117.278 170.477 117.498 170.698 117.77 170.698Z" fill="white"/>
<path id="Vector_72" d="M119.859 174.575C120.131 174.575 120.351 174.354 120.351 174.082C120.351 173.81 120.131 173.59 119.859 173.59C119.588 173.59 119.368 173.81 119.368 174.082C119.368 174.354 119.588 174.575 119.859 174.575Z" fill="white"/>
<path id="Vector_73" d="M121.334 175.313C121.606 175.313 121.826 175.093 121.826 174.821C121.826 174.549 121.606 174.328 121.334 174.328C121.062 174.328 120.842 174.549 120.842 174.821C120.842 175.093 121.062 175.313 121.334 175.313Z" fill="white"/>
<path id="Vector_74" d="M123.055 175.744C123.327 175.744 123.547 175.523 123.547 175.251C123.547 174.98 123.327 174.759 123.055 174.759C122.784 174.759 122.563 174.98 122.563 175.251C122.563 175.523 122.784 175.744 123.055 175.744Z" fill="white"/>
<path id="Vector_75" d="M124.776 175.744C125.048 175.744 125.268 175.523 125.268 175.251C125.268 174.98 125.048 174.759 124.776 174.759C124.505 174.759 124.285 174.98 124.285 175.251C124.285 175.523 124.505 175.744 124.776 175.744Z" fill="white"/>
<path id="Vector_76" d="M126.559 175.19C126.83 175.19 127.05 174.969 127.05 174.698C127.05 174.426 126.83 174.205 126.559 174.205C126.287 174.205 126.067 174.426 126.067 174.698C126.067 174.969 126.287 175.19 126.559 175.19Z" fill="white"/>
<path id="Vector_77" d="M118.445 173.344C118.717 173.344 118.937 173.123 118.937 172.852C118.937 172.58 118.717 172.359 118.445 172.359C118.174 172.359 117.954 172.58 117.954 172.852C117.954 173.123 118.174 173.344 118.445 173.344Z" fill="white"/>
<path id="Vector_78" d="M116.786 172.482C117.058 172.482 117.278 172.262 117.278 171.99C117.278 171.718 117.058 171.498 116.786 171.498C116.515 171.498 116.294 171.718 116.294 171.99C116.294 172.262 116.515 172.482 116.786 172.482Z" fill="white"/>
<path id="Vector_79" d="M119.183 176.297C119.455 176.297 119.675 176.077 119.675 175.805C119.675 175.533 119.455 175.313 119.183 175.313C118.912 175.313 118.691 175.533 118.691 175.805C118.691 176.077 118.912 176.297 119.183 176.297Z" fill="white"/>
<path id="Vector_80" d="M120.658 176.974C120.93 176.974 121.15 176.754 121.15 176.482C121.15 176.21 120.93 175.99 120.658 175.99C120.387 175.99 120.167 176.21 120.167 176.482C120.167 176.754 120.387 176.974 120.658 176.974Z" fill="white"/>
<path id="Vector_81" d="M122.379 177.467C122.651 177.467 122.871 177.246 122.871 176.974C122.871 176.702 122.651 176.482 122.379 176.482C122.108 176.482 121.888 176.702 121.888 176.974C121.888 177.246 122.108 177.467 122.379 177.467Z" fill="white"/>
<path id="Vector_82" d="M124.039 177.467C124.31 177.467 124.53 177.246 124.53 176.974C124.53 176.702 124.31 176.482 124.039 176.482C123.767 176.482 123.547 176.702 123.547 176.974C123.547 177.246 123.767 177.467 124.039 177.467Z" fill="white"/>
<path id="Vector_83" d="M125.883 176.913C126.154 176.913 126.375 176.692 126.375 176.421C126.375 176.149 126.154 175.928 125.883 175.928C125.611 175.928 125.391 176.149 125.391 176.421C125.391 176.692 125.611 176.913 125.883 176.913Z" fill="white"/>
<path id="Vector_84" d="M117.77 175.005C118.041 175.005 118.261 174.785 118.261 174.513C118.261 174.241 118.041 174.021 117.77 174.021C117.498 174.021 117.278 174.241 117.278 174.513C117.278 174.785 117.498 175.005 117.77 175.005Z" fill="white"/>
<path id="Vector_85" d="M116.356 174.082C116.627 174.082 116.847 173.862 116.847 173.59C116.847 173.318 116.627 173.098 116.356 173.098C116.084 173.098 115.864 173.318 115.864 173.59C115.864 173.862 116.084 174.082 116.356 174.082Z" fill="white"/>
<path id="Vector_86" d="M118.63 177.897C118.901 177.897 119.122 177.677 119.122 177.405C119.122 177.133 118.901 176.913 118.63 176.913C118.358 176.913 118.138 177.133 118.138 177.405C118.138 177.677 118.358 177.897 118.63 177.897Z" fill="white"/>
<path id="Vector_87" d="M120.105 178.636C120.377 178.636 120.597 178.415 120.597 178.144C120.597 177.872 120.377 177.651 120.105 177.651C119.833 177.651 119.613 177.872 119.613 178.144C119.613 178.415 119.833 178.636 120.105 178.636Z" fill="white"/>
<path id="Vector_88" d="M121.765 179.066C122.036 179.066 122.256 178.846 122.256 178.574C122.256 178.302 122.036 178.082 121.765 178.082C121.493 178.082 121.273 178.302 121.273 178.574C121.273 178.846 121.493 179.066 121.765 179.066Z" fill="white"/>
<path id="Vector_89" d="M123.485 179.128C123.757 179.128 123.977 178.908 123.977 178.636C123.977 178.364 123.757 178.144 123.485 178.144C123.214 178.144 122.994 178.364 122.994 178.636C122.994 178.908 123.214 179.128 123.485 179.128Z" fill="white"/>
<path id="Vector_90" d="M125.33 178.513C125.601 178.513 125.821 178.292 125.821 178.02C125.821 177.749 125.601 177.528 125.33 177.528C125.058 177.528 124.838 177.749 124.838 178.02C124.838 178.292 125.058 178.513 125.33 178.513Z" fill="white"/>
<path id="Vector_91" d="M117.216 176.667C117.487 176.667 117.708 176.446 117.708 176.174C117.708 175.903 117.487 175.682 117.216 175.682C116.944 175.682 116.724 175.903 116.724 176.174C116.724 176.446 116.944 176.667 117.216 176.667Z" fill="white"/>
<path id="Vector_92" d="M118.138 179.928C118.41 179.928 118.63 179.708 118.63 179.436C118.63 179.164 118.41 178.943 118.138 178.943C117.867 178.943 117.646 179.164 117.646 179.436C117.646 179.708 117.867 179.928 118.138 179.928Z" fill="white"/>
<path id="Vector_93" d="M119.613 180.605C119.885 180.605 120.105 180.385 120.105 180.113C120.105 179.841 119.885 179.62 119.613 179.62C119.342 179.62 119.122 179.841 119.122 180.113C119.122 180.385 119.342 180.605 119.613 180.605Z" fill="white"/>
<path id="Vector_94" d="M121.273 181.097C121.545 181.097 121.765 180.877 121.765 180.605C121.765 180.333 121.545 180.113 121.273 180.113C121.001 180.113 120.781 180.333 120.781 180.605C120.781 180.877 121.001 181.097 121.273 181.097Z" fill="white"/>
<path id="Vector_95" d="M122.994 181.097C123.266 181.097 123.486 180.877 123.486 180.605C123.486 180.333 123.266 180.113 122.994 180.113C122.723 180.113 122.502 180.333 122.502 180.605C122.502 180.877 122.723 181.097 122.994 181.097Z" fill="white"/>
<path id="Vector_96" d="M124.838 180.482C125.109 180.482 125.33 180.261 125.33 179.989C125.33 179.718 125.109 179.497 124.838 179.497C124.566 179.497 124.346 179.718 124.346 179.989C124.346 180.261 124.566 180.482 124.838 180.482Z" fill="white"/>
<path id="Vector_97" d="M130.001 175.682C130.273 175.682 130.493 175.462 130.493 175.19C130.493 174.918 130.273 174.698 130.001 174.698C129.729 174.698 129.509 174.918 129.509 175.19C129.509 175.462 129.729 175.682 130.001 175.682Z" fill="white"/>
<path id="Vector_98" d="M128.772 174.021C129.044 174.021 129.264 173.8 129.264 173.528C129.264 173.256 129.044 173.036 128.772 173.036C128.5 173.036 128.28 173.256 128.28 173.528C128.28 173.8 128.5 174.021 128.772 174.021Z" fill="white"/>
<path id="Vector_99" d="M128.034 175.744C128.306 175.744 128.526 175.523 128.526 175.251C128.526 174.98 128.306 174.759 128.034 174.759C127.763 174.759 127.542 174.98 127.542 175.251C127.542 175.523 127.763 175.744 128.034 175.744Z" fill="white"/>
<path id="Vector_100" d="M127.481 177.344C127.753 177.344 127.973 177.123 127.973 176.851C127.973 176.579 127.753 176.359 127.481 176.359C127.209 176.359 126.989 176.579 126.989 176.851C126.989 177.123 127.209 177.344 127.481 177.344Z" fill="white"/>
<path id="Vector_101" d="M129.018 178.143C129.289 178.143 129.509 177.923 129.509 177.651C129.509 177.379 129.289 177.159 129.018 177.159C128.746 177.159 128.526 177.379 128.526 177.651C128.526 177.923 128.746 178.143 129.018 178.143Z" fill="white"/>
<path id="Vector_102" d="M126.805 179.005C127.076 179.005 127.296 178.785 127.296 178.513C127.296 178.241 127.076 178.021 126.805 178.021C126.533 178.021 126.313 178.241 126.313 178.513C126.313 178.785 126.533 179.005 126.805 179.005Z" fill="white"/>
<path id="Vector_103" d="M128.28 179.62C128.551 179.62 128.772 179.4 128.772 179.128C128.772 178.856 128.551 178.636 128.28 178.636C128.008 178.636 127.788 178.856 127.788 179.128C127.788 179.4 128.008 179.62 128.28 179.62Z" fill="white"/>
<path id="Vector_104" d="M121.15 182.759C121.422 182.759 121.642 182.538 121.642 182.266C121.642 181.994 121.422 181.774 121.15 181.774C120.878 181.774 120.658 181.994 120.658 182.266C120.658 182.538 120.878 182.759 121.15 182.759Z" fill="white"/>
<path id="Vector_105" d="M119.183 182.082C119.455 182.082 119.675 181.861 119.675 181.589C119.675 181.318 119.455 181.097 119.183 181.097C118.912 181.097 118.691 181.318 118.691 181.589C118.691 181.861 118.912 182.082 119.183 182.082Z" fill="white"/>
<path id="Vector_106" d="M123.117 182.882C123.388 182.882 123.608 182.661 123.608 182.389C123.608 182.118 123.388 181.897 123.117 181.897C122.845 181.897 122.625 182.118 122.625 182.389C122.625 182.661 122.845 182.882 123.117 182.882Z" fill="white"/>
<path id="Vector_107" d="M124.961 182.266C125.233 182.266 125.453 182.046 125.453 181.774C125.453 181.502 125.233 181.282 124.961 181.282C124.689 181.282 124.469 181.502 124.469 181.774C124.469 182.046 124.689 182.266 124.961 182.266Z" fill="white"/>
<path id="Vector_108" d="M126.621 181.282C126.892 181.282 127.112 181.061 127.112 180.79C127.112 180.518 126.892 180.297 126.621 180.297C126.349 180.297 126.129 180.518 126.129 180.79C126.129 181.061 126.349 181.282 126.621 181.282Z" fill="white"/>
<path id="Vector_109" d="M116.724 178.636C116.996 178.636 117.216 178.415 117.216 178.144C117.216 177.872 116.996 177.651 116.724 177.651C116.453 177.651 116.232 177.872 116.232 178.144C116.232 178.415 116.453 178.636 116.724 178.636Z" fill="white"/>
</g>
</g>
<g id="calabasa">
<g id="Layer 1 2">
<path id="Vector_110" d="M112.606 197.281C112.606 197.281 115.864 201.219 126.19 201.465C139.651 201.773 143.093 195.866 143.093 195.866L112.114 196.727L112.606 197.281Z" fill="#A75F27"/>
<path id="Vector_111" d="M147.765 173.282C145.367 174.759 142.786 175.867 140.02 176.605C135.84 177.713 131.537 178.267 127.235 178.267C122.932 178.328 118.63 177.774 114.45 176.605C111.745 175.867 109.102 174.759 106.705 173.282C106.889 172.729 107.074 172.236 107.32 171.744C108.18 169.898 109.287 168.113 110.639 166.575C112.483 167.314 114.388 167.929 116.355 168.298C123.485 169.836 130.861 169.836 137.991 168.298C139.958 167.867 141.864 167.252 143.708 166.514C145.06 168.113 146.166 169.836 147.027 171.744C147.334 172.236 147.58 172.729 147.765 173.282Z" fill="#2C302F" stroke="#2C302F" stroke-miterlimit="10"/>
<path id="Vector_112" d="M127.296 191.374C124.653 191.374 122.01 191.189 119.367 190.82C113.897 189.958 109.287 188.235 106.152 186.02C107.258 190.328 108.979 193.835 112.298 196.727L113.466 197.712C115.495 199.25 116.663 199.804 118.568 200.112C121.396 200.604 124.1 200.542 126.989 200.542C131.783 200.604 136.762 200.296 141.495 197.158C144.876 194.266 147.273 190.389 148.318 186.082C143.831 189.22 136.025 191.374 127.296 191.374Z" fill="#2C302F" stroke="#2C302F" stroke-miterlimit="10"/>
<path id="Vector_113" d="M143.831 166.514C141.987 167.252 140.082 167.867 138.115 168.237C130.985 169.775 123.609 169.775 116.479 168.237C114.512 167.806 112.606 167.19 110.762 166.452C112.729 164.175 115.126 162.329 117.831 160.975L117.708 161.345C117.708 161.898 121.949 162.268 127.235 162.268C132.521 162.268 136.762 161.837 136.762 161.345L136.64 160.975C139.406 162.329 141.803 164.237 143.831 166.514Z" fill="#A75F27" stroke="#A75F27" stroke-miterlimit="10"/>
<path id="Vector_114" d="M136.763 161.468C136.763 161.96 132.521 162.391 127.235 162.391C121.949 162.391 117.708 161.96 117.708 161.468L117.831 161.099L118.876 156.483H135.595L136.64 161.099L136.763 161.468Z" fill="#C1C5C8"/>
<path id="Vector_115" d="M128.895 155.622L128.587 157.222C132.521 157.16 135.595 156.853 135.595 156.422C135.595 155.991 132.706 155.745 128.895 155.622Z" fill="#AFB2B5"/>
<path id="Vector_116" d="M118.937 156.422C118.937 156.791 121.826 157.16 125.637 157.222L128.956 157.283L129.755 156.422L128.895 155.683L125.883 155.622C121.949 155.683 118.937 156.053 118.937 156.422Z" fill="#AFB2B5"/>
<path id="Vector_117" d="M111.5 175.436L115.987 168.052L121.703 169.098L119.306 173.652L115.249 172.975" stroke="#A75F27" stroke-miterlimit="10"/>
<path id="Vector_118" d="M126.374 178.267L126.251 169.467C126.251 169.467 127.296 169.529 129.017 169.467C130.677 169.406 133.32 169.16 133.32 169.16L133.689 173.775L128.403 174.205" stroke="#A75F27" stroke-miterlimit="10"/>
<path id="Vector_119" d="M140.757 176.359C140.88 175.99 138.114 168.298 138.114 168.298L143.831 166.514C143.831 166.514 145.552 168.913 146.043 169.775L142.171 171.375" stroke="#A75F27" stroke-miterlimit="10"/>
<path id="Vector_120" d="M118.568 198.696L119.736 191.066L126.19 191.558L125.883 196.173L120.904 195.619" stroke="#A75F27" stroke-miterlimit="10"/>
<path id="Vector_121" d="M131.784 199.189L131.107 191.435C131.107 191.435 136.086 190.881 136.947 190.635L138.545 190.328L139.037 194.573L133.996 195.066" stroke="#A75F27" stroke-miterlimit="10"/>
<path id="Vector_122" d="M149.056 180.728C149.056 182.574 148.81 184.359 148.379 186.143C143.77 189.404 136.025 191.558 127.235 191.558C118.445 191.558 110.701 189.404 106.091 186.205C105.66 184.482 105.415 182.636 105.415 180.851V180.728C105.415 178.205 105.845 175.621 106.705 173.221C109.103 174.698 111.684 175.805 114.45 176.544C118.63 177.651 122.932 178.205 127.235 178.205C131.538 178.267 135.84 177.713 140.02 176.544C142.725 175.805 145.368 174.698 147.765 173.221C148.625 175.682 149.056 178.205 149.056 180.728Z" fill="#A75F27" stroke="#A75F27" stroke-miterlimit="10"/>
<path id="Vector_123" d="M110.762 166.267L112.668 167.006L109.779 170.39" stroke="#A75F27" stroke-miterlimit="10"/>
<path id="Vector_124" d="M115.004 189.897L114.205 193.589" stroke="#A75F27" stroke-miterlimit="10"/>
<path id="Vector_125" d="M144.507 193.958L143.708 188.42" stroke="#A75F27" stroke-miterlimit="10"/>
<path id="Vector_126" d="M108.918 192.543L109.717 188.235C109.717 188.235 112.053 189.22 112.975 189.528L115.003 190.081L114.204 193.773L110.946 192.604" stroke="#A75F27" stroke-miterlimit="10"/>
<path id="Vector_127" opacity="0.15" d="M122.993 156.422C122.993 156.053 125.144 155.622 125.144 155.622C118.998 155.622 118.998 156.422 118.998 156.422L117.768 161.16C112.359 163.56 106.09 171.375 105.598 179.436C105.475 190.328 109.409 193.835 113.466 197.712C114.941 199.127 118.26 200.296 118.26 200.296L122.501 201.158C118.69 196.358 114.634 185.405 114.695 179.313C114.879 168.298 123.485 162.206 123.485 162.206L123.915 157.099C123.731 157.222 122.932 156.729 122.993 156.422Z" fill="black"/>
</g>
</g>
<g id="hair">
<path id="Vector_128" d="M138.484 28.7983C135.041 29.2906 132.091 31.6905 130.493 35.0749H130.431C128.342 35.0749 126.252 35.6287 124.408 36.6748V36.3056C124.408 31.1366 127.174 26.7677 131.108 24.9832C133.935 25.1678 136.64 26.5215 138.484 28.7983Z" fill="#2B1813" stroke="#3B2720" stroke-miterlimit="10"/>
<path id="Vector_129" d="M124.408 36.3056V36.6748C123.056 37.4132 121.888 38.4593 120.904 39.69C118.568 34.398 120.966 28.2445 126.252 25.9062C127.604 25.2908 129.018 25.0447 130.431 25.0447H131.108C127.174 26.7677 124.408 31.1366 124.408 36.3056Z" fill="#3B2720" stroke="#3B2720" stroke-miterlimit="10"/>
<path id="Vector_130" d="M140.819 35.4441C140.819 36.9209 140.512 38.3362 139.897 39.69C137.623 36.7979 134.12 35.0749 130.432 35.0749C132.03 31.6905 134.98 29.2291 138.422 28.7983C140.02 30.6444 140.881 32.9827 140.819 35.4441Z" fill="#281511" stroke="#3B2720" stroke-miterlimit="10"/>
<path id="Vector_131" d="M139.959 39.6901C139.836 39.9362 139.713 40.2439 139.59 40.49C136.701 39.6901 133.751 39.3209 130.739 39.3209C130.247 39.3209 129.817 39.3209 129.387 39.3209C127.911 39.3824 126.375 39.567 124.9 39.8131C123.732 39.9977 122.564 40.3054 121.396 40.6131C121.212 40.3054 121.089 39.9977 120.904 39.6901C123.24 36.7979 126.744 35.075 130.432 35.075H130.493C134.181 35.075 137.685 36.7979 139.959 39.6901Z" fill="#002F3D" stroke="#002F3D" stroke-miterlimit="10"/>
<path id="Vector_132" d="M164.176 72.7957C163.132 72.4265 162.025 72.2419 160.857 72.2419C160.55 72.2419 160.181 72.2419 159.874 72.3034C157.477 61.7194 150.9 53.1661 142.233 48.9817C140.266 48.0587 138.238 47.3202 136.148 46.828C134.242 46.3972 132.337 46.2126 130.37 46.2126H130.309C126.252 46.2126 122.195 47.1356 118.568 48.9202C109.902 53.1045 103.325 61.7194 100.928 72.2419C100.62 72.1804 100.313 72.1804 99.9442 72.1804C99.0222 72.1804 98.1002 72.3034 97.1782 72.6111C97.2397 56.3659 108.857 42.5205 124.838 39.6899C126.313 39.4438 127.788 39.2592 129.325 39.1976C129.755 39.1976 130.247 39.1976 130.677 39.1976C149.24 39.2592 164.176 54.2737 164.176 72.7957Z" fill="#3B2720"/>
<path id="Vector_133" d="M100.928 72.3036C102.649 71.1344 104.8 60.3658 111.5 56.4276C117.524 52.8585 128.096 56.0584 130.432 56.0584C133.013 56.0584 144.692 53.9662 151.269 57.9659C157.292 61.5965 158.276 71.319 159.874 72.2421C159.874 72.2421 158.89 62.5811 151.945 55.0738C146.782 49.4741 136.763 45.5359 129.878 45.5359C122.871 45.5359 114.204 49.4126 109.226 55.1353C102.772 62.5811 100.928 72.3036 100.928 72.3036Z" fill="#3B2720"/>
</g>
<g id="hand">
<path id="Vector_134" d="M224.168 199.065C223.307 203.373 219.988 213.465 208.494 216.788C203.085 218.387 196.631 218.08 189.501 217.034C177.146 215.188 162.763 211.065 148.749 210.019C135.472 209.034 119.736 210.634 116.479 208.788C113.651 207.188 104.063 193.035 103.878 190.327C103.632 187.005 105.107 178.759 105.23 178.144C104.985 180.543 106.091 182.882 107.996 184.297C111.439 186.697 123.609 191.681 124.531 191.681C125.453 191.681 139.959 189.281 141.188 186.943C142.418 184.605 145.86 175.313 146.351 175.498C147.089 175.805 148.441 177.405 148.38 180.851C148.072 186.328 146.474 191.62 143.708 196.358C142.172 198.819 156.985 192.727 171.553 193.958C178.621 194.573 183.047 193.158 185.69 191.62C185.874 191.558 185.997 191.435 186.12 191.312L186.182 191.681C193.742 192.789 215.993 194.02 224.168 199.065Z" fill="#F5C49C"/>
<path id="Vector_135" d="M196.262 192.85C196.262 192.85 193.619 201.65 178.56 200.665C163.501 199.681 141.68 199.988 139.099 198.881C136.517 197.773 145.675 194.143 146.843 189.343C146.843 189.343 144.876 195.312 144.077 195.927C143.278 196.542 158.706 193.835 164.546 193.958C170.385 194.081 172.598 194.512 178.437 194.081C181.818 193.835 186.12 191.558 186.12 191.558L196.262 192.85Z" fill="#E8B690"/>
</g>
</g>
</svg>
