<?xml version="1.0" standalone="no"?>
<!DOCTYPE svg PUBLIC "-//W3C//DTD SVG 20010904//EN"
 "http://www.w3.org/TR/2001/REC-SVG-20010904/DTD/svg10.dtd">
<svg version="1.0" xmlns="http://www.w3.org/2000/svg"
 width="500.000000pt" height="500.000000pt" viewBox="0 0 500.000000 500.000000"
 preserveAspectRatio="xMidYMid meet">
<metadata>
Created by potrace 1.14, written by Peter Selinger 2001-2017
</metadata>
<g transform="translate(0.000000,500.000000) scale(0.100000,-0.100000)"
fill="#000000" stroke="none">
<path d="M1504 4485 c-24 -14 -49 -40 -58 -60 -9 -19 -29 -41 -44 -49 -69 -36
-105 -110 -91 -189 10 -58 35 -85 162 -169 144 -96 247 -192 348 -328 43 -58
79 -108 79 -111 0 -4 -24 -9 -52 -13 -154 -20 -195 -56 -246 -216 -29 -90 -34
-150 -24 -253 l10 -87 -117 -118 c-315 -315 -492 -762 -493 -1237 0 -566 266
-971 742 -1129 198 -65 238 -69 808 -74 l512 -4 0 65 0 65 -512 5 c-532 5
-573 8 -727 53 -349 101 -590 366 -666 732 -111 534 116 1197 520 1519 75 59
83 68 75 89 -5 12 -14 70 -20 128 -11 96 -10 111 9 181 29 103 45 132 78 139
16 3 98 15 183 26 85 12 155 22 156 23 6 5 -270 377 -321 434 -65 72 -186 170
-297 238 -68 42 -78 52 -78 76 0 23 7 32 38 48 44 22 67 46 81 84 6 15 18 27
26 27 9 0 61 -34 116 -76 235 -178 354 -305 578 -619 l135 -187 45 6 c110 14
498 27 626 22 212 -9 428 -27 447 -37 28 -15 38 -75 38 -231 0 -160 15 -232
61 -300 46 -67 367 -388 389 -388 29 0 60 35 60 68 0 36 -53 99 -214 257 -68
67 -130 138 -141 160 -16 33 -20 72 -26 225 -8 231 -21 275 -94 320 -69 43
-594 68 -981 47 l-151 -8 -58 83 c-146 208 -247 332 -374 458 -131 130 -307
275 -380 312 -50 25 -108 23 -157 -7z"/>
</g>
</svg>
