<?xml version="1.0" standalone="no"?>
<!DOCTYPE svg PUBLIC "-//W3C//DTD SVG 20010904//EN"
 "http://www.w3.org/TR/2001/REC-SVG-20010904/DTD/svg10.dtd">
<svg version="1.0" xmlns="http://www.w3.org/2000/svg"
 width="1200.000000pt" height="1200.000000pt" viewBox="0 0 1200.000000 1200.000000"
 preserveAspectRatio="xMidYMid meet">
<metadata>
Created by potrace 1.14, written by Peter Selinger 2001-2017
</metadata>
<g transform="translate(0.000000,1200.000000) scale(0.100000,-0.100000)"
fill="#000000" stroke="none">
<path d="M1069 11996 c-2 -2 -24 -7 -49 -10 -25 -3 -60 -10 -77 -15 -18 -5
-33 -8 -33 -6 0 9 -177 -58 -245 -92 -119 -59 -206 -123 -310 -228 -105 -104
-171 -195 -231 -315 -37 -76 -90 -226 -99 -281 -3 -19 -10 -59 -15 -89 -5 -33
-9 -2015 -9 -4970 l0 -4915 23 -110 c77 -368 313 -676 645 -840 77 -38 227
-91 282 -100 19 -3 59 -10 89 -15 66 -11 9910 -8 9955 3 17 4 53 12 80 19 212
48 405 157 570 323 106 105 171 194 230 315 38 76 92 230 101 288 3 19 9 44
12 56 4 11 8 2246 9 4966 l2 4945 -23 110 c-90 429 -389 766 -802 904 -193 65
214 60 -5185 60 -2704 1 -4918 -1 -4920 -3z"/>
</g>
</svg>
