<svg fill="none" height="180" viewBox="0 0 462 180" width="462" xmlns="http://www.w3.org/2000/svg"><path clip-rule="evenodd" d="m80.2781.285941h2.0313c-.4416.571883-1.3248.428912-2.0313 0zm92.7309 169.134059c.353 1.573 1.854 1.859 2.826.858 1.059 1.287 1.943 2.859 3.709 3.145-3.091.572-6.359 1.144-7.948-1.286-.089-1.859.529-2.574 1.413-2.717zm9.449-1.573c-.088 1.144-1.148.715-1.854 1.001 0-.286 0-.715 0-1.001zm14.396 7.435c.794-.286.706.572.883 1.144-.265.286-.618.429-1.148.286 0-.715.088-1.144.265-1.43zm-3.356 1.859c-.442.714-2.65-.286-2.385-.572.795.429 2.031-.286 2.385.572zm9.626-11.009c.265.429.265 1.287.177 2.144-.884.143-1.06.429-1.413-.857.529-.286.441-1.573 1.236-1.287zm2.826.143c.177 2.144-.883 2.43-1.236 3.86 0-1.287-.884-1.287-.619-2.859.619-.286.884-1.144 1.855-1.001zm.53 6.433c0 1.859-2.296 1.001-2.385-.142.795-.858 1.502.285 2.385.142zm2.826-.142c-.795-.429-2.561.571-2.561-.858.795.429 2.561-.572 2.561.858zm3.886 5.575c.088.715 1.06.143.706 1.43-.618 0-1.148 0-1.148-.858.265.143.177-.429.442-.572zm17.751-3.431c.618-.429 3.974 0 .707 0-.442 1.001-.972.143-.707 0zm43.716-1.716c.706.143 2.914-.286 3.797.286.177 1.001-.353.858-.265 1.716-1.236.143-2.119.715-3.267.858.706-1.43-.883-1.859-.265-2.86zm12.629 2.288c1.325-.286 3.356 0 3.974 1.716-.883.714-1.943-.858-3.003-.858-.618.715-1.324 1.858-.794 3.431-4.328-2.144-7.242 1.001-11.481-2.144 2.649-1.573 4.945.571 7.33-1.573.618.429.53 1.858 1.148 2.144.706-1.286 3.267.429 2.826-2.716zm1.501-4.861c1.148-.286 1.06 1.001 1.59 1.573-.53-.286-1.678.286-1.855-.429.354-.143.265-.572.265-1.144zm1.767 9.436c-.354 0-.795 0-1.148-.143 0-.286 0-.715 0-1.001.618-.143 1.236 0 1.148 1.144zm3.002-13.01c.265.572.618 1.286.442 2.573.706.572 2.296 0 2.561 1.287-1.236.429-3.621 1.716-3.974-.572.265-.429.883 0 .706-1.001 0-.715-.618-.858-1.148-.858 0-.286 0-.714 0-1 .618-.143.707-.715 1.413-.429zm-.176 10.294c-.354-.143-.883 0-.972-.429.972-.429 2.031 1.429 2.738 2.287-1.236-.715-2.473 2.145-3.091.143.706-.429 1.413-.429 1.325-2.001zm3.797.286c-.706-.286-2.031.285-2.384-.572.441-.429 2.296-.572 2.384.572zm1.678-1.001v1.001c-.441-.143-1.148.285-.883-.715.177 0 .353-.429.883-.286zm19.518-4.003c.706-.143.618 1 .883 1.429-.442-.286-1.413.286-1.413-.429.353 0 .353-.715.53-1zm5.74-17.729c-.618.286-1.06.715-1.854.572-.089-.572-.354-.572-.442-1.144.971.143 1.766-.572 2.296.572zm1.237.858c-.089.715.265.858.176 1.43-.353 0-.795 0-1.148-.143-.088-1.144.618-1.001.972-1.287zm2.472 14.011c-.706.143-.618 1.43-1.678 1.001-.353-1.716 1.325-1.859 1.678-1.001zm5.917-1.001c-.529 1.573-3.444 2.431-4.504.715 1.413-.429 3.091-1.715 4.504-.715zm4.681-9.007c.088 2.574-3.444.715-3.797.429.883 0 2.737.286 3.797-.429zm-1.943 11.581c-.441-.286-1.589.286-1.678-.429.53-.572 1.502-.286 1.678.429zm15.367 7.863c-1.236.429-3.974.715-4.239-1.287 1.148-1.572 3.709-.857 4.239 1.287zm35.591-3.288c-.353 0-.618 0-.972 0 0-.429 0-1.001 0-1.43.795-.286 1.149.286.972 1.43zm29.585-33.884c-.265 0-.353.429-.441.715-.53-.286-1.237-.429-1.148-1.43.618-.572 1.324-.429 1.589.715zm4.681 25.878c-.353 1-1.148 1.286-.265 2.43-1.148 0-2.208 2.002-2.561-.572.706-.715 1.501-3.145 2.826-1.858zm3.003-.143c-1.325-.429-1.767-2.145-3.003-2.717 1.413-1.287 3.974 0 3.003 2.717zm1.943-13.44c-.354 0-.265.715-.53 1.001-.618 0-1.148 0-1.148-.858.618.286 1.236-1.286 1.678-.143zm5.21-16.727v1.429c-.53-.285-1.678.286-1.854-.428.794-.143.883-1.287 1.854-1.001zm4.681 16.298c-.707 0-.353 1.716-1.237 1.287-.794-.429-.706-2.001-1.148-2.859 1.413-.286 1.767.858 2.385 1.572zm-1.943 15.87c.442 0 .971 0 1.413.143.353.858.177 2.288.883 2.574.265-.572.265-1.573.972-1.287 2.561 1.001 3.002-3.003 4.945-1.859.089 2.431-.088 4.146-1.236 4.575-.795-.572-.53-2.573-1.855-2.287-.618.715.177 1.572-.265 2.144-1.943-.715-3.444.143-5.122-.715.353-1 .177-1.429-.177-2.144.354 0 .442-.429.442-1.144zm4.416-11.723c.353 1.143.353 1.572.176 2.859-1.501 0-2.473-.572-3.267-1.573 1.059-.572 2.119-2.001 3.091-1.286zm-1.502-7.292c.972.572 1.237 2.145 1.855 3.288-.883.143-1.325.429-2.12-.143.265-1.429-.088-1.715.265-3.145zm4.504-1.001c1.413-.429 1.943 2.145 2.826.572-.264-1.144 0-4.003.53-5.004 1.767 1.43 3.886-1.287 5.211-2.859 1.06.143 2.031.429 2.119 1.858-.883.286-2.119 0-2.119 1.573 2.738 1.001 3.091-.715 5.652.429.265 1.144 0 .858 0 2.145-1.236-.286-1.855.571-2.826.857-1.855-3.288-5.387 1.573-6.535-2.144-.265 1.144-1.325.715-1.678 1.715-.265 2.431 1.236 2.431 1.059 4.718-1.589-.714-1.501 1.287-2.826.858-.353-1.001-.441-2.287-1.324-2.573-.177 1.001.441.715.441 1.43-1.236 0-2.031.714-2.826-.572.707-1.144 2.12-1.001 2.296-3.003zm3.18 16.871c.088.572.353.858.441 1.429-.265.429-.795.286-1.413.286 0-.285 0-.714 0-1 .354-.286.618-.572.972-.715zm.883 4.003c-.53.715-.883-.572-1.148-1.144.618-.143 1.236 0 1.148 1.144zm7.33-16.299c-.706-1-1.501-.286-2.12-.858.707-1 1.325-1.858 2.208-2.716.354.715 1.148.858.883 2.574-1.059.285-.529-1.573-1.589-1.144-.53 1.715.706 1.001.618 2.144zm4.504.715c-.883-1.001-2.12 1.287-3.268-.286 1.06.286 3.268-2.573 3.268.286zm-341.513-154.551059h.618c.088 0 .088.142971.088.428912-.265 0-.353.285937-.618.142971-.088-.142971-.088-.285942-.088-.571883zm3.356 0h.353v.142971c.265 0 .618 0 .618.285941-.265.285937-.618 0-.971-.428912zm4.592 0h.972c-.53 0-1.06.142971-.884 1.429709-.883.28594-2.296 0-2.737-1.143768.618-.571882 1.324.571878 2.119.571878.089-.14297.354-.428907.53-.857819zm2.296 0h5.564c-1.854 1.143769-3.444-.428912-5.122 1.143769-.177-.14297-.265-.714857-.442-1.143769zm15.279 0h.265c-.089 0-.089.142971-.177.142971zm47.866 0h.354c.53 0 1.148.428912.971.571883-.53-.142971-1.413.285936-1.59-.285942 0-.14297.089-.285941.265-.285941zm8.832 0h1.148c-.442 0-.795 0-1.148 0zm24.728 0h1.06c0 .428912-.618.571883-.53 1.429709.618-.28594 1.148-1.000797 1.678-1.429709h2.208 55.903c-.088.142971-.177.285941-.265.285941.088 1.429708 0 1.715648.177 2.859408 1.236.28595 2.737.57189 3.621.28595-.53-.14297-.619.42891-.53 1.14376 2.031 1.71565 4.415-.28594 6.8-.42891 0 1.28673 1.06.85782 1.413 1.71565 1.59-4.28912 5.652.71485 7.507-1.71565 0-1.71565-1.502-.71485-1.678-2.00159 0-.71485.883-.14297.795-1.00079-.53-.14297-.707-.857828-.972-1.286739.088 0 .177 0 .177-.142971h8.655c.265.285941.618.428912.706 1.00079 2.12-1.00079 5.122 2.00159 6.359-.285937.353 1.429707 1.766-.285941 2.208.857827-1.855 1.4297-4.063-.14297-5.211 1.28673-.177 1.0008.707 0 .707.71486-.442-.14298-.707.14297-.795.42891 0-.57189 0-.85783-.177-1.14377-1.06 0-1.501 1.0008-2.208 1.71565-.353-.57188-1.324-1.42971-1.678-.14297.089.71485 1.06 0 1.148.85782-.353.57189-1.148.42891-.971 1.85862.795-.28594 1.678.28594 2.384-.14297.177-.14297.354-.71485.53-.71485.619 0 1.502 1.00079 2.208.85782.53-.14297.53-1.28674 1.237-1.00079.088-.85783.353-1.57268.529-2.28753.972.14297.619 1.57267.177 2.00158 1.325.57189 3.091 0 4.328-.14297.441-.71485-.089-1.00079.088-1.57267 2.561 0 4.857-1.0008 6.623 1.28673-.353 0-.706 0-1.148 0-.265.14297 0 1.28674-.265 1.28674-1.854.71485-3.709-2.85941-4.68 0 1.854 1.00079 3.797 1.71565 6.005 1.28673.442.57189.707 1.42971 1.678 1.0008.265-.57188-.353-1.0008-.441-1.57268.353-.57188.794-2.00159.088-2.4305.706-1.00079 2.296.71485 2.649-.71485-.883-1.14377-2.384-1.28674-3.709-1.57268.883-1.4297 3.179.28594 4.239-1.71565.089.28595.442.14298.265.85783.883.28594 1.237-.42891 1.766-.71486.265.14298.354.57189.442 1.14377 1.236-.14297 3.179 0 3.003-1.715648.53.142971.088.857828.176 1.572678.442.14297.707.57188 1.237.57188.353-1.00079.353-.71485.088-1.858616.442 0 .618.714856.795 1.143766 3.091-.42891 6.447-1.429707 8.831-.14297 1.678-.85783 1.502 2.4305 2.738 1.4297-.177-1.4297-1.148-1.28673-1.501-2.14456.353-1.14376 1.06.42892 1.501-.285936.088-1.000795-.883 0-.795-.857824 1.502.142971 2.385.428912 3.091 2.14456.883-1.14377 2.915-.57188 4.151 0-.177.28594-.177 1.14376.177 1.14376.176-.85782.353-1.85861.971-2.00158.353.57188.883.85782 1.148 1.71564-.795.28594-.795 1.42971-.795 2.28753-.794.42891-.529-1.71564-1.148-.85782-1.589 3.43129 2.738 2.28753 3.621 1.14376-.971.42892-1.236-1.28673-2.119-1.71564 1.324-.42892 1.766 1.71564 3.356 1.4297.088-.85782-.795 0-.707-.85782.265 0 .088-.57188.265-.71485 1.501 1.85861 3.091-.85783 4.063 1.14376.353.14297.883-.71485 1.148 0 0 .42891-.619.14297-.53.71485.441.14297.971.42892 1.413.57189.441-.14297-.53-.71486 0-.85783.795.57189 1.501-.85782 2.208.14297-.442.71486-1.237-.57188-1.237.71486.265.71485 1.148.14297 1.237 1.00079-.883.57188 0 1.57268-.089 2.85937.884.143 2.297-.71481 2.385.8579-.353 0-.707 0-1.148 0-.089.4289-.442 1.4297-.089 1.8586.53-.4289 2.208-1.4297 2.65-.143-.442.4289-1.236.286-1.943.286-.265.5718-.353 1.2867-.795 1.5726.442-.2859.618.5719.972.5719.971.143 1.589-1.0008 2.472-1.2867.619-.143 1.06.5719 1.678.5719.972 0 1.855-1.0008 2.915-.5719-.088.2859-.177.5719-.265.8578.618.143 1.325.8578 1.766-.143.53 2.4305 3.091 1.4297 3.709-.1429 1.06.7148 1.767-.5719 2.65-.7149 0 .4289.441.143.441.7149-.618.5718-.971.2859-1.236 1.4297-.353-.5719-.795-.7149-1.413-.4289-.088.7148.442.2859.442.8578-.53.2859-.707 1.2867-.972 2.0016 1.325-.4289 2.649.1429 3.444-2.0016.972.7148 1.678-.286 2.473-.5719 0 .4289 0 .7148-.176.8578.883 0 1.678.143 2.384.286 0-1.2868.353-2.1446.707-3.0024 1.148.1429 2.472.1429 3.002 0 .53-.143.972-.7149 1.148-1.0008.53 1.8586 1.678.5719 2.826.5719.619 0 1.413.4289 2.12.5718.442 0 .706-.1429 1.06-.1429.795.1429 1.678.4289 2.737 0 .442-.5719.795-1.2868 1.59-1.2868.795-.4289 2.208-2.0015 3.179-2.2875.619-.143.884-.4289 1.325-.71484.972-.57188 2.031-.71485 3.003-1.14376.618-.42892 1.325-1.0008 1.943-1.42971 2.296.14297 4.857-.42891 7.418-1.28674.795 1.28674.972 3.57427 2.208 4.14615.177.8578-.088 1.2867-.265 1.8586-1.943.143-2.473-2.85939-3.709-4.2891-.265.28594-.442.85783-.53 1.42971-.618.42891-1.413.71485-2.031 1.00079-.353 0-.088-.71485-.442-.85782-.618-.28594-.53.71485-.971.71485-.53.14297-.53-.71485-.972-.85782-.883-.28594-2.031.71485-2.737 1.00079.265.7149 0 1.1438-.354 1.5727-.883-.5719-2.119-.7149-2.826.2859-.265.286.177.7149-.088 1.0008-.707.143-.883-.4289-1.413-.143 0 .5719-.088 1.0008-.177 1.2868-.53-1.1438-1.943-.5719-2.826-.143-.265 1.4297-.795 2.1446-1.589 2.7164.265 1.2868 1.059 2.5735 1.942 1.5727 0-.7148-.088-1.2867-.353-1.4297 1.325-.2859 2.738-1.1437 4.063-.2859.441-1.2868 2.296-1.7157 2.737-.286h.265c.177.143.354.143.619.143.794.286 1.413.8578 1.943 1.5727 1.501 1.1438 3.532-.4289 4.592 1.5727-.088.4289.088 1.0008-.088 1.1437.176.286.706 0 1.059.143-.088-.5719.089-.7149.265-1.0008 1.06.5719 2.65.143 3.621.4289.53-.4289.707-1.4297 1.325-1.7156.265-.143.353.1429.618.1429.53-1.4297 3.444 0 3.621-1.5726.088-.8579-.442-.5719-.53-1.5727.265-.5719.707-.7149 1.237-1.0008.088-.286.088-.8578.176-1.1438.972.143.972-1.1437 1.855-1.0008.088-.4289.176-.8578.176-1.2867.53-.85783 1.59-1.28674 2.208-.2859-.176.2859-.353.2859-.353.8578.442.1429.707.5719 1.06.8578.441 0 .441-.8578.971-.8578-.088-.7149-.706-.4289-.706-1.0008.353-1.42972 1.943-1.42972 3.002-1.00081 0 .85781-.529 1.14381-1.059 1.14381-.177-.143-.354-.143-.442 0-.088 0-.177 0-.177 0h.177c0 .7148.265.8578.707.7148 0-.143 0-.4289-.089-.5719.265.143.53.286.619.7149.971.1429 1.677-.4289 2.561-.5719h1.148c0 .2859.176.7148.176 1.0008-.265.143-.971-.286-.794.4289 1.059-.2859 1.501 1.1438 2.914.7149-.177 1.4297.883.7148 1.236 1.2867-.53.143-.706.7148-.971 1.4297-.442-.2859-.972-.2859-1.148-1.1438-.089.7149-.265 2.0016 0 2.8594-.089.429-.707 0-.53.7149v.7148c.177.286.53.286.795.143s0-1.2867.265-1.2867c.265.143.706 0 .794.4289-.529.4289-.618 1.4297-.264 2.2875.529 0 .794-.2859 1.059-.4289.265-1.8586-.794-2.0016-.883-4.0032.177-.2859.883 0 1.237.143-.354 2.1446 2.031 1.4297 2.472 2.8594 0-.143 0-.4289-.088-.7148.177.1429.265 0 .442-.143-.265-.2859-.442-.7149-.619-1.1438.884.5719 1.678 1.5727 2.562.143.176.143.441.2859.441.8578-1.148.143-.883.8579-1.943.286 0 .5719-.265 1.8586 0 2.7164.53.143 1.678-.5719 2.385-1.0008 1.413 2.4305 4.15-.5719 5.387 1.8586v.143c-1.501-.143-3.886-.143-5.211 1.2867-.265 0-.088-.7148-.265-.8578-2.737-.143-4.592 1.0008-6.358-1.1437-.089 0-.177.1429-.265.1429-.972-1.1437-1.06-1.5727-2.561-1.1437-.53-1.7157-1.59-6.7197-2.826-4.5751-.265-.4289-.177-1.2867-.177-2.1446-.177 0-.353 0-.53 0 0 2.0016.353 4.861.53 7.5775-.353.7148-.53 1.4297-1.325 1.2867v1.1438c.177.5719.442-.4289.53.143-.53 2.0015.442 5.0039 2.385 4.432-.177-1.0008-.442-2.1445 0-3.1453.706.4289.353 2.7164.706 3.7172.972-2.0016 1.855 1.8586 3.356.5719.177.2859.177.8578.265 1.1438.53 0 1.06.2859 1.59.5719-.177.2859-.265.7148-.354 1.2867.442-.7149 1.325.143.707.8578-.265-1.2867-.795.286-.971-.2859 0-.4289 0-.8579 0-1.1438-.619-.143-.707-.4289-1.325 0-.089 1.1438.618 2.0016-.353 2.1446-.089-.4289.176-1.5727-.177-1.5727-.088 1.2867-.353 2.5735.177 3.0024 1.148-1.2868 2.649 2.4305 3.002 3.0024-.176-.5719-.53-2.1446 0-2.1446.089.7148.177 1.2867.53 1.5727.442-3.0024-.795-5.5759.53-7.2915-.088 0-.177-.143-.177-.143v-.143c0-.1429 0-.2859-.088-.2859 0-.286 0-.4289-.177-.5719-.176.143-.353.2859-.529.4289-.089 0-.177-.143-.177-.2859.795.1429.706-1.0008 1.236-1.1438.265.286.53.4289.795.5719-.176 1.5727-.53 3.5743.618 4.5751.177-1.1438.265-2.4305.265-3.7173.442-.5719.707-.5719 1.148-.5719-.088.286-.088.5719.089.8579.088-.7149.53-.7149.53 0-.442.8578-.795.4289-1.678.8578 0 .8578 0 1.8586.53 1.8586.529-.143.176-1.5727.529-1.8586-.088 1.0008.177 1.4297.707 1.5727.441-.143.353-1.0008.971-.8579-.353-.7148-.441-1.8586-.441-3.1453 1.148-.8578 3.091 1.2867 3.974-.286 0-1.4297-.265-1.5726-.53-2.8594-.265.5719-.353 1.2868.177 1.5727-.442 0-.795 0-1.237 0-.176-.7148-.441-1.5727.089-2.0016.353-.2859.706.7149.794 0-.176 0-.176-.4289-.264-.7148.883.2859.529-1.2868 1.059-1.4297v.8578c0 .143.265.2859.265.5719 0 .5718-.441 1.4297-.353 2.2875.088.5719.53.5719.353 1.2867.089 0 .177.143.265.143-.088.2859-.176.5719 0 .8578-.088-.1429-.176-.1429-.176-.2859-.177 1.2867-.089 3.1453 0 4.2891.264.4289.353 0 .618.143 0 2.5734.265 4.861-.618 6.7196 0-.4289 0-.7149 0-1.1438-.089-.2859-.442 0-.53-.2859-.265-1.8586 1.148-3.7172.088-4.718-.442 1.8586-.707 3.8602-.618 6.0047-.265.4289-.53.7149-.442 1.7157.177.2859.353-.286.618-.4289.177.2859.707.7148.972.1429.353.7149-.353 2.2876.265 2.5735.441-.8578.53-2.2875.706-3.7172.442.8578 0 2.7164.354 3.8602v.7148s-.089 0-.177 0c-.088.5719 0 1.0008.177 1.2868v.7148c-.089.143-.177.143-.354.143 0 1.0008 0 2.4305.354 2.8594v.4289c-.089 0-.177-.143-.354-.143-.088.4289-.265.7149-.265 1.2868.354.2859.265.4289.53.1429v.286c-.088.143-.176.2859-.353.4289.177 3.1453.442 6.4337-.088 8.8642.265 1.7156-.972 1.4297-.618 2.7164.529-.143.529-1.1437.883-1.5727.088 0 .088.143.176.286v.2859c-.088.286-.265.7149-.088 1.0008h.088v1.2867c-.088.429-.265.7149-.53 1.0008.442 1.0008.177 2.8595-.088 4.1462-.088-.143-.441-.2859-.441.143.353.1429.706.2859.794 1.0008-.176.4289-.353.8578-.706 1.1437-.089-.7148-.53-.7148-.883-.8578-.177-.8578.618-.5719.353-1.1438-1.237-1.5726-.883 2.7165-.53 3.5743-.088-1.0008.53-1.2867.707-2.1446.176 1.2868-.707 1.7157-.619 3.2884.354.1429 0-.7149.354-.7149 0 .286.265.143.265.2859-.707 1.5727.264 3.1454-.53 4.0032-.089.4289.265.8579 0 1.1438-.177 0 0-.5719-.265-.5719-.089.4289-.177 1.0008-.265 1.4297 0 .4289.265-.5719.353 0-.265.8578.265 1.5727-.088 2.2875-.265-.4289.265-1.2867-.265-1.2867-.265.2859-.089 1.1438-.442 1.2867-.176-.8578-.618 0-1.148-.1429-.088.8578.177 2.2875-.353 2.4305 0-.4289 0-.7149 0-1.1438-.177 0-.53-.4289-.707-.143.177.5719.53 2.2876 0 2.5735-.088-.4289-.088-1.2867-.088-2.0016-.177-.2859-.53-.4289-.618-.8578.088.4289-.177.5719-.265 1.0008-.088 1.0008.353 1.5727.441 2.5735 0 .5718-.265 1.1437-.265 1.7156 0 1.0008.354 1.8586.177 2.8594-.088-.1429-.176-.143-.353-.2859-.088.5719-.353 1.4297 0 1.8586-.972.4289-.618 3.1453 0 3.7172-.265 1.0008.177 1.7157.265 2.5735-.177 0-.088.4289-.265.4289-.177-.5719-.089-1.0008-.53-1.2867.265-.286.265-.8578.177-1.4297-.265-.143-.089.4289-.354.4289-.088-.5719-.441-.7149-.794-1.0008.176 1.2867-.089 2.7164.706 3.4313-.265 1.0005.088 1.7155.177 2.5735-.177 0-.265 0-.354-.143 0 .858-.088 1.716-.176 2.43.53 0 .795.286 1.148.715.177-.143.176-.572.53-.429.088.715-.265.572-.177 1.287.177.429.353 0 .53.286 0 .143 0 .572-.088.572-.177-.286-.177-.429-.619-.286.089 1.287.354 2.431.265 3.574.177.429.265-.429.354 0 .088.572-.265.429-.177 1.001.353-.143.088.715.442.715.265-1.001.441-2.716.883-3.86-.177-2.002.441-4.861.176-7.292.089-.429.354-.429.442-1.0006-.353-1.1437-.618-2.8594-.177-4.1461 0-.2859-.353-.143-.441-.4289.441-.143 0-.5719.088-.7149.265 0 .177.4289.53.286.177-.4289 0-1.4297-.265-1.5727s-.088.4289-.353.4289c-.177-.1429-.089-.7148-.089-1.1437.972-.143.884-2.7165.265-3.2884-.088.4289-.088 1.1438-.441 1.2868-.177-.143-.088-.7149-.088-1.1438.088-.2859.529.143.441-.4289 0-.4289-.353-.143-.353-.4289.088-.286-.177-1.1438.176-1.0008.177.143-.176.8578.177.8578.177-.5719-.088-1.5727-.53-1.7156-.176 0-.353.8578-.53.5718 0-.1429 0-.2859-.088-.4289.265-.4289.53-.7148.707-1.2867.265-.143.353.143.529.143.619-.7149.53-2.0016 1.149-1.8586.441.1429.088.5718.264 1.2867.089.2859.354.5719.354.7148l-.265.143c-.089.4289.176.8578-.089 1.1438.265 0 .354.4289.442.8578 0 .4289-.442.143-.442.7149 0 .5718.53.2859.442 1.1437-.353 0-.177.286-.618.143-.265.7148 0 1.4297-.088 2.5735.441.1429.618.8578.706 1.7156-.441-.2859-.442.143-.618.7149.265 0 .441-.0001.441.4289-.441.4289-.088 2.1445-.794 2.2875-.177 1.4297-.265 3.0021.265 4.0031-1.149 1.144-.707 4.146-.884 7.149.442.143.265-.858.707-.858 0 .715-.177 1.144-.177 1.858-.088.286-.441.286-.618.429 0 1.287-.353 2.574.177 3.718-.177.143-.354.285-.354.714.442.286.795.715.884 1.716-.354-.286-.53-.572-.795 0 .088.715 1.06.858.53 1.859-.354.143-.354-.429-.619-.143-.088 1 .354 1.286 0 2.001 0 .286.177.286.265.286.177.286-.176.858-.353.858 0-.286 0-.858-.177-.858 0 .429-.088.715-.176.858.176 0 .441.143.706.286 0 .572.177 1.001.354 1.287-.177.286-.177 1.001-.442 1.286.353.715.177 1.859.088 2.574.177.143.177-.715.354-.143-.619 3.002-.442 6.863.088 10.866 0 .429-.265.429-.353.715.353.143.176.571.265 1-.177-.143-.442-.429-.619-.714-.088.428-.441.285-.706.285-.088 1.287-.53 3.289-.795 5.29-.53-1.858-.265-5.575.177-7.863-1.502 0-1.502 2.43-2.65 3.002-.618-.572 1.06-1.715.265-2.859-.53-.715-1.06.858-1.854-.143.176-2.145 1.413-.572 1.943-1.001-.53-.429-.619-1.43-1.149-1.858-1.589-.572-1.678 1.429-2.649 2.001-1.943-1.573-4.327.429-5.829-1.43-1.325.858.883 3.003-.795 3.146.089 1.287 1.943 1.001 1.678-.572.265.715.883.858 1.148 1.43.53-.429 1.149-.858 2.12-.572.353.286.53.572.707 1.144-.177 1.858-2.208 1.572-2.827 1.572.089 1.287-.265 1.859-.706 2.145-.972.143-.883-1.287-2.12-.858 0 1.001.089 2.144-.53 2.144-.971-.142-.353-2.716-1.854-2.287.177-.286.176-1.001.53-1.001-.265-1.144-.795.286-1.413-.143-.972-.715-.53-2.001-.177-3.145.707 0 1.413.143 2.12.143-.795.429-.795 1.43-.265 2.43.53-2.001 1.059-2.287 1.059-4.575-1.677-3.002-5.828 1.716-7.506-1.715 0-.143-.089-.286-.177-.429 0 0 0-.143-.088-.143h-.089c-.176-.143-.264-.429-.264-.858 1.677-2.86-.089-5.719 1.148-9.007 0 .286 0 .572.176.572-.706-4.575 0-13.154-2.208-16.871 1.237-1.144.354-3.288 1.148-4.575-.441-.715-1.059-1.001-1.324-1.859.088-.5715.353-.8574.53-1.1433-.442-.5719-1.325-.143-2.032-.286-.441 2.2873.177 4.7183.177 7.8633.088 3.86-.883 7.863-.353 11.724.53 4.289.883 9.293 1.06 14.726-.354-.143-.619-.286-1.06-.858-.618 1.001-1.678 1.43-2.473 2.001.088-1.429.177-2.716.618-3.86-.883-.572-.971-2.287-1.678-3.002.972-1.573.353-5.576 1.325-7.292-.618-3.145-1.943-5.576-1.148-9.579-.972-2.43-1.413-6.576-.707-9.293-.618-.715-.53-2.4303-1.501-1.8584-.618 3.2884.353 7.5774-.972 8.1494.972 3.574-.176 9.15.53 12.581-.618.286-.706 1.287-.971 2.145 1.148 2.001.441 5.147.618 7.863-.795.286-1.59.715-2.384.715.088-.715.176-1.43.441-2.001-.971-2.288-.353-4.433-.53-6.863.707-.715.442.572.972 0-.265-1.144-.618-.715-.972-2.145.972-.286.354-2.43 1.678-3.288-.088-1.144-.265-1.43 0-2.43-.618.286-.353-.715-.706-.858.088.715-.089 1.286-.53 1.144 0-.715-.088-1.716.177-3.003.264 0 .618 1.287.529 0-.353-2.43-1.236-2.716-2.031-4.146.265-1.144.53-4.861.707-4.575-.177 0-.177.286-.354.286.177-2.002-.618-4.1463-1.148-6.0049.972-1.1438 2.561.4289 2.208-1.8586 0 .4289-.441.2859-.706.2859.441-.7148-.53-2.5734-.707-2.1445.265.1429.353.7148.353 1.1437-.176.8579-1.324 2.0016-1.678.5719.442-.7148-.176-1.2867 0-2.4305-.441 0-.883 0-1.324 0 .618 1.8586-.883.7149-1.325 1.8586.707.8579 1.413-.1429 1.678 1.1438-1.325-.5719-2.031.4289-2.826 0-.265-.143-.707-1.1438-1.148-1.1438l-.707.5719c-2.296.143-6.093 0-7.948-.2859-2.385-.286-4.681 2.4305-6.535 0-.795 1.1437-2.297.4289-3.18 0-2.737 2.7164-.265 5.0039 1.855 6.0044 3.268-2.4302 6.094 1.287 9.273.572 1.236-.286 2.208-1.8584 3.709-1.5725-.088.8575.089 1.2865.53 1.1435-.265-1.7153 2.208-2.1442 3.179-1.8583 0 .7148-.353 1.4293-.176 2.1443h.706c-.088-.858-.618-1.1435-.353-2.4303.707-.1429 1.236-1.0007 1.678 0 .353-.4289.265-1.5726.971-1.5726 0 1.5727.795 3.2879.53 4.1459.707.143.707-.715 1.325-.572.265 2.86.088 4.575.353 7.578-.176 0-.441.143-.53.286.089-1.001-.971-1.573-1.148-.572.619-.286.795.286 1.06.572-.795.715-.795 2.43-1.854 3.574.176-.858.176-.858 0-1.859.706 0 .883-1 1.148-1.858-.53-.429-1.943-.715-1.855-3.003.088-.429.442-.286.53-.572 0-.857-.707-1.286-.177-2.144-1.059-.429-1.236 0-2.208.286-.088 1.144.442 1.144.354 2.144-.265-.286-.442-.286-.53.286.618.715.971 1.144 1.501 1.144 0 .286 0 .858-.176.858-.265 0-.354-.429-.53-.572 0 .715.353 1.001-.177 1.144-.088-.715-.353.429-.707 0 0-.286 0-.858-.176-.858-.088.572-.53.858-.972.858-6.093-1.001-12.805 1.001-18.192-.572 0 .858-.619.858-.707 1.573.795 2.716 3.709 2.144 6.359 2.43 3.179.429 6.182.715 8.566.858 2.65-1.287 4.681-1.859 7.419-1.144-1.06 0-.442 1.859 0 1.573-.089.858-.707.858-.707 1.858h1.148c.265-.714-.706-1-.176-1.143.971.143 1.059 1.572.971 2.43-.265-.429-.441-1.001-1.148-.858.088.572-.265.572-.353.858 1.06 0 1.059 2.145 1.148 3.003.618.286.265-1.001.706-.858.265.429.265 1.429-.176 1.572-.795-.714-2.561.143-3.18-.857-.176 1.858-2.472-.143-4.415 0-1.502.143-2.12.714-2.826-.572-2.738 2.001-6.977.429-10.422.572-.794 0-1.678.857-2.384.286.177.857-.353.857-.177 1.858.883 1.144 2.473-.429 3.356.858 2.826-1.43 7.154 1.001 9.45-.286 2.473.572 4.504.286 7.065 0-.177 1.287 0 .715 0 2.431.353 0 .442-.286.707-.286.353-1.43-.177-1.001-.354-2.145 1.148-1.716 2.562.429 3.356-.572 0 .429 0 1.001.354.858.706-.143.529-1.573 1.324-1.573.442 1.859-.883 2.431-.353 3.289.353 0 .265-.572.53-1.144.971 2.573.706 6.005.177 8.435.353.429.529 1.001.706 1.43-2.296-1.573-3.886 3.86-5.475.858-.442 1.286-.265 3.574-.619 5.004-.353 0-.618 0-.971 0-.177-1.287.088-2.574.353-3.861-2.296-.857-3.886 1.43-4.239 3.861-5.211.286-10.421 1.143-14.837.286-.088 1-1.148.572-1.325 1.572.972 1.287 2.473 0 3.18 1.573 0-.429 0-1.001.353-.858 4.592-.715 8.567-.429 12.541-.715 0 .429.088.858.176 1.144-.265 1.001-.618-.572-.971.286v1.716c1.678 0 1.855 2.001 2.738 3.002 1.766-2.43 6.977-2.716 9.449-.858 3.18-3.288 6.271-1.43 10.863-1.43.353-.142.088-1.429.53-1.429 2.208 2.43 6.447 2.573 8.92 2.43-1.943 4.146-6.801-1.001-9.185 3.003-1.06-.715-3.003-1.859-3.974-1.716-.53 1.287 0 3.431-.088 4.289 1.766-.858 1.413.286 3.267.572 0 .858-.353 1.144-.706 1.43-1.943-3.003-3.798.572-5.917.715 1.059-.429 2.031-2.717 1.943-3.718-.884 2.145-4.946 1.001-4.328 4.289-.53.286-1.855.572-2.119.143.088-3.145 1.854-3.431 1.501-6.29-.53-.286-.972-.858-1.855-.858-.706 1.287-.441 2.716.442 3.574-.265.572-.972.286-1.413.572-.53-.143 0-1.859-.442-2.145-.618-.142-1.148-.142-1.413.286v1.001c-.265 1.144.795.572.883 1.144-.53 1.43-.176 3.574-.088 4.575.265-1.144 1.148-1.287 1.943-1.716.353 1.001.795 1.859 1.59 2.288-.619.858-2.385-.143-2.12 2.002-2.473-.572-3.268 1.429-4.946 1.143-.265 1.287.884.572 1.413.858 0 1.144-.618 2.002-.088 2.86 1.237-.572 1.855-2.002 3.798-1.573.353 3.431-1.855 2.573-3.356 3.002-.089 1.859-1.325 2.717-.53 5.004-.442.858-2.12-.286-2.561.572-.442.572.176 1.144-.089 2.431-1.854.571-1.766-1.716-3.532-1.287-3.18 4.003-6.182 1.001-9.627 1.144-.441-.286-.353-1.287-.883-1.43-.794.858-2.561.858-3.002-.572-1.148.572-2.915 1.716-4.239.715.088-.715 1.589-.715.971-1.287-.088-2.144-2.208-.572-2.385.572-.529-.858-1.501-1.144-1.854-2.288-1.413.286-2.473 1.001-3.533 1.859-.706-1.144-1.943 0-2.119-1.573-.442.286-.442 1.573-1.237 1.287-6.712-2.573-13.247-3.574-18.281-1.573-.883-.571.53-.428.265-1.429-1.236.286-3.179.858-4.416-.715-.441 1.001-1.589.858-2.119 1.573-.795-1.716-2.208-2.288-3.709-1.287-.442-.143 0-1.573-.707-1.43-1.06 1.573-1.678-.572-3.268-.286-.618.858.53 1.001.177 2.431-1.501 2.001-1.766-1.859-3.003-2.288-.883 1.001-.53 1.859-.088 3.146-1.59-.286-2.208-1.859-2.738-3.718-.706 0-.883.715-1.236 1.287-1.943-2.43-4.063-1.144-6.359-1.144-.265.715-.265 2.002-.795 2.431-1.236-.143-1.854.572-3.091.572.089-1.573 1.59-.715 1.502-2.717-5.034.143-9.891-1.715-12.011 2.717-1.59-2.288-4.327-2.002-6.8-1.573-.177 2.716-3.003 1.144-3.798 3.002-.706.143-.706-.857-.706-1.858-.884.429-1.59.715-1.237 2.43-1.413-.286-2.473-1.144-2.738-3.002-1.854.143-3.091-1.001-4.239 0 .354 1.716-.176.858-.265 2.43-1.324.286-.794-1.858-1.854-1.858-.883-.143-.442 1.715-1.237 1.715-.618-.428-1.324-.714-1.413-1.858-.353 1.144-1.236 0-1.854.286 0 0-.177 1.001-.265 1.001-.353 0-.707-1.287-1.148-1.43-1.237-.715-1.855.715-2.12-1.144-.265-2.43 1.943-2.002 3.179-4.432 0-.858-.353-1.144-.176-2.145.795-.714 1.501-1.715 2.208-2.716.176.143.353.429.706.429.53.572-.883 1.144-.971 2.001.176 1.716 1.678 3.003 2.738 2.288 0-1.573-1.237.143-1.413-.858-.177-1.43 1.148-.429 1.677-.572.442.143 0 1.573.707 1.43.883.429.265-1.573.707-1.716.706.143 1.501-.143 1.854.429-.176 1.43-1.325 1.287-2.119 1.573.971 2.573 5.21 3.431 5.652-.715.706.143 1.501-.143 1.854.429.089 1.001-.883.286-.706 1.43.265 1.143 1.766 2.001 2.561 1.286.265-1.286-.53-1-.442-2.144.177-.286.795 1.573 1.148-.286.442.286.089 1.716.707 1.859 2.208-1.716 5.034-.286 7.065 1.143.795-.143 1.06-1.286 1.678-1.715 3.886 1.286 8.832-1.001 12.188.143 2.119-1.573 4.857-2.002 6.623-3.146.177-1.429-1.413-.429-1.148-1.858-.971-.429-.706 1-1.678.572-.618-.429.707-.715 0-1.43-2.031.143-3.886-.858-6.094-1.43-.353 1.573-.088 1.573.442 2.574-.088.429-.618.286-.971.286-.53-.715.264-1.43-.442-2.145-1.148-.429-.972 1.001-2.12.572-.176-1.43.619-1.287.707-2.145-.53-1.286-1.06-2.573-1.06-4.718-1.148.429-2.561.572-3.974.429.177.286.265.858.177 1.43-1.325-.429-2.562-2.002-4.24-1.001-1.236-3.288-3.62-2.43-5.828-3.288.441 1.286.706 2.716 1.589 3.288.089 1.001-.883.286-.706 1.43.971.572 1.766.429 2.384-.572.53 1.859 1.06 1.287 2.032 2.287.088.858-.707.286-.707 1.001-1.413-.429-2.649-2.573-4.416-1.429-.971-2.574-5.475-4.29-6.358-.429-.707-1.573-2.032-.429-3.091-.143.088.572.353.857.441 1.429-1.854.715-3.267-1-4.945-1-.972 0-1.855 1-2.826.857-1.502-.286-2.562-2.287-4.151-2.001-.707.143-.972 1.572-1.678 1.001.706.429.971 1.715 1.324 2.573 1.149.143 2.473 0 3.268.572-.706 2.145-3.532.429-4.416-.286-.529.429.089 2.145.177 2.859.618 0 1.236.143 1.855.143-.177 2.288-2.562 1.001-3.975 1.144.265 2.145-1.324 3.574.177 4.575-.177 1.287-1.766.572-2.119 1.573 0 2.002 1.324.143 2.119 1.144-1.236 1.429-2.384-.715-3.797.143-.884-.429.794-1.287 0-1.43-.795.286-1.502.715-2.385.858-.088 1.001.883.429.883 1.144-.441 1-1.236-.286-1.854-.143-1.59 3.145-4.24-1.144-6.889 1.715-.353-.143-.088-1.001-.442-1.144-.088-1.286 1.413.143 1.237-1.286-2.65-.429-3.533 2.859-5.652 2.144 1.413-.715 1.943-3.288 3.532-2.573-1.501-1.716-8.743-3.717-6.182 1.715.972 1.287.53-2.144 1.943-1.286.089 1.429.089 3.145 1.325 3.574-.353 1.287-1.236 1.859-1.943 2.716-1.06-.286-1.325-1.858-1.59-3.288-.618 0-.618 1.287-.265 1.716-2.207.858-5.475 1.715-7.065-.143-1.236 2.716-2.738 3.002-5.21 3.145-.089-1.43 1.589.143 1.413-1.287-.795-1.143-2.032 1.287-2.561-.572.706-1.429 2.384-1.286 2.649-3.431-2.208-1.572-1.943 3.574-4.769 2.145-4.151 2.001-9.803.286-15.014-.715-.441.572-.618 1.573-1.413 1.716.442-1.573.354-1.43-.176-2.86-.883 0-1.325.715-2.12.858-.088 1.001.618 2.145-.265 2.43.265-2.573-3.002-2.573-5.122-2.859-.088.858-.265 1.573-.706 1.716-.972-.429-1.502-1.573-3.003-1.287.265 1.144-.353.858-.53 1.43-1.855-3.289-5.741-.715-7.242-3.003 2.385-.429 4.946-.572 6.359-2.43-.53-2.431-3.18.143-4.416-1.43 1.06-.858.442-3.002-.177-3.86.177-.858 1.237-1.573.795-2.431-1.678-.714-2.119.715-2.826 1.573-3.709-.715-6.977.286-10.156 1.859 1.59 4.432 4.857-1.001 7.948.143.53.143 0 1.858.442 2.144.618 0 1.236.143 1.855.143-3.092 3.574-6.977 2.002-11.305 1.716-.353-1.001.53-1.287-.176-2.431-2.032-.429-5.034-1.286-7.242-.429.795.715 1.325 3.146-.265 3.146-.265-1.144-.707-2.145-.883-3.575-1.237.572-1.237-1.286-2.12-1.572-1.236-.286-2.738 1.287-3.797 1.144-.354 0-.619-1.001-.884-1.144-1.148-.572-2.649.286-3.974-.286-.353 2.144.972 2.144 1.59 3.002 0 1.43-1.678.143-1.943 1.287.618 2.002 2.12.715 2.826-.143 1.148 1.001 1.943 2.574 3.709 2.716.177-.428.354-1 .265-1.715.177.572.618 1.001 1.413.858 0 1-1.501-.572-1.236 1 2.031 2.431 5.829 0 8.92 2.431-.795 1.716-3.18-1.144-3.798 1.144-2.119-3.718-7.242 1-10.774-.715-.265 1.287-1.325 1.287-1.678 2.43-3.621.429-8.302 1.144-11.305 1.43-.441-.143-.441-1.001-.706-1.43-.442.286-.618 1.001-1.413.572 0-1.287.177-1.429-1.148-1.858.53-.858.795-1.859 1.678-2.002.088-1.144-1.413-.286-1.413-1.573.353-2.001 2.914-.429 2.914-3.002-3.003-3.717 16.603 4.003 13.954-3.002-.53 1.286-2.385.571-2.385 2.716-4.062-.429-8.125-3.717-11.481-1.144-.088 1.144 0 2.002.884 1.859-1.502-.572-3.975-.143-6.094.286-.265 1.858-.088 2.43-.353 4.575.883 1.001 1.148 2.859 2.031 3.717-.353 1.001-1.06 1.43-1.943 1.716-.707-1.287.795-1.144.53-2.86-1.855.715-3.179 4.718-5.652 2.145-4.769 4.146-10.863-.286-16.25 1.43 1.854.714 3.709 1.143 5.652 1.286h-130.7059c0-.857.3533-1.715.2649-2.573-.1766-1.144-.8831-1.43-.8831-2.717.5299 0 .5299-.571.8831-.714.0884-.858-.1766-1.144-.1766-1.859-.4416.143-.4416-.429-.7948-.429-.1767.715.0883 1.144-.3533 1.43-.6182 0-.6182-.429-1.0598 0 .1767-.429-.0883-.572-.0883-1.001-.4415.429-.2649-.572-.6182-.572-.0883.429.265.286.1767.715-.0884-.143-.0884-.143-.1767-.286 0 0 0 0 0-.143-.1766-.143-.2649-.286-.3532 0 .0883 0 .1766.143.2649.143-.2649.143-.4416-.286-.6182 0 .1766.143.265.429.3533.715-.3533 0-.6182-.286-.7949-.858-.2649.429-.4415 0-.7065.286 0-.286 0-.572-.1766-.572-.0883.429.1766.572-.0883.715-.0883-.858-.3533-1.716-.3533-2.574-.0883-.142-.1766-.143-.2649-.143s-.0883 0-.1767 0c0 0-.0883 0-.0883-.142.3533-1.001-.0883-1.859-.3532-2.574.3532-.286.7948-.572 1.1481-.858 0-.858-.1767 0-.5299-.286.0883-.286.2649-.429.5299-.429-.0884-.714-.7949.143-.9715-.857-.4416.714-1.0598.285-1.5014.428-.1766 0-.2649-.143-.3532-.285.0883-.143.0883-.143.0883-.286.4416-.286.8831 0 1.3247.143.0883-.429.0883-.715 0-1.001.265-.286.5299-.572.9715-.572 0-.429-.9715-.143-.4416-.715-.0883-.429-.7065-.143-.7948 0 .1766.143.3532.572.1766.858-.0883-.429-.1766-.715-.3533-1.001.7066-.429 1.2365-1.144 1.3248-2.002-.5299.572-1.1481 1.001-1.5014 1.859-.4416-.572-.9714-.572-1.5013-.286-.265-.143.1766-.429-.0883-.715-.1767 0-.3533 0-.5299 0 0 1.144-.5299 1.43-.8832 2.002.3533.572.5299 1.573.6182 2.716-.0883-.143-.0883-.429-.0883-.715-.6182.715-1.1481.143-1.7663-.285-.0883.571-.4416.714-.7948.857v1.144c.7948.286 1.413-.572 2.0312 0-.3532 0-.6182.143-.8831.286-.0883 0-.0883 0-.1767 0-.1766-.143-.1766.143-.2649.286s-.1766.143-.265.286c-.4415-.143-.9714 0-1.2364 0 .265.143.3533.715.4416 1.144-.0883.143-.0883.286-.1766.429-.1766.143-.3533.429-.4416.857-.26493-.428 0-1.715-.61819-1.572.17663-1.716-.44157-2.288-.35326-3.575.08832-.142.17663-.285.17663-.714 1.23642 1.429 2.82612-1.43 3.88582-2.431-.3532-.572 0-1.001-.2649-1.716.0883-.285.2649-.428.4416-.714.4415.143-.265 1 .0883 1.143.6182-.143.0883-1.572 1.0598-1.572.1766.143.1766.429.4415.429 0 .572-.5299.143-.4415.857.8831.858 4.8573-2.001 2.9143-2.573.3533-1.001 1.0598-1.287 1.5014-2.145-1.1481-9.293-2.8261-17.871-5.2106-25.162-2.6494 0-4.15078-.143-6.88853-.429.08831 2.43-.17663 2.43-.26495 2.573-.08831-.715-.17663-1.573-.26494-2.144.17663-.572.17663.428.44157.143-.08831-.715-.17663-1.573-.08831-2.431 2.11955.143 4.23906.429 6.27036.572-1.678-6.005-3.62092-11.581-5.74047-17.014 0-.285 0-.714 0-1-.08832-.143-.26495-.143-.44158-.286-.08831-.286-.17663-.429-.26494-.715 0-.572-.17663-1.144-.17663-1.859.44157 0 .26494 1.144.79483 1.001-.08831-3.574.44157-7.1485-.88315-8.5782.70652-1.1438.52989-3.1454.35326-4.861-.79483-.143-.35326-2.1445-.88315-2.7164 0-.5719.26495-.5719.52989-.4289-.17663-.7149-.26494-1.2868-.79483-.8579.08831-1.0008.26494-1.8586.88315-2.0016 0-.4289 0-.8578 0-1.2867.6182.7149.88315 1.4297.97146 2.4305-.26494.286-.44157 1.2868-.17663 1.7157h.17663c0 .1429 0 .4289-.08831.5718.17662 0 .26494.143.35325.143-.08831 0-.26494 0-.26494.2859.52989 1.5727.08832 3.7173-.26494 5.004 0 .5719.35325.7149.52988 1.1438-.35326 2.859.35326 6.291.08832 8.864.44157 1.43.6182 3.431.97146 4.718.44158.143.08832-1.001.52989-.858.08832-.429-.08831-.572-.17663-.714 0-.143 0-.143 0-.286v-.143c.08832-.429.26495.571.44157 0-.08831-1.43.26495-2.86.35326-4.432-.44157-.286-.44157 0-.70652.285-.17662 0-.08831-.428-.08831-.714.26494-.429.44158.143.6182-.286.08832-.858-.35325-.715-.17663-1.573.44158-.143.35326.429.61821.572.3533-.429.7948-.858 1.413-.858-.0883-.858-.1766-1.859-.1766-2.8594-.0883.143-.2649.143-.4416.143.0883-1.0008.6182-1.8586.265-3.0024.9714-1.0008.7065-2.5735.8831-4.2891-.3532.2859-.7948.5719-.9714 1.1438-.265 0-.0884-.7149-.4416-.5719-.1766.7148-.0883 1.2867.1766 1.7156-.5299.4289-.3532.8579-.6182 1.5727-.26493 0-.0883-.4289-.26493-.5719.08833-1.0008.70653-1.8586.35323-3.1453.4416-.4289.7949-1.7157.7949-2.7165.3532-.5719.9714-.1429 1.413-.2859.0883.4289.0883 1.1438.2649 1.5727.265-.286-.1766-.8578.265-1.1438.7948-.143.2649.5719.5299 1.2867 0 .286-.3533.143-.4416.4289.5299 2.0016 1.7663 3.8603 3.1793 2.5735-.5299-1.2867-1.6779-2.5735-2.2962-3.2883-.0883-.4289.265-.5719.265-.2859-.3533-2.4305-1.7663-5.147-2.2962-7.5775-.3533-.143-.3533.286-.7065.143-.3533-.7149-.7065-2.7165-1.41305-2.2875 0-.143-.08831-.429 0-.5719 0-.7149.26495-1.1438.44155-1.7157.265.286.4416.7149.5299 1.1438.265-.2859 1.0598-.7149 1.3247-.286.4416-.4289-.4415-1.7156 0-2.5734-.2649-.8578-.8831-.8578-.7948-1.7157-.2649 0-.2649.286-.5299.286-.0883.7148.3533 2.1445.4416 3.2883-.9715-1.1438-.5299-3.1454-1.50136-3.7172.26496-.143.44156-.5719.52986-1.1438.4416.5719.6182.2859 1.0598 0 .0883-.7149-.2649-.8578 0-1.2867.2649-.143.2649.1429.2649.4289.3533-.286.265-.7149.0884-1.2868-.5299-.1429-.6182.429-1.0598.429-.1766 0-.0883-.429-.265-.429.0884-.4289.7949-2.1445 2.2962-1.7156.0883-.5719-.2649-.4289-.2649-.8578.0883-.4289.8831-.4289.5299-1.1438.6182.4289.4415 1.5727 1.2364.8578-.4416 1.1438 1.2364-.1429 1.5896.8579.1767-.143-.0883-.286 0-.7149.3533.7148.3533 1.4297.9715 1.2867 0 .286-.2649.143-.4416.286.5299.7148.6182 0 1.0598-.286.265 0 0 1.0008.265 1.1438.4415-.4289.6182.4289.9714 0-1.1481-8.4353.5299-17.7284 3.8859-21.1597-1.3248 2.8595-3.0027 5.29-2.6495 9.865 1.2364-3.2883 1.9429-7.4345 4.1508-9.2931-3.5326-6.4337-8.0366-11.4376-13.1589-14.583.4416-.4289 0-.2859-.2649-.7148 1.0597.8578 2.5611.8578 3.7092 1.7156 0-.2859 0-.4289.1766-.4289 2.7378 1.8586 4.8573 4.5751 6.8003 7.5775h.7948c.3532 1.4297.9715 2.4305 1.7663 3.7172.2649 0 0-1.0008-.1766-1.1438.0883-.2859.4415-.2859.5298-.7148.5299-.143.265 1.0008.5299 1.2867-.0883.2859-.2649.4289-.4415.7149.2649.4289.6182.8578.7948 1.5726.2649 0 .4416-.1429.5299-.4289-.1766 1.0008 1.1481 3.7173 2.1195 3.4313 1.2364 1.7157.9715 3.4313 2.1196 5.147.3532 0-.1766-.429 0-.8579.1766-.5718.6182 1.0008.9715.4289-.0884-1.0007-.7949-.8578-.7066-2.1445.6182.4289 1.1481 1.0008 1.5897 1.7156.0883-1.0008.4416-2.4305.1766-3.2883.4416-.2859.7066-.7148.7066-1.7156.2649 0 .1766.5718.5298.4289-.7948-1.5727.0883-4.5751 0-7.1486-5.8287-2.7164-12.364-5.8617-15.455-14.154 3.6209 6.7196 9.0964 10.8657 15.72 12.0095-.0883-.8578.1766-1.1438.1766-2.0016-.4416 0-.5299-.4289-1.0598-.2859-4.8573-3.0024-9.8912-5.8618-12.7173-12.0096.3533 0 .6182 0 .9715.143 3.1793 5.1469 7.2418 8.8642 13.1589 9.579 0-.5719 0-1.0008 0-1.5727-3.4443-2.0015-6.9769-3.7172-9.7147-6.8625.1767-.143.4416-.286.6182-.429.4416.429.7949.8579 1.3248 1.2868.3532 1.1437.8831 1.2867 1.5013 1.1437.1766.143.265.143.4416.286.5299.143.7948-.143 1.2364-.286.4416.286-.4416.286-.2649.8579.8831 0 2.3845 1.1437 3.4442 1.2867.6182.143 1.8546.4289 1.8546-1.2867-.8831.4289-.7065-1.1438-2.0312-.7149.8832-.5719-.7065-.4289-.9715-1.1437-.2649 1.0007-1.0597 0-1.5896.1429 0 0 0-.1429.0883-.1429h.1766c.0883-.143.0883-.143.0883-.286.1767-.143.3533-.2859.3533-.7148-.0883 0-.0883 0-.1766-.143 0 0 0-.143.0883-.143 1.678 1.4297 2.8261-2.7164 3.8858-.4289.4416-1.1438 0-3.7172.8832-4.1461.4415 1.1437.1766 2.2875-.0883 3.4313 2.2078.8578 3.4442-2.5735 2.826-4.7181.1767-.7148.4416.4289.6182-.1429 0-.429 0-.8579 0-1.2868-1.1481 0-1.3247-1.4297-1.9429-2.1445-1.2364 1.7156-4.8573 1.8586-6.5353.5718-2.1195 2.1446-4.1508 1.1438-7.1535 1.0008-.3532-.7148-.6182-1.4297-.8831-2.1445.1766-.143.2649-.286.4415-.5719.7066.5719 2.1196 1.2867 2.7378 1.1438.3533-.8579 0-2.4305.0883-3.0024-1.2364.5719-.9714-.286-2.2962-.4289 0-.5719.265-.7149.5299-1.0008 1.3248 2.1445 2.6495-.4289 4.0625-.4289-.7948.2859-1.413 1.8586-1.3247 2.5734.6182-1.5727 3.4443-.7148 3.0027-3.0024.3532-.2859 1.2364-.4289 1.5013-.1429-.0883 2.1445-1.3247 2.4305-1.0597 4.4321.3532.2859.7065.5718 1.3247.5718.4416-.8578.2649-1.8586-.265-2.4305.1767-.4289.7066-.2859.9715-.4289.3533.143 0 1.2868.2649 1.4297.4416 0 .7949.143.9715-.1429 0-.286 0-.4289 0-.7149.1766-.7148-.5299-.4289-.6182-.7148.3533-1.0008.0883-2.4305.0883-3.1454-.1766.8578-.7948.8578-1.3247 1.1438-.2649-.7149-.5299-1.2868-1.1481-1.5727.4416-.5719 1.678.143 1.5014-1.4297 1.413 1.4297 2.0312 0 3.1793.2859.1766-.8578-.6182-.4289-.9715-.5719 0-.7148.4416-1.4297 0-2.00154-.8831.28594-1.3247 1.42974-2.6494 1.00084-.265-2.43055 1.3247-1.71569 2.2962-2.00163.0883-1.28674.9714-1.85862.3532-3.4313.265-.57188 1.5014.28594 1.7663-.42891.265-.42891-.0883-.85782 0-1.71565 1.3247-.42891 1.2364 1.14377 2.3845.85783 2.2079-2.71645 4.3274-.71486 6.7119-.71486.5299.28594.5299 1.0008.8832 1.0008.6182-.57189 1.7663-.57189 2.1195.42891.7949-.42891 2.0313-1.14377 2.9144-.57188-.0883.42891-1.1481.57188-.7065 1.00079.0883 1.42971 1.5014.28594 1.678-.42891.3533.57188 1.0598.85782 1.2364 1.57268.9715-.14298 1.7663-.71486 2.4728-1.28674.5299.85782 1.3247 0 1.4131 1.14376.3532-.28594.2649-1.00079.7948-1.00079 4.769 1.71565 9.273 2.57347 12.8056 1.14377.6182.42891-.3532.28594-.1766 1.00079.8831-.28594 2.2079-.57188 3.091.42891.265-.71485 1.1481-.57188 1.5014-1.14376.5299 1.14376 1.5013 1.57267 2.5611.85782.3532.14297 0 1.14377.4416 1.00079.7065-1.00079 1.1481.42892 2.2961.14298.4416-.57189-.3532-.71486-.0883-1.71565 1.0598-1.42971 1.2364 1.28673 2.1196 1.57267.6182-.71485.3532-1.28673 0-2.14455 1.1481.14297 1.5897 1.4297 1.9429 2.57347.4416 0 .6182-.57189.7948-.85783 1.3248 1.57268 2.8261.71486 4.4158.85783.1766-.57189.1766-1.42971.5299-1.71565.7948.14297 1.3247-.42891 2.1195-.28594-.0883 1.14376-1.1481.57188-1.0598 1.85862 3.4443-.14298 6.8886 1.28673 8.39-1.85862 1.0601 1.57268 3.0031 1.4297 4.6811 1.00079.176-1.85862 2.119-.85782 2.649-2.00159.53-.14297.53.42892.53 1.14377.618-.28594 1.148-.42891.883-1.71565.971.14297 1.766.71485 1.943 2.14456 1.236-.14297 2.119.71485 2.914 0-.265-1.14376.177-.57188.177-1.71565.883-.28594.53 1.28674 1.236 1.28674.619.14297.354-1.14377.795-1.14377.442.28595.883.42892.972 1.28674.265-.85782.883 0 1.324-.14297 0 0 .089-.71485.177-.71485.265 0 .53.85782.795 1.00079.883.57188 1.325-.57188 1.413.85782.177 1.71565-1.325 1.42971-2.208 3.00242 0 .5718.265.7148.177 1.4297-.619.5719-1.06 1.1437-1.502 1.8586-.088-.143-.265-.286-.441-.286-.354-.4289.618-.8578.706-1.4297-.088-1.1437-1.148-2.1445-1.943-1.5726 0 1.1437.883-.143.972.5718.088 1.0008-.795.286-1.148.429-.354-.143 0-1.1438-.442-1.0008-.618-.286-.177 1.0008-.53 1.1437-.441 0-1.06 0-1.325-.2859.089-1.0008.972-.8578 1.502-1.1438-.707-1.85859-3.621-2.43047-3.886.4289-.442 0-1.06 0-1.325-.2859 0-.7149.618-.143.53-1.0008-.176-.85782-1.236-1.4297-1.766-.85782-.177.85782.353.71485.265 1.42972-.177.2859-.53-1.14378-.795.143-.353-.143-.088-1.14381-.442-1.28678-1.501 1.28678-3.532.14297-4.857-.85782-.618 0-.706.85782-1.148 1.14376-2.6494-.85782-6.0937.71484-8.4782-.14297-1.4131 1.14381-3.356 1.28671-4.5924 2.14451-.2649 1.2868.7948.5719.6182 1.5727.6182.286.5299-.7148 1.1481-.4289.4416.286-.5299.5719 0 1.0008 1.413-.143 2.7378.5719 4.2391 1.0008.265-1.1438.0883-1.1438-.2649-1.7156.0883-.286.4415-.143.6182-.143.3532.5719-.1766 1.0008.2649 1.4297.7949.2859.7065-.7149 1.5014-.4289.0883 1.0008-.4416.8578-.5299 1.4297.3532.8578.7065 1.8586.7948 3.2883.7948-.2859 1.7663-.4289 2.7378-.2859-.0883-.286-.1767-.5719-.1767-1.0008.8832.2859 1.7663 1.4297 2.9146.7148.883 2.2876 2.561 1.7157 4.062 2.2876-.265-.8579-.441-1.8587-1.059-2.2876 0-.7148.618-.1429.529-1.0008-.706-.2859-1.236-.2859-1.678.4289-.353-1.2867-.794-1.0007-1.413-1.5726 0-.5719.442-.286.53-.7149.972.286 1.855 1.7157 3.091 1.0008.707 1.8586 3.798 3.0024 4.416.2859.53 1.0008 1.413.286 2.12.143-.089-.4289-.265-.5719-.265-1.0008 1.236-.4289 2.296.7149 3.444.7149.706 0 1.236-.7149 1.943-.5719 1.06.143 1.766 1.5727 2.914 1.4297.442-.143.707-1.0008 1.148-.7149-.53-.2859-.618-1.1437-.971-1.7156-.795-.143-1.678 0-2.296-.4289.53-1.4297 2.384-.286 3.091.143.353-.286-.089-1.4297-.089-2.0016-.441 0-.883 0-1.324-.143.088-1.5727 1.766-.7149 2.826-.8578-.177-1.42973.883-2.57349-.089-3.14538.177-1.00079 1.237-.42891 1.502-1.14376 0-1.42971-.972-.14297-1.413-.85782.883-1.0008 1.589.57188 2.649 0 .618.28594-.53.85782 0 1.00079.53-.28594 1.06-.42891 1.678-.57188.088-.71485-.618-.28594-.618-.71486.265-.71485.883.14298 1.325.14298 1.059-2.14456 2.914.85782 4.769-1.14377.265.14297 0 .71485.353.71485.088.85783-.972 0-.795 1.0008 1.855.28594 2.473-2.00159 3.974-1.42971-.971.42891-1.324 2.28753-2.473 1.85862 1.06 1.14376 6.094 2.57347 4.24-1.14377-.707-.85782-.354 1.42971-1.325.85783-.088-1.0008 0-2.14456-.972-2.57347.265-1.0008.884-1.28674 1.325-1.85862.795.28594.883 1.28674 1.06 2.28753.441 0 .441-.85782.177-1.28674 1.501-.57188 3.797-1.14376 4.857.14297.883-1.85861 1.854-2.14455 3.621-2.28753.088 1.0008-1.148-.14297-.972.85783.53.85782 1.413-.85783 1.767.42891-.53 1.00079-1.678.85782-1.855 2.28753 1.501 1.14376 1.325-2.4305 3.268-1.42971 2.914-1.28673 6.8-.14297 10.421.42892.353-.42892.441-1.14377.971-1.14377-.265 1.14377-.265 1.0008.089 2.00159.618 0 .883-.57188 1.501-.57188.088-.71486-.442-1.57268.177-1.71565-.177 1.71565 2.031 1.71565 3.532 2.00159.088-.57188.177-1.0008.53-1.14377.706.28594 1.06 1.14377 2.12.85783-.177-.85783.264-.57189.353-1.0008 1.325 2.28753 3.974.42891 5.034 2.00159-1.678.28594-3.445.42891-4.416 1.71565.353 1.71565 2.208-.14297 3.091 1.00079-.795.57189-.265 2.14456.088 2.71649-.176.5718-.883 1.1437-.53 1.7156 1.149.4289 1.502-.4289 1.943-1.1438 2.561.5719 4.858-.1429 7.066-1.2867-1.149-3.00238-3.356.7149-5.564-.14297-.354-.14297 0-1.28673-.265-1.42971-.442 0-.883.00001-1.325-.14297 2.12-2.4305 4.857-1.28673 7.86-1.14376.265.71485-.353.85782.088 1.71565 1.413.28594 3.533.85782 5.034.28594-.53-.42891-.971-2.14456.177-2.14456.177.85782.53 1.57268.618 2.57347.795-.42891.883.85781 1.413 1.14381.883.2859 1.943-.85787 2.65-.85787.265 0 .441.71487.618.71487.795.4289 1.854-.286 2.738.143.265-1.57272-.707-1.42975-1.06-2.00163 0-1.0008 1.236-.14297 1.325-.85783-.442-1.4297-1.502-.42891-1.943.14297-.795-.71485-1.325-1.85862-2.562-1.85862-.176.28595-.264.71486-.176 1.28674-.177-.42891-.442-.71485-.972-.57188 0-.71485 1.06.42891.795-.71486-1.413-1.57267-4.062.00001-6.182-1.71564.53-1.14377 2.208.85782 2.65-.85783 1.413 2.57347 5.034-.71485 7.506.57189.177-.85783.972-.85783 1.148-1.57268 2.473-.28594 5.741-.71485 7.86-1.00079.354.14297.354.71485.442 1.00079.265-.14297.442-.71485.972-.42891 0 .85782-.177 1.00079.794 1.28673-.353.57189-.53 1.28674-1.148 1.42971 0 .85782.972.14297.972 1.00079-.265 1.42971-2.032.28594-2.032 2.14456 2.12 2.57349 6.977-2.71644 8.744 2.00159.353-.85782 1.678-.42891 1.678-1.85862 2.826.28595 5.652 2.57352 7.948.71486.088-.85783 0-1.42971-.618-1.28674 1.06.42891 2.738.14297 4.239-.14297.177-1.28674.088-1.71565.265-3.14535-.618-.71486-.795-2.00159-1.413-2.57347 0-.714857.176-1.000798.353-1.143769zm235.624 146.116059c-.088.286-.088.429-.177.572.265.286.265.858.177 1.429-1.06-1-.795-1.715 0-2.001zm-6.8 12.152c0-.429.088-1 .176-1.429.177 0 .353.143.353.429-.264.286-.441.714-.529 1zm-93.437 21.446h-.884c.177-.143.354-.429.442-.715 0 .429.265.572.442.715zm-3.71 0h-1.678c.265-.143.619-.429.884-.572.264.143.529.429.794.572zm-10.068 0h-8.125c2.562-.286 5.299-.286 8.125 0zm-80.896 0h-21.725c.088-1.144.795-1.43 1.236-2.002 2.296 2.288 4.593-.714 6.535 1.573 3.18-2.287 8.744.572 11.835-2.43 1.589 2.859 5.74-.429 8.478.857-1.06.429-3.533 2.002-3.974.143-.795.715-1.59 1.287-2.385 1.859zm-22.432 0h-2.031c-.53-.286-1.06-.858-1.236-1.287 1.236.429 3.267-1.286 3.267 1.287zm-54.667 0h-13.6c.441 0 .883-.143 1.325-.286.176-1.001-.442-.715-.442-1.43 2.208-.715 3.798-1 6.094-1 .706 1-.618 1.286 0 2.144 2.119.286 4.327.429 6.623.572zm-18.369 0h-8.743c2.826-.143 5.74-.286 8.743 0zm-152.0781-157.9825c-.0884-.286-.0884-.4289-.1767-.7149.1767-.143.3533-.2859.5299-.2859.0883.4289.1767.7148.265 1.0008-.1767 0-.4416 0-.6182 0zm-.7066-2.8594c-.1766-.8579-.3532-1.7157-.4415-2.5735.0883-.143.1766-.143.3532-.143.3533 1.0008.4416 2.7165.9715 3.2883-.3533-.1429-.6182-.4289-.8832-.5718zm6.712 9.579c-.0883-.143-.265-.4289-.3533-.5719l-.0883-.143c0-.1429 0-.1429 0-.2859.1766.143.4416 0 .6182 0 .1766.2859.3533.5719.5299.7149-.1766.1429-.4416.2859-.7065.2859zm-1.1481-2.5735c-.0883-.1429-.1767-.4289-.1767-.5719.0884.143.0884.429.1767.5719zm-1.678-3.8602c-.1766-.4289-.3533-.8578-.5299-1.2867h.5299c.1766.4289.3533 1.0008.5299 1.4297-.1766 0-.3533 0-.5299-.143zm-1.413-4.2891c-.0884-.2859-.0884-.5719-.1767-.8578.1767 0 .265.1429.4416.2859 0 .143.0883.286.0883.4289-.1766-.1429-.2649 0-.3532.143zm1.7663-4.1462c-.0884-.5718-.1767-1.1437-.265-1.8586.5299.143 1.0598.5719 1.413 1.0008-.3532.286-.7948.5719-1.148.8578zm1.148-8.14928c.1767-.14297.3533-.28594.7066-.14297 0-.85782.1766-1.4297.4415-2.00158-.1766-.14298-.4415-.14298-.7065-.28595.265 0 .5299.14297.7948.28595-.1766.71485-.1766 1.00079.1767 1.4297-.265 0-.3533.28594-.3533.71485-.3532 0-.7065 0-1.0598 0zm-3.6209-2.4305s-.0883 0-.0883.14297c-.0883-.14297-.0883-.28594-.1766-.42891h.0883c.0883 0 .0883.14297.1766.28594zm204.6254 2.57347c-.265-1.14376-1.325-1.28673-1.943-.57188-.706-.85782-1.325-2.00159-2.561-2.14456 2.119-.42891 4.416-.85782 5.564.85783 0 1.14376-.442 1.71564-1.06 1.85861zm-6.535 1.0008c.088-.85782.794-.57188 1.324-.71485v.71485c-.53.14297-.971 0-1.324 0zm-10.068-5.14694c-.53.14297-.53-.42891-.618-.71486.176-.142966.441-.285937.794-.142966 0 .428916 0 .714856-.176.857826zm-22.785 6.43367c-.177-.28594-.177-.85782-.177-1.4297.618-.14297.706-.28594.971.57188-.265.14297-.265 1.0008-.794.85782zm-1.943-.14297c-.089-1.57267.618-1.71564.883-2.71644 0 .85783.618 1.0008.441 2.00159-.441.28594-.706.85783-1.324.71485zm-.442-4.43208c0-1.28674 1.59-.71486 1.59.14297-.442.57188-.972-.28595-1.59-.14297zm-1.943.14297c.53.28594 1.766-.42892 1.766.57188-.529-.28594-1.766.42891-1.766-.57188zm-14.925-1.57268c-.442.28594-2.738 0-.53 0 .265-.71485.618-.14297.53 0zm-30.38 1.14376c-.442-.14297-2.032.14297-2.65-.14297-.088-.71485.265-.57188.177-1.28673.795-.14297 1.501-.42891 2.296-.57188-.53 1.00079.53 1.28673.177 2.00158zm-9.803 1.85862c-.795.14297-.795-.71485-1.148-1.00079.353.14297 1.148-.28594 1.324.28594-.265 0-.265.28594-.176.71485zm-3.356 2.4305c-.177-.42891-.442-.85782-.265-1.71565-.53-.42891-1.59.00001-1.766-.85782.794-.28594 2.472-1.14376 2.737.42891-.176.28594-.618 0-.53.71486 0 .57188.442.57188.795.57188v.71485c-.353 0-.441.42891-.971.14297zm-2.473-7.291499c.53.142971 1.413-.285941 1.59.285941-.265.428908-1.502.571878-1.59-.285941zm-14.749 3.431299c-.529.14297-.441-.71486-.618-1.0008.265.14297.972-.28594.972.28594-.265 0-.177.57189-.354.71486zm-3.9738 12.29546c.4416-.143.7065-.5719 1.3248-.4289 0 .2859.265.4289.353.7148-.7946.143-1.2362.5719-1.6778-.2859zm-.7948-.5719c.0883-.4289-.1766-.5719-.1766-1.0008h.7948c.0883.8579-.3533.8579-.6182 1.0008zm-1.7663-9.72198c.5299 0 .4416-1.00079 1.1481-.71485.2649 1.28674-.8832 1.28674-1.1481.71485zm-4.1508.71486c.3533-1.0008 2.3845-1.71565 3.091-.57189-.8831.42892-2.0312 1.28674-3.091.57189zm-3.1793 6.29072c-.0884-1.7157 2.3845-.4289 2.6494-.286-.6182-.1429-1.9429-.2859-2.6494.286zm1.3247-8.14934c.3532.14297 1.0598-.28594 1.1481.28594-.3533.42891-1.0598.28594-1.1481-.28594zm-35.3259-3.00238h.6182v1.00079c-.5299 0-.7065-.28594-.6182-1.00079zm-20.5774 23.44722c.1767 0 .265-.286.3533-.429.3533.143.7948.286.7948 1.0008-.4415.286-.9714.143-1.1481-.5718zm-3.2676-18.01434c.2649-.71485.7948-1.00079.1766-1.71565.7949 0 1.5897-1.4297 1.7663.42891-.4415.57189-.9714 2.28753-1.9429 1.28674zm-2.1196.14297c.8832.28594 1.2365 1.57268 2.1196 1.85862-.8831.85782-2.7378 0-2.1196-1.85862zm-.7948 19.87287c0-.8578 0-1.5726.0883-2.4305.6182.5719 1.3247.8579 1.5897 1.8587-.8832-.286-1.3247.1429-1.678.5718zm-.5299-10.5798c.265 0 .1766-.5719.3533-.7148.4416 0 .7948 0 .7948.5718-.3532-.1429-.7948 1.0008-1.1481.143zm-6.8002.286c.4416 0 .2649-1.1438.7948-1.0008.5299.2859.4416 1.4297.7948 2.0016-.8831.2859-1.2364-.429-1.5896-1.0008zm430.0927 1.1437c-.088-.1429-.265-.1429-.353-.2859h.265c.088.143.088.143.088.2859zm-37.269-.4289c.354 0 .354.4289.707.286v3.0023c-.177-.5718-.618-.7148-.972-.8578.619-.8578-.176-1.8586.265-2.4305zm27.29 0c.176 1.1438 1.324 1.8586.706 3.2883-.706-.2859-.706-1.7156-.706-3.2883zm-30.116.5719h.53c-.176.8578.265.7148.177 1.5727-.265-.4289-.795-.4289-.707-1.5727zm4.504 0c-.706 4.1461.442 1.5727 0 0zm-14.483 2.1446c.795-.286.618 4.0031-.177 3.8602-.177-1.8587-.088-2.2876.177-3.8602zm11.304.2859c.707 0 .53 1.5727.971 2.1446-.088.4289-.618.2859-.353 1.1437-1.06-.4289-.176-2.1445-.618-3.2883zm-3.003 3.2883c-.265 0-.706-.1429-.706.286-.265-.143-.353-.4289-.353-.8579.264-.5718 1.148-.4289 1.059.5719zm17.133 1.1438c.089.7148.442 1.5727-.176 2.7164-.354-1.1437-1.237-1.4297-2.031-1.8586-.177-1.4297.176-.8578-.177-2.4305 1.06.143 1.413 1.2867 2.561 1.1438.088.7148-.177.7148-.177.4289zm6.536 1.0008c-.707 1.4297.441 2.5735 0 4.575-.883-.4289-2.208-.2859-2.032-2.4305.707 0 .53 1.5727 1.502 1.1438 0-1.8586-1.413-1.5727-1.325-3.5743.53-.4289 1.236-.4289 1.855.286zm-28.438 1.4297c1.06 0 .707 2.4305.53 3.5743-.353-.143-.353-.8579-.971-.5719.441-.143.706-1.2868 0-2.4305.353.1429.441-.143.441-.5719zm12.453 0c-.442 1.4297.618 2.4305 0 3.8602-.177 0-.177-.4289-.177-.5719-.177.143-.177.7149-.53.5719 0-1.8586-.971-3.5743.707-3.8602zm19.871 0c1.324-.143 1.942.7148 2.561 1.5727.176 1.0008-.619.4289-.972.5718.088-.5718-.088-.8578-.176-1.1437-.53.143-.619.7148-1.149.8578 0-.7148-.353-.8578-.264-1.8586zm-7.419.8578c.618.5719.177 2.0016-.706 1.8586-.265-1.4297.618-1.0008.706-1.8586zm.883.4289c.53-.2859.353.7149.353 1.1438-.176 0-.353 0-.529 0-.089-.5719.176-.8578.176-1.1438zm-2.738.286c.089 1.4297.442 3.7172.354 6.2907-.707-1.5727-.795-4.5751-.354-6.2907zm12.806 1.4297c.442 0 .177 1.2867.972.8578.265 1.2867 0 1.5727-.53 2.1446-.707-.143-1.237-.5719-1.855-.8579 0-1.4297.707.143 1.325-.2859.618-.7149-.353-1.1438.088-1.8586zm-45.129.5719c.618.4289.883 1.5726.353 2.4305-.176 0-.176-.286-.353-.286 0-.7148 0-1.4297 0-2.1445zm34.178.7148v1.5727c-.53-.7149-.53-1.2868-1.148-1.1438.265-1.0008.618-.7148 1.148-.4289zm29.497 0h.53v1.5727c-.706-.286-.618 1.0008-1.148.2859.265-1.2867 1.148-.2859.618-1.8586zm-59.612.5719c.795 0 .53 1.8586.53 3.0024-.619-.286-.442-1.8586-.53-3.0024zm29.938 1.7156c.53 1.4297 1.502 2.2876 2.208 3.2884-1.059.2859-.971 3.5742-2.384 2.4305.176-1.5727.265-4.4321.176-5.7189zm6.271.7149h.706c-.176 1.8586.53 2.1446.707 3.2883-.618 0-.618 1.0008-.972 1.5727-.618-.143-.176-1.0008.177-1.1438-.883-1.4297.353-2.7164-.618-3.7172zm-1.325 2.7164c.795.143 1.325 1.7157.972 2.7165-.619-.4289-1.414-.5719-1.502-1.8586.442 0 .618-.286.53-.8579zm-24.11.8579c.53 0 .442 1.0008.53 1.8586-.53-.143-.971-1.1438-.53-1.8586zm38.859 1.4297c.618 1.8586 1.589 3.1453 3.179 3.5742.177.8579-.265.7149-.177 1.5727-1.236-1.0008-2.561-1.5727-4.239-2.4305.265-1.2867-.265-1.2867-.353-2.1446.353-.5718.971 0 .971.8579.265-.143.442-.7149.619-1.4297zm-48.75 1.5726c.353.429.971.429.971 1.5727-.265.286-.353.8578-.971.5719 0-.7149 0-1.4297 0-2.1446zm54.49.5719c.265.143.618 1.5727.177 1.8586-.795 0-.177-1.2867-.177-1.8586zm-54.843.286c.441.5718.088 2.2875 0 3.0023-.795-.4289-.972-1.1437-.707-2.7164.53.2859.177.4289.177 1.1438.265-.4289.265-.143.53 0 0-.7149-.354-.8579 0-1.4297zm45.57 1.0008c.353.4289.353 1.4297.971 1.5726-.264.7149-.971-.2859-1.324-.2859-.177-1.0008.353-.7149.353-1.2867zm-17.133.8578c-.353.7148-.883 1.1437-.353 2.4305-.354.143-.795-.8578-.972 0-.353-.143-.53-.8578-.53-1.5727.707 1.1438.883-2.4305 1.855-.8578zm24.905 3.5742c.706-1.1437 0-1.4297 0-3.0023.883 0 .353 2.1445.971 2.4305-.088.5718-.53.5718-.971.5718zm-15.632-1.8586c-.53.8578-.088 3.2884-1.148 3.2884-.088-1.2868-.707-1.8587-.707-3.2884.442-.5719 1.413-.1429 1.855 0zm16.956 0c.707.143.53 1.4297 1.149 1.8586-.619.429-.265 1.4298-.177 2.4305-.353 0-.618 0-.972 0-.264-.5718-.176-1.5726-.529-1.8586.176-.7148.353-1.5727.529-2.4305zm-3.532.7149c.53-.286.353.8578.971.5719-.265.4289-.176 1.2867.177 1.5726 0 .7149-.618.143-.707 0-.176 0-.176.429-.176.5719-.883-.4289-.089-1.5727-.265-2.7164zm-15.985 2.2875c.618.143.971.8578 1.148 1.8586-.795 0-1.148-.5719-1.148-1.8586zm18.988 2.4305c.706.5719.883 2.0016 1.854 2.1446-.706 2.1445-1.943-.286-1.854-2.1446zm-57.493 2.1446c.353.1429.441.5719.353 1.1437-.177 0-.353 0-.53 0-.088-.5718.177-.7148.177-1.1437zm56.698 0h.53c.088 1.4297.53 1.2867.176 2.7164-.441-.4289-.441-1.8586-.706-2.7164zm-23.757.5719c.265.5718.707-.429 1.148.2859-.353.5719-1.236 1.1438-1.148-.2859zm18.723.2859c.706 1.0008.706 3.4313.706 6.5766-.795-1.0008-1.413-2.5734-2.031-3.8602.442-.1429.883-.4289 1.501-.2859-.088-.7149-.265-1.2867-.176-2.4305zm-17.045 1.0008c.53-.143.883 1.4297 1.325.5719.706.5719 0 1.8586-.353 2.4305-1.767-1.5727-.265 3.2883-2.032 1.8586.354-1.5727.442-3.5743 1.06-4.861zm-33.825 1.1438c.177.5718 0 2.4305-.706 2.4305-.088-1.2868-.177-2.5735.706-2.4305zm14.131 1.8586c.177.2859.441.2859.706.2859.177 1.1438-.353 1.0008-.53 1.5727-.529-.143-.441-1.5727-.176-1.8586zm22.079.5719c.353.2859.176 1.5726.353 2.1445-.353 0-.265-.8578-.707-.5719-.176-1.0008.265-1.0008.354-1.5726zm.971 0c1.148-.143.265 1.8586.971 2.1445-.088.7149-.971.286-1.148 0 .265-.8578-.265-1.2867.177-2.1445zm-28.437 2.4305c.088-.429.265-.7149.353-1.1438.618 0 .353 1.4297-.353 1.1438zm35.237-.5719c-.441 1.1437.177.8578.177 2.1445-.265-.4289-.53-.1429-.707.286-.618-.143-.265-1.7157-.53-2.4305.354-.5719.442.1429 1.06 0zm3.18.8578h.529c-.088 1.1438.53 1.1438.354 2.4305.618-.4289 1.148-.143 1.148 1.1438-.353 0-.353.4289-.707.2859.089-1.8586-1.766-.7149-1.324-3.8602zm-44.599 1.1438c.441.2859.706.8578.971 1.5726-.795-.2859-.971.7149-1.148 1.5727-.353-.143-.442-.5719-.353-1.1438 1.06 0 .088-1.1437.53-2.0015zm1.501 0c.265.5718.442 2.1445.177 2.7164-.53-.7148-.884-.5719-1.148.5719-.53-1.2868 1.148-1.5727.971-3.2883zm41.596 2.1445c-.353.5719-.265 0-.706 0-.177-1.1437.883-1.1437.706 0zm-40.625 1.1438c.442.4289.089 2.1445.177 3.0024-.706.1429-.353-2.5735-.177-3.0024zm31.882 2.4305c1.148.5719.353 2.5735.972 3.8602-1.149-1.2867-.53.7148-1.855.5719-.177-.4289.088-1.8586.706-1.8586-.353-.5719.089-1.7157.177-2.5735zm13.601.2859c.794-.4289 1.942 1.2868 2.384 2.4305-1.06.8579-1.678-1.5726-2.384-2.4305zm-15.014.286c-.177.8578-.442 2.2875-.971 3.2883 0-1.2867.265-2.0016.353-3.0024.265.143.53.143.618-.2859zm-12.629.7148c.442.4289.795.8578 1.148 1.5727-.353.7148-.53 1.5727-.971 2.1446-.884-1.2868.265-2.5735-.177-3.7173zm-17.663 1.7157c.883.1429-.088 1.8586.353 2.4305-1.324-.143-.265-1.0008-.353-2.4305zm46.807 1.0008c.441.1429.971.2859.971 1.1437-.618.143-.971-.2859-.971-1.1437zm-28.084.2859c.53-.143.441.5719.53 1.1438-.619.2859-.883-.5719-.53-1.1438zm11.746.5719h.353c0 .2859.088.2859.177.2859v.5719c-.177 0-.177.143-.177.2859-.088 0-.265 0-.353 0 0-.2859-.089-.2859-.177-.2859 0-.143 0-.4289 0-.5719.088 0 .177-.1429.177-.2859zm-27.908.8578c.618.143.442 1.1438.353 1.8586-.529-.7148-.088-.8578-.353-1.8586zm29.409 2.7164c.353.5719.883 1.7157.53 2.4305-.618-.1429-.265-1.7156-.53-2.4305zm18.193 1.0008c.353-.8578 1.148.286 1.148 1.1438-.883.286-.618-1.1438-1.148-1.1438zm-24.905.5719c.618-.2859.618.4289.972.5719-.619.5719.176 2.5735-.53 3.2883-.53-.4289.176-2.4305-.442-3.8602zm12.806 0h.706c0 .5719.089 1.0008.354 1.1438-.265.7148-1.06-.2859-1.06-1.1438zm-8.743 3.0024c.265 1.2867-.442 1.0008-.354 1.8586-.176-.1429-.088-.5719-.353-.5719 0-.8578.265-1.2867.707-1.2867zm16.514.5719c.53 0 .53 1.8586-.176 1.5727 0-.7149.088-1.2868.176-1.5727zm-32.146 3.5743h1.148c.177.7148.618 1.7156.177 2.4305-1.06.1429-1.149-1.1438-1.325-2.4305zm4.151 5.4328c.706-.1429.53 1.1438.706 1.8587-.706.1429-1.06-.286-1.501-.5719.088-.286.176-.4289.176-.8579.265-.1429.53 0 .619-.4289zm2.384 1.5727c.53-.143.618.4289.53 1.1438-.265 0-.53 0-.706 0-.089-.5719.088-.8578.176-1.1438zm25.435 3.2883c.353.7149 1.148.7149 1.325 1.8587-.177 0-.177.4289-.177.5718-.707.143-.707-.7148-1.325-.5718 0-.8579 0-1.5727.177-1.8587zm-12.806 41.8907c.088.143.265.143.353.286 0 .286-.176.572-.265.715.177.571.265 1.143.354 1.715h.441c-.088.143-.176.286-.265.286.177.715.53 1.001 1.148.429-.529-2.002-.529-1.716-.176-3.86-.707-.858-1.06 0-1.59.429zm-.795 3.002c-.176 0-.353 0-.53-.143 0-.286 0-.572 0-.858-.176.286-.264.715-.618.715.177 1.144.442.143 1.148.429zm-.618-2.573c0-.429 0-1.001-.088-1.43-.442 0-.795.286-.972.715 0 .715.53.715 1.06.715zm-38.682-36.029c1.06 0 .795 2.002 0 2.145 0-.715 0-1.43 0-2.145zm0 4.146c.53.572.795 3.431 0 3.574 0-1.143 0-2.287 0-3.574zm52.901 3.717c-.177-.286-.353-.571-.53-.857.088-.572.53-.858.971-.858.089 1.572.089 3.717 1.502 3.86-.883 1.859-2.296-1.43-3.003-2.716.353.143.618.428 1.06.571zm5.564-1.286c.265.429.265 1.286.971 1.143.177.858-.353.572-.353 1.144-.53 0-.265-1.429-.972-1.144.089-.285.265-.714.354-1.143zm-6.447 4.003c.971-1.144 1.236 1.573 1.678 2.43-1.06-.143-.972-2.001-1.678-2.43zm5.387 0c.441.715.971 1.144 1.501 1.858-.53 1.716-1.148-.571-1.854-.571-.177-1.001.353-.715.353-1.287zm0 4.146c-.265-.143-.442-.429-.707-.572.089-1.573 1.325-.715.707.572zm-1.502 1.859c.442-.143.707 0 .972.286-.177.571-1.06.857-.972-.286zm5.564 1.143c.089.715-.53.286-.53.858-.618-.429.177-1.715.53-.858zm-58.376 3.575c.177.429.883 1.715.707 0 .265.143.353.715.353 1.143-.353.286-.707.572-1.148.572.088-1-.088-.715.088-1.715zm48.573.715c1.148 0 2.385 2.573 3.71 3.288 0 .858.353.572 0 1.144 1.324 1.715 3.444 1.715 4.504 4.575-2.915-1.43-6.712-5.576-8.214-9.007zm-46.895 0c.265 1.143.265 1 .972 1.143 0 .858-.883.715-1.148.286.441-.572-.177-1.001.176-1.429zm-4.769.571c.618.286.354 2.431 0 3.289 0-1.144 0-2.145 0-3.289zm26.495 2.145c.706.143.441 1.859.706 2.716-.53-.428-.441-1.715-.706-2.716zm34.442 3.002c.707.143.884 1.144 1.502 1.573-.442.429-1.413-.715-1.502-1.573zm-35.502 1.43c.088.858-1.325.858-1.501.286.088-1.43.883.143 1.501-.286zm-12.276 3.574c-.088 1.001-.883.429-1.325.286.354-.858.707-.286 1.325-.286zm25.082-109.2292c.706-.143 1.148-.5719 1.678.2859-.354 1.1438.264 2.1446-.177 3.2883.53-.4289.441-1.5726.53-2.7164.353.4289.265 1.5727.53 2.1446 0 .8578-.354 1.1437-.53 1.8586.441.7148.706 1.8586.53 3.5742-.972 0-1.06-1.4297-1.148-3.0023-.265 1.5726-1.06 1.2867-1.855 1.5726-.177 1.1438.442.8579.353 1.8586-1.501.5719-1.854-1.8586-1.678-3.0023 1.413.7148 1.148-1.4297 2.031-1.5727.177-1.7157-.441-2.4305-.264-4.2891zm-15.985 4.575c.088-.4289.265-.7148.353-1.1437.265.1429.176.7148.176 1.1437.442-.1429.089-1.4297.177-2.1445.177 0 .177.4289.177.5719.353.2859.618.8578.971 1.1437 0-.8578-.706-1.2867-.176-2.1445.529 1.8586 1.059 3.7172 1.324 6.0047.795.286 1.59-2.7164 2.032-.8578-.265.143-.354-.2859-.53-.2859.176 1.0008.088.8578-.177 1.5726-1.236-.2859-1.413 1.1438-1.501 2.7165.618 0 .353-1.4297 1.148-1.1438.176 2.0016.971.143 1.501 0 .177 1.8586-1.06 4.861.972 5.7188-1.59.7149-.707 4.7181-2.562 5.7189.089.8578.884.5718 1.149 1.1437.176 1.2868-.089 2.0016-.354 2.7165-.706.2859-1.148-2.8594-1.501-1.1438-.265-.2859-.265-1.0008-.353-1.5727-.442 0-.619.5719-.972.8579.177.4289.265-.143.707.2859.176 1.0008-.619.4289-.53 1.1438-1.237-1.1438-3.268.2859-2.208 3.0023.353 1.0008 1.06-.4289.971 1.1438 1.237-1.0008 2.473-2.0016 3.356-3.5743.442 0 .619 1.7157-.176 1.1438.53 1.8586 1.06 0 1.678 1.1438.353-.143-.265-.8579.353-.8579 0-.2859-.265-.2859-.353-.2859-.089-1.0008.53-.8578.53-1.5727.353.143 0 1.4297.706.8579.177.8578-.176 1.1437-.176 1.8586 0 .7148.618 0 .529-.286.442 1.2868-.794 2.2876-.529 3.5743-.619-1.0008-.884-.2859-1.502.2859.883 1.0008-.441 3.4313.353 4.1462-.441-.286-.53.8578-.971 1.5727-.618.4289-.177-1.0008-.707-.5719 0 2.0016-1.589 4.861-1.854 6.2907-.177.7148-1.237 0-1.148 1.1438-.972-1.1438-2.385-2.5735-2.561-3.8603-.265.7149-.972.5719-1.149 1.5727-.176-.2859-.618-.2859-1.148-.2859-.353-2.4305-1.324-3.0024-.706-5.7188.265.4289.265.1429.53 0-.177-1.0008-.177-.5719.176-1.1438-.176-.5719-.883-.143-.971-.8578.088-1.0008.618-1.4297 1.325-1.5727 0 .4289-.089 1.1438.176 1.1438.619-.7149-.088-2.0016-.176-2.7165-.442 0-.619.4289-.707.8578-.706-.5718-1.148-.8578-1.678-.8578.265-.8578.618-.8578 1.148-.5719.089-2.0016-1.413-1.5726-2.208-1.1437 0-1.0008-.441-1.2868-1.148-1.1438-.353-1.5727-.441-3.4313-.706-5.1469.706-.5719.706 2.5734 1.501 3.0023.883-.8578.088-3.2883 1.325-3.0023-.177-1.0008-.442 0-.707-.5719.089-.5719.53-.8579.972-.8579-.265 2.1446.618-2.1445 1.501-1.8586-.441-1.0008.795-1.2867.53-3.0023.088.1429.883.7148.971 0 .53.4289-.441.8578-.529 1.1437 0 .7149.353.8578.176 1.8586.707-.2859.883-1.4297 1.855-1.1437-.177-.8579-.265-.286-.707-.286 0-1.0008.707-.8578.707-1.8586-.265-.8578-.795.286-1.325 0 0-1.0008.265-2.5735-.706-2.1445-.265-1.2868.441-1.0008.353-1.8587-.088-.1429-1.501 1.4297-2.208.286.53-1.0008-.265-2.4305.707-2.7165-.53.8579.176.7149.176 1.5727-.088-1.2867 1.06-3.8602 1.855-3.5743-.265-1.2867-.442-2.2875 0-3.5742 1.501 0 .441 3.5742 1.148 4.1461.883-.8578 1.413-2.2875 2.384-3.0024-.353-.2859-.618-.5718-1.059-.4289zm19.694-.2859c.176 0 .088.2859 0 .2859.176.7149.53 1.1438.353 2.4305-.53.286-.53.286-1.148 0 .177-1.0008.53-1.2867.177-2.4305.353 0 .618 0 .618-.2859zm-12.276 17.1565c-1.06-2.1446 0-4.861-.971-7.1486.088-.8578.794-.7148.971-1.5726-.53-.286-.971-2.4305.177-2.1446-.177.8578.353.8578.176 1.8586.618-.5719.089-1.2867 0-2.1445.53 1.0007.442-1.2868.972-.286 0-1.0008-.354-1.2867-.177-2.4305 1.59 3.1454 2.12 7.1485.707 11.1517-.354 0-.442-.2859-.53-.5719-.354 1.1438-.354 1.1438-1.325.8579.618.5718.883 1.5726 1.678 1.8586-.795.2859-.265 1.0008-.53 1.8586-.618-1.0008-1.766-.5719-1.854.8578-.53-.2859.264-.7148 0-1.5727.441.143.706 0 .706-.5718zm28.614-8.7212c.53 1.2867.353 3.7172.53 4.861-.707.7148-1.237 0-1.502 1.5726-.264-.2859-.264-1.0008-.353-1.5726.089-1.0008.53-1.2868.972-1.8587-1.678-.2859-.618-3.4313-1.148-5.7188.176-.2859.706-.143.529-.8578.442-.143.442.5719.972.2859-.442 1.0008-.177 2.0016-.972 2.1446-.176 1.2867.265 1.5727.177 2.7164.618-1.0008.353-.4289.795-1.5726zm4.857-1.2868c-.971 1.1438.177 3.4313 0 0zm-33.824 12.4385c.265-.429.265-1.4297.971-1.1438-.088.4289-.265.7149-.53.8578 0 .286.089.286.177.286-.177.4289-.265-.143-.618 0zm-25.788 14.44c-1.06.2859.176-1.5727-.972-1.5727.089-1.5727.442-3.1453.177-4.575.795 2.0015 1.59 7.1485.53 8.7212.265-1.1438-.442-2.4305.265-2.5735zm34.531 12.2955c.971.5719-.265 1.8586.706 1.8586 0 .2859-.353.2859-.529.2859 0 .286.176.286.176.5719.353 0 .353-.4289.707-.2859-.707 1.7156-1.502-1.0008-1.06-2.4305zm5.564 14.1541c-.177-1.2868 1.324 1.2867 1.148-1.1438 1.766-.286 2.031 1.7156 3.356 2.1445-.177-2.1445-2.826-2.5734-1.855-4.575 1.678 1.4297 2.473 4.2891 4.063 5.7188-.795 1.0008-1.148-1.1438-1.855-1.1438-.618 1.7157 2.296 1.5727 1.325 3.8603-.618.2859-.618-.429-.972-.5719.089.8578.089 5.4329 1.502 4.1461.53.7149-.177 1.7153.706 1.8583-.53.858-1.589 0-1.678-.8575-.265.7145-.883.5715-1.501-.2859.177-1.0008-.177-1.2868-.353-1.8586-2.12-.429-2.915-3.1454-4.504-4.5751.618-1.2867 1.501-.5719 2.561-.5719-.089-.8578-1.678-.4289-.972-1.8586-.353.8578-.441-.4289-.971-.2859zm-14.837 49.6105c0 .143 0 .286-.088.286-.089-.143-.089-.286-.177-.429h-.088c.353 1.43 1.413 1.859 2.296 2.574 0-1.144.088-2.431.088-3.574-.441.857-.971 1.286-2.031 1.143zm27.996-33.741c.53-.286.706 1.43.971.572.53.858-1.148.715-.971-.572zm-41.95 10.58c-.176 0-.176.572-.176.858-.53-.286-.972-.286-1.502 0 .088-.286.177-.429.177-.858.53.572 1.06-1.001 1.854 0 0 .429-.353.286-.353 0zm42.391 4.861c.53-1.001 1.943 1.001 2.208 2.145-1.413.286-1.148-2.002-2.208-2.145zm-51.134 6.291c.706.143-.177 1.001.53.858-.442.428-.707 1.143-.972 1.858 6.447 1.144 12.718-1.287 18.017.858-1.855 1.287-6.271.429-8.92 2.145.088 1.143.441 1.429.176 2.43-.441.286-.618 0-1.324.286.353-.572-.089-.572-.354-.858.089-.572.884-.143.972-.858-3.974-4.432-8.037.572-12.629-1.572 0-.572 0-1.001 0-1.573.618-.572 2.031 0 2.384-.858.177-.858-.176-1.144-.176-1.858.618-.429.706 0 1.501 0 .53.428-.353 1.286.177 1.572.706-.715.353-1.572.618-2.43zm-.707-101.0805c.442 0 .442-.7148.354-1.5727.441 1.0008 1.501 3.8602.353 4.861.088 1.1438.971 1.2868.706 3.0024-.441-.8578-1.059-.5719-.971.8578-.618-.2859-.618-1.1437-.353-2.1445-1.148-.7149-2.296-.4289-3.356.5719-.265-1.2868-.353-1.1438-1.148-1.1438-.089-1.8586.618-1.0008 1.148-1.5727-.089-1.0008.088-1.4297.176-2.1445.354.2859.442 1.0008.354 1.8586.53-.5719.618-2.2876 1.501-1.5727.442-.4289 0-1.8586 0-2.4305.618-.5719 1.236.4289 1.236 1.4297zm1.237 28.3082c-.707.2859-.883-.4289-1.501-.286.264-1.0007 0-1.0007 0-2.1445 1.942-1.2867 2.031.8578 1.501 2.4305zm-5.387-10.008c.53-.2859.353.5719.706.5719-.265 1.0008.53 2.8594-.176 2.7165.618.5719.883 1.7156 1.678 2.1445 0 1.0008-.089 2.1446.353 2.4305.706.286.088-1.5726.971-1.1437-.618 2.2875.265 4.861-.176 8.7212-.619-.143-.619-1.1438-1.148-1.5727 0-.5719.353-.7149.706-.5719-.53-.5719-1.413-1.0008-1.855-2.4305.619-1.4297.265-2.7164.53-4.575 0-.7149-.618-.143-.971-.286-.088.4289-.088 1.5727-.972 1.5727-.529-1.1438.177-2.4305-.353-3.8602 1.501-.7149-.265-2.7165.707-3.7173zm58.906 10.5799c-.177 2.0016 1.059 1.7156 1.148 3.2883-.707-.5719-.795.143-.53 1.1438-1.06.1429-2.561-1.0008-2.561-3.2884.618-.4289 1.059-1.8586 1.943-1.1437zm-35.238 48.7534c.53.143.707 1 .707 2.144-.354-.143-.354.429-.354.858-.53-1.001-.618-1.43-.353-3.002zm21.902 6.29c-.177.286-.177.715-.177 1.144 1.149-2.145-1.236-2.145-1.324-4.146.618 0 .706.858 1.501.572-.353-1.001-.706-1.287-.706-2.145.618-.572 1.501 1.144 2.207 1.573-.088.715-.176 1.287-.529 1.573.794 2.287 2.737 2.43 3.709 5.146-1.325.429-2.473-2.001-3.709-2.716.618 1.144.706 3.288 1.678 3.86-1.325.715-1.767-2.573-3.533-2.144 0-2.002-1.501-1.573-1.148-4.146.883 0 1.413.714 2.031 1.429zm-426.2953 59.476c-.0883.143-.2649.143-.3532.286.0883-.286.1766-.429.3532-.572zm-1.5897 1.144c-.2649.143-.6182.286-.8831.143-.1766 0-.0883-.429-.1766-.715.2649-.143.5299-.429.7065-.572.1766.429.3532.715.3532 1.144zm1.2365-7.006c-.0884.143-.265.143-.4416.143.0883-.286.1766-.429.3532-.429 0 0 .0884.143.0884.286zm-6.97691 4.861c-.08832 0-.26495.143-.35326.286.08831-.143.17663-.429.26494-.715.08832.143.08832.286.08832.429zm-.79484 1.573h.70652c-.17663.429-.44157.572-.79483.286.08831-.143.08831-.286.08831-.286zm-2.11955-10.723c.44157-.429 1.14809-.572 1.50135-1.001-.52989-.286-1.2364-.143-1.50135-.858-.08831 0-.08831 0-.17663.143.08832-1.143.26495-2.287.26495-3.574.08831-.286.35325-.286.44157-.715.17663-.143.35326-.429.6182-.572.61821.715 1.05978 1.144.79484 2.431-.08832 0-.17663-.286-.26495-.286-.08831-.286-.44157-1.144-.26494-1.144-.26495-.572-.79484-.429-.79484.429.26495-.143.44158 0 .44158.429-.08832.572-.35326-.286-.52989.286.17663.286.08831.858.26494 1.144.17663-.143.26495-.286.26495-.715.26494.286.17663 1.001.52989 1.144-.17663.143-.88315.286-.79484 1.572.52989 0 1.41304-2.144 1.7663-.429.79483 0 .97146-1 1.32472-1.715 0 .715.44157 1.144.44157 2.43.44158.143.26495.143.70648 0 .265 0 .0884.858.4416.858-.3532.286-1.14808.715-1.50133 1.573-.52989-.572-.08832-1.001-.26495-1.573-.44157-.143-.44157.286-.79483.286-.08832.858.17663 1.144.17663 2.002-.44158 0-.52989-.572-.52989-1.287-.88315 0-1.14809 1.287-1.94293.858-.44157-.858-.52988-1.287-.6182-1.716zm.52989 2.145c.08831.143.08831.286.08831.572 1.05978-1.43.44158 1.715 1.05978 1.143 0 .572-.26494.572-.08831 1.287.52988.715.88314.286 1.41303.858.17663.858.61821 1.287.44158 2.716-.97147.286-.79484-1.286-.88315-2.43-.52989 0-.79483-1.001-1.50135-.429-.26495-.286.08831-1.573-.17663-1.859-.17663-.286-.35326.143-.70652 0 0-.143 0-.286 0-.429h.17663c-.08832 0-.08832-.143-.17663-.143 0-.429.26494-.714.35326-1.286zm2.47281 3.86c.08832-.572.52989-.572.79483-.858v.858c-.26494.143-.52988-.286-.79483 0zm-5.82877-67.4823c-.08832-.1429-.08832-.1429-.17663-.2859.08831.143.17663.143.17663.2859zm3.17933-16.8705c.08831.286 0 .286 0 .143 0 0 0 0 0-.143zm.26494 1.5727s0 .143-.08831.143c.44157-.143.26494-.286.70652-.286.26494.4289.26494 1.0008.88314 1.2868v.1429c-.6182.143-.44157 1.4297-1.05977 1.5727.08831-.7148.08831-1.2867-.08832-1.7156-.52989.2859-.26494-.143-.70652-.143-.08831-.7149.17663-.8578.35326-1.0008zm-.6182-10.1509c.08832.8578-.26494.8578-.44157 1.1437.08831-.4289-.08832-1.2867.08831-1.2867.08832.143.26495.143.35326.143zm-.26494 21.3026c0 .5719-.26495.4289-.44158.7149.08832-.286-.08831-1.0008.08832-1.0008 0 .1429.26494.1429.35326.2859zm5.21054 4.0032c-.0883-.4289-.2649-.7149-.1766-1.2868.1766 0 .1766-.2859.3533-.2859 0 .5719.1766 1.1438-.1767 1.5727zm-.1766.8578c-.17663 0-.26495.143-.44158.143 0-.286 0-.5719 0-.8579.35328-.1429.26495.429.44158.7149zm-4.1508 2.0014c0-.572-.44157-.429-.26494-1.144.44157-.4285.52989.858.26494 1.144zm.35326 4.146c-.44157-.429-.79483-2.43-.26494-3.288.17663 1.001.52989 2.288.26494 3.288zm2.64945 3.289c-.70652.143-.26495-2.431-.17663-2.717.08831.572 0 2.002.17663 2.717zm-1.58967 60.047c-.35326-.286-.44157-.858-.70652-.143 0-.857-.6182-1.572.17663-1.858.17663.572.88315 1.001.52989 2.001zm20.93056-82.3507c-.5299 0-.0883.1429-.1766.7148-.5299.2859-.1766-.8578-.7065-.7148-.265.4289.0883.4289 0 1.1437.8831-.4289.0883.286.7948.4289.0883-.5719.0883-1.0008.0883-1.5726zm-18.36943 24.7337c-.6182 0-.08832 1.43.44153 1.144-.0883-.572-.52985-.429-.44153-1.144zm5.56383 19.873c.1766 1.716.8831 4.432 1.5897 6.005.3532 1.858.5299 4.003 1.3247 5.147-.1766 1.429.1766 3.431.7948 4.289.1766-1.859-.5299-5.433-1.2364-7.292-.0883-2.573-1.2364-8.721-2.4728-8.149zm4.769 20.731c-.3533.286 0 1.287.0883 1.572.5299-.571-.0883-1-.0883-1.572zm-1.1481 4.861c-.2649.429-.8831.286-.7948 1.287.5299 0 .9714-.715.7948-1.287zm.5299 3.717c-.4416 0-.6182.572-.9715.858.1767 1.001.3533 2.144.7949 2.859-.0884.715-.7066.572-.7949 1.287 0 .429.3533.286.265.858.4415-.286.7065-.286 1.0598-.429 0-2.145-.265-3.574-.3533-5.433zm3.9742 4.718c-.1767.715.8831.715.7065 0-.0883-.143-.7065-.572-.7065 0zm4.2391 3.431c-.265.572-.7949.572-.9715 1.287.4416-.143.7065 0 1.2364-.429-.0883-.286-.1766-.572-.2649-.858zm-7.4185 4.004c.1767.143.265.286.3533.571-.0883 0-.265 0-.3533 0-.0883-.285-.0883-.428 0-.571zm7.0652 4.432c-.4416-.143-.5299.286-.7948.429.0883.428.8831.143.7948-.429zm-23.75667-102.5103c0-.7148 0-1.5727 0-2.2875h.17663c.08832.7148.08832 1.5727-.17663 2.2875zm.17663-9.2931.08832-.1429c.17663.1429.26494.4289.26494.7148-.17663 0-.17663-.2859-.35326-.143 0-.1429 0-.2859 0-.4289zm1.41304.5719c.08832.143.17663.286.44157.4289-.17663 1.1438.17663 1.5727.52989 2.4305-.08831.286-.17663-.1429-.44157 0 0 .7149.35326 1.0008.44157 1.7157.44158-.143-.35326-1.1438.17663-1.2868.44158 0 .08832 1.2868.70652 1.5727 0 .4289-.52989-.2859-.70652.286 0 .5718.35326.5718.52989.8578-.6182.5719-.44157 2.5735-.08831 3.2883 0 0-.08832.143-.08832.2859-.44157-.1429-.17663-1.2867-.52989-1.5726-.52989 0-.08831.8578-.26494 1.4297-.44157-.8579.17663-1.7157-.08832-2.7165.08832-.7148.35326.5719.44158 0-.08832-.5719-.17663-1.1437-.26495-1.7156-.26494-.143-.08831.5719-.35326.7148-.26494-.2859.08832-.8578 0-1.2867-.97146-1.1438-.08831-2.8594-.44157-4.4321zm-.17663 11.1517c.08832.143.08832.286.08832.4289-.08832-.1429-.08832-.2859-.08832-.4289zm-1.23641-16.2986c.61821.1429.79484-.4289.88315-1.1438h.08832c0-.143 0-.143-.08832-.143.44158.7149-.08831 1.0008.17663 1.5727-.26494.143-.52989.286-.79483.4289-.08832-.2859-.17663-.5719-.26495-.7148zm-3.97416-29.5949v-1.1438c.529889.2859 1.05978.5719 1.58967.8578 0 .286 0 .7149.08831 1.0008-.52989-.2859-1.148091-.5719-1.67798-.7148zm3.53259.5718c.08832 0 .08832 0 .17663.143v.7149s0 0-.08831 0c0-.143 0-.286 0-.429-.08832-.1429-.08832-.2859-.08832-.4289zm.79483.4289c.79484.429 1.50135.7149 2.20787 1.0008.26495 0 .08832.7149.26495.8579-.52989 0-1.41304-.5719-1.32472-.8579-.35326-.1429-.79484-.1429-1.23641-.4289.08831-.1429.08831-.4289.08831-.5719zm-4.32742-3.4312v-.286c.529889.143 1.14809.4289 1.50135.7149v.1429c-.529888-.2859-1.059776-.4289-1.50135-.5718zm0-6.8626v-.286c.264944-.4289 1.14809-.1429.971462-.1429-.176629.1429-.794832.5718-.971462.4289zm20.1358-18.01433c-.3533.85782-.0883.57188.0883 1.14376h-.0883c-.0883 0-.0883 0-.1767 0h-.0883c-.1766-.14297-.3532-.14297-.5299-.14297 0-.42891.0883-.71485.265-1.42971.2649.14297.4416.28594.5299.42892zm-.8832.57188c0 .14297-.2649.14297-.4416.14297.0884-.14297.0884-.42891 0-.57188.1767 0 .4416 0 .4416.42891zm-4.0625 2.57347c-.1766.28594-.2649.71485-.4415 1.00079-.0883-.14297-.0883-.28594-.1767-.57188.0884-.14297.1767-.28594.265-.42891zm-.7065-.85783c0-.28594-.0883-.71485.0883-.57188.0884.14297.0884.42891.1767.71486-.1767 0-.265 0-.265-.14298zm-.0883 15.29791c-.0883.4289-.1766.8578-.0883 1.2867-.1766 0-.3533-.143-.5299 0-.1766-.5719-.3533-1.1438-.5299-1.8586.1766.1429.3533.4289.4416.8578.0883-.286.2649-.4289.4416-.5719.0883.143.1766.286.2649.286zm.265 3.0023c.4415 1.2868 1.2364 2.5735 1.413 3.8602 0 .143-.0883.286-.0883.5719-.1767-.2859-.3533-.7148-.4416-1.0008 0-.1429-.0883-.2859-.1766-.2859-.4416-1.0008-.7949-2.0016-1.1481-3.1454.1766-.2859.3532-.1429.4416 0zm-13.24726-3.1453h.08831s0 .143-.08831.143zm4.2391 9.0071c-.17662-.2859-.88314-.7148-.97146 0 .26495 0 .44158.143.44158.7149-.26495-.286-.52989-.286-.79484-.143-.26494 0-.44157-.143-.44157-.5719.08831-.5719.35326-1.0008.35326-1.8586.35326-.143.52989.143.97146.5719 0 .4289-.17663.4289-.17663.8578.35326-.143 1.05978.143.6182.4289zm11.65756.7149c-.2649-.143-.8832-.8578-.9715-1.2868.0883.143.265.143.3533.143.2649.4289.5299.5719.6182 1.1438zm-11.03935.143c.26494.5718.97146.4289 1.2364 1.1437-.79483-.2859-1.50135-.5719-2.03123-1.2867.35325.4289 1.05977.143.70651-.7149.52989 0 .35326.5719.08832.8579zm3.26764 4.1461c-.70651 0-1.05977-.5719-1.50135-1.1438 0 .286 0 .5719-.26494.4289.26494-1.4297 1.50135-.2859 1.76629.7149zm11.03931 7.4345c-1.413-1.7157-3.0027-3.0024-4.504-4.5751-.7065-.7148-1.5897-1.5727-2.0313-2.8594 2.3845 1.4297 4.769 4.4321 6.5353 7.4345zm-15.89662-5.2899c.88315-.429 1.41304-1.4297 2.56113-2.0016.17663.1429.35326.2859.52989.4289-.26494 1.0008.17663 1.8586-.35326 2.1445-.17663-.4289-.17663-1.1437-.70652-1.1437-.52989.8578-1.67798.4289-2.03124.5719zm20.75402 9.8649c-.0884-1.2867-2.9144-.5718-1.8547-2.4305.9715.143 1.943 1.4297 1.8547 2.4305zm-14.8369 0c0 1.5727-.61823 2.0016-.5299 3.4313-.35328 0-.52991-.2859-.97148-.2859-.52989.8578-.17663 1.7156-.97146 2.4305.52989-2.1446.70652-6.5767 2.47284-5.5759zm5.9171 10.1509c-.1767 1.1438.0883 2.1446.2649 3.0024-.4416.4289-.7948-.1429-1.5013 0-.0884-.7148.2649-.7148.1766-1.5726-.265-.286-.4416-.5719-.9715-.429.0883-1.0008-.2649-1.1437-.1766-2.1445.7948.4289 1.5013.4289 2.2079 1.1437zm-8.56657-.2859c-.26495-.143-.08832-1.4297.17663-.7148-.08832 0-.17663 0-.17663.2859.35326.2859.6182-.4289.70652 0-.35326.143-.44158.5719-.70652.4289zm-.97146.2859c.17663 0 .35326 0 .44157.286-.44157.2859-.79483-.4289-1.05978.4289.17663.5719.70652-.2859.79484.2859-.26495.5719-.70652.5719-1.05978.7149-.17663-.4289-.08832-1.1438-.44158-1.2867.17663 0 .35326 0 .26495-.429.52989.286 1.05978-.5718 1.32472 0-.08831-.1429-.26494-.2859-.26494 0zm3.70923.5719c0-.5719.2649-.5719.5299-.7148.1766.2859.4415.2859.5299.7148-.5299.143-.6182-.2859-1.0598 0zm-.79485-.1429c0 .2859.17665.2859.44155.2859.0883 1.4297-1.32469.143-.79481-.4289 0 .143.08832.2859.26495.2859 0-.2859.17663-.5719.26496-.2859-.08833-.143-.17665 0-.17665.143zm1.58965 5.0039c-.1766.143-.3532.286-.7065.286-.0883-1.5727-.79483-.7149-1.32472-1.1438 0 .8578.08831 1.7157-.52989 1.5727.08832-1.2868.35326-1.1438.52989-2.0016.88312.4289 1.23642-.143 1.76632-.7149-.0883 1.2868-.3533 1.2868.2649 2.0016zm1.2364.143c.1767-.2859.5299-.7149.7065 0-.5298-.143-.4415 1.7157-.7948 1.1438.265-.4289-.3532-2.4305.265-2.0016-.265 0-.1767.5719-.1767.8578zm-5.47549 4.5751c.08831-.5719-.6182.1429-.52989-.429.35326-.1429-.26494-1.1437.44158-1.1437-.26495.7148.35325 1.2867.08831 1.5727zm2.91439 6.1477c.0883-.4289-.17663-1.4297.2649-1.2867-.0883.4289.265 1.5726-.2649 1.2867zm-.79483 2.1446c0 .2859.35325.1429.26494.7148-.17663-.143-.26494-.143-.26494-.143-.08832-.2859-.35326-.1429-.52989 0-.08832-.1429-.35326 0-.17663-.4289.6182.7149.35326-.7148.97146-.7148-.08832.2859-.17663.4289-.26494.5719zm-3.79754 2.8594c-.08831 0-.08831 0-.17663 0 0-.143-.08831-.286-.08831-.4289h.35325c0 .1429 0 .2859-.08831.4289zm2.91439 5.1469c.08831.5719-.17663.5719-.08832 1.1438-.17663-.143-.26494-.143-.26494-.286-.17663-.2859-.17663-.7148-.26495-1.0008.08832.286.35326.143.61821.143zm2.47278 3.2883c.5299.143.7949.143 1.3248 0-.3533.8579-1.0598 1.0008-1.3248 0zm-.6182 25.4489c-.1766.858.4416 2.287.9715 2.859-.0883-1.286-.7065-1.715-.9715-2.859zm9.7147 54.901c-.0884.572-.6183.429-.7066 1.143.1767 0 .265 0 .265-.286.4416 0 .0883 1.287.7065 1.144-.4416-1.001 0-2.144-.2649-3.288-.3533.429-.7949.858-1.2365 1.287.265.572.9715.143 1.2365 0zm-6.0055 6.433c.0884 0 .1767-.143.265-.143-.0883.143-.1766.143-.265.143zm379.754-163.987c-1.502-.28594-3.18-.71485-4.593-.14297-.353-.28594-.441-1.00079-.971-1.14376-1.148.85782-2.826 1.71563-4.151.57188-.353.14297-.088 1.00075-.442 1.14375-.176-1.14375-.618 0-.706-.143-.088-.71481.441-.57184.265-1.28669-.442-.42891-1.325 0-1.502.71485-.088.71484.442.28594.442.85784-.177.2859-.707.2859-1.148.2859-.265-2.57345-2.738-2.14453-3.356-.5719.442.286 1.148.143 1.236 1.0008-.176.286-.706.286-1.148.286-.265-.143.089-1.2868-.441-1.1438-.354-.143-.089.8578-.442.8578-.353-.1429-1.06.4289-.971-.4289.088-.5719.794.5719.794-.4289-.618-.4289-1.589.286-1.678 1.4297.089.5719.884 1.0008.53 1.2868-.176 0-.265.1429-.441.2859-.442-.5719-.795-1.2867-1.237-1.7157-.088-.7148.177-.8578.089-1.2867-.707-1.57266-1.943-1.28672-1.855-2.8594.088-1.28673.53-.28594 1.237-.71485.264-.14297.529-.85783.706-.85783l.177.71486c.353.14297.883-.57188 1.148.14297 0-.71485.441-.85783.795-1.14377.441 0 .176 1.14377.706 1.14377.618 0 .353-1.42971 1.06-1.14377 0 1.0008.353.42891.177 1.57268.706.71485 1.413 0 2.472.14297.177-1.14376.795-1.71565 1.678-1.85862-.265 1.14377.177 1.28674.707 1.57268 0-.57188 0-1.28674.441-1.14377.442 1.14377 2.12.28595 2.208 1.85862 1.502.42891 3.091.57188 3.974-.85782.795 1.85862 2.208 2.00159 3.886 2.00159 0 0 0 .14297-.088.14297.442.28594.442.57188.442.85782zm53.783 2.0016v.4289c-.53.143-.971 0-1.236-.2859.353 0 .706 0 1.06-.143zm-22.167 5.7188c0-.2859 0-.4289 0-.7148.53-.286.795-.8579 1.59-.8579.088.143.088.5719.088 1.0008-.53.286-1.06 1.1438-1.678.5719zm4.858-2.2875c-.089-.143-.089-.286-.089-.5719h.353c.089-.5719.265-1.0008.442-1.4297.618-.143 1.325.143 1.325 1.0008-.265 1.0008-1.325 1.5727-2.031 1.0008zm-13.778-.286c.265-.4289.53-1.1437 1.06-.7148 0 .8578-.706 1.1438-1.06.7148zm-14.925-1.7156c0-.143 0-.2859 0-.4289.177-.143.618-.286.707.143-.089.2859-.442.7148-.707.2859zm2.826-.143c-.265-.5719.619-.7148.707-.1429-.265.1429-.618.4289-.707.1429zm.354-3.71721c.265-.28594.529.14297.794.14297v.85784c-.353.2859-.706-.42893-.794-1.00081zm1.059.85781c-.088-.71484.265-.71484.265-1.14375.707 0 .972.14297 1.413-.28594.177.42891.619.42891.795 1.00079-.441.5719-1.678.8578-2.473.4289zm-120.549-9.864959h3.532c.089 0 .265 0 .354.142971-1.06.14297-1.59 1.143768-2.208 1.858618-.53-.57188-1.413-.42891-1.678.57188-.53-.14297-.883-.57188-.883-1.71565.353-.428907.618-.714848.883-.857819zm76.834 0h4.415c-.176.285941-.176.857819-.441 1.000799-1.237-1.429711-2.561-.28595-3.974-1.000799zm5.475 0h.883c.089.428912.265.714849.442.857819.706 0 1.236-1.000789 1.766-.571878-.353 1.000798-1.59 1.286738-2.384 1.000798.353-1.143768-.177-1.286739-.707-1.286739zm4.416 0h.441c-.353.428912-.706.714849-1.059.571883 0-.285942.353-.142971.529-.285942.177-.14297.177-.14297.089-.285941zm89.639 9.293089c-.088.28594-.176.42887-.176.71487-.177-.143-.354-.286-.53-.42893v-.14297c.176-.14297.441-.14297.706-.14297zm.354 12.58137v1.2868c-.265 0-.442 0-.707.2859.177-.4289.353-1.1437 0-1.4297-.177 0-.088.5719-.177.8578-.176-.8578-.176-2.0015-.088-2.4305-.441-1.0008-.883.5719-1.678.286-.088-1.2868-.971-1.2868-1.413-2.0016.442-.7149.972-.286 1.678-.286 0 .429-.353.286-.265.8579.53-.143.618-1.0008.795-1.5727.795-.143.706 1.0008 1.678.5719.088 1.4297-.795 1.4297-.707 3.0024.265.2859.707.2859.884.5718zm0 2.8595v2.5734c0-.4289-.089-.8578-.265-1.1437-.354-.143 0 .7148-.265.7148.088-.4289 0-.7148-.177-.8578.177 0 .353 0 .442-.143 0-.5719-.089-1.0008-.265-1.2867h.176c.265 0 .354 0 .354.143zm-.619 4.575c-.088.286-.176.286-.353.286.088-.143.177-.143.353-.286zm-170.447-25.73469c-.088-.71486-.707-.57189-1.148-.57189v.71486c.441-.14297.795-.14297 1.148-.14297zm27.819 2.00158c.177-.28594.177-.85782.088-1.28673-.53-.14297-.618-.28594-.795.42891.265.28594.265 1.0008.707.85782zm1.678 0c.088-1.4297-.53-1.57267-.707-2.4305 0 .85783-.529.85783-.441 1.85862.441.14297.618.57188 1.148.57188zm.353-4.14614c0-1.143768-1.324-.57189-1.413 0 .442.71485.883 0 1.413 0zm1.678.28594c-.441.28594-1.501-.42891-1.501.57188.441-.42891 1.501.28594 1.501-.57188zm12.718-1.0008c.353.28595 2.296.14297.441 0-.265-.714849-.53-.142966-.441 0zm25.787 1.85862c.442-.14297 1.767.28594 2.208-.14297.089-.57188-.176-.57188-.176-1.14376-.707-.14297-1.237-.42892-1.943-.57189.53 1.0008-.442 1.14377-.089 1.85862zm8.302 1.85862c.618.28594.618-.57188.971-1.00079-.353.14297-.971-.28595-1.148.28594.265.14297.177.42891.177.71485zm2.826 2.4305c.177-.42891.353-.71485.265-1.57268.442-.42891 1.325 0 1.501-.71485-.706-.28594-2.119-1.14376-2.384.28594.088.28594.53 0 .441.71485 0 .42892-.353.42892-.706.42892v.71485c.353-.14297.442.28594.883.14297zm2.12-6.576648c-.442.142971-1.237-.285941-1.413.285942.353.285936 1.413.428916 1.413-.285942zm1.059.571878c0-.285936 0-.428907 0-.714848-.265 0-.706-.142971-.529.428912.088.142966.176.428916.529.285936zm11.481 2.85942c.442.14297.354-.57189.53-.85783-.265.14297-.795-.28594-.795.28594.177 0 .089.42892.265.57189zm3.268 11.29472c-.353-.143-.618-.429-1.148-.429 0 .286-.265.429-.265.7149.618 0 1.06.4289 1.413-.2859zm.618-.429c0-.4289.177-.4289.177-.8578-.265 0-.442 0-.707 0-.088.7149.354.5719.53.8578zm1.678-8.86413c-.441 0-.353-.85783-.971-.57189-.265 1.0008.706 1.14377.971.57189zm2.65-.14298c-.619-.28594-1.413-.28594-1.855.28595.442.14297.971.42891 1.501.71485.089-.28594.265-.57188.354-1.0008zm49.014 19.01511c-.176.143-.353.2859-.353.7148.353.286.707.143.883-.2859-.176 0-.353 0-.53 0 0 0 0-.143 0-.4289zm5.917 2.4305c0-.7149 0-1.4297 0-2.2875-.529.4289-1.148.7148-1.413 1.5726.707-.1429 1.06.143 1.413.7149zm.442-9.722c-.177 0-.177-.4289-.265-.7149-.353 0-.706 0-.706.4289.264-.1429.441.286.706.429.088 0 .177 0 .265-.143zm3.003 10.5798c0-.2859 0-.5719 0-.8578-.354.143-.972-.286-1.148.2859.529 0 .529.8579 1.148.5719zm1.678-.2859c-.354.1429-1.237-.4289-1.06.4289.088.5719 1.236 1.0008 1.06-.4289zm-.265-.8579c0-.2859.176-.4289.176-.8578-.441.143-.53-.5719-.706.286.176 0 .176.5718.53.5718zm1.413-9.0071c-.354 0-.177-1.0008-.707-.8578-.441.2859-.441 1.2867-.706 1.8586.883.143 1.059-.4289 1.413-1.0008zm.088 10.5798c-.177-1.4297-.177-1.2867.088-2.4305-.883-.8578-.795 1.5727-1.236 2.0016.177.143.265.286.442.4289.088-.4289.176-.8578.088-1.5727.265.429.353 1.0008.441 1.7157.089-.143.089-.143.177-.143zm1.413-13.1533c.265-.7148.265-1.0008.088-1.8586-.883 0-1.501.2859-1.943 1.0008.619.4289 1.325 1.2867 1.855.8578zm-.883 4.5751c.618-.286.706-1.4297 1.06-2.0016-.53-.143-.795-.2859-1.237 0 .177 1.0008 0 1.1438.177 2.0016zm5.211 9.436v1.0008c0-.2859 0-.7148 0-1.0008zm0 4.4321v1.4297c-.089-.1429.088-1.0007 0-1.4297zm0 43.749v1.8587c-.089-.143-.265-.143-.354-.429.265-.4289.354-.8578.354-1.4297zm0 3.5743v.4289c-.089.143-.265.286-.354.4289 0 .7149.354 1.2868.177 1.8587-.442-.429-.442-1.5727-.353-2.4306.353.143.53 0 .53-.2859zm0 4.0032v.5719c-.177-.286-.265-.7149-.265-1.1438.088 0 .088.286.088.5719zm0 24.3045v5.576s0 0-.089 0c0 .286 0 .286.089.429v.715c-.089.143-.177.286-.265.429-.089-2.43 0-4.861.265-7.149zm0 7.578v1.287c-.177 0-.265-.143-.354-.429.265 0 .354-.429.354-.858zm0 1.859v4.146c0 .286-.089.572-.265.858-.265.142-.265-.286-.442-.429.265-.286.265-.715.53-1.001-.088-.429-.353-.858-.442-1.43.354-.572.442-1.287.619-2.144zm0 6.147v3.432c-.089-1.144-.089-2.574 0-3.432zm0 4.003v1.859c-.089-.429-.265-1.43 0-1.859zm-11.658 50.898h-.177c.089 0 .177-.143.177-.143zm10.333-148.4035c.088.143.265.143.53.143 0-.5719.088-.5719-.177-.8578-.088.4289-.353.2859-.353.7148zm0 1.7157c.53.1429.618-.5719.971-.7149-.265 0-.353-.5719-.706-.4289-.089.4289-.265.5719-.265 1.1438zm.53 40.7466c0 .4289-.089 1.7156 0 2.2875.265.143.265-.143.441-.143.089-.7148.177-1.2867.265-2.0016-.353.429-.441-.4289-.706-.1429zm-.883 8.2923c-.089.7148.176.7148.353 1.0008-.089-.286.088-1.0008-.088-1.1438 0 .143-.089.143-.265.143zm-.884 2.8594c.177.143.265.4289.619.2859.088.4289 0 1.4297.265 1.5727.176-.7148.441-2.1446-.089-2.4305-.088.143 0 .5719-.265.4289-.176 0-.176-.2859-.176-.7148-.089 0-.177 0-.265 0 0 .2859-.177.4289-.089.8578zm2.473 2.1445c-.088-.4289.089-1.1437-.088-1.4297-.088.286-.177 1.4297.088 1.4297zm-.265 1.0008h.265c0-.2859.089-.7148-.176-.5718 0 .2859-.089.2859-.089.5718zm-1.324 11.5806c0 .4286.176.4286.353.5716-.089-.286.088-.8575-.088-.8575 0 .143-.177.143-.265.2859zm-4.328 3.1456c.088-.286.177-.572.177-1.144-.089 0-.177-.286-.265-.286 0 .715-.177 1.144.088 1.43zm.177.715c.176 0 .176.143.353.143 0-.286 0-.429 0-.715-.265 0-.265.429-.353.572zm3.356 1.715c0-.429.353-.286.265-1-.442-.286-.442.714-.265 1zm-.354 3.432c.354-.286.619-2.002.265-2.574-.176.715-.441 1.716-.265 2.574zm-2.207 2.573c.618.143.176-2.002.176-2.287-.088.571 0 1.715-.176 2.287zm2.826-.858c-.089-.286.088-.858-.089-1.001-.176.286-.088.858.089 1.001zm1.589 9.15c.089-.714.265-2.287-.265-2.573-.353.715-.176 2.144.265 2.573zm-1.324 21.017c0-.143 0-.429 0-.572-.089 0-.265 0-.354 0-.088.429 0 .572.354.572zm-8.655 16.871s.088 0 .088-.143 0-.286-.088-.286c-.089 0-.089 0-.177 0 .088.143.177.286.177.429zm-.883 5.432h.883c-.089-.428-.177-.857-.354-1.143-.088.143-.176.286-.264.429-.089.286-.177.571-.265.714zm-428.5036 16.871h-.5299c.1766 0 .5299-.143.7948-.286-.0883.143-.1766.286-.2649.286zm-21.725456-18.157c0-.286.088315-.572 0-.715 0 0-.088314 0-.1766292 0 0 .286 0 .572.1766292.715zm22.696856 16.87c.0884.143.4416.286.4416-.143-.1766-.143-.3532-.286-.4416.143z" fill="#fff" fill-rule="evenodd"/></svg>