<svg fill="none" height="40" viewBox="0 0 425 40" width="425" xmlns="http://www.w3.org/2000/svg" xmlns:xlink="http://www.w3.org/1999/xlink"><mask id="a" height="40" maskUnits="userSpaceOnUse" width="425" x="0" y="0"><path d="m0 0h425v40h-425z" fill="#c4c4c4"/></mask><g mask="url(#a)"><path clip-rule="evenodd" d="m75.3117 1.06621h2.3081c-.5018.32334-1.5053.2425-2.3081 0zm105.3693 95.62669c.402.8892 2.108 1.0508 3.212.485 1.204.7275 2.207 1.6167 4.215 1.7783-3.513.3234-7.226.6467-9.032-.7275-.101-1.0508.602-1.455 1.605-1.5358zm10.738-.8892c-.1.6467-1.304.4042-2.107.5659 0-.1617 0-.4042 0-.5659zm16.358 4.2033c.903-.1616.802.323 1.003.647-.301.161-.702.242-1.305.161 0-.404.101-.646.302-.808zm-3.814 1.051c-.502.404-3.01-.162-2.709-.323.903.242 2.308-.162 2.709.323zm10.939-6.2243c.301.2425.301.7275.2 1.2125-1.003.0809-1.204.2425-1.605-.485.602-.1616.501-.8892 1.405-.7275zm3.211.0808c.201 1.2125-1.004 1.3742-1.405 2.1826 0-.7275-1.004-.7275-.703-1.6167.703-.1617 1.004-.6467 2.108-.5659zm.602 3.6376c0 1.0508-2.609.5658-2.71-.0809.904-.485 1.706.1617 2.71.0809zm3.211-.0809c-.903-.2425-2.91.3234-2.91-.485.903.2425 2.91-.3233 2.91.485zm4.416 3.1528c.1.404 1.204.081.803.808-.703 0-1.305 0-1.305-.485.301.081.201-.242.502-.323zm20.17-1.9402c.703-.2425 4.516 0 .803 0-.501.5662-1.104.0808-.803 0zm49.675-.9701c.803.0809 3.311-.1616 4.315.1617.201.5658-.401.485-.301.97-1.405.0808-2.409.4046-3.713.4846.803-.8079-1.004-1.0504-.301-1.6163zm14.35 1.2933c1.505-.1616 3.814 0 4.516.97-1.004.404-2.208-.485-3.412-.485-.702.404-1.505 1.051-.903 1.94-4.917-1.212-8.229.566-13.046-1.212 3.011-.89 5.62.323 8.329-.89.703.243.602 1.051 1.305 1.213.803-.728 3.713.242 3.211-1.536zm1.706-2.7483c1.305-.1616 1.204.5659 1.806.8892-.602-.1617-1.906.1617-2.107-.2425.402-.0808.301-.3233.301-.6467zm2.007 5.3353c-.401 0-.903 0-1.304-.081 0-.162 0-.404 0-.566.702-.081 1.405 0 1.304.647zm3.412-7.3561c.301.3233.703.7275.502 1.455.803.3233 2.609 0 2.91.7275-1.405.2425-4.114.97-4.516-.3233.301-.2425 1.004 0 .803-.5659 0-.4041-.702-.485-1.304-.485 0-.1616 0-.4041 0-.5658.702-.0808.802-.4042 1.605-.2425zm-.201 5.8201c-.401-.081-1.003 0-1.103-.243 1.103-.242 2.308.809 3.111 1.294-1.405-.404-2.81 1.212-3.513.081.803-.243 1.606-.243 1.505-1.132zm4.316.162c-.803-.162-2.309.161-2.71-.324.502-.242 2.609-.323 2.71.324zm1.906-.566v.566c-.501-.081-1.304.161-1.003-.405.2 0 .401-.242 1.003-.161zm22.178-2.2636c.803-.0808.703.5658 1.004.8083-.502-.1616-1.606.1617-1.606-.2425.401 0 .401-.4041.602-.5658zm6.523-10.0234c-.702.1616-1.204.4042-2.107.3233-.101-.3233-.402-.3233-.502-.6467 1.104.0809 2.007-.3233 2.609.3234zm1.405.485c-.1.4042.301.485.201.8083-.402 0-.904 0-1.305-.0808-.1-.6467.703-.5658 1.104-.7275zm2.81 7.9217c-.803.0809-.703.8084-1.907.5659-.401-.97 1.505-1.0509 1.907-.5659zm6.723-.5658c-.602.8892-3.913 1.3742-5.118.4042 1.606-.2425 3.513-.9701 5.118-.4042zm5.319-5.0926c.1 1.4551-3.914.4042-4.315.2425 1.003 0 3.111.1617 4.315-.2425zm-2.208 6.5476c-.501-.1617-1.806.1617-1.906-.2425.602-.3233 1.706-.1617 1.906.2425zm17.462 4.4461c-1.405.242-4.516.404-4.817-.728 1.304-.889 4.214-.485 4.817.728zm40.442-1.859c-.402 0-.703 0-1.104 0 0-.243 0-.5663 0-.8088.903-.1616 1.304.1617 1.104.8088zm33.617-19.1581c-.301 0-.401.2425-.501.4042-.602-.1617-1.405-.2425-1.305-.8083.703-.3234 1.505-.2426 1.806.4041zm5.319 14.631c-.401.5658-1.304.7275-.301 1.3742-1.304 0-2.509 1.1316-2.91-.3234.803-.4041 1.706-1.7783 3.211-1.0508zm3.412-.0808c-1.505-.2425-2.007-1.2126-3.412-1.5359 1.606-.7275 4.516 0 3.412 1.5359zm2.208-7.5985c-.402 0-.301.4042-.602.5659-.703 0-1.305 0-1.305-.485.703.1616 1.405-.7275 1.907-.0809zm5.921-9.4575v.8083c-.602-.1617-1.907.1617-2.108-.2425.903-.0808 1.004-.7275 2.108-.5658zm5.318 9.215c-.803 0-.401.97-1.405.7275-.903-.2425-.802-1.1316-1.304-1.6166 1.605-.1617 2.007.485 2.709.8891zm-2.207 8.9726c.501 0 1.103 0 1.605.0809.402.485.201 1.2933 1.004 1.455.301-.3234.301-.8892 1.104-.7275 2.91.5658 3.412-1.6975 5.619-1.0509.101 1.3742-.1 2.3442-1.405 2.5867-.903-.3233-.602-1.455-2.107-1.2933-.703.4041.201.8891-.301 1.2125-2.208-.4042-3.914.0808-5.821-.4042.402-.5658.201-.8083-.2-1.2125.401 0 .502-.2425.502-.6467zm5.017-6.6284c.402.6467.402.8892.201 1.6167-1.706 0-2.81-.3233-3.713-.8892 1.204-.3233 2.408-1.1316 3.512-.7275zm-1.706-4.1225c1.104.3233 1.405 1.2125 2.108 1.8592-1.004.0808-1.506.2425-2.409-.0809.301-.8083-.1-.97.301-1.7783zm5.118-.5658c1.606-.2425 2.208 1.2125 3.211.3233-.301-.6467 0-2.2634.602-2.8292 2.008.8083 4.416-.7275 5.921-1.6167 1.205.0809 2.308.2425 2.409 1.0509-1.004.1616-2.409 0-2.409.8891 3.111.5659 3.513-.4041 6.423.2425.301.6467 0 .485 0 1.2126-1.405-.1617-2.108.3233-3.211.485-2.108-1.8592-6.122.8891-7.426-1.2126-.302.6467-1.506.4042-1.907.9701-.301 1.3741 1.405 1.3741 1.204 2.6675-1.806-.4042-1.706.7275-3.211.485-.402-.5659-.502-1.2934-1.506-1.455-.2.5658.502.4041.502.8083-1.405 0-2.308.4042-3.211-.3233.803-.6467 2.408-.5659 2.609-1.6975zm3.613 9.5384c.1.3233.401.485.502.8083-.301.2425-.904.1617-1.606.1617 0-.1617 0-.4042 0-.5659.401-.1616.702-.3233 1.104-.4041zm1.003 2.2633c-.602.4042-1.003-.3233-1.304-.6466.702-.0809 1.405 0 1.304.6466zm8.33-9.2151c-.803-.5658-1.706-.1616-2.409-.485.803-.5658 1.505-1.0508 2.509-1.5358.401.4042 1.304.485 1.003 1.455-1.204.1617-.602-.8892-1.806-.6467-.602.97.803.5659.703 1.2125zm5.118.4042c-1.004-.5658-2.409.7275-3.714-.1617 1.205.1617 3.714-1.455 3.714.1617zm-388.062-87.38159h.702c.101 0 .101.08083.101.2425-.302 0-.402.16167-.703.08084-.1-.08084-.1-.16167-.1-.32334zm3.813 0h.402v.08083c.301 0 .702 0 .702.16167-.301.16167-.702 0-1.104-.2425zm5.218 0h1.104c-.602 0-1.204.08083-1.003.80834-1.004.16167-2.609 0-3.111-.64667.702-.323339 1.505.32333 2.408.32333.101-.08083.402-.2425.602-.485zm2.61 0h6.322c-2.108.64667-3.914-.242503-5.821.64667-.2-.08083-.301-.40417-.501-.64667zm17.361 0h.301c-.101 0-.101.08083-.201.08083zm54.39 0h.402c.602 0 1.304.2425 1.104.32334-.602-.08084-1.606.16166-1.807-.16167 0-.08084.101-.16167.301-.16167zm10.036 0h1.304c-.502 0-.903 0-1.304 0zm28.098 0h1.204c0 .2425-.702.32334-.602.80834.703-.16167 1.305-.56584 1.907-.80834h2.509 63.523c-.101.08083-.201.16167-.301.16167.1.80834 0 .97001.2 1.61668 1.405.16167 3.111.32333 4.115.16167-.602-.08084-.703.2425-.602.64667 2.308.97001 5.017-.16167 7.727-.2425 0 .7275 1.204.485 1.605.97 1.807-2.42502 6.423.40418 8.53-.97 0-.97001-1.706-.40417-1.906-1.13168 0-.40417 1.003-.08083.903-.56584-.602-.08083-.803-.485-1.104-.727505.1 0 .201 0 .201-.080834h9.834c.301.161669.703.242499.803.565839 2.408-.565839 5.82 1.13168 7.225-.16167.402.80834 2.007-.16167 2.509.48501-2.107.80834-4.616-.08084-5.921.7275-.2.56584.803 0 .803.40417-.502-.08083-.803.08084-.903.2425 0-.32333 0-.485-.201-.64667-1.204 0-1.706.56584-2.508.97001-.402-.32334-1.506-.80834-1.907-.08083.1.40417 1.204 0 1.304.485-.401.32334-1.304.2425-1.103 1.05084.903-.16166 1.906.16167 2.709-.08083.201-.08083.401-.40417.602-.40417.703 0 1.706.56584 2.509.485.602-.08083.602-.7275 1.405-.56584.1-.485.401-.88917.602-1.29334 1.104.08083.702.88917.201 1.13168 1.505.32333 3.512 0 4.917-.08084.502-.40417-.1-.56584.1-.88917 2.911 0 5.52-.56584 7.527.7275-.402 0-.803 0-1.305 0-.301.08084 0 .72751-.301.72751-2.107.40417-4.215-1.61668-5.319 0 2.108.56584 4.316.97001 6.824.72751.502.32333.803.80834 1.907.56584.301-.32334-.401-.56584-.502-.88918.402-.32333.903-1.13168.101-1.37418.802-.56584 2.609.40417 3.01-.40417-1.003-.64667-2.709-.7275-4.215-.88917 1.004-.80834 3.613.16167 4.817-.97001.101.16167.502.08083.301.485 1.004.16167 1.405-.2425 2.007-.40417.301.08084.402.32334.502.64668 1.405-.08084 3.613 0 3.412-.97001.602.08083.101.485.201.88917.502.08084.803.32334 1.405.32334.401-.56584.401-.40417.1-1.05084.502 0 .703.40417.903.64667 3.513-.2425 7.326-.80834 10.036-.08084 1.906-.485 1.706 1.37418 3.11.80834-.2-.80834-1.304-.7275-1.706-1.21251.402-.646669 1.205.24251 1.706-.16166.101-.565843-1.003 0-.903-.485009 1.706.080834 2.71.242499 3.513 1.212509 1.003-.64667 3.311-.32333 4.716 0-.201.16167-.201.64667.201.64667.201-.485.401-1.05084 1.104-1.13167.401.32333 1.003.485 1.304.97001-.903.16166-.903.80834-.903 1.29334-.903.2425-.602-.97001-1.304-.485-1.807 1.94001 3.11 1.29334 4.114.64667-1.104.2425-1.405-.72751-2.408-.97001 1.505-.2425 2.007.97001 3.813.80834.1-.485-.903 0-.803-.485.301 0 .1-.32334.301-.40417 1.706 1.05084 3.513-.48501 4.616.64667.402.08083 1.004-.40417 1.305 0 0 .2425-.703.08083-.602.40417.502.08083 1.104.2425 1.605.32333.502-.08083-.602-.40417 0-.485.904.32334 1.706-.485 2.509.08083-.501.40418-1.405-.32333-1.405.40417.301.40418 1.305.08084 1.405.56584-1.003.32334 0 .88918-.1 1.61668 1.003.08084 2.609-.40417 2.709.48501-.401 0-.802 0-1.304 0-.1.2425-.502.80834-.101 1.05084.603-.2425 2.509-.80834 3.011-.08083-.502.2425-1.405.16167-2.208.16167-.301.32333-.401.7275-.903.88917.502-.16167.703.32334 1.104.32334 1.104.08083 1.806-.56584 2.81-.72751.702-.08083 1.204.32334 1.907.32334 1.103 0 2.107-.56584 3.311-.32334-.1.16167-.201.32334-.301.485.703.08084 1.505.48501 2.007-.08083.602 1.37422 3.512.80834 4.215-.08083 1.204.40417 2.007-.32334 3.011-.40417 0 .2425.501.08083.501.40417-.702.32333-1.104.16166-1.405.80834-.401-.32334-.903-.40417-1.605-.24251-.101.40417.502.16167.502.48502-.603.1617-.803.7275-1.104 1.1317 1.505-.2425 3.01.0808 3.913-1.1317 1.104.4042 1.907-.16168 2.81-.32335 0 .2425 0 .40415-.2.48505 1.003 0 1.906.0808 2.709.1616 0-.72748.401-1.21249.803-1.69749 1.304.08083 2.81.08083 3.412 0s1.104-.40417 1.304-.56584c.602 1.05084 1.907.32334 3.212.32334.702 0 1.605.2425 2.408.32333.502 0 .803-.08083 1.204-.08083.903.08083 1.907.2425 3.111 0 .502-.32334.903-.72751 1.807-.72751.903-.2425 2.508-1.13167 3.612-1.29334.703-.08084 1.004-.2425 1.506-.40417 1.103-.32334 2.308-.40417 3.411-.64667.703-.24251 1.506-.56584 2.208-.80835 2.609.08084 5.52-.2425 8.43-.7275.903.72751 1.104 2.02085 2.509 2.34419.2.485-.101.7275-.301 1.05084-2.208.08083-2.81-1.61668-4.215-2.42502-.301.16167-.502.485-.602.80834-.703.2425-1.606.40417-2.308.56584-.402 0-.101-.40417-.502-.48501-.703-.16167-.602.40417-1.104.40417-.602.08084-.602-.40417-1.104-.485-1.003-.16167-2.308.40417-3.111.56584.301.40417 0 .64667-.401.88917-1.004-.32334-2.409-.40417-3.211.16167-.302.16167.2.40417-.101.56584-.803.08083-1.003-.24251-1.605-.08084 0 .32334-.101.56584-.201.72751-.602-.64667-2.208-.32334-3.211-.08083-.302.80834-.904 1.21251-1.807 1.53582.301.7275 1.204 1.455 2.208.8892 0-.4042-.1-.7275-.401-.8083 1.505-.1617 3.11-.64672 4.616-.1617.501-.72752 2.609-.97002 3.111-.16168h.301c.2.08083.401.08083.702.08083.903.16165 1.606.48505 2.208.88915 1.706.6467 4.014-.2425 5.218.8892-.1.2425.101.5658-.1.6467.201.1616.803 0 1.204.0808-.1-.3233.1-.4042.301-.5658 1.204.3233 3.011.0808 4.115.2425.602-.2425.802-.8084 1.505-.97.301-.0809.401.0808.702.0808.602-.8083 3.914 0 4.115-.8892.1-.48498-.502-.3233-.602-.88915.301-.32334.803-.40417 1.405-.56584.1-.16167.1-.485.2-.64667 1.104.08083 1.104-.64667 2.108-.56584.1-.2425.2-.485.2-.72751.603-.485 1.807-.7275 2.509-.16166-.201.16166-.401.16166-.401.485.502.08083.803.32334 1.204.48501.502 0 .502-.48501 1.104-.48501-.1-.40417-.803-.2425-.803-.56584.402-.80834 2.208-.80834 3.412-.56584 0 .48501-.602.64668-1.204.64668-.201-.08084-.402-.08084-.502 0-.1 0-.201 0-.201 0h.201c0 .40417.301.485.803.40417 0-.08084 0-.24251-.1-.32334.301.08083.602.16167.702.40417 1.104.08083 1.907-.2425 2.91-.32334h1.305c0 .16167.2.40417.2.56584-.301.08084-1.103-.16166-.903.24251 1.205-.16167 1.706.64667 3.312.40417-.201.80834 1.003.40417 1.405.7275-.602.08084-.803.40417-1.104.80834-.502-.16167-1.104-.16167-1.305-.64667-.1.40417-.301 1.13172 0 1.61672-.1.2425-.802 0-.602.4041v.4042c.201.1617.602.1617.904.0808.301-.0808-.001-.7275.301-.7275.301.0809.802 0 .903.2425-.602.2425-.703.8084-.301 1.2934.602 0 .903-.1617 1.204-.2425.301-1.0509-.903-1.1317-1.004-2.26338.201-.16167 1.004 0 1.405.08083-.401 1.21255 2.308.80835 2.81 1.61665 0-.0808 0-.2425-.1-.4041.2.0808.301 0 .502-.0809-.301-.1616-.502-.4041-.703-.6466 1.004.3233 1.907.8891 2.91.0808.201.0808.502.1617.502.485-1.305.0808-1.003.485-2.208.1617 0 .3233-.301 1.0508 0 1.5358.602.0808 1.907-.3233 2.71-.5658 1.606 1.3742 4.716-.3234 6.121 1.0508v.0809c-1.706-.0809-4.415-.0809-5.921.7275-.301 0-.1-.4042-.301-.485-3.11-.0809-5.218.5658-7.225-.6467-.1 0-.201.0808-.301.0808-1.104-.6467-1.204-.8892-2.91-.6467-.602-.97-1.806-3.79916-3.211-2.58665-.301-.2425-.201-.7275-.201-1.21251-.201 0-.402 0-.602 0 0 1.13168.401 2.74836.602 4.28416-.402.4042-.602.8084-1.505.7276v.6466c.2.3234.501-.2425.602.0809-.602 1.1316.501 2.8292 2.709 2.5058-.2-.5658-.502-1.2125 0-1.7783.803.2425.402 1.5358.803 2.1017 1.104-1.1317 2.107 1.0508 3.813.3233.201.1617.201.485.301.6467.603 0 1.205.1616 1.807.3233-.201.1617-.301.4042-.402.7275.502-.4042 1.506.0808.803.485-.301-.7275-.903.1617-1.104-.1617 0-.2425 0-.485 0-.6466-.702-.0809-.802-.2425-1.505 0-.1.6466.703 1.1316-.401 1.2125-.101-.2425.2-.8892-.201-.8892-.1.7275-.401 1.455.201 1.6975 1.304-.7275 3.01 1.3742 3.412 1.6975-.201-.3233-.603-1.2125 0-1.2125.1.4042.2.7275.602.8892.501-1.6975-.903-3.1525.602-4.1225-.1 0-.201-.0809-.201-.0809v-.0808c0-.0808 0-.1617-.1-.1617 0-.1616 0-.2425-.201-.3233-.201.0808-.401.1617-.602.2425-.1 0-.201-.0808-.201-.1617.903.0809.803-.5658 1.405-.6467.301.1617.602.2426.903.3234-.2.8892-.602 2.0208.703 2.5867.201-.6467.301-1.3742.301-2.1017.502-.3233.803-.3233 1.304-.3233-.1.1616-.1.3233.101.485.1-.4042.602-.4042.602 0-.502.485-.903.2425-1.907.485 0 .485 0 1.0508.602 1.0508.602-.0808.201-.8892.602-1.0508-.1.5658.201.8083.803.8891.502-.0808.402-.5658 1.104-.485-.401-.4041-.502-1.0508-.502-1.7783 1.305-.485 3.513.7275 4.516-.1617 0-.8083-.301-.8892-.602-1.6167-.301.3234-.401.7275.201.8892-.502 0-.903 0-1.405 0-.201-.4042-.502-.8892.1-1.1317.402-.1616.803.4042.903 0-.2 0-.2-.2425-.301-.4041 1.004.1616.602-.7275 1.205-.8084v.485c0 .0809.301.1617.301.3234 0 .3233-.502.8083-.402 1.2933.101.3233.602.3233.402.7275.1 0 .2.0808.301.0808-.101.1617-.201.3234 0 .4851-.101-.0809-.201-.0809-.201-.1617-.201.7275-.1 1.7783 0 2.425.301.2425.401 0 .703.0808 0 1.4551.301 2.7484-.703 3.7992 0-.2425 0-.4041 0-.6466-.1-.1617-.502 0-.602-.1617-.301-1.0508 1.304-2.1017.1-2.6675-.501 1.0508-.803 2.1825-.702 3.395-.301.2425-.602.4042-.502.97.201.1617.401-.1617.703-.2425.2.1617.802.4042 1.103.0808.402.4042-.401 1.2934.301 1.4551.502-.485.603-1.2934.803-2.1017.502.485 0 1.5358.402 2.1825v.4042s-.101 0-.201 0c-.1.3233 0 .5658.201.7275v.4041c-.101.0809-.201.0809-.402.0809 0 .5658 0 1.3742.402 1.6167v.2425c-.101 0-.201-.0809-.402-.0809-.1.2425-.301.4042-.301.7275.402.1617.301.2425.602.0809v.1616c-.1.0809-.2.1617-.401.2425.201 1.7784.502 3.6376-.1 5.0117.301.9701-1.104.8084-.703 1.5359.602-.0808.602-.6467 1.004-.8892.1 0 .1.0809.2.1617v.1617c-.1.1616-.301.4041-.1.5658h.1v.7275c-.1.2425-.301.4042-.602.5658.502.5659.201 1.6167-.1 2.3442-.101-.0808-.502-.1616-.502.0809.401.0808.803.1616.903.5658-.2.2425-.401.485-.803.6467-.1-.4042-.602-.4042-1.003-.485-.201-.485.702-.3234.401-.6467-1.405-.8892-1.003 1.5358-.602 2.0208-.1-.5658.602-.7275.803-1.2125.201.7275-.803.97-.702 1.8592.401.0808 0-.4042.401-.4042 0 .1617.301.0809.301.1617-.803.8892.301 1.7784-.602 2.2634-.101.2425.301.485 0 .6466-.201 0 0-.3233-.301-.3233-.101.2425-.201.5658-.301.8083 0 .2425.301-.3233.401 0-.301.485.301.8892-.1 1.2934-.301-.2425.301-.7275-.301-.7275-.301.1616-.101.6467-.502.7275-.201-.485-.702 0-1.305-.0808-.1.485.201 1.2933-.401 1.3741 0-.2425 0-.4041 0-.6466-.201 0-.602-.2425-.803-.0809.201.3234.602 1.2934 0 1.455-.1-.2425-.1-.7275-.1-1.1316-.201-.1617-.602-.2425-.703-.485.101.2425-.2.3233-.301.5658-.1.5658.402.8892.502 1.455 0 .3233-.301.6467-.301.97 0 .5659.401 1.0509.201 1.6167-.101-.0808-.201-.0808-.402-.1617-.1.3234-.401.8084 0 1.0509-1.104.2425-.702 1.7783 0 2.1017-.301.5658.201.97.301 1.455-.2 0-.1.2425-.301.2425-.2-.3234-.1-.5659-.602-.7275.301-.1617.301-.485.201-.8084-.301-.0808-.1.2425-.402.2425-.1-.3233-.501-.4041-.903-.5658.201.7275-.1 1.5358.803 1.94-.301.5658.101.97.201 1.455-.201 0-.301 0-.402-.0808 0 .485-.1.97-.2 1.3742.602 0 .903.1616 1.304.4041.201-.0808.201-.3233.602-.2425.101.4042-.301.3234-.2.7275.2.2425.401 0 .602.1617 0 .0808 0 .3233-.1.3233-.201-.1616-.201-.2425-.703-.1616.1.7275.402 1.3742.301 2.0208.201.2425.301-.2425.402 0 .1.3234-.302.2425-.201.5659.401-.0809.1.4041.502.4041.301-.5658.501-1.5358 1.003-2.1825-.201-1.1317.502-2.7483.201-4.1225.1-.2425.401-.2425.502-.5659-.402-.6466-.703-1.6166-.201-2.3441 0-.1617-.402-.0809-.502-.2425.502-.0809 0-.3234.1-.4042.301 0 .201.2425.603.1616.2-.2425 0-.8083-.301-.8891-.302-.0809-.101.2425-.402.2425-.201-.0809-.1-.4042-.1-.6467 1.104-.0808 1.003-1.5358.301-1.8592-.101.2425-.101.6467-.502.7275-.201-.0808-.1-.4041-.1-.6466.1-.1617.602.0808.501-.2425 0-.2425-.401-.0809-.401-.2425.1-.1617-.201-.6467.201-.5659.2.0808-.201.485.2.485.201-.3233-.1-.8892-.602-.97-.2 0-.401.485-.602.3233 0-.0808 0-.1616-.1-.2425.301-.2425.602-.4041.803-.7275.301-.0808.401.0809.602.0809.702-.4042.602-1.1317 1.304-1.0509.502.0809.101.3234.301.7275.101.1617.402.3234.402.4042l-.301.0808c-.101.2425.2.485-.101.6467.301 0 .402.2425.502.485 0 .2425-.502.0809-.502.4042s.603.1617.502.6467c-.401 0-.201.1616-.702.0808-.301.4042 0 .8083-.101 1.455.502.0808.703.485.803.97-.501-.1617-.502.0808-.702.4042.301 0 .502 0 .502.2425-.502.2425-.101 1.2125-.904 1.2933-.2.8084-.301 1.6975.301 2.2634-1.304.6467-.802 2.3442-1.003 4.0417.502.0808.301-.485.803-.485 0 .4042-.201.6467-.201 1.0508-.1.1617-.502.1617-.702.2425 0 .7275-.402 1.455.2 2.1017-.2.0808-.401.1617-.401.4042.502.1617.903.4042 1.003.97-.401-.1617-.602-.3233-.903 0 .101.4042 1.204.485.602 1.0508-.401.0809-.401-.2425-.702-.0808-.101.5658.401.7275 0 1.1317 0 .1616.2.1616.301.1616.201.1617-.201.485-.402.485 0-.1616 0-.485-.2-.485 0 .2425-.101.4042-.201.485.201 0 .502.0809.803.1617 0 .3234.201.5659.401.7275-.2.1617-.2.5659-.501.7275.401.4042.2 1.0509.1 1.455.201.0809.201-.4041.401-.0808-.702 1.6975-.502 3.88.101 6.1434 0 .2425-.301.2425-.402.4042.402.0808.201.3233.301.5658-.2-.0808-.501-.2425-.702-.4042-.101.2425-.502.1617-.803.1617-.1.7275-.602 1.8592-.903 2.9909-.602-1.0509-.301-3.1526.201-4.4459-1.706 0-1.707 1.3742-3.011 1.6975-.703-.3233 1.204-.97.301-1.6167-.602-.4041-1.204.485-2.107-.0808.2-1.2125 1.605-.3233 2.207-.5658-.602-.2425-.702-.8084-1.304-1.0509-1.807-.3233-1.907.8084-3.011 1.1317-2.208-.8892-4.917.2425-6.623-.8084-1.505.4851 1.003 1.6976-.903 1.7784.1.7275 2.208.5658 1.906-.3233.302.4041 1.004.485 1.305.8083.602-.2425 1.305-.485 2.409-.3233.401.1616.602.3233.802.6466-.2 1.0509-2.508.8892-3.211.8892.1.7275-.301 1.0509-.803 1.2125-1.104.0809-1.003-.7275-2.408-.485 0 .5659.1 1.2125-.602 1.2125-1.104-.0808-.402-1.5358-2.108-1.2933.201-.1617.201-.5659.602-.5659-.301-.6466-.903.1617-1.605-.0808-1.104-.4042-.602-1.1317-.201-1.7783.803 0 1.606.0808 2.408.0808-.903.2425-.903.8083-.301 1.3742.603-1.1317 1.205-1.2934 1.205-2.5867-1.907-1.6975-6.624.97-8.53-.97 0-.0809-.101-.1617-.201-.2425 0 0 0-.0809-.1-.0809h-.101c-.2-.0808-.301-.2425-.301-.485 1.907-1.6166-.1-3.2333 1.305-5.0925 0 .1617 0 .3233.201.3233-.803-2.5867 0-7.4367-2.509-9.5384 1.405-.6467.401-1.8592 1.304-2.5867-.501-.4042-1.204-.5658-1.505-1.0508.1-.3234.401-.485.602-.6467-.502-.3233-1.505-.0808-2.308-.1617-.502 1.2934.201 2.6676.201 4.4459.1 2.1825-1.004 4.4459-.402 6.6284.602 2.425 1.004 5.2542 1.205 8.3259-.402-.0808-.703-.1617-1.205-.485-.702.5658-1.906.8083-2.809 1.1317.1-.8084.2-1.5359.702-2.1825-1.004-.3234-1.104-1.2934-1.907-1.6976 1.104-.8891.402-3.1525 1.506-4.1225-.703-1.7783-2.208-3.1525-1.305-5.4159-1.104-1.3742-1.606-3.7183-.803-5.2542-.702-.4042-.602-1.3742-1.706-1.0508-.702 1.8591.402 4.2842-1.104 4.6075 1.104 2.0209-.2 5.1734.602 7.1134-.702.1617-.802.7275-1.103 1.2125 1.304 1.1317.501 2.91.702 4.4459-.903.1617-1.806.4042-2.71.4042.101-.4042.201-.8084.502-1.1317-1.104-1.2934-.401-2.5059-.602-3.8801.803-.4041.502.3234 1.104 0-.301-.6466-.702-.4041-1.104-1.2125 1.104-.1616.402-1.3741 1.907-1.8591-.1-.6467-.301-.8084 0-1.3742-.703.1616-.402-.4042-.803-.485.1.4041-.1.7275-.602.6466 0-.4041-.1-.97.201-1.6975.301 0 .702.7275.602 0-.402-1.3741-1.405-1.5358-2.308-2.3442.301-.6466.602-2.7483.802-2.5866-.2 0-.2.1616-.401.1616.201-1.1317-.702-2.3442-1.305-3.395 1.104-.6467 2.911.2425 2.509-1.0509 0 .2425-.502.1617-.803.1617.502-.4042-.602-1.455-.802-1.2125.301.0808.401.4042.401.6467-.201.485-1.505 1.1317-1.907.3233.502-.4042-.2-.7275 0-1.3742-.501 0-1.003 0-1.505 0 .703 1.0509-1.003.4042-1.505 1.0509.803.485 1.605-.0809 1.906.6467-1.505-.3234-2.308.2425-3.211 0-.301-.0809-.803-.6467-1.304-.6467l-.803.3233c-2.609.0808-6.924 0-9.032-.1617-2.709-.1616-5.318 1.3742-7.426 0-.903.6467-2.609.2426-3.613 0-3.111 1.5359-.301 2.8292 2.108 3.3951 3.713-1.3742 6.924.7275 10.537.3233 1.405-.1617 2.509-1.0508 4.215-.8892-.101.485.1.7275.602.6467-.301-.97 2.508-1.2125 3.612-1.0508 0 .4041-.401.8083-.2 1.2125h.802c-.1-.485-.702-.6467-.401-1.3742.803-.0808 1.405-.5658 1.907 0 .401-.2425.301-.8892 1.104-.8892 0 .8892.903 1.8592.602 2.3442.803.0808.803-.4042 1.505-.3233.301 1.6167.1 2.5867.401 4.2842-.2 0-.501.0808-.602.1616.101-.5658-1.104-.8891-1.304-.3233.702-.1617.903.1617 1.204.3233-.903.4042-.903 1.3742-2.107 2.0209.2-.485.2-.485 0-1.0508.802 0 1.003-.5659 1.304-1.0509-.602-.2425-2.208-.4042-2.107-1.6975.1-.2425.501-.1617.602-.3233 0-.485-.803-.7275-.201-1.2125-1.204-.2425-1.405-.0001-2.509.1616-.1.6467.502.6467.402 1.2125-.301-.1616-.502-.1616-.602.1617.702.4042 1.104.6467 1.706.6467 0 .1616 0 .485-.201.485-.301 0-.402-.2425-.602-.3234 0 .4042.401.5659-.201.6467-.1-.4042-.401.2425-.803 0 0-.1617 0-.485-.2-.485-.101.3233-.603.485-1.104.485-6.925-.5658-14.551.5659-20.673-.3233 0 .485-.702.485-.803.8892.904 1.5358 4.215 1.2125 7.226 1.3741 3.612.2425 7.024.4042 9.734.485 3.01-.7275 5.319-1.0508 8.429-.6466-1.204 0-.501 1.0508 0 .8891-.1.485-.802.485-.802 1.0509h1.304c.301-.4042-.803-.5659-.201-.6467 1.104.0808 1.205.8892 1.104 1.3742-.301-.2425-.501-.5659-1.304-.485.1.3233-.301.3233-.402.485 1.205 0 1.205 1.2125 1.305 1.6975.702.1617.301-.5658.803-.485.301.2425.301.8083-.201.8892-.903-.4042-2.91.0808-3.613-.485-.2 1.0508-2.809-.0809-5.017 0-1.706.0808-2.409.4041-3.211-.3234-3.111 1.1317-7.928.2425-11.842.3234-.903 0-1.907.485-2.71.1616.201.485-.401.485-.2 1.0509 1.003.6466 2.81-.2425 3.813.485 3.211-.8084 8.129.5658 10.738-.1617 2.81.3233 5.118.1617 8.028 0-.201.7275 0 .4042 0 1.3742.401 0 .502-.1617.803-.1617.401-.8083-.201-.5658-.402-1.2125 1.305-.97 2.911.2425 3.814-.3233 0 .2425 0 .5658.401.485.803-.0808.602-.8892 1.505-.8892.502 1.0508-1.003 1.3742-.401 1.8592.402 0 .301-.3233.602-.6467 1.104 1.455.803 3.395.201 4.7692.401.2425.602.5659.803.8084-2.609-.8892-4.416 2.1825-6.222.485-.502.7275-.301 2.0208-.703 2.8292-.401 0-.702 0-1.104 0-.2-.7275.101-1.455.402-2.1826-2.609-.485-4.416.8084-4.817 2.1826-5.921.1616-11.842.6466-16.859.1616-.101.5659-1.305.3234-1.505.8892 1.103.7275 2.809 0 3.612.8892 0-.2425 0-.5659.402-.485 5.218-.4042 9.734-.2425 14.25-.4042 0 .2425.1.485.2.6467-.301.5658-.702-.3234-1.103.1617v.97c1.906 0 2.107 1.1316 3.11 1.6975 2.007-1.3742 7.928-1.5359 10.738-.485 3.613-1.8592 7.125-.8084 12.343-.8084.402-.0808.101-.8083.603-.8083 2.508 1.3742 7.325 1.455 10.135 1.3742-2.208 2.3441-7.727-.5659-10.437 1.6975-1.204-.4042-3.412-1.0509-4.515-.97-.602.7275 0 1.94-.101 2.425 2.007-.485 1.606.1617 3.713.3233 0 .485-.401.6467-.802.8084-2.208-1.6976-4.316.3233-6.724.4041 1.204-.2425 2.308-1.5358 2.208-2.1016-1.004 1.2125-5.62.5658-4.918 2.425-.602.1616-2.107.3233-2.408.0808.1-1.7783 2.107-1.94 1.706-3.5567-.602-.1617-1.104-.485-2.108-.485-.802.7275-.501 1.5359.502 2.0209-.301.3233-1.104.1616-1.605.3233-.602-.0808 0-1.0508-.502-1.2125-.703-.0808-1.305-.0808-1.606.1617v.5658c-.301.6467.903.3233 1.004.6467-.602.8083-.201 2.0208-.101 2.5867.302-.6467 1.305-.7276 2.208-.9701.402.5659.903 1.0509 1.806 1.2934-.702.485-2.709-.0809-2.408 1.1317-2.81-.3234-3.713.8083-5.62.6466-.301.7275 1.004.3234 1.606.485 0 .6467-.702 1.1317-.1 1.6167 1.405-.3233 2.107-1.1317 4.315-.8891.401 1.94-2.108 1.455-3.814 1.6975-.1 1.0508-1.505 1.5358-.602 2.8292-.501.485-2.408-.1617-2.91.3233-.502.3233.201.6467-.1 1.3742-2.108.3233-2.007-.97-4.014-.7275-3.613 2.2633-7.025.5658-10.939.6466-.502-.1616-.401-.7275-1.003-.8083-.903.485-2.91.485-3.412-.3233-1.305.3233-3.312.97-4.817.4041.1-.4041 1.806-.4041 1.104-.7275-.101-1.2125-2.509-.3233-2.71.3234-.602-.485-1.706-.6467-2.107-1.2934-1.606.1617-2.81.5659-4.014 1.0509-.803-.6467-2.208 0-2.409-.8892-.502.1617-.502.8892-1.405.7275-7.626-1.455-15.052-2.0209-20.773-.8892-1.003-.3233.603-.2425.301-.8083-1.404.1616-3.612.485-5.017-.4042-.502.5658-1.806.485-2.409.8892-.903-.97-2.508-1.2934-4.214-.7275-.502-.0809 0-.8892-.803-.8084-1.204.8892-1.907-.3233-3.713-.1616-.703.485.602.5658.201 1.3741-1.706 1.1317-2.008-1.0508-3.412-1.2933-1.004.5658-.603 1.0508-.101 1.7784-1.806-.1617-2.509-1.0509-3.111-2.1017-.803 0-1.003.4041-1.405.7275-2.207-1.3742-4.616-.6467-7.225-.6467-.301.4042-.301 1.1317-.903 1.3742-1.405-.0809-2.108.3233-3.513.3233.101-.8892 1.807-.4042 1.706-1.5358-5.72.0808-11.239-.97-13.647 1.5358-1.807-1.2933-4.918-1.1317-7.728-.8892-.2 1.5359-3.411.6467-4.315 1.6976-.802.0808-.802-.485-.802-1.0509-1.004.2425-1.807.4042-1.405 1.3742-1.606-.1617-2.81-.6467-3.111-1.6975-2.108.0808-3.513-.5659-4.817 0 .401.97-.201.485-.301 1.3742-1.506.1616-.903-1.0509-2.108-1.0509-1.003-.0808-.501.97-1.405.97-.702-.2425-1.505-.4042-1.605-1.0508-.402.6466-1.405 0-2.108.1616 0 0-.2.5659-.301.5659-.401 0-.803-.7275-1.304-.8084-1.405-.4041-2.108.4042-2.409-.6466-.301-1.3742 2.208-1.1317 3.613-2.5059 0-.485-.401-.6467-.201-1.2125.903-.4042 1.706-.97 2.509-1.5358.201.0808.401.2425.803.2425.602.3233-1.004.6466-1.104 1.1316.201.97 1.907 1.6975 3.111 1.2934 0-.8892-1.405.0808-1.606-.485-.2-.8084 1.305-.2425 1.907-.3234.502.0809 0 .8892.803.8084 1.003.2425.301-.8892.803-.97.802.0808 1.706-.0809 2.107.2425-.201.8083-1.505.7275-2.408.8891 1.103 1.4551 5.92 1.9401 6.422-.4041.803.0808 1.706-.0809 2.107.2425.101.5658-1.003.1616-.802.8083.301.6467 2.007 1.1317 2.91.7275.301-.7275-.602-.5658-.502-1.2125.201-.1617.903.8892 1.305-.1617.501.1617.1.9701.803 1.0509 2.508-.97 5.72-.1617 8.028.6467.903-.0809 1.204-.7275 1.906-.97 4.416.7275 10.036-.5659 13.849.0808 2.408-.8892 5.519-1.1317 7.526-1.7784.201-.8083-1.605-.2425-1.304-1.0508-1.104-.2425-.803.5658-1.907.3233-.702-.2425.803-.4041 0-.8083-2.308.0808-4.415-.485-6.924-.8084-.402.8892-.101.8892.502 1.4551-.101.2425-.703.1616-1.104.1616-.602-.4041.301-.8083-.502-1.2125-1.305-.2425-1.104.5659-2.409.3234-.2-.8084.703-.7276.803-1.2126-.602-.7275-1.204-1.455-1.204-2.6675-1.305.2425-2.91.3234-4.516.2425.201.1617.301.485.201.8084-1.505-.2425-2.91-1.1317-4.817-.5659-1.405-1.8592-4.114-1.3742-6.623-1.8592.502.7275.803 1.5359 1.806 1.8592.1.5659-1.003.1617-.803.8084 1.104.3233 2.007.2425 2.71-.3234.602 1.0509 1.204.7275 2.308 1.2934.1.485-.803.1616-.803.5658-1.606-.2425-3.01-1.455-5.018-.8083-1.103-1.455-6.221-2.4251-7.225-.2425-.803-.8892-2.308-.2425-3.512-.0809.1.3234.401.485.502.8084-2.108.4041-3.713-.5659-5.62-.5659-1.104 0-2.108.5659-3.211.485-1.706-.1616-2.911-1.2933-4.717-1.1316-.803.0808-1.104.8891-1.907.5658.803.2425 1.104.97 1.506 1.455 1.304.0809 2.809 0 3.713.3234-.803 1.2125-4.014.2425-5.018-.1617-.602.2425.1 1.2125.201 1.6167.702 0 1.405.0808 2.107.0808-.201 1.2933-2.91.5658-4.516.6467.301 1.2125-1.505 2.0208.201 2.5867-.201.7275-2.007.3233-2.408.8891 0 1.1317 1.505.0809 2.408.6467-1.405.8083-2.709-.4042-4.315.0808-1.004-.2425.903-.7275 0-.8083-.903.1617-1.706.4042-2.71.485-.1.5659 1.004.2425 1.004.6467-.502.5658-1.405-.1617-2.108-.0808-1.806 1.7783-4.816-.6467-7.827.97-.401-.0809-.1-.5659-.502-.6467-.1-.7275 1.606.0808 1.405-.7275-3.01-.2425-4.014 1.6167-6.422 1.2125 1.605-.4042 2.207-1.8592 4.014-1.455-1.706-.97-9.935-2.1017-7.025.97 1.104.7275.602-1.2125 2.208-.7275.1.8083.1 1.7783 1.505 2.0208-.401.7275-1.405 1.0509-2.208 1.5359-1.204-.1617-1.505-1.0509-1.806-1.8592-.702 0-.702.7275-.301.97-2.509.485-6.222.97-8.028-.0808-1.405 1.5358-3.111 1.6975-5.921 1.7783-.1-.8083 1.806.0808 1.606-.7275-.904-.6467-2.308.7275-2.911-.3233.803-.8084 2.71-.7275 3.011-1.94-2.509-.8892-2.208 2.0208-5.419 1.2125-4.717 1.1316-11.139.1616-17.06-.4042-.502.3233-.702.8892-1.606.97.502-.8892.402-.8083-.2-1.6167-1.004 0-1.506.4042-2.409.485-.1.5659.703 1.2125-.301 1.3742.301-1.455-3.412-1.455-5.82-1.6167-.101.485-.301.8892-.803.97-1.104-.2425-1.706-.8891-3.412-.7275.301.6467-.401.485-.602.8084-2.107-1.8592-6.523-.4042-8.229-1.6975 2.71-.2425 5.62-.3234 7.225-1.3742-.602-1.3742-3.612.0808-5.017-.8084 1.204-.485.502-1.6975-.201-2.1825.201-.485 1.405-.8892.903-1.3742-1.906-.4041-2.408.4042-3.211.8892-4.215-.4042-7.928.1617-11.54 1.0509 1.806 2.5058 5.519-.5659 9.031.0808.602.0808 0 1.0508.502 1.2125.702 0 1.405.0808 2.107.0808-3.512 2.0209-7.927 1.1317-12.845.97-.401-.5658.602-.7275-.2-1.3741-2.309-.2425-5.72-.7275-8.229-.2425.903.4041 1.505 1.7783-.301 1.7783-.301-.6467-.803-1.2125-1.004-2.0208-1.405.3233-1.405-.7276-2.408-.8892-1.405-.1617-3.111.7275-4.315.6467-.402 0-.703-.5659-1.004-.6467-1.305-.3234-3.011.1617-4.516-.1617-.401 1.2125 1.104 1.2125 1.807 1.6975 0 .8084-1.907.0809-2.208.7275.702 1.1317 2.408.4042 3.211-.0808 1.305.5658 2.208 1.455 4.215 1.5359.201-.2425.401-.5659.301-.9701.201.3234.702.5659 1.606.485 0 .5659-1.706-.3233-1.405.5659 2.308 1.3742 6.623 0 10.135 1.3742-.903.97-3.613-.6467-4.315.6466-2.408-2.1017-8.229.5659-12.243-.4041-.301.7275-1.505.7275-1.907 1.3741-4.114.2425-9.433.6467-12.845.8084-.501-.0809-.501-.5659-.803-.8084-.501.1617-.702.5659-1.605.3234 0-.7275.201-.8084-1.305-1.0509.602-.485.903-1.0508 1.907-1.1316.1-.6467-1.606-.1617-1.606-.8892.402-1.1317 3.312-.2425 3.312-1.6975-3.412-2.1017 18.866 2.2633 15.856-1.6975-.603.7275-2.71.3233-2.71 1.5358-4.616-.2425-9.232-2.1017-13.046-.6467-.1.6467 0 1.1317 1.004 1.0509-1.706-.3234-4.516-.0809-6.924.1616-.302 1.0509-.101 1.3742-.402 2.5867 1.004.5659 1.305 1.6167 2.308 2.1017-.401.5661-1.204.8081-2.208.9701-.802-.7276.904-.6468.603-1.6168-2.108.4042-3.613 2.6678-6.423 1.2128-5.419 2.344-12.343-.162-18.465.808 2.108.404 4.215.647 6.423.728h-148.5214c0-.485.4014-.97.301-1.455-.2007-.6471-1.00348-.8087-1.00348-1.5363.60208 0 .60208-.3233 1.00348-.4041.1004-.485-.2007-.6467-.2007-1.0509-.5017.0809-.5017-.2425-.90314-.2425-.2007.4042.10036.6467-.4014.8084-.70247 0-.70247-.2425-1.20423 0 .2007-.2425-.10035-.3234-.10035-.5659-.50177.2425-.30106-.3233-.70247-.3233-.10035.2425.30106.1617.2007.4042-.10035-.0809-.10034-.0809-.2007-.1617 0 0 0 0 0-.0808-.2007-.0809-.30106-.1617-.40141 0 .10035 0 .20071.0808.30106.0808-.30106.0808-.50176-.1617-.70247 0 .20071.0808.30106.2425.40141.4042-.40141 0-.70246-.1617-.90317-.485-.30105.2425-.50176 0-.80281.1616 0-.1616-.00001-.3233-.20071-.3233-.10035.2425.2007.3233-.10035.4042-.10035-.485-.40141-.97-.40141-1.455-.10035-.0809-.2007-.0809-.30105-.0809-.10036 0-.10036 0-.20071 0 0 0-.10035 0-.10035-.0808.40141-.5659-.10035-1.0509-.40141-1.455.40141-.1617.90317-.3234 1.30458-.485 0-.485-.20071 0-.60211-.1617.10035-.1617.30105-.2425.60211-.2425-.10035-.4042-.90317.0808-1.10387-.485-.50177.4042-1.20423.1617-1.70599.2425-.20071 0-.30106-.0808-.40141-.1617.10035-.0808.10035-.0808.10035-.1616.50176-.1617 1.00352 0 1.50528.0808.10036-.2425.10036-.4042 0-.5658.30106-.1617.60212-.3234 1.10388-.3234 0-.2425-1.10388-.0808-.50176-.4042-.10035-.2425-.80282-.0808-.90317 0 .2007.0809.40141.3234.2007.4851-.10035-.2426-.2007-.4042-.40141-.5659.80282-.2425 1.40493-.6467 1.50529-1.1317-.60212.3234-1.30458.5659-1.70599 1.0509-.50176-.3234-1.10387-.3234-1.705988-.1617-.301056-.0808.200708-.2425-.100351-.4042-.200705 0-.40141 0-.602114 0 0 .6467-.602112.8084-1.00352 1.1317.401408.3234.602111.8892.702463 1.5359-.100352-.0809-.10035-.2425-.10035-.4042-.702465.4042-1.30458.0808-2.00704-.1617-.10036.3234-.50176.4042-.90317.485v.6467c.90317.1617 1.60563-.3233 2.308097 0-.401407 0-.702467.0808-1.003527.1617-.10035 0-.10035 0-.2007 0-.2007-.0809-.2007.0808-.30106.1616-.10035.0809-.2007.0809-.30105.1617-.50176-.0808-1.10388 0-1.40493 0 .30105.0808.40141.4042.50176.6467-.10035.0808-.10035.1617-.20071.2425-.2007.0808-.4014.2425-.50176.485-.30105-.2425 0-.97-.70246-.8892.2007-.97-.50176-1.2933-.40141-2.0208.10035-.0809.2007-.1617.2007-.4042 1.40493.8083 3.21127-.8084 4.415499-1.3742-.401409-.3233-.000001-.5658-.301059-.97.100354-.1617.301058-.2425.501762-.4042.5017612.0809-.301056.5659.100352.6467.702466-.0808.100352-.8892 1.204227-.8892.200704.0809.200704.2425.501759.2425 0 .3234-.602113.0809-.501759.485 1.003519.485 5.519369-1.1316 3.311619-1.455.40141-.5658 1.20423-.7275 1.70599-1.2125-1.30458-5.2542-3.21127-10.1042-5.92078-14.2268-3.01056 0-4.71655-.0808-7.82747-.2425.10036 1.3742-.2007 1.3742-.30105 1.455-.10036-.4041-.20071-.8892-.30106-1.2125.20071-.3233.20071.2425.50176.0808-.10035-.4041-.2007-.8891-.10035-1.3741 2.40845.0808 4.8169.2425 7.125.3233-1.90669-3.395-4.11444-6.5475-6.52289-9.6192 0-.1617 0-.4042 0-.5659-.10035-.0808-.30105-.0808-.50176-.1617-.10035-.1616-.2007-.2425-.30105-.4041 0-.3234-.20071-.6467-.20071-1.0509.50176 0 .30106.6467.90317.5659-.10035-2.0209.50176-4.0417-1.00352-4.8501.80282-.6466.60211-1.7783.40141-2.7483-.90317-.0809-.40141-1.2125-1.00352-1.5359 0-.3233.30105-.3233.60211-.2425-.20071-.4041-.30106-.7275-.90317-.485.10035-.5658.30106-1.0508 1.00352-1.1317 0-.2425 0-.485 0-.7275.70247.4042 1.00352.8084 1.10387 1.3742-.30105.1617-.50176.7275-.2007.97h.2007c0 .0809 0 .2425-.10035.3234.20071 0 .30106.0808.40141.0808-.10035 0-.30106 0-.30106.1617.60212.8891.10036 2.1017-.30105 2.8292 0 .3233.40141.4041.60211.6466-.40141 1.6167.40141 3.5567.10035 5.0117.50176.8084.70247 1.9401 1.10388 2.6676.50176.0808.10035-.5659.60211-.485.10035-.2425-.10035-.3234-.2007-.4042 0-.0808 0-.0808 0-.1617v-.0808c.10035-.2425.30105.3233.50176 0-.10036-.8084.30105-1.6167.4014-2.5059-.50176-.1616-.50176 0-.80281.1617-.20071 0-.10035-.2425-.10035-.4042.30105-.2425.50176.0809.70246-.1616.10035-.485-.40141-.4042-.2007-.8892.50176-.0808.4014.2425.70246.3233.40141-.2425.90317-.485 1.60564-.485-.10036-.485-.20071-1.0508-.20071-1.6167-.10035.0809-.30106.0809-.50176.0809.10035-.5659.70247-1.0509.30106-1.6975 1.10387-.5659.80281-1.4551 1.00352-2.4251-.40141.1617-.90317.3234-1.10388.6467-.30105 0-.10035-.4042-.50176-.3233-.2007.4041-.10035.7275.20071.97-.60211.2425-.40141.485-.70247.8892-.30105 0-.10035-.2425-.30105-.3234.10035-.5658.80281-1.0508.4014-1.7783.50177-.2425.90317-.97.90317-1.5359.40141-.3233 1.10388-.0808 1.60564-.1616.10035.2425.10035.6466.30106.8891.30105-.1616-.20071-.485.30105-.6466.903171-.0809.301058.3233.602114.7275 0 .1616-.401408.0808-.50176.2425.602113 1.1316 2.007046 2.1825 3.612676 1.455-.60211-.7275-1.906689-1.455-2.6091554-1.8592-.1003514-.2425.3010564-.3233.3010564-.1617-.4014078-1.3741-2.007041-2.91-2.609151-4.2842-.40141-.0808-.40141.1617-.80282.0809-.40141-.4042-.80282-1.5359-1.60564-1.2934 0-.0808-.10035-.2425 0-.3233 0-.4042.30106-.6467.50176-.97.30106.1616.50177.4041.60212.6466.30105-.1616 1.20422-.4041 1.50528-.1616.50176-.2425-.50176-.97 0-1.455-.30106-.485-1.00352-.485-.90317-.9701-.30106 0-.30106.1617-.60211.1617-.10035.4042.40141 1.2125.50176 1.8592-1.10387-.6467-.60211-1.7783-1.70599-2.1017.30106-.0808.50176-.3233.60211-.6467.50177.3234.70247.1617 1.20423 0 .10035-.4041-.30106-.485 0-.7275.30106-.0808.30106.0809.30106.2425.40141-.1616.30105-.4041.10035-.7275-.60211-.0808-.70247.2425-1.20423.2425-.2007 0-.10035-.2425-.30105-.2425.10035-.2425.90317-1.2125 2.60915-.97.10035-.3233-.30105-.2425-.30105-.485.10035-.2425 1.003518-.2425.60211-.6467.702464.2425.50176.8892 1.40493.4851-.50176.6466 1.40493-.0809 1.80634.485.2007-.0809-.10035-.1617 0-.4042.40141.4042.40141.8083 1.10387.7275 0 .1617-.30105.0808-.50176.1617.60211.4041.70247 0 1.20423-.1617.30105 0 0 .5658.30105.6467.50176-.2425.70247.2425 1.10388 0-1.30458-4.7692.60211-10.0235 4.41549-11.9635-1.50528 1.6167-3.41197 2.9909-3.01056 5.5776 1.40493-1.8592 2.20775-4.2034 4.71655-5.2542-4.01409-3.6376-9.13205-6.4668-14.95247-8.2451.50176-.2425 0-.1617-.30106-.4042 1.20423.485 2.910215.485 4.214791.97 0-.1616 0-.2425.200705-.2425 3.110914 1.0509 5.519374 2.5867 7.727114 4.2842h.90317c.40141.8084 1.10385 1.3742 2.00705 2.1017.301 0 0-.5658-.2007-.6467.1003-.1616.5018-.1616.6021-.4041.6021-.0809.3011.5658.6021.7275-.1003.1616-.301.2425-.5017.4041.301.2425.7024.4851.9031.8892.3011 0 .5018-.0808.6021-.2425-.2007.5659 1.3046 2.1017 2.4085 1.94 1.4049.97 1.1039 1.9401 2.4084 2.9101.4014 0-.2007-.2425 0-.485.2007-.3234.7025.5658 1.1039.2425-.1003-.5659-.9032-.485-.8028-1.2125.7025.2425 1.3046.5658 1.8063.97.1004-.5659.5018-1.3742.2007-1.8592.5018-.1617.8029-.4042.8029-.97.301 0 .2007.3233.6021.2425-.9032-.8892.1003-2.5867 0-4.0417-6.6233-1.5359-14.04933-3.3142-17.56166-8.0026 4.11444 3.7992 10.33626 6.1434 17.86266 6.7901-.1003-.485.2007-.6467.2007-1.1317-.5017 0-.6021-.2425-1.2042-.1617-5.5194-1.6975-11.23944-3.3142-14.45071-6.79.40141 0 .70247 0 1.10388.0808 3.61263 2.91 8.22883 5.0117 14.95243 5.4159 0-.3234 0-.5659 0-.8892-3.9137-1.1317-7.9278-2.1017-11.0387-3.88.2007-.0809.5018-.1617.7025-.2425.5017.2425.9031.485 1.5052.7275.4015.6466 1.0036.7275 1.706.6466.2007.0809.3011.0809.5018.1617.6021.0808.9032-.0808 1.4049-.1617.5018.1617-.5017.1617-.301.485 1.0035 0 2.7095.6467 3.9137.7275.7025.0809 2.1074.2425 2.1074-.7275-1.0035.2425-.8028-.6466-2.3081-.4041 1.0035-.3234-.8028-.2425-1.1039-.6467-.301.5658-1.2042 0-1.8063.0808 0 0 0-.0808.1003-.0808h.2007c.1004-.0808.1004-.0808.1004-.1617.2007-.0808.4014-.1616.4014-.4041-.1003 0-.1003 0-.2007-.0809 0 0 0-.0808.1004-.0808 1.9066.8083 3.2112-1.5359 4.4154-.2425.5018-.6467 0-2.1017 1.0036-2.3442.5017.6467.2007 1.2933-.1004 1.94 2.5088.485 3.9137-1.455 3.2113-2.6675.2007-.4042.5017.2425.7024-.0808 0-.2425 0-.485 0-.7275-1.3045 0-1.5052-.8084-2.2077-1.2126-1.4049.9701-5.5194 1.0509-7.4261.3234-2.4084 1.2125-4.7165.6467-8.1285.5658-.40139-.4042-.70244-.8083-1.0035-1.2125.2007-.0808.30105-.1617.50176-.3233.80284.3233 2.40844.7275 3.11094.6466.4014-.485 0-1.3741.1003-1.6975-1.4049.3234-1.1038-.1616-2.6091-.2425 0-.3233.301-.40415.6021-.56581 1.5053 1.21251 3.0106-.24251 4.6162-.24251-.9032.16167-1.6057 1.05082-1.5053 1.45502.7025-.8892 3.9137-.4042 3.412-1.69752.4014-.16167 1.4049-.2425 1.706-.08083-.1004 1.21255-1.5053 1.37415-1.2043 2.50585.4014.1617.8029.3233 1.5053.3233.5018-.485.3011-1.0508-.301-1.3741.2007-.2425.8028-.1617 1.1038-.2425.4014.0808 0 .7275.3011.8083.5018 0 .9032.0808 1.1039-.0808 0-.1617 0-.2425 0-.4042.2007-.4042-.6021-.2425-.7025-.4042.4014-.56581.1004-1.37415.1004-1.77832-.2008.485-.9032.485-1.5053.64667-.3011-.40417-.6021-.72751-1.3046-.88918.5018-.32333 1.9067.08084 1.706-.80834 1.6056.80834 2.3081 0 3.6127.16167.2007-.485-.7025-.2425-1.1039-.32334 0-.40417.5017-.80834 0-1.13167-1.0035.16167-1.5053.80834-3.0106.56584-.301-1.37418 1.5053-.97001 2.6092-1.13168.1003-.72751 1.1038-1.05084.4014-1.94002.301-.32333 1.706.16167 2.007-.2425.3011-.2425-.1003-.485 0-.97001 1.5053-.2425 1.405.64667 2.7095.48501 2.5088-1.53585 4.9173-.40417 7.6268-.40417.6021.16166.6021.56583 1.0035.56583.7025-.32333 2.0071-.32333 2.4085.24251.9031-.24251 2.3081-.64668 3.3116-.32334-.1004.2425-1.3046.32334-.8028.56584.1003.80834 1.706.16167 1.9067-.2425.4014.32333 1.2042.485 1.4049.88917 1.1039-.08083 2.007-.40417 2.8099-.72751.6021.48501 1.5052 0 1.6056.64668.4014-.16167.301-.56584.9032-.56584 5.419.97001 10.5369 1.45501 14.551.64667.7025.2425-.4014.16167-.2007.56584 1.0035-.16167 2.5088-.32334 3.5123.2425.3011-.40417 1.3046-.32333 1.706-.64667.6021.64667 1.706.88917 2.9102.485.4015.08084 0 .64668.5018.56584.8028-.56584 1.3046.2425 2.6092.08084.5017-.32334-.4015-.40417-.1004-.97001 1.2042-.80834 1.4049.7275 2.4084.88917.7025-.40417.4015-.7275 0-1.21251 1.3046.08084 1.8064.80834 2.2078 1.45501.5018 0 .7025-.32333.9032-.485 1.5053.88917 3.2112.40417 5.0176.485.2007-.32333.2007-.80834.6021-.97001.9032.08084 1.5053-.2425 2.4084-.16166-.1003.64667-1.3045.32333-1.2042 1.05084 3.9137-.08083 7.8275.72751 9.5335-1.05084 1.2042.88917 3.4119.80834 5.3186.56584.201-1.05085 2.408-.48501 3.011-1.13168.602-.08083.602.2425.602.64667.702-.16167 1.304-.2425 1.003-.97001 1.104.08084 2.007.40417 2.208 1.21251 1.405-.08083 2.408.40417 3.312 0-.301-.64667.2-.32333.2-.97001 1.004-.16166.602.72751 1.405.72751.703.08084.402-.64667.903-.64667.502.16167 1.004.2425 1.104.7275.301-.485 1.004.00001 1.506-.08083 0 0 .1-.40417.2-.40417.301 0 .602.48501.903.56584 1.004.32334 1.506-.32334 1.606.485.201.97001-1.505.80834-2.509 1.69752 0 .32334.301.40417.201.80834-.702.32334-1.204.64667-1.706 1.05084-.1-.08083-.301-.16167-.502-.16167-.401-.2425.703-.485.803-.80834-.1-.64667-1.305-1.21251-2.208-.88917 0 .64667 1.004-.08084 1.104.32333.101.56584-.903.16167-1.304.24251-.402-.08084 0-.64668-.502-.56584-.703-.16167-.201.56584-.602.64667-.502 0-1.205 0-1.506-.16167.101-.56584 1.104-.485 1.706-.64667-.802-1.05084-4.114-1.37418-4.415.2425-.502 0-1.204 0-1.505-.16167 0-.40417.702-.08083.602-.56583-.201-.48501-1.405-.80834-2.007-.48501-.201.48501.401.40417.301.80834-.201.16167-.602-.64667-.903.08084-.402-.08084-.101-.64668-.502-.72751-1.706.72751-4.014.08083-5.5195-.485-.7025 0-.8028.485-1.3046.64667-3.0106-.48501-6.9243.40417-9.6338-.08084-1.6057.64668-3.8134.72751-5.2183 1.21251-.3011.72751.9031.32334.7024.88918.7025.16167.6022-.40417 1.3046-.2425.5018.16167-.6021.32333 0 .56584 1.6057-.08084 3.1109.32333 4.8169.56583.3011-.64667.1004-.64667-.301-.97.1003-.16167.5017-.08084.7024-.08084.4014.32334-.2007.56584.3011.80834.9032.16167.8028-.40417 1.706-.2425.1003.56584-.5018.485-.6021.80834.4014.485.8028 1.05085.9031 1.85915.9032-.1616 2.0071-.2425 3.1109-.1616-.1003-.1617-.2007-.3234-.2007-.5659 1.0036.1617 2.0071.8084 3.3117.4042 1.0035 1.2933 2.9099.97 4.6159 1.2933-.301-.485-.502-1.0508-1.204-1.2933 0-.4042.702-.0808.602-.5658-.803-.1617-1.405-.1617-1.907.2425-.401-.72755-.9027-.5659-1.6052-.88921 0-.32334.5018-.16167.6021-.40417 1.1041.16166 2.1071.96998 3.5121.56583.803 1.05085 4.315 1.69755 5.018.16165.602.5659 1.605.1617 2.408.0809-.1-.24255-.301-.32338-.301-.56588 1.405-.2425 2.609.40418 3.914.40418.803 0 1.405-.40418 2.208-.32335 1.204.08084 2.007.88915 3.311.80835.502-.0808.803-.56585 1.305-.4042-.602-.16165-.703-.64665-1.104-.96999-.903-.08083-1.907 0-2.609-.2425.602-.80834 2.709-.16167 3.512.08084.402-.16167-.1-.80834-.1-1.13168-.502 0-1.004 0-1.505-.08083.1-.88918 2.007-.40418 3.211-.48501-.201-.80834 1.003-1.45501-.1-1.77835.2-.56584 1.404-.2425 1.705-.64667 0-.80834-1.103-.08083-1.605-.48501 1.003-.56583 1.806.32334 3.01 0 .703.16167-.602.48501 0 .56584.603-.16166 1.205-.2425 1.907-.32333.1-.40417-.702-.16167-.702-.40417.301-.40417 1.003.08083 1.505.08083 1.204-1.21251 3.312.48501 5.419-.64667.301.08083 0 .40417.401.40417.101.485-1.104 0-.903.56584 2.108.16167 2.81-1.13168 4.516-.80834-1.104.2425-1.505 1.29334-2.81 1.05084 1.204.64667 6.924 1.45501 4.817-.64667-.803-.48501-.401.80834-1.505.485-.101-.56584 0-1.21251-1.104-1.45501.301-.56584 1.003-.72751 1.505-1.05084.903.16166 1.004.7275 1.204 1.29334.502 0 .502-.485.201-.72751 1.706-.32333 4.315-.64667 5.52.08084 1.003-1.05084 2.107-1.21251 4.114-1.29335.1.56584-1.305-.08083-1.104.48501.602.485 1.606-.48501 2.007.2425-.602.56584-1.907.485-2.107 1.29334 1.706.64668 1.505-1.37417 3.713-.80834 3.311-.7275 7.727-.08083 11.841.24251.402-.24251.502-.64668 1.104-.64668-.301.64668-.301.56584.101 1.13168.702 0 1.003-.32334 1.706-.32334.1-.40417-.502-.88917.2-.97-.2.97 2.308.97 4.014 1.13167.101-.32333.201-.56584.602-.64667.803.16167 1.205.64667 2.409.485-.201-.485.301-.32333.401-.56583 1.506 1.29334 4.516.2425 5.72 1.13167-1.906.16167-3.913.2425-5.017.97001.401.97001 2.509-.08083 3.512.56584-.903.32334-.301 1.21251.1 1.53585-.2.32333-1.003.64667-.602.97001 1.305.2425 1.706-.24251 2.208-.64668 2.91.32334 5.519-.08083 8.028-.7275-1.304-1.69752-3.813.40417-6.322-.08084-.401-.08083 0-.7275-.301-.80834-.502 0-1.004 0-1.505-.08083 2.408-1.37418 5.519-.72751 8.931-.64668.301.40418-.401.48501.1.97001 1.606.16167 4.014.48501 5.72.16167-.602-.2425-1.103-1.21251.201-1.21251.201.48501.602.88918.703 1.45501.903-.2425 1.003.48501 1.605.64668 1.004.16166 2.208-.48501 3.011-.48501.301 0 .502.40417.702.40417.903.2425 2.108-.16167 3.111.08084.301-.88918-.803-.80834-1.204-1.13168 0-.56584 1.405-.08083 1.505-.485-.501-.80835-1.706-.24251-2.207.08083-.904-.40417-1.506-1.05084-2.911-1.05084-.2.16166-.301.40417-.2.7275-.201-.2425-.502-.40417-1.104-.32333 0-.40417 1.204.2425.903-.40417-1.606-.88918-4.616 0-7.025-.97001.602-.64667 2.509.485 3.011-.48501 1.605 1.45502 5.72-.40417 8.53.32334.2-.485 1.104-.485 1.304-.88917 2.81-.16167 6.523-.40417 8.932-.56584.401.08083.401.40417.501.56584.301-.08084.502-.40417 1.104-.24251 0 .48501-.2.56584.903.72751-.401.32334-.602.72751-1.304.80834 0 .485 1.104.08083 1.104.56584-.301.80834-2.308.16167-2.308 1.21251 2.408 1.45501 7.928-1.53585 9.935 1.13168.401-.48501 1.906-.24251 1.906-1.05085 3.212.16167 6.423 1.45502 9.032.40417.1-.485 0-.80834-.703-.7275 1.205.2425 3.111.08083 4.817-.08084.201-.7275.101-.97001.301-1.77835-.702-.40417-.903-1.13167-1.605-1.45501 0-.40417.2-.56584.401-.64667zm267.74 82.61239c-.101.1617-.101.2425-.201.3233.301.1617.301.485.201.8084-1.205-.5659-.903-.97 0-1.1317zm-7.727 6.8709c0-.2425.1-.5658.2-.8083.201 0 .402.0808.402.2425-.301.1616-.502.4041-.602.5658zm-106.173 12.1255h-1.003c.2-.081.401-.243.501-.405 0 .243.301.324.502.405zm-4.215 0h-1.906c.301-.081.702-.243 1.003-.324.301.081.602.243.903.324zm-11.44 0h-9.232c2.91-.162 6.021-.162 9.232 0zm-91.922 0h-24.687c.1-.647.903-.809 1.405-1.132 2.609 1.293 5.218-.404 7.426.889 3.613-1.293 9.935.323 13.447-1.374 1.806 1.617 6.523-.243 9.634.485-1.204.242-4.014 1.132-4.516.081-.903.404-1.806.727-2.709 1.051zm-25.49 0h-2.308c-.602-.162-1.204-.485-1.405-.728 1.405.243 3.713-.727 3.713.728zm-62.118 0h-15.454c.502 0 1.003-.081 1.505-.162.201-.566-.502-.404-.502-.808 2.509-.405 4.316-.566 6.925-.566.803.566-.703.727 0 1.212 2.408.162 4.917.243 7.526.324zm-20.873 0h-9.935c3.211-.081 6.523-.162 9.935 0zm-172.80653-89.322c-.10036-.1617-.10036-.2425-.20071-.4042.20071-.0808.40141-.1617.60211-.1617.10036.2425.20071.4042.30106.5659-.2007 0-.50176 0-.70246 0zm-.80282-1.6167c-.20071-.485-.40141-.97-.50176-1.455.10035-.0808.2007-.0808.4014-.0808.40141.5658.50177 1.5358 1.10388 1.8591-.40141-.0808-.70246-.2425-1.00352-.3233zm7.62676 5.4159c-.10035-.0808-.30105-.2425-.40141-.3234l-.10035-.0808c0-.0808 0-.0808 0-.1617.20071.0809.50176 0 .70247 0 .20068.1617.40138.3234.60208.4042-.2007.0809-.50173.1617-.80279.1617zm-1.30458-1.455c-.10035-.0809-.2007-.2425-.2007-.3234.10035.0809.10035.2425.2007.3234zm-1.90669-2.1825c-.2007-.2425-.4014-.4851-.60211-.7276h.60211c.20071.2425.40141.5659.60211.8084-.2007 0-.4014 0-.60211-.0808zm-1.60563-2.4251c-.10035-.1616-.10035-.3233-.20071-.485.20071 0 .30106.0809.50177.1617 0 .0808.10035.1617.10035.2425-.20071-.0808-.30106 0-.40141.0808zm2.00704-2.34416c-.10035-.32333-.2007-.64667-.30106-1.05084.60212.08083 1.20423.32334 1.60564.56584-.40141.16167-.90317.32334-1.30458.485zm1.30458-4.60754c.2007-.08083.40141-.16166.80282-.08083 0-.48501.2007-.80834.50176-1.13168-.20071-.08083-.50176-.08083-.80282-.16167.30106 0 .60211.08084.90317.16167-.20071.40417-.2007.56584.2007.80834-.30105 0-.4014.16167-.4014.40417-.40141 0-.80282 0-1.20423 0zm-4.11444-1.37418s-.10035 0-.10035.08084c-.10035-.08084-.10035-.16167-.2007-.2425h.10035c.10035 0 .10035.08083.2007.16166zm232.51631 1.45502c-.301-.64668-1.506-.72751-2.208-.32334-.803-.485-1.505-1.13168-2.91-1.21251 2.408-.2425 5.017-.485 6.322.485 0 .64668-.502.97001-1.204 1.05085zm-7.426.56583c.1-.485.903-.32333 1.505-.40417v.40417c-.602.08084-1.104 0-1.505 0zm-11.441-2.91002c-.602.08083-.602-.2425-.702-.40417.201-.08083.502-.16167.903-.08083 0 .2425 0 .40417-.201.485zm-25.89 3.63753c-.201-.16167-.201-.485-.201-.80834.702-.08083.803-.16167 1.104.32334-.301.08083-.301.56584-.903.485zm-2.208-.08083c-.101-.88918.702-.97001 1.003-1.53585 0 .48501.703.56584.502 1.13168-.502.16167-.803.485-1.505.40417zm-.502-2.50586c0-.7275 1.806-.40417 1.806.08084-.501.32333-1.103-.16167-1.806-.08084zm-2.208.08084c.602.16166 2.007-.24251 2.007.32333-.602-.16167-2.007.2425-2.007-.32333zm-16.959-.88918c-.502.16167-3.111 0-.602 0 .301-.40417.702-.08083.602 0zm-34.521.64667c-.502-.08083-2.308.08084-3.011-.08083-.1-.40417.301-.32334.201-.72751.903-.08083 1.706-.2425 2.609-.32333-.602.56584.602.7275.201 1.13167zm-11.139 1.05085c-.904.08083-.904-.40417-1.305-.56584.401.08083 1.305-.16167 1.505.16167-.301 0-.301.16166-.2.40417zm-3.814 1.37418c-.201-.24251-.502-.48501-.301-.97001-.602-.24251-1.806 0-2.007-.48501.903-.16167 2.81-.64667 3.111.2425-.201.16167-.702 0-.602.40417 0 .32334.502.32334.903.32334v.40417c-.401 0-.502.2425-1.104.08084zm-2.81-4.12254c.602.08083 1.606-.161669 1.807.16167-.301.2425-1.706.32333-1.807-.16167zm-16.758 1.94002c-.603.08083-.502-.40417-.703-.56584.301.08083 1.104-.16167 1.104.16167-.301 0-.201.32333-.401.40417zm-4.5163 6.95172c.5017-.08083.8028-.32333 1.5052-.2425 0 .16167.3011.2425.4015.40415-.9032.0809-1.405.3234-1.9067-.16165zm-.9032-.32333c.1004-.2425-.2007-.32334-.2007-.56584h.9032c.1003.485-.4014.485-.7025.56584zm-2.007-5.49672c.6021 0 .5017-.56584 1.3045-.40417.3011.72751-1.0035.72751-1.3045.40417zm-4.7166.40417c.4014-.56584 2.7095-.97001 3.5123-.32333-1.0035.2425-2.3081.7275-3.5123.32333zm-3.6127 3.5567c-.1003-.97001 2.7095-.2425 3.0106-.16167-.7025-.08083-2.2078-.16167-3.0106.16167zm1.5053-4.60754c.4014.08083 1.2042-.16167 1.3046.16167-.4014.2425-1.2042.16167-1.3046-.16167zm-40.1408-1.69751h.7024v.56583c-.6021 0-.8028-.16166-.7024-.56583zm-23.3821 13.25678c.2007 0 .3011-.1617.4014-.2425.4014.0808.9032.1617.9032.5658-.5018.1617-1.1039.0809-1.3046-.3233zm-3.713-10.18509c.301-.40417.9031-.56584.2007-.97001.9031 0 1.8063-.80834 2.007.2425-.5017.32334-1.1039 1.29335-2.2077.72751zm-2.4085.08083c1.0035.16167 1.405.88918 2.4085 1.05085-1.0035.485-3.1109 0-2.4085-1.05085zm-.9031 11.23596c0-.485 0-.8892.1003-1.3742.7025.3233 1.5053.485 1.8063 1.0508-1.0035-.1616-1.5052.0809-1.9066.3234zm-.6022-5.9817c.3011 0 .2007-.32338.4014-.40421.5018 0 .9032 0 .9032.32331-.4014-.0808-.9032.5659-1.3046.0809zm-7.72708.1616c.50176 0 .30106-.64665.90317-.56581.60211.16166.50176.80831.90317 1.13171-1.00352.1616-1.40493-.2425-1.80634-.5659zm488.71528.6467c-.101-.0808-.301-.0808-.402-.1617h.301c.101.0809.101.0809.101.1617zm-42.349-.2425c.401 0 .402.2425.803.1617v1.6975c-.201-.3234-.703-.4042-1.104-.485.702-.485-.201-1.0509.301-1.3742zm31.009 0c.201.6467 1.505 1.0508.803 1.8592-.803-.1617-.803-.97-.803-1.8592zm-34.22.3233h.602c-.201.485.301.4042.201.8892-.301-.2425-.904-.2425-.803-.8892zm5.118 0c.501.8892-.803 2.3442 0 0zm-16.458 1.2125c.903-.1616.702 2.2634-.201 2.1826-.2-1.0509-.1-1.2934.201-2.1826zm12.845.1617c.803 0 .602.8892 1.104 1.2125-.1.2425-.703.1617-.401.6467-1.205-.2425-.201-1.2125-.703-1.8592zm-3.412 1.8592c-.301 0-.803-.0808-.803.1617-.301-.0809-.401-.2425-.401-.485.301-.3234 1.304-.2425 1.204.3233zm19.468.6467c.101.4041.502.8891-.2 1.5358-.402-.6467-1.405-.8083-2.308-1.0508-.201-.8084.2-.485-.201-1.3742 1.204.0808 1.606.7275 2.91.6467.1.4041-.201.4041-.201.2425zm7.427.5658c-.803.8083.501 1.455 0 2.5867-1.004-.2425-2.509-.1617-2.309-1.3742.803 0 .602.8892 1.706.6467 0-1.0509-1.605-.8892-1.505-2.0209.602-.2425 1.405-.2425 2.108.1617zm-32.314.8083c1.204 0 .803 1.3742.602 2.0209-.401-.0808-.401-.485-1.104-.3233.502-.0809.803-.7275 0-1.3742.402.0808.502-.0809.502-.3234zm14.15 0c-.502.8084.702 1.3742 0 2.1826-.201 0-.201-.2425-.201-.3234-.201.0809-.201.4042-.602.3234 0-1.0509-1.104-2.0209.803-2.1826zm22.579 0c1.505-.0808 2.208.4042 2.91.8892.201.5659-.702.2425-1.104.3234.101-.3234-.1-.485-.2-.6467-.602.0808-.703.4042-1.305.485 0-.4042-.401-.485-.301-1.0509zm-8.43.485c.703.3234.201 1.1317-.802 1.0509-.301-.8083.702-.5658.802-1.0509zm1.004.2426c.602-.1617.401.4041.401.6466-.2 0-.401 0-.602 0-.1-.3233.201-.485.201-.6466zm-3.111.1616c.1.8084.502 2.1017.401 3.5567-.802-.8892-.903-2.5867-.401-3.5567zm14.551.8084c.502 0 .201.7275 1.104.485.301.7275 0 .8891-.602 1.2125-.803-.0809-1.405-.3234-2.108-.485 0-.8084.803.0808 1.506-.1617.702-.4042-.402-.6467.1-1.0508zm-51.28.3233c.703.2425 1.004.8892.402 1.3742-.201 0-.201-.1617-.402-.1617 0-.4042 0-.8083 0-1.2125zm38.836.4042v.8891c-.602-.4041-.602-.7275-1.304-.6466.301-.5659.702-.4042 1.304-.2425zm33.518 0h.602v.8891c-.803-.1616-.702.5659-1.304.1617.301-.7275 1.304-.1617.702-1.0508zm-67.738.3233c.903 0 .602 1.0508.602 1.6975-.702-.1617-.501-1.0508-.602-1.6975zm34.02.97c.602.8084 1.706 1.2934 2.509 1.8592-1.205.1617-1.104 2.0208-2.71 1.3742.201-.8892.301-2.5059.201-3.2334zm7.125.4042h.802c-.2 1.0508.603 1.2125.803 1.8592-.702 0-.702.5658-1.104.8891-.702-.0808-.2-.5658.201-.6466-1.003-.8084.402-1.5359-.702-2.1017zm-1.506 1.5358c.904.0809 1.506.97 1.104 1.5359-.702-.2425-1.605-.3234-1.706-1.0509.502 0 .703-.1616.602-.485zm-27.396.485c.602 0 .502.5659.602 1.0509-.602-.0809-1.103-.6467-.602-1.0509zm44.155.8084c.703 1.0508 1.807 1.7783 3.613 2.0208.201.485-.301.4042-.201.8892-1.405-.5658-2.91-.8892-4.817-1.3742.301-.7275-.301-.7275-.401-1.2125.401-.3233 1.104 0 1.104.485.301-.0808.502-.4042.702-.8083zm-55.394.8891c.401.2426 1.104.2426 1.104.8892-.301.1617-.402.485-1.104.3234 0-.4042 0-.8084 0-1.2126zm61.917.3234c.301.0808.703.8892.201 1.0508-.903 0-.201-.7275-.201-1.0508zm-62.319.1617c.502.3233.101 1.2933 0 1.6975-.903-.2425-1.103-.6467-.802-1.5359.602.1617.2.2425.2.6467.301-.2425.301-.0808.602 0 0-.4042-.401-.485 0-.8083zm51.782.5658c.402.2425.402.8083 1.104.8892-.301.4041-1.104-.1617-1.505-.1617-.201-.5658.401-.4042.401-.7275zm-19.468.485c-.402.4042-1.004.6467-.402 1.3742-.401.0808-.903-.485-1.103 0-.402-.0809-.603-.485-.603-.8892.803.6467 1.004-1.3742 2.108-.485zm28.299 2.0208c.803-.6466 0-.8083 0-1.6975 1.004 0 .401 1.2125 1.104 1.3742-.1.3233-.602.3233-1.104.3233zm-17.762-1.0508c-.602.485-.101 1.8592-1.305 1.8592-.1-.7275-.803-1.0509-.803-1.8592.502-.3233 1.606-.0808 2.108 0zm19.267 0c.803.0808.603.8083 1.305 1.0508-.702.2425-.301.8084-.201 1.3742-.401 0-.702 0-1.104 0-.301-.3233-.2-.8891-.602-1.0508.201-.4042.402-.8892.602-1.3742zm-4.014.4042c.602-.1617.402.485 1.104.3233-.301.2425-.201.7275.201.8892 0 .4042-.703.0808-.803 0-.201 0-.201.2425-.201.3233-1.003-.2425-.1-.8892-.301-1.5358zm-18.163 1.2933c.702.0809 1.103.485 1.304 1.0509-.903 0-1.304-.3234-1.304-1.0509zm21.575 1.3742c.803.3233 1.004 1.1317 2.108 1.2125-.803 1.2125-2.208-.1617-2.108-1.2125zm-65.329 1.2125c.401.0808.502.3233.401.6467-.2 0-.401 0-.602 0-.1-.3234.201-.4042.201-.6467zm64.426 0h.602c.101.8083.602.7275.201 1.5359-.502-.2425-.502-1.0509-.803-1.5359zm-26.995.3233c.301.3234.803-.2425 1.305.1617-.401.3233-1.405.6467-1.305-.1617zm21.275.1617c.803.5658.803 1.94.803 3.7184-.903-.5659-1.606-1.455-2.308-2.1825.502-.0809 1.003-.2425 1.706-.1617-.101-.4042-.301-.7275-.201-1.3742zm-19.368.5659c.602-.0809 1.004.8083 1.505.3233.803.3233 0 1.0508-.401 1.3742-2.007-.8892-.301 1.8592-2.308 1.0508.401-.8892.502-2.0208 1.204-2.7483zm-38.435.6466c.201.3234 0 1.3742-.803 1.3742-.1-.7275-.2-1.455.803-1.3742zm16.057 1.0509c.2.1616.501.1616.802.1616.201.6467-.401.5659-.602.8892-.602-.0808-.501-.8892-.2-1.0508zm25.088.3233c.401.1617.2.8892.401 1.2125-.401 0-.301-.485-.803-.3233-.201-.5659.301-.5659.402-.8892zm1.103 0c1.305-.0808.302 1.0508 1.104 1.2125-.1.4042-1.103.1617-1.304 0 .301-.485-.301-.7275.2-1.2125zm-32.313 1.3742c.1-.2425.301-.4042.402-.6467.702 0 .401.8083-.402.6467zm40.041-.3234c-.502.6467.2.485.2 1.2126-.301-.2425-.602-.0809-.803.1616-.702-.0808-.301-.97-.602-1.3742.402-.3233.502.0809 1.205 0zm3.612.485h.602c-.1.6467.602.6467.402 1.3742.702-.2425 1.304-.0808 1.304.6467-.401 0-.401.2425-.802.1617.1-1.0509-2.007-.4042-1.506-2.1826zm-50.678.6467c.502.1617.803.485 1.104.8892-.903-.1617-1.104.4042-1.304.8892-.402-.0809-.502-.3234-.402-.6467 1.205 0 .101-.6467.602-1.1317zm1.706 0c.301.3234.502 1.2125.201 1.5359-.602-.4042-1.003-.3234-1.304.3233-.603-.7275 1.304-.8892 1.103-1.8592zm47.266 1.2125c-.401.3234-.301 0-.803 0-.2-.6466 1.004-.6466.803 0zm-46.162.6467c.502.2425.101 1.2125.201 1.6975-.803.0809-.401-1.455-.201-1.6975zm36.227 1.3742c1.305.3233.402 1.455 1.104 2.1825-1.304-.7275-.602.4042-2.107.3233-.201-.2425.1-1.0508.803-1.0508-.402-.3233.1-.97.2-1.455zm15.455.1617c.903-.2426 2.207.7275 2.709 1.3741-1.204.485-1.907-.8891-2.709-1.3741zm-17.06.1616c-.201.485-.502 1.2934-1.104 1.8592 0-.7275.301-1.1317.401-1.6975.301.0808.602.0808.703-.1617zm-14.351.4042c.502.2425.904.485 1.305.8892-.401.4041-.602.8891-1.104 1.2125-1.003-.7275.301-1.455-.201-2.1017zm-20.07.97c1.004.0808-.1 1.0508.401 1.3742-1.505-.0809-.301-.5659-.401-1.3742zm53.187.5658c.501.0809 1.104.1617 1.104.6467-.703.0808-1.104-.1617-1.104-.6467zm-31.912.1617c.602-.0808.501.3233.602.6467-.703.1616-1.004-.3234-.602-.6467zm13.347.3233h.401c0 .1617.1.1617.201.1617v.3233c-.201 0-.201.0809-.201.1617-.1 0-.301 0-.401 0 0-.1617-.101-.1617-.201-.1617 0-.0808 0-.2425 0-.3233.1 0 .201-.0808.201-.1617zm-31.712.485c.703.0809.502.6467.402 1.0509-.603-.4042-.101-.485-.402-1.0509zm33.417 1.5359c.402.3233 1.004.97.603 1.3742-.703-.0809-.301-.97-.603-1.3742zm20.673.5658c.401-.485 1.305.1617 1.305.6467-1.004.1617-.703-.6467-1.305-.6467zm-28.299.3234c.702-.1617.702.2425 1.104.3233-.703.3233.2 1.455-.602 1.8592-.603-.2425.2-1.3742-.502-2.1825zm14.551 0h.803c0 .3233.1.5658.401.6466-.301.4042-1.204-.1616-1.204-.6466zm-9.935 1.6975c.301.7275-.502.5658-.401 1.0508-.201-.0808-.101-.3233-.402-.3233 0-.485.301-.7275.803-.7275zm18.766.3233c.602 0 .602 1.0509-.201.8892 0-.4042.1-.7275.201-.8892zm-36.528 2.0209h1.304c.201.4041.703.97.201 1.3741-1.204.0809-1.305-.6466-1.505-1.3741zm4.716 3.0717c.803-.0809.602.6466.803 1.0508-.803.0808-1.204-.1617-1.706-.3233.1-.1617.201-.2425.201-.485.301-.0809.602 0 .702-.2425zm2.71.8891c.602-.0808.702.2425.602.6467-.301 0-.602 0-.803 0-.1-.3233.1-.485.201-.6467zm28.901 1.8592c.401.4042 1.305.4042 1.505 1.0509-.2 0-.2.2425-.2.3233-.803.0808-.803-.4042-1.506-.3233 0-.485 0-.8892.201-1.0509zm-14.551 23.6844c.1.0808.301.0808.401.1617 0 .1616-.2.3233-.301.4041.201.3234.301.6467.402.97h.501c-.1.0809-.2.1617-.301.1617.201.4042.603.5659 1.305.2425-.602-1.1317-.602-.97-.201-2.1825-.802-.485-1.204 0-1.806.2425zm-.903 1.6975c-.201 0-.402 0-.602-.0808 0-.1617 0-.3234 0-.485-.201.1616-.301.4041-.703.4041.201.6467.502.0809 1.305.2425zm-.703-1.455c0-.2425 0-.5658-.1-.8083-.502 0-.903.1616-1.104.4041 0 .4042.602.4042 1.204.4042zm-43.954-20.3702c1.204 0 .903 1.1317 0 1.2125 0-.4041 0-.8083 0-1.2125zm0 2.3442c.602.3233.903 1.94 0 2.0209 0-.6467 0-1.2934 0-2.0209zm60.111 2.1017c-.201-.1617-.401-.3233-.602-.485.1-.3234.602-.485 1.104-.485.1.8892.1 2.1017 1.706 2.1825-1.004 1.0508-2.609-.8083-3.412-1.5358.401.0808.702.2425 1.204.3233zm6.322-.7275c.301.2425.301.7275 1.104.6467.201.485-.401.3233-.401.6466-.602 0-.301-.8083-1.104-.6466.1-.1617.301-.4042.401-.6467zm-7.325 2.2633c1.103-.6466 1.404.8892 1.906 1.3742-1.204-.0808-1.104-1.1317-1.906-1.3742zm6.121 0c.502.4042 1.104.6467 1.706 1.0509-.602.97-1.305-.3234-2.107-.3234-.201-.5658.401-.4041.401-.7275zm0 2.3442c-.301-.0808-.502-.2425-.803-.3233.101-.8892 1.506-.4042.803.3233zm-1.706 1.0509c.502-.0809.803 0 1.104.1616-.201.3234-1.204.485-1.104-.1616zm6.322.6466c.101.4042-.602.1617-.602.485-.702-.2425.201-.97.602-.485zm-66.333 2.0209c.201.2425 1.004.97.803 0 .301.0808.402.4042.402.6467-.402.1616-.803.3233-1.305.3233.1-.5658-.1-.4042.1-.97zm55.194.4042c1.305 0 2.71 1.455 4.215 1.8591 0 .485.401.3234 0 .6467 1.505.97 3.914.97 5.118 2.5867-3.312-.8083-7.627-3.1525-9.333-5.0925zm-53.287 0c.301.6466.301.5658 1.104.6466 0 .485-1.004.4042-1.305.1617.502-.3233-.2-.5658.201-.8083zm-5.419.3233c.703.1617.402 1.3742 0 1.8592 0-.6467 0-1.2125 0-1.8592zm30.106 1.2125c.803.0808.502 1.0509.803 1.5359-.603-.2425-.502-.9701-.803-1.5359zm39.137 1.6975c.803.0809 1.004.6467 1.706.8892-.502.2425-1.605-.4042-1.706-.8892zm-40.341.8084c.1.485-1.506.485-1.706.1616.1-.8083 1.003.0809 1.706-.1616zm-13.949 2.0208c-.101.5659-1.004.2425-1.506.1617.402-.485.803-.1617 1.506-.1617zm28.5-61.7572c.802-.0808 1.304-.3233 1.906.1617-.401.6466.301 1.2125-.2 1.8592.602-.2425.501-.8892.602-1.5359.401.2425.301.8892.602 1.2125 0 .485-.402.6467-.602 1.0509.501.4041.803 1.0508.602 2.0208-1.104 0-1.204-.8083-1.305-1.6975-.301.8892-1.204.7275-2.107.8892-.201.6466.502.485.401 1.0508-1.706.3233-2.107-1.0508-1.906-1.6975 1.605.4042 1.304-.8083 2.308-.8892.2-.97-.502-1.3742-.301-2.425zm-18.164 2.5867c.1-.2425.301-.4042.401-.6467.301.0809.201.4042.201.6467.502-.0808.1-.8083.201-1.2125.2 0 .2.2425.2.3233.402.1617.703.485 1.104.6467 0-.485-.803-.7275-.2-1.2125.602 1.0508 1.204 2.1017 1.505 3.395.903.1617 1.806-1.5358 2.308-.485-.301.0808-.401-.1617-.602-.1617.201.5659.1.485-.201.8892-1.405-.1617-1.606.6467-1.706 1.5359.703 0 .402-.8084 1.305-.6467.2 1.1317 1.104.0808 1.706 0 .2 1.0508-1.205 2.7483 1.104 3.2333-1.807.4042-.803 2.6676-2.911 3.2334.101.485 1.004.3233 1.305.6467.201.7275-.1 1.1317-.402 1.5358-.802.1617-1.304-1.6167-1.705-.6466-.301-.1617-.302-.5659-.402-.8892-.502 0-.702.3233-1.104.485.201.2425.301-.0808.803.1617.201.5658-.702.2425-.602.6466-1.405-.6466-3.713.1617-2.509 1.6975.402.5659 1.204-.2425 1.104.6467 1.405-.5658 2.81-1.1317 3.813-2.0208.502 0 .703.97-.2.6466.602 1.0509 1.204 0 1.906.6467.402-.0808-.301-.485.402-.485 0-.1617-.301-.1617-.402-.1617-.1-.5658.602-.485.602-.8891.402.0808 0 .8083.803.485.201.485-.2.6466-.2 1.0508s.702 0 .602-.1617c.501.7275-.903 1.2934-.602 2.0209-.703-.5658-1.004-.1617-1.706.1617 1.003.5658-.502 1.94.401 2.3441-.502-.1616-.602.4851-1.104.8892-.702.2425-.2-.5658-.803-.3233 0 1.1317-1.806 2.7483-2.107 3.5567-.201.4042-1.405 0-1.305.6467-1.103-.6467-2.709-1.4551-2.91-2.1826-.301.4042-1.104.3234-1.304.8892-.201-.1617-.703-.1617-1.305-.1617-.401-1.3741-1.505-1.6975-.803-3.2333.301.2425.301.0808.602 0-.2-.5659-.2-.3234.201-.6467-.201-.3233-1.003-.0808-1.104-.485.101-.5658.703-.8083 1.505-.8892 0 .2425-.1.6467.201.6467.703-.4042-.1-1.1317-.201-1.5358-.501 0-.702.2425-.802.485-.803-.3234-1.305-.485-1.907-.485.301-.485.702-.485 1.305-.3234.1-1.1317-1.606-.8892-2.509-.6467 0-.5658-.502-.7275-1.305-.6466-.401-.8892-.502-1.94-.803-2.9101.803-.3233.803 1.4551 1.706 1.6976 1.004-.485.101-1.8592 1.506-1.6976-.201-.5658-.502 0-.803-.3233.1-.3233.602-.485 1.104-.485-.301 1.2125.702-1.2125 1.706-1.0508-.502-.5659.903-.7275.602-1.6976.1.0809 1.003.4042 1.104 0 .602.2426-.502.4851-.603.6467 0 .4042.402.485.201 1.0509.803-.1617 1.004-.8084 2.108-.6467-.201-.485-.302-.1617-.803-.1617 0-.5658.803-.485.803-1.0508-.302-.485-.904.1617-1.506 0 0-.5659.301-1.455-.803-1.2125-.301-.7275.502-.5659.402-1.0509-.1-.0808-1.706.8084-2.509.1617.602-.5658-.301-1.3742.803-1.5359-.602.4851.201.4042.201.8892-.101-.7275 1.204-2.1825 2.107-2.0208-.301-.7275-.502-1.2934 0-2.0209 1.706 0 .502 2.0209 1.305 2.3442 1.003-.485 1.605-1.2933 2.709-1.6975-.401-.1617-.702-.3233-1.204-.2425zm22.378-.1617c.201 0 .101.1617 0 .1617.201.4042.603.6467.402 1.3742-.602.1616-.602.1616-1.305 0 .201-.5659.602-.7275.201-1.3742.401 0 .702 0 .702-.1617zm-13.949 9.7001c-1.204-1.2125 0-2.7483-1.103-4.0417.1-.485.903-.4042 1.103-.8892-.602-.1616-1.103-1.3741.201-1.2125-.201.485.402.485.201 1.0509.702-.3234.1-.7275 0-1.2125.602.5658.502-.7276 1.104-.1617 0-.5659-.402-.7275-.201-1.3742 1.806 1.7784 2.409 4.0417.803 6.3051-.402 0-.502-.1617-.602-.3234-.402.6467-.402.6467-1.506.485.703.3234 1.004.8892 1.907 1.0509-.903.1616-.301.5658-.602 1.0508-.702-.5658-2.007-.3233-2.107.485-.602-.1616.301-.4042 0-.8892.501.0809.802 0 .802-.3233zm32.515-4.9309c.602.7275.401 2.1017.602 2.7484-.803.4042-1.405 0-1.706.8892-.301-.1617-.301-.5659-.402-.8892.101-.5658.602-.7275 1.104-1.0509-1.907-.1616-.702-1.94-1.304-3.2333.2-.1617.802-.0808.602-.485.501-.0809.501.3233 1.104.1616-.502.5659-.201 1.1317-1.104 1.2126-.201.7275.301.8891.2 1.5358.703-.5658.402-.2425.904-.8892zm5.519-.7275c.201 1.94-1.104.6467 0 0zm-38.435 7.0326c.301-.2425.301-.8084 1.104-.6467-.1.2425-.301.4042-.602.485 0 .1617.1.1617.201.1617-.201.2425-.302-.0808-.703 0zm-29.303 8.1642c-1.204.1617.201-.8891-1.104-.8891.101-.8892.502-1.7784.201-2.5867.903 1.1316 1.806 4.0417.602 4.9308.301-.6466-.502-1.3741.301-1.455zm39.238 6.9518c1.104.3233-.301 1.0508.803 1.0508 0 .1617-.402.1617-.602.1617 0 .1616.2.1616.2.3233.402 0 .402-.2425.803-.1617-.803.97-1.706-.5658-1.204-1.3741zm6.322 8.0025c-.201-.7275 1.505.7275 1.305-.6466 2.007-.1617 2.308.97 3.813 1.2125-.201-1.2125-3.211-1.455-2.107-2.5867 1.906.8083 2.81 2.425 4.616 3.2333-.903.5659-1.305-.6466-2.108-.6466-.702.97 2.61.8891 1.506 2.1825-.703.1617-.703-.2425-1.104-.3234.1.4851.1 3.0717 1.706 2.3442.602.4042-.201.97.803 1.0509-.602.485-1.807 0-1.907-.485-.301.4041-1.004.3233-1.706-.1617.201-.5658-.201-.7275-.401-1.0508-2.409-.2425-3.312-1.7784-5.118-2.5867.702-.7275 1.706-.3234 2.91-.3234-.101-.485-1.907-.2425-1.104-1.0508-.401.485-.502-.2425-1.104-.1617zm-16.859 28.0494c0 .0809 0 .1617-.1.1617-.101-.0808-.101-.1617-.201-.2425h-.101c.402.8084 1.606 1.0509 2.61 1.455 0-.6467.1-1.3742.1-2.0208-.502.485-1.104.7275-2.308.6466zm31.812-19.0768c.602-.1617.802.8083 1.103.3233.603.485-1.304.4042-1.103-.3233zm-47.668 5.9817c-.2 0-.2.3234-.2.485-.602-.1616-1.104-.1616-1.706 0 .1-.1616.2-.2425.2-.485.602.3234 1.205-.5658 2.108 0 0 .2425-.402.1617-.402 0zm48.169 2.7484c.602-.5659 2.208.5658 2.509 1.2125-1.605.1617-1.304-1.1317-2.509-1.2125zm-58.104 3.5567c.803.0808-.2.5658.603.485-.502.2425-.803.6467-1.104 1.0508 7.325.6467 14.45-.7275 20.471.485-2.107.7275-7.124.2425-10.135 1.2125.1.6467.502.8084.201 1.3742-.502.1617-.703 0-1.506.1617.402-.3233-.1-.3233-.401-.485.1-.3233 1.003-.0808 1.104-.485-4.516-2.5059-9.132.3233-14.351-.8892 0-.3233 0-.5658 0-.8892.703-.3233 2.309 0 2.71-.485.201-.485-.201-.6466-.201-1.0508.703-.2425.803 0 1.706 0 .602.2425-.401.7275.201.8892.803-.4042.401-.8892.702-1.3742zm-.802-57.1497c.501 0 .501-.4042.401-.8892.502.5659 1.706 2.1826.401 2.7484.101.6467 1.104.7275.803 1.6975-.502-.485-1.204-.3233-1.104.485-.702-.1617-.702-.6467-.401-1.2125-1.305-.4042-2.609-.2425-3.813.3233-.301-.7275-.402-.6466-1.305-.6466-.1-1.0509.702-.5659 1.305-.8892-.101-.5658.1-.8084.2-1.2125.402.1616.502.5658.402 1.0508.602-.3233.702-1.2933 1.706-.8892.501-.2425 0-1.0508 0-1.3741.702-.3234 1.405.2425 1.405.8083zm1.405 16.0052c-.803.1616-1.004-.2426-1.706-.1617.301-.5659 0-.5659 0-1.2125 2.207-.7275 2.308.485 1.706 1.3742zm-6.122-5.6584c.602-.1617.401.3233.803.3233-.301.5658.602 1.6167-.201 1.5358.703.3234 1.004.9701 1.907 1.2126 0 .5658-.1 1.2125.401 1.3741.803.1617.101-.8891 1.104-.6466-.702 1.2933.301 2.7483-.201 4.9308-.702-.0808-.702-.6466-1.304-.8891 0-.3234.401-.4042.803-.3234-.602-.3233-1.606-.5658-2.108-1.3741.703-.8084.301-1.5359.602-2.5867 0-.4042-.702-.0809-1.104-.1617-.1.2425-.1.8892-1.103.8892-.602-.6467.2-1.3742-.402-2.1825 1.706-.4042-.301-1.5359.803-2.1017zm66.935 5.9817c-.201 1.1317 1.204.97 1.305 1.8592-.803-.3234-.904.0808-.603.6466-1.204.0809-2.91-.5658-2.91-1.8591.703-.2425 1.204-1.0509 2.208-.6467zm-40.041 27.5644c.603.0808.803.5658.803 1.2125-.401-.0808-.401.2425-.401.485-.602-.5658-.703-.8083-.402-1.6975zm24.888 3.5567c-.201.1617-.201.4042-.201.6467 1.305-1.2125-1.405-1.2125-1.505-2.3442.702 0 .803.485 1.706.3233-.402-.5658-.803-.7275-.803-1.2125.702-.3233 1.706.6467 2.509.8892-.101.4042-.201.7275-.602.8892.903 1.2933 3.111 1.3741 4.214 2.91-1.505.2425-2.809-1.1317-4.214-1.5359.702.6467.802 1.8592 1.906 2.1826-1.505.4041-2.007-1.4551-4.014-1.2126 0-1.1316-1.706-.8891-1.304-2.3441 1.003 0 1.605.4041 2.308.8083zm-484.40006 33.627c-.10035.0808-.30105.0808-.40141.1616.10036-.1616.20071-.2425.40141-.3233zm-1.8063354.6466c-.3010556.0809-.7024646.1617-1.0035206.0809-.200704 0-.100354-.2425-.200704-.4042.301056-.0808.602113-.2425.802817-.3233.200704.2425.4014076.4041.4014076.6466zm1.4049254-3.9608c-.10035.0808-.30105.0808-.501757.0808.100357-.1617.200707-.2425.401407-.2425 0 0 .10035.0808.10035.1617zm-7.92781 2.7483c-.10036 0-.30106.0809-.40141.1617.10035-.0808.2007-.2425.30105-.4042.10036.0809.10036.1617.10036.2425zm-.90317.8892h.80281c-.2007.2425-.50176.3233-.90317.1617.10036-.0809.10036-.1617.10036-.1617zm-2.40846-6.0626c.50177-.2425 1.30458-.3233 1.70599-.5658-.60211-.1617-1.40493-.0808-1.70599-.485-.10035 0-.10035 0-.2007.0808.10035-.6466.30106-1.2933.30106-2.0208.10035-.1617.40141-.1617.50176-.4042.2007-.0808.40141-.2425.70246-.3233.70247.4041 1.20423.6466.90317 1.3742-.10035 0-.2007-.1617-.30105-.1617-.10036-.1617-.50177-.6467-.30106-.6467-.30106-.3233-.90317-.2425-.90317.2425.30106-.0808.50176 0 .50176.2425-.10035.3234-.40141-.1617-.60211.1617.2007.1617.10035.485.30105.6467.20071-.0809.30106-.1617.30106-.4042.30106.1617.2007.5658.60211.6467-.2007.0808-1.00352.1616-.90317.8891.60212 0 1.60564-1.2125 2.00705-.2425.90317 0 1.10387-.5658 1.50528-.97 0 .4042.50176.6467.50176 1.3742.50176.0808.30106.0808.80282 0 .30105 0 .10035.485.50176.485-.40141.1617-1.30458.4042-1.70599.8892-.60211-.3234-.10035-.5659-.30105-.8892-.50177-.0808-.50177.1617-.90317.1617-.10036.485.2007.6467.2007 1.1317-.50176 0-.60211-.3234-.60211-.7276-1.00352 0-1.30458.7276-2.20775.4851-.50176-.4851-.60211-.7276-.70247-.9701zm.60212 1.2126c.10035.0808.10035.1616.10035.3233 1.20423-.8083.50176.97 1.20423.6467 0 .3233-.30106.3233-.10036.7275.60212.4041 1.00352.1616 1.60564.485.2007.485.70246.7275.50176 1.5358-1.10388.1617-.90317-.7275-1.00352-1.3742-.60212 0-.90317-.5658-1.70599-.2425-.30106-.1616.10035-.8891-.2007-1.0508-.20071-.1617-.40141.0808-.80282 0 0-.0808 0-.1617 0-.2425h.2007c-.10035 0-.10035-.0808-.2007-.0808 0-.2425.30106-.4042.40141-.7275zm2.80986 2.1825c.10035-.3234.60211-.3234.90317-.485v.485c-.30106.0808-.60212-.1617-.90317 0zm-6.62327-38.1537c-.1003-.0808-.1003-.0808-.2007-.1617.1004.0809.2007.0809.2007.1617zm3.6127-9.5384c.10036.1617 0 .1617 0 .0808 0 0 0 0 0-.0808zm.30106.8892s0 .0808-.10035.0808c.50176-.0808.30105-.1617.80282-.1617.30105.2425.30105.5659 1.00352.7275v.0809c-.70247.0808-.50176.8083-1.20423.8891.10035-.4041.10035-.7275-.10035-.97-.60212.1617-.30106-.0808-.80282-.0808-.10035-.4042.20071-.485.40141-.5658zm-.70247-5.7393c.10036.485-.30109.485-.50179.6467.1004-.2425-.1003-.7275.1004-.7275.1003.0808.30104.0808.40139.0808zm-.30109 12.0443c0 .3234-.301.2425-.5017.4042.1003-.1617-.1004-.5659.1003-.5659 0 .0809.3011.0809.4014.1617zm5.92081 2.2634c-.10035-.2425-.30105-.4042-.2007-.7275.20071 0 .2007-.1617.40141-.1617 0 .3233.2007.6467-.20071.8892zm-.2007.485c-.2007 0-.30106.0808-.50176.0808 0-.1617 0-.3233 0-.485.40141-.0808.30106.2425.50176.4042zm-4.71655 1.1316c0-.3233-.50176-.2425-.30106-.6466.50176-.2425.60212.485.30106.6466zm.40141 2.3442c-.50176-.2425-.90317-1.3741-.30106-1.8592.20071.5659.60211 1.2934.30106 1.8592zm3.01056 1.8592c-.80281.0809-.30105-1.3742-.2007-1.5358.10035.3233 0 1.1316.2007 1.5358zm-1.80634 33.9503c-.4014-.1616-.50176-.485-.80281-.0808 0-.485-.70247-.8892.2007-1.0509.20071.3234 1.00352.5659.60211 1.1317zm23.78341-46.5604c-.6021 0-.1003.0808-.2006.4042-.6022.1616-.2008-.485-.8029-.4042-.301.2425.1004.2425 0 .6467 1.0036-.2425.1004.1616.9032.2425.1004-.3234.1003-.5659.1003-.8892zm-20.87319 13.9843c-.70247 0-.10036.8083.50176.6467-.10035-.3234-.60212-.2425-.50176-.6467zm6.32218 11.2359c.20071.97 1.00352 2.5059 1.80634 3.3951.40141 1.0508.60211 2.2633 1.50528 2.91-.2007.8083.20071 1.94.90317 2.425.20071-1.0508-.60211-3.0717-1.40493-4.1225-.10035-1.455-1.40493-4.9309-2.80986-4.6076zm5.41902 11.721c-.40141.1616 0 .7275.10035.8891.60211-.3233-.10035-.5658-.10035-.8891zm-1.30458 2.7483c-.30106.2425-1.00352.1617-.90317.7275.60211 0 1.10388-.4041.90317-.7275zm.60211 2.1017c-.50176 0-.70246.3233-1.10387.485.2007.5659.40141 1.2125.90317 1.6167-.10035.4042-.80282.3233-.90317.7275 0 .2425.40141.1617.30106.485.50176-.1617.80281-.1617 1.20422-.2425 0-1.2125-.30106-2.0208-.40141-3.0717zm4.51586 2.6675c-.2007.4042 1.0035.4042.8028 0-.1003-.0808-.8028-.3233-.8028 0zm4.8169 1.9401c-.3011.3233-.9032.3233-1.1039.7275.5018-.0809.8028 0 1.405-.2425-.1004-.1617-.2008-.3234-.3011-.485zm-8.42959 2.2633c.20071.0808.30106.1617.40141.3233-.10035 0-.30105 0-.40141 0-.10035-.1616-.10035-.2425 0-.3233zm8.02819 2.5056c-.5018-.081-.6021.162-.9032.243.1004.242 1.0035.081.9032-.243zm-26.9947-57.9578c0-.4041 0-.8891 0-1.2933h.2007c.1003.4042.1003.8892-.2007 1.2933zm.2007-5.2542.1003-.0808c.2007.0808.3011.2425.3011.4042-.2007 0-.2007-.1617-.4014-.0809 0-.0808 0-.1616 0-.2425zm1.60559.3234c.10036.0808.20071.1616.50177.2425-.20071.6466.2007.8891.60211 1.3742-.10035.1616-.20071-.0809-.50176 0 0 .4041.40141.5658.50176.97.50176-.0809-.40141-.6467.2007-.7275.50176 0 .10035.7275.80282.8891 0 .2425-.60211-.1616-.80282.1617 0 .3233.40141.3233.60212.485-.70247.3233-.50177 1.455-.10036 1.8592 0 0-.10035.0808-.10035.1617-.50176-.0809-.2007-.7276-.60211-.8892-.60212 0-.10035.485-.30106.8083-.50176-.485.20071-.97-.10035-1.5358.10035-.4042.40141.3233.50176 0-.10035-.3234-.2007-.6467-.30106-.97-.30105-.0809-.10035.3233-.4014.4041-.30106-.1616.10035-.485 0-.7275-1.10386-.6466-.10036-1.6167-.50177-2.5058zm-.2007 6.305c.10035.0809.10035.1617.10035.2425-.10035-.0808-.10035-.1616-.10035-.2425zm-1.40489-9.2151c.7024.0809.9031-.2425 1.0035-.6466h.1003c0-.0809 0-.0809-.1003-.0809.50174.4042-.1004.5659.2007.8892-.3011.0808-.6021.1617-.9032.2425-.1003-.1617-.2007-.3233-.301-.4042zm-4.5159-16.7326v-.6467c.6021.1617 1.2042.3234 1.8064.485 0 .1617 0 .4042.1003.5659-.6021-.1617-1.3046-.3234-1.9067-.4042zm4.0141.3233c.1004 0 .1004 0 .2007.0809v.4041s0 0-.1003 0c0-.0808 0-.1616 0-.2425-.1004-.0808-.1004-.1616-.1004-.2425zm.9032.2425c.9031.2425 1.70596.4042 2.50877.5659.30106 0 .10035.4041.30106.485-.60211 0-1.60564-.3234-1.50528-.485-.40145-.0809-.90315-.0809-1.40495-.2425.1004-.0809.1004-.2425.1004-.3234zm-4.9173-1.94v-.1617c.6021.0809 1.3046.2426 1.706.4042v.0809c-.6021-.1617-1.2042-.2425-1.706-.3234zm0-3.88v-.1617c.3011-.2425 1.3046-.0808 1.1039-.0808-.2007.0808-.9032.3233-1.1039.2425zm22.8803-10.18511c-.40141.48501-.10035.32334.10035.64667h-.10035c-.10035 0-.10035 0-.2007 0h-.10035c-.20071-.08083-.40141-.08083-.60212-.08083 0-.2425.10036-.40417.30106-.80834.30106.08083.50176.16167.60211.2425zm-1.00352.32334c0 .08083-.30105.08083-.50176.08083.10035-.08083.10035-.2425 0-.32333.20071 0 .50176 0 .50176.2425zm-4.6162 1.45501c-.2007.16167-.30105.40417-.501758.56584-.100351-.08083-.100351-.16167-.200705-.32334.100354-.08083.200705-.16166.301056-.2425zm-.802814-.485c0-.16167-.100353-.40417.100351-.32334.100354.08083.100354.2425.200705.40417-.200703 0-.301056 0-.301056-.08083zm-.100353 8.64926c-.100352.2425-.200703.485-.100352.7275-.200702 0-.4014078-.0808-.602111 0-.200705-.3233-.40141-.6467-.602113-1.0509.200703.0809.401408.2425.50176.485.100352-.1616.3010562-.2425.50176-.3233.100353.0808.200704.1617.301056.1617zm.301058 1.6975c.501759.7275 1.404929 1.455 1.605639 2.1825 0 .0808-.10036.1617-.10036.3234-.2007-.1617-.40141-.4042-.50176-.5659 0-.0808-.10035-.1617-.2007-.1617-.50176-.5658-.903171-1.1316-1.30458-1.7783.200705-.1617.401407-.0808.501761 0zm-15.052871-1.7784h.1004s0 .0809-.1004.0809zm4.81695 5.0926c-.2007-.1617-1.00355-.4042-1.10385 0 .301 0 .5017.0808.5017.4042-.301-.1617-.6021-.1617-.9031-.0809-.3011 0-.5018-.0808-.5018-.3233.1004-.3233.4014-.5658.4014-1.0509.4014-.0808.6021.0809 1.10389.3234 0 .2425-.20069.2425-.20069.485.40139-.0808 1.20421.0808.70245.2425zm13.24649.4042c-.30106-.0809-1.00353-.485-1.10388-.7275.10035.0808.30106.0808.40141.0808.30106.2425.60211.3233.70247.6467zm-12.54402.0808c.30105.3233 1.10387.2425 1.40493.6467-.90317-.1617-1.70599-.3234-2.3081-.7275.40141.2425 1.20422.0808.80281-.4042.60212 0 .40141.3233.10036.485zm3.71303 2.3442c-.80282 0-1.20423-.3234-1.70599-.6467 0 .1617 0 .3233-.30106.2425.30106-.8083 1.70599-.1617 2.00705.4042zm12.54401 4.2034c-1.60563-.9701-3.41197-1.6976-5.11795-2.5867-.80282-.4042-1.806344-.8892-2.3081054-1.6167 2.7095054.8083 5.4190154 2.5058 7.4260554 4.2034zm-18.06336-2.9909c1.0035-.2425 1.60561-.8083 2.91019-1.1317.2007.0809.40141.1617.60211.2425-.30105.5659.20071 1.0509-.40141 1.2125-.2007-.2425-.2007-.6466-.80281-.6466-.60212.485-1.90668.2425-2.30808.3233zm23.5827 5.5775c-.1003-.7275-3.31159-.3233-2.1074-1.3741 1.1039.0808 2.2078.8083 2.1074 1.3741zm-16.85913 0c0 .8892-.70246 1.1317-.60211 1.9401-.40141 0-.60211-.1617-1.10387-.1617-.60212.485-.20071.97-1.10388 1.3742.60211-1.2125.80282-3.7184 2.80986-3.1526zm6.7236 5.7393c-.20071.6466.10035 1.2125.30105 1.6975-.50176.2425-.90317-.0809-1.70599 0-.10035-.4042.30106-.4042.20071-.8892-.30106-.1617-.50176-.3233-1.103874-.2425.100351-.5658-.301056-.6467-.200705-1.2125.903169.2425 1.705989.2425 2.508809.6467zm-9.73416-.1617c-.30106-.0808-.10036-.8083.2007-.4042-.10035 0-.2007 0-.2007.1617.40141.1617.70246-.2425.80281 0-.4014.0808-.50176.3233-.80281.2425zm-1.10388.1617c.20071 0 .40141 0 .50176.1616-.50176.1617-.90317-.2425-1.20422.2425.2007.3234.80282-.1616.90317.1617-.30106.3233-.80282.3233-1.20423.4042-.2007-.2425-.10035-.6467-.50176-.7275.20071 0 .40141 0 .30106-.2425.60211.1616 1.20422-.3234 1.50528 0-.10035-.0809-.30106-.1617-.30106 0zm4.21479.3233c0-.3233.30106-.3233.60212-.4042.2007.1617.50176.1617.60211.4042-.60211.0808-.70247-.1617-1.20423 0zm-.90317-.0808c0 .1616.20071.1616.50176.1616.10036.8084-1.50528.0809-.90316-.2425 0 .0809.10035.1617.30105.1617 0-.1617.20071-.3233.30106-.1617-.10035-.0808-.20071 0-.20071.0809zm1.80634 2.8292c-.2007.0808-.40141.1616-.80281.1616-.10036-.8892-.90317-.4041-1.50529-.6466 0 .485.10036.97-.60211.8891.10035-.7275.40141-.6466.60211-1.1317 1.00353.2426 1.40493-.0808 2.00705-.4041-.10036.7275-.40141.7275.30105 1.1317zm1.40493.0808c.20071-.1617.602115-.4042.80282 0-.60211-.0808-.50176.97-.90317.6467.30106-.2425-.40141-1.3742.30106-1.1317-.30106 0-.20071.3233-.20071.485zm-6.22183 2.5867c.10035-.3234-.70247.0808-.60211-.2425.40141-.0809-.30106-.6467.50176-.6467-.30106.4042.40141.7275.10035.8892zm3.31162 3.4758c.10035-.2425-.2007-.8083.30106-.7275-.10035.2425.30105.8892-.30106.7275zm-.90317 1.2126c0 .1616.40141.0808.30106.4041-.20071-.0808-.30106-.0808-.30106-.0808-.10035-.1617-.40141-.0808-.60211 0-.10035-.0808-.40141 0-.20071-.2425.70247.4042.40141-.4042 1.10388-.4042-.10035.1617-.20071.2425-.30106.3234zm-4.31514 1.6166c-.10035 0-.10035 0-.20071 0 0-.0808-.10035-.1616-.10035-.2425h.40141c0 .0809 0 .1617-.10035.2425zm3.31162 2.9101c.10035.3233-.2007.3233-.10035.6466-.20071-.0808-.30106-.0808-.30106-.1616-.2007-.1617-.2007-.4042-.30106-.5659.10036.1617.40141.0809.70247.0809zm2.80986 1.8591c.60211.0809.90317.0809 1.50528 0-.40141.485-1.20422.5659-1.50528 0zm-.70247 14.3885c-.2007.485.50177 1.2933 1.10388 1.6167-.10035-.7275-.80282-.97-1.10388-1.6167zm11.03874 31.0403c-.10035.3233-.70246.2425-.80282.6467.20071 0 .30106 0 .30106-.1617.50176 0 .10035.7275.80282.6467-.50176-.5659 0-1.2126-.30106-1.8592-.40141.2425-.90317.485-1.40493.7275.30106.3233 1.10388.0808 1.40493 0zm-6.8239454 3.6375c.1003524 0 .2007054-.0808.3010564-.0808-.100351.0808-.200704.0808-.3010564.0808zm431.5143954-92.71664c-1.706-.16167-3.613-.40417-5.218-.08084-.402-.16167-.502-.56584-1.104-.64667-1.305.485-3.212.97001-4.717.32334-.401.08083-.1.56583-.502.64667-.2-.64667-.702 0-.802-.08084-.101-.40417.501-.32333.301-.7275-.502-.2425-1.506 0-1.706.40417-.101.40417.501.16167.501.485-.2.16167-.802.16167-1.304.16167-.301-1.45501-3.111-1.21251-3.814-.32334.502.16167 1.305.08084 1.405.56584-.2.16167-.802.16167-1.304.16167-.301-.08083.1-.72751-.502-.64667-.401-.08084-.1.485-.502.485-.401-.08083-1.204.2425-1.104-.2425.101-.32334.904.32334.904-.2425-.703-.2425-1.807.16167-1.907.80834.1.32334 1.003.56584.602.72751-.201 0-.301.08083-.502.16166-.502-.32333-.903-.7275-1.405-.97001-.1-.40417.201-.485.101-.7275-.803-.88918-2.208-.72751-2.108-1.61668.101-.72751.602-.16167 1.405-.40417.301-.08084.602-.48501.803-.48501l.201.40417c.401.08084 1.003-.32333 1.304.08084 0-.40417.502-.48501.903-.64668.502 0 .201.64668.803.64668.703 0 .402-.80834 1.204-.64668 0 .56584.402.24251.201.88918.803.40417 1.606 0 2.81.08083.201-.64667.903-.97001 1.907-1.05084-.301.64667.2.72751.803.88917 0-.32333 0-.7275.501-.64667.502.64668 2.409.16167 2.509 1.05085 1.706.2425 3.512.32333 4.516-.48501.903 1.05084 2.509 1.13168 4.415 1.13168 0 0 0 .08083-.1.08083.502.16167.502.32334.502.48501zm61.114 1.13167v.24251c-.602.08083-1.104 0-1.405-.16167.402 0 .803 0 1.205-.08084zm-25.188 3.23337c0-.1617 0-.2425 0-.4042.602-.1616.903-.48498 1.806-.48498.101.08083.101.32338.101.56588-.603.1616-1.205.6466-1.907.3233zm5.519-1.29335c-.1-.08083-.1-.16167-.1-.32334h.401c.101-.32333.301-.56583.502-.80834.703-.08083 1.505.08084 1.505.56584-.301.56584-1.505.88918-2.308.56584zm-15.655-.16167c.301-.2425.602-.64667 1.205-.40417 0 .48501-.803.64667-1.205.40417zm-16.959-.97001c0-.08083 0-.16166 0-.2425.201-.08083.702-.16167.803.08084-.101.16166-.502.40417-.803.16166zm3.211-.08083c-.301-.32334.703-.40417.803-.08083-.301.08083-.703.2425-.803.08083zm.402-2.10169c.301-.16166.602.08084.903.08084v.485c-.402.16167-.803-.2425-.903-.56584zm1.204.48501c-.101-.40417.301-.40417.301-.64667.803 0 1.104.08083 1.605-.16167.201.2425.703.2425.904.56584-.502.32333-1.907.485-2.81.2425zm-136.981-5.57755h4.014c.1 0 .301 0 .402.08083-1.205.08084-1.807.64668-2.509 1.05085-.602-.32334-1.606-.24251-1.907.32333-.602-.08083-1.003-.32333-1.003-.97001.401-.2425.702-.40417 1.003-.485zm87.306 0h5.018c-.201.16167-.201.485-.502.56584-1.405-.808343-2.91-.16167-4.516-.56584zm6.222 0h1.004c.1.2425.301.40417.502.485.802 0 1.404-.565835 2.007-.32333-.402.56584-1.807.7275-2.71.56584.401-.64668-.201-.72751-.803-.72751zm5.018 0h.502c-.402.2425-.803.40417-1.205.32334 0-.16167.402-.08084.602-.16167.201-.08084.201-.08084.101-.16167zm101.857 5.25421c-.1.16167-.2.2425-.2.40417-.201-.08083-.402-.16167-.602-.2425v-.08083c.2-.08084.501-.08084.802-.08084zm.402 7.11338v.7275c-.301 0-.502 0-.803.1617.201-.2425.401-.6467 0-.8083-.201 0-.101.3233-.201.485-.201-.485-.201-1.1317-.1-1.3742-.502-.5659-1.004.3233-1.907.1616-.1-.7275-1.104-.7275-1.605-1.1316.501-.4042 1.103-.1617 1.906-.1617 0 .2425-.401.1617-.301.485.602-.0808.703-.5658.903-.8892.903-.0808.803.5659 1.907.3234.1.8083-.903.8083-.803 1.6975.301.1617.803.1617 1.004.3233zm0 1.6167v1.455c0-.2425-.101-.485-.301-.6467-.402-.0808 0 .4042-.301.4042.1-.2425 0-.4042-.201-.485.201 0 .401 0 .502-.0808 0-.3234-.101-.5659-.301-.7275h.2c.301 0 .402 0 .402.0808zm-.703 2.5867c-.1.1617-.2.1617-.401.1617.1-.0809.201-.0809.401-.1617zm-193.679-14.55014c-.101-.40417-.803-.32334-1.305-.32334v.40417c.502-.08083.903-.08083 1.305-.08083zm31.611 1.13168c.2-.16167.2-.48501.1-.72751-.602-.08083-.703-.16167-.903.2425.301.16167.301.56584.803.48501zm1.906 0c.101-.80834-.602-.88918-.803-1.37418 0 .485-.602.485-.501 1.05084.501.08083.702.32334 1.304.32334zm.402-2.34419c0-.64667-1.506-.32334-1.606 0 .502.40417 1.004 0 1.606 0zm1.906.16167c-.501.16167-1.706-.2425-1.706.32333.502-.2425 1.706.16167 1.706-.32333zm14.451-.56584c.401.16167 2.609.08083.502 0-.301-.40417-.602-.08083-.502 0zm29.303 1.05084c.502-.08083 2.007.16167 2.509-.08083.1-.32334-.201-.32334-.201-.64667-.803-.08084-1.405-.24251-2.208-.32334.602.56584-.502.64667-.1 1.05084zm9.433 1.05084c.702.16167.702-.32333 1.104-.56583-.402.08083-1.104-.16167-1.305.16166.301.08084.201.24251.201.40417zm3.211 1.37418c.201-.2425.402-.40417.301-.88917.502-.2425 1.506 0 1.706-.40417-.803-.16167-2.408-.64667-2.709.16167.1.16167.602 0 .501.40417 0 .2425-.401.2425-.802.2425v.40417c.401-.08083.501.16167 1.003.08083zm2.409-3.71836c-.502.08083-1.405-.16167-1.606.16167.401.16166 1.606.2425 1.606-.16167zm1.204.32333c0-.16166 0-.2425 0-.40417-.301 0-.803-.08083-.602.24251.1.08083.2.2425.602.16166zm13.046 1.61668c.501.08084.401-.32333.602-.485-.301.08083-.903-.16167-.903.16167.2 0 .1.2425.301.32333zm3.713 6.38589c-.402-.08083-.703-.2425-1.305-.2425 0 .16167-.301.2425-.301.40417.703 0 1.204.2425 1.606-.16167zm.702-.2425c0-.2425.201-.2425.201-.485-.301 0-.502 0-.803 0-.1.40417.401.32333.602.485zm1.907-5.01171c-.502 0-.402-.485-1.104-.32334-.301.56584.803.64668 1.104.32334zm3.01-.08083c-.702-.16167-1.605-.16167-2.107.16166.502.08084 1.104.24251 1.706.40417.1-.16166.301-.32333.401-.56583zm55.696 10.75096c-.201.0808-.402.1616-.402.4041.402.1617.803.0809 1.004-.1616-.201 0-.401 0-.602 0 0 0 0-.0809 0-.2425zm6.723 1.3741c0-.4041 0-.8083 0-1.2933-.602.2425-1.304.4042-1.605.8892.803-.0809 1.204.0808 1.605.4041zm.502-5.4967c-.2 0-.2-.2425-.301-.4041-.401 0-.803 0-.803.2425.301-.0809.502.1616.803.2425.101 0 .201 0 .301-.0809zm3.412 5.9817c0-.1616 0-.3233 0-.485-.401.0809-1.104-.1616-1.304.1617.602 0 .602.485 1.304.3233zm1.907-.1616c-.402.0808-1.405-.2425-1.204.2425.1.3233 1.405.5658 1.204-.2425zm-.301-.485c0-.1617.2-.2425.2-.485-.501.0808-.602-.3234-.802.1616.2 0 .2.3234.602.3234zm1.605-5.0926c-.401 0-.2-.5658-.802-.485-.502.1617-.502.7275-.803 1.0509 1.003.0808 1.204-.2425 1.605-.5659zm.101 5.9818c-.201-.8084-.201-.7276.1-1.3742-1.003-.485-.903.8891-1.405 1.1316.201.0809.301.1617.502.2426.1-.2426.201-.4851.1-.8892.301.2425.402.5658.502.97.101-.0808.1-.0808.201-.0808zm1.605-7.43678c.301-.40417.302-.56584.101-1.05084-1.004 0-1.706.16166-2.208.56583.702.24251 1.505.72751 2.107.48501zm-1.003 2.58668c.702-.1617.803-.8083 1.204-1.1317-.602-.0808-.903-.1616-1.405 0 .201.5659 0 .6467.201 1.1317zm5.921 5.3351v.5658c0-.1617 0-.4042 0-.5658zm0 2.5058v.8084c-.101-.0809.1-.5659 0-.8084zm0 24.7352v1.0509c-.101-.0809-.301-.0809-.402-.2425.301-.2425.402-.485.402-.8084zm0 2.0209v.2425c-.101.0808-.301.1617-.402.2425 0 .4042.402.7275.201 1.0508-.502-.2425-.502-.8891-.401-1.3742.401.0809.602 0 .602-.1616zm0 2.2633v.3234c-.201-.1617-.301-.4042-.301-.6467.1 0 .1.1617.1.3233zm0 13.7418v3.1526s0 0-.101 0c0 .1616 0 .1616.101.2425v.4041c-.101.0809-.201.1617-.301.2425-.101-1.3742 0-2.7483.301-4.0417zm0 4.2842v.7275c-.201 0-.301-.0808-.402-.2425.301 0 .402-.2425.402-.485zm0 1.0509v2.3442c0 .1616-.101.3233-.301.485-.301.0808-.301-.1617-.502-.2425.301-.1617.301-.4042.602-.5659-.1-.2425-.401-.485-.502-.8083.402-.3234.502-.7275.703-1.2125zm0 3.4758v1.94c-.101-.6466-.101-1.455 0-1.94zm0 2.2634v1.0508c-.101-.2425-.301-.8083 0-1.0508zm-13.247 28.7773h-.2c.1 0 .2-.081.2-.081zm11.741-83.9061c.101.0808.301.0808.603.0808 0-.3233.1-.3233-.201-.485-.101.2425-.402.1617-.402.4042zm0 .97c.602.0808.703-.3234 1.104-.4042-.301 0-.401-.3233-.802-.2425-.101.2425-.302.3233-.302.6467zm.603 23.0377c0 .2425-.101.97 0 1.2933.301.0809.301-.0808.501-.0808.101-.4042.201-.7275.301-1.1317-.401.2425-.501-.2425-.802-.0808zm-1.004 4.6884c-.1.4041.201.4041.401.5658-.1-.1617.101-.5658-.1-.6467 0 .0809-.1.0809-.301.0809zm-1.003 1.6166c.2.0809.301.2425.702.1617.1.2425 0 .8083.301.8892.201-.4042.502-1.2125-.1-1.3742-.101.0808 0 .3233-.301.2425-.201 0-.201-.1617-.201-.4042-.101 0-.201 0-.301 0 0 .1617-.201.2425-.1.485zm2.809 1.2125c-.1-.2425.101-.6466-.1-.8083-.1.1617-.201.8083.1.8083zm-.301.5659h.301c0-.1617.101-.4042-.2-.3234 0 .1617-.101.1617-.101.3234zm-1.505 6.5475c0 .2425.201.2425.401.3234-.1-.1617.101-.485-.1-.485 0 .0808-.201.0808-.301.1616zm-4.917 1.7784c.1-.1617.2-.3233.2-.6467-.1 0-.2-.1616-.301-.1616 0 .4041-.2.6466.101.8083zm.2.4042c.201 0 .201.0808.402.0808 0-.1617 0-.2425 0-.4042-.301 0-.301.2425-.402.3234zm3.814.97c0-.2425.401-.1617.301-.5659-.502-.1616-.502.4042-.301.5659zm-.402 1.94c.402-.1617.703-1.1317.302-1.455-.201.4041-.502.97-.302 1.455zm-2.508 1.455c.702.0808.2-1.1317.2-1.2933-.1.3233 0 .97-.2 1.2933zm3.211-.485c-.101-.1617.1-.485-.1-.5658-.201.1616-.101.485.1.5658zm1.806 5.1734c.101-.4042.301-1.2934-.301-1.455-.401.4041-.2 1.2125.301 1.455zm-1.505 11.8826c0-.0809 0-.2425 0-.3234-.1 0-.301 0-.401 0-.101.2425 0 .3234.401.3234zm-9.835 9.5384s.101 0 .101-.0808c0-.0809 0-.1617-.101-.1617-.1 0-.1 0-.2 0 .1.0808.2.1617.2.2425zm-1.003 3.0717h1.003c-.1-.2425-.2-.485-.401-.6467-.1.0809-.201.1617-.301.2425-.1.1617-.201.3234-.301.4042zm-486.9087 9.5388h-.60211c.2007 0 .60211-.081.90317-.162-.10036.081-.20071.162-.30106.162zm-24.6866-10.2663c0-.1617.1003-.3233 0-.4042 0 0-.1004 0-.2007 0 0 .1617 0 .3234.2007.4042zm25.7905 9.5383c.1003.081.5017.162.5017-.081-.2007-.081-.4014-.161-.5017.081z" fill="#fff" fill-rule="evenodd"/></g></svg>