<svg width="1440" height="21" viewBox="0 0 1440 21" fill="none" xmlns="http://www.w3.org/2000/svg">
<path d="M1452.65 17.9449C1452 16.9562 1453.3 17.3418 1452 16.2542C1455.41 16.3333 1456.83 16.9562 1459.96 17.0452V13.7825C1456.77 13.7825 1453.09 13.8418 1450.37 13.565C1449.73 13.7627 1449.08 13.8616 1449.4 14.2571C1448.1 14.1582 1446.15 14.3559 1445.49 14.1582C1446.15 14.0593 1445.49 13.6638 1445.83 13.3573C1441.92 11.9633 1434.44 13.0607 1428.92 12.2698C1426.58 11.6815 1424.18 11.3139 1421.77 11.1723C1421 11.1965 1420.24 11.1635 1419.49 11.0734H1418.5C1416.88 10.0847 1410.06 10.3715 1408.43 11.2712C1403.55 10.6681 1398.35 11.2712 1393.47 11.4689C1394.44 11.5678 1394.77 11.9633 1394.77 12.4576C1391.52 13.1497 1388.56 12.2599 1387.62 11.3602C1390.54 10.9647 1392.5 10.4605 1393.47 9.46186C1396.72 9.16525 1401.93 8.76977 1403.82 9.57062C1404 9.48371 1404.15 9.35606 1404.27 9.19907C1404.38 9.04208 1404.45 8.86063 1404.48 8.6709C1406.42 8.47316 1407.07 8.86864 1409.65 8.76977C1410.63 8.57203 1409 8.27542 1409.97 8.0678C1412.57 7.37571 1417.13 7.47458 1420.33 7.87006C1421.63 7.57345 1422.6 7.27684 1421.63 6.7726C1424.23 6.57486 1428.45 5.88277 1431.7 6.08051C1433.33 6.17938 1433.33 6.7726 1435.29 6.67373C1436.91 6.67373 1436.58 5.98164 1438.86 6.17938C1440.16 6.27825 1439.19 6.7726 1440.48 6.7726C1442.76 6.57486 1445.66 6.37712 1447.97 6.08051C1448.48 5.54905 1449.17 5.20028 1449.92 5.09181C1453.55 5.89266 1455.54 7.37571 1459.82 7.89972V5.50706C1458.75 4.85849 1457.61 4.31839 1456.42 3.89548C1446.99 4.49859 1437.56 4.88418 1429.11 4.7952C1426.83 5.09181 1424.23 5.48729 1421.95 5.7839C1418.37 6.08051 1414.48 6.17938 1410.89 6.57486C1409.28 6.8258 1407.65 6.99412 1406.02 7.0791C1402.45 7.27684 1397.24 8.37429 1394.31 8.6709C1392.32 8.66721 1390.35 8.97105 1388.46 9.57062C1385.1 9.7694 1381.73 9.7694 1378.37 9.57062C1377.08 9.57062 1376.11 9.66949 1374.48 9.66949C1371.87 9.57062 1368.95 9.26412 1366.68 9.26412C1362.44 9.26412 1358.22 10.1638 1356.32 8.86864C1354.94 9.2578 1353.52 9.49336 1352.09 9.57062C1350.14 9.66949 1345.27 9.66949 1341.04 9.57062C1339.74 10.1638 1338.43 10.7571 1338.43 11.6568C1335.83 11.5579 1332.9 11.459 1329.65 11.459C1330.3 11.3602 1330.3 11.1624 1330.3 10.8658C1327.37 11.0636 1324.78 11.7556 1321.2 11.2613C1318.27 12.7542 1313.4 12.3588 1308.52 12.6554C1309.57 11.9022 1310.8 11.4217 1312.09 11.2613C1312.09 10.8658 1310.15 11.1624 1310.47 10.6582C1312.2 10.4284 1313.96 10.5327 1315.64 10.9647C1316.62 10.1638 1317.92 10.3616 1320.2 9.97599C1320.2 9.58051 1318.56 9.77825 1318.56 9.47175C1315.31 9.58051 1312.71 10.4605 1308.81 9.97599C1306.53 11.0734 1297.11 11.7655 1295.16 10.0749C1293.53 10.7669 1290.93 10.2726 1288.65 10.1737L1289.63 9.58051C1285.72 9.27401 1282.47 9.97599 1278.9 9.97599C1276.62 9.97599 1275 9.47175 1272.69 9.58051C1269.44 9.77825 1267.16 10.5692 1263.59 10.4703C1262.28 10.4703 1261.63 9.87712 1260.01 10.0749C1261.05 9.90774 1262.05 9.53394 1262.94 8.9774C1265.32 9.07485 1267.71 9.00877 1270.09 8.77966C1268.46 7.87994 1262.28 8.58192 1260.34 8.87853C1259.03 8.58192 1260.34 7.88983 1260.66 7.58333H1264.88C1264.56 6.48588 1259.35 7.08898 1256.1 6.99011C1256.43 6.0904 1253.18 5.38842 1256.43 5.01271C1256.1 4.41949 1252.85 4.81497 1251.88 4.32062C1251.88 3.4209 1254.81 4.32062 1256.43 3.81638C1253.83 3.12429 1251.26 4.11299 1248.31 3.71751C1246.35 3.81638 1249.93 4.21186 1248.31 4.32062C1246.68 4.21186 1244.73 4.01412 1243.13 3.91525C1242.81 3.51977 1245.08 3.71751 1245.08 3.4209C1244.1 2.91667 1242.16 3.51977 1240.85 3.4209C1237.28 2.02684 1231.42 3.91525 1225.89 2.62006C1225.25 2.71893 1225.89 3.12429 1224.92 3.12429C1224.6 3.71751 1227.85 3.12429 1227.52 3.71751C1221.67 3.91525 1220.04 2.42232 1215.17 2.72881C1218.42 3.03531 1219.39 4.22175 1222.97 3.92514C1219.72 4.72599 1203.79 5.51695 1209.64 3.13418C1211.92 2.53107 1210.94 4.02401 1213.86 3.7274C1213.86 3.13418 1213.86 2.33333 1216.79 2.13559C1215.82 1.53249 1213.86 1.33475 1212.57 0.939266C1211.9 0.902912 1211.23 1.00917 1210.61 1.25031C1209.99 1.49146 1209.44 1.86143 1208.99 2.33333C1207.69 2.33333 1207.69 1.74011 1208.33 1.53249C1203.79 1.13701 1196.3 0.741525 1193.05 1.53249C1190.45 0.336158 1187.2 0.138418 1181.66 0.039548C1181.34 0.642655 1184.91 -0.059322 1184.59 0.642655C1182.97 1.13701 1180.36 0.039548 1179.06 0.840396C1180.36 1.43362 1183.94 1.33475 1184.59 2.33333C1180.04 3.03531 1180.69 0.741525 1174.51 1.34463C1165.73 0.454802 1153.38 1.14689 1141.99 1.4435C1141.12 0.91269 1140.1 0.637675 1139.07 0.652542C1140.04 1.4435 1140.04 1.24576 1138.74 1.94774C1136.79 1.94774 1135.82 1.64124 1134.19 1.54237C1133.86 1.04802 1135.49 0.553672 1133.54 0.454802C1134.19 1.64124 1127.04 1.54237 1122.48 1.64124C1122.3 1.39506 1122.06 1.19478 1121.77 1.05718C1121.49 0.919569 1121.18 0.848626 1120.86 0.850282C1118.72 1.26507 1116.54 1.43106 1114.36 1.34463C1115.01 0.850282 1113.7 0.949153 1113.38 0.751412C1109.48 2.14548 1101.02 0.949153 1097.77 1.94774C1102.65 2.14548 1108.12 2.24435 1111.43 3.0452C1110.12 4.0339 1104.27 2.83757 1101.67 3.53955C1104.27 3.83616 1102.65 4.83475 1101.34 5.23023C1101.67 5.63559 1103.95 5.9322 1102.98 6.32768C1100.88 6.57785 1098.75 6.34043 1096.77 5.63559C1089.38 5.85675 1081.99 5.55602 1074.65 4.73588C1078.23 2.75847 1085.01 5.23023 1091.89 4.73588C1092.86 4.73588 1091.89 3.93503 1092.86 3.83616H1097.09C1090.59 2.24435 1082.13 2.93644 1072.71 2.93644C1072.05 3.34181 1074 3.53955 1072.37 4.0339H1070.76C1070.76 4.05005 1070.76 4.06719 1070.76 4.08333H1069.87C1065.39 4.32197 1060.89 4.32197 1056.41 4.08333C1058.04 3.78672 1059.34 2.78814 1055.77 2.68927C1055.12 3.1935 1054.13 3.67797 1053.81 4.29096C1051.21 4.08333 1051.21 4.88418 1049.26 4.98305C1046.66 5.08192 1043.41 4.38983 1041.13 4.38983C1040.47 4.50821 1039.82 4.67345 1039.18 4.88418C1036.57 5.18079 1033.32 4.78531 1030.4 4.98305C1029.75 3.99435 1032.68 4.08333 1033.97 3.68785C1033.65 3.09463 1030.07 3.58898 1029.75 3.09463C1031.06 2.19492 1034.63 2.78814 1035.96 3.1935C1038.56 2.68927 1040.19 1.99718 1044.09 1.99718C1044.74 2.19492 1044.74 2.39266 1044.74 2.78814C1045.67 2.45426 1046.68 2.35219 1047.66 2.49153C1047.66 1.99718 1044.41 2.68927 1045.06 1.99718C1049.29 1.00847 1057.42 2.09605 1064.25 1.09746C1062.62 0.29661 1057.42 1.49294 1056.12 0.504237C1051.56 2.09605 1040.51 0 1032.71 0.701977C1032.38 0.29661 1031.09 0.19774 1030.1 0H998.391C998.391 0.0988701 998.07 0.0988701 997.749 0.0988701C998.868 0.614717 1000.08 0.920172 1001.32 0.998588C1001.64 1.59181 998.391 1.19633 998.391 1.70056C999.043 2.5904 1004.6 1.89831 1004.6 3.09463C997.78 4.78531 982.861 1.2952 976.97 4.29096C975.665 3.68785 971.793 3.98446 971.793 3.09463C963.014 3.1935 954.193 4.58757 946.759 3.39124C946.542 3.06497 946.625 2.77825 947.256 2.64972C943.964 2.7387 939.305 2.56073 935.371 2.39266C934.729 1.59181 935.05 1.40395 934.729 0.415254C935.062 0.392444 935.39 0.322471 935.702 0.207627H721.68C719.723 0.514124 717.777 1.00847 715.468 1.19633C715.147 0.603107 717.425 0.504237 717.425 0.207627H713.563C712.911 0.306497 712.259 0.514124 712.259 1.00847C714.536 1.40395 715.189 2.30367 717.435 2.79802C716.783 3.78672 717.104 4.09322 716.4 4.99294C711.679 5.16102 706.492 5.3291 702.651 5.19068C703.22 5.33898 703.272 5.62571 703.075 5.99153C694.617 7.28672 684.212 5.69492 673.807 5.48729C673.807 6.47599 668.93 6.18927 667.595 6.78249C661.093 3.5 643.213 7.18785 635.407 5.38842C635.407 4.09322 641.909 4.89407 642.882 3.89548C642.882 3.30226 639.31 3.79661 639.31 3.20339C640.771 3.13167 642.204 2.79618 643.534 2.21469C639.962 2.01695 640.604 1.91808 640.604 1.31497C639.404 1.2183 638.196 1.31863 637.032 1.61158C636.837 1.38294 636.588 1.20123 636.306 1.08104C636.023 0.96085 635.715 0.90552 635.407 0.919491C627.6 1.11723 615.57 1.41384 606.418 1.61158C605.765 2.11582 602.835 2.11582 602.183 2.70904C593.083 1.81921 579.748 4.10311 574.55 2.31356C572.925 3.50989 566.744 2.11582 564.798 2.90678C572.594 4.10311 582.398 3.01554 587.575 4.10311C588.548 4.90395 584.645 4.10311 584.645 4.60734C585.855 4.45183 587.086 4.58778 588.227 5.00282C587.906 4.60734 588.227 4.31073 588.879 4.10311C593.424 4.10311 595.381 4.90395 598.311 5.3983C599.937 5.00282 603.829 4.31073 605.465 5.29944C605.134 5.80367 600.578 5.20056 600.578 5.90254C601.883 6.29802 605.465 6.19915 604.482 7.29661C601.231 7 597.328 7.49435 594.408 7.19774C593.756 7.19774 593.103 6.6935 592.13 6.6935C589.532 6.6935 585.628 7.49435 582.377 7.29661C580.421 7.09887 580.1 6.19915 577.201 6.49576C576.88 5.80367 575.575 5.29944 574.923 4.70621C570.699 4.70621 572.325 5.90254 574.271 6.19915C568.753 6.59463 560.946 6.19915 555.739 6.00141C554.113 5.39831 556.391 5.29943 555.418 4.80508C544.36 4.70621 534.276 3.90537 526.429 5.60593C528.054 5.7048 529.68 5.7048 531.305 5.7048C532.278 5.80367 530.974 6.59463 532.278 6.6935C540.406 7.29661 548.533 4.7161 552.767 6.79237C544.13 7.71256 535.433 8.01331 526.75 7.69209C524.472 8.52592 522.013 8.80126 519.596 8.49294C518.291 8.08757 520.9 7.69209 521.542 7.29661C520.248 6.89124 518.291 5.80367 521.221 5.3983C517.97 4.60734 511.137 5.90254 509.832 4.70621C513.404 3.8065 519.906 3.71751 526.087 3.50989C522.184 2.41243 512.431 3.70763 507.555 2.11582C507.234 2.41243 505.608 2.21469 506.25 2.80791C502.347 3.01554 501.074 2.41243 498.454 2.21469C497.15 2.31356 496.829 2.61017 496.497 3.01554C490.969 2.80791 482.842 2.80791 483.494 1.61158C481.216 1.72034 483.163 2.31356 482.842 2.80791C480.564 2.80791 479.591 3.21328 477.313 3.21328C476.008 2.5113 476.008 2.61017 476.992 1.81921C475.035 1.81921 474.714 2.31356 473.41 2.61017C460.085 2.21469 445.777 1.41384 435.041 2.31356C427.887 1.61158 428.539 4.10311 423.01 3.30226C423.663 2.31356 427.887 2.40254 429.843 1.71045C428.539 0.810734 425.288 2.00706 423.331 1.40395C422.689 0.711864 427.234 1.50282 426.913 0.810734C420.412 0.909605 416.829 1.10734 413.578 2.40254C409.675 1.50282 401.227 1.90819 395.698 2.30367C396.672 2.60028 396.672 3.20339 395.046 3.20339C394.394 2.50141 394.073 1.80932 391.143 1.60169C389.518 2.00706 387.24 2.2048 386.267 2.89689C389.849 3.20339 389.518 3.99435 389.849 4.69633C393.421 5.09181 392.116 3.5 394.725 4.09322C401.548 6.68362 383.016 5.69492 379.113 4.89407C383.337 5.19068 384.641 3.90537 388.223 3.59887C382.695 3.20339 380.417 4.7952 373.584 4.58757C372.932 3.88559 376.835 4.4887 376.514 3.88559C375.209 3.88559 376.183 3.49011 375.209 3.39124C368.387 4.78531 361.554 2.68927 357.609 4.1822C355.983 4.1822 353.706 3.58898 352.733 4.08333C352.733 4.38983 355.331 4.08333 355.01 4.58757C352.733 4.68644 350.786 4.78531 348.798 4.98305C346.852 4.88418 351.076 4.4887 348.798 4.29096C344.895 4.68644 342.297 3.58898 339.046 4.29096C340.671 4.78531 344.222 3.88559 344.222 4.88418C343.239 5.37853 339.336 4.98305 338.694 5.68503C342.265 6.08051 338.362 6.87147 339.015 7.87006C335.111 7.96893 328.931 7.37571 328.61 8.47316C330.235 8.57203 331.86 8.57203 333.486 8.57203C333.486 8.96751 335.111 9.76836 333.817 9.9661C331.208 9.66949 324.385 8.86864 322.429 9.86723C324.706 10.1638 327.957 10.065 330.887 10.1638C332.181 10.5593 332.513 11.1525 334.459 11.3602C332.834 11.1624 331.86 11.7556 330.235 11.8545C326.011 11.9534 323.402 10.9647 319.509 10.8658C316.9 10.7571 314.954 11.2613 312.355 11.2613C308.121 11.2613 304.217 10.4605 299.672 10.7571C299.672 11.0636 300.325 11.1624 300.646 11.459C298.047 11.5579 294.796 12.0523 292.839 11.3602C290.561 13.2486 279.183 12.4576 276.585 11.1624C272.029 11.6568 268.778 10.6582 265.196 10.4605C264.865 10.7571 263.239 10.5593 263.239 10.9647C265.517 11.3602 267.142 11.1624 268.416 12.0523C270.448 11.5759 272.556 11.4752 274.628 11.7556C274.959 12.3588 272.681 11.9534 272.681 12.4576C274.118 12.609 275.476 13.1629 276.585 14.0494C271.056 13.654 264.875 14.0494 261.624 12.4576C257.4 12.952 254.149 12.161 250.898 11.9534C250.898 12.2599 251.219 12.4576 251.551 12.6554C247.968 12.5565 244.396 12.6554 241.466 12.8531C241.135 11.8644 239.841 11.1624 238.536 10.5593C238.868 10.1638 240.814 10.2627 240.493 9.57062C237.563 9.36299 237.884 10.065 234.965 9.86723C233.339 9.57062 235.286 9.26412 233.991 8.87853C233.231 8.80428 232.464 8.83759 231.714 8.9774C233.008 9.37288 233.66 9.37288 232.687 10.1737C227.158 9.87712 222.334 9.37288 217.074 9.47175C215.128 9.17514 218.7 8.9774 217.074 8.77966C214.797 8.58192 215.128 9.27401 212.85 9.07627C213.502 8.38418 209.599 8.87853 210.572 7.97881C215.128 7.38559 222.282 7.28672 227.479 6.48588C236.259 7.08898 248.941 5.99153 258.694 6.58475C260.33 6.38701 260.651 5.79379 262.929 5.79379C267.805 6.48588 275.28 7.28672 280.809 6.38701C282.113 6.48588 281.14 7.18785 282.434 7.28672C283.407 6.38701 284.712 7.38559 285.364 7.18785C285.685 6.68362 283.739 6.78249 284.391 6.19915C286.337 5.80367 290.241 6.19915 290.893 6.79237C291.214 7.39548 288.936 7 288.936 7.49435C290.554 7.67294 292.184 7.73903 293.812 7.69209C294.796 5.71469 305.522 6.10028 308.121 7.39548C306.174 7.59322 302.944 7.49435 302.592 8.18644C304.292 8.38239 306.006 8.44851 307.717 8.38418C309.011 8.28531 307.385 7.39548 309.663 7.58333C311.289 7.48446 309.984 8.17655 311.289 8.28531C312.593 8.17655 315.844 8.68079 315.513 7.97881C315.192 7.48446 311.941 8.38418 311.941 7.58333C314.86 7.18785 318.764 7.87994 319.095 8.68079C318.764 9.07627 315.192 9.37288 316.496 9.66949C317.045 9.66657 317.591 9.73306 318.122 9.86723C319.927 9.31293 321.771 8.88014 323.64 8.57203C323.971 8.0678 322.998 7.96893 322.998 7.58333C326.249 6.48588 331.778 6.68362 331.125 5.48729C330.794 4.49859 329.169 5.28955 325.949 4.89407C324.976 4.7952 324.002 4.19209 323.029 4.19209C322.698 4.19209 322.377 4.69633 322.377 4.69633C320.751 4.7952 318.474 4.19209 317.501 4.7952C317.169 4.19209 315.544 4.09322 313.918 3.89548C312.293 3.89548 313.266 4.7952 310.999 4.69633C308.39 4.69633 309.694 3.59887 306.443 3.79661C306.443 4.59746 304.818 4.19209 305.791 4.99294C302.861 5.48729 299.579 4.89407 295.065 4.99294C294.413 4.00424 291.483 3.59887 287.911 3.5C288.884 4.39972 286.927 4.4887 284.66 4.69633C284.66 4.19209 284.66 3.79661 282.703 3.89548C280.757 4.69633 273.603 3.99435 272.951 5.28955C266.739 5.59605 259.616 5.69492 255.712 4.59746C250.184 6.78249 237.512 5.79379 224.829 5.89266C224.498 4.99294 228.401 5.38842 228.732 4.59746C225.802 4.49859 223.845 4.89407 220.926 4.7952C219.621 4.99294 219.621 5.59604 218.969 5.99153C213.119 5.89266 207.58 6.48588 202.714 5.38842C201.796 5.79249 200.796 5.99841 199.784 5.99153C198.49 5.19068 196.865 4.30085 192.63 4.19209C193.935 4.7952 194.908 5.18079 192.63 5.69492C189.379 5.48729 188.737 3.59887 184.834 4.59746C183.851 5.28955 186.781 5.38842 185.155 5.79379C180.931 5.99153 179.306 4.99294 176.697 5.69492C175.071 5.79379 176.376 5.09181 175.071 4.99294C171.178 5.48729 167.596 5.19068 165.65 4.39972C164.345 4.7952 161.094 4.69633 160.121 5.19068C156.87 4.49859 151.994 4.69633 148.733 4.89407C148.091 4.39972 151.663 4.49859 149.385 4.19209C136.381 5.18079 119.795 4.59746 102.236 3.40113C100.29 3.40113 100.611 3.89548 99.3167 4.09322C98.9854 3.30226 96.0554 3.89548 94.14 3.30226C91.1309 3.79353 88.0905 4.09081 85.0396 4.19209C84.3873 3.69774 81.7886 3.5 80.4841 3.10452C79.8319 3.59887 74.6346 4.39972 74.2722 3.40113C72.6467 3.10452 76.5499 3.00565 76.8709 2.69915C73.62 2.30367 69.0749 2.79802 66.1449 3.10452C64.8404 2.45198 60.6163 2.45198 58.3386 2.79802C57.0444 2.79802 57.0444 2.30367 55.0877 2.10593C46.3081 2.10593 38.5225 0.711865 30.3745 2.60028C26.1504 2.79802 26.4714 1.71045 21.595 2.00706C21.274 2.60028 22.5682 2.89689 21.595 3.20339C20.6218 3.69774 16.0664 3.10452 15.0932 3.5C17.3709 4.59746 14.12 4.99294 13.7887 5.89266C10.2168 6.0904 4.36723 5.59605 5.34043 7.28672C10.2168 7.58333 11.8423 6.78249 15.0932 6.58475C16.7186 6.99011 15.0932 7.48446 15.0932 7.97881C16.3977 8.07768 19.3173 7.78107 18.6754 8.38418C14.4409 8.17655 12.1632 9.17514 6.96589 8.17655C7.61814 9.27401 3.06272 8.77966 1.43727 9.16525C2.91464 9.2179 4.35971 9.59334 5.66138 10.2627C7.61814 10.065 9.89585 10.065 10.5378 9.46186C10.5378 9.9661 11.5213 10.9647 10.2168 11.6568C10.5378 11.8545 13.1468 11.6568 12.4945 12.161V12.6554C11.3071 12.8053 10.1068 12.8384 8.91229 12.7542C7.93909 12.6554 9.2436 11.8545 7.93909 11.7655C6.74115 11.7519 5.54473 11.8513 4.36723 12.0621C6.31364 12.4675 6.96589 13.1596 5.34043 13.7627C3.70425 13.7649 2.07151 13.6193 0.464064 13.3277C-0.50914 11.9336 4.03593 11.7359 4.36723 10.2429C2.5262 10.0805 0.67198 10.1137 -1.16139 10.3418C-0.405607 11.0833 -2.19671 11.3305 -4.65043 11.5381C-5.15456 11.6342 -5.66962 11.6675 -6.18271 11.637C-8.62607 11.7952 -11.2144 11.9534 -12.2186 12.4379C-12.5499 11.9336 -10.2722 10.846 -7.34227 10.6384C-11.3697 10.6384 -15.2107 11.7161 -19 11.4986C-18.9948 11.5875 -18.9948 11.6766 -19 11.7655V12.0523C-17.9286 12.089 -16.8558 12.0493 -15.7905 11.9336C-16.1114 12.339 -14.7552 13.4266 -16.1114 14.0297C-16.8362 14.0297 -17.8611 14.0297 -19 13.9605V15.2161C-10.852 15.404 -4.64008 15.661 1.76857 14.4251C7.9805 15.3249 21.2844 15.226 25.8398 14.0297C28.1072 14.524 28.7594 15.5226 32.9835 15.5226V16.4223C32.3416 16.8178 31.3581 16.0169 30.7162 16.5212C32.9835 18.0141 28.4385 20.4068 20.363 19.8037C21.1498 19.161 21.9367 18.5184 21.3983 17.8757C20.6581 17.9459 19.9125 17.9459 19.1723 17.8757C18.0645 18.5282 18.7375 19.7345 17.4848 20.3475C13.5816 18.7556 9.35748 21.6427 3.17661 20.6441C2.85566 20.6441 2.85566 20.7429 2.85566 20.7429C3.05851 20.8236 3.27843 20.8575 3.49756 20.8418C3.49322 20.9009 3.46762 20.9568 3.42509 21C13.4988 20.5551 23.5518 20.1695 33.5944 20.0113C72.1291 19.5433 110.667 19.4543 149.209 19.7444C151.897 19.5792 154.592 19.5429 157.284 19.6356H703.5C709.688 18.3897 716.013 17.8816 722.332 18.1229H1361.6C1361.44 17.9251 1361.28 17.7472 1361.28 17.6285C1362.68 17.3428 1364.14 17.517 1365.42 18.1229H1367.27C1367.28 17.9134 1367.22 17.7056 1367.1 17.5297C1367.44 17.678 1367.9 17.8856 1368.35 18.1229H1417.58C1422.22 18.1254 1426.86 18.4559 1431.45 19.1116H1460C1458.56 18.4294 1455.46 18.2712 1452.65 17.9449ZM1366.48 16.7486C1365.84 15.4534 1366.16 15.1568 1367.13 14.0593C1370.06 13.8616 1369.41 16.8475 1366.48 16.7486ZM1397.69 16.5508C1396.72 16.5508 1395.1 16.452 1395.1 16.7486C1394.12 16.6497 1393.8 16.452 1393.8 16.1554C1394.81 15.75 1398.03 15.8489 1397.69 16.5508ZM1406.47 13.6638C1405.5 13.3573 1403.55 13.3573 1403.87 12.5664H1405.83C1405.16 13.1596 1406.8 13.0607 1406.47 13.6638ZM1411.03 16.5508C1407.13 16.2542 1410.38 15.0579 1408.75 14.2571C1411.36 14.2571 1410.71 15.3545 1412.33 15.75C1412 16.0466 1410.06 15.9477 1411.03 16.5508ZM1416.88 14.4548C1415.73 14.058 1414.52 13.8572 1413.31 13.8616C1415.58 13.2585 1412.65 12.5664 1414.28 12.1709C1415.14 12.2855 1416.01 12.3515 1416.88 12.3686V14.4548Z" fill="black"/>
</svg>
