<svg fill="none" height="35" viewBox="0 0 1440 35" width="1440" xmlns="http://www.w3.org/2000/svg" xmlns:xlink="http://www.w3.org/1999/xlink"><mask id="a" height="35" maskUnits="userSpaceOnUse" width="1440" x="0" y="0"><path d="m0 0h1440v35h-1440z" fill="#000"/></mask><g mask="url(#a)"><path d="m-10-9h1450v44h-1450z" fill="#000"/><path clip-rule="evenodd" d="m202.377 29.6362h6.74c-1.465-.7275-4.395-.5457-6.74 0zm307.697-215.1762c1.172-2.001 6.154-2.365 9.377-1.091 3.517-1.637 6.447-3.638 12.308-4.002-10.256-.728-21.099-1.455-26.374 1.637-.293 2.365 1.759 3.274 4.689 3.456zm31.356 2.001c-.293-1.455-3.81-.91-6.154-1.274v1.274zm68.572 2.182c.879-.545.879-1.637.586-2.728-2.93-.182-3.516-.546-4.688 1.091 1.758.364 1.465 2.001 4.102 1.637zm9.378-.182c.586-2.728-2.931-3.092-4.103-4.911 0 1.637-2.93 1.637-2.051 3.638 2.051.364 2.93 1.455 6.154 1.273zm274.875-5.274c3.81.363 3.517-1.274 5.275-2.001-1.758.364-5.568-.364-6.154.546 1.172.181.879.727.879 1.455zm15.825 4.547c.879-.728 2.051-1.637 1.465-3.274 2.344-.728 7.619 0 8.498-1.637-4.102-.546-12.015-2.183-13.187.727.879.546 2.931 0 2.345 1.274 0 .909-2.052 1.091-3.81 1.091v1.273c2.051.182 2.344.91 4.689.546zm101.39 15.461c-2.05-.364-3.51-.91-6.15-.728-.29.728-1.17.728-1.47 1.455 3.23-.182 5.86.728 7.62-.727zm4.11-1.092c-.3-.909.87-1.091.58-1.819-1.17 0-2.64 0-3.81.182-.29 1.455 2.05 1.273 3.23 1.637zm8.2-17.825c-2.34-.182-2.05-1.819-5.57-1.273-1.17 2.182 4.4 2.364 5.57 1.273zm19.63 1.273c-1.75-2.001-11.42-3.092-14.94-.909 4.69.545 10.26 2.182 14.94.909zm15.54 11.459c.29-3.274-11.43-.909-12.6-.545 2.93 0 9.08-.364 12.6.545zm-6.45-14.733c-1.47.364-5.28-.364-5.57.546 1.76.727 4.98.364 5.57-.546zm267.26 37.288c-.88 0-1.18-.546-1.47-.91-1.76.364-4.1.546-3.81 1.819 2.05.728 4.4.546 5.28-.909zm15.53-32.922c-1.17-1.274-3.81-1.637-.88-3.093-3.81 0-7.33-2.546-8.5.728 2.34.909 4.98 4.002 9.38 2.365zm9.96.181c-4.4.546-5.86 2.729-9.96 3.456 4.69 1.637 13.18 0 9.96-3.456zm6.45 17.098c-1.17 0-.88-.909-1.76-1.273-2.05 0-3.81 0-3.81 1.091 2.05-.363 4.1 1.637 5.57.182zm17.29 21.281c0-.545 0-1.273 0-1.819-1.76.364-5.57-.363-6.16.546 2.64.182 2.93 1.637 6.16 1.273zm15.53-20.735c-2.35 0-1.17-2.183-4.1-1.637-2.64.545-2.35 2.546-3.81 3.638 4.69.363 5.86-1.092 7.91-2.001zm-6.45-20.19c1.47 0 3.23 0 4.69-.182 1.17-1.091.59-2.91 2.93-3.274.88.728.88 2.001 3.22 1.637 8.5-1.273 9.97 3.82 16.41 2.365.3-3.092-.29-5.275-4.1-5.821-2.64.728-1.76 3.274-6.15 2.91-2.05-.909.58-2-.88-2.728-6.45.91-11.43-.182-17 .91 1.17 1.273.59 1.818-.58 2.728 1.17 0 1.46.546 1.46 1.455zm14.65 14.915c1.18-1.455 1.18-2.001.59-3.638-4.98 0-8.21.728-10.84 2.001 3.51.728 7.03 2.546 10.25 1.637zm-4.98 9.276c3.23-.727 4.1-2.728 6.16-4.183-2.93-.182-4.4-.546-7.04.182.88 1.819-.29 2.183.88 4.001zm14.95 1.274c4.69.545 6.44-2.729 9.37-.728-.87 1.455 0 5.093 1.76 6.366 5.86-1.819 12.9 1.637 17.29 3.638 3.52-.182 6.74-.546 7.04-2.365-2.93-.363-7.04.001-7.04-2 9.09-1.274 10.26.909 18.76-.546.88-1.455 0-1.091 0-2.728-4.11.363-6.16-.728-9.38-1.092-6.15 4.184-17.88-2-21.69 2.729-.87-1.455-4.39-.91-5.56-2.183-.88-3.092 4.1-3.092 3.51-6.002-5.27.909-4.98-1.637-9.37-1.092-1.18 1.274-1.47 2.911-4.4 3.274-.59-1.273 1.47-.909 1.47-1.819-4.11 0-6.74-.909-9.38.728 2.34 1.455 7.03 1.273 7.62 3.82zm10.55-21.463c.29-.728 1.17-1.092 1.46-1.819-.88-.546-2.64-.364-4.69-.364v1.273c1.18.364 2.05.728 3.23.91zm2.93-5.093c-1.76-.91-2.93.727-3.81 1.455 2.05.182 4.1 0 3.81-1.455zm24.32 20.735c-2.34 1.273-4.98.364-7.03 1.092 2.34 1.273 4.39 2.364 7.32 3.455 1.18-.909 3.81-1.091 2.93-3.274-3.51-.363-1.75 2.001-5.27 1.456-1.76-2.183 2.34-1.274 2.05-2.729zm14.95-.909c-2.93 1.273-7.04-1.637-10.85.363 3.52-.363 10.85 3.275 10.85-.363zm-1133.207 196.6232h2.051c.293 0 .293-.1819.293-.5457-.879 0-1.172-.3637-2.051-.1818-.293.1818-.293.3637-.293.7275zm11.135 0h1.172v-.1819c.88 0 2.052 0 2.052-.3638-.879-.3637-2.052 0-3.224.5457zm15.239 0h3.223c-1.758 0-3.516-.1819-2.93-1.8189-2.931-.3638-7.62 0-9.085 1.4551 2.052.7276 4.396-.7275 7.033-.7275.293.1819 1.173.5456 1.759 1.0913zm7.619 0h18.462c-6.154-1.4551-11.429.5457-16.997-1.4551-.586.1819-.879.9094-1.465 1.4551zm50.696 0h.88c-.293 0-.293-.1819-.587-.1819zm158.83 0h1.173c1.758 0 3.809-.5457 3.223-.7275-1.758.1818-4.689-.3638-5.275.3637 0 .1819.293.3638.879.3638zm29.305 0h3.81c-1.466 0-2.638 0-3.81 0zm82.052 0h3.517c0-.5457-2.051-.7275-1.758-1.8189 2.051.3638 3.809 1.2732 5.567 1.8189h7.327 185.497c-.293-.1819-.586-.3638-.879-.3638.293-1.8189 0-2.1826.586-3.6378 4.102-.3638 9.084-.7275 12.015-.3638-1.759.1819-2.052-.5456-1.759-1.4551 6.74-2.1827 14.652.3638 22.565.5457 0-1.637 3.516-1.0913 4.688-2.1827 5.275 5.4567 18.755-.9094 24.909 2.1827 0 2.1827-4.982.9094-5.568 2.5465 0 .9094 2.931.1819 2.638 1.2732-1.759.1819-2.345 1.0913-3.224 1.637.293 0 .586 0 .586.1819h28.719c.879-.3638 2.051-.5457 2.344-1.2732 7.033 1.2732 16.996-2.5465 21.099.3637 1.172-1.8189 5.861.3638 7.326-1.0913-6.154-1.8189-13.48.1819-17.289-1.637-.586-1.2732 2.344 0 2.344-.9095-1.465.1819-2.344-.1818-2.637-.5456 0 .7275 0 1.0913-.586 1.4551-3.517 0-4.982-1.2732-7.326-2.1827-1.173.7276-4.396 1.8189-5.568.1819.293-.9095 3.516 0 3.809-1.0913-1.172-.7276-3.809-.5457-3.223-2.3646 2.637.3638 5.568-.3638 7.912.1819.586.1819 1.172.9094 1.758.9094 2.052 0 4.982-1.2732 7.326-1.0913 1.759.1819 1.759 1.637 4.103 1.2732.293 1.0914 1.172 2.0008 1.758 2.9103 3.224-.1819 2.051-2.0008.586-2.5465 4.396-.7276 10.257 0 14.359.1819 1.47.9094-.29 1.2732.29 2.0008 8.5 0 16.12 1.2732 21.98-1.637-1.17 0-2.34 0-3.81 0-.88-.1819 0-1.637-.88-1.637-6.15-.9095-12.3 3.6378-15.53 0 6.16-1.2733 12.6-2.1827 19.93-1.6371 1.46-.7275 2.34-1.8189 5.57-1.2732.88.7276-1.18 1.2732-1.47 2.0008 1.17.7276 2.64 2.5465.29 3.0921 2.35 1.2733 7.62-.9094 8.8.9095-2.93 1.4551-7.92 1.637-12.31 2.0008 2.93 1.8189 10.55-.3638 14.06 2.1827.3-.3638 1.47-.1819.88-1.0914 2.93-.3638 4.11.5457 5.86.9095.88-.1819 1.18-.7276 1.47-1.4551 4.1.1818 10.55 0 9.96 2.1826 1.76-.1819.3-1.0913.59-2.0008 1.46-.1818 2.34-.7275 4.1-.7275 1.17 1.2732 1.17.9094.29 2.3646 1.47 0 2.06-.9095 2.64-1.4552 10.26.5457 21.39 1.8189 29.31.1819 5.56 1.0914 4.98-3.0921 9.08-1.8189-.59 1.8189-3.81 1.637-4.98 2.7284 1.17 1.4551 3.52-.5457 4.98.3638.29 1.2732-2.93 0-2.64 1.0913 4.99-.1819 7.92-.5457 10.26-2.7284 2.93 1.4552 9.67.7276 13.77 0-.58-.3637-.58-1.4551.59-1.4551.59 1.0914 1.17 2.3646 3.22 2.5465 1.17-.7276 2.93-1.0914 3.81-2.1827-2.64-.3638-2.64-1.8189-2.64-2.9102-2.63-.5457-1.75 2.1826-3.8 1.0913-5.28-4.3654 9.08-2.9102 12.01-1.4551-3.22-.5457-4.1 1.637-7.03 2.1827 4.39.5456 5.86-2.1827 11.13-1.8189.3 1.0913-2.63 0-2.34 1.0913.88 0 .29.7276.88.9094 4.98-2.3645 10.25 1.0914 13.48-1.4551 1.17-.1819 2.93.9095 3.81 0 0-.5456-2.05-.1819-1.76-.9094 1.46-.1819 3.22-.5457 4.69-.7276 1.46.1819-1.76.9095 0 1.0914 2.63-.7276 4.98 1.0913 7.32-.1819-1.46-.9095-4.1.7275-4.1-.9095.88-.9094 3.81-.1819 4.1-1.2732-2.93-.7276 0-2.0008-.29-3.6378 2.93-.1819 7.62.9094 7.91-1.0914-1.17 0-2.34 0-3.81 0-.29-.5456-1.46-1.8189-.29-2.3645 1.76.5456 7.33 1.8189 8.79.1818-1.46-.5456-4.1-.3637-6.45-.3637-.87-.7276-1.17-1.637-2.63-2.0008 1.46.3638 2.05-.7276 3.22-.7276 3.22-.1819 5.28 1.2732 8.21 1.637 2.05.1819 3.51-.7275 5.56-.7275 3.23 0 6.16 1.2732 9.67.7275-.29-.3638-.58-.7275-.88-1.0913 2.06-.1819 4.4-1.0914 5.87.1819 1.75-3.09216 10.25-1.81893 12.3.1819 3.52-.9095 5.86.7275 8.8.9094 0-.5457 1.46-.1819 1.46-.9094-2.05-.7276-3.22-.3638-4.1-1.81894-1.17.72754-2.64.90944-4.69.54564-.29-.90942 1.46-.3638 1.46-1.09131-1.75-.36378-2.34-1.63702-3.22-2.54647 4.4.54567 8.79-.18189 11.43 2.54647 3.22-.90946 5.57.36378 8.2.72751 0-.54562 0-.9094-.58-1.09129 2.93 0 5.57-.18189 7.91-.36378 0 1.63697 1.17 2.72837 2.35 3.81967 3.8-.1819 8.2-.1819 9.96 0s3.22.9095 3.81 1.2733c1.76-2.3646 5.57-.7276 9.38-.7276 2.05 0 4.68-.5457 7.03-.7276 1.46 0 2.34.1819 3.52.1819 2.63-.1819 5.56-.5456 9.08 0 1.46.7276 2.64 1.637 5.27 1.637 2.64.5457 7.33 2.5465 10.55 2.9103 2.06.1819 2.93.5457 4.4.9094 3.22.7276 6.74.9095 9.96 1.4552 2.05.5456 4.4 1.2732 6.45 1.8189 7.62-.1819 16.12.5456 24.62 1.637 2.63-1.637 3.22-4.5473 7.32-5.2748.59-1.0914-.29-1.6371-.88-2.3646-6.44-.1819-8.2 3.6378-12.3 5.4567-.88-.3638-1.47-1.0914-1.76-1.8189-2.05-.5457-4.69-.9095-6.74-1.2732-1.18 0-.3.9094-1.47 1.0913-2.05.3638-1.76-.9095-3.22-.9095-1.76-.1818-1.76.9095-3.23 1.0914-2.93.3638-6.74-.9095-9.08-1.2732.88-.9095 0-1.4552-1.17-2.0008-2.93.7275-7.04.9094-9.38-.3638-.88-.3638.59-.9095-.29-1.2733-2.35-.1818-2.93.5457-4.69.1819 0-.7275-.29-1.2732-.59-1.637-1.76 1.4551-6.44.7276-9.37.1819-.88-1.8189-2.64-2.72834-5.28-3.4559.88-1.63702 3.52-3.27403 6.45-2.0008 0 .90945-.3 1.63702-1.17 1.81891 4.39.36378 9.08 1.45509 13.48.36378 1.46 1.63701 7.61 2.18271 9.08.36378h.88c.59-.18189 1.17-.18189 2.05-.18189 2.64-.36378 4.69-1.09135 6.45-2.0008 4.98-1.45512 11.72.54567 15.24-2.00079-.3-.54567.29-1.27324-.3-1.45513.59-.36378 2.35 0 3.52-.18189-.29.72757.29.90946.88 1.27324 3.51-.72756 8.79-.18189 12.01-.54567 1.76.54567 2.35 1.8189 4.4 2.18268.88.18189 1.17-.18189 2.05-.18189 1.76 1.8189 11.43 0 12.01 2.0008.3 1.09134-1.46.72756-1.75 2.00077.88.7276 2.34.9095 4.1 1.2733.29.3637.29 1.0913.59 1.4551 3.22-.1819 3.22 1.4551 6.15 1.2732.29.5457.59 1.0913.59 1.637 1.75 1.0914 5.27 1.637 7.32.3638-.58-.3638-1.17-.3638-1.17-1.0913 1.46-.1819 2.34-.7276 3.52-1.0914 1.46 0 1.46 1.0914 3.22 1.0914-.29.9094-2.35.5456-2.35 1.2732 1.18 1.8189 6.45 1.8189 9.97 1.2732 0-1.0913-1.76-1.4551-3.52-1.4551-.58.1819-1.17.1819-1.46 0-.3 0-.59 0-.59 0h.59c0-.9094.88-1.0913 2.34-.9094 0 .1818 0 .5456-.29.7275.88-.1819 1.76-.3638 2.05-.9094 3.22-.1819 5.57.5456 8.5.7275h3.81c0-.3638.58-.9094.58-1.2732-.88-.1819-3.22.3638-2.63-.5457 3.51.3638 4.98-1.4551 9.67-.9094-.59-1.8189 2.93-.9095 4.1-1.637-1.76-.1819-2.35-.9095-3.22-1.819-1.47.3638-3.23.3638-3.81 1.4552-.3-.9095-.88-2.54649 0-3.63784-.3-.54567-2.35 0-1.76-.90945 0-.36378 0-.54567 0-.90945.58-.36378 1.76-.36378 2.63-.18189.88.18189 0 1.63701.88 1.63701.88-.18189 2.35 0 2.64-.54567-1.76-.54567-2.05-1.8189-.88-2.91025 1.76 0 2.64.36379 3.52.54568.88 2.36457-2.64 2.54646-2.93 5.09293.58.36383 2.93 0 4.1-.18189-1.17-2.72836 6.74-1.81891 8.21-3.63781 0 .18189 0 .54567-.3.90945.59-.18189.88 0 1.47.18189-.88.36378-1.47.90945-2.05 1.45512 2.93-.72756 5.57-2.00079 8.5-.18189.58-.18189 1.46-.36378 1.46-1.09134-3.81-.18189-2.93-1.09134-6.45-.36378 0-.72756-.88-2.36457 0-3.45592 1.76-.18189 5.57.72757 7.92 1.27324 4.68-3.09214 13.77.72756 17.87-2.36458v-.18189c-4.98.18189-12.89.18189-17.29-1.637016-.88 0-.29.909456-.88 1.091346-9.08.18189-15.24-1.273234-21.1 1.45512-.29 0-.58-.18189-.88-.18189-3.22 1.45513-3.51 2.0008-8.49 1.45513-1.76 2.18268-5.28 8.54884-9.38 5.82044-.88.5457-.59 1.6371-.59 2.7284-.58 0-1.17 0-1.76 0 0-2.5465 1.18-6.18427 1.76-9.64019-1.17-.90945-1.76-1.8189-4.39-1.63701 0-.54567 0-.909455 0-1.455127.58-.72756 1.46.545676 1.76-.1818863-1.76-2.5464667 1.46-6.3661667 7.91-5.6386067-.59 1.27323-1.47 2.72836 0 4.00159 2.34-.54567 1.17-3.45591 2.34-4.72914 3.23 2.54646 6.16-2.36458 11.14-.72757.58-.36378.58-1.09134.88-1.45512 1.75 0 3.51-.36378 5.27-.72756-.58-.36378-.88-.90948-1.17-1.63698 1.46.9094 4.39-.1819 2.34-1.0914-.88 1.637-2.63-.3638-3.22.3638v1.4551c-2.05.1819-2.34.5457-4.4 0-.29-1.4551 2.06-2.5464-1.17-2.7283-.29.5456.59 2.0008-.58 2.0008-.3-1.637-1.18-3.2741.58-3.8197 3.81 1.637 8.79-3.0922 9.97-3.8197-.59.7275-1.76 2.7283 0 2.7283.29-.9094.58-1.637 1.75-2.0008 1.47 3.8197-2.63 7.0938 1.76 9.27644-.29 0-.58.18189-.58.18189v.18189c0 .18189 0 .36378-.3.36378 0 .36378 0 .54567-.58.72756-.59-.18189-1.18-.36378-1.76-.54567-.29 0-.59.18189-.59.36378 2.64-.18189 2.35 1.27323 4.11 1.45512.87-.36378 1.75-.54567 2.63-.72756-.58-2.00079-1.76-4.54723 2.05-5.82053.59 1.4552.88 3.09218.88 4.72919 1.47.72756 2.35.72756 3.81.72756-.29-.36378-.29-.72756.3-1.09134.29.90945 1.75.90945 1.75 0-1.46-1.09134-2.63-.54567-5.56-1.09134 0-1.09137 0-2.36457 1.75-2.36457 1.76.1819.59 2.00079 1.76 2.36457-.29-1.27327.59-1.81887 2.35-2.00077 1.46.1819 1.17 1.27321 3.22 1.0913-1.17.90947-1.46 2.36459-1.46 4.0016 3.81 1.09134 10.25-1.63701 13.18.36378 0 1.81891-.88 2.0008-1.76 3.63781-.88-.72756-1.17-1.63701.59-2.00079-1.47 0-2.64 0-4.1 0-.59.90945-1.47 2.00079.29 2.54646 1.17.36378 2.35-.90945 2.64 0-.59 0-.59.54567-.88.909451 2.93-.363781 1.76 1.637019 3.52 1.818909 0-.363783 0-.727566 0-1.091347 0-.1818901.87-.363781.87-.727562 0-.727561-1.46-1.818901-1.17-2.910241.3-.72757 1.76-.72757 1.17-1.63702.3 0 .59-.18189.88-.18189-.29-.36378-.58-.72755 0-1.09133-.29.18188-.58.18188-.58.36377-.59-1.63701-.3-4.0016 0-5.4567.88-.5457 1.17 0 2.05-.1819 0-3.274.88-6.1843-2.05-8.5489v1.4552c-.3.3638-1.47 0-1.76.3638-.88 2.3645 3.81 4.7291.29 6.0023-1.46-2.3645-2.34-4.911-2.05-7.6394-.88-.5456-1.76-.9094-1.46-2.1826.58-.3638 1.17.3637 2.05.5456.58-.3638 2.34-.9094 3.22-.1819 1.17-.9094-1.17-2.9102.88-3.274 1.46 1.0914 1.76 2.9103 2.34 4.7292 1.47-1.0914 0-3.456 1.18-4.9111v-.9094s-.3 0-.59 0c-.29-.7276 0-1.2733.59-1.637v-.9095c-.3-.1819-.59-.1819-1.18-.1819 0-1.2732 0-3.0921 1.18-3.6378v-.5457c-.3 0-.59.1819-1.18.1819-.29-.5457-.88-.9094-.88-1.637 1.18-.3638.88-.5457 1.76-.1819v-.3638c-.29-.1818-.58-.3637-1.17-.5456.59-4.0016 1.47-8.1851-.29-11.2772.88-2.1827-3.23-1.8189-2.05-3.456 1.76.1819 1.75 1.4552 2.93 2.0008.29 0 .29-.1819.58-.3637v-.3638c-.29-.3638-.88-.9095-.29-1.2733h.29v-1.637c-.29-.5456-.88-.9094-1.76-1.2732 1.47-1.2732.59-3.6378-.29-5.2748-.29.1819-1.46.3638-1.46-.1819 1.17-.1819 2.34-.3638 2.63-1.2732-.58-.5457-1.17-1.0914-2.34-1.4552-.29.9095-1.76.9095-2.93 1.0914-.59 1.0913 2.05.7275 1.17 1.4551-4.1 2.0008-2.93-3.4559-1.76-4.5473-.29 1.2733 1.76 1.637 2.35 2.7284.58-1.637-2.35-2.1827-2.05-4.1835 1.17-.1819 0 .9095 1.17.9095 0-.3638.88-.1819.88-.3638-2.35-2.0008.88-4.0016-1.76-5.0929-.29-.5457.88-1.0914 0-1.4552-.59 0 0 .7276-.88.7276-.29-.5457-.59-1.2732-.88-1.8189 0-.5457.88.7275 1.17 0-.88-1.0914.88-2.0008-.29-2.9103-.88.5457.88 1.6371-.88 1.6371-.88-.3638-.29-1.4552-1.46-1.6371-.59 1.0914-2.06 0-3.81.1819-.3-1.0913.58-2.9102-1.18-3.0921v1.4551c-.58 0-1.75.5457-2.34.1819.59-.7276 1.76-2.9102 0-3.274-.29.5457-.29 1.637-.29 2.5465-.59.3637-1.76.5456-2.05 1.0913.29-.5457-.59-.7276-.88-1.2732-.3-1.2733 1.17-2.0008 1.46-3.2741 0-.7275-.88-1.4551-.88-2.1826 0-1.2733 1.17-2.3646.59-3.6379-.29.1819-.59.1819-1.17.3638-.3-.7275-1.18-1.8189 0-2.3646-3.23-.5456-2.05-4.0015 0-4.7291-.88-1.2732.58-2.1827.88-3.274-.59 0-.3-.5457-.88-.5457-.59.7276-.3 1.2732-1.76 1.637.88.3638.88 1.0914.58 1.8189-.87.1819-.29-.5456-1.17-.5456-.29.7275-1.46.9094-2.64 1.2732.59-1.637-.29-3.4559 2.35-4.3654-.88-1.2732.29-2.1827.59-3.2745-.59 0-.88 0-1.18.182 0-1.091-.29-2.182-.58-3.092 1.75 0 2.63-.364 3.81-.909.58.182.58.727 1.75.545.3-.909-.87-.727-.58-1.637.58-.545 1.17 0 1.76-.363 0-.182 0-.728-.3-.728-.58.364-.58.546-2.05.364.3-1.637 1.17-3.092.88-4.547.59-.546.88.545 1.17 0 .3-.728-.88-.546-.58-1.274 1.17.182.29-.909 1.46-.909.88 1.273 1.47 3.456 2.93 4.911-.58 2.546 1.47 6.184.59 9.2764.29.5457 1.17.5457 1.46 1.2732-1.17 1.4552-2.05 3.6378-.58 5.2748 0 .3638-1.17.1819-1.47.5457 1.47.1819 0 .7276.3.9095.88 0 .58-.5457 1.75-.3638.59.5457 0 1.8189-.87 2.0008-.88.1819-.3-.5457-1.18-.5457-.58.1819-.29.9095-.29 1.4551 3.22.1819 2.93 3.456.88 4.1835-.29-.5457-.29-1.4551-1.47-1.637-.58.1819-.29.9094-.29 1.4551.29.3638 1.76-.1819 1.47.5457 0 .5457-1.18.1819-1.18.5457.3.3637-.58 1.4551.59 1.2732.59-.1819-.59-1.0913.59-1.0913.58.7275-.3 2.0007-1.76 2.1826-.59 0-1.17-1.0913-1.76-.7275 0 .1819 0 .3638-.29.5456.88.5457 1.75.9095 2.34 1.6371.88.1818 1.17-.1819 1.76-.1819 2.05.9094 1.76 2.5464 3.81 2.3645 1.46-.1818.29-.7275.88-1.637.29-.3638 1.17-.7275 1.17-.9094l-.88-.1819c-.29-.5457.59-1.0914-.29-1.4551.88 0 1.17-.5457 1.46-1.0914 0-.5456-1.46-.1819-1.46-.9094 0-.7276 1.76-.3638 1.46-1.4551-1.17 0-.58-.3638-2.05-.1819-.88-.9095 0-1.8189-.29-3.2741 1.46-.1819 2.05-1.0913 2.34-2.1827-1.46.3638-1.46-.1819-2.05-.9094.88 0 1.47 0 1.47-.5457-1.47-.5456-.3-2.7283-2.64-2.9102-.59-1.8189-.88-3.8197.88-5.093-3.81-1.455-2.35-5.275-2.93-9.094 1.46-.182.88 1.091 2.34 1.091 0-.91-.58-1.455-.58-2.365-.3-.363-1.47-.363-2.05-.545 0-1.637-1.18-3.274.58-4.73-.58-.181-1.17-.363-1.17-.909 1.46-.364 2.64-.909 2.93-2.183-1.17.364-1.76.728-2.64 0 .3-.909 3.52-1.091 1.76-2.364-1.17-.182-1.17.545-2.05.182-.29-1.274 1.17-1.637 0-2.547 0-.364.59-.364.88-.364.58-.363-.59-1.091-1.17-1.091 0 .364 0 1.091-.59 1.091 0-.545-.29-.909-.59-1.091.59 0 1.47-.182 2.35-.364 0-.727.58-1.273 1.17-1.637-.59-.364-.59-1.273-1.46-1.637 1.17-.909.58-2.364.29-3.274.58-.182.58.91 1.17.182-2.05-3.82-1.46-8.731.29-13.824 0-.545-.88-.545-1.17-.909 1.17-.182.59-.728.88-1.273-.59.182-1.46.545-2.05.909-.29-.545-1.47-.364-2.34-.364-.3-1.637-1.76-4.183-2.64-6.73-1.76 2.365-.88 7.094.58 10.004-4.98 0-4.98-3.092-8.79-3.819-2.05.727 3.52 2.182.88 3.638-1.76.909-3.52-1.092-6.15.181.58 2.729 4.69.728 6.44 1.274-1.75.545-2.05 1.819-3.8 2.364-5.28.728-5.57-1.819-8.8-2.546-6.44 2.001-14.36-.546-19.34 1.819-4.39-1.092 2.93-3.82-2.63-4.002.29-1.637 6.44-1.273 5.56.728.88-.91 2.93-1.092 3.81-1.819 1.76.545 3.81 1.091 7.04.727 1.17-.363 1.75-.727 2.34-1.455-.59-2.364-7.33-2.001-9.38-2.001.3-1.637-.88-2.364-2.34-2.728-3.23-.182-2.93 1.637-7.03 1.091 0-1.273.29-2.728-1.76-2.728-3.23.182-1.18 3.456-6.16 2.91.59.364.59 1.274 1.76 1.274-.88 1.455-2.64-.364-4.69.181-3.22.91-1.76 2.547-.58 4.002 2.34 0 4.69-.182 7.03-.182-2.64-.546-2.64-1.819-.88-3.092 1.76 2.546 3.52 2.91 3.52 5.82-5.57 3.82-19.34-2.182-24.91 2.183 0 .182-.29.364-.59.546 0 0 0 .182-.29.182h-.29c-.59.182-.88.545-.88 1.091 5.56 3.638-.3 7.276 3.81 11.459 0-.364 0-.727.58-.727-2.34 5.82 0 16.734-7.32 21.463 4.1 1.455 1.17 4.183 3.81 5.8202-1.47.9094-3.52 1.2732-4.4 2.3645.29.7276 1.17 1.0914 1.76 1.4552-1.47.7275-4.4.1818-6.74.3637-1.47-2.9102.58-6.0026.58-10.0036.3-4.911-2.93-10.004-1.17-14.915 1.76-5.457 2.93-11.823 3.52-18.735-1.17.182-2.05.364-3.52 1.091-2.05-1.273-5.57-1.819-8.2-2.546.29 1.819.58 3.456 2.05 4.911-2.93.727-3.22 2.91-5.57 3.82 3.22 2 1.17 7.093 4.4 9.276-2.05 4.002-6.45 7.094-3.81 12.187-3.23 3.092-4.69 8.367-2.35 11.8225-2.05.9095-1.76 3.0921-4.98 2.3646-2.05-4.1831 1.17-9.6401-3.22-10.3681 3.22-4.547-.59-11.641 1.76-16.006-2.06-.364-2.35-1.637-3.23-2.728 3.81-2.547 1.47-6.548 2.05-10.004-2.63-.364-5.27-.91-7.91-.91.29.91.59 1.819 1.47 2.547-3.23 2.91-1.18 5.638-1.76 8.73 2.34.91 1.46-.727 3.22 0-.88 1.456-2.05.91-3.22 2.729 3.22.364 1.17 3.092 5.57 4.183-.3 1.455-.88 1.819 0 3.092-2.06-.363-1.18.91-2.35 1.092.29-.91-.29-1.637-1.76-1.455 0 .909-.29 2.182.59 3.819.88 0 2.05-1.637 1.76 0-1.17 3.092-4.11 3.456-6.74 5.275.88 1.455 1.76 6.184 2.34 5.821-.58 0-.58-.364-1.17-.364.59 2.5463-2.05 5.2746-3.81 7.6392 3.22 1.4551 8.5-.5457 7.33 2.3646 0-.5457-1.47-.3638-2.35-.3638 1.47.9095-1.76 3.274-2.34 2.7284.88-.1819 1.17-.9095 1.17-1.4552-.59-1.0913-4.4-2.5464-5.57-.7275 1.47.9094-.58 1.637 0 3.0921-1.46 0-2.93 0-4.39 0 2.05-2.3646-2.93-.9094-4.4-2.3646 2.35-1.0913 4.69.1819 5.57-1.4551-4.4.7276-6.74-.5457-9.38 0-.88.1819-2.34 1.4551-3.81 1.4551l-2.34-.7275c-7.62-.1819-20.22 0-26.38.3638-7.91.3637-15.53-3.0922-21.68 0-2.64-1.4552-7.62-.5457-10.55 0-9.09-3.456-.88-6.3662 6.15-7.6394 10.84 3.0921 20.22-1.6371 30.77-.7276 4.1.3638 7.33 2.3646 12.31 2.0008-.29-1.0913.29-1.637 1.76-1.4551-.88 2.1827 7.32 2.7283 10.55 2.3646 0-.9095-1.17-1.819-.59-2.7284h2.35c-.3 1.0913-2.06 1.4551-1.18 3.0921 2.35.1819 4.11 1.2733 5.57 0 1.17.5457.88 2.0008 3.23 2.0008 0-2.0008 2.63-4.1835 1.75-5.2748 2.35-.1819 2.35.9095 4.4.7276.88-3.6381.29-5.8201 1.17-9.6401-.59 0-1.46-.182-1.76-.364.3 1.273-3.22 2.001-3.81.728 2.05.363 2.64-.364 3.52-.728-2.64-.909-2.64-3.092-6.15-4.547.58 1.091.58 1.091 0 2.364 2.34 0 2.93 1.274 3.81 2.365-1.76.546-6.45.909-6.16 3.82.29.545 1.47.363 1.76.727 0 1.092-2.34 1.637-.59 2.729-3.51.5453-4.1 0-7.32-.364-.3-1.455 1.46-1.455 1.17-2.729-.88.364-1.47.364-1.76-.363 2.05-.91 3.23-1.455 4.98-1.455 0-.364 0-1.092-.58-1.092-.88 0-1.18.546-1.76.728 0-.91 1.17-1.273-.59-1.455-.29.909-1.17-.546-2.34 0 0 .363 0 1.091-.59 1.091-.29-.728-1.76-1.091-3.22-1.091-20.22 1.273-42.49-1.274-60.37.727 0-1.091-2.05-1.091-2.34-2.001 2.63-3.455 12.31-2.728 21.1-3.092 10.55-.545 20.51-.909 28.42-1.091 8.79 1.637 15.53 2.365 24.62 1.455-3.52 0-1.47-2.365 0-2.001-.3-1.091-2.35-1.091-2.35-2.364h3.81c.88.909-2.34 1.273-.58 1.455 3.22-.182 3.51-2.001 3.22-3.092-.88.545-1.46 1.273-3.81 1.091.29-.728-.88-.728-1.17-1.091 3.52 0 3.52-2.729 3.81-3.82 2.05-.364.88 1.273 2.34 1.091.88-.545.88-1.819-.58-2-2.64.909-8.5-.182-10.55 1.091-.59-2.365-8.21.182-14.66 0-4.98-.182-7.03-.91-9.37.727-9.09-2.546-23.15-.545-34.58-.727-2.64 0-5.57-1.091-7.91-.364.58-1.091-1.18-1.091-.59-2.364 2.93-1.456 8.2.545 11.14-1.092 9.37 1.819 23.73-1.273 31.35.364 8.21-.728 14.95-.364 23.44 0-.58-1.637 0-.91 0-3.092 1.18 0 1.47.364 2.35.364 1.17 1.819-.59 1.273-1.17 2.728 3.81 2.183 8.5-.546 11.13.728 0-.546 0-1.274 1.17-1.092 2.35.182 1.76 2.001 4.4 2.001 1.47-2.365-2.93-3.092-1.17-4.184 1.17 0 .88.728 1.76 1.456 3.22-3.274 2.34-7.64.58-10.732 1.17-.546 1.76-1.273 2.35-1.819-7.62 2.001-12.9-4.911-18.17-1.091-1.47-1.637-.88-4.547-2.05-6.366-1.18 0-2.05 0-3.23 0-.58 1.637.3 3.274 1.18 4.911-7.62 1.091-12.9-1.819-14.07-4.911-17.29-.364-34.58-1.455-49.23-.364-.3-1.273-3.81-.728-4.4-2.001 3.23-1.637 8.21 0 10.55-2.001 0 .546 0 1.274 1.17 1.092 15.24.909 28.43.545 41.62.909 0-.546.29-1.091.58-1.455-.88-1.273-2.05.728-3.22-.364 0-.727 0-1.455 0-2.182 5.57 0 6.15-2.547 9.08-3.82 5.86 3.092 23.15 3.456 31.36 1.091 10.55 4.184 20.81 1.819 36.04 1.819 1.18.182.3 1.819 1.76 1.819 7.33-3.092 21.39-3.274 29.6-3.092-6.45-5.275-22.57 1.273-30.48-3.82-3.51.91-9.96 2.365-13.18 2.183-1.76-1.637 0-4.366-.3-5.457 5.86 1.091 4.69-.364 10.85-.727 0-1.092-1.18-1.456-2.35-1.819-6.45 3.819-12.6-.728-19.63-.91 3.51.546 6.74 3.456 6.44 4.729-2.93-2.728-16.41-1.273-14.36-5.456-1.75-.364-6.15-.728-7.03-.182.29 4.001 6.16 4.365 4.98 8.003-1.76.364-3.22 1.091-6.15 1.091-2.35-1.637-1.47-3.456 1.46-4.547-.87-.728-3.22-.364-4.68-.728-1.76.182 0 2.365-1.47 2.729-2.05.182-3.81.182-4.69-.364 0-.364 0-.909 0-1.273-.88-1.455 2.64-.728 2.93-1.455-1.76-1.819-.58-4.548-.29-5.821.88 1.455 3.81 1.637 6.45 2.183 1.17-1.273 2.63-2.365 5.27-2.91-2.05-1.092-7.91.181-7.03-2.547-8.21.728-10.84-1.819-16.41-1.455-.88-1.637 2.93-.728 4.69-1.091 0-1.455-2.05-2.547-.3-3.638 4.11.727 6.16 2.546 12.6 2.001 1.18-4.366-6.15-3.274-11.13-3.82-.29-2.365-4.4-3.456-1.76-6.366-1.46-1.092-7.03.364-8.5-.728-1.46-.727.59-1.455-.29-3.092-6.15-.727-5.86 2.183-11.72 1.637-10.55-5.093-20.52-1.273-31.94-1.455-1.47.364-1.18 1.637-2.94 1.819-2.63-1.091-8.49-1.091-9.96.727-3.81-.727-9.67-2.182-14.06-.909.29.909 5.27.909 3.22 1.637-.29 2.728-7.33.728-7.91-.728-1.76 1.092-4.99 1.456-6.16 2.911-4.69-.364-8.2-1.274-11.72-2.365-2.34 1.455-6.45 0-7.03 2.001-1.47-.364-1.47-2.001-4.1-1.637-22.28 3.274-43.96 4.547-60.67 2.001-2.93.727 1.76.545.88 1.819-4.1-.364-10.55-1.092-14.65.909-1.46-1.273-5.27-1.091-7.03-2.001-2.64 2.183-7.33 2.91-12.31 1.637-1.46.182 0 2.001-2.34 1.819-3.52-2.001-5.57.728-10.85.364-2.05-1.091 1.76-1.273.59-3.092-4.98-2.547-5.86 2.364-9.96 2.91-2.93-1.273-1.76-2.365-.3-4.002-5.27.364-7.32 2.365-9.08 4.73-2.35 0-2.93-.91-4.1-1.637-6.45 3.092-13.48 1.455-21.1 1.455-.88-.91-.88-2.547-2.64-3.092-4.1.181-6.15-.728-10.26-.728.3 2.001 5.28.91 4.98 3.456-16.7-.182-32.82 2.183-39.85-3.456-5.27 2.91-14.358 2.546-22.564 2.001-.586-3.456-9.963-1.455-12.6-3.82-2.345-.182-2.345 1.091-2.345 2.365-2.93-.546-5.275-.91-4.102-3.092-4.689.363-8.206 1.455-9.085 3.819-6.154-.182-10.256 1.273-14.066 0 1.172-2.182-.586-1.091-.879-3.092-4.396-.364-2.637 2.365-6.154 2.365-2.93.182-1.465-2.183-4.103-2.183-2.051.546-4.395.909-4.688 2.365-1.172-1.456-4.103 0-6.154-.364 0 0-.586-1.273-.879-1.273-1.173 0-2.345 1.637-3.81 1.818-4.103.91-6.154-.909-7.033 1.456-.879 3.092 6.447 2.546 10.55 5.638 0 1.092-1.173 1.455-.587 2.729 2.638.909 4.982 2.182 7.327 3.455.586-.181 1.172-.545 2.344-.545 1.758-.728-2.93-1.455-3.224-2.547.587-2.182 5.568-3.819 9.085-2.91 0 2.001-4.103-.182-4.689 1.091-.586 1.819 3.81.546 5.568.728 1.465-.182 0-2.001 2.344-1.819 2.931-.546.879 2.001 2.345 2.183 2.344-.182 4.982.182 6.154-.546-.586-1.819-4.396-1.637-7.034-2.001 3.224-3.274 17.29-4.365 18.755.91 2.345-.182 4.982.182 6.154-.546.293-1.273-2.93-.364-2.344-1.819.879-1.455 5.861-2.546 8.498-1.637.879 1.637-1.758 1.273-1.465 2.729.586.363 2.637-2.001 3.81.363 1.465-.363.293-2.182 2.344-2.364 7.326 2.182 16.704.364 23.447-1.455 2.63.182 3.51 1.637 5.56 2.182 12.9-1.637 29.31 1.274 40.44-.182 7.04 2.001 16.12 2.547 21.98 4.002.59 1.819-4.69.546-3.81 2.365-3.22.545-2.34-1.274-5.56-.728-2.06.546 2.34.909 0 1.819-6.74-.182-12.9 1.091-20.22 1.819-1.18-2.001-.3-2.001 1.46-3.274-.29-.546-2.05-.364-3.22-.364-1.76.909.88 1.819-1.47 2.728-3.81.546-3.22-1.273-7.03-.727-.59 1.819 2.05 1.637 2.34 2.728-1.76 1.637-3.51 3.274-3.51 6.003-3.81-.546-8.5-.728-13.19-.546.59-.364.88-1.091.59-1.819-4.4.546-8.5 2.546-14.07 1.273-4.103 4.184-12.015 3.092-19.341 4.184 1.465-1.637 2.344-3.456 5.274-4.184.294-1.273-2.93-.364-2.344-1.819 3.224-.727 5.861-.545 7.912.728 1.759-2.365 3.517-1.637 6.74-2.91.289-1.092-2.344-.364-2.344-1.274-4.689.546-8.791 3.274-14.652 1.819-3.224 3.274-18.169 5.457-21.099.546-2.345 2.001-6.74.546-10.257.182.293-.728 1.172-1.091 1.465-1.819-6.154-.91-10.842 1.273-16.41 1.273-3.224 0-6.154-1.273-9.378-1.091-4.981.364-8.498 2.91-13.773 2.546-2.344-.182-3.223-2-5.568-1.273 2.345-.546 3.224-2.183 4.396-3.274 3.81-.182 8.205 0 10.843-.728-2.345-2.728-11.722-.545-14.653.364-1.758-.545.294-2.728.587-3.638 2.051 0 4.102-.181 6.154-.181-.587-2.911-8.499-1.274-13.187-1.456.879-2.728-4.396-4.547.586-5.82-.587-1.637-5.861-.728-7.034-2.001 0-2.546 4.396-.182 7.034-1.455-4.103-1.819-7.913.91-12.601-.182-2.931.546 2.637 1.637 0 1.819-2.638-.364-4.982-.909-7.913-1.091-.293-1.274 2.931-.546 2.931-1.455-1.465-1.274-4.103.363-6.154.181-5.275-4.001-14.066 1.456-22.858-2.182-1.172.182-.293 1.273-1.465 1.455-.293 1.637 4.689-.182 4.103 1.637-8.791.546-11.722-3.638-18.755-2.728 4.689.909 6.447 4.183 11.722 3.274-4.982 2.182-29.012 4.729-20.513-2.183 3.223-1.637 1.758 2.728 6.447 1.637.293-1.819.293-4.002 4.395-4.547-1.172-1.637-4.102-2.365-6.447-3.456-3.516.364-4.395 2.364-5.274 4.183-2.052 0-2.052-1.637-.88-2.182-7.326-1.092-18.168-2.183-23.443.181-4.103-3.455-9.084-3.819-17.29-4.001-.293 1.819 5.275-.182 4.689 1.637-2.637 1.455-6.74-1.637-8.498.727 2.344 1.819 7.912 1.637 8.791 4.366-7.326 2.001-6.447-4.547-15.824-2.729-13.773-2.546-32.528-.363-49.818.91-1.465-.728-2.051-2.001-4.689-2.183 1.466 2.001 1.173 1.819-.586 3.638-2.93 0-4.395-.909-7.033-1.091-.293-1.274 2.052-2.729-.879-3.092.879 3.274-9.963 3.274-16.997 3.637-.293-1.091-.879-2-2.344-2.182-3.223.545-4.982 2-9.963 1.637.879-1.455-1.172-1.092-1.759-1.819-6.154 4.183-19.048.909-24.029 3.819 7.912.546 16.41.728 21.099 3.093-1.758 3.092-10.55-.182-14.652 1.819 3.516 1.091 1.465 3.819-.586 4.911.586 1.091 4.102 2 2.637 3.092-5.568.909-7.033-.91-9.377-2.001-12.308.909-23.151-.364-33.7-2.365 5.274-5.638 16.117 1.274 26.373-.182 1.759-.181.001-2.364 1.466-2.728 2.051 0 4.102-.182 6.154-.182-10.257-4.547-23.151-2.546-37.51-2.183-1.172 1.274 1.758 1.638-.586 3.093-6.74.545-16.704 1.637-24.03.545 2.638-.909 4.396-4.001-.879-4.001-.879 1.455-2.344 2.728-2.93 4.547-4.103-.728-4.103 1.637-7.033 2.001-4.103.364-9.085-1.637-12.601-1.455-1.172 0-2.052 1.273-2.931 1.455-3.809.727-8.791-.364-13.187.364-1.172-2.729 3.224-2.729 5.275-3.82 0-1.819-5.568-.182-6.447-1.637 2.051-2.547 7.033-.91 9.377.182 3.81-1.274 6.447-3.274 12.308-3.456.586.545 1.173 1.273.879 2.182.587-.727 2.052-1.273 4.689-1.091 0-1.273-4.982.728-4.102-1.273 6.74-3.092 19.341 0 29.597-3.092-2.637-2.183-10.549 1.455-12.601-1.455-7.033 4.729-24.029-1.274-35.751.909-.879-1.637-4.396-1.637-5.568-3.092-12.015-.546-27.546-1.455-37.51-1.819-1.465.182-1.465 1.273-2.344 1.819-1.465-.364-2.051-1.273-4.689-.728 0 1.637.586 1.819-3.809 2.365 1.758 1.091 2.637 2.365 5.567 2.546.293 1.456-4.688.364-4.688 2.001 1.172 2.547 9.67.546 9.67 3.82-9.963 4.729 55.093-5.093 46.301 3.82-1.758-1.637-7.912-.728-7.912-3.456-13.48.545-26.96 4.729-38.096 1.455-.293-1.455 0-2.547 2.931-2.365-4.982.728-13.187.182-20.22-.364-.88-2.364-.293-3.092-1.173-5.82 2.931-1.273 3.81-3.638 6.74-4.729-1.172-1.273-3.516-1.819-6.447-2.183-2.344 1.637 2.638 1.455 1.759 3.638-6.154-.909-10.55-6.002-18.755-2.728-15.825-5.275-36.045.363-53.92-1.819 6.154-.91 12.307-1.455 18.754-1.637h-433.7053c0 1.091 1.1722 2.182.8792 3.274-.5861 1.455-2.9305 1.819-2.9305 3.456 1.7583 0 1.7583.727 2.9305.909.293 1.091-.5861 1.455-.5861 2.365-1.4652-.182-1.4652.545-2.6374.545-.5861-.909.293-1.455-1.17219-1.819-2.05132 0-2.05133.546-3.51654 0 .58608.546-.29305.728-.29305 1.274-1.46522-.546-.87913.727-2.05131.727-.29303-.545.87913-.364.58609-.909-.29305.182-.29304.182-.58609.364v.181c-.58608.182-.87913.364-1.17218 0 .29305 0 .58609-.181.87914-.181-.87914-.182-1.46523.363-2.05132 0 .58609-.182.87914-.546 1.17218-.91-1.17218 0-2.051313.364-2.637403 1.091-.879131-.545-1.465217 0-2.344347-.363 0 .363 0 .727-.58609.727-.29305-.545.58608-.727-.29305-.909-.29304 1.091-1.17218 2.182-1.17218 3.274-.29304.182-.58608.182-.87913.182-.29304 0-.29304 0-.58608 0 0 0-.29305 0-.29305.182 1.17218 1.273-.29305 2.364-1.17218 3.274 1.17218.363 2.63741.727 3.80958 1.091 0 1.091-.58609 0-1.75827.364.29305.364.87914.545 1.75827.545-.29304.91-2.6374-.181-3.22349 1.092-1.46522-.91-3.51651-.364-4.98171-.546-.5861 0-.8792.182-1.1722.364.293.182.293.182.293.364 1.4652.363 2.93046 0 4.39569-.182.29304.545.29304.909 0 1.273.87913.364 1.75827.728 3.22349.728 0 .545-3.22349.181-1.46522.909-.29305.546-2.34436.182-2.63741 0 .58609-.182 1.17218-.728.58609-1.091-.29304.545-.58608.909-1.17217 1.273 2.34435.546 4.10262 1.455 4.39566 2.546-1.75826-.727-3.80957-1.273-4.98173-2.364-1.4652.727-3.2235.727-4.9818.364-.8791.181.5861.545-.293.909-.5861 0-1.1722 0-1.7583 0 0-1.455-1.7583-1.819-2.9304-2.546 1.1721-.728 1.7582-2.001 2.0513-3.456-.2931.182-.2931.545-.2931.909-2.0513-.909-3.8095-.182-5.8609.364-.293-.728-1.4652-.91-2.6374-1.091 0-.364 0-.91 0-1.456 2.6374-.363 4.6888.728 6.7401 0-1.1722 0-2.0513-.182-2.9305-.363-.293 0-.293 0-.5861 0-.5861.181-.5861-.182-.8791-.364s-.5861-.182-.8791-.364c-1.4653.182-3.2235 0-4.1027 0 .8792-.182 1.1722-.909 1.4653-1.455-.2931-.182-.2931-.364-.5861-.546-.5861-.182-1.1722-.545-1.4652-1.091-.8792.546 0 2.183-2.0514 2.001.5861 2.182-1.4652 2.91-1.1721 4.547.293.182.5861.364.5861.909 4.1026-1.818 9.3774 1.819 12.8939 3.093-1.1722.727 0 1.273-.8791 2.182.293.364.8791.546 1.4652.91 1.4652-.182-.8791-1.274.293-1.455 2.0514.181.2931 2 3.5166 2 .5861-.182.5861-.545 1.4652-.545 0-.728-1.7583-.182-1.4652-1.092 2.9304-1.091 16.117425 2.547 9.67045 3.274 1.17217 1.274 3.51653 1.637 4.98175 2.729-3.80958 11.823-9.3774 22.736-17.2896 32.012-8.7914 0-13.7731.182-22.8575.546.2931-3.092-.5861-3.092-.8791-3.274-.2931.91-.5861 2.001-.8792 2.728.5861.728.5861-.545 1.4653-.181-.2931.909-.5861 2-.2931 3.092 7.0331-.182 14.0662-.546 20.8062-.728-5.5679 7.64-12.0148 14.733-19.0479 21.645v1.273c-.2931.182-.8791.182-1.4652.364-.2931.364-.5861.546-.8792.91 0 .727-.5861 1.455-.5861 2.364 1.4653 0 .8792-1.455 2.6374-1.273-.293 4.547 1.4653 9.0944-2.9304 10.9133 2.3444 1.4551 1.7583 4.0016 1.1722 6.1843-2.6374.1819-1.1722 2.7283-2.9305 3.4559 0 .7275.8792.7275 1.7583.5457-.5861.9094-.8791 1.637-2.6374 1.0913.293 1.2732.8791 2.3646 2.9304 2.5465v1.637c2.0514-.9095 2.9305-1.8189 3.2235-3.0921-.8791-.3638-1.4652-1.6371-.5861-2.1827h.5861c0-.1819 0-.5457-.293-.7276.5861 0 .8791-.1819 1.1722-.1819-.2931 0-.8792 0-.8792-.3638 1.7583-2.0008.2931-4.7291-.8791-6.3661 0-.7276 1.1722-.9095 1.7583-1.4551-1.1722-3.6379 1.1721-8.0037.293-11.2777 1.4652-1.818 2.0513-4.365 3.2235-6.002 1.4652-.182.293 1.273 1.7583 1.091.293.546-.2931.728-.5861.91v.364.182c.293.545.8791-.728 1.4652 0-.293 1.818.8791 3.637 1.1722 5.638-1.4652.364-1.4652 0-2.3444-.364-.5861 0-.293.546-.293.91.8791.545 1.4652-.182 2.0513.364.293 1.091-1.1722.909-.5861 2 1.4652.1823 1.1722-.545 2.0513-.727 1.1722.545 2.6374 1.0912 4.6887 1.0912-.293 1.0913-.5861 2.3645-.5861 3.6378-.293-.1819-.8791-.1819-1.4652-.1819.2931 1.2732 2.0513 2.3646.8791 3.8197 3.2235 1.2732 2.3444 3.274 2.9305 5.4567-1.1722-.3638-2.6374-.7276-3.2235-1.4551-.8791 0-.293.9094-1.4652.7275-.5861-.9094-.2931-1.637.5861-2.1827-1.7583-.5456-1.1722-1.0913-2.0513-2.0008-.8792 0-.2931.5457-.8792.7276.2931 1.2732 2.3444 2.3646 1.1722 4.0016 1.4652.5457 2.6374 2.1827 2.6374 3.4559 1.1722.7276 3.2235.1819 4.6887.3638.2931-.5457.2931-1.4551.8791-2.0008.8792.3638-.586 1.0913.8792 1.4551 2.6374.1819.8791-.7275 1.7582-1.637 0-.3638-1.1721-.1819-1.4652-.5457 1.7583-2.5464 5.8609-4.911 10.54963-3.274-1.75823 1.637-5.56783 3.274-7.61913 4.1835-.2931.5457.8791.7275.8791.3638-1.1722 3.0921-5.8609 6.548-7.6192 9.6402-1.1721.1818-1.1721-.3638-2.3443-.1819-1.1722.9094-2.3444 3.4559-4.6887 2.9102 0 .1819-.2931.5457 0 .7276 0 .9094.8791 1.4551 1.4652 2.1827.8791-.3638 1.4652-.9095 1.7583-1.4552.8791.3638 3.5165.9095 4.3956.3638 1.4653.5457-1.4652 2.1827 0 3.274-.8791 1.0914-2.9304 1.0914-2.6374 2.1827-.8791 0-.8791-.3638-1.7582-.3638-.2931-.9094 1.1721-2.7283 1.4652-4.1834-3.2235 1.4551-1.7583 4.0016-4.9818 4.7291.8792.1819 1.4653.7276 1.7583 1.4551 1.4652-.7275 2.0513-.3637 3.5165 0 .2931.9095-.8791 1.0914 0 1.6371.8792.1818.8792-.1819.8792-.5457 1.1721.3638.8791.9094.293 1.637-1.7583.1819-2.0513-.5457-3.5165-.5457-.5861 0-.2931.5457-.8792.5457.2931.5457 2.6374 2.7283 7.6192 2.1827.293.7275-.8791.5456-.8791 1.0913.293.5457 2.9304.5457 1.7582 1.4552 2.0513-.5457 1.4653-2.0009 4.1027-1.0914-1.4653-1.4551 4.1026.1819 5.2748-1.0913.586.1818-.2931.3637 0 .9094 1.1721-.9094 1.1721-1.8189 3.22344-1.637 0-.3638-.87913-.1819-1.46521-.3638 1.75826-.9094 2.0513 0 3.51653.3638.87913 0 0-1.2732.87913-1.4551 1.46522.5456 2.05131-.5457 3.22349 0-3.80958 10.7315 1.758269 22.5544 12.89392 26.9197-4.39563-3.6378-9.963475-6.7299-8.7913-12.5504 4.10262 4.1835 6.44698 9.4583 13.7731 11.8229-11.72179 8.1851-26.6671 14.5512-43.6636 18.5528 1.4652.5457 0 .3638-.8792.9095 3.5166-1.0914 8.4983-1.0914 12.3079-2.1827 0 .3638 0 .5457.5861.5457 9.08437-2.3646 16.117435-5.8205 22.56441-9.6402h2.6374c1.17219-1.8189 3.22349-3.0922 5.86089-4.7292.8791 0 0 1.2732-.5861 1.4551.2931.3638 1.4652.3638 1.7583.9095 1.7582.1819.8791-1.2732 1.7582-1.637-.293-.3638-.8791-.5457-1.4652-.9095.8792-.5457 2.0513-1.0913 2.6374-2.0008.8792 0 1.4652.1819 1.7583.5457-.5861-1.2732 3.8096-4.7292 7.0331-4.3654 4.1026-2.1827 3.2234-4.3653 7.033-6.548 1.1722 0-.5861.5456 0 1.0913.5861.7276 2.0513-1.2732 3.2235-.5456-.293 1.2732-2.6374 1.0913-2.3443 2.7283 2.0513-.5457 3.8095-1.2732 5.2748-2.1827.293 1.2733 1.4652 3.0922.586 4.1835 1.4653.3638 2.3444.9094 2.3444 2.1827.8791 0 .5861-.7276 1.7583-.5457-2.6374 2.0008.293 5.8205 0 9.0945-19.341 3.4559-41.02626 7.4575-51.28281 18.00718 12.01482-8.54888 30.18361-13.82368 52.16191-15.27878-.293 1.0913.5861 1.4551.5861 2.5464-1.4652 0-1.7583.5457-3.5165.3638-16.1175 3.8197-32.821 7.4575-42.19845 15.27883 1.17218 0 2.05132-.00001 3.22349-.1819 10.54956-6.54803 24.02966-11.27723 43.66366-12.18663v2.0008c-11.4288 2.5464-23.1505 4.7291-32.2349 8.73071.5861.18189 1.4652.36378 2.0513.54567 1.4652-.54567 2.6374-1.09134 4.3957-1.63701 1.1721-1.45517 2.9304-1.63707 4.9817-1.45517.5861-.1819.8791-.1818 1.4652-.3637 1.7583-.1819 2.6374.1818 4.1027.3637 1.4652-.3637-1.4653-.3637-.8792-1.0913 2.9305 0 7.9122-1.4551 11.4288-1.637 2.0513-.1819 6.1539-.5457 6.1539 1.637-2.9304-.5457-2.3444 1.4551-6.74.9094 2.9304.7276-2.3444.5457-3.2235 1.45518-.8792-1.27328-3.5165 0-5.2748-.18189 0 0 0 .18189.293.18189h.5861c.2931.18189.2931.18189.2931.36377.586.1819 1.1721.36379 1.1721.90946-.293 0-.293 0-.5861.18189 0 0 .0001.18189.2931.18189 5.5678-1.8189 9.3774 3.45592 12.8939.54567 1.4653 1.45512 0 4.72915 2.9305 5.27482 1.4652-1.45512.5861-2.91025-.2931-4.36537 7.3262-1.09134 11.4288 3.27403 9.3775 6.002384.5861.909453 1.4652-.545669 2.0513.1818927v1.6370133c-3.8096 0-4.3957 1.8189-6.447 2.72836-4.1026-2.18269-16.1174-2.36458-21.6853-.72757-7.033-2.728353-13.7731-1.45512-23.7366-1.27323-1.1722.90945-2.0513 1.8189-2.93043 2.72836.58608.18189.87913.36378 1.46523.72756 2.3443-.72757 7.0331-1.63701 9.0844-1.45512 1.1721 1.09134 0 3.09213.293 3.81969-4.1026-.72756-3.2235.36379-7.6191.54568 0 .72756.8791.90945 1.7582 1.27323 4.3957-2.72836 8.7914.54564 13.4801.54564-2.6374-.3638-4.6887-2.36455-4.3957-3.274 2.0513 2.0008 11.4287.90945 9.9635 3.8197 1.1722.3638 4.1026.5457 4.9818.1819-.2931-2.72837-4.3957-3.09215-3.5166-5.63861 1.1722-.36378 2.3444-.72757 4.3957-.72757 1.4652 1.09135.8791 2.36458-.8791 3.09214.5861.54567 2.3443.36378 3.2235.54567 1.1721-.18189 0-1.63701.8791-1.8189 1.4652 0 2.6374-.18189 3.2235.18189v.90945c.5861.90945-1.7583.54568-2.0513.90946 1.1721 1.27323.293 3.09217.293 4.00157-.5861-1.0913-2.6374-1.0913-4.3957-1.4551-.8791.9094-1.7582 1.637-3.8095 2.0008 1.4652.7275 5.5678-.1819 4.9817 1.8189 4.6887-1.8189 6.7401 0 10.5496-.3638.5861 1.0914-2.0513.5457-3.2235.7276 0 .9094 1.4653 1.8189 0 2.5464-2.9304-.3637-4.3956-1.8189-8.7913-1.2732-.8791 3.0921 4.3957 2.1827 7.6192 2.5465.293 1.637 3.2234 2.3645 1.1721 4.3653.8792.7276 4.9818-.3637 5.8609.5457.8791.5457-.293 1.0914 0 2.1827 4.3957.5457 4.1026-1.4551 7.9122-1.0914 7.3261 3.456 14.3592.9095 22.2714.9095 1.7583-.3638 1.7583-1.2732 2.9305-1.2732 2.0513.7275 5.8608.7275 7.033-.5457 2.6374.5457 6.7401 1.4551 9.6701.7276-.293-.5457-3.8092-.7276-2.344-1.2733.293-1.8189 4.982-.3638 5.568.5457 1.172-.7276 3.516-1.0913 4.102-2.0008 3.224.1819 5.861.9095 8.206 1.637 1.758-1.0913 4.395 0 4.688-1.4551 1.173.3638.88 1.2732 2.638 1.2732 15.824-2.1827 30.77-3.274 42.491-1.4551 2.052-.5457-1.172-.3638-.586-1.2732 2.931.3638 7.326.7275 10.257-.5457.879.9095 3.809.7276 4.982 1.4551 1.758-1.4551 4.981-2.0008 8.498-1.0913 1.172-.1819 0-1.4551 1.465-1.2733 2.344 1.2733 3.81-.5456 7.619-.1818 1.465.7275-1.172.9094-.293 2.1826 3.517 1.8189 4.103-1.637 7.033-2.0008 2.052.9095 1.172 1.6371 0 2.7284 3.81-.1819 5.275-1.8189 6.447-3.274 1.465 0 2.051.7275 2.638 1.0913 4.395-2.0008 9.377-.9094 14.652-1.0913.586.7275.586 1.8189 1.758 2.1827 2.637-.1819 4.396.5456 7.033.3637-.293-1.4551-3.809-.7275-3.516-2.3645 11.428.1819 22.857-1.637 27.839 2.3645 3.516-2.0008 9.963-1.8189 15.531-1.2732.586 2.3646 7.033 1.0914 8.792 2.5465 1.758.1819 1.758-.5457 1.758-1.4551 2.051.3637 3.809.5456 2.93 2.1826 3.224-.1819 5.861-.9094 6.447-2.7283 4.103.1819 7.033-.9095 9.671 0-.879 1.4551.586.7275.586 2.1827 2.93.3637 1.758-1.637 4.102-1.637 2.052-.1819 1.173 1.4551 2.638 1.4551 1.465-.3638 2.93-.5457 3.223-1.637.879 1.0913 2.931 0 4.396.1819 0 0 .293.9094.586.9094.879 0 1.758-1.0913 2.637-1.2732 2.931-.7276 4.396.7275 4.689-1.0914.586-2.1827-4.395-1.8189-7.326-3.8197 0-.7275.879-.9094.586-1.8189-2.051-.7275-3.516-1.4551-4.982-2.3645-.293.1818-.879.3637-1.465.3637-1.172.5457 2.051 1.0914 2.344 1.8189-.293 1.4552-3.809 2.7284-6.447 2.0008 0-1.4551 2.931.1819 3.224-.7275.293-1.2733-2.637-.3638-3.81-.5457-1.172.1819 0 1.4551-1.465 1.2732-2.051.3638-.586-1.2732-1.758-1.4551-1.465 0-3.517 0-4.396.3638.293 1.2732 3.224 1.0913 4.982 1.4551-2.344 2.3646-12.015 3.0921-12.894-.5457-1.465 0-3.516 0-4.396.3638 0 .9095 2.052.1819 1.759 1.2733-.586 1.0913-4.103 1.8189-5.861 1.0913-.586-1.0913 1.172-.9095.879-1.8189-.586-.3638-1.758 1.4551-2.637-.1819-1.173.1819-.293 1.4551-1.466 1.637-4.981-1.637-11.721-.1819-16.117 1.0914-2.051 0-2.345-1.0914-3.81-1.4552-8.791 1.0914-20.22-.9094-28.132.1819-4.689-1.4551-11.136-1.637-15.238-2.7283-.879-1.637 2.637-.7276 2.051-2.0008 2.051-.3638 1.758.9094 3.81.5456 1.465-.3637-1.759-.7275 0-1.2732 4.688.1819 9.084-.7275 14.066-1.2732.879 1.4551.293 1.4551-.879 2.1827.293.3637 1.465.1819 2.051.1819 1.172-.7276-.586-1.2733.879-1.8189 2.637-.3638 2.344.9094 4.982.5456.293-1.2732-1.465-1.0913-1.758-1.8189 1.172-1.09132 2.344-2.36456 2.637-4.18346 2.637.36378 5.861.54567 9.084.36378-.293.36378-.586.72756-.586 1.27323 2.931-.36378 5.861-1.8189 9.671-.90945 2.93-2.91025 8.498-2.18268 13.48-2.91024-.879 1.09134-1.465 2.36457-3.517 2.91024 0 .90945 2.051.18189 1.758 1.27323-2.344.36378-4.102.36378-5.567-.54567-1.173 1.63702-2.638 1.27324-4.689 2.0008 0 .72754 1.465.36374 1.758.90944 3.224-.3638 6.154-2.18267 10.257-1.27322 2.344-2.36458 12.601-3.8197 14.652-.36378 1.758-1.27324 4.689-.36378 7.033-.18189-.293.54567-.879.72756-.879 1.27319 4.103.5457 7.619-.90941 11.429-.90941 2.344 0 4.102.90941 6.447.72751 3.516-.18184 5.86-2.00075 9.67-1.81886 1.465.18189 2.344 1.27324 3.81.90946-1.759.36378-2.052 1.4551-3.224 2.1827-2.637.1819-5.568 0-7.619.5457 1.758 1.8189 7.912.3637 10.257-.1819 1.172.3637-.294 1.8189-.294 2.5464-1.465 0-2.93 0-4.395.1819.293 2.0008 5.861.9095 9.377 1.0914-.586 1.8189 2.931 3.274-.293 4.0015.586 1.2733 4.103.5457 4.982 1.4552 0 1.8189-3.224.1819-4.689 1.0913 2.931 1.2732 5.275-.7275 8.792 0 2.051-.3638-1.759-1.0913 0-1.2732 1.758.3638 3.516.5457 5.567.7275.293.9095-2.051.3638-2.051.9095.879.9094 2.931-.1819 4.396-.1819 3.516 2.7284 9.67-1.0913 15.824 1.4551.879-.1819 0-.9094 1.172-.9094.293-1.0914-3.223 0-2.637-1.2733 6.154-.3637 8.205 2.5465 13.187 1.8189-3.224-.5456-4.396-2.9102-8.205-2.3645 3.516-1.4552 20.22-3.2741 14.066 1.4551-2.345 1.0913-1.172-1.8189-4.396-1.0913-.293 1.2732 0 2.7283-3.223 3.274.879 1.2732 2.93 1.637 4.395 2.3646 2.638-.3638 2.931-1.6371 3.517-2.9103 1.465 0 1.465 1.0914.586 1.637 4.982.7276 12.601 1.4551 16.117-.1819 2.931 2.3646 6.154 2.7284 12.015 2.9103.293-1.2733-3.809.1819-3.223-1.0914 1.758-1.0913 4.688 1.0914 5.861-.5456-1.759-1.2733-5.568-1.0914-6.154-2.9103 4.981-1.4551 4.395 3.0922 10.842 1.8189 9.671 1.637 22.565.1819 34.58-.5457 1.172.5457 1.465 1.4552 3.223 1.4552-.879-1.4552-.879-1.2733.293-2.5465 2.051 0 2.931.7276 4.982.7276.293.9094-1.465 2.0008.586 2.1827-.586-2.1827 6.74-2.1827 11.722-2.5465.293.7275.586 1.2732 1.758 1.4551 2.344-.3638 3.517-1.4551 7.033-1.0913-.586 1.0913.879.7275 1.172 1.2732 4.396-2.9102 13.187-.5457 16.704-2.5465-5.568-.3637-11.429-.5456-14.652-2.1826 1.172-2.1827 7.326.1818 10.256-1.2733-2.637-.7275-.879-2.7283.293-3.4559-.586-.7276-2.93-1.4551-1.758-2.1827 3.81-.5457 4.982.5457 6.447 1.4551 8.498-.7275 16.117.1819 23.443 1.6371-3.809 3.8197-11.135-.9095-18.461.1818-1.173.1819 0 1.6371-.879 1.8189-1.466 0-2.931 0-4.396.1819 7.033 3.0922 16.117 1.6371 26.081 1.4552.879-.9095-1.172-1.0914.293-2.1827 4.689-.3638 11.722-1.0914 16.703-.3638-1.758.5457-3.223 2.7284.587 2.7284.586-1.0914 1.758-2.0008 2.051-3.2741 2.637.5457 2.93-1.0913 4.688-1.4551 2.931-.3638 6.447 1.0913 8.792 1.0913.879 0 1.465-.9094 2.051-.9094 2.638-.5457 6.154.3638 9.084-.1819.88 2.0008-2.344 1.8189-3.516 2.5465 0 1.2732 4.103.1819 4.396 1.0913-1.466 1.8189-4.982.5457-6.447-.1819-2.638.9095-4.396 2.3646-8.499 2.3646-.586-.3638-.879-.9095-.586-1.637-.586.5457-1.465.9094-3.223.7275 0 .9095 3.516-.5456 2.637.9095-4.688 2.0008-13.48 0-20.513 2.1827 1.758 1.4551 7.326-1.0914 8.791 1.0913 4.689-3.274 16.704.9095 24.909-.7275.586 1.0913 3.224 1.0913 3.81 2.0008 8.205.3637 19.048.9094 26.081 1.2732 1.172-.1819 1.172-.9095 1.465-1.2732.879.1818 1.465.9094 3.223.5456 0-1.0913-.586-1.2732 2.638-1.637-1.172-.7276-1.758-1.637-3.81-1.8189 0-1.0913 3.224-.1819 3.224-1.2732-.879-1.8189-6.74-.3638-6.74-2.7284 7.033-3.274 23.15 3.4559 29.011-2.5464 1.172 1.0913 5.568.5456 5.568 2.3645 9.377-.3638 18.755-3.274 26.374-.9094.293 1.0913 0 1.8189-2.051 1.637 3.516-.5457 9.084-.1819 14.066.1819.586 1.637.293 2.1827.879 4.0016-2.051.9094-2.637 2.5464-4.689 3.274 0 .9094.586 1.2732 1.172 1.4551zm781.841-185.8922c-.29-.364-.29-.545-.58-.727.87-.364.88-1.092.58-1.819-3.51 1.273-2.64 2.182 0 2.546zm-22.56-15.46c0 .545.29 1.273.58 1.818.59 0 1.18-.181 1.18-.545-.88-.364-1.47-.91-1.76-1.273zm-1445.59069 173.70488c-.29304.36378-.29304.54567-.58608.90945.58608.18189 1.17217.36378 1.75826.36378.29304-.54567.58608-.90945.87913-1.27323-.58609 0-1.46522 0-2.05131 0zm-2.34431 3.63781c-.5861 1.09134-1.1722 2.18269-1.4653 3.27403.2931.18189.5861.18189 1.1722.18189 1.1722-1.27324 1.4652-3.45592 3.2235-4.18349-1.17218.18189-2.0513.54568-2.9304.72757zm22.2713-12.18666c-.293.18189-.87909.54567-1.17214.72756l-.29305.18189v.36378c.58609-.18189 1.46519 0 2.05129 0 .5861-.36378 1.1722-.72756 1.7583-.90945-.5861-.18189-1.4652-.36378-2.3444-.36378zm-3.80954 3.27403c-.29305.18189-.58609.54567-.58609.72756.29304-.18189.29304-.54567.58609-.72756zm-5.56784 4.91104c-.586095.54567-1.172185 1.09134-1.758275 1.63701h1.758275c.58608-.54567 1.17217-1.27323 1.75826-1.8189-.58609 0-1.17218 0-1.75826.18189zm-4.68872 5.45671c-.29304.36378-.29305.72756-.58609 1.09134.58609 0 .87913-.18189 1.46522-.36378 0-.18189.29305-.36378.29305-.54567-.58609.18189-.87913 0-1.17218-.18189zm5.86089 5.27479c-.29305.7276-.58609 1.4552-.87914 2.3646 1.75827-.1819 3.51654-.7276 4.68872-1.2732-1.17218-.3638-2.6374-.7276-3.80958-1.0914zm3.80958 10.3678c.58608.1819 1.17217.3638 2.34435.1819 0 1.0913.58608 1.8189 1.46518 2.5464-.58605.1819-1.46517.1819-2.34431.3638.87914 0 1.75826-.1819 2.63741-.3638-.5861-.9094-.5861-1.2732.5861-1.8189-.8792 0-1.17219-.3637-1.17219-.9094-1.17218 0-2.34437 0-3.51654 0zm-12.01482 3.0921s-.29305 0-.29305-.1819c-.29304.1819-.29304.3638-.58609.5457h.29305c.29304 0 .29304-.1819.58609-.3638zm678.98415-3.274c-.879 1.4551-4.396 1.637-6.447.7276-2.344 1.0913-4.396 2.5464-8.498 2.7283 7.033.5457 14.652 1.0914 18.461-1.0913 0-1.4552-1.465-2.1827-3.516-2.3646zm-21.685-1.2732c.293 1.0913 2.637.7275 4.395.9094 0-.3638 0-.5457 0-.9094-1.758-.1819-3.223 0-4.395 0zm-33.408 6.548c-1.758-.1819-1.758.5457-2.051.9095.586.1819 1.465.3637 2.638.1819 0-.5457 0-.9095-.587-1.0914zm-75.605-8.1851c-.586.3638-.586 1.0914-.586 1.819 2.051.1818 2.344.3637 3.223-.7276-.879-.1819-.879-1.2732-2.637-1.0914zm-6.447.1819c-.293 2.0008 2.051 2.1827 2.93 3.456 0-1.0914 2.052-1.2733 1.466-2.5465-1.465-.3638-2.345-1.0914-4.396-.9095zm-1.465 5.6386c0 1.6371 5.275.9095 5.275-.1819-1.466-.7275-3.224.3638-5.275.1819zm-6.447-.1819c1.758-.3637 5.861.5457 5.861-.7275-1.759.3638-5.861-.5457-5.861.7275zm-49.525 2.0008c-1.465-.3637-9.084 0-1.758 0 .879.9095 2.051.1819 1.758 0zm-100.807-1.4551c-1.465.1819-6.74-.1819-8.791.1819-.293.9095.879.7276.586 1.637 2.637.1819 4.982.5457 7.619.7276-1.758-1.2732 1.758-1.637.586-2.5465zm-32.528-2.3646c-2.637-.1818-2.637.9095-3.809 1.2733 1.172-.1819 3.809.3638 4.395-.3638-.879 0-.879-.3638-.586-.9095zm-11.136-3.0921c-.586.5457-1.465 1.0914-.879 2.1827-1.758.5457-5.274 0-5.861 1.0913 2.638.3638 8.206 1.4552 9.085-.5456-.586-.3638-2.052 0-1.759-.9095 0-.7275 1.466-.7275 2.638-.7275 0-.3638 0-.5457 0-.9095-1.172 0-1.465-.5457-3.224-.1819zm-8.205 9.2764c1.758-.1819 4.689.3638 5.275-.3638-.879-.5456-4.982-.7275-5.275.3638zm-48.938-4.3654c-1.759-.1818-1.465.9095-2.052 1.2733.88-.1819 3.224.3638 3.224-.3638-.879 0-.586-.7276-1.172-.9095zm-13.187-15.64252c1.465.18189 2.344.72752 4.395.54562 0-.36373.88-.54562 1.173-.9094-2.638-.18189-4.103-.72756-5.568.36378zm-2.638.72752c.293.5457-.586.7276-.586 1.2733h2.638c.293-1.0914-1.173-1.0914-2.052-1.2733zm-5.861 12.3686c1.759 0 1.466 1.2732 3.81.9094.879-1.637-2.93-1.637-3.81-.9094zm-13.773-.9095c1.173 1.2733 7.913 2.1827 10.257.7276-2.931-.5457-6.74-1.637-10.257-.7276zm-10.549-8.0031c-.293 2.1826 7.912.5456 8.791.3637-2.051.1819-6.447.3638-8.791-.3637zm4.395 10.3677c1.173-.1819 3.517.3638 3.81-.3638-1.172-.5456-3.517-.3638-3.81.3638zm-117.217 3.8197h2.051c0-.3638 0-.9094 0-1.2732-1.758 0-2.344.3638-2.051 1.2732zm-68.2797-29.83002c.5861 0 .8791.36378 1.1722.54567 1.1721-.18189 2.6374-.36378 2.6374-1.27323-1.4653-.36378-3.2235-.18189-3.8096.72756zm-10.8427 22.91822c.8792.9094 2.6374 1.2732.5861 2.1827 2.6374 0 5.2748 1.8189 5.8609-.5457-1.4652-.7276-3.2235-2.9103-6.447-1.637zm-7.033-.1819c2.9304-.3638 4.1026-2.0008 7.033-2.3646-2.9304-1.0913-9.0843 0-7.033 2.3646zm-2.6374-25.28279c0 1.09135 0 2.0008.293 3.09214 2.0513-.72756 4.3957-1.09134 5.2748-2.36457-2.9304.36378-4.3956-.1819-5.5678-.72757zm-1.7583 13.4599c.8791 0 .5861.72756 1.1722.90945 1.4652 0 2.6374 0 2.6374-.72756-1.1722.18189-2.6374-1.27324-3.8096-.18189zm-22.56441-.36378c1.46522 0 .87913 1.45507 2.6374 1.27323 1.75826-.36378 1.46522-1.81891 2.63741-2.54647-2.93045-.36378-4.10263.54567-5.27481 1.27324zm1427.12151-1.45513c-.29.18189-.87.18189-1.17.36378h.88c.29-.18189.29-.18189.29-.36378zm-123.66.54567c1.17 0 1.17-.54567 2.34-.36378 0-1.27323 0-2.54646 0-3.8197-.58.72756-2.05.90946-3.22 1.09135 2.05 1.09134-.59 2.36457.88 3.09213zm90.55 0c.59-1.45512 4.4-2.36457 2.35-4.18348-2.35.36379-2.35 2.18269-2.35 4.18348zm-99.93-.72756h1.76c-.59-1.09134.88-.90945.59-2.00079-.88.54567-2.64.54567-2.35 2.00079zm14.95 0c-2.35-5.27482 1.46-2.00079 0 0zm-48.06-2.72835c2.64.36378 2.05-5.092939-.59-4.911049-.58 2.364579-.29 2.910249.59 4.911049zm37.51-.36379c2.34 0 1.76-2.00079 3.22-2.72835-.29-.545673-2.05-.363783-1.17-1.455126-3.52.545672-.59 2.728356-2.05 4.183476zm-9.97-4.183476c-.87 0-2.34.1818889-2.34-.363783-.88.181891-1.17.5456738-1.17 1.091343.88.727566 3.81.545676 3.51-.72756zm56.86-1.455124c.29-.90945 1.46-2.00079-.59-3.45592-1.17 1.45513-4.1 1.81891-6.74 2.36458-.59 1.818902.59 1.09134-.59 3.092134 3.52-.181891 4.69-1.637014 8.5-1.455124.29-.90945-.58-.90945-.58-.54567zm21.68-1.27323c-2.34-1.81891 1.47-3.27403 0-5.8205-2.93.54568-7.33.36379-6.74 3.09214 2.35 0 1.76-2.00079 4.98-1.45512 0 2.36457-4.69 2.00079-4.39 4.54726 1.76.54567 4.1.54567 6.15-.36378zm-94.36-1.81891c3.52 0 2.34-3.09213 1.76-4.54725-1.17.18189-1.17 1.09134-3.22.72756 1.46.18189 2.34 1.63701 0 3.09214 1.17-.18189 1.46.18188 1.46.72755zm41.32 0c-1.47-1.8189 2.05-3.09213 0-4.91104-.59 0-.59.54568-.59.72756-.58-.18188-.58-.90945-1.75-.72756 0 2.36458-3.23 4.54726 2.34 4.91104zm65.93 0c4.4.1819 6.45-.90945 8.5-2.00079.59-1.27323-2.05-.54567-3.22-.72756.29.72756-.29 1.09134-.59 1.45512-1.75-.18189-2.05-.90945-3.81-1.09134 0 .90945-1.17 1.09134-.88 2.36457zm-24.61-1.09134c2.05-.72756.59-2.54646-2.35-2.36457-.87 1.81891 2.06 1.27323 2.35 2.36457zm2.93-.54566c1.76.36378 1.17-.90946 1.17-1.45513-.58 0-1.17 0-1.76 0-.29.72756.59 1.09134.59 1.45513zm-9.09-.36379c.3-1.8189 1.47-4.72914 1.18-8.00314-2.35 2.0008-2.64 5.82046-1.18 8.00314zm42.5-1.8189c1.46 0 .58-1.63704 3.22-1.09135.88-1.63699 0-2.00079-1.76-2.72839-2.34.1819-4.1.7276-6.15 1.0914 0 1.81889 2.34-.1819 4.39.3638 2.05.9094-1.17 1.45509.3 2.36454zm-149.75-.72756c2.05-.54568 2.93-2.00078 1.17-3.09218-.58 0-.58.3638-1.17.3638zm113.41-.90948c0-.7275 0-1.2732 0-2.0008-1.76.9095-1.76 1.637-3.81 1.4551.88 1.27329 2.05.9095 3.81.5457zm97.88 0h1.75c0-.7275 0-1.2732 0-2.0008-2.34.3638-2.05-1.2732-3.81-.3638.88 1.6371 3.81.3638 2.06 2.3646zm-197.81-.7275c2.64 0 1.76-2.3646 1.76-3.8197-2.05.3637-1.47 2.3645-1.76 3.8197zm99.34-2.1827c1.76-1.8189 4.98-2.9103 7.33-4.1835-3.52-.3638-3.22-4.5473-7.91-3.0921.58 2.0008.88 5.6386.58 7.2756zm20.81-.9095h2.34c-.58-2.3645 1.76-2.7283 2.35-4.1835-2.05 0-2.05-1.2732-3.23-2.0008-2.05.1819-.58 1.2733.59 1.4552-2.93 1.8189 1.17 3.4559-2.05 4.7291zm-4.4-3.4559c2.64-.1819 4.4-2.1827 3.23-3.4559-2.05.5457-4.69.7276-4.98 2.3646 1.46 0 2.05.3637 1.75 1.0913zm-80-1.0913c1.76 0 1.47-1.2733 1.76-2.3646-1.76.1819-3.22 1.4551-1.76 2.3646zm128.94-1.8189c2.05-2.3646 5.28-4.0016 10.55-4.5473.59-1.0913-.88-.9095-.58-2.0008-4.11 1.2732-8.5 2.0008-14.07 3.0921.88 1.6371-.88 1.6371-1.17 2.7284 1.17.7276 3.22 0 3.22-1.0913.88.1818 1.47.9094 2.05 1.8189zm-161.76-2.0008c1.17-.5457 3.22-.5457 3.22-2.0008-.87-.3638-1.17-1.0914-3.22-.7276zm180.81-.7276c.88-.1819 2.05-2.0008.59-2.3646-2.64 0-.59 1.637-.59 2.3646zm-181.98-.3638c1.46-.7275.29-2.9102 0-3.8197-2.64.5457-3.22 1.4551-2.35 3.4559 1.76-.3637.59-.5456.59-1.4551.88.5457.88.1819 1.76 0 0 .9095-1.17 1.0914 0 1.8189zm151.21-1.2732c1.17-.5457 1.17-1.8189 3.22-2.0008-.88-.9095-3.22.3638-4.39.3638-.59 1.2732 1.17.9094 1.17 1.637zm-56.85-1.0914c-1.17-.9094-2.93-1.4551-1.17-3.0921-1.17-.1819-2.64 1.0914-3.23 0-1.17.1819-1.75 1.0914-1.75 2.0008 2.34-1.4551 2.93 3.0921 6.15 1.0913zm82.64-4.5472c2.34 1.4551 0 1.8189 0 3.8197 2.93 0 1.17-2.7284 3.22-3.0921-.29-.7276-1.76-.7276-3.22-.7276zm-51.87 2.3646c-1.76-1.0914-.29-4.1835-3.81-4.1835-.29 1.637-2.34 2.3646-2.34 4.1835 1.46.7275 4.68.1819 6.15 0zm56.26 0c2.35-.1819 1.76-1.8189 3.81-2.3646-2.05-.5457-.88-1.8189-.58-3.0922-1.18 0-2.05 0-3.23 0-.88.7276-.58 2.0008-1.75 2.3646.58.9095 1.17 2.0008 1.75 3.0922zm-11.72-.9095c1.76.3638 1.17-1.0913 3.23-.7275-.88-.5457-.59-1.6371.58-2.0008 0-.9095-2.05-.1819-2.34 0-.59 0-.59-.5457-.59-.7276-2.93.5457-.29 2.0008-.88 3.4559zm-53.04-2.9102c2.05-.1819 3.22-1.0914 3.81-2.3646-2.64 0-3.81.7276-3.81 2.3646zm63.01-3.0922c2.34-.7275 2.93-2.5464 6.15-2.7283-2.34-2.7284-6.45.3638-6.15 2.7283zm-190.78-2.7283c1.18-.1819 1.47-.7276 1.18-1.4551-.59 0-1.18 0-1.76 0-.3.7275.58.9094.58 1.4551zm188.14 0h1.76c.29-1.8189 1.75-1.637.58-3.4559-1.46.5456-1.46 2.3645-2.34 3.4559zm-78.83-.7276c.88-.7276 2.34.5457 3.81-.3638-1.17-.7275-4.1-1.4551-3.81.3638zm62.12-.3638c2.35-1.2732 2.35-4.3653 2.35-8.3669-2.64 1.2732-4.69 3.274-6.74 4.911 1.46.1819 2.93.5457 4.98.3638-.29.9094-.88 1.637-.59 3.0921zm-56.55-1.2732c1.76.1819 2.93-1.8189 4.39-.7276 2.35-.7275 0-2.3645-1.17-3.0921-5.86 2.0008-.88-4.1835-6.74-2.3646 1.17 2.0008 1.47 4.5473 3.52 6.1843zm-112.24-1.4551c.59-.7276 0-3.0922-2.34-3.0922-.3 1.6371-.59 3.2741 2.34 3.0922zm46.89-2.3646c.58-.3638 1.46-.3638 2.34-.3638.59-1.4551-1.17-1.2732-1.76-2.0008-1.75.1819-1.46 2.0008-.58 2.3646zm73.26-.7276c1.17-.3637.59-2.0008 1.17-2.7283-1.17 0-.88 1.0913-2.34.7275-.59 1.2733.88 1.2733 1.17 2.0008zm3.22 0c3.81.1819.88-2.3645 3.23-2.7283-.3-.9095-3.23-.3638-3.81 0 .88 1.0913-.88 1.637.58 2.7283zm-94.36-3.0921c.3.5457.88.9094 1.17 1.4551 2.06 0 1.18-1.8189-1.17-1.4551zm116.93.7276c-1.47-1.4552.58-1.0914.58-2.7284-.88.5457-1.76.1819-2.34-.3638-2.05.1819-.88 2.1827-1.76 3.0922 1.17.7275 1.47-.1819 3.52 0zm10.55-1.0914h1.75c-.29-1.4551 1.76-1.4551 1.18-3.0921 2.05.5457 3.81.1819 3.81-1.4551-1.18 0-1.18-.5457-2.35-.3638.3 2.3646-5.86.9094-4.39 4.911zm-147.99-1.4551c1.46-.3638 2.34-1.0913 3.22-2.0008-2.63.3638-3.22-.9095-3.81-2.0008-1.17.1819-1.46.7276-1.17 1.4551 3.52 0 .29 1.4552 1.76 2.5465zm4.98 0c.88-.7276 1.47-2.7284.59-3.4559-1.76.9094-2.93.7276-3.81-.7276-1.76 1.637 3.81 2.0008 3.22 4.1835zm138.02-2.7284c-1.17-.7275-.87 0-2.34 0-.59 1.4552 2.93 1.4552 2.34 0zm-134.8-1.4551c1.47-.5456.3-2.7283.59-3.8197-2.34-.1819-1.17 3.2741-.59 3.8197zm105.79-3.0921c3.81-.7276 1.18-3.274 3.23-4.9111-3.81 1.6371-1.76-.9094-6.16-.7275-.58.5457.3 2.3646 2.35 2.3646-1.17.7275.29 2.1826.58 3.274zm45.13-.3638c2.64.5457 6.45-1.637 7.91-3.0921-3.51-1.0914-5.56 2.0008-7.91 3.0921zm-49.82-.3638c-.58-1.0913-1.46-2.9102-3.22-4.1835 0 1.6371.88 2.5465 1.17 3.8197.88-.1818 1.76-.1819 2.05.3638zm-41.9-.9094c1.46-.5457 2.64-1.0914 3.81-2.0008-1.17-.9095-1.76-2.0008-3.22-2.7284-2.93 1.637.87 3.274-.59 4.7292zm-58.61-2.1827c2.93-.1819-.29-2.3646 1.17-3.0922-4.39.1819-.88 1.2733-1.17 3.0922zm155.31-1.2732c1.47-.1819 3.23-.3638 3.23-1.4552-2.05-.1819-3.23.3638-3.23 1.4552zm-93.18-.3638c1.75.1819 1.46-.7276 1.75-1.4552-2.05-.3637-2.93.7276-1.75 1.4552zm38.97-.7276h1.17c0-.3638.3-.3638.59-.3638 0-.1819 0-.5456 0-.7275-.59 0-.59-.1819-.59-.3638-.29 0-.88 0-1.17 0 0 .3638-.29.3638-.59.3638v.7275c.3 0 .59.1819.59.3638zm-92.6-1.0913c2.05-.1819 1.46-1.4552 1.17-2.3646-1.76.9094-.29 1.0913-1.17 2.3646zm97.58-3.4559c1.17-.7276 2.93-2.1827 1.76-3.0922-2.05.1819-.88 2.1827-1.76 3.0922zm60.37-1.2733c1.17 1.0914 3.81-.3638 3.81-1.4551-2.93-.3638-2.05 1.4551-3.81 1.4551zm-82.64-.7275c2.05.3637 2.05-.5457 3.22-.7276-2.05-.7276.59-3.274-1.75-4.1835-1.76.5457.58 3.0922-1.47 4.9111zm42.49 0h2.35c0-.7276.29-1.2733 1.17-1.4552-.88-.9094-3.52.3638-3.52 1.4552zm-29.01-3.8197c.88-1.6371-1.46-1.2733-1.17-2.3646-.59.1819-.29.7275-1.17.7275 0 1.0914.88 1.6371 2.34 1.6371zm54.8-.7276c1.76 0 1.76-2.3646-.59-2.0008 0 .9095.3 1.637.59 2.0008zm-106.67-4.5473h3.81c.59-.9094 2.05-2.1826.59-3.0921-3.52-.1819-3.81 1.4551-4.4 3.0921zm13.78-6.9118c2.34.1819 1.75-1.4551 2.34-2.3646-2.34-.1819-3.52.3638-4.98.7276.29.3638.58.5457.58 1.0913.88.1819 1.76 0 2.06.5457zm7.91-2.0008c1.76.1819 2.05-.5457 1.76-1.4551-.88 0-1.76 0-2.35 0-.29.7276.29 1.0913.59 1.4551zm84.39-4.1835c1.18-.9094 3.81-.9094 4.4-2.3645-.59 0-.59-.5457-.59-.7276-2.34-.1819-2.34.9095-4.39.7276 0 1.0913 0 2.0008.58 2.3645zm-42.49-53.2943c.3-.181.88-.181 1.18-.363 0-.364-.59-.728-.88-.91.58-.727.88-1.455 1.17-2.182h1.46c-.29-.182-.58-.364-.88-.364.59-.91 1.76-1.273 3.81-.546-1.75 2.547-1.75 2.183-.58 4.911-2.35 1.091-3.52 0-5.28-.546zm-2.63-3.819c-.59 0-1.18 0-1.76.182v1.091c-.59-.364-.88-.909-2.05-.909.58-1.456 1.46-.182 3.81-.546zm-2.06 3.274c0 .545 0 1.273-.29 1.819-1.46 0-2.64-.364-3.22-.91 0-.909 1.76-.909 3.51-.909zm-128.35 45.8362c3.52 0 2.64-2.5462 0-2.7282zm0-5.2752c1.76-.727 2.64-4.365 0-4.547zm175.53-4.729c-.58.364-1.17.728-1.75 1.092.29.727 1.75 1.091 3.22 1.091.29-2.001.29-4.729 4.98-4.911-2.93-2.365-7.62 1.819-9.96 3.456 1.17-.182 2.05-.546 3.51-.728zm18.47 1.637c.88-.545.88-1.637 3.22-1.455.59-1.091-1.17-.727-1.17-1.455-1.76 0-.88 1.819-3.23 1.455.3.364.88.91 1.18 1.455zm-21.4-5.093c3.23 1.455 4.11-2.001 5.57-3.092-3.51.182-3.22 2.547-5.57 3.092zm17.88 0c1.47-.909 3.22-1.455 4.98-2.364-1.76-2.183-3.81.727-6.15.727-.59 1.273 1.17.91 1.17 1.637zm0-5.275c-.88.182-1.47.546-2.34.728.29 2.001 4.39.909 2.34-.728zm-4.98-2.364c1.46.182 2.34 0 3.22-.364-.58-.727-3.52-1.091-3.22.364zm18.46-1.455c.29-.91-1.76-.364-1.76-1.092-2.05.546.59 2.183 1.76 1.092zm-193.7-4.548c.58-.545 2.93-2.182 2.34 0 .88-.181 1.17-.909 1.17-1.455-1.17-.363-2.34-.727-3.81-.727.3 1.273-.29.909.3 2.182zm161.17-.909c3.81 0 7.91-3.274 12.31-4.183 0-1.092 1.17-.728 0-1.456 4.4-2.182 11.43-2.182 14.95-5.82-9.68 1.819-22.28 7.094-27.26 11.459zm-155.6 0c.87-1.455.87-1.273 3.22-1.455 0-1.091-2.93-.91-3.81-.364 1.46.728-.59 1.273.59 1.819zm-15.83-.728c2.05-.363 1.17-3.092 0-4.183zm87.91-2.728c2.35-.182 1.47-2.364 2.35-3.456-1.76.546-1.47 2.183-2.35 3.456zm114.29-3.82c2.35-.181 2.93-1.455 4.98-2-1.46-.546-4.69.909-4.98 2zm-117.8-1.818c.29-1.092-4.4-1.092-4.98-.364.29 1.819 2.93-.182 4.98.364zm-40.74-4.548c-.29-1.273-2.93-.545-4.39-.364 1.17 1.092 2.34.364 4.39.364zm83.23 138.96451c2.34.18189 3.81.72756 5.57-.36378-1.18-1.45512.88-2.72836-.59-4.18348 1.76.54567 1.47 2.00079 1.76 3.45592 1.17-.54567.88-2.0008 1.76-2.72836 0-1.09134-1.17-1.45512-1.76-2.36457 1.46-.90945 2.34-2.36454 1.76-4.54724-3.23 0-3.52 1.8189-3.81 3.81968-.88-2.00078-3.52-1.63698-6.16-2.00078-.58-1.4551 1.47-1.0914 1.18-2.3646-4.99-.7276-6.16 2.3646-5.57 3.8197 4.69-.9095 3.81 1.81891 6.74 2.0008.58 2.18268-1.47 3.09213-.88 5.45671zm-53.04-5.82049c.29.54567.88.90945 1.17 1.45512.88-.18189.59-.90945.59-1.45512 1.46.18189.29 1.81891.58 2.72836.59 0 .59-.54568.59-.72757 1.17-.36378 2.05-1.09134 3.22-1.45512 0 1.09134-2.34 1.63701-.58 2.72836 1.75-2.36458 3.51-4.72916 4.39-7.63945 2.64-.3637 5.28 3.45597 6.74 1.0914-.88-.1819-1.17.3638-1.76.3638.59-1.2733.3-1.0914-.58-2.0008-4.11.3638-4.69-1.4551-4.98-3.4559 2.05 0 1.17 1.8189 3.8 1.4551.59-2.5465 3.23-.1819 4.99 0 .58-2.3646-3.52-6.1843 3.22-7.2756-5.27-.9095-2.34-6.0024-8.5-7.2756.3-1.0914 2.93-.7276 3.81-1.4552.59-1.637-.29-2.5464-1.17-3.4559-2.35-.3638-3.81 3.6378-4.98 1.4551-.88.3638-.88 1.2733-1.17 2.0008-1.47 0-2.06-.7275-3.23-1.0913.59-.5457.88.1819 2.35-.3638.58-1.2732-2.05-.5457-1.76-1.4551-4.1 1.4551-10.84-.3638-7.33-3.8197 1.17-1.2733 3.52.5457 3.23-1.4551 4.1 1.2732 8.2 2.5464 11.13 4.5472 1.47 0 2.05-2.1827-.59-1.4551 1.76-2.3646 3.52 0 5.57-1.4551 1.18.1819-.88 1.0913 1.18 1.0913 0 .3638-.88.3638-1.18.3638-.29 1.2732 1.76 1.0913 1.76 2.0008 1.17-.1819 0-1.8189 2.35-1.0914.58-1.0913-.59-1.4551-.59-2.3645 0-.9095 2.05 0 1.76.3638 1.46-1.6371-2.64-2.9103-1.76-4.5473-2.05 1.2732-2.93.3638-4.98-.3638 2.93-1.2732-1.47-4.3654 1.17-5.2748-1.47.3638-1.76-1.0913-3.22-2.0008-2.05-.5457-.59 1.2732-2.35.7276 0-2.5465-5.27-6.1843-6.15-8.0032-.59-.9095-4.1 0-3.81-1.4551-3.22 1.4551-7.91 3.274-8.5 4.911-.88-.9094-3.22-.7276-3.81-2.0008-.59.3638-2.05.3638-3.81.3638-1.17 3.0921-4.39 3.8197-2.34 7.2756.88-.5457.88-.1819 1.75 0-.58 1.2732-.58.7276.59 1.4551-.58.7276-2.93.1819-3.22 1.0914.29 1.2732 2.05 1.8189 4.39 2.0008 0-.5457-.29-1.4552.59-1.4552 2.05.9095-.29 2.5465-.59 3.456-1.46 0-2.05-.5457-2.34-1.0914-2.35.7276-3.81 1.0914-5.57 1.0914.88 1.0913 2.05 1.0913 3.81.7275.29 2.5465-4.69 2.0008-7.33 1.4551 0 1.2733-1.46 1.6371-3.81 1.4552-1.17 2.0008-1.46 4.3653-2.34 6.548 2.34.7276 2.34-3.274 4.98-3.8197 2.93 1.0914.3 4.1835 4.4 3.8197-.59 1.2733-1.47 0-2.35.7276.3.7275 1.76 1.0913 3.23 1.0913-.88-2.7283 2.05 2.7284 4.98 2.3646-1.47 1.2732 2.64 1.637 1.76 3.8197.29-.1819 2.93-.9095 3.22 0 1.76-.5457-1.46-1.0914-1.76-1.4551 0-.9095 1.17-1.0914.59-2.3646 2.34.3638 2.93 1.8189 6.15 1.4551-.58 1.0914-.88.3638-2.34.3638 0 1.2732 2.34 1.0913 2.34 2.3646-.88 1.0913-2.63-.3638-4.39 0 0 1.2732.88 3.274-2.35 2.7283-.88 1.637 1.47 1.2733 1.17 2.3646-.29.1819-4.98-1.8189-7.32-.3638 1.76 1.2733-.88 3.0922 2.34 3.4559-1.76-1.0913.59-.9094.59-2.0007-.29 1.637 3.52 4.911 6.15 4.5472-.88 1.637-1.46 2.91026 0 4.54727 4.98 0 1.47-4.54727 3.81-5.27487 2.93 1.0914 4.69 2.91029 7.91 3.81974-1.17.36378-2.05.72757-3.51.54568zm65.35.36378c.58 0 .29-.36378 0-.36378.58-.90945 1.76-1.45512 1.17-3.09212-1.76-.3638-1.76-.3638-3.81 0 .59 1.2732 1.76 1.637.59 3.09212 1.17 0 2.05 0 2.05.36378zm-40.74-21.8268c-3.51 2.7283 0 6.1842-3.22 9.0945.29 1.0913 2.64.9094 3.22 2.0008-1.75.3637-3.22 3.0921.59 2.7283-.59-1.0913 1.17-1.0913.59-2.3646 2.05.7276.29 1.6371 0 2.7284 1.75-1.2732 1.46 1.637 3.22.3638 0 1.2732-1.17 1.637-.59 3.0921 5.28-4.0016 7.04-9.0945 2.35-14.1874-1.17 0-1.47.3638-1.76.7275-1.17-1.4551-1.17-1.4551-4.4-1.0913 2.06-.7276 2.93-2.0008 5.57-2.3646-2.64-.3638-.88-1.2732-1.76-2.3646-2.05 1.2733-5.86.7276-6.15-1.0913-1.76.3638.88.9094 0 2.0008 1.46-.1819 2.34 0 2.34.7276zm94.95 11.0953c1.76-1.637 1.17-4.7292 1.76-6.1843-2.35-.9095-4.1 0-4.98-2.0008-.88.3638-.88 1.2732-1.18 2.0008.3 1.2732 1.76 1.637 3.23 2.3646-5.57.3637-2.05 4.3653-3.81 7.2756.58.3638 2.34.1819 1.76 1.0913 1.46.1819 1.46-.7275 3.22-.3638-1.46-1.2732-.59-2.5464-3.22-2.7283-.59-1.637.88-2.0008.58-3.4559 2.05 1.2732 1.18.5456 2.64 2.0008zm16.12 1.637c-3.23-1.4551.58-4.3654 0 0zm-112.24-15.8245c.88.5457.88 1.8189 3.23 1.4551-.3-.5456-.88-.9094-1.76-1.0913 0-.3638.29-.3638.58-.3638-.58-.5457-.88.1819-2.05 0zm-85.57-18.3709c-3.51-.3638.59 2.0008-3.22 2.0008.29 2.0008 1.46 4.0016.59 5.8205 2.63-2.5465 5.27-9.0945 1.75-11.0953.88 1.4551-1.46 3.0921.88 3.274zm114.58-15.6426c3.23-.7276-.88-2.3646 2.35-2.3646 0-.3637-1.17-.3637-1.76-.3637 0-.3638.59-.3638.59-.7276 1.17 0 1.17.5457 2.34.3638-2.34-2.1827-4.98 1.2732-3.52 3.0921zm18.46-18.0071c-.58 1.637 4.4-1.637 3.81 1.4551 5.87.3638 6.74-2.1827 11.14-2.7284-.59 2.7284-9.38 3.2741-6.15 5.8205 5.56-1.8189 8.2-5.4567 13.48-7.2756-2.64-1.2732-3.81 1.4551-6.16 1.4551-2.05-2.1827 7.62-2.0008 4.4-4.911-2.05-.3638-2.05.5457-3.23.7276.3-1.0914.3-6.9119 4.99-5.2749 1.75-.9094-.59-2.1826 2.34-2.3645-1.76-1.0914-5.27 0-5.57 1.0913-.88-.9094-2.93-.7276-4.98.3638.59 1.2732-.59 1.637-1.17 2.3646-7.03.5456-9.67 4.0015-14.95 5.8204 2.05 1.6371 4.99.7276 8.5.7276-.29 1.0914-5.57.5457-3.22 2.3646-1.17-1.0914-1.47.5456-3.23.3638zm-49.23-63.1162c0-.182 0-.364-.29-.364-.29.182-.29.364-.59.546h-.29c1.17-1.819 4.69-2.364 7.62-3.274 0 1.455.29 3.092.29 4.547-1.46-1.091-3.22-1.637-6.74-1.455zm92.9 42.926c1.76.364 2.34-1.819 3.22-.727 1.76-1.092-3.81-.91-3.22.727zm-139.2-13.46c-.58 0-.58-.727-.58-1.091-1.76.364-3.23.364-4.99 0 .3.364.59.546.59 1.091 1.76-.727 3.52 1.274 6.15 0 0-.545-1.17-.363-1.17 0zm140.66-6.184c1.76 1.273 6.45-1.273 7.33-2.728-4.69-.364-3.81 2.546-7.33 2.728zm-169.67-8.003c2.35-.182-.59-1.273 1.76-1.091-1.47-.546-2.35-1.455-3.22-2.365 21.39-1.455 42.19 1.637 59.78-1.091-6.16-1.637-20.81-.546-29.6-2.729.29-1.455 1.46-1.819.59-3.092-1.47-.364-2.06 0-4.4-.364 1.17.728-.29.728-1.17 1.092.29.727 2.93.182 3.22 1.091-13.19 5.639-26.67-.727-41.9 2.001v2.001c2.05.727 6.74 0 7.91 1.091.58 1.091-.59 1.455-.59 2.365 2.05.545 2.35 0 4.98 0 1.76-.546-1.17-1.637.59-2.001 2.34.909 1.17 2.001 2.05 3.092zm-2.34 128.5965c1.46 0 1.46.90945 1.17 2.00079 1.46-1.27323 4.98-4.91103 1.17-6.18427.29-1.45512 3.22-1.63702 2.35-3.81972-1.47 1.0914-3.52.7276-3.23-1.0913-2.05.3638-2.05 1.4551-1.17 2.7283-3.81.90949-7.62.5457-11.14-.7275-.88 1.63699-1.17 1.45509-3.81 1.45509-.29 2.36458 2.06 1.27324 3.81 2.0008-.29 1.27323.3 1.8189.59 2.72836 1.17-.36379 1.47-1.27324 1.17-2.36458 1.76.72756 2.05 2.91024 4.98 2.00079 1.47.54567 0 2.36458 0 3.09214 2.06.72756 4.11-.54567 4.11-1.8189zm4.1-36.0143c-2.35-.3638-2.93.5457-4.98.3638.88 1.2732 0 1.2732 0 2.7283 6.44 1.6371 6.74-1.0913 4.98-3.0921zm-17.88 12.7323c1.76.3638 1.18-.7275 2.35-.7275-.88-1.2733 1.76-3.6378-.59-3.4559 2.05-.7276 2.93-2.1827 5.57-2.7284 0-1.2732-.29-2.7284 1.17-3.0921 2.35-.3638.29 2.0007 3.23 1.4551-2.06-2.9103.87-6.1843-.59-11.0953-2.05.1819-2.05 1.4551-3.81 2.0008 0 .7275 1.17.9094 2.34.7275-1.75.7276-4.68 1.2733-6.15 3.0922 2.05 1.8189.88 3.4559 1.76 5.8204 0 .9095-2.05.1819-3.23.3638-.29-.5456-.29-2.0008-3.22-2.0008-1.76 1.4552.59 3.0922-1.17 4.9111 4.98.9094-.88 3.4559 2.34 4.7291zm195.46-13.4599c-.58-2.5464 3.52-2.1826 3.81-4.1834-2.34.7275-2.63-.1819-1.75-1.4552-3.52-.1819-8.5 1.2733-8.5 4.1835 2.05.5457 3.51 2.3646 6.44 1.4551zm-116.92-62.0246c1.76-.182 2.34-1.273 2.34-2.728-1.17.182-1.17-.546-1.17-1.092-1.76 1.274-2.05 1.819-1.17 3.82zm72.67-8.003c-.58-.364-.58-.91-.58-1.455 3.81 2.728-4.1 2.728-4.4 5.275 2.05 0 2.35-1.092 4.98-.728-1.17 1.273-2.34 1.637-2.34 2.728 2.05.728 4.98-1.455 7.33-2-.3-.91-.59-1.637-1.76-2.001 2.64-2.91 9.08-3.092 12.31-6.548-4.4-.546-8.21 2.546-12.31 3.456 2.05-1.456 2.34-4.184 5.57-4.911-4.4-.91-5.87 3.274-11.73 2.728 0 2.546-4.98 2.001-3.81 5.275 2.93 0 4.69-.91 6.74-1.819zm-1414.5211-75.667c-.2931-.181-.8792-.181-1.1722-.363.293.363.5861.545 1.1722.727 0-.182 0-.182 0-.364zm-5.2748-1.455c-.8792-.182-2.0513-.363-2.9305-.182-.5861 0-.293.546-.5861.91.8792.182 1.7583.546 2.3444.727.5861-.545 1.1722-.909 1.1722-1.455zm4.1026 8.913c-.2931-.182-.8791-.182-1.4652-.182.293.364.5861.546 1.1721.546 0 0 .2931-.182.2931-.364zm-23.1505-6.184c-.2931 0-.8792-.182-1.1722-.364.293.182.5861.546.8791.909.2931-.182.2931-.363.2931-.545zm-2.6374-2.001h2.3443c-.5861-.546-1.4652-.728-2.6374-.364.2931.182.2931.364.2931.364zm-7.0331 13.642c1.4652.545 3.8096.727 4.9818 1.273-1.7583.364-4.1027.182-4.9818 1.091-.293 0-.293 0-.5861-.182.2931 1.455.8792 2.911.8792 4.548.293.363 1.1721.363 1.4652.909.5861.182 1.1722.546 2.0513.728 2.0513-.91 3.5165-1.456 2.6374-3.093-.2931 0-.5861.364-.8791.364-.2931.364-1.4653 1.455-.8792 1.455-.8791.728-2.6374.546-2.6374-.545.8792.182 1.4652 0 1.4652-.546-.293-.728-1.1721.364-1.7582-.364.5861-.364.293-1.091.8791-1.455.5861.182.8791.364.8791.91.8792-.364.5861-1.274 1.7583-1.456-.5861-.181-2.9304-.363-2.6374-2 1.7583 0 4.6887 2.728 5.8609.545 2.6374 0 3.2235 1.274 4.3957 2.183 0-.909 1.4652-1.455 1.4652-3.092 1.4652-.182.8791-.182 2.3443 0 .8792 0 .2931-1.091 1.4653-1.091-1.1722-.364-3.8096-.91-4.9818-2.001-1.7583.727-.293 1.273-.8791 2.001-1.4652.181-1.4652-.364-2.6374-.364-.2931-1.092.5861-1.455.5861-2.547-1.4653 0-1.7583.728-1.7583 1.637-2.9304 0-3.8096-1.637-6.447-1.091-1.4652 1.091-1.7582 1.637-2.0513 2.183zm1.7583-2.729c.293-.182.293-.363.293-.727 3.5166 1.819 1.4652-2.183 3.5166-1.455 0-.728-.8792-.728-.2931-1.637 1.7583-.91 2.9305-.364 4.6887-1.092.5861-1.091 2.0513-1.637 1.4652-3.456-3.2234-.363-2.6374 1.637-2.9304 3.092-1.7583 0-2.6374 1.274-4.9818.546-.8791.364.2931 2.001-.586 2.365-.5861.364-1.1722-.182-2.3444 0v.545h.5861c-.2931 0-.2931.182-.5861.182 0 .546.8791.91 1.1722 1.637zm8.2052-4.911c.2931.728 1.7583.728 2.6374 1.092 0-.364 0-.728 0-1.092-.8791-.182-1.7582.364-2.6374 0zm-19.3409 85.8525c-.2931.1819-.2931.1819-.5861.3638.293-.1819.5861-.1819.5861-.3638zm10.5496 21.4631c.293-.3638 0-.3638 0-.1819zm.8791-2.0008s0-.1819-.293-.1819c1.4652.1819.8791.3638 2.3443.3638.8792-.5457.8792-1.2732 2.9305-1.637 0 0 0 0 0-.1819-2.0513-.1819-1.4652-1.8189-3.5166-2.0008.2931.9094.2931 1.637-.293 2.1827-1.7583-.3638-.8791.1819-2.3444.1819-.293.9094.5861 1.0913 1.1722 1.2732zm-2.0513 12.9142c.2931-1.0913-.8791-1.0913-1.4652-1.4551.293.5457-.2931 1.637.293 1.637.2931-.1819.8792-.1819 1.1722-.1819zm-.8791-27.1017c0-.7275-.8792-.5456-1.4652-.9094.293.3638-.2931 1.2732.293 1.2732 0-.1819.8791-.1819 1.1722-.3638zm17.2896-5.0929c-.293.5457-.8791.9095-.5861 1.637.5861 0 .5861.3638 1.1722.3638 0-.7275.5861-1.4551-.5861-2.0008zm-.5861-1.0913c-.5861 0-.8791-.1819-1.4652-.1819v1.0913c1.1722.1819.8791-.5456 1.4652-.9094zm-13.7731-2.5465c0 .7276-1.4652.5457-.8791 1.4551 1.4652.5457 1.7583-1.0913.8791-1.4551zm1.1722-5.2746c-1.4652.545-2.6374 3.092-.8791 4.1833.5861-1.2733 1.7582-2.9103.8791-4.1833zm8.7913-4.184c-2.3443-.182-.8791 3.092-.5861 3.456.2931-.727 0-2.546.5861-3.456zm-5.2748-76.394c-1.1721.364-1.4652 1.092-2.3443.182 0 1.092-2.0513 2.001.5861 2.365.5861-.728 2.9304-1.273 1.7582-2.547zm69.4516 104.7692c-1.7583 0-.2931-.1819-.5861-.9094-1.7583-.3638-.5861 1.0913-2.3444.9094-.8791-.5457.2931-.5457 0-1.4551 2.9305.5457.2931-.3638 2.6374-.5457.2931.7276.2931 1.2732.2931 2.0008zm-60.9533-31.4672c-2.0513 0-.293-1.819 1.4652-1.455-.293.728-1.7582.546-1.4652 1.455zm18.4618-25.283c.5861-2.182 2.93046-5.638 5.27482-7.639 1.17218-2.365 1.75827-5.093 4.39567-6.548-.58609-1.819.58608-4.365 2.637396-5.457.586086 2.365-1.758266 6.912-4.102626 9.277-.29304 3.274-4.10261 11.095-8.20526 10.367zm15.82442-26.374c-1.17218-.363 0-1.637.29305-2 1.75826.727-.29305 1.273-.29305 2zm-3.809575-6.184c-.879135-.546-2.930445-.364-2.637405-1.637 1.75827 0 3.223495.909 2.637405 1.637zm1.758275-4.729c-1.46523 0-2.05132-.728-3.2235-1.091.58609-1.274 1.17218-2.729 2.637405-3.638-.293045-.91-2.344355-.728-2.637405-1.637 0-.546 1.172176-.364.879135-1.092 1.465217.364 2.344355.364 3.516535.546 0 2.728-.87914 4.547-1.17217 6.912zm13.18698-6.002c-.5861-.91 2.9305-.91 2.3444 0-.2931.181-2.3444.727-2.3444 0zm14.0661-4.366c-.8791-.727-2.6374-.727-3.2235-1.637 1.4653.182 2.3444 0 4.1027.546-.2931.364-.5861.727-.8792 1.091zm-24.61569-5.093c.58609-.182.87913-.364 1.17218-.727-.29305 0-.87913 0-1.17218 0-.29303.363-.29303.545 0 .727zm23.44359-5.638c-1.4653.181-1.7583-.364-2.6374-.546.293-.546 2.9304-.182 2.6374.546zm-78.829 130.415v2.9102h.5861c.293-.9094.293-2.0008-.5861-2.9102zm.5861 11.8229.293.1819c.5861-.1819.8792-.5457.8792-.9095-.5861 0-.5861.3638-1.1722.1819zm4.6887-.7276c.2931-.1819.5861-.3638 1.4652-.5457-.5861-1.4551.5861-2.0008 1.7583-3.0921-.293-.3638-.5861.1819-1.4652 0 0-.9095 1.1722-1.2732 1.4652-2.1827 1.4652.1819-1.1722 1.4551.5861 1.637 1.4652 0 .293-1.637 2.3443-2.0008 0-.5456-1.7582.3638-2.3443-.3637 0-.7276 1.1722-.7276 1.7583-1.0914-2.0514-.7276-1.4653-3.274-.2931-4.1835 0 0-.293-.1819-.293-.3638-1.4653.1819-.5861 1.6371-1.7583 2.0008-1.7583 0-.293-1.0913-.8791-1.8189-1.4653 1.0914.5861 2.1827-.2931 3.456.2931.9094 1.1722-.7276 1.4652 0-.293.7275-.586 1.4551-.8791 2.1826-.8791.1819-.293-.7275-1.1722-.9094-.8791.3638.2931 1.0913 0 1.637-3.2235 1.4551-.293 3.6378-1.4652 5.6386zm-.5861-14.1874c.2931-.1819.2931-.3638.2931-.5457-.2931.1819-.2931.3638-.2931.5457zm-4.1026 20.7355c2.0513-.1819 2.6374.5456 2.9304 1.4551h.2931c0 .1819 0 .1819-.2931.1819 1.4653-.9095-.293-1.2733.5861-2.0008-.8791-.1819-1.7582-.3638-2.6374-.5457-.293.3638-.5861.7276-.8791.9095zm-13.187 37.65128v1.45512c1.7583-.36378 3.5165-.72756 5.2748-1.09135 0-.36378 0-.90945.293-1.27325-1.7582.3638-3.8095.72759-5.5678.90948zm11.7218-.72758c.293 0 .293 0 .5861-.1819 0-.1819 0-.5456 0-.9094 0 0 0 0-.2931 0v.5456c-.293.1819-.293.3638-.293.5457zm2.6374-.5457c2.6374-.5456 4.9817-.9094 7.3261-1.2732.8791 0 .293-.9094.8791-1.0913-1.7582 0-4.6887.7275-4.3956 1.0913-1.1722.1819-2.6374.1819-4.1027.5457.2931.1819.2931.5456.2931.7275zm-14.3592 4.36541v.36378c1.7583-.18189 3.8096-.54567 4.9818-.90945 0 0 0 0 0-.18189-1.7583.36378-3.5166.54567-4.9818.72756zm0 8.73074v.36378c.8791.54567 3.8096.18189 3.2235.18189-.5861-.18189-2.6374-.72756-3.2235-.54567zm66.81413 22.91815c-1.17218-1.0913-.29304-.7275.29305-1.4551h-.29305c-.29304 0-.29304 0-.58608 0h-.29305c-.58608.1819-1.172183.1819-1.758273.1819 0 .5457.293053.9095.879143 1.8189.87914-.1819 1.46522-.3638 1.75826-.5457zm-2.930444-.7275c0-.1819-.879131-.1819-1.465226-.1819.29305.1819.29305.5457 0 .7275.586095 0 1.465226.0001 1.465226-.5456zm-13.480086-3.274c-.586-.3638-.8791-.9095-1.4652-1.2733-.293.1819-.293.3638-.5861.7276.2931.1819.5861.3638.8792.5457zm-2.3443 1.0913c0 .3638-.2931.9094.293.7276.2931-.1819.2931-.5457.5861-.9095-.5861 0-.8791 0-.8791.1819zm-.2931-19.46228c-.293-.54567-.586-1.09134-.293-1.63701-.5861 0-1.1722.18189-1.7583 0-.5861.72756-1.1721 1.45512-1.7582 2.36458.5861-.1819 1.1721-.54568 1.4652-1.09135.293.36378.8791.54567 1.4652.72756.2931-.18189.5861-.36378.8791-.36378zm.8792-3.819697c1.4652-1.637013 4.1026-3.274023 4.6887-4.911043 0-.18189-.2931-.36377-.2931-.72755-.586.36378-1.1721.90944-1.4652 1.27322 0 .18189-.293.36378-.5861.36378-1.4652 1.27324-2.6374 2.54647-3.8095 4.001593.586.363781 1.1721.18189 1.4652 0zm-43.9567 4.001587h.2931s0-.18189-.2931-.18189zm14.0661-11.45909c-.586.36378-2.9304.90945-3.2234 0 .8791 0 1.4652-.18189 1.4652-.90945-.8792.36378-1.7583.36378-2.6374.18188-.8792 0-1.4652.1819-1.4652.72757.293.72756 1.1721 1.27323 1.1721 2.36457 1.1722.18189 1.7583-.18189 3.2235-.72756 0-.54567-.5861-.54567-.5861-1.09134 1.1722.18189 3.5166-.18189 2.0513-.54567zm38.68191-.90945c-.87913.18189-2.93044 1.09134-3.22348 1.63701.29304-.18189.87912-.18189 1.17217-.18189.87913-.54567 1.75827-.72756 2.05131-1.45512zm-36.63051-.18189c.8791-.72758 3.2234-.54568 4.1026-1.45518-2.6374.3638-4.9818.7276-6.74 1.63707 1.1721-.54567 3.5165-.18189 2.3443.90945 1.7583 0 1.1722-.72756.2931-1.09134zm10.8426-5.27478c-2.3444 0-3.5165.7275-4.9818 1.4551 0-.3638 0-.7276-.8791-.5457.8791 1.8189 4.9818.3638 5.8609-.9094zm36.63056-9.4583c-4.688711 2.1826-9.96351 3.8197-14.94526 5.8204-2.3444.9095-5.2748 2.0008-6.74 3.6379 7.91216-1.8189 15.82437-5.6386 21.68526-9.4583zm-52.74796 6.7299c2.9304.5457 4.6887 1.8189 8.4982 2.5465l1.7583-.5457c-.8791-1.2732.5861-2.3646-1.1722-2.7284-.5861.5457-.5861 1.4552-2.3443 1.4552-1.7583-1.0914-5.5679-.5457-6.74-.7276zm68.8654-12.5504c-.293 1.637-9.6705.7275-6.1539 3.0921 3.2235-.1819 6.4469-1.8189 6.1539-3.0921zm-49.2315 0c0-2.0008-2.0513-2.5465-1.7582-4.3654-1.1722 0-1.7583.3638-3.2235.3638-1.7583-1.0914-.5861-2.1827-3.2235-3.0922 1.7583 2.7284 2.3443 8.367 8.2052 7.0938zm19.63401-12.9142c-.58609-1.4552.29304-2.7284.87913-3.8198-1.46522-.5456-2.63744.1819-4.98174 0-.2931.9095.8791.9095.5861 2.0008-.8792.3638-1.4652.7276-3.2235.5457.293 1.2732-.8791 1.4551-.5861 2.7284 2.6374-.5457 4.9818-.5457 7.32611-1.4551zm-28.42531.3637c-.8791.1819-.293 1.8189.5861.9095-.2931 0-.5861 0-.5861-.3638 1.1722-.3638 2.0513.5457 2.3444 0-1.1722-.1819-1.4653-.7276-2.3444-.5457zm-3.2235-.3637c.5861 0 1.1722-.0001 1.4652-.3638-1.4652-.3638-2.6374.5456-3.5165-.5457.5861-.7276 2.3444.3638 2.6374-.3638-.8791-.7276-2.3444-.7276-3.5165-.9094-.5861.5456-.2931 1.4551-1.4653 1.637.5861 0 1.1722 0 .8792.5457 1.7582-.3638 3.5165.7275 4.3956 0-.293.1818-.8791.3637-.8791 0zm12.3079-.7276c0 .7275.8791.7275 1.7582.9094.5861-.3637 1.4653-.3637 1.7583-.9094-1.7583-.1819-2.0513.3638-3.5165 0zm-2.6374.1819c0-.3638.5861-.3638 1.4652-.3638.293-1.8189-4.3957-.1819-2.6374.5457 0-.1819.293-.3638.8791-.3638 0 .3638.5861.7275.8792.3638-.2931.1819-.5861 0-.5861-.1819zm5.2748-6.3662c-.5861-.1819-1.1722-.3638-2.3444-.3638-.293 2.0008-2.6374.9095-4.3956 1.4552 0-1.0914.293-2.1827-1.7583-2.0008.293 1.637 1.1722 1.4551 1.7583 2.5464 2.9304-.5457 4.1026.1819 5.8608.9095-.293-1.637-1.1721-1.637.8792-2.5465zm4.1026-.1819c.5861.3638 1.7583.9095 2.3444 0-1.7583.1819-1.4653-2.1827-2.6374-1.4551.8791.5457-1.1722 3.0921.8791 2.5465-.8791 0-.5861-.7276-.5861-1.0914zm-18.1688-5.8205c.2931.7276-2.0513-.1819-1.7582.5457 1.1722.1819-.8792 1.4551 1.4652 1.4551-.8791-.9094 1.1722-1.637.293-2.0008zm9.6705-7.8213c.2931.5457-.5861 1.8189.8791 1.6371-.293-.5457.8792-2.0008-.8791-1.6371zm-2.6374-2.7283c0-.3638 1.1722-.1819.8791-.9095-.586.1819-.8791.1819-.8791.1819-.293.3638-1.1722.1819-1.7583 0-.293.1819-1.1721 0-.586.5457 2.0513-.9095 1.1721.9094 3.2234.9094-.293-.3637-.586-.5456-.8791-.7275zm-12.6009-3.6378c-.293 0-.293 0-.5861 0 0 .1819-.293.3638-.293.5456h1.1721c0-.1818 0-.3637-.293-.5456zm9.6705-6.5481c.293-.7275-.5861-.7275-.2931-1.4551-.5861.1819-.8791.1819-.8791.3638-.5861.3638-.5861.9094-.8791 1.2732.293-.3638 1.1721-.1819 2.0513-.1819zm8.2052-4.1835c1.7583-.1818 2.6374-.1818 4.3957 0-1.1722-1.0913-3.5166-1.2732-4.3957 0zm-2.0513-32.3766c-.5861-1.091 1.4652-2.91 3.2235-3.638-.2931 1.637-2.3444 2.183-3.2235 3.638zm32.23489-69.846c-.29305-.727-2.051318-.545-2.344363-1.455.58609 0 .879143 0 .879143.364 1.46523 0 .29304-1.637 2.34435-1.455-1.46522 1.273 0 2.728-.87913 4.183-1.17218-.545-2.637404-1.091-4.10263-1.637.87914-.727 3.22349-.182 4.10263 0zm-19.92699-8.185c.293 0 .5861.182.8791.182-.293-.182-.5861-.182-.8791-.182zm1260.0959 208.6285c-4.99.3637-10.55.9094-15.24.1818-1.18.3638-1.47 1.2733-3.23 1.4552-3.81-1.0914-9.37-2.1827-13.77-.7276-1.17-.1819-.29-1.2732-1.46-1.4551-.59 1.4551-2.06 0-2.35.1819-.29.9094 1.47.7275.88 1.637-1.47.5457-4.4 0-4.98-.9095-.29-.9094 1.46-.3637 1.46-1.0913-.58-.3638-2.34-.3638-3.81-.3638-.88 3.274-9.08 2.7284-11.13.7276 1.46-.3638 3.81-.1819 4.1-1.2733-.59-.3637-2.34-.3637-3.81-.3637-.88.1819.29 1.637-1.46 1.4551-1.18.1819-.3-1.0914-1.47-1.0914-1.17.1819-3.52-.5456-3.22.5457.29.7276 2.63-.7276 2.63.5457-2.05.5457-5.27-.3638-5.56-1.8189.29-.7276 2.93-1.2733 1.75-1.637-.58 0-.87-.1819-1.46-.3638-1.47.7275-2.64 1.637-4.1 2.1827-.3.9094.58 1.0913.29 1.637-2.34 2.0008-6.45 1.637-6.15 3.6378.29 1.637 1.75.3638 4.1.9094.88.1819 1.76 1.0914 2.34 1.0914l.59-.9095c1.17-.1819 2.93.7276 3.81-.1819 0 .9095 1.46 1.0914 2.64 1.4552 1.46 0 .58-1.4552 2.34-1.4552 2.05 0 1.17 1.8189 3.52 1.4552 0-1.2733 1.17-.5457.58-2.0008 2.35-.9095 4.69 0 8.21-.1819.58 1.4551 2.64 2.1827 5.57 2.3646-.88-1.4552.58-1.6371 2.34-2.0008 0 .7275 0 1.637 1.47 1.4551 1.46-1.4551 7.03-.3638 7.32-2.3646 4.98-.5457 10.26-.7276 13.19 1.0914 2.64-2.3646 7.33-2.5465 12.89-2.5465 0 0 0-.1819-.29-.1819 1.47-.3638 1.47-.7276 1.47-1.0913zm178.46-2.5465c0-.1819 0-.3638 0-.5457-1.76-.1819-3.22 0-4.1.3638 1.17 0 2.34 0 3.51.1819zm-73.55-7.27563v.90946c1.75.36378 2.63 1.09134 5.27 1.09134.29-.18189.29-.72756.29-1.27324-1.76-.36378-3.51-1.45512-5.56-.72756zm16.11 2.91023c-.29.1819-.29.3638-.29.7276h1.17c.29.7275.88 1.2732 1.47 1.8189 2.05.1819 4.39-.1819 4.39-1.2732-.88-1.2733-4.39-2.00084-6.74-1.2733zm-45.71.3638c.88.5457 1.76 1.4551 3.51.9095 0-1.0914-2.34-1.4552-3.51-.9095zm-49.53 2.1827v.5457c.59.1818 2.05.3637 2.35-.1819-.3-.3638-1.47-.9095-2.35-.3638zm9.38.1819c-.88.7275 2.05.9094 2.34.1819-.87-.1819-2.05-.5457-2.34-.1819zm1.17 4.7291c.88.3638 1.76-.1819 2.64-.1819 0-.3637 0-.7275 0-1.0913-1.17-.3638-2.34.5457-2.64 1.2732zm3.52-1.0913c-.29.9094.88.9094.88 1.4551 2.34 0 3.22-.1819 4.69.3638.58-.5457 2.05-.5457 2.63-1.2732-1.46-.7276-5.56-1.0914-8.2-.5457zm-400.006 12.5504h11.721c.293 0 .879 0 1.172-.1819-3.516-.1819-5.274-1.4551-7.326-2.3645-1.758.7275-4.688.5456-5.567-.7276-1.759.1819-2.931.7276-2.931 2.1827 1.172.5456 2.051.9094 2.931 1.0913zm254.946 0h14.65c-.58-.3638-.58-1.0913-1.46-1.2732-4.1 1.8189-8.5.3638-13.19 1.2732zm18.17 0h2.93c.29-.5457.88-.9094 1.47-1.0913 2.34 0 4.1 1.2732 5.86.7275-1.17-1.2732-5.28-1.637-7.91-1.2732 1.17 1.4551-.59 1.637-2.35 1.637zm14.65 0h1.47c-1.17-.5457-2.35-.9094-3.52-.7275 0 .3637 1.17.1818 1.76.3637s.59.1819.29.3638zm297.44-11.8229c-.29-.3637-.58-.5456-.58-.9094-.59.1819-1.17.3638-1.76.5457v.1819c.59.1818 1.46.1818 2.34.1818zm1.18-16.00631v-1.637017c-.88 0-1.47.000002-2.35-.363779.59.545672 1.17 1.455126 0 1.818906-.59 0-.29-.727565-.59-1.091346-.58 1.091346-.58 2.546466-.29 3.092136-1.46 1.27324-2.93-.72756-5.57-.36378-.29 1.63702-3.22 1.63701-4.68 2.54647 1.46.90945 3.22.36378 5.56.36378 0-.54567-1.17-.36378-.88-1.09134 1.76.18189 2.06 1.27323 2.64 2.00079 2.64.18189 2.35-1.27323 5.57-.72756.29-1.8189-2.64-1.8189-2.35-3.8197.88-.36378 2.35-.36378 2.94-.72756zm0-3.63781v-3.27403c0 .54567-.3 1.09135-.88 1.45513-1.18.18189 0-.90945-.88-.90945.29.54567 0 .90945-.59 1.09134.59 0 1.17 0 1.47.18189 0 .72756-.3 1.27323-.88 1.63701h.58c.88 0 1.18 0 1.18-.18189zm-2.06-5.82049c-.29-.36378-.58-.36378-1.17-.36378.3.18189.59.18189 1.17.36378zm-565.572 32.74031c-.293.9094-2.344.7275-3.809.7275 0-.3638 0-.5456 0-.9094 1.465.1819 2.637.1819 3.809.1819zm92.309-2.5465c.586.3638.586 1.0913.294 1.637-1.759.1819-2.052.3638-2.638-.5457.879-.3637.879-1.2732 2.344-1.0913zm5.568 0c.293 1.8189-1.758 2.0008-2.344 3.0921 0-1.0913-1.758-1.0913-1.465-2.3645 1.465-.1819 2.051-.7276 3.809-.7276zm1.175 5.2748c0 1.4551-4.398.7276-4.691 0 1.465-.9094 2.93 0 4.691 0zm5.57-.3638c-1.47-.3637-4.99.5457-4.99-.7275 1.47.5456 4.99-.3638 4.99.7275zm42.19 1.2733c1.18-.3638 7.62-.1819 1.47 0-.88.9094-1.76.1819-1.47 0zm85.57-2.3646c1.47.1819 5.86-.3638 7.33.1819.29.7275-.59.7275-.59 1.4551-2.34.1819-4.1.5457-6.44.7276 1.75-1.2733-1.47-1.4552-.3-2.3646zm27.55-2.3646c2.05-.3638 2.05.7276 3.22 1.2732-1.17-.1818-3.22.3638-3.81-.3637.88-.1819.59-.5457.59-.9095zm9.38-3.0921c.58.5457 1.17.9094.88 2.0008 1.46.5456 4.39 0 4.98.9094-2.35.3638-7.04 1.4551-7.91-.3638.29-.3637 1.75 0 1.46-.9094 0-.5457-1.17-.5457-2.34-.5457 0-.3638 0-.5456 0-.9094 1.17.1819 1.46-.3638 2.93-.1819zm7.03 8.3669c-1.47-.1819-4.1.3638-4.69-.3637 1.17-.3638 4.69-.5457 4.69.3637zm3.52-.7275v.9094c-.88 0-2.35.1819-1.76-.5456.29-.1819.58-.5457 1.76-.3638zm38.09-3.6378c1.47-.1819 1.17.7275 1.76 1.0913-.88-.1819-2.64.3638-2.64-.3638.59 0 .3-.5456.88-.7275zm10.84-14.3694c-1.17.1819-2.05.5457-3.81.5457 0-.3638-.87-.5457-.87-.9095 2.05 0 3.51-.54562 4.68.3638zm2.06.5457c0 .5457.58.5457.58 1.0913-.88 0-1.46 0-2.34 0-.3-.9094 1.17-.7275 1.76-1.0913zm5.56 11.2772c-1.46 0-1.17 1.0913-3.22.7276-.88-1.2733 2.34-1.4552 3.22-.7276zm8.79.1819c-2.05.3638-4.68.3638-6.15-.3638 1.47-.1819 3.22-.5457 4.98-.9094.3.3637.88.7275 1.17 1.2732zm162.64-24.19143c-.58-.18189-1.17-.36378-1.17-.90945 1.17-.36378 2.35-.18189 2.93.36378-.58 0-1.17 0-1.76 0zm19.64-3.09214v2.91025c-1.76-.54567-3.81-.90945-4.69-2.00079 2.34.18189 3.52-.18189 4.69-.90946zm1.46 12.36855c-.58 0-.58.54567-.88.90945-1.17 0-2.34 0-2.34-.54567.88.18189 1.47-.36378 2.34-.54567.3 0 .59 0 .88.18189zm9.97-13.45989v1.09134c-1.18-.18188-3.23.36378-3.81-.36378 1.76 0 1.76-1.09134 3.81-.72756zm5.57.36379c-1.18-.18189-4.11.54566-3.52-.54568.29-.72756 4.1-1.27323 3.52.54568zm-.88 1.09133c0 .36379.58.54567.58 1.09135-1.46-.18189-1.76.72756-2.34-.36378.58 0 .58-.72757 1.76-.72757zm4.68 11.4591c-1.17 0-.58 1.27323-2.34 1.09134-1.46-.36378-1.47-1.63701-2.34-2.36457 2.93-.18189 3.51.54567 4.68 1.27323zm.3-13.45988c-.59 1.8189-.59 1.637.29 3.09213-2.93 1.09134-2.64-2.0008-4.1-2.54647.58-.18189.88-.36378 1.46-.54566.3.54566.59 1.09133.3 2.00078.88-.54566 1.17-1.27323 1.46-2.18268.29.18189.29.1819.59.1819zm4.69 16.73387c.88.9095.88 1.2733.29 2.3646-2.93 0-4.98-.3638-6.45-1.2732 2.05-.5457 4.4-1.63703 6.16-1.0914zm-2.93-5.82045c2.05.36378 2.34 1.8189 3.51 2.54646-1.76.18189-2.63.36378-4.1 0 .59-1.27323 0-1.45512.59-2.54646zm17.29-12.00477v-1.27324zm0-5.63858v-1.8189c-.3.1819.29 1.2732 0 1.8189zm0-55.6585v-2.3646c-.3.1819-.88.1819-1.18.5457.88.5457 1.18 1.0914 1.18 1.8189zm0-4.5472v-.5457c-.3-.1819-.88-.3638-1.18-.5457 0-.9094 1.18-1.637.59-2.3646-1.47.5457-1.47 2.0008-1.17 3.0922 1.17-.1819 1.76 0 1.76.3638zm0-5.093v-.7275c-.59.3637-.88.9094-.88 1.4551.29 0 .29-.3638.29-.7276zm0-30.9213v-7.094s0 0-.3 0c0-.364 0-.364.3-.545v-.91c-.3-.182-.59-.364-.88-.546-.3 3.093 0 6.185.88 9.095zm0-9.64v-1.637c-.59 0-.88.182-1.18.545.88 0 1.18.546 1.18 1.092zm0-2.365v-5.275c0-.363-.3-.727-.88-1.091-.88-.182-.88.364-1.47.546.88.363.88.909 1.76 1.273-.29.546-1.17 1.091-1.47 1.819 1.18.727 1.47 1.637 2.06 2.728zm0-7.821v-4.365c-.3 1.455-.3 3.274 0 4.365zm0-5.093v-2.365c-.3.546-.88 1.819 0 2.365zm-38.69-64.753h-.58c.29 0 .58.182.58.182 0-.182 0-.182 0-.182zm34.29 188.8022c.29-.1819.88-.1819 1.76-.1819 0 .7276.29.7276-.59 1.09138-.29-.54568-1.17-.36378-1.17-.90948zm0-2.1827c1.76-.1819 2.05.7276 3.22.9095-.88 0-1.17.7276-2.34.5457-.29-.5457-.88-.7276-.88-1.4552zm1.76-51.8387c0-.5457-.29-2.1827 0-2.9103.88-.1819.88.1819 1.46.1819.3.9095.59 1.637.88 2.5465-1.17-.5457-1.46.5457-2.34.1819zm-2.93-10.5497c-.3-.9094.58-.9094 1.17-1.2732-.29.3638.29 1.2732-.29 1.4551 0-.1819-.3-.1819-.88-.1819zm-2.93-3.6378c.58-.1819.88-.5456 2.05-.3638.29-.5456 0-1.8189.88-2.0007.58.9094 1.46 2.7283-.3 3.0921-.29-.1819 0-.7276-.87-.5457-.59 0-.59.3638-.59.9095-.29 0-.59 0-.88 0 0-.3638-.59-.5457-.29-1.0914zm8.2-2.7283c-.29.5456.3 1.4551-.29 1.8189-.29-.3638-.59-1.8189.29-1.8189zm-.88-1.2733h.88c0 .3638.3.9095-.58.7276 0-.3638-.3-.3638-.3-.7276zm-4.39-14.7331c0-.5456.58-.5456 1.17-.7275-.29.3637.29 1.0913-.29 1.0913 0-.1819-.59-.1819-.88-.3638zm-14.36-4.0016c.29.364.58.728.58 1.4552-.29 0-.58.3637-.87.3637 0-.9099-.59-1.4549.29-1.8189zm.58-.909c.59 0 .59-.182 1.18-.182v.909c-.88 0-.88-.546-1.18-.727zm11.14-2.183c0 .546 1.17.364.88 1.273-1.47.364-1.47-.909-.88-1.273zm-1.17-4.365c1.17.363 2.05 2.546.88 3.274-.59-.91-1.47-2.183-.88-3.274zm-7.33-3.274c2.05-.182.59 2.546.59 2.91-.29-.728 0-2.183-.59-2.91zm9.38 1.091c-.29.364.29 1.091-.29 1.273-.59-.364-.3-1.091.29-1.273zm5.27-11.641c.3.909.88 2.91-.88 3.274-1.17-.91-.58-2.728.88-3.274zm-4.39-26.738v.728c-.29 0-.88 0-1.17 0-.3-.546 0-.728 1.17-.728zm-28.72-21.463s.29 0 .29.182 0 .364-.29.364-.29 0-.59 0c.3-.182.59-.364.59-.546zm-2.93-6.912h2.93c-.29.546-.59 1.091-1.17 1.455-.3-.182-.59-.364-.88-.545-.29-.364-.59-.728-.88-.91zm-1421.85193-21.463h-1.75827c.58608 0 1.75827.182 2.63741.364-.29305-.182-.5861-.364-.87914-.364zm-72.08897 23.1c0 .364.2931.728 0 .91 0 0-.293 0-.5861 0 0-.364 0-.728.5861-.91zm75.3125-21.463c.293-.182 1.4652-.364 1.4652.182-.5861.182-1.1722.364-1.4652-.182z" fill="#fff" fill-rule="evenodd"/></g></svg>