<svg width="353" height="142" viewBox="0 0 353 142" fill="none" xmlns="http://www.w3.org/2000/svg">
<path fill-rule="evenodd" clip-rule="evenodd" d="M16.5566 89.4876C17.1511 89.3903 17.7338 89.7506 18.3283 89.6534C18.34 89.1958 18.9374 88.9842 18.3547 88.6239C17.3716 88.481 16.5741 88.8013 16.5566 89.4876ZM31.1056 99.2957L31.4883 99.7647C31.8827 99.7761 32.2741 99.9019 32.4771 99.6788C32.483 99.4501 33.0863 99.0097 32.6978 98.7695L31.1056 99.2957ZM47.3837 118.655L49.1116 120.537C50.7008 120.125 50.9272 118.987 51.345 118.083C50.3708 117.597 47.9957 117.871 47.3837 118.655ZM0.786947 65.6787L2.16141 65.9475C2.37029 65.4956 3.56217 65.1868 2.58795 64.7007C1.21642 64.3175 0.604392 65.1011 0.786947 65.6787ZM20.2873 82.4985C18.907 82.4585 19.4752 83.3907 20.055 83.8654L20.4523 83.7625C20.6612 83.3106 21.2645 82.8702 20.2873 82.4985ZM23.6962 88.0918C23.8846 88.4407 24.6763 88.3492 25.0649 88.5894C25.8565 88.4979 25.4767 87.9145 25.877 87.6972C25.303 86.9937 23.908 87.5256 23.6962 88.0918ZM24.3814 84.4486L22.0181 84.2657C21.409 84.9349 21.3798 86.0787 22.1597 86.4447L23.3516 86.1359C24.5406 85.9414 24.3697 84.9062 24.3814 84.4486ZM53.2103 114.588L52.7955 115.378C53.1811 115.732 54.5585 115.887 54.9528 115.898C55.3648 115.223 54.002 114.497 53.2103 114.588ZM27.0864 86.702L28.4609 86.9707C28.8552 86.9822 28.8611 86.7534 29.0642 86.5303C28.2783 86.3931 26.9068 86.0099 27.0864 86.702ZM35.5683 86.8332L35.1827 86.4787L33.3935 86.9992C33.5819 87.348 34.3735 87.2565 34.9593 87.5024C34.968 87.1593 34.7796 86.8104 35.5683 86.8332ZM62.2183 109.584C61.3944 110.933 64.1872 109.755 64.1521 111.128C63.543 111.797 62.9368 112.352 62.1305 113.015C60.8713 115.955 68.1702 116.052 71.0928 117.51C77.4174 117.121 71.1835 113.964 75.1711 112.363L73.0021 112.3C69.4849 110.939 65.9853 108.892 62.2183 109.584ZM43.0983 77.8938C42.8923 78.2312 42.2949 78.4428 42.8777 78.8031C43.272 78.8146 43.6635 78.9404 43.8665 78.7173C44.4669 78.3913 44.0959 77.4648 43.0983 77.8938ZM72.1507 107.01C72.9307 107.376 73.3397 106.815 74.1313 106.724L73.7458 106.369L72.1507 107.01ZM95.256 121.759C94.0495 122.64 93.6171 124.115 95.3683 125.082C98.294 126.426 99.1324 124.504 101.116 124.104C101.139 123.189 103.129 122.559 101.569 121.827C99.4086 121.421 97.2601 120.558 95.256 121.759ZM52.2145 68.6569L53.0325 67.5358L51.0606 67.4787C51.2432 68.0564 50.4369 68.7198 52.2145 68.6569ZM88.9203 107.152C89.915 106.838 90.5183 106.397 90.733 105.717L88.3463 106.449L88.9203 107.152ZM85.9935 98.1387L86.5587 99.1853L87.7506 98.8764C88.3598 98.2072 86.997 97.4809 85.9935 98.1387ZM97.3964 107.512C97.7878 107.638 97.5848 107.861 97.579 108.09C97.9733 108.101 98.7562 108.353 99.1535 108.25C99.9598 107.586 98.1968 107.078 97.3964 107.512ZM104.273 116.411C103.669 116.852 102.66 117.738 104.029 118.236C105.203 118.613 106.383 118.762 107.581 118.224C108.187 117.669 109.4 116.56 108.034 115.948C106.671 115.222 105.462 116.217 104.273 116.411ZM78.8164 85.5679C77.0418 85.5165 77.0067 86.8891 76.7978 87.341L77.5836 87.4782C79.941 87.8899 81.5712 85.8767 78.8164 85.5679ZM109.753 118.173L111.095 119.7L112.287 119.391C112.299 118.933 112.896 118.722 112.508 118.481C111.33 118.218 110.359 117.618 109.753 118.173ZM74.4274 79.7172C74.0214 80.1634 74.0067 80.7353 74.7838 81.2157C75.1723 81.4559 75.5725 81.2385 76.1699 81.0269C77.3706 80.3749 75.6193 79.4084 74.4274 79.7172ZM58.1786 59.2141C57.9668 59.7803 57.5549 60.4552 57.7404 60.9185C58.3202 61.3932 59.6976 61.5475 60.501 60.9985C62.6875 60.375 60.3769 58.1331 58.1786 59.2141ZM43.6459 41.0502L40.5202 39.8149C39.137 39.8893 39.1194 40.5756 38.3219 40.8959C39.2903 41.6108 39.6554 42.7661 41.2241 43.1549C42.0275 42.6059 44.4025 42.3313 43.6459 41.0502ZM81.3202 80.2604C81.1318 79.9115 81.7321 79.5855 81.3436 79.3453L79.3542 79.9745L79.5455 80.2089C79.9428 80.106 80.7198 80.5864 81.3202 80.2604ZM84.4137 82.7539C85.0257 81.9703 83.8397 82.0504 82.8538 82.0219C82.6478 82.3593 82.0504 82.5709 82.6332 82.9312C83.4131 83.2972 83.8222 82.7367 84.4137 82.7539ZM69.2134 67.5468C70.5879 67.8155 71.5855 67.3866 71.4059 66.6945L68.6482 66.5002C68.4393 66.952 68.0362 67.2837 68.8132 67.7641L69.2134 67.5468ZM74.1255 68.3759L72.3362 68.8964C72.9307 68.7992 73.5135 69.1595 74.108 69.0622C74.3139 68.7248 74.5169 68.5017 74.1255 68.3759ZM84.9544 77.046C83.9655 77.1318 83.7508 77.8124 84.3365 78.0583L84.9339 77.8467C85.5313 77.6351 85.1457 77.2805 84.9544 77.046ZM116.338 107.603C115.361 107.231 114.566 107.437 114.157 107.998C114.349 108.232 114.537 108.581 115.128 108.598C116.117 108.513 116.129 108.055 116.338 107.603ZM118.163 113.38C117.557 113.934 118.137 114.409 118.123 114.981C118.885 116.033 121.069 115.524 122.637 115.913C122.649 115.456 123.246 115.244 123.455 114.792C122.107 113.494 119.926 113.889 118.163 113.38ZM127.491 119.03L128.683 118.721L128.3 118.252L127.491 119.03ZM119.508 107.123L118.116 107.54C118.649 109.845 113.322 109.805 110.34 110.635C109.731 111.304 108.322 112.408 109.682 113.248C109.867 113.712 110.835 114.426 111.836 113.883C116.38 113.671 116.3 109.09 121.603 110.045C120.041 109.427 121.062 108.083 119.508 107.123ZM72.9441 60.5577C74.5275 60.3746 74.5421 59.8027 74.1653 59.105C72.6112 58.1442 70.6218 58.7734 68.853 58.4932C67.4317 60.0546 72.1817 59.5054 72.9441 60.5577ZM64.5459 49.4397C64.5635 48.7534 64.1837 48.17 63.8069 47.4723L62.615 47.7812C63.1919 48.3702 63.3687 49.1766 64.5459 49.4397ZM79.8849 66.9402L78.0166 70.5491L78.8024 70.6864C80.4033 69.817 82.3927 69.1878 83.4079 68.0725C82.8309 67.4835 81.4682 66.7571 79.8849 66.9402ZM75.978 57.6694C74.7949 57.6351 73.6147 57.4864 73.9886 58.2986C74.5831 58.2013 75.9546 58.5845 75.978 57.6694ZM29.3356 14.1929C28.3321 14.8506 27.9085 15.9831 28.6738 16.921C31.6258 17.2355 33.3683 18.5451 35.958 17.5899C37.1792 16.1372 35.4338 14.9419 33.2852 14.0784C31.7253 13.3464 30.7101 14.4616 29.3356 14.1929ZM113.623 98.0234L114.394 98.7326L114.791 98.6296C115.198 98.1835 114.023 97.8061 113.623 98.0234ZM74.0471 56.0108C74.8505 55.4618 74.8592 55.1186 74.0881 54.4094C71.551 53.3057 72.2841 55.5019 71.4807 56.051C72.2607 56.417 73.641 56.457 74.0471 56.0108ZM87.3808 67.0429C87.7869 66.5968 87.6131 65.676 86.4212 65.9849C86.4095 66.4424 85.8121 66.6541 86.3949 67.0144C86.7893 67.0258 87.1778 67.266 87.3808 67.0429ZM98.2665 81.2092C97.0512 82.4332 98.5935 83.8515 99.3618 84.6751C100.727 85.287 102.891 85.5786 104.291 84.8179C106.295 83.6168 102.97 82.4902 103.991 81.1461C101.83 80.7401 99.8615 80.5686 98.2665 81.2092ZM91.1168 75.2786C92.3058 75.0841 92.7148 74.5236 93.5182 73.9745C94.4954 74.3462 95.452 75.5186 97.047 74.878C98.2594 73.7685 96.2963 73.3682 95.1249 72.8763C94.8242 69.2046 92.5176 74.5179 89.798 72.8365L89.1742 74.0776C89.76 74.3235 89.9337 75.2443 91.1168 75.2786ZM122.252 100.105C122.655 99.7733 122.07 99.5273 121.881 99.1785L120.689 99.4873L121.072 99.9563C121.461 100.197 122.052 100.214 122.252 100.105ZM70.8441 50.0801C71.0413 50.0858 71.6299 50.2173 71.6241 50.4461L72.816 50.1372C73.6106 49.9313 75.397 49.5251 74.2314 48.8045C73.0483 48.7703 70.8705 49.0506 70.8441 50.0801ZM138.209 116.593L136.556 119.521C138.316 120.145 140.859 121.02 142.854 120.162C145.655 118.64 141.57 116.347 138.209 116.593ZM103.41 73.0019C103.236 72.0811 101.682 71.1203 100.516 70.3997L100.307 70.8516C102.067 71.4749 100.437 73.4881 103.41 73.0019ZM110 77.6572L104.496 76.8109L103.878 77.8232C103.861 78.5096 105.827 78.7955 107.004 79.0585C108.005 78.5151 110.171 78.6924 110 77.6572ZM92.1297 58.8242L91.1116 60.0538L91.6973 60.2998C92.3064 59.6306 93.0981 59.5391 92.1297 58.8242ZM61.2089 33.3171C61.1417 35.948 65.4856 35.8449 68.4551 35.4731C68.2813 34.5523 67.922 33.1682 66.7711 31.8757C64.7846 32.3905 60.67 31.2411 61.2089 33.3171ZM95.7943 62.1355L93.6253 62.0727C94.1963 62.8905 93.7815 63.6798 92.5837 64.2174C93.1665 64.5777 92.9547 65.1439 93.9406 65.1725C93.9728 63.9143 96.9423 63.5424 95.7943 62.1355ZM115.033 81.4661C115.639 80.9113 115.062 80.3222 113.879 80.2879C113.868 80.7455 113.258 81.4147 115.033 81.4661ZM159.001 129.215L159.575 129.918C159.969 129.93 160.749 130.296 161.347 130.084C161.753 129.638 161.573 128.946 160.99 128.586L159.001 129.215ZM87.2574 48.7241L85.6799 48.6784L86.0655 49.033L87.2574 48.7241ZM74.892 38.4069C75.1038 37.8407 77.0728 38.0122 76.3074 37.0742L74.1442 36.7826L73.5234 37.9093C73.5117 38.3669 74.5035 38.1667 74.892 38.4069ZM141.557 109.135C143.706 109.999 145.304 109.244 145.524 108.334L141.584 108.106C141.769 108.569 141.169 108.895 141.557 109.135ZM146.829 111.348C147.408 111.823 148.015 111.268 148.609 111.171C148.615 110.942 148.818 110.719 148.627 110.485C147.647 110.227 146.843 110.776 146.829 111.348ZM75.6328 32.5904L74.2583 32.3216L73.8435 33.1109L74.6293 33.2481C75.0266 33.1451 75.624 32.9335 75.6328 32.5904ZM99.6737 64.7663C99.4618 65.3325 97.2753 65.9559 99.0295 66.8081C101.987 66.8938 102.817 65.3152 103.835 64.0855C101.492 63.1019 104.877 61.9408 102.928 60.9686C101.142 61.3747 102.296 62.5528 101.878 63.4565C101.466 64.1314 101.242 65.1551 99.6737 64.7663ZM109.842 68.3805L107.583 71.8636C109.546 72.2639 108.43 69.5988 111.359 70.8283C111.776 69.9247 112.209 68.4491 109.842 68.3805ZM78.2448 61.6271C77.2559 61.7129 75.1191 60.3918 74.4953 61.6329C77.0266 62.9654 78.3601 64.8356 81.8948 65.5103C82.907 64.5094 86.839 65.0812 86.4915 63.2396L84.7256 62.8451C84.1691 61.4553 86.5061 62.6677 86.5324 61.6382C86.3469 61.175 85.5553 61.2665 84.9667 61.135C84.6337 58.7215 89.1075 61.255 88.5774 58.8357C87.8062 58.1265 86.2112 58.7672 85.0339 58.5041C84.2627 57.7949 84.086 56.9885 84.5009 56.1993C87.0526 56.7311 88.6711 55.1754 90.4545 54.8836C91.8202 55.4956 89.8425 55.6672 89.8278 56.2391C90.97 57.8748 92.6089 55.5184 94.5486 56.8338L94.122 58.0806L94.7077 58.3265C97.8803 57.7316 96.5439 55.9758 98.9394 54.9005C95.1665 55.8215 95.0512 52.6129 91.8962 52.5215L91.4814 53.3108C90.063 54.7578 88.344 52.5331 86.3692 52.5903C82.8081 52.945 84.7361 54.718 81.1663 55.4158C80.1862 55.1585 80.03 53.5514 78.226 54.6438C84.6542 57.9208 74.3771 58.5388 78.2448 61.6271ZM153.713 112.235C153.507 112.572 153.101 113.018 153.88 113.384C154.272 113.51 154.66 113.75 154.863 113.527C155.67 112.864 155.096 112.16 153.713 112.235ZM121.292 75.9239L121.072 76.8333L121.469 76.7303C121.869 76.513 121.481 76.2728 121.292 75.9239ZM99.5806 52.9731C98.9774 53.4135 99.9545 53.7852 99.9457 54.1284C100.531 54.3743 100.935 54.0426 101.332 53.9396C100.94 53.8138 101.344 53.4821 101.544 53.3734L99.5806 52.9731ZM80.6034 31.1318C83.364 31.2118 82.2394 28.8898 79.8644 29.1644C79.0551 29.9422 79.4232 30.9831 80.6034 31.1318ZM161.197 112.795C160.976 113.704 160.947 114.848 161.918 115.449C164.679 115.529 163.743 113.555 162.389 112.486L161.197 112.795ZM136.224 86.201C137.43 85.3202 138.643 84.2106 137.292 83.0267C135.526 82.6322 133.563 82.2319 131.773 82.7524C131.544 84.0049 128.183 84.251 130.32 85.572C132.268 86.5443 133.825 87.3907 136.224 86.201ZM178.598 126.807C176.223 127.081 175.803 128.099 174.793 128.986C174.543 131.039 178.681 131.273 180.627 132.36C181.233 131.805 181.645 131.13 183.028 131.056C184.458 129.151 182.339 127.144 178.598 126.807ZM163.654 109.317C163.051 109.758 163.833 110.009 164.219 110.364C164.422 110.141 165.008 110.387 165.202 110.507C166.603 109.746 164.057 108.986 163.654 109.317ZM71.8739 9.8163C71.8769 9.70191 72.2771 9.48458 71.8857 9.35876L70.6937 9.66763L70.8851 9.90212C71.0823 9.90783 71.4737 10.0336 71.8739 9.8163ZM104.754 51.2915C103.742 52.2924 105.885 53.3847 106.264 53.9681C109.216 54.2825 111.232 52.6239 111.862 51.154C109.528 49.8272 107.297 52.1665 104.754 51.2915ZM107.229 47.1278C107.017 47.694 104.648 47.7398 106.008 48.5805C107.997 47.9513 107.632 46.796 108.847 45.5721C108.276 44.7542 106.913 44.0279 105.713 44.68L105.507 45.0174C101.992 43.5419 100.942 46.0299 97.6018 45.4752C96.0038 46.2302 95.5714 47.7058 96.9254 48.7752C102.188 51.3316 102.726 45.7381 107.229 47.1278ZM100.679 40.8711C104.188 42.5753 103.469 39.8072 105.456 39.2924L99.1283 39.7959C98.325 40.345 96.9212 41.2201 98.4812 41.9521C99.8556 42.2209 99.879 41.3058 100.679 40.8711ZM102.627 34.1737C103.239 33.3902 101.084 32.7554 100.084 33.2988C100.078 33.5276 99.8749 33.7506 100.266 33.8764C101.046 34.2424 101.429 34.7114 102.627 34.1737ZM152.253 92.16C151.52 89.9638 156.087 88.8369 154.168 86.7209C152.991 86.4578 151.79 87.1099 151.975 87.5731C151.737 89.1688 150.678 91.9999 147.511 92.366C148.871 93.2067 150.301 91.3021 152.253 92.16ZM109.058 37.3363C108.484 36.6329 107.15 34.7627 105.973 34.4996C106.733 35.6664 106.477 37.9484 103.519 37.8627L103.707 38.2115C104.296 38.3431 105.079 38.5947 105.679 38.2687L107.813 39.7041L109.402 39.2923L107.851 38.2171C108.057 37.8797 108.269 37.3135 109.058 37.3363ZM180.588 110.724C178.619 110.552 179.576 111.725 178.378 112.262L176.612 111.868C176.427 111.405 175.447 111.147 176.05 110.707L171.35 109.311C166.744 111.925 176.412 111.977 173.973 114.768C174.759 114.905 175.556 114.585 176.345 114.607C174.826 112.274 179.7 114.59 179.953 112.423C177.019 111.422 181.345 112.005 180.588 110.724ZM180.683 114.733C181.492 113.955 183.867 113.681 183.499 112.64L181.319 113.034C180.515 113.584 179.32 114.007 180.683 114.733ZM86.0977 9.19818C86.1035 8.9694 86.3066 8.74634 86.1152 8.51185L84.9175 9.04951C85.5061 9.18103 85.8976 9.30685 86.0977 9.19818ZM97.0915 19.1322C97.9066 18.1256 95.7815 16.347 94.3807 17.1077C94.3631 17.794 94.1483 18.4746 95.1197 19.0751C95.514 19.0865 96.4941 19.3438 97.0915 19.1322ZM188.284 110.718L185.909 110.993C186.657 112.617 181.446 115.785 187.347 116.529C188.347 115.985 188.762 115.196 190.339 115.242C191.958 113.686 188.244 112.319 188.284 110.718ZM193.677 115.911L193.462 116.591C193.648 117.055 194.439 116.963 194.831 117.089C195.034 116.866 195.04 116.637 195.434 116.649C195.252 116.071 194.463 116.048 193.677 115.911ZM199.935 125.822L201.278 127.349C202.855 127.395 205.213 127.807 206.025 126.914C205.486 124.838 201.754 124.158 199.935 125.822ZM103.94 21.3911C106.716 20.8992 103.593 19.5495 104.011 18.6459L101.029 19.4753L101.415 19.8298C102.198 20.0815 102.163 21.4541 103.94 21.3911ZM176.359 106.366L176.947 106.497C178.545 105.742 179.89 107.155 180.27 107.738C182.639 107.693 183.172 109.997 185.568 108.922L184.626 107.178L186.615 106.549C186.636 105.748 188.036 104.987 187.068 104.272C183.684 105.433 178.789 103.918 176.359 106.366ZM182.85 99.4568L180.463 100.189L181.64 100.452C182.629 100.366 182.641 99.9086 182.85 99.4568ZM99.6304 12.452C99.4185 13.0182 99.0095 13.5787 99.1921 14.1564C101.526 15.4832 101.88 17.096 105.626 17.2046L107.071 14.7281C104.316 14.4193 103.191 12.0973 99.6304 12.452ZM198.494 112.731L199.283 112.754C199.68 112.651 200.272 112.668 200.284 112.21L198.909 111.941L198.494 112.731ZM189.589 98.2784C188.795 98.4844 186.42 98.759 186.39 99.9028L190.54 99.6796C190.752 99.1134 189.775 98.7417 189.589 98.2784ZM205.646 110.878L205.222 112.01C205.616 112.021 206.399 112.273 206.799 112.056C207.406 111.501 206.829 110.912 205.646 110.878ZM200.279 104.655C200.68 104.438 200.291 104.198 199.906 103.843L199.093 104.735C199.488 104.747 199.879 104.872 200.279 104.655ZM104.42 2.63187C104.423 2.51748 104.629 2.18005 104.238 2.05423L102.648 2.46606L103.031 2.93504L104.42 2.63187ZM203.426 105.09C197.881 105.845 204.536 107.984 199.965 109.225C203.868 110.94 203.814 105.33 208.694 107.417L208.279 108.207L209.459 108.355L207.949 105.679C206.157 106.314 205.189 105.599 203.426 105.09ZM219.894 117.014C220.45 118.404 222.066 116.962 223.24 117.34C222.655 117.094 220.312 116.11 219.894 117.014ZM211.598 101.892C212.204 101.338 211.621 100.977 212.028 100.531L210.238 101.052C210.63 101.177 210.612 101.864 211.598 101.892ZM218.077 110.894C219.037 111.952 220.255 110.614 221.615 111.455C223.648 109.11 218.309 109.527 218.077 110.894ZM224.949 112.238C225.132 112.816 224.711 113.834 226.283 114.108C228.266 113.708 226.518 112.627 226.736 111.832L224.949 112.238ZM125.211 7.58412L124.375 9.39144C127.142 9.24264 128.858 11.5818 131.459 10.169L130.688 9.45987C127.707 10.2893 127.574 7.76707 125.211 7.58412ZM247.729 132.015L247.92 132.249C248.506 132.495 249.08 133.198 250.08 132.655C250.486 132.209 249.509 131.837 249.518 131.494L247.729 132.015ZM233.558 115.12C234.535 115.492 235.307 116.201 236.484 116.464C236.884 116.247 238.096 115.137 236.534 114.52C235.365 113.914 233.967 114.56 233.558 115.12ZM116.828 3.56372C117.953 5.88572 120.681 7.22395 122.206 9.32859L121.679 6.79497C123.086 5.80549 124.837 6.772 126.235 6.12567C127.432 5.58803 126.867 4.54141 126.688 3.84938C128.274 3.55194 127.923 1.82472 129.886 2.22501C130.29 1.89327 130.098 1.6588 130.107 1.31563L119.065 0.9957C117.67 1.52765 116.466 2.29406 116.828 3.56372ZM263.861 141.64C264.261 141.422 263.873 141.182 263.487 140.828L262.295 141.136L262.678 141.605C263.069 141.731 263.461 141.857 263.861 141.64ZM225.667 107.337C227.845 107.056 229.443 106.301 230.069 104.946C228.277 105.581 225.513 105.615 225.667 107.337ZM240.636 116.127C240.845 115.675 241.449 115.234 240.471 114.863L239.653 115.984C240.042 116.224 240.433 116.35 240.636 116.127ZM239.18 119.061L240.555 119.33C241.567 118.329 245.122 118.203 243.585 116.556C240.251 115.772 240.392 117.951 239.18 119.061ZM252.698 122.887C253.087 123.127 253.487 122.909 254.084 122.698C254.69 122.143 254.111 121.668 254.125 121.096L252.739 121.285C252.136 121.726 251.924 122.292 252.698 122.887ZM257.104 120.381L256.489 121.279C256.686 121.285 257.269 121.645 257.672 121.314C257.881 120.862 257.295 120.616 257.104 120.381ZM248.941 107.782C249.146 107.445 249.553 106.998 248.97 106.638L247.18 107.159L248.941 107.782ZM242.832 99.7066C241.661 99.2148 239.489 99.2663 239.071 100.17L239.263 100.404C240.457 99.9812 242.409 100.839 242.832 99.7066ZM254.139 112.855C254.768 111.385 251.402 111.86 250.998 112.192L250.442 110.802L248.067 111.076C246.11 110.447 248.502 109.486 247.534 108.772C244.991 107.897 245.53 109.973 244.335 110.396C238.222 110.219 244.031 106.838 240.511 105.592C243.69 104.768 241.244 107.788 244.24 106.387L243.855 106.032C243.672 105.454 243.899 104.316 245.473 104.476C246.462 104.391 246.447 104.962 246.836 105.203L247.43 105.105C246.465 104.276 247.495 102.589 244.931 102.515L249.702 101.165L245.193 100.004C242.777 101.88 240.979 102.744 237.591 104.019C238.572 104.276 239.731 105.226 238.728 105.884C236.956 105.718 235.938 106.947 235.326 107.731C235.709 108.2 236.291 108.56 237.274 108.703L238.292 107.474C238.684 107.599 239.476 107.508 239.858 107.977C240.423 109.023 238.846 108.978 237.854 109.178L238.593 111.145C237.993 111.471 237.207 111.334 236.621 111.088L236.207 111.877C236.398 112.112 236.586 112.461 237.178 112.478C239.353 112.312 242.714 112.066 242.078 113.765C242.826 115.389 245.813 114.331 247.364 115.406L245.749 116.847C246.908 117.797 247.529 116.67 248.904 116.939C251.873 116.567 256.641 115.331 254.139 112.855ZM257.596 108.834C256.439 107.77 256.483 106.055 253.119 106.415C251.301 108.079 256.848 107.21 256.022 108.674C256.416 108.685 256.999 109.046 257.596 108.834ZM262.074 118.923C262.309 117.441 259.972 116.229 259.219 114.834C262.012 113.655 262.67 111.042 257.532 111.351L257.111 112.369C258.28 112.975 257.256 114.433 259.416 114.839L256.6 116.933C257.96 117.773 260.299 118.871 262.074 118.923ZM258.35 110.23C259.13 110.596 260.696 111.099 261.11 110.31C261.134 109.394 257.796 108.725 258.35 110.23ZM261.295 103.103L254.031 101.634C256.171 102.84 260.277 104.333 261.21 106.42C264.565 106.403 261.068 104.241 261.295 103.103ZM272.503 112.357C273.086 112.717 273.692 112.162 274.284 112.179C274.493 111.728 274.896 111.396 274.119 110.915C272.568 109.84 272.138 111.201 270.946 111.51C270.158 111.487 269.578 111.013 268.792 110.876L268.377 111.665C268.76 112.134 269.337 112.723 270.314 113.095C269.911 113.426 269.896 113.998 268.91 113.97L269.881 114.57C271.07 114.376 272.83 114.999 273.437 114.444C274.249 113.552 270.902 113.226 272.503 112.357ZM275.7 118.516C277.669 118.688 279.441 118.854 281.21 119.134C282.01 118.699 283.008 118.27 282.04 117.555C281.842 117.55 281.648 117.429 281.451 117.424C279.279 117.475 276.324 117.275 275.7 118.516ZM275.698 118.631C275.695 118.745 275.689 118.974 275.686 119.088C275.692 118.859 275.695 118.745 275.698 118.631ZM267.79 103.749L269.165 104.018C269.559 104.03 269.568 103.686 269.771 103.463C269.182 103.332 267.811 102.949 267.79 103.749ZM268.683 107.438C270.077 106.906 273.589 108.496 273.238 106.769C272.038 107.421 269.306 106.197 268.683 107.438ZM277.889 110.109L277.492 110.212L277.88 110.452C277.883 110.338 277.886 110.223 277.889 110.109ZM271.569 102.6C271.975 102.154 272.773 101.833 271.801 101.233C270.827 100.747 268.864 100.346 268.246 101.359C268.814 102.291 270.183 102.788 271.569 102.6ZM280.132 114.982C281.121 114.896 281.919 114.575 282.322 114.244C280.947 113.975 279.573 113.706 278.198 113.437C278.195 113.552 277.992 113.775 277.989 113.889C278.569 114.364 278.946 115.062 280.132 114.982ZM278.111 101.416C279.709 100.661 279.35 99.2765 279.179 98.2413L277.793 98.4301C277.178 99.328 277.137 100.929 278.111 101.416ZM282.591 103.72C283.197 103.166 284.151 104.452 284.751 104.126C285.154 103.795 283.98 103.417 284.769 103.44C285.16 103.566 285.351 103.8 285.546 103.92C285.946 103.703 285.958 103.245 285.375 102.885C284.386 102.971 282.223 102.679 282.591 103.72ZM276.094 95.4047C276.898 94.8556 277.713 93.849 276.944 93.0254L275.161 93.3172C274.358 93.8662 273.148 94.8614 274.708 95.5934C275.108 95.3761 275.509 95.1587 276.094 95.4047ZM284.091 99.0705L285.466 99.3392C285.471 99.1105 285.674 98.8874 285.483 98.6529L284.091 99.0705ZM298.259 100.626C296.105 99.9909 294.339 99.5963 291.778 99.4077C291.773 99.6364 291.57 99.8595 291.961 99.9853C293.515 100.946 294.84 103.159 297.638 101.752L298.259 100.626ZM302.296 112.533C302.29 112.762 302.284 112.991 302.276 113.334C302.461 113.797 302.446 114.369 302.829 114.838C303.026 114.844 303.421 114.855 303.618 114.861C305.175 115.707 306.729 116.668 308.289 117.4C309.08 117.308 309.878 116.988 310.478 116.662C307.747 115.438 305.021 113.986 302.296 112.533ZM306.12 117.337C306.317 117.343 306.511 117.463 306.708 117.469C306.906 117.474 307.1 117.594 307.297 117.6C306.517 117.234 305.737 116.868 304.957 116.502C305.346 116.742 305.734 116.983 306.12 117.337ZM293.784 90.4226L292.575 91.4178L293.949 91.6866C293.961 91.229 294.367 90.7829 293.784 90.4226ZM305.054 97.274C306.275 95.8212 304.777 92.6871 300.616 93.3678C300.001 94.2658 297.423 94.7634 298.573 96.056C299.922 97.3542 302.441 99.1442 305.054 97.274ZM346.732 126.527C346.93 126.532 346.93 126.532 347.127 126.538C347.127 126.538 346.93 126.532 346.732 126.527ZM319.868 89.0034C316.731 88.2257 315.412 85.7836 311.663 85.7894L311.248 86.5787C311.419 87.6139 313.396 87.4423 314.571 87.8197C315.925 88.8892 318.853 90.1187 318.221 91.703C321.576 91.6857 317.479 89.8499 319.868 89.0034ZM335.158 15.8419L334.961 15.8362C334.961 15.8362 334.764 15.8305 334.761 15.9449C334.758 16.0593 334.952 16.1794 334.949 16.2938C334.952 16.1794 335.155 15.9563 335.158 15.8419ZM331.565 17.4549C331.365 17.5636 331.165 17.6722 330.965 17.7809C330.173 17.8724 329.193 17.6151 328.81 17.1461C328.219 17.129 327.624 17.2262 327.035 17.0947C326.835 17.2034 326.638 17.1977 326.438 17.3063C326.435 17.4207 326.429 17.6495 325.841 17.518C325.643 17.5123 325.643 17.5123 325.446 17.5065C324.852 17.6038 324.257 17.701 323.469 17.6782C324.64 18.17 326.235 17.5294 328.004 17.8096C327.998 18.0384 327.989 18.3815 327.98 18.7247C327.189 18.8162 326.397 18.9077 326.188 19.3596C325.014 18.9821 323.645 18.4846 322.25 19.0165C322.256 18.7878 322.262 18.559 322.068 18.4389C322.242 19.3597 322.615 20.1718 323.393 20.6522C322.786 21.207 321.403 21.2814 321.38 22.1965C320.985 22.1851 320.591 22.1736 320.197 22.1622C319.611 21.9163 320.603 21.7161 320.014 21.5846C319.022 21.7848 317.645 21.6304 316.668 21.2587C315.861 21.9221 314.472 22.2253 313.278 22.6486C313.492 21.968 314.887 21.436 316.276 21.1329C315.888 20.8927 315.696 20.6582 315.508 20.3093C315.305 20.5324 315.493 20.8812 315.885 21.007C315.685 21.1157 314.299 21.3045 314.11 20.9556C315.302 20.6468 313.13 20.6983 313.139 20.3551C314.125 20.3837 314.722 20.1721 315.32 19.9604C315.325 19.7317 315.334 19.3885 315.34 19.1597C316.323 19.3027 317.303 19.56 318.295 19.3598C318.298 19.2454 318.498 19.1368 318.498 19.1368C318.304 19.0167 318.109 18.8966 317.715 18.8851C316.729 18.8566 315.16 18.4677 314.354 19.1312C313.98 18.319 312.582 18.9654 312.203 18.382C312.794 18.3991 313.192 18.2962 313.395 18.0731C312.612 17.8215 312.197 18.6108 312.217 17.8101C313.012 17.6042 314.004 17.404 314.798 17.198C314.221 16.609 313.253 15.8941 314.062 15.1162C314.062 15.1162 313.865 15.1105 313.868 14.9961C313.671 14.9904 313.671 14.9904 313.474 14.9847C313.276 14.979 313.082 14.8589 312.885 14.8532C312.902 14.1669 312.331 13.349 312.149 12.7714C311.554 12.8686 312.143 13.0002 311.937 13.3376C311.543 13.3262 311.548 13.0974 311.554 12.8686C310.957 13.0803 310.571 12.7257 309.971 13.0517C309.588 12.5827 308.805 12.3311 308.214 12.314C308.405 12.5485 308.599 12.6686 308.988 12.9088C308.588 13.1261 308.005 12.7658 307.608 12.8688C307.805 12.8745 307.999 12.9946 308.196 13.0003C307.996 13.109 307.602 13.0975 307.408 12.9774C307.408 12.9774 307.408 12.9774 307.411 12.8631C307.213 12.8573 307.216 12.743 307.022 12.6229C306.816 12.9603 307.608 12.8688 307.402 13.2062C306.613 13.1834 306.831 12.3884 306.033 12.7087C306.045 12.2511 305.453 12.234 305.856 11.9023C305.059 12.2226 304.871 11.8737 303.49 11.8337C302.498 12.0339 303.078 12.5086 302.672 12.9547C301.883 12.9319 301.895 12.4743 300.906 12.5601C300.921 11.9882 300.335 11.7423 300.55 11.0617C301.342 10.9702 301.553 10.4039 302.536 10.5469C302.563 9.51742 300.794 9.23724 300.62 8.31644C300.441 7.62441 301.247 6.96095 301.264 6.27463L134.248 1.43561C134.628 2.01898 134.607 2.81967 134.595 3.27722L131.655 2.50521C130.849 3.16867 132.415 3.67191 131.806 4.34109C130.399 5.33056 132.73 6.77174 130.146 7.49818L132.689 8.37315L133.525 6.56584C137.103 5.52482 137.79 9.55117 140.55 9.63115C143.943 8.12687 144.022 5.03847 141.317 2.78515C145.467 2.56196 145.983 5.55313 150.126 5.55872L149.114 6.55962C151.225 8.91018 145.715 8.29266 145.091 9.53378L147.057 9.81969L146.643 10.6089L144.088 10.1915C140.498 11.6901 146.399 12.4334 144.183 14.2007L146.34 14.7211C147.335 14.4065 147.161 13.4857 148.353 13.1768C149.142 13.1997 149.33 13.5486 149.521 13.7831C148.518 14.4408 147.709 15.2187 145.925 15.5104C142.988 14.624 141.531 17.558 138.197 16.7746L139.406 15.7794L135.477 15.0932C131.507 16.0084 137.8 16.8776 135.987 18.3132C134.766 19.7659 132.02 19.114 129.854 18.9367C126.925 17.7072 127.36 16.1172 129.95 15.162C128.773 14.899 127.97 15.448 127.178 15.5396C125.815 14.8133 123.646 14.7504 123.09 13.3607C126.109 11.0443 119.602 10.8557 118.462 9.10566C115.528 8.10488 114.098 10.0094 111.935 9.71782C110.346 10.1297 106.605 9.79235 106.376 11.0449C106.308 13.6757 109.208 16.0492 112.316 17.9707C114.917 16.558 118.64 17.5816 118.496 15.517C120.662 15.6942 123.04 15.3052 124.8 15.9286L124.594 16.266C122.219 16.5406 123.155 18.5137 123.918 19.566C125.272 20.6355 127.073 19.6575 128.638 20.1607C128.83 20.3952 129.218 20.6354 129.012 20.9728C126.208 22.6086 124.277 20.9501 121.919 20.5384C121.481 22.2427 126.028 21.9166 125.387 23.844C125.184 24.0671 124.792 23.9413 124.398 23.9298C124.007 23.804 124.41 23.4723 124.416 23.2435C122.27 22.2656 120.257 23.8099 118.515 22.5002C116.566 21.528 113.255 19.8295 114.079 18.4797C110.662 20.8991 110.196 15.9633 106.821 16.7813C103.396 19.5438 113.261 19.6007 110.253 21.4596C109.064 21.6541 107.493 21.3796 107.322 20.3444C106.721 20.6704 105.738 20.5274 105.921 21.1051C108.473 21.6369 107.216 24.4623 107.976 25.629C109.713 27.1674 104.936 28.7461 107.856 30.3188C103.698 30.8851 110.175 32.2175 108.363 33.6531C110.488 35.4317 114.27 34.1677 116.25 33.8816C117.793 35.3 114.655 34.5223 113.849 35.1857C112.642 36.0665 114.399 36.8042 113.587 37.6965C117.51 38.6114 112.14 40.2874 116.663 40.8763C115.448 42.1003 118.197 42.6378 117.182 43.7531C115.798 43.8275 114.209 44.2393 112.435 44.1879C111.82 45.0858 111.596 46.1096 112.161 47.1562C114.504 48.1399 116.206 51.0509 119.984 49.9012C120.173 50.2501 120.759 50.496 120.358 50.7133C117.565 51.8916 115.629 50.4618 113.471 49.9415C113.057 50.7307 115.782 52.1834 112.424 52.315C112.548 55.1804 109.558 56.3529 107.731 58.3604C109.5 58.6406 109.158 56.5702 111.315 57.0906C111.878 58.2516 110.468 59.3555 112.411 60.5565C112.181 61.809 109.397 62.6441 109.559 64.0224L110.751 63.7136C114.048 65.984 113.361 61.9577 117.079 63.2101C120.019 63.9821 116.249 64.7886 116.626 65.4864C117.014 65.7266 117.415 65.5092 118.012 65.2976L122.074 68.506C119.884 69.2438 119.046 71.1655 119.205 72.6583L117.831 72.3895C116.645 72.4696 113.281 72.83 114.632 74.0139C116.418 73.6077 119.182 73.5733 119.959 74.0537C121.492 75.8152 126.022 76.1754 128.608 75.3346C129.159 76.9531 132.944 75.5747 132.903 77.1761C131.116 77.5822 129.327 78.1027 129.489 79.481C129.419 82.2263 133.624 79.8298 135.97 80.699C140.711 80.493 142.769 84.9025 147.548 83.2094C148.893 84.6221 145.321 85.4343 147.26 86.7497C148.241 87.007 149.244 86.3493 150.433 86.1548C151.631 85.6171 151.266 84.4618 150.1 83.7413L153.49 82.3514C152.136 81.2819 150.529 82.3801 148.964 81.8768C148.175 81.854 147.598 81.2649 148.004 80.8188C150.194 80.0809 150.791 79.8693 152.78 79.2401C152.569 79.8063 151.962 80.3611 152.145 80.9387C153.914 81.2189 156.1 80.5955 157.307 79.7147C159.279 79.7718 160.433 80.9499 162.419 80.4351C162.805 80.7897 163.193 81.0299 162.793 81.2473C161.595 81.7849 160.409 81.865 158.841 81.4761L158.014 82.9403C158.199 83.4036 158.982 83.6552 159.762 84.0212C158.344 85.4682 163.203 88.3563 157.876 88.3164C158.851 88.8025 160.039 88.6081 161.011 89.2085C160.611 89.4259 160.99 90.0092 160.199 90.1008C158.604 90.7414 156.991 92.0683 155.452 90.5356C154.463 90.6214 154.451 91.079 154.048 91.4107C156.382 92.7375 157.165 92.9891 160.143 92.2741C160.491 94.1157 155.944 94.4418 156.877 96.5294C158.045 97.1356 158.858 96.2433 160.035 96.5064C161.983 97.4786 158.822 97.616 159.785 98.5596L163.32 99.2344L162.908 99.9093C158.985 98.9943 158.134 101.374 154.965 101.854C154.064 98.5083 146.332 99.8869 146.211 96.9072C147.015 96.3581 147.983 97.073 148.969 97.1015C150.164 96.6783 151.75 96.3808 152.165 95.5915C148.836 94.5793 152.603 93.8872 152.041 92.7262L151.452 92.5947C149.84 93.9216 146.287 93.9331 148.009 96.0435C147.229 95.6775 145.466 95.1685 145.878 94.4936C149.872 92.6633 142.37 92.7894 143.206 90.9821L146.172 90.7246C148.353 90.3299 146.999 89.2605 147.808 88.4826C146.019 89.0031 142.687 88.1053 142.249 89.8097C141.663 89.5637 140.871 89.6553 140.686 89.192C143.856 88.7115 144.5 86.6697 145.129 85.1998C142.419 83.1753 141.354 86.2351 139.564 86.7556C136.033 85.9665 138.732 88.4486 136.162 88.6031C130.627 89.015 133.479 93.2186 131.663 94.7686C130.103 94.0366 128.476 95.9354 127.528 94.4199C127.743 93.7393 128.349 93.1845 129.738 92.8813C128.567 92.3895 128.196 91.463 127.019 91.1999C125.397 92.87 121.427 93.7852 122.16 95.9814C120.006 95.3466 118.649 94.3915 118.684 93.0189C117.893 93.1104 117.487 93.5566 116.886 93.8826C117.078 94.1171 117.269 94.3515 118.055 94.4888L116.01 97.2913C118.111 99.985 119.988 96.0329 122.49 98.5093C124.271 98.3319 124.294 97.4169 124.712 96.5132C126.107 95.9813 128.076 96.1528 129.047 96.7533C127.252 97.5026 129.813 97.6912 129.984 98.7264C129.757 99.8645 127.588 99.8017 126.387 100.454L127.159 101.163C126.361 101.483 126.138 102.507 124.766 102.124L123.024 100.814C121.617 101.804 123.786 101.866 123.562 102.89C121.196 102.822 118.653 101.947 117.29 101.22C112.657 97.1942 113.506 102.599 109.553 102.828C108.573 102.57 107.608 101.741 106.601 102.513C107.767 103.234 109.336 103.623 110.495 104.572C111.397 107.918 116.023 104.503 119.154 105.51C120.867 107.963 125.676 105.126 126.206 107.546L129.735 108.449C131.356 106.779 136.466 107.614 134.952 105.052C145.516 108.677 124.817 107.849 131.387 113.305C133.332 114.391 134.954 112.721 136.722 113.002C136.56 111.623 138.358 110.759 137.605 109.364C138.081 106.173 143.741 108.626 145.765 106.624C148.926 106.487 152.493 105.903 155.068 105.52C156.817 106.601 158.418 105.732 159.789 106.115C157.8 106.744 158.344 108.591 160.299 109.335C162.132 107.098 167.018 108.957 169.975 109.043L170.387 108.368C167.227 108.505 168.077 106.126 165.116 106.155C164.165 104.753 166.361 103.787 166.984 102.546C165.218 102.151 165.642 101.019 166.054 100.344C169.032 99.6288 169.98 101.144 172.329 101.899C173.529 101.247 172.764 100.309 172.782 99.623C173.947 100.344 174.533 100.589 176.311 100.527C176.105 100.864 175.507 101.076 176.09 101.436C176.879 101.459 178.044 102.179 178.851 101.516C178.856 101.287 179.262 100.841 179.071 100.607C176.517 100.189 178.912 99.1138 178.93 98.4275L177.555 98.1587L177.543 98.6162C176.746 98.9365 176.16 98.6906 175.374 98.5534C176.21 96.7461 178.234 94.7443 181.015 94.0236C182.367 95.2074 179.591 95.6994 179.368 96.7231C180.342 97.2092 180.516 98.13 182.096 98.0613C183.868 98.2271 186.423 98.6446 187.049 97.2891C188.029 97.5464 188.63 97.2204 189.413 97.472C189.424 97.0145 189.445 96.2138 189.465 95.4131C185.878 96.7973 184.777 93.5602 181.633 93.0112C182.66 91.4384 183.391 93.749 185.171 93.5716C187.734 93.6459 185.409 91.9759 187.587 91.6956C188.361 92.2904 189.944 92.1073 190.721 92.5877C190.109 93.3713 189.318 93.4628 187.946 93.0797C187.543 93.4114 186.351 93.7203 187.128 94.2007C193.673 92.9022 189.404 97.8152 193.951 97.489C195.296 98.9017 198.007 100.926 197.171 102.734C198.934 103.242 200.715 103.065 202.484 103.345C204.67 102.722 204.9 101.469 204.926 100.44L207.083 100.96C209.461 100.571 211.265 99.4788 211.106 97.9861C213.049 99.1871 214.873 97.2939 216.077 96.5275C218.82 97.2938 216.61 98.8324 216.786 99.6388C220.53 99.8617 222.178 97.1622 224.561 96.5444L225.924 97.2707C224.12 98.3631 225.451 100.348 222.687 100.382C223.827 102.132 217.92 101.618 220.848 102.847C221.246 102.744 221.643 102.641 221.655 102.184L225.375 103.322C226.399 101.863 229.98 100.708 226.663 99.2381C228.479 97.6881 230.966 100.736 233.373 99.2036C234.78 98.2141 234.421 96.8301 234.25 95.7949C235.642 95.3773 234.712 93.1754 237.249 94.2792C236.755 98.1569 244.512 95.7488 247.417 97.8934C250.031 96.0232 250.549 98.8999 253.109 99.0886C254.507 98.4423 257.268 98.5223 257.109 97.0295L261.197 99.2084C260.435 98.1561 262.807 97.9959 263.024 97.2009C262.645 96.6176 262.056 96.486 261.473 96.1257C262.079 95.571 261.511 94.6387 262.897 94.4499C265.267 94.4041 264.24 95.977 265.617 96.1313C265.484 93.6091 270.161 95.9196 272.365 94.6098C272.966 94.2838 273.575 93.6146 272.795 93.2486C271.406 93.5518 269.443 93.1515 268.825 94.1638C267.25 94.0037 266.291 92.9457 265.905 92.5911C267.082 92.8541 267.894 91.9619 269.269 92.2307C269.098 91.1955 269.722 89.9544 268.553 89.3482C273.215 92.2305 274.539 86.7743 278.407 89.8626C278.569 91.2409 276.223 90.3717 275.225 90.8007L275.799 91.5041C278.616 89.4108 283.081 92.2874 286.033 92.6019C292.316 93.8142 288.881 89.2503 291.288 87.7175C295.655 86.6993 296.148 90.6056 300.686 90.6226C301.315 89.1527 306.41 90.5595 304.297 88.3233C306.301 87.1222 306.239 89.5243 308.217 89.3527C309.788 89.6271 310.604 88.6205 309.832 87.9114L311.798 88.1973C311.427 87.2707 310.618 88.0486 309.832 87.9114C309.502 85.3834 305.7 87.4482 303.766 85.9041C302.189 85.8584 302.545 87.3568 300.594 86.499C300.017 85.9099 299.449 84.9777 300.641 84.6688C299.861 84.3028 298.092 84.0226 299.298 83.1418L302.03 84.3656C303.048 83.136 302.497 81.5174 302.138 80.1334C305.829 82.4152 311.176 81.6544 315.485 82.924L314.867 83.9363L318.24 83.2327L319.774 84.9942C320.147 85.8063 319.338 86.5842 317.952 86.773C318.14 87.1218 318.129 87.5794 319.115 87.6079C321.104 86.9788 323.868 86.9444 322.143 84.9484C324.315 84.8968 326.234 87.0129 328.406 86.9614L328.418 86.5038C327.037 86.4638 326.481 85.0741 325.707 84.4793C324.921 84.3421 325.106 84.8053 324.126 84.548C322.993 82.5691 320.091 80.3101 319.155 78.337C319.149 78.5658 319.937 78.5886 319.752 78.1254C318.58 77.6335 316.046 76.4154 314.692 75.3459C317.874 74.4079 320.793 75.9806 321.738 77.6106C321.733 77.8393 320.947 77.7021 320.744 77.9252C321.321 78.5142 320.123 79.0519 321.9 78.9889C322.892 78.7887 321.918 78.3026 322.515 78.091C322.901 78.4455 322.889 78.9031 323.075 79.3663C324.064 79.2805 325.432 79.7781 326.236 79.229C326.259 78.3139 327.071 77.4217 328.066 77.1071C327.303 76.0547 328.701 75.4084 328.919 74.6134C328.525 74.602 328.734 74.1502 328.339 74.1388C327.733 74.6935 328.119 75.0481 326.927 75.357C327.509 75.7173 327.695 76.1806 327.286 76.7411C326.494 76.8326 326.903 76.2721 326.312 76.255C325.903 76.8155 324.914 76.9013 324.119 77.1072C324.743 75.8661 323.989 74.4706 326.179 73.7327C325.414 72.7948 326.617 72.0284 326.832 71.3478C326.438 71.3364 326.043 71.3249 325.843 71.4336C325.866 70.5185 325.884 69.8322 325.507 69.1345C326.887 69.1745 327.685 68.8542 328.68 68.5396C329.268 68.6711 329.059 69.1229 330.048 69.0371C330.263 68.3565 329.274 68.4423 329.686 67.7674C330.092 67.3213 330.672 67.796 331.072 67.5787C331.078 67.3499 331.281 67.1268 330.89 67.001C330.289 67.327 330.286 67.4414 329.306 67.1841C329.733 65.9373 330.351 64.9249 330.186 63.661C330.592 63.2149 330.966 64.027 331.172 63.6895L331.175 63.5752C331.175 63.5752 331.178 63.4608 331.181 63.3464C330.989 63.1119 330.595 63.1005 330.801 62.763C331.784 62.906 331.018 61.968 332.001 62.111C332.764 63.1633 333.117 64.7761 334.074 65.9486C333.433 67.876 334.937 70.7813 334.09 73.0462C334.475 73.4008 335.064 73.5323 335.249 73.9956C334.234 75.1108 333.405 76.6894 334.555 77.9819C334.553 78.0963 334.155 78.1993 333.958 78.1935C334.152 78.3136 334.35 78.3194 334.744 78.3308C334.741 78.4452 334.735 78.6739 334.535 78.7826C334.732 78.7883 334.732 78.7883 334.929 78.794C335.312 79.263 335.097 79.9436 334.5 80.1552C335.259 81.322 335.836 81.911 337.202 82.5229C337.211 82.1798 337.414 81.9567 337.228 81.4935C338.414 81.4134 339.023 80.7442 339.241 79.9492C338.049 80.2581 337.864 79.7948 337.681 79.2172C338.273 79.2343 338.864 79.2515 338.873 78.9083C337.702 78.4165 338.729 76.8437 336.957 76.6778C336.6 75.1794 336.441 73.6867 337.845 72.8116C334.917 71.582 336.173 68.7567 336.049 65.8913C337.432 65.8169 336.817 66.7149 337.803 66.7434C337.818 66.1715 337.629 65.8226 337.447 65.245C337.255 65.0105 337.061 64.8904 336.87 64.6559C336.478 64.5301 336.084 64.5187 335.89 64.3986C335.895 64.1698 335.904 63.8267 335.91 63.5979C331.289 59.1141 327.065 54.5274 323.441 49.6146C327.973 49.8604 332.7 50.2263 337.43 50.4778C337.644 49.7972 337.465 49.1052 337.282 48.5275C337.88 48.3159 337.856 49.231 338.265 48.6705C338.083 48.0929 337.9 47.5152 337.717 46.9376C337.32 47.0405 336.729 47.0234 336.723 47.2522C330.419 46.8406 327.267 46.6348 321.351 46.4634C316.176 40.4755 312.802 33.5095 310.232 25.9944C311.235 25.3367 312.819 25.1536 313.628 24.3758C309.305 23.6782 318.234 21.7619 320.188 22.5054C320.37 23.083 319.196 22.7056 319.184 23.1631C319.579 23.1745 319.77 23.409 320.161 23.5348C322.328 23.7121 321.177 22.4195 322.56 22.3451C323.546 22.3737 321.751 23.123 322.734 23.2659C323.131 23.163 323.334 22.9399 323.734 22.7226C323.157 22.1335 323.955 21.8132 323.178 21.3328C325.562 20.7151 329.172 18.4158 331.904 19.6396C331.91 19.4109 332.113 19.1878 332.313 19.0791C332.327 18.5072 331.747 18.0325 331.565 17.4549ZM328.834 16.231C328.837 16.1167 328.839 16.0023 328.842 15.8879C328.842 15.8879 328.839 16.0023 328.642 15.9966C328.837 16.1167 328.834 16.231 328.834 16.231ZM336.768 91.7825C336.765 91.8968 336.565 92.0055 336.365 92.1142C336.939 92.8176 336.909 93.9615 335.718 94.2704C336.106 94.5106 336.895 94.5334 336.883 94.991C336.477 95.4371 335.509 94.7222 335.303 95.0597C336.48 95.3227 335.862 96.335 336.848 96.3636C337.837 96.2778 336.28 95.4314 337.269 95.3456C337.451 95.9232 338.037 96.1691 338.22 96.7468C337.625 96.844 337.437 96.4951 337.234 96.7182C338.008 97.313 338.788 97.679 338.367 98.697C338.761 98.7084 339.153 98.8343 339.344 99.0687C338.588 97.7877 340.595 96.4722 338.64 95.7287C338.452 95.3798 339.449 94.9509 338.667 94.6992C338.272 94.6878 338.652 95.2712 337.863 95.2483C337.678 94.7851 337.492 94.3218 337.307 93.8585C337.318 93.401 338.081 94.4533 338.293 93.8871C337.722 93.0693 339.119 92.4229 338.151 91.7081C337.745 92.1542 338.713 92.8691 337.53 92.8348C336.947 92.4745 336.956 92.1313 336.768 91.7825ZM327.627 94.2649C327.63 94.1505 327.636 93.9218 327.839 93.6987C327.842 93.5843 327.648 93.4642 327.648 93.4642C326.662 93.4357 326.453 93.8875 325.273 93.7388C325.087 93.2756 324.899 92.9267 325.496 92.7151C325.49 92.9438 325.484 93.1726 326.079 93.0754C326.679 92.7493 325.893 92.6121 326.105 92.0459C326.502 91.9429 326.7 91.9486 326.9 91.84C326.329 91.0221 324.569 90.3988 323.562 91.1709C321.988 91.0108 323.4 89.7926 321.631 89.5124L320.837 89.7183C321.39 91.2225 322.938 92.412 323.707 93.2356C321.108 94.5339 322.747 92.1775 320.372 92.4521C319.545 93.9163 316.193 93.8192 314.624 93.4303C314.642 92.744 316.414 92.9098 316.629 92.2292C316.867 90.6335 314.294 90.9024 313.129 90.1818C311.516 91.5087 313.256 92.9328 312.444 93.825C312.438 94.0538 312.432 94.2825 312.823 94.4084C313.815 94.2082 314.027 93.6419 315.196 94.2481C314.801 94.2367 314.407 94.2253 314.204 94.4484C315.587 94.374 315.572 94.9459 316.347 95.5407C316.552 95.2032 315.964 95.0717 316.361 94.9687C317.327 95.798 321.099 94.8771 319.893 95.7579C321.485 95.2317 321.264 96.141 322.636 96.5242C321.862 95.9294 323.634 96.0952 323.842 95.6434C323.851 95.3002 323.06 95.3918 323.268 94.9399C325.426 95.4603 326.827 94.6996 327.627 94.2649ZM310.675 93.5448C310.687 93.0873 311.296 92.4181 310.124 91.9263C308.57 90.9655 307.222 89.6673 304.629 90.7368L307.308 94.0196C311.637 94.4885 307.426 97.1137 310.152 98.5664C310.349 98.5721 310.349 98.5721 310.546 98.5778C310.587 96.9764 310.434 95.2549 309.883 93.6364C310.286 93.3046 310.481 93.4247 310.675 93.5448ZM316.336 103.668C315.35 103.639 314.773 103.05 314.393 102.467C313.999 102.455 313.802 102.45 313.405 102.553C313.781 103.25 314.352 104.068 313.935 104.972C315.303 105.469 316.681 105.624 318.055 105.893C317.864 105.658 317.87 105.429 318.273 105.098L318.473 104.989C318.479 104.76 318.284 104.64 318.487 104.417C317.499 104.503 316.913 104.257 316.327 104.011C316.333 103.782 316.333 103.782 316.336 103.668ZM337.794 105.663C337.214 105.188 336.634 104.714 335.849 104.577C335.648 104.685 335.451 104.679 335.248 104.903C335.434 105.366 336.637 104.599 337.017 105.183C336.408 105.852 335.634 105.257 334.642 105.457C334.636 105.686 335.231 105.589 335.622 105.715C335.619 105.829 335.225 105.818 335.025 105.926C335.605 106.401 336.805 105.749 337.983 106.012C337.791 105.778 337.791 105.778 337.794 105.663ZM340.007 104.01C340.004 104.125 340.201 104.13 340.198 104.245C340.201 104.13 340.201 104.13 340.007 104.01C340.204 104.016 340.401 104.022 340.401 104.022C340.604 103.799 340.613 103.455 340.813 103.347C340.619 103.227 340.425 103.107 340.428 102.992C340.231 102.986 340.231 102.986 340.033 102.981C340.419 103.335 339.427 103.535 340.007 104.01ZM342.442 93.6639C342.645 93.4409 342.651 93.2121 342.851 93.1034C342.86 92.7603 342.869 92.4171 342.878 92.074C342.472 92.5201 342.257 93.2007 342.442 93.6639ZM336.943 84.9193C336.955 84.4618 337.552 84.2501 338.347 84.0442C337.956 83.9184 338.156 83.8097 337.167 83.8956C336.784 83.4266 336.796 82.9691 337.005 82.5172C335.625 82.4772 335.99 83.6325 334.998 83.8327C334.998 83.8327 334.998 83.8327 334.995 83.9471C336.172 84.2102 336.361 84.559 336.943 84.9193ZM318.415 14.67C318.615 14.5613 319.009 14.5728 319.209 14.4641C319.006 14.6871 318.806 14.7958 318.409 14.8988C318.412 14.7844 318.412 14.7844 318.415 14.67ZM321.988 13.8578C322.582 13.7605 323.374 13.669 323.962 13.8005C324.357 13.8119 324.151 14.1494 324.342 14.3839C323.748 14.4811 323.15 14.6927 322.753 14.7957C322.367 14.4411 321.979 14.2009 321.988 13.8578ZM319.084 19.3827C319.284 19.274 319.678 19.2854 320.073 19.2968C319.87 19.5199 319.669 19.6286 319.275 19.6172C319.275 19.6172 319.081 19.4971 319.084 19.3827ZM336.568 14.7381C335.976 14.7209 335.385 14.7038 334.99 14.6924C335.393 14.3606 335.988 14.2634 336.771 14.515C336.571 14.6237 336.568 14.7381 336.568 14.7381ZM341.081 23.4541C340.086 23.7687 338.506 23.8374 337.708 24.1577C338.885 24.4207 340.466 24.3521 341.043 24.9411C341.24 24.9468 341.24 24.9468 341.44 24.8382C341.219 25.7475 340.802 26.6512 340.775 27.6807C340.572 27.9037 339.981 27.8866 339.775 28.224C339.377 28.327 338.977 28.5443 338.383 28.6416C337.017 28.0297 336.04 27.6579 336.658 26.6456C336.855 26.6513 337.046 26.8858 337.244 26.8915C337.435 27.126 338.206 27.8352 337.812 27.8237C338.392 28.2984 339.578 28.2183 339.595 27.532C339.001 27.6292 338.609 27.5034 338.618 27.1603C338.827 26.7084 339.401 27.4119 339.807 26.9658C339.418 26.7256 339.627 26.2738 339.239 26.0336C338.841 26.1365 338.641 26.2452 338.633 26.5883C338.047 26.3424 338.259 25.7762 337.473 25.639C337.87 25.536 339.451 25.4673 339.28 24.4322C338.097 24.3979 336.081 26.0565 335.327 24.6611C333.553 24.6096 333.138 25.3989 332.334 25.948C332.349 25.3761 331.372 25.0043 331.398 23.9749C330.415 23.8319 330.81 23.8433 329.821 23.9292C329.229 23.912 329.641 23.2371 328.852 23.2143C329.647 23.0084 331.43 22.7166 332.237 22.0532C333.408 22.545 332.413 22.8596 332.796 23.3285C333.779 23.4715 333.788 23.1283 334.577 23.1512C334.791 22.4706 334.206 22.2247 334.223 21.5384C335.209 21.5669 335.395 22.0302 335.38 22.6021C337.352 22.6592 337.97 21.6469 339.736 22.0415C340.704 22.7564 340.892 23.1052 341.081 23.4541ZM339.942 21.7041C339.747 21.5839 339.75 21.4696 339.756 21.2408C337.361 22.3161 338.805 19.8396 337.413 20.2571C337.425 19.7996 338.016 19.8167 337.637 19.2334C336.468 18.6272 335.671 18.9475 334.499 18.4557C334.122 17.7579 333.145 17.3862 333.569 16.2538C335.744 16.0878 335.317 17.3347 335.491 18.2555C336.674 18.2897 337.245 19.1076 338.834 18.6957C339.42 18.9416 338.605 19.9483 339.191 20.1942C339.579 20.4344 339.982 20.1026 340.768 20.2399C340.765 20.3543 340.762 20.4687 340.76 20.583C340.562 20.5773 340.562 20.5773 340.365 20.5716C340.562 20.5773 340.559 20.6917 340.757 20.6974C340.748 21.0406 340.15 21.2522 339.942 21.7041ZM334.499 18.4557C334.29 18.9075 333.304 18.8789 332.707 19.0906C332.713 18.8618 332.719 18.633 332.725 18.4042C333.319 18.307 333.902 18.6673 334.499 18.4557ZM339.302 93.0006C339.122 92.3086 339.911 92.3314 340.311 92.1141C340.105 92.4515 340.482 93.1493 340.088 93.1378C339.894 93.0177 339.499 93.0063 339.302 93.0006ZM328.777 72.4344C328.966 72.7833 329.354 73.0235 329.145 73.4753C328.751 73.4639 328.745 73.6926 328.351 73.6812C328.363 73.2237 327.98 72.7547 328.777 72.4344ZM329.189 71.7595C329.584 71.7709 329.784 71.6623 330.178 71.6737C330.172 71.9025 330.166 72.1312 330.161 72.36C329.369 72.4515 329.578 71.9997 329.189 71.7595ZM338.498 70.4266C338.486 70.8842 339.475 70.7983 339.066 71.3588C338.071 71.6734 337.901 70.6383 338.498 70.4266ZM337.794 67.0866C338.771 67.4583 339.519 69.0826 338.318 69.7346C337.945 68.9225 337.182 67.8701 337.794 67.0866ZM331.946 64.2843C333.526 64.2156 332.488 66.246 332.285 66.4691C332.099 66.0058 332.326 64.8677 331.946 64.2843ZM336.724 16.3452C337.507 16.5968 337.692 17.0601 338.299 16.5053C338.281 17.1916 339.647 17.8035 337.866 17.9809C337.483 17.5119 335.915 17.123 336.724 16.3452ZM288.306 80.8773C289.489 80.9116 288.506 80.7686 288.715 80.3168C289.904 80.1223 289.092 81.0145 290.278 80.9344C290.878 80.6084 290.089 80.5856 290.301 80.0194C288.32 80.3054 290.11 79.7849 288.535 79.6248C288.326 80.0766 288.317 80.4198 288.306 80.8773ZM329.827 62.2769C331.207 62.3169 330.053 61.1388 328.864 61.3333C329.049 61.7965 330.038 61.7107 329.827 62.2769ZM317.81 46.0174C317.451 44.6333 315.929 42.4143 314.384 41.1104C313.633 39.6005 313.283 37.8733 311.532 36.9068C311.955 35.7743 311.207 34.1501 309.845 33.4238C309.412 34.8994 310.917 37.8047 312.456 39.3374C312.601 41.4021 315.038 46.3949 317.81 46.0174ZM307.587 29.123C308.381 28.917 307.613 28.0935 307.422 27.859C306.227 28.2823 307.598 28.6654 307.587 29.123ZM310.25 25.3081C310.85 24.9821 312.227 25.1365 312.051 24.3301C310.867 24.2958 309.867 24.8391 310.25 25.3081ZM309.142 22.2998C310.128 22.3284 310.534 21.8823 311.329 21.6763C310.955 20.8642 310.584 19.9377 309.613 19.3372C309.825 18.771 311.202 18.9254 311.414 18.3592C311.423 18.016 310.631 18.1075 310.84 17.6557C309.848 17.8559 309.257 17.8388 308.465 17.9303C308.421 19.6461 308.983 20.8071 309.142 22.2998ZM300.366 18.268C300.775 17.7075 298.408 17.6389 298.788 18.2223C298.982 18.3424 300.354 18.7255 300.366 18.268ZM290.971 15.2485C291.574 14.8081 292.757 14.8424 293.166 14.2819C292.177 14.3677 291.589 14.2362 290.397 14.5451C290.588 14.7795 290.78 15.014 290.971 15.2485ZM307.616 12.5256C307.225 12.3998 307.031 12.2797 306.839 12.0452C307.037 12.0509 307.431 12.0624 307.628 12.0681C307.82 12.3025 307.817 12.4169 307.616 12.5256ZM291.932 8.5226C292.915 8.66555 293.121 8.32811 293.716 8.23087C293.527 7.88199 291.747 8.05935 291.932 8.5226ZM339.772 90.038C339.578 89.9179 339.581 89.8035 339.584 89.6891C339.778 89.8092 339.775 89.9236 339.772 90.038ZM327.136 113.482C327.168 112.223 328.557 111.92 328.389 110.771C329.178 110.794 329.566 111.034 330.552 111.062C331.753 110.41 330.982 109.701 332.771 109.181C331.544 110.862 331.059 114.397 327.136 113.482ZM333.253 105.76C333.842 105.892 333.421 106.91 332.844 106.321C333.041 106.327 333.238 106.332 333.244 106.104C332.461 105.852 331.855 106.407 331.667 106.058C332.458 105.966 332.664 105.629 333.253 105.76ZM327.158 104.897C327.146 105.355 326.555 105.337 325.96 105.435C325.572 105.195 324.98 105.177 324.792 104.829C325.978 104.748 326.166 105.097 327.158 104.897ZM328.93 105.063C328.935 104.834 328.541 104.823 327.949 104.806C327.782 103.656 330.91 104.777 329.715 105.2C329.718 105.086 329.524 104.966 329.13 104.954C329.124 105.183 328.724 105.4 328.532 105.166C328.727 105.286 328.927 105.177 328.93 105.063ZM325.483 100.957C325.88 100.854 326.277 100.751 327.066 100.773C327.231 102.037 328.826 101.397 330 101.774C330.018 101.088 329.838 100.396 331.216 100.55C330.992 101.574 330.403 101.443 329.992 102.117C328.028 101.717 327.228 102.152 326.033 102.575C326.257 101.551 326.848 101.568 325.483 100.957ZM322.725 100.762C322.325 100.98 321.527 101.3 321.147 100.716C322.328 100.865 322.168 99.3724 322.946 99.8528C322.345 100.179 323.685 101.82 322.313 101.437C322.905 101.454 322.719 100.991 322.725 100.762ZM335.044 97.456C334.835 97.9079 336.427 97.3817 336.218 97.8335C335.427 97.925 336.787 98.7657 335.209 98.72C335.815 98.1652 334.447 97.6677 335.044 97.456ZM339.019 88.6425C339.216 88.6482 339.216 88.6482 339.413 88.6539C339.41 88.7683 339.605 88.8884 339.602 89.0028C339.404 88.9971 339.01 88.9857 338.813 88.98C338.816 88.8656 338.819 88.7512 339.019 88.6425ZM332.617 84.3361C332.431 83.8728 333.023 83.89 332.838 83.4267C333.229 83.5525 333.426 83.5582 333.423 83.6726C333.812 83.9128 333.803 84.256 333.994 84.4905C333.803 84.256 333.209 84.3532 332.617 84.3361ZM327.163 81.5453C325.983 81.3966 325.391 81.3795 324.205 81.4596C325.012 80.7961 326.592 80.7274 327.163 81.5453ZM329.064 61.2246C329.476 60.5497 328.125 59.3659 326.954 58.874C327.124 59.9092 328.496 60.2924 329.064 61.2246ZM308.497 16.6721C308.706 16.2202 309.886 16.3689 310.098 15.8027C309.704 15.7913 309.506 15.7855 309.501 16.0143C308.515 15.9857 309.33 14.9791 307.946 15.0535C308.912 15.8828 307.903 16.7693 308.471 17.7015C309.268 17.3812 310.263 17.0666 311.258 16.752C310.678 16.2774 309.092 16.5748 308.497 16.6721ZM322.037 11.9132C321.84 11.9075 321.64 12.0162 321.443 12.0105C321.643 11.9018 321.84 11.9075 322.037 11.9132ZM304.419 6.36604L305.602 6.40032C305.208 6.3889 304.416 6.48043 303.822 6.57768C304.022 6.46901 304.222 6.36033 304.419 6.36604ZM352.556 22.2985C352.55 22.5272 352.347 22.7503 352.541 22.8704C352.541 22.8704 352.738 22.8761 352.935 22.8818C352.941 22.653 352.947 22.4243 352.556 22.2985ZM302.224 7.33266C302.03 7.21258 301.244 7.07534 301.235 7.4185C301.627 7.54432 302.018 7.67012 302.224 7.33266Z" fill="#EA9781"/>
</svg>
