<svg width="242" height="143" viewBox="0 0 242 143" fill="none" xmlns="http://www.w3.org/2000/svg">
<path fill-rule="evenodd" clip-rule="evenodd" d="M11.3603 91.8679C11.7665 91.7625 12.1607 92.1254 12.5669 92.02C12.5788 91.5517 12.988 91.3293 12.5938 90.9664C11.9248 90.8298 11.3783 91.1655 11.3603 91.8679ZM21.1945 101.76L21.4513 102.236C21.7201 102.244 21.9859 102.369 22.1263 102.139C22.1323 101.905 22.5474 101.448 22.2846 101.206L21.1945 101.76ZM32.1241 121.409L33.2857 123.317C34.3729 122.88 34.5372 121.713 34.83 120.784C34.17 120.296 32.5482 120.601 32.1241 121.409ZM0.816265 67.6612L1.75104 67.9226C1.89742 67.4582 2.71278 67.1303 2.05278 66.6425C1.12098 66.264 0.696841 67.0719 0.816265 67.6612ZM13.9651 84.6793C13.0243 84.652 13.4035 85.6003 13.7948 86.0803L14.0665 85.971C14.2129 85.5066 14.6281 85.05 13.9651 84.6793ZM16.2405 90.369C16.3659 90.7242 16.9065 90.6227 17.1693 90.8646C17.7099 90.7631 17.456 90.1699 17.7308 89.9436C17.3456 89.2294 16.3898 89.7875 16.2405 90.369ZM16.7395 86.6343L15.1297 86.4705C14.7086 87.1612 14.6786 88.332 15.2072 88.6988L16.0226 88.3709C16.835 88.1602 16.7275 87.1026 16.7395 86.6343ZM36.1324 117.19L35.8426 118.002C36.1024 118.361 37.0402 118.505 37.309 118.513C37.5958 117.818 36.673 117.088 36.1324 117.19ZM18.5642 88.9132L19.4989 89.1746C19.7677 89.1824 19.7737 88.9483 19.9141 88.718C19.3795 88.5854 18.4477 88.2069 18.5642 88.9132ZM24.3462 88.9636L24.0864 88.6046L22.8618 89.1549C22.9873 89.51 23.5278 89.4085 23.925 89.6544C23.934 89.3031 23.8086 88.948 24.3462 88.9636ZM42.3179 111.98C41.7444 113.369 43.6589 112.136 43.623 113.541C43.2018 114.231 42.7837 114.805 42.2281 115.492C41.3439 118.513 46.3196 118.54 48.2996 120.003C52.6152 119.542 48.3924 116.373 51.1252 114.695L49.6469 114.652C47.2607 113.294 44.8924 111.234 42.3179 111.98ZM29.5584 79.7416C29.415 80.0889 29.0058 80.3114 29.4001 80.6743C29.6688 80.6821 29.9347 80.8069 30.075 80.5767C30.4872 80.2371 30.2424 79.2927 29.5584 79.7416ZM49.1126 109.247C49.6412 109.614 49.925 109.037 50.4656 108.935L50.2058 108.576L49.1126 109.247ZM64.7375 124.111C63.9072 125.024 63.5994 126.539 64.785 127.51C66.768 128.857 67.3565 126.882 68.7125 126.452C68.7364 125.516 70.0984 124.852 69.0412 124.119C67.5718 123.725 66.1144 122.862 64.7375 124.111ZM35.8548 70.1995L36.4223 69.0443L35.0783 69.0053C35.1978 69.5946 34.6422 70.2815 35.8548 70.1995ZM60.5453 109.227C61.2263 108.895 61.6414 108.439 61.7938 107.74L60.1601 108.513L60.5453 109.227ZM58.6285 100.033L59.0048 101.098L59.8201 100.77C60.2413 100.08 59.3185 99.3499 58.6285 100.033ZM66.3214 109.512C66.5872 109.637 66.4468 109.867 66.4408 110.101C66.7096 110.109 67.2412 110.358 67.5129 110.249C68.0685 109.562 66.8709 109.059 66.3214 109.512ZM70.932 118.55C70.5169 119.006 69.8209 119.923 70.7497 120.419C71.5471 120.794 72.3505 120.934 73.1719 120.372C73.59 119.798 74.4263 118.651 73.5005 118.038C72.5777 117.309 71.7444 118.339 70.932 118.55ZM53.8449 87.2407C52.6353 87.2056 52.5994 88.6106 52.453 89.075L52.9876 89.2076C54.5913 89.6056 55.7204 87.5294 53.8449 87.2407ZM74.6532 120.298L75.5551 121.847L76.3704 121.519C76.3824 121.051 76.7916 120.828 76.5288 120.586C75.7284 120.329 75.0714 119.724 74.6532 120.298ZM50.9035 81.2973C50.6227 81.7578 50.6077 82.3432 51.1333 82.8271C51.3961 83.069 51.6709 82.8427 52.0801 82.6202C52.9044 81.9411 51.7188 80.9694 50.9035 81.2973ZM40.0038 60.478C39.8544 61.0595 39.5677 61.7541 39.6901 62.2263C40.0813 62.7063 41.0191 62.8506 41.5716 62.2808C43.068 61.6212 41.5121 59.35 40.0038 60.478ZM30.2538 42.0352L28.1334 40.8021C27.1897 40.892 27.1717 41.5944 26.6251 41.9301C27.2791 42.652 27.518 43.8306 28.5842 44.2129C29.1367 43.6431 30.7585 43.3386 30.2538 42.0352ZM55.5984 81.7848C55.473 81.4297 55.8851 81.0902 55.6223 80.8482L54.2604 81.5117L54.3888 81.7498C54.6606 81.6405 55.1862 82.1244 55.5984 81.7848ZM57.6858 84.3057C58.11 83.4979 57.3006 83.5916 56.6286 83.5721C56.4852 83.9195 56.0761 84.1419 56.4703 84.5048C56.9989 84.8716 57.2826 84.294 57.6858 84.3057ZM47.4548 68.8953C48.3896 69.1567 49.0735 68.7078 48.9571 68.0015L47.0785 67.8299C46.9322 68.2943 46.6544 68.6378 47.18 69.1216L47.4548 68.8953ZM50.7967 69.6951L49.5722 70.2454C49.9784 70.14 50.3726 70.5029 50.7787 70.3975C50.9221 70.0502 51.0625 69.8199 50.7967 69.6951ZM58.1043 78.4597C57.4294 78.5573 57.277 79.2559 57.6742 79.5017L58.0834 79.2792C58.4926 79.0568 58.2327 78.6978 58.1043 78.4597ZM79.2354 109.417C78.5724 109.046 78.0288 109.265 77.745 109.843C77.8734 110.081 77.9988 110.436 78.402 110.447C79.077 110.35 79.089 109.882 79.2354 109.417ZM80.4296 115.31C80.0114 115.884 80.4027 116.364 80.3877 116.949C80.8983 118.018 82.3917 117.476 83.4578 117.858C83.4698 117.39 83.879 117.167 84.0254 116.703C83.1175 115.388 81.6272 115.813 80.4296 115.31ZM86.7399 120.999L87.5553 120.672L87.2984 120.195L86.7399 120.999ZM81.4007 108.894L80.4479 109.335C80.7912 111.688 77.1595 111.7 75.1196 112.578C74.6985 113.269 73.7278 114.413 74.6476 115.26C74.77 115.732 75.424 116.454 76.111 115.888C79.2111 115.626 79.1964 110.939 82.8042 111.864C81.744 111.247 82.4519 109.862 81.4007 108.894ZM50.0596 61.7066C51.1407 61.5036 51.1557 60.9182 50.9049 60.208C49.8537 59.2402 48.4917 59.9038 47.2881 59.6346C46.3054 61.2464 49.5489 60.6374 50.0596 61.7066ZM44.4306 50.413C44.4486 49.7106 44.1947 49.1174 43.9439 48.4072L43.1286 48.735C43.5168 49.3321 43.6302 50.1555 44.4306 50.413ZM54.7362 68.1689L53.4307 71.8803L53.9654 72.013C55.0645 71.1075 56.4264 70.444 57.1283 69.2927C56.7401 68.6956 55.8173 67.9659 54.7362 68.1689ZM52.1534 58.7211C51.347 58.6977 50.5436 58.5573 50.7914 59.3846C51.1976 59.2792 52.1294 59.6577 52.1534 58.7211ZM20.7314 14.6946C20.0415 15.3776 19.7427 16.5406 20.2564 17.4928C22.2663 17.7854 23.4429 19.1082 25.217 18.1052C26.0623 16.6066 24.8827 15.4007 23.4253 14.5384C22.3681 13.8048 21.6662 14.9561 20.7314 14.6946ZM77.468 99.6414L77.9876 100.359L78.2594 100.25C78.5401 99.7897 77.7427 99.4151 77.468 99.6414ZM50.8513 57.043C51.4039 56.4732 51.4129 56.122 50.8933 55.404C49.1731 54.2997 49.6537 56.5397 49.1012 57.1095C49.6298 57.4763 50.5706 57.5036 50.8513 57.043ZM59.8462 68.1998C60.127 67.7393 60.0165 66.7988 59.2012 67.1267C59.1892 67.595 58.78 67.8174 59.1742 68.1804C59.443 68.1881 59.7058 68.4301 59.8462 68.1998ZM67.1445 82.588C66.3052 83.8525 67.3444 85.2886 67.861 86.1237C68.7868 86.7363 70.2592 87.0133 71.2209 86.221C72.5978 84.9721 70.34 83.8522 71.0479 82.4668C69.5786 82.0727 68.2376 81.9167 67.1445 82.588ZM62.3215 76.5901C63.1339 76.3793 63.4177 75.8017 63.9702 75.2319C64.6332 75.6026 65.2752 76.7929 66.3684 76.1216C67.2047 74.9742 65.8697 74.584 65.0753 74.0923C64.9023 70.3381 63.2833 75.7978 61.4436 74.1043L61.0075 75.3804C61.4047 75.6263 61.5151 76.5668 62.3215 76.5901ZM83.3335 101.686C83.6113 101.343 83.2141 101.097 83.0887 100.742L82.2733 101.069L82.5301 101.546C82.7929 101.787 83.1961 101.799 83.3335 101.686ZM48.7193 51.006C48.8537 51.0099 49.2539 51.1386 49.2479 51.3728L50.0633 51.0449C50.6069 50.8263 51.8284 50.3931 51.04 49.6672C50.2336 49.6439 48.7463 49.9523 48.7193 51.006ZM94.0692 118.4L92.9161 121.413C94.1107 122.033 95.8369 122.903 97.2048 122.006C99.1283 120.421 96.3629 118.115 94.0692 118.4ZM70.723 74.1388C70.6125 73.1983 69.5613 72.2305 68.7729 71.5047L68.6265 71.9691C69.8211 72.5895 68.692 74.6658 70.723 74.1388ZM75.1757 78.8372L71.4305 78.0257L71.0004 79.0677C70.9824 79.7701 72.3204 80.0432 73.1208 80.3007C73.8077 79.7348 75.2831 79.8947 75.1757 78.8372ZM63.1559 59.7428L62.451 61.0112L62.8482 61.257C63.2693 60.5662 63.8099 60.4647 63.1559 59.7428ZM42.2963 33.9484C42.2274 36.6411 45.1901 36.4926 47.218 36.0827C47.1076 35.1422 46.8747 33.7295 46.1013 32.4183C44.7424 32.9648 41.947 31.8293 42.2963 33.9484ZM65.6256 63.0949L64.1472 63.0521C64.5295 63.8833 64.2397 64.6951 63.4184 65.2571C63.8126 65.62 63.6632 66.2015 64.3352 66.2209C64.3681 64.9331 66.396 64.5232 65.6256 63.0949ZM78.5741 82.6848C78.9923 82.1111 78.6041 81.5141 77.7977 81.4907C77.7857 81.959 77.3646 82.6498 78.5741 82.6848ZM108.135 131.11L108.52 131.824C108.789 131.831 109.318 132.198 109.727 131.976C110.008 131.515 109.891 130.809 109.497 130.446L108.135 131.11ZM59.9221 49.4559L58.847 49.4248L59.1067 49.7838L59.9221 49.4559ZM51.5813 39.0211C51.7306 38.4396 53.0716 38.5956 52.558 37.6434L51.0856 37.3664L50.6525 38.5255C50.6405 38.9938 51.3184 38.7791 51.5813 39.0211ZM96.4171 110.735C97.8745 111.597 98.9707 110.809 99.129 109.876L96.4441 109.681C96.5665 110.154 96.1543 110.493 96.4171 110.735ZM99.9919 112.948C100.383 113.428 100.801 112.854 101.207 112.749C101.213 112.514 101.354 112.284 101.225 112.046C100.559 111.792 100.007 112.362 99.9919 112.948ZM52.1372 33.0619L51.2024 32.8005L50.9126 33.6122L51.4472 33.7449C51.719 33.6356 52.1282 33.4131 52.1372 33.0619ZM68.2476 65.7485C68.0983 66.33 66.6019 66.9896 67.7906 67.8442C69.8065 67.9026 70.386 66.2791 71.0909 65.0107C69.5021 64.0274 71.8198 62.8057 70.4998 61.8302C69.2782 62.2635 70.0547 63.4576 69.7619 64.3864C69.4752 65.0811 69.3138 66.1309 68.2476 65.7485ZM75.1494 69.3462L73.5782 72.9327C74.9132 73.3229 74.1757 70.6068 76.1617 71.8359C76.4544 70.9071 76.7622 69.3929 75.1494 69.3462ZM53.6643 62.7484C52.9893 62.846 51.5439 61.5153 51.1078 62.7915C52.822 64.1299 53.7149 66.0304 56.119 66.6859C56.818 65.6517 59.4939 66.1978 59.273 64.3168L58.0724 63.9306C57.7052 62.514 59.288 63.7315 59.3149 62.6778C59.1925 62.2056 58.652 62.3071 58.2518 62.1783C58.0459 59.7119 61.0741 62.2601 60.7338 59.7898C60.2142 59.0718 59.121 59.7431 58.3206 59.4856C57.801 58.7675 57.6876 57.9441 57.9773 57.1324C59.7125 57.6513 60.8296 56.0434 62.0482 55.7272C62.974 56.3398 61.624 56.535 61.609 57.1204C62.3735 58.7828 63.5115 56.3554 64.8226 57.6822L64.5208 58.9622L64.918 59.2081C67.0863 58.5679 66.1905 56.7845 67.8332 55.6605C65.2527 56.6402 65.2021 53.3581 63.0518 53.2958L62.7621 54.1076C61.7824 55.6023 60.6297 53.3428 59.2827 53.4209C56.8516 53.8192 58.1507 55.6143 55.7106 56.3637C55.0446 56.1101 54.9521 54.4671 53.7126 55.6028C58.0668 58.8924 51.0542 59.6265 53.6643 62.7484ZM104.678 113.786C104.534 114.134 104.254 114.594 104.782 114.961C105.048 115.086 105.311 115.328 105.451 115.098C106.007 114.411 105.622 113.697 104.678 113.786ZM82.8901 76.9517L82.7318 77.8844L83.0036 77.7752C83.2784 77.5488 83.0155 77.3069 82.8901 76.9517ZM68.2873 53.6818C67.8721 54.1385 68.5351 54.5092 68.5261 54.8604C68.9233 55.1062 69.2011 54.7628 69.4729 54.6535C69.2071 54.5286 69.4849 54.1852 69.6222 54.072L68.2873 53.6818ZM55.539 31.5202C57.4206 31.5747 56.6741 29.2098 55.0523 29.5143C54.4938 30.3182 54.7356 31.3797 55.539 31.5202ZM109.776 114.286C109.618 115.218 109.588 116.389 110.245 116.994C112.126 117.048 111.505 115.039 110.591 113.958L109.776 114.286ZM92.9811 87.3201C93.8115 86.4069 94.6478 85.2595 93.737 84.0615C92.5364 83.6752 91.2014 83.285 89.9769 83.8354C89.8095 85.1193 87.5158 85.4043 88.9612 86.735C90.2812 87.7106 91.3354 88.5612 92.9811 87.3201ZM121.518 128.451C119.897 128.756 119.601 129.801 118.905 130.719C118.717 132.822 121.536 133.021 122.853 134.114C123.271 133.54 123.558 132.845 124.502 132.755C125.493 130.792 124.066 128.759 121.518 128.451ZM111.482 110.703C111.066 111.16 111.598 111.409 111.858 111.768C111.998 111.538 112.395 111.784 112.527 111.905C113.488 111.113 111.759 110.359 111.482 110.703ZM49.7733 9.79511C49.7763 9.67803 50.0511 9.45166 49.7853 9.3268L48.97 9.65465L49.0984 9.89271C49.2328 9.8966 49.4986 10.0215 49.7733 9.79511ZM71.8295 51.9099C71.1306 52.9441 72.582 54.0406 72.8358 54.6338C74.8457 54.9263 76.2346 53.2091 76.6767 51.6988C75.0969 50.3643 73.5557 52.78 71.8295 51.9099ZM73.553 47.6248C73.4036 48.2063 71.7879 48.2766 72.7077 49.1234C74.0697 48.4599 73.8308 47.2813 74.6701 46.0168C74.2879 45.1856 73.3651 44.4559 72.5407 45.135L72.3974 45.4823C70.0142 44.0073 69.2763 46.5636 67.0035 46.029C65.9074 46.8174 65.5997 48.3316 66.5135 49.4126C70.0793 51.9763 70.4948 46.2474 73.553 47.6248ZM69.1423 41.2873C71.5195 42.9965 71.0537 40.1711 72.4127 39.6246L68.0941 40.2025C67.5415 40.7723 66.5768 41.6816 67.634 42.4153C68.5687 42.6767 68.5927 41.7401 69.1423 41.2873ZM70.5285 34.4149C70.9526 33.607 69.4893 32.9788 68.8023 33.5447C68.7963 33.7789 68.6559 34.0091 68.9217 34.134C69.4503 34.5008 69.7071 34.9769 70.5285 34.4149ZM103.858 93.2591C103.377 91.0191 106.501 89.8208 105.211 87.6745C104.411 87.417 103.586 88.0961 103.709 88.5683C103.533 90.2034 102.786 93.1109 100.623 93.5169C101.543 94.3637 102.535 92.4006 103.858 93.2591ZM74.8857 37.5874C74.5005 36.8732 73.6076 34.9727 72.8072 34.7152C73.3149 35.9016 73.1206 38.2392 71.1046 38.1808L71.2301 38.5359C71.6303 38.6647 72.1619 38.9144 72.574 38.5748L74.0165 40.0226L75.1036 39.5854L74.0554 38.5006C74.1988 38.1533 74.3481 37.5718 74.8857 37.5874ZM123.016 111.974C121.675 111.818 122.317 113.009 121.495 113.571L120.295 113.184C120.172 112.712 119.506 112.459 119.922 112.002L116.729 110.621C113.566 113.341 120.157 113.298 118.47 116.178C119.004 116.31 119.551 115.975 120.089 115.99C119.073 113.618 122.376 115.939 122.568 113.719C120.576 112.724 123.52 113.278 123.016 111.974ZM123.045 116.076C123.604 115.272 125.226 114.968 124.984 113.906L123.493 114.332C122.941 114.901 122.122 115.346 123.045 116.076ZM59.4768 9.02178C59.4828 8.78763 59.6232 8.55736 59.4948 8.31931L58.6734 8.88133C59.0736 9.01009 59.3394 9.13496 59.4768 9.02178ZM66.8859 19.0781C67.4504 18.04 66.017 16.241 65.0552 17.0333C65.0373 17.7358 64.8849 18.4343 65.5419 19.0392C65.8107 19.047 66.4767 19.3006 66.8859 19.0781ZM128.263 111.892L126.641 112.197C127.137 113.851 123.556 117.145 127.573 117.847C128.26 117.282 128.549 116.47 129.625 116.501C130.742 114.893 128.221 113.531 128.263 111.892ZM131.894 117.153L131.742 117.851C131.864 118.323 132.405 118.222 132.671 118.347C132.811 118.116 132.817 117.882 133.086 117.89C132.967 117.301 132.429 117.285 131.894 117.153ZM136.075 127.233L136.977 128.782C138.052 128.813 139.656 129.211 140.217 128.29C139.868 126.171 137.329 125.511 136.075 127.233ZM71.5358 21.3218C73.4324 20.7909 71.315 19.4408 71.6077 18.512L69.5678 19.3902L69.8276 19.7492C70.3592 19.9989 70.3233 21.4038 71.5358 21.3218ZM120.17 107.557L120.57 107.686C121.666 106.897 122.571 108.329 122.825 108.923C124.44 108.852 124.784 111.206 126.426 110.081L125.799 108.306L127.161 107.642C127.182 106.823 128.144 106.031 127.49 105.309C125.172 106.53 121.848 105.028 120.17 107.557ZM124.656 100.423L123.022 101.196L123.823 101.453C124.498 101.356 124.51 100.887 124.656 100.423ZM68.6753 12.2174C68.5259 12.7989 68.2422 13.3765 68.3616 13.9657C69.9414 15.3003 70.1683 16.9471 72.7218 17.0211L73.7285 14.4727C71.8529 14.184 71.1064 11.8192 68.6753 12.2174ZM135.207 113.851L135.744 113.866C136.016 113.757 136.419 113.769 136.431 113.3L135.497 113.039L135.207 113.851ZM129.261 99.1503C128.718 99.3689 127.096 99.6734 127.066 100.844L129.897 100.575C130.047 99.9932 129.384 99.6225 129.261 99.1503ZM140.099 111.884L139.8 113.047C140.069 113.054 140.601 113.304 140.875 113.078C141.294 112.504 140.905 111.907 140.099 111.884ZM136.495 105.569C136.769 105.343 136.507 105.101 136.247 104.742L135.685 105.663C135.954 105.671 136.22 105.796 136.495 105.569ZM72.0269 2.12129C72.0299 2.00421 72.1733 1.65688 71.9075 1.53201L70.8204 1.96917L71.0772 2.44526L72.0269 2.12129ZM138.636 105.983C134.849 106.811 139.367 108.933 136.24 110.249C138.886 111.966 138.899 106.225 142.208 108.313L141.918 109.124L142.721 109.265L141.715 106.541C140.488 107.208 139.833 106.486 138.636 105.983ZM149.76 118.022C150.127 119.438 151.242 117.947 152.039 118.322C151.642 118.076 150.053 117.093 149.76 118.022ZM144.236 102.63C144.654 102.057 144.26 101.694 144.541 101.233L143.316 101.784C143.582 101.908 143.564 102.611 144.236 102.63ZM148.575 111.778C149.22 112.851 150.062 111.469 150.982 112.316C152.389 109.896 148.745 110.377 148.575 111.778ZM153.249 113.085C153.368 113.674 153.073 114.72 154.142 114.985C155.498 114.556 154.315 113.467 154.47 112.651L153.249 113.085ZM86.1592 6.98295L85.5737 8.84058C87.4612 8.66095 88.6109 11.0375 90.397 9.56614L89.8773 8.84812C87.8374 9.72632 87.7689 7.14675 86.1592 6.98295ZM168.608 133.096L168.736 133.334C169.133 133.58 169.518 134.294 170.205 133.728C170.486 133.268 169.823 132.897 169.832 132.546L168.608 133.096ZM159.093 115.949C159.756 116.319 160.276 117.038 161.076 117.295C161.351 117.069 162.187 115.921 161.127 115.305C160.336 114.696 159.377 115.371 159.093 115.949ZM80.4789 2.95198C81.2254 5.31687 83.074 6.65923 84.0953 8.79775L83.758 6.21039C84.7257 5.18396 85.9113 6.15561 86.8701 5.48041C87.6914 4.91839 87.3152 3.85303 87.1988 3.14668C88.2829 2.8266 88.059 1.06267 89.394 1.45284C89.6718 1.1094 89.5434 0.871349 89.5524 0.520121L82.0262 0.302062C81.0704 0.860186 80.2431 1.65635 80.4789 2.95198ZM179.523 142.785C179.798 142.559 179.535 142.317 179.275 141.958L178.46 142.286L178.716 142.762C178.982 142.887 179.248 143.012 179.523 142.785ZM153.781 108.062C155.268 107.754 156.364 106.965 156.803 105.572C155.576 106.24 153.691 106.302 153.781 108.062ZM163.911 116.909C164.057 116.444 164.472 115.987 163.809 115.617L163.242 116.772C163.505 117.014 163.77 117.139 163.911 116.909ZM162.892 119.925L163.827 120.187C164.526 119.152 166.951 118.988 165.918 117.318C163.651 116.549 163.728 118.778 162.892 119.925ZM172.076 123.706C172.338 123.948 172.613 123.722 173.022 123.499C173.441 122.926 173.049 122.446 173.064 121.86L172.118 122.067C171.702 122.524 171.553 123.105 172.076 123.706ZM175.101 121.099L174.674 122.024C174.808 122.028 175.203 122.391 175.48 122.047C175.627 121.583 175.23 121.337 175.101 121.099ZM169.646 108.287C169.789 107.94 170.07 107.48 169.675 107.117L168.451 107.667L169.646 108.287ZM165.551 100.085C164.757 99.5929 163.276 99.6671 162.983 100.596L163.111 100.834C163.93 100.389 165.253 101.248 165.551 100.085ZM173.145 113.427C173.588 111.917 171.288 112.436 171.01 112.779L170.643 111.363L169.021 111.667C167.692 111.043 169.332 110.036 168.678 109.314C166.952 108.444 167.301 110.563 166.483 111.008C162.316 110.887 166.307 107.371 163.917 106.13C166.092 105.255 164.398 108.37 166.453 106.906L166.193 106.547C166.074 105.958 166.238 104.791 167.31 104.939C167.985 104.842 167.97 105.427 168.233 105.669L168.639 105.564C167.988 104.725 168.705 102.988 166.958 102.937L170.222 101.509L167.158 100.365C165.495 102.309 164.261 103.211 161.94 104.549C162.606 104.803 163.389 105.763 162.699 106.446C161.492 106.294 160.787 107.562 160.363 108.37C160.62 108.846 161.014 109.209 161.683 109.346L162.388 108.077C162.654 108.202 163.195 108.101 163.451 108.577C163.828 109.642 162.752 109.611 162.074 109.826L162.561 111.831C162.149 112.171 161.614 112.038 161.217 111.792L160.927 112.604C161.056 112.842 161.181 113.197 161.584 113.209C163.069 113.018 165.362 112.733 164.914 114.477C165.41 116.132 167.456 115.019 168.504 116.104L167.39 117.595C168.172 118.555 168.606 117.396 169.54 117.657C171.568 117.248 174.83 115.936 173.145 113.427ZM175.538 109.278C174.759 108.201 174.803 106.445 172.507 106.847C171.252 108.568 175.042 107.624 174.466 109.13C174.735 109.138 175.129 109.501 175.538 109.278ZM178.503 119.557C178.676 118.039 177.094 116.822 176.592 115.401C178.506 114.168 178.978 111.487 175.472 111.854L175.176 112.9C175.968 113.509 175.257 115.011 176.726 115.405L174.788 117.575C175.708 118.422 177.293 119.522 178.503 119.557ZM176.04 110.699C176.568 111.066 177.631 111.565 177.921 110.753C177.945 109.817 175.675 109.165 176.04 110.699ZM178.11 103.378L173.17 101.946C174.619 103.159 177.405 104.646 178.023 106.773C180.311 106.722 177.946 104.544 178.11 103.378ZM185.671 112.735C186.065 113.098 186.484 112.525 186.887 112.536C187.033 112.072 187.311 111.728 186.785 111.244C185.737 110.16 185.432 111.557 184.617 111.885C184.079 111.869 183.688 111.389 183.154 111.256L182.864 112.068C183.121 112.544 183.509 113.141 184.172 113.512C183.894 113.855 183.879 114.441 183.207 114.421L183.864 115.026C184.677 114.815 185.871 115.436 186.289 114.862C186.851 113.941 184.572 113.641 185.671 112.735ZM187.797 119.007C189.138 119.163 190.345 119.315 191.548 119.584C192.098 119.131 192.782 118.682 192.128 117.96C191.994 117.956 191.862 117.836 191.728 117.832C190.246 117.906 188.233 117.73 187.797 119.007ZM187.794 119.124C187.791 119.241 187.785 119.475 187.782 119.592C187.788 119.358 187.791 119.241 187.794 119.124ZM182.533 103.974L183.468 104.236C183.737 104.244 183.746 103.892 183.886 103.662C183.486 103.533 182.554 103.155 182.533 103.974ZM183.109 107.74C184.065 107.182 186.445 108.774 186.221 107.01C185.397 107.689 183.545 106.464 183.109 107.74ZM189.363 110.382L189.091 110.491L189.354 110.733C189.357 110.616 189.36 110.499 189.363 110.382ZM185.119 102.76C185.4 102.3 185.947 101.964 185.29 101.359C184.63 100.872 183.295 100.481 182.865 101.523C183.244 102.472 184.173 102.967 185.119 102.76ZM190.85 115.346C191.525 115.248 192.071 114.913 192.349 114.569C191.414 114.308 190.48 114.046 189.545 113.785C189.542 113.902 189.401 114.132 189.398 114.249C189.79 114.729 190.04 115.439 190.85 115.346ZM189.59 101.484C190.687 100.696 190.454 99.283 190.346 98.2254L189.399 98.4323C188.972 99.3572 188.93 100.996 189.59 101.484ZM192.625 103.798C193.043 103.224 193.682 104.532 194.094 104.192C194.372 103.849 193.574 103.474 194.112 103.49C194.378 103.615 194.506 103.853 194.638 103.974C194.912 103.747 194.924 103.279 194.53 102.916C193.855 103.014 192.383 102.737 192.625 103.798ZM188.268 95.3532C188.82 94.7834 189.385 93.7453 188.868 92.9102L187.65 93.2264C187.097 93.7962 186.264 94.8265 187.321 95.5601C187.596 95.3338 187.871 95.1074 188.268 95.3532ZM193.688 99.0252L194.623 99.2866C194.629 99.0524 194.769 98.8222 194.641 98.5841L193.688 99.0252ZM203.335 100.476C201.871 99.8481 200.671 99.4618 198.927 99.2941C198.921 99.5283 198.78 99.7585 199.046 99.8834C200.097 100.851 200.981 103.103 202.902 101.635L203.335 100.476ZM205.983 112.621C205.977 112.855 205.971 113.089 205.962 113.44C206.085 113.913 206.07 114.498 206.326 114.974C206.461 114.978 206.73 114.986 206.864 114.99C207.918 115.84 208.969 116.808 210.027 117.542C210.567 117.44 211.114 117.105 211.526 116.765C209.674 115.54 207.829 114.08 205.983 112.621ZM208.548 117.499C208.683 117.503 208.814 117.624 208.948 117.628C209.083 117.631 209.214 117.752 209.349 117.756C208.82 117.39 208.291 117.023 207.763 116.656C208.026 116.898 208.288 117.14 208.548 117.499ZM200.373 90.0801L199.539 91.1105L200.474 91.3719C200.486 90.9036 200.767 90.443 200.373 90.0801ZM207.997 96.9793C208.842 95.4807 207.848 92.2885 205.005 93.0263C204.578 93.9512 202.816 94.4859 203.589 95.7971C204.497 97.1122 206.199 98.919 207.997 96.9793ZM236.159 126.5C236.293 126.504 236.293 126.504 236.427 126.508C236.427 126.508 236.293 126.504 236.159 126.5ZM218.17 88.3697C216.038 87.6049 215.16 85.1191 212.603 85.1621L212.313 85.9739C212.421 87.0315 213.771 86.8363 214.568 87.2109C215.482 88.2918 217.468 89.521 217.023 91.1484C219.311 91.0975 216.533 89.2596 218.17 88.3697ZM229.234 13.3544L229.1 13.3505C229.1 13.3505 228.966 13.3466 228.963 13.4637C228.96 13.5808 229.091 13.7017 229.088 13.8188C229.091 13.7017 229.231 13.4715 229.234 13.3544ZM226.77 15.0405C226.633 15.1536 226.496 15.2668 226.358 15.38C225.818 15.4815 225.152 15.2279 224.895 14.7518C224.492 14.7401 224.085 14.8455 223.685 14.7167C223.548 14.8299 223.413 14.826 223.276 14.9392C223.273 15.0563 223.267 15.2904 222.867 15.1617C222.732 15.1578 222.732 15.1578 222.598 15.1539C222.192 15.2593 221.786 15.3647 221.248 15.3491C222.042 15.8408 223.136 15.1695 224.339 15.4387C224.333 15.6728 224.324 16.024 224.315 16.3753C223.775 16.4768 223.234 16.5783 223.088 17.0427C222.29 16.6681 221.362 16.1725 220.406 16.7307C220.412 16.4965 220.418 16.2624 220.286 16.1414C220.397 17.0819 220.645 17.9092 221.17 18.3931C220.752 18.9668 219.808 19.0566 219.784 19.9932C219.516 19.9854 219.247 19.9776 218.978 19.9699C218.581 19.724 219.259 19.5093 218.859 19.3806C218.181 19.5953 217.243 19.4509 216.58 19.0802C216.024 19.7671 215.074 20.0911 214.256 20.536C214.408 19.8375 215.364 19.2793 216.314 18.9554C216.051 18.7134 215.923 18.4754 215.797 18.1203C215.657 18.3505 215.782 18.7056 216.048 18.8305C215.911 18.9437 214.964 19.1506 214.839 18.7955C215.654 18.4676 214.173 18.5418 214.182 18.1906C214.854 18.2101 215.263 17.9876 215.672 17.7651C215.678 17.531 215.687 17.1798 215.693 16.9456C216.362 17.0821 217.028 17.3358 217.706 17.1211C217.709 17.004 217.846 16.8908 217.846 16.8908C217.715 16.7699 217.583 16.6489 217.315 16.6411C216.643 16.6216 215.576 16.2392 215.021 16.9261C214.773 16.0988 213.814 16.774 213.561 16.1808C213.964 16.1925 214.236 16.0832 214.376 15.853C213.844 15.6032 213.555 16.415 213.576 15.5955C214.119 15.3769 214.797 15.1622 215.341 14.9436C214.952 14.3466 214.298 13.6246 214.857 12.8207C214.857 12.8207 214.723 12.8168 214.726 12.6997C214.591 12.6958 214.591 12.6958 214.457 12.6919C214.322 12.688 214.191 12.5671 214.057 12.5632C214.075 11.8607 213.692 11.0295 213.573 10.4402C213.167 10.5456 213.567 10.6744 213.424 11.0217C213.155 11.0139 213.161 10.7798 213.167 10.5456C212.758 10.7681 212.498 10.4091 212.086 10.7486C211.829 10.2725 211.297 10.0228 210.894 10.0111C211.022 10.2491 211.154 10.3701 211.417 10.6121C211.142 10.8384 210.748 10.4755 210.476 10.5848C210.61 10.5887 210.742 10.7097 210.876 10.7136C210.739 10.8268 210.47 10.819 210.338 10.698C210.338 10.698 210.338 10.698 210.341 10.5809C210.207 10.577 210.21 10.4599 210.079 10.339C209.935 10.6863 210.476 10.5848 210.332 10.9321C209.795 10.9166 209.95 10.1009 209.404 10.4366C209.416 9.96827 209.012 9.9566 209.29 9.61315C208.744 9.94881 208.618 9.59368 207.677 9.56643C206.999 9.78111 207.391 10.2611 207.11 10.7216C206.572 10.706 206.584 10.2377 205.909 10.3353C205.924 9.74995 205.527 9.50411 205.679 8.80555C206.22 8.70405 206.369 8.12256 207.038 8.25911C207.065 7.20542 205.862 6.93623 205.751 5.99572C205.635 5.28937 206.19 4.60249 206.208 3.90003L92.3747 0.601893C92.6285 1.19506 92.6075 2.0146 92.5956 2.48291L90.5976 1.72203C90.042 2.40891 91.1052 2.90838 90.6841 3.59915C89.7163 4.62558 91.2932 6.07722 89.5251 6.84613L91.2512 7.7163L91.8367 5.85864C94.2858 4.75797 94.7186 8.87122 96.6002 8.92574C98.9268 7.35287 99.0077 4.1918 97.183 1.91283C100.014 1.64338 100.34 4.69904 103.165 4.66374L102.466 5.69796C103.884 8.08232 100.133 7.50498 99.6972 8.78114L101.035 9.05424L100.745 9.86598L99.0073 9.46412C96.5463 11.0331 100.563 11.7353 99.0369 13.5657L100.503 14.0768C101.184 13.7451 101.074 12.8046 101.889 12.4767C102.427 12.4923 102.552 12.8474 102.681 13.0854C101.991 13.7684 101.432 14.5724 100.214 14.8886C98.2185 14.0106 97.1999 17.0274 94.9331 16.2587L95.7665 15.2284L93.0935 14.5651C90.3786 15.5409 94.6614 16.368 93.4129 17.8549C92.5676 19.3536 90.701 18.7137 89.2256 18.5538C87.2396 17.3246 87.5503 15.6933 89.3244 14.6902C88.524 14.4327 87.9715 15.0025 87.4309 15.104C86.5081 14.3743 85.0297 14.3315 84.6625 12.9149C86.7413 10.5147 82.3062 10.3862 81.5448 8.60669C79.5528 7.61168 78.5611 9.57471 77.0887 9.29772C76.0016 9.73487 73.454 9.42674 73.2867 10.7107C73.2178 13.4034 75.1739 15.8034 77.2763 17.7389C79.0624 16.2675 81.592 17.2781 81.5115 15.1669C82.9868 15.3268 84.6116 14.9052 85.8062 15.5256L85.6628 15.873C84.041 16.1775 84.6621 18.1872 85.1728 19.2565C86.0866 20.3374 87.3231 19.3188 88.3863 19.8182C88.5147 20.0563 88.7775 20.2982 88.6341 20.6456C86.7077 22.3472 85.4056 20.6692 83.8019 20.2712C83.4881 22.0196 86.5912 21.6408 86.1371 23.6195C85.9968 23.8497 85.731 23.7248 85.4622 23.7171C85.1964 23.5922 85.4741 23.2488 85.4801 23.0146C84.0257 22.0352 82.6398 23.6353 81.4632 22.3124C80.1432 21.3369 77.9004 19.6316 78.4739 18.2422C76.1233 20.7517 75.8489 15.7058 73.5402 16.5762C71.1806 19.4369 77.9064 19.3974 75.8395 21.3293C75.0272 21.5401 73.958 21.2748 73.8505 20.2172C73.4384 20.5568 72.7694 20.4202 72.8888 21.0095C74.624 21.5284 73.7427 24.432 74.2504 25.6183C75.421 27.1754 72.1506 28.838 74.1276 30.4184C71.2873 31.0391 75.6925 32.3384 74.444 33.8253C75.8774 35.6243 78.4669 34.2934 79.8198 33.9811C80.859 35.4172 78.7267 34.6524 78.1711 35.3393C77.3408 36.2525 78.5324 36.99 77.9708 37.9111C80.6378 38.8085 76.9612 40.5766 80.0403 41.1344C79.201 42.3989 81.0706 42.9217 80.3687 44.073C79.4249 44.1628 78.3378 44.6 77.1282 44.5649C76.701 45.4899 76.5397 46.5397 76.9159 47.605C78.5047 48.5884 79.6394 51.5503 82.2259 50.3365C82.3513 50.6916 82.7485 50.9374 82.4737 51.1638C80.5593 52.3971 79.2512 50.9533 77.7848 50.4421C77.4951 51.2539 79.3407 52.7133 77.05 52.8813C77.1095 55.8121 75.0606 57.0415 73.7972 59.1138C75.0007 59.383 74.7859 57.2679 76.2522 57.779C76.6255 58.9614 75.6548 60.1049 76.9688 61.3146C76.8014 62.5986 74.8959 63.4807 74.9944 64.8895L75.8097 64.5616C78.0376 66.8523 77.6048 62.739 80.1284 63.9838C82.1264 64.7446 79.5489 65.6073 79.7997 66.3175C80.0625 66.5595 80.3373 66.3331 80.7465 66.1106L83.488 69.3535C81.9886 70.1302 81.4001 72.1049 81.4956 73.6308L80.5608 73.3694C79.7515 73.4631 77.4547 73.8652 78.3656 75.0632C79.5871 74.6299 81.4717 74.5674 81.9973 75.0513C83.0275 76.8386 86.1127 77.1623 87.8838 76.2763C88.245 77.927 90.8375 76.479 90.7956 78.1181C89.574 78.5513 88.3495 79.1017 88.448 80.5105C88.3761 83.3203 91.2643 80.8264 92.8561 81.6927C96.0906 81.4349 97.4551 85.9266 100.729 84.1469C101.633 85.579 99.1903 86.4456 100.501 87.7723C101.167 88.026 101.857 87.343 102.67 87.1322C103.491 86.5702 103.252 85.3916 102.464 84.6658L104.787 83.21C103.874 82.1291 102.768 83.2687 101.705 82.7692C101.168 82.7536 100.779 82.1566 101.06 81.6961C102.56 80.9193 102.969 80.6969 104.331 80.0334C104.181 80.6148 103.763 81.1885 103.883 81.7778C105.086 82.047 106.582 81.3874 107.413 80.4741C108.757 80.5131 109.533 81.7072 110.892 81.1608C111.152 81.5198 111.415 81.7617 111.14 81.9881C110.319 82.5501 109.509 82.6438 108.443 82.2614L107.867 83.7679C107.989 84.2401 108.521 84.4898 109.049 84.8566C108.069 86.3513 111.357 89.2585 107.726 89.2704C108.386 89.7582 109.198 89.5474 109.855 90.1523C109.58 90.3786 109.834 90.9718 109.294 91.0733C108.201 91.7446 107.089 93.1184 106.053 91.5652C105.378 91.6629 105.366 92.1312 105.088 92.4746C106.668 93.8092 107.2 94.0589 109.237 93.2978C109.458 95.1788 106.355 95.5575 106.973 97.6844C107.764 98.2931 108.326 97.3721 109.126 97.6296C110.446 98.6051 108.29 98.777 108.938 99.7331L111.342 100.389L111.055 101.083C108.388 100.186 107.788 102.629 105.622 103.152C105.037 99.7372 99.7538 101.224 99.6972 98.1766C100.25 97.6067 100.904 98.3287 101.576 98.3481C102.394 97.9032 103.478 97.5831 103.768 96.7714C101.507 95.7686 104.082 95.023 103.709 93.8406L103.308 93.7118C102.197 95.0856 99.7751 95.1326 100.931 97.275C100.402 96.9082 99.2046 96.4048 99.4914 95.7102C102.23 93.7977 97.1141 94.001 97.6996 92.1434L99.7246 91.8505C101.215 91.4251 100.301 90.3441 100.86 89.5402C99.6351 90.0905 97.3713 89.2048 97.0576 90.9531C96.6604 90.7073 96.1198 90.8088 95.9974 90.3366C98.1627 89.8135 98.6198 87.7178 99.0619 86.2075C97.2313 84.1627 96.4784 87.3043 95.2539 87.8546C92.8527 87.0821 94.6714 89.5952 92.9183 89.7787C89.1402 90.2551 91.0483 94.5282 89.7968 96.1323C88.7396 95.3987 87.6136 97.3578 86.9805 95.8163C87.1329 95.1178 87.551 94.5441 88.5008 94.2201C87.7064 93.7284 87.4615 92.784 86.6612 92.5265C85.5411 94.2515 82.8262 95.2273 83.3069 97.4673C81.8435 96.8391 80.9267 95.8753 80.9626 94.4703C80.422 94.5718 80.1413 95.0324 79.7291 95.3719C79.8575 95.61 79.9859 95.848 80.5205 95.9807L79.1017 98.8686C80.5112 101.604 81.8255 97.5416 83.5098 100.051C84.7254 99.8517 84.7493 98.9151 85.0421 97.9863C85.9978 97.4281 87.3388 97.5842 87.9958 98.189C86.7653 98.9735 88.5094 99.1412 88.6169 100.199C88.4525 101.366 86.9742 101.323 86.1498 102.002L86.6694 102.72C86.1229 103.056 85.9615 104.105 85.0297 103.727L83.8531 102.404C82.8854 103.43 84.3637 103.473 84.2024 104.523C82.5896 104.476 80.8634 103.606 79.9406 102.876C76.8169 98.8024 77.3482 104.324 74.6513 104.598C73.9853 104.344 73.3343 103.505 72.6413 104.305C73.4297 105.031 74.4959 105.413 75.2783 106.373C75.8635 109.788 79.0474 106.248 81.1738 107.247C82.3205 109.741 85.6239 106.79 85.9642 109.261L88.3623 110.15C89.4824 108.425 92.9588 109.229 91.9495 106.622C99.12 110.228 85.0144 109.585 89.4462 115.103C90.7632 116.195 91.8832 114.47 93.0868 114.739C92.9884 113.331 94.2219 112.429 93.7202 111.008C94.0729 107.738 97.9105 110.193 99.3083 108.124C101.465 107.952 103.902 107.32 105.661 106.902C106.844 107.991 107.943 107.086 108.874 107.464C107.512 108.128 107.868 110.012 109.194 110.754C110.463 108.447 113.778 110.301 115.794 110.359L116.081 109.665C113.925 109.836 114.525 107.393 112.506 107.452C111.87 106.028 113.375 105.017 113.812 103.741C112.611 103.354 112.91 102.191 113.196 101.497C115.233 100.736 115.866 102.277 117.461 103.026C118.286 102.347 117.772 101.395 117.79 100.693C118.578 101.418 118.975 101.664 120.188 101.582C120.045 101.929 119.635 102.152 120.03 102.515C120.567 102.53 121.356 103.256 121.911 102.569C121.917 102.335 122.198 101.875 122.07 101.637C120.331 101.235 121.974 100.111 121.992 99.4083L121.057 99.1469L121.045 99.6152C120.499 99.9509 120.102 99.705 119.567 99.5724C120.152 97.7147 121.55 95.6463 123.453 94.8813C124.364 96.0793 122.467 96.6102 122.306 97.66C122.966 98.1477 123.076 99.0882 124.154 99.0023C125.361 99.1544 127.099 99.5563 127.538 98.1631C128.204 98.4167 128.616 98.0771 129.148 98.3269C129.16 97.8586 129.181 97.039 129.202 96.2195C126.744 97.6714 126.021 94.3699 123.883 93.8393C124.597 92.2197 125.075 94.5768 126.29 94.3777C128.037 94.4283 126.466 92.7425 127.954 92.4341C128.476 93.0351 129.558 92.8321 130.083 93.3159C129.659 94.1238 129.118 94.2253 128.187 93.8468C127.909 94.1903 127.093 94.5181 127.619 95.002C132.093 93.6085 129.139 98.6781 132.242 98.2993C133.147 99.7315 134.978 101.776 134.392 103.634C135.59 104.137 136.805 103.938 138.009 104.207C139.505 103.548 139.673 102.264 139.699 101.21L141.166 101.721C142.791 101.3 144.03 100.164 143.935 98.6381C145.249 99.8478 146.509 97.8926 147.336 97.0964C149.2 97.8534 147.68 99.4496 147.793 100.273C150.344 100.464 151.491 97.6854 153.121 97.0297L154.044 97.7594C152.805 98.8951 153.695 100.913 151.81 100.975C152.572 102.755 148.549 102.287 150.535 103.516C150.806 103.407 151.078 103.297 151.09 102.829L153.617 103.957C154.328 102.454 156.78 101.236 154.531 99.7653C155.782 98.1612 157.452 101.256 159.106 99.6635C160.074 98.6371 159.841 97.2244 159.734 96.1668C160.687 95.7257 160.072 93.4818 161.792 94.5861C161.421 98.5589 166.731 96.0181 168.693 98.1838C170.492 96.2442 170.82 99.1827 172.564 99.3504C173.523 98.6752 175.404 98.7298 175.309 97.2039L178.077 99.393C177.567 98.3238 179.185 98.1363 179.341 97.3207C179.087 96.7275 178.687 96.5988 178.293 96.2358C178.711 95.6621 178.331 94.7139 179.278 94.507C180.894 94.4366 180.18 96.0562 181.118 96.2005C181.049 93.621 184.218 95.9389 185.732 94.5768C186.144 94.2372 186.566 93.5465 186.037 93.1797C185.087 93.5036 183.752 93.1135 183.322 94.1555C182.25 94.0072 181.605 92.9341 181.345 92.5751C182.145 92.8326 182.707 91.9116 183.642 92.173C183.534 91.1154 183.97 89.8392 183.179 89.2305C186.333 92.1338 187.283 86.5375 189.893 89.6593C189.991 91.0681 188.4 90.2019 187.716 90.6507L188.101 91.3649C190.039 89.1949 193.058 92.0943 195.068 92.3869C199.342 93.5652 197.04 88.9291 198.695 87.3368C201.681 86.2517 201.983 90.2439 205.077 90.2164C205.519 88.7061 208.98 90.0952 207.559 87.8279C208.936 86.579 208.873 89.0376 210.223 88.8424C211.292 89.1077 211.856 88.0696 211.337 87.3516L212.675 87.6246C212.43 86.6802 211.871 87.4842 211.337 87.3516C211.134 84.7681 208.523 86.9186 207.218 85.3576C206.143 85.3265 206.373 86.8563 205.05 85.9978C204.662 85.4007 204.283 84.4524 205.098 84.1246C204.569 83.7578 203.366 83.4886 204.196 82.5753L206.048 83.8006C206.753 82.5322 206.391 80.8815 206.159 79.4688C208.655 81.7672 212.308 80.9357 215.235 82.1921L214.804 83.2342L217.11 82.4808L218.14 84.2681C218.388 85.0954 217.83 85.8994 216.883 86.1063C217.008 86.4614 216.996 86.9297 217.668 86.9492C219.03 86.2857 220.915 86.2231 219.756 84.1978C221.238 84.1235 222.528 86.2698 224.009 86.1956L224.021 85.7273C223.08 85.7 222.713 84.2834 222.19 83.6825C221.656 83.5498 221.778 84.022 221.112 83.7684C220.357 81.7547 218.398 79.4719 217.777 77.4621C217.771 77.6963 218.308 77.7118 218.186 77.2396C217.391 76.748 215.674 75.5266 214.76 74.4457C216.938 73.4543 218.915 75.0347 219.545 76.6932C219.539 76.9273 219.004 76.7947 218.864 77.025C219.252 77.622 218.431 78.184 219.643 78.102C220.321 77.8873 219.661 77.3996 220.07 77.1771C220.33 77.5361 220.318 78.0044 220.44 78.4766C221.115 78.379 222.044 78.8746 222.597 78.3048C222.621 77.3681 223.182 76.4471 223.863 76.1153C223.353 75.0461 224.311 74.3709 224.467 73.5552C224.198 73.5475 224.344 73.083 224.076 73.0753C223.657 73.649 223.917 74.008 223.102 74.3358C223.496 74.6987 223.618 75.1709 223.335 75.7485C222.794 75.85 223.078 75.2725 222.675 75.2608C222.391 75.8384 221.716 75.936 221.172 76.1545C221.608 74.8784 221.107 73.4579 222.606 72.6812C222.093 71.729 222.92 70.9328 223.072 70.2343C222.803 70.2265 222.535 70.2187 222.397 70.3319C222.421 69.3953 222.439 68.6928 222.188 67.9826C223.129 68.0098 223.676 67.6742 224.357 67.3424C224.757 67.4712 224.61 67.9356 225.285 67.838C225.438 67.1394 224.763 67.237 225.05 66.5423C225.33 66.0818 225.722 66.5618 225.996 66.3355C226.002 66.1013 226.143 65.871 225.877 65.7462C225.465 66.0857 225.462 66.2028 224.796 65.9492C225.097 64.6691 225.528 63.6271 225.426 62.3354C225.707 61.8749 225.955 62.7022 226.098 62.3548L226.101 62.2378C226.101 62.2378 226.104 62.1207 226.107 62.0036C225.979 61.7656 225.71 61.7578 225.853 61.4105C226.522 61.547 226.009 60.5948 226.678 60.7314C227.188 61.8006 227.415 63.4475 228.057 64.6377C227.603 66.6163 228.603 69.5744 228.006 71.9003C228.266 72.2594 228.666 72.3881 228.788 72.8603C228.086 74.0116 227.507 75.6351 228.28 76.9463C228.277 77.0634 228.006 77.1727 227.871 77.1688C228.003 77.2897 228.137 77.2936 228.406 77.3014C228.403 77.4185 228.397 77.6527 228.259 77.7658C228.394 77.7697 228.394 77.7697 228.528 77.7736C228.785 78.2497 228.633 78.9483 228.223 79.1708C228.731 80.3571 229.119 80.9542 230.045 81.5668C230.054 81.2156 230.195 80.9853 230.072 80.5131C230.881 80.4194 231.303 79.7286 231.458 78.913C230.643 79.2408 230.52 78.7686 230.401 78.1794C230.804 78.191 231.207 78.2027 231.216 77.8515C230.422 77.3598 231.136 75.7402 229.929 75.5881C229.699 74.0583 229.604 72.5325 230.568 71.6231C228.582 70.3939 229.464 67.4904 229.404 64.5596C230.348 64.4698 229.921 65.3947 230.593 65.4142C230.608 64.8288 230.482 64.4737 230.363 63.8844C230.234 63.6463 230.103 63.5254 229.975 63.2873C229.709 63.1624 229.44 63.1547 229.309 63.0337C229.315 62.7995 229.324 62.4483 229.33 62.2142C226.218 57.6718 223.378 53.0202 220.95 48.029C224.038 48.2356 227.258 48.5632 230.48 48.7737C230.633 48.0752 230.516 47.3688 230.397 46.7796C230.806 46.5571 230.782 47.4937 231.066 46.9161C230.946 46.3268 230.827 45.7376 230.708 45.1483C230.436 45.2576 230.033 45.2459 230.027 45.48C225.732 45.1213 223.585 44.9419 219.553 44.8251C216.077 38.7491 213.837 31.6544 212.15 23.9899C212.84 23.3069 213.921 23.1039 214.48 22.3C211.538 21.6289 217.643 19.5797 218.969 20.3211C219.088 20.9104 218.291 20.5358 218.279 21.0041C218.548 21.0119 218.676 21.2499 218.942 21.3748C220.417 21.5347 219.644 20.2235 220.588 20.1337C221.26 20.1531 220.029 20.9376 220.698 21.0742C220.97 20.9649 221.11 20.7346 221.385 20.5083C220.997 19.9112 221.543 19.5755 221.018 19.0917C222.649 18.4359 225.131 16.0474 226.982 17.2727C226.988 17.0385 227.129 16.8083 227.266 16.6951C227.281 16.1097 226.89 15.6297 226.77 15.0405ZM224.919 13.8152C224.922 13.6981 224.925 13.581 224.928 13.4639C224.928 13.4639 224.925 13.581 224.79 13.5771C224.922 13.6981 224.919 13.8152 224.919 13.8152ZM229.668 91.0461C229.665 91.1632 229.528 91.2763 229.39 91.3895C229.776 92.1037 229.746 93.2744 228.93 93.6023C229.193 93.8442 229.731 93.8598 229.719 94.3281C229.438 94.7886 228.784 94.0667 228.641 94.414C229.441 94.6716 229.011 95.7136 229.683 95.733C230.358 95.6354 229.304 94.7847 229.979 94.6871C230.098 95.2764 230.495 95.5222 230.615 96.1115C230.208 96.2169 230.083 95.8618 229.943 96.092C230.465 96.693 230.994 97.0598 230.698 98.1057C230.967 98.1135 231.233 98.2384 231.361 98.4764C230.856 97.173 232.236 95.807 230.91 95.0656C230.785 94.7105 231.469 94.2617 230.937 94.0119C230.669 94.0041 230.922 94.5973 230.385 94.5817C230.262 94.1095 230.14 93.6373 230.017 93.1651C230.029 92.6968 230.54 93.7661 230.689 93.1846C230.307 92.3534 231.266 91.6782 230.612 90.9563C230.331 91.4168 230.985 92.1387 230.179 92.1153C229.785 91.7524 229.794 91.4012 229.668 91.0461ZM223.414 93.6768C223.417 93.5597 223.423 93.3256 223.563 93.0953C223.566 92.9782 223.435 92.8573 223.435 92.8573C222.763 92.8378 222.617 93.3022 221.813 93.1618C221.691 92.6896 221.565 92.3344 221.975 92.112C221.969 92.3461 221.963 92.5803 222.369 92.4749C222.781 92.1353 222.246 92.0027 222.396 91.4212C222.668 91.3119 222.802 91.3158 222.939 91.2026C222.557 90.3714 221.363 89.751 220.67 90.551C219.597 90.4028 220.571 89.1422 219.368 88.873L218.824 89.0916C219.188 90.6253 220.234 91.8272 220.75 92.6623C218.967 94.0166 220.105 91.5891 218.483 91.8936C217.907 93.4001 215.622 93.3339 214.556 92.9515C214.574 92.249 215.78 92.4012 215.933 91.7026C216.109 90.0674 214.353 90.368 213.565 89.6422C212.453 91.016 213.627 92.4559 213.066 93.377C213.06 93.6111 213.054 93.8453 213.319 93.9701C213.997 93.7554 214.147 93.174 214.938 93.7827C214.669 93.7749 214.401 93.7671 214.26 93.9974C215.204 93.9076 215.189 94.4929 215.712 95.0939C215.855 94.7466 215.455 94.6178 215.727 94.5085C216.378 95.3475 218.958 94.3678 218.128 95.2811C219.218 94.7268 219.06 95.6596 219.991 96.038C219.469 95.4371 220.675 95.5892 220.822 95.1248C220.831 94.7736 220.29 94.8751 220.436 94.4107C221.903 94.9218 222.865 94.1295 223.414 93.6768ZM211.862 93.1078C211.874 92.6395 212.295 91.9487 211.501 91.457C210.45 90.4893 209.542 89.1742 207.765 90.2943L209.562 93.6269C212.51 94.0638 209.616 96.7919 211.461 98.2513C211.596 98.2552 211.596 98.2552 211.73 98.2591C211.772 96.6201 211.683 94.86 211.321 93.2093C211.599 92.8658 211.731 92.9868 211.862 93.1078ZM215.633 103.41C214.961 103.391 214.573 102.794 214.319 102.201C214.051 102.193 213.916 102.189 213.644 102.298C213.895 103.008 214.277 103.84 213.985 104.768C214.913 105.264 215.851 105.408 216.786 105.67C216.658 105.432 216.664 105.198 216.941 104.854L217.079 104.741C217.085 104.507 216.953 104.386 217.094 104.156C216.419 104.253 216.022 104.007 215.624 103.761C215.63 103.527 215.63 103.527 215.633 103.41ZM230.247 105.24C229.855 104.76 229.464 104.28 228.93 104.147C228.792 104.26 228.658 104.256 228.517 104.486C228.64 104.959 229.467 104.163 229.721 104.756C229.3 105.446 228.777 104.846 228.099 105.06C228.093 105.294 228.499 105.189 228.765 105.314C228.762 105.431 228.494 105.423 228.356 105.536C228.747 106.016 229.572 105.337 230.372 105.595C230.244 105.357 230.244 105.357 230.247 105.24ZM231.77 103.526C231.767 103.643 231.901 103.647 231.898 103.764C231.901 103.647 231.901 103.647 231.77 103.526C231.904 103.53 232.039 103.534 232.039 103.534C232.179 103.304 232.188 102.953 232.325 102.839C232.194 102.718 232.063 102.597 232.066 102.48C231.931 102.476 231.931 102.476 231.797 102.473C232.057 102.832 231.379 103.046 231.77 103.526ZM233.521 92.9151C233.661 92.6849 233.667 92.4507 233.805 92.3376C233.814 91.9863 233.823 91.6351 233.831 91.2839C233.551 91.7444 233.398 92.4429 233.521 92.9151ZM229.848 84.0215C229.86 83.5532 230.269 83.3307 230.813 83.1121C230.547 82.9873 230.684 82.8741 230.009 82.9717C229.752 82.4956 229.764 82.0273 229.911 81.5629C228.97 81.5356 229.209 82.7142 228.531 82.9289C228.531 82.9289 228.531 82.9289 228.528 83.0459C229.328 83.3035 229.454 83.6586 229.848 84.0215ZM217.829 12.321C217.966 12.2078 218.235 12.2156 218.372 12.1024C218.232 12.3326 218.094 12.4458 217.823 12.5551C217.826 12.438 217.826 12.438 217.829 12.321ZM220.272 11.4544C220.678 11.3491 221.218 11.2476 221.619 11.3763C221.887 11.3841 221.744 11.7314 221.873 11.9695C221.466 12.0749 221.057 12.2973 220.785 12.4066C220.526 12.0476 220.263 11.8057 220.272 11.4544ZM218.243 17.1367C218.381 17.0235 218.65 17.0313 218.918 17.0391C218.778 17.2693 218.641 17.3825 218.372 17.3747C218.372 17.3747 218.24 17.2537 218.243 17.1367ZM230.205 12.2109C229.802 12.1992 229.399 12.1875 229.13 12.1798C229.408 11.8363 229.814 11.7309 230.345 11.9806C230.208 12.0938 230.205 12.2109 230.205 12.2109ZM233.206 21.0851C232.525 21.4168 231.447 21.5028 230.9 21.8384C231.701 22.0959 232.779 22.01 233.167 22.6071C233.301 22.611 233.301 22.611 233.439 22.4978C233.281 23.4305 232.988 24.3593 232.961 25.413C232.82 25.6433 232.417 25.6316 232.274 25.9789C232.002 26.0882 231.727 26.3146 231.321 26.42C230.395 25.8073 229.732 25.4366 230.162 24.3946C230.297 24.3985 230.425 24.6366 230.56 24.6405C230.688 24.8785 231.208 25.5965 230.939 25.5887C231.33 26.0687 232.139 25.975 232.157 25.2726C231.751 25.378 231.485 25.2531 231.494 24.9019C231.641 24.4375 232.026 25.1516 232.307 24.6911C232.044 24.4491 232.19 23.9847 231.928 23.7428C231.656 23.8521 231.518 23.9652 231.509 24.3165C231.112 24.0706 231.262 23.4892 230.727 23.3565C230.999 23.2472 232.077 23.1613 231.969 22.1037C231.163 22.0803 229.774 23.7976 229.273 22.3771C228.063 22.342 227.773 23.1538 227.221 23.7236C227.236 23.1382 226.573 22.7675 226.6 21.7138C225.931 21.5773 226.199 21.585 225.524 21.6827C225.121 21.671 225.408 20.9763 224.87 20.9607C225.414 20.7422 226.633 20.426 227.188 19.7391C227.983 20.2308 227.302 20.5625 227.558 21.0386C228.227 21.1752 228.236 20.8239 228.774 20.8395C228.926 20.1409 228.529 19.8951 228.547 19.1926C229.219 19.2121 229.341 19.6843 229.326 20.2697C230.67 20.3086 231.101 19.2666 232.301 19.6529C232.955 20.3748 233.081 20.73 233.206 21.0851ZM232.445 19.3056C232.313 19.1846 232.316 19.0675 232.322 18.8334C230.679 19.9574 231.686 17.409 230.733 17.85C230.745 17.3817 231.148 17.3934 230.895 16.8002C230.103 16.1915 229.557 16.5271 228.762 16.0355C228.511 15.3252 227.848 14.9545 228.147 13.7915C229.632 13.6002 229.33 14.8803 229.44 15.8208C230.247 15.8441 230.629 16.6754 231.716 16.2382C232.113 16.4841 231.549 17.5222 231.946 17.768C232.209 18.0099 232.486 17.6665 233.021 17.7991C233.018 17.9162 233.015 18.0333 233.012 18.1504C232.878 18.1465 232.878 18.1465 232.743 18.1426C232.878 18.1465 232.875 18.2636 233.009 18.2675C233 18.6187 232.591 18.8412 232.445 19.3056ZM228.762 16.0355C228.616 16.4999 227.944 16.4804 227.535 16.7029C227.541 16.4687 227.547 16.2346 227.553 16.0004C227.959 15.895 228.353 16.2579 228.762 16.0355ZM231.385 92.2675C231.269 91.5611 231.807 91.5767 232.081 91.3503C231.938 91.6977 232.189 92.4079 231.92 92.4001C231.789 92.2791 231.52 92.2714 231.385 92.2675ZM224.389 71.3269C224.515 71.682 224.777 71.924 224.631 72.3884C224.362 72.3806 224.356 72.6147 224.087 72.6069C224.099 72.1386 223.843 71.6626 224.389 71.3269ZM224.676 70.6322C224.945 70.64 225.082 70.5268 225.351 70.5346C225.345 70.7688 225.339 71.0029 225.333 71.2371C224.792 71.3386 224.939 70.8742 224.676 70.6322ZM231.035 69.1762C231.023 69.6445 231.698 69.5469 231.414 70.1245C230.733 70.4562 230.625 69.3986 231.035 69.1762ZM230.584 65.7654C231.247 66.1361 231.742 67.7907 230.918 68.4698C230.67 67.6425 230.16 66.5732 230.584 65.7654ZM226.621 62.9558C227.699 62.8699 226.973 64.9578 226.833 65.188C226.71 64.7158 226.875 63.549 226.621 62.9558ZM230.298 13.8538C230.829 14.1036 230.952 14.5758 231.37 14.0021C231.352 14.7045 232.278 15.3172 231.062 15.5163C230.805 15.0402 229.739 14.6578 230.298 13.8538ZM196.721 80.367C197.527 80.3903 196.858 80.2538 197.005 79.7894C197.817 79.5786 197.255 80.4996 198.065 80.4059C198.477 80.0663 197.939 80.0508 198.089 79.4693C196.736 79.7816 197.96 79.2312 196.888 79.083C196.742 79.5474 196.733 79.8986 196.721 80.367ZM225.193 60.9227C226.134 60.9499 225.358 59.7558 224.545 59.9666C224.668 60.4388 225.343 60.3412 225.193 60.9227ZM217.143 44.4038C216.91 42.9911 215.891 40.7355 214.849 39.4165C214.351 37.8789 214.127 36.115 212.941 35.1433C213.24 33.9803 212.744 32.3257 211.821 31.596C211.514 33.1102 212.514 36.0682 213.55 37.6214C213.631 39.7326 215.249 44.8175 217.143 44.4038ZM210.319 27.2174C210.863 26.9988 210.346 26.1637 210.218 25.9257C209.4 26.3706 210.331 26.7491 210.319 27.2174ZM212.168 23.2874C212.58 22.9479 213.518 23.0922 213.405 22.2688C212.598 22.2454 211.911 22.8114 212.168 23.2874ZM211.44 20.2201C212.112 20.2396 212.393 19.7791 212.936 19.5605C212.688 18.7332 212.443 17.7888 211.786 17.1839C211.936 16.6024 212.874 16.7468 213.023 16.1653C213.032 15.814 212.491 15.9155 212.638 15.4511C211.96 15.6658 211.557 15.6541 211.016 15.7556C210.971 17.5118 211.344 18.6942 211.44 20.2201ZM205.491 16.1814C205.775 15.6038 204.162 15.557 204.416 16.1502C204.547 16.2712 205.479 16.6497 205.491 16.1814ZM199.112 13.1846C199.527 12.728 200.333 12.7514 200.617 12.1738C199.942 12.2714 199.542 12.1426 198.726 12.4705C198.855 12.7085 198.983 12.9466 199.112 13.1846ZM210.485 10.2336C210.219 10.1087 210.088 9.98774 209.959 9.7497C210.094 9.75359 210.362 9.76138 210.497 9.76527C210.625 10.0033 210.622 10.1204 210.485 10.2336ZM199.826 6.2927C200.495 6.42925 200.638 6.08191 201.044 5.97651C200.919 5.62139 199.703 5.8205 199.826 6.2927ZM231.732 89.2313C231.601 89.1103 231.604 88.9932 231.607 88.8761C231.738 88.9971 231.735 89.1142 231.732 89.2313ZM222.911 113.346C222.944 112.058 223.894 111.734 223.789 110.559C224.327 110.575 224.59 110.817 225.262 110.836C226.086 110.157 225.566 109.439 226.791 108.889C225.94 110.621 225.578 114.243 222.911 113.346ZM227.15 105.384C227.55 105.513 227.254 106.559 226.866 105.962C227 105.966 227.135 105.97 227.141 105.735C226.609 105.486 226.191 106.059 226.065 105.704C226.606 105.603 226.749 105.255 227.15 105.384ZM223.001 104.561C222.989 105.029 222.586 105.018 222.18 105.123C221.917 104.881 221.514 104.869 221.388 104.514C222.198 104.421 222.323 104.776 223.001 104.561ZM224.208 104.713C224.214 104.479 223.945 104.471 223.542 104.459C223.437 103.285 225.561 104.401 224.742 104.846C224.745 104.729 224.614 104.608 224.345 104.6C224.339 104.834 224.064 105.06 223.936 104.822C224.067 104.943 224.205 104.83 224.208 104.713ZM221.893 100.545C222.165 100.436 222.437 100.327 222.975 100.342C223.076 101.634 224.169 100.963 224.967 101.337C224.985 100.635 224.868 99.9286 225.806 100.073C225.645 101.123 225.244 100.994 224.958 101.689C223.623 101.298 223.073 101.751 222.255 102.196C222.416 101.146 222.819 101.158 221.893 100.545ZM220.015 100.374C219.74 100.6 219.194 100.936 218.94 100.343C219.743 100.483 219.648 98.9572 220.173 99.441C219.761 99.7806 220.66 101.447 219.728 101.068C220.131 101.08 220.009 100.608 220.015 100.374ZM228.443 96.8687C228.297 97.3332 229.387 96.7789 229.241 97.2433C228.7 97.3448 229.62 98.1916 228.545 98.1605C228.963 97.5868 228.034 97.0912 228.443 96.8687ZM231.23 87.8108C231.365 87.8147 231.365 87.8147 231.499 87.8186C231.496 87.9356 231.628 88.0566 231.625 88.1737C231.49 88.1698 231.221 88.162 231.087 88.1581C231.09 88.041 231.093 87.924 231.23 87.8108ZM226.903 83.4675C226.781 82.9953 227.184 83.007 227.061 82.5348C227.327 82.6597 227.462 82.6636 227.459 82.7806C227.721 83.0226 227.712 83.3738 227.841 83.6119C227.712 83.3738 227.306 83.4792 226.903 83.4675ZM223.209 80.6657C222.406 80.5253 222.002 80.5136 221.193 80.6073C221.749 79.9205 222.827 79.8345 223.209 80.6657ZM224.683 59.8534C224.969 59.1587 224.059 57.9607 223.264 57.4691C223.372 58.5266 224.303 58.9051 224.683 59.8534ZM211.049 14.4678C211.195 14.0034 211.999 14.1438 212.148 13.5623C211.879 13.5545 211.745 13.5506 211.739 13.7848C211.067 13.7653 211.631 12.7272 210.688 12.817C211.339 13.6561 210.643 14.5732 211.022 15.5215C211.569 15.1858 212.25 14.8541 212.93 14.5223C212.539 14.0423 211.455 14.3624 211.049 14.4678ZM220.323 9.46415C220.188 9.46025 220.051 9.57343 219.916 9.56954C220.054 9.45636 220.188 9.46025 220.323 9.46415ZM208.359 3.96234L209.165 3.9857C208.896 3.97791 208.356 4.07941 207.95 4.1848C208.087 4.07162 208.224 3.95844 208.359 3.96234ZM241.04 19.7889C241.034 20.0231 240.894 20.2533 241.025 20.3743C241.025 20.3743 241.159 20.3782 241.294 20.3821C241.3 20.1479 241.306 19.9138 241.04 19.7889ZM206.853 4.97319C206.722 4.85222 206.187 4.71956 206.178 5.07079C206.444 5.19566 206.71 5.32052 206.853 4.97319Z" fill="#E8AA64"/>
</svg>
