<svg width="283" height="153" viewBox="0 0 283 153" fill="none" xmlns="http://www.w3.org/2000/svg">
<path fill-rule="evenodd" clip-rule="evenodd" d="M1.89655 86.7342C2.24137 85.8264 0.862082 85.8264 0.344846 85.3076C-0.172391 86.4748 0.172412 87.6421 0 88.8093C1.03447 88.8093 2.06896 87.6421 1.89655 86.7342ZM282.066 6.84342C281.032 6.58403 280.342 7.10281 280.515 7.75127L282.584 7.88096C282.756 7.49188 282.929 7.10281 282.411 6.71373L282.066 6.84342ZM278.618 6.19496L279.825 5.67618C279.308 5.67618 278.963 5.4168 278.618 5.54649C278.446 5.80588 278.273 6.06526 278.618 6.19496ZM279.48 13.5874C278.273 13.8468 278.273 14.3656 278.618 15.0141C279.825 15.9219 281.204 15.2735 282.584 15.5328C283.618 13.8468 280.17 14.4953 279.48 13.5874ZM274.48 7.62158L275.687 4.11987L275.17 3.99018C273.963 4.76833 272.584 5.54649 271.894 6.58403C272.411 7.36219 273.273 7.88096 274.48 7.62158ZM277.411 16.311C278.273 16.311 279.135 16.311 278.963 15.6625C278.446 15.7922 277.411 15.5328 277.411 16.311ZM278.963 17.8673C278.446 18.3861 278.273 18.7752 278.963 19.2939C280.86 20.2018 280.342 18.2564 280.86 17.7376C280.17 17.4782 279.135 17.3485 278.963 17.8673ZM268.963 7.75127C268.618 8.14035 268.791 9.0482 269.653 8.65912C269.653 8.27004 270.17 8.01066 269.653 7.62158C269.48 7.75127 269.136 7.62158 268.963 7.75127ZM263.101 2.43386C263.274 2.43386 263.274 2.56356 263.274 2.56356C263.446 6.06526 265.17 1.00724 267.067 2.43386L267.239 2.04479C265.86 2.17448 264.48 2.30417 263.101 2.43386ZM281.204 23.3144C281.032 23.3144 280.687 23.1847 280.687 22.9253L279.825 23.3144C279.135 23.5738 277.929 23.9629 278.791 24.6113C279.825 24.6113 281.377 24.352 281.204 23.3144ZM257.412 3.08233C257.756 3.86049 258.791 4.50895 259.308 5.02772L259.48 4.63864C258.791 4.24956 258.791 3.47141 258.618 3.08233C258.618 3.21202 258.446 3.21202 258.446 3.34171C258.101 3.21202 257.756 3.21202 257.412 3.08233ZM265.687 15.6625L266.377 14.4953L265.86 14.3656C265.515 14.8844 264.998 15.1438 265.687 15.6625ZM262.929 12.6796H264.48C263.963 11.9014 264.308 11.1233 265.17 10.6045C264.825 10.3451 264.825 9.69666 264.136 9.82636C264.308 10.8639 262.067 11.3827 262.929 12.6796ZM269.48 25.0004H270.687L270.342 24.6113L269.48 25.0004ZM278.618 34.468C278.618 34.9868 277.066 34.8571 277.584 35.7649L279.135 36.0243L279.653 34.9868C279.653 34.468 278.963 34.5977 278.618 34.468ZM278.101 39.9151L279.135 40.1745L279.48 39.3963L278.963 39.2666C278.618 39.3963 278.273 39.6557 278.101 39.9151ZM259.998 10.2154C260.17 9.69666 261.722 9.0482 260.515 8.27004C258.446 8.27004 257.756 9.82636 257.067 10.8639C258.791 11.7717 256.377 12.939 257.756 13.7171C259.136 13.3281 258.274 12.1608 258.446 11.3827C258.791 10.8639 258.963 9.95605 259.998 10.2154ZM252.584 7.2325L254.136 3.86049C252.756 3.6011 253.446 5.93557 251.377 5.02772C251.205 5.80588 250.86 7.2325 252.584 7.2325ZM275.86 12.6796C276.549 12.5499 278.101 13.8468 278.446 12.5499C276.549 11.3827 275.515 9.56697 273.101 9.17789C272.411 10.2154 269.48 9.69666 269.825 11.3827L271.205 11.6421C271.549 12.939 269.825 11.7717 269.825 12.8093C269.998 13.1984 270.515 13.0687 270.86 13.1984C271.032 15.4031 267.756 13.1984 268.273 15.5328C268.963 16.1813 269.998 15.5328 270.86 15.6625C271.549 16.311 271.549 17.0892 271.205 17.8673C269.308 17.3485 268.101 19.0345 266.894 19.2939C266.032 18.6455 267.239 18.5158 267.411 17.997C266.549 16.4407 265.342 18.7752 263.963 17.6079L264.136 16.4407L263.618 16.311C261.377 16.9595 262.239 18.5158 260.687 19.5533C263.446 18.5158 263.618 21.6284 265.86 21.6284L266.032 20.8502C267.067 19.4236 268.273 21.4987 269.825 21.369C272.411 20.9799 271.032 19.2939 273.618 18.6455C274.48 18.7752 274.48 20.3315 275.687 19.2939C271.204 16.311 278.618 15.4031 275.86 12.6796ZM260.343 21.369C260.86 20.9799 260.17 20.5909 259.998 20.3315C259.48 20.2018 259.308 20.4612 258.963 20.4612C259.308 20.5909 258.963 20.8502 258.963 20.9799L260.343 21.369ZM274.653 41.4714C272.756 41.4714 273.618 43.6762 275.17 43.2871C275.86 42.5089 275.342 41.6011 274.653 41.4714ZM281.377 61.3144C281.377 61.4441 281.204 61.7035 281.377 61.8332L282.239 61.4441L282.066 61.3144C281.894 61.3144 281.722 61.1847 281.377 61.3144ZM256.722 23.1847C257.411 22.2769 255.86 21.2393 255.687 20.7206C253.618 20.4612 252.067 22.1472 251.722 23.5738C253.274 24.6113 254.825 22.4066 256.722 23.1847ZM254.998 27.0755C255.17 26.5567 256.894 26.427 255.86 25.6489C254.308 26.2973 254.653 27.3349 253.963 28.5021C254.308 29.1506 255.343 29.9287 256.205 29.2803L256.377 29.0209C258.963 30.3178 259.653 27.8537 262.067 28.3724C263.274 27.5943 263.446 26.1677 262.411 25.2598C258.446 23.055 258.274 28.3724 254.998 27.0755ZM259.825 32.782C257.239 31.2257 257.756 33.8195 256.377 34.468L260.86 33.8195C261.377 33.3008 262.411 32.3929 261.205 31.8741C260.343 31.4851 260.343 32.3929 259.825 32.782ZM258.446 39.2666C258.101 40.0448 259.653 40.5636 260.343 40.0448C260.343 39.7854 260.515 39.6557 260.17 39.526C259.653 39.1369 259.308 38.6182 258.446 39.2666ZM253.791 36.4134C254.308 37.0619 255.343 38.7479 256.032 39.0072C255.515 37.84 255.687 35.7649 257.756 35.7649L257.584 35.5055C257.239 35.3758 256.549 35.2462 256.205 35.5055L254.653 34.2086L253.618 34.7274L254.653 35.7649C254.481 35.8946 254.308 36.4134 253.791 36.4134ZM270.86 62.352C270.86 62.6113 270.687 62.741 270.86 63.0004L271.722 62.352C271.377 62.352 271.032 62.0926 270.86 62.352ZM262.756 53.2735C262.239 54.1813 263.791 55.8673 264.825 55.0892C264.825 54.4407 264.998 53.7922 264.308 53.2735C263.963 53.2735 263.274 53.0141 262.756 53.2735ZM257.756 51.3281C255.687 51.8468 258.101 53.0141 257.756 53.9219L259.825 53.0141L259.48 52.625C259.136 52.4953 259.136 51.1984 257.756 51.3281ZM261.032 59.6284C261.032 59.1096 261.549 58.5909 261.205 58.0721C259.48 56.7752 259.136 55.3485 256.549 55.3485L255.687 57.683C257.584 57.9424 258.446 60.1472 261.032 59.6284ZM273.791 82.195L274.998 81.6762L273.446 81.2871C273.101 81.6762 273.446 81.9356 273.791 82.195ZM274.998 86.0857C274.998 86.3451 274.653 86.6045 274.998 86.9936C276.032 87.1233 276.377 86.8639 276.549 85.956C276.032 85.8264 275.515 85.567 274.998 86.0857ZM272.067 84.0107C271.549 84.6591 272.929 85.1779 273.618 84.9185C273.963 84.6591 273.618 84.3997 273.446 84.1404C272.929 84.1404 272.239 83.7513 272.067 84.0107ZM268.791 72.0789C267.756 71.1711 266.377 72.0789 265.17 72.0789C265.17 73.1165 262.756 73.6352 264.136 74.8025C264.825 75.5806 266.722 76.4885 267.756 75.4509C267.929 74.2837 270.342 73.5055 268.791 72.0789ZM257.756 68.9663C257.756 69.096 257.584 69.3554 257.929 69.4851L258.963 68.9663L258.618 68.4475L257.756 68.9663ZM268.101 83.4919C268.101 83.7513 267.929 83.881 268.273 84.0107L269.136 83.7513L268.963 83.6216C268.791 83.4919 268.273 83.3622 268.101 83.4919ZM257.412 72.5977C256.894 73.5055 258.101 74.4134 257.929 75.3212L260.343 75.1915C260.17 74.8025 260.687 74.5431 260.343 74.2837C260.515 73.1165 258.618 72.7274 257.412 72.5977ZM248.446 71.0414L248.101 71.1711C248.101 71.6898 247.756 72.0789 247.929 72.468C248.619 72.5977 249.136 71.4305 248.446 71.0414ZM260.343 89.0687C259.825 89.4578 260.515 89.7171 260.687 90.1062L262.067 89.3281C261.377 88.939 261.205 88.5499 260.343 89.0687ZM251.377 76.2291C251.032 76.4885 249.998 76.4885 250.343 77.0072L251.894 76.6182C251.894 76.3588 251.722 76.3588 251.377 76.2291ZM242.584 64.9458L243.274 63.2598C241.377 63.3895 239.998 61.3144 238.101 62.6113L238.619 63.2598C240.688 62.352 240.86 64.8161 242.584 64.9458ZM248.791 68.4475C247.929 66.2427 245.86 65.0755 244.653 63.1301L244.998 65.5943C243.963 66.5021 242.584 65.724 241.722 66.3724C240.86 67.0209 241.205 67.9287 241.377 68.5772C240.17 68.9663 240.515 70.5226 238.963 70.1335C238.619 70.6523 238.963 71.1711 238.963 71.5601C241.032 71.0414 242.067 72.2086 244.136 72.2086C246.032 71.4305 249.308 70.6523 248.791 68.4475ZM254.653 93.2189L255.343 92.7001L254.308 92.4407C254.136 92.7001 254.481 92.9595 254.653 93.2189ZM260.343 103.205C259.308 104.762 262.067 104.632 263.101 104.243C263.101 103.854 263.446 103.465 262.929 103.076C261.894 102.686 261.205 102.686 260.343 103.205ZM240.343 77.0072C239.481 76.6182 238.101 76.0994 237.239 76.6182L237.067 77.0072C240.86 77.6557 236.894 81.2871 240.86 81.2871C238.963 80.2496 240.86 78.3042 240.343 77.0072ZM233.791 75.3212C232.929 75.9697 233.619 76.2291 234.481 76.4885L234.653 75.7103C234.481 75.5806 234.308 75.3212 233.791 75.3212ZM235.343 80.2496L235.86 79.4714L234.998 79.8605L235.343 80.2496ZM242.412 87.3827C240.343 88.8093 242.067 92.311 244.825 91.6625C246.032 90.4953 247.412 89.0687 246.205 87.253C244.998 86.3451 243.274 86.2154 242.412 87.3827ZM232.239 85.956C231.205 85.567 229.998 85.9561 228.964 86.0857C228.274 86.7342 228.101 87.7717 228.791 88.4202C229.826 88.6796 230.515 89.7171 231.55 89.0687C232.929 88.2905 233.101 87.1233 232.239 85.956ZM229.136 96.3315L230.515 96.5909C231.377 96.2018 230.688 95.5533 230.86 94.9049C229.481 94.9049 228.791 93.3485 227.412 93.997C226.895 95.0346 226.377 96.5909 227.757 97.6284C229.481 98.1472 228.446 96.9799 229.136 96.3315ZM219.481 99.055C219.826 97.8878 220.515 96.9799 221.033 96.0721C220.515 95.683 220.515 94.9049 219.653 94.9049C219.481 96.4612 215.86 98.4066 219.481 99.055ZM251.722 142.113C252.929 142.243 254.308 141.335 253.963 140.297L252.412 139.908C250.687 139.908 252.412 141.335 251.722 142.113ZM221.033 99.9629C220.688 100.871 220.515 101.649 221.033 102.427C222.239 103.205 223.619 104.113 225.343 103.594C226.377 103.076 225.86 102.297 226.032 101.389C225.86 99.1847 222.929 98.9253 221.033 99.9629ZM215.515 99.8332C215.515 100.093 215.343 100.222 215.688 100.352L216.722 99.8332L216.55 99.7035C216.205 99.5738 215.86 99.7035 215.515 99.8332ZM226.722 106.966C225.688 105.669 224.136 105.021 222.067 104.502C220.343 104.762 221.55 105.929 221.033 106.707C222.239 108.004 222.067 110.468 224.481 110.598C224.481 109.69 225.515 109.041 226.377 109.171C226.55 108.393 227.412 107.744 226.722 106.966ZM239.308 129.533C238.963 129.792 238.446 130.7 239.136 131.089C240.17 132.127 241.377 133.553 243.274 131.997C243.791 131.349 244.998 130.052 243.619 129.273C242.412 128.755 240.688 128.625 239.308 129.533ZM231.55 123.308C231.032 123.697 230.86 124.345 231.55 124.734C232.584 124.734 233.101 124.345 233.274 123.437C232.757 123.437 232.067 122.789 231.55 123.308ZM225.17 121.233L225.515 121.622L226.205 121.362L225.86 120.973L225.17 121.233ZM208.102 105.021C207.757 104.762 207.412 105.021 207.067 105.151C207.067 105.669 206.377 106.318 206.895 106.707C208.446 107.096 207.929 105.669 208.102 105.021ZM213.274 113.71C212.757 113.581 212.24 113.451 211.722 113.71C211.722 113.97 211.55 114.099 211.895 114.229C212.584 114.748 213.446 114.488 213.274 113.71ZM212.929 115.396C212.757 116.564 209.136 115.785 211.377 117.471C212.757 117.99 213.791 116.823 214.136 115.915C214.136 115.526 213.619 115.526 212.929 115.396ZM209.136 112.154C208.791 113.451 206.378 113.97 207.24 115.396C209.481 116.304 209.826 114.488 210.515 113.451C210.515 112.932 209.998 112.154 209.136 112.154ZM229.998 150.673C229.308 151.192 228.964 151.84 228.964 152.618H229.998C230.86 151.97 232.067 151.581 233.274 151.192C233.101 150.932 232.929 150.802 232.584 150.543C231.722 150.284 230.86 150.284 229.998 150.673ZM189.309 105.929L188.447 105.669L187.929 106.707C188.964 107.096 189.309 106.188 189.309 105.929ZM192.929 122.14C192.929 121.881 192.585 121.881 192.412 121.751C192.067 121.881 191.55 122.011 191.722 122.27C192.067 122.789 192.757 122.659 192.929 122.14ZM193.447 124.345C193.102 124.734 193.791 124.994 193.964 125.383L195.516 124.734L195.171 124.215C194.481 124.086 193.964 123.956 193.447 124.345ZM208.619 134.461C206.895 136.017 204.481 136.925 203.446 138.741C206.722 137.963 211.55 139.26 213.102 140.946C213.102 140.946 213.102 140.946 213.274 140.946C213.446 140.038 213.274 138.871 215.343 138.611C215.343 138.482 215.515 138.352 215.515 138.352C214.136 137.703 213.619 136.536 212.929 135.499C214.136 135.758 215.171 135.758 216.377 135.888C216.205 135.369 215.86 134.98 214.998 134.591C213.102 133.553 210.688 133.683 208.619 134.461ZM193.102 119.936C196.55 117.99 199.481 115.396 199.653 111.895C203.619 111.895 201.378 108.652 200.171 107.485C198.964 107.744 198.791 108.523 197.929 109.041C195.516 108.782 196.033 107.096 194.136 106.188C191.033 105.021 189.481 108.004 186.378 108.134C184.998 107.485 183.274 108.263 183.447 109.301C178.964 109.171 184.136 111.246 181.378 112.673C177.24 115.137 181.895 117.731 181.723 120.325C186.378 121.622 189.136 120.584 193.102 119.936ZM187.412 122.919L186.378 123.048C184.481 123.308 183.964 126.031 186.55 125.642C188.102 125.253 188.102 123.697 187.412 122.919ZM178.964 119.676L179.654 120.454L180.516 120.065C179.826 120.195 179.826 118.898 178.964 119.676ZM188.102 127.977C184.998 129.533 188.447 132.256 191.033 131.478C191.722 131.219 192.929 131.089 192.757 130.181C192.929 129.273 192.24 129.273 191.722 128.495C190.688 128.625 189.481 126.939 188.102 127.977ZM180.171 123.308C179.654 123.956 178.964 125.123 179.654 125.901L181.378 126.161L181.895 124.734C181.205 124.215 181.723 123.178 180.171 123.308ZM167.412 110.598L166.378 110.209C165.688 110.468 164.999 110.987 165.343 111.765C166.55 112.413 167.068 111.246 167.412 110.598ZM182.757 138.093L183.619 137.055L182.585 136.796C182.412 137.444 182.24 137.703 182.757 138.093ZM178.619 134.202C178.274 134.202 178.102 134.072 177.929 134.331C177.929 134.461 177.757 134.721 178.102 134.85L178.964 134.461L178.619 134.202ZM157.93 107.096C157.93 108.134 156.723 108.782 157.24 109.69L158.447 109.43C158.964 108.263 161.723 107.874 160.688 106.188L157.93 107.096ZM178.447 138.093L179.998 137.444C179.826 137.314 179.654 136.925 179.136 136.925C178.619 137.314 178.274 137.444 178.447 138.093ZM77.7579 8.14035C77.7579 7.88096 77.4131 7.88096 77.2407 7.75127C76.5511 7.88096 76.5511 8.27004 76.3787 8.65912C77.0683 9.0482 77.7579 8.78881 77.7579 8.14035ZM178.619 140.946C178.792 140.686 178.964 140.168 178.619 139.908C178.102 139.908 177.757 139.519 177.24 139.908C176.55 140.427 177.757 141.205 178.619 140.946ZM69.9994 1.91509C70.1718 1.26663 69.827 1.00724 69.3098 0.747857H67.0684C67.5856 1.52601 68.6201 2.17448 69.9994 1.91509ZM150.344 110.468L150.861 111.116L151.378 110.338C150.861 110.209 150.516 110.338 150.344 110.468ZM73.7925 8.01066C74.1373 7.2325 74.4821 6.58403 73.6201 5.67618C71.8959 5.28711 70.5166 6.32465 68.7925 6.58403C69.827 8.39973 72.4132 6.71373 73.7925 8.01066ZM135.516 93.8673L135.171 95.0345L137.585 95.683L137.757 95.2939C136.895 95.0346 136.895 93.8673 135.516 93.8673ZM64.9994 1.26663C61.7236 1.00724 64.1374 3.08233 63.4477 4.37926C65.3443 5.15741 67.5856 4.50895 69.6545 4.76833C70.8614 2.43386 66.3787 2.69325 64.9994 1.26663ZM76.3787 20.4612C76.7235 20.0721 76.0338 19.8127 75.8614 19.4236L74.8269 19.9424C75.3441 20.0721 75.689 20.8502 76.3787 20.4612ZM64.827 9.30758C64.6546 9.69666 64.827 9.95605 64.9994 10.0857L65.5167 9.30758C65.1718 9.30758 64.9994 9.17789 64.827 9.30758ZM61.896 5.28711C61.3788 5.15741 61.2064 5.4168 60.8616 5.4168C60.1719 5.93557 61.034 6.84342 61.7236 6.19496C61.896 5.93557 62.4132 5.54649 61.896 5.28711ZM161.895 137.444C161.895 137.703 161.723 137.833 162.068 137.963L162.93 137.574L162.757 137.444C162.585 137.444 162.24 137.314 161.895 137.444ZM65.3442 13.5874L64.827 12.939C64.6546 13.0687 64.3098 13.0687 64.1374 13.0687C63.965 13.4578 63.7926 13.8468 64.1374 14.1062L65.3442 13.5874ZM158.274 126.939C157.757 125.901 156.723 125.642 155.861 124.994C154.309 124.994 152.412 124.864 151.378 125.642C152.24 126.809 152.068 128.236 151.206 129.014L156.206 129.533C156.55 129.273 157.068 128.366 156.378 127.977L158.274 126.939ZM62.7581 22.0175C62.7581 21.8878 62.9305 21.6284 62.5857 21.4987C62.2409 21.4987 61.7236 21.2393 61.3788 21.369C60.8615 22.0175 62.2408 22.1472 62.7581 22.0175ZM67.0684 26.6864C66.896 25.6489 65.8615 26.038 65.1719 26.038C64.9995 26.427 64.6546 26.8161 65.1719 27.0755C66.0339 27.5943 67.0684 27.2052 67.0684 26.6864ZM130.516 103.594C128.62 104.372 124.654 102.816 125.516 105.669C127.068 105.021 131.033 106.058 130.516 103.594ZM149.309 136.277C149.309 137.055 149.999 138.093 151.378 137.963C152.24 137.574 151.895 136.796 151.55 136.147C151.206 135.628 149.654 135.499 149.309 136.277ZM135.344 114.488C135.516 115.526 133.792 116.304 134.137 117.471L137.068 118.25L137.757 117.082C135.171 116.953 137.585 114.748 135.344 114.488ZM71.0339 34.7274C70.689 34.7274 70.5166 34.5977 70.3442 34.8571C69.9994 35.1165 70.3442 35.3758 70.5166 35.6352L71.0339 34.7274ZM123.102 103.983C123.102 103.724 122.758 103.724 122.413 103.724C122.24 103.854 121.723 103.983 121.723 104.372C122.24 104.372 123.102 104.762 123.102 103.983ZM127.068 113.062C126.378 114.099 128.447 114.359 129.137 113.97C129.482 113.192 128.275 112.802 127.757 112.543C127.24 112.543 126.895 112.802 127.068 113.062ZM112.24 94.3861C109.999 96.3315 114.137 96.2018 114.999 97.369C115.344 96.2018 113.792 95.8127 114.309 94.6455C113.965 94.2564 112.758 93.8673 112.24 94.3861ZM123.275 107.744C122.413 109.041 121.895 112.413 125.861 111.506C126.895 110.857 128.275 109.82 128.275 108.652C126.551 108.393 124.654 106.058 123.275 107.744ZM52.0685 19.8127C52.9306 19.9424 53.2754 20.7206 53.9651 20.2018C57.7581 21.2393 57.9305 17.8673 58.6202 16.1813C58.2753 14.1062 57.7581 11.5124 55.5168 10.0857C52.2409 10.8639 48.7927 12.5499 48.4479 15.1438C52.4133 15.6625 49.4823 18.3861 52.0685 19.8127ZM90.5164 69.2257C89.482 69.096 87.7579 68.3178 87.5855 68.9663L89.482 70.5226C90.5164 70.3929 90.1716 69.6148 90.5164 69.2257ZM97.0681 79.7308L96.7233 80.7683L98.4474 80.1199L97.0681 79.7308ZM86.2061 66.7615L84.3096 66.2427C84.1372 66.6318 84.3096 66.8912 84.482 67.1506C85.3441 67.41 86.2061 67.41 86.2061 66.7615ZM98.7923 89.5874C97.9302 90.3656 99.3095 91.1438 100.172 90.7547C100.172 90.3656 100.689 89.9765 100.344 89.5874C99.8267 89.4578 99.3095 89.1984 98.7923 89.5874ZM110.516 106.837C110.516 106.318 111.206 105.799 110.516 105.41C109.999 105.28 109.827 105.54 109.482 105.54C108.792 106.058 109.654 107.226 110.516 106.837ZM55.5168 36.9322C56.7237 37.4509 56.3788 36.2837 56.7236 35.8946L56.2064 35.7649C56.3788 36.2837 55.6892 36.5431 55.5168 36.9322ZM44.31 25.1301C44.31 24.8707 44.8272 24.4816 44.4824 24.2223C43.9652 23.8332 43.4479 24.352 43.1031 24.4816C42.5858 25.1301 43.6203 25.7786 44.31 25.1301ZM124.999 126.809C123.447 127.977 123.102 129.663 124.482 131.219C126.033 131.608 127.413 131.997 128.964 131.478C130.344 130.441 132.93 129.533 132.413 127.587C130.516 126.291 127.24 124.864 124.999 126.809ZM84.9993 79.7308C84.8269 81.5465 87.9303 81.0277 89.3096 80.898C90.8613 79.7308 89.482 78.5636 87.7578 78.1745C86.7234 78.3042 86.8958 79.0823 86.551 79.7308C86.0337 79.4714 85.3441 79.3417 84.9993 79.7308ZM116.551 115.267C112.585 115.007 114.999 117.731 113.792 118.509L114.137 118.639L114.827 117.471C115.516 117.601 115.861 117.99 116.551 118.25C117.585 118.509 117.758 117.471 118.447 117.082C118.275 116.304 118.447 115.137 116.551 115.267ZM106.896 105.669C105.689 106.318 105.344 107.355 104.482 108.134C106.034 108.263 108.103 109.041 108.965 107.744C108.62 106.837 108.62 105.929 106.896 105.669ZM76.7235 72.8571L81.7234 74.0243C82.2406 73.6352 83.2752 73.6352 83.2752 73.1165C83.1027 72.5977 82.5855 72.5977 82.0682 72.3383L83.1027 71.0414C83.1027 70.3929 82.0683 70.6523 81.3786 70.5226C81.2062 68.3178 77.5855 68.5772 76.2062 67.7991L77.2407 69.6148C74.9994 70.3929 78.1028 71.8195 76.7235 72.8571ZM82.2407 79.6011C82.4131 79.212 82.5855 78.8229 82.2407 78.5636C81.551 78.6933 80.3441 78.1745 80.1717 79.0823C80.3441 79.6011 81.7234 79.7308 82.2407 79.6011ZM84.9993 83.2325L83.6199 82.8434C83.6199 83.2325 83.1027 83.4919 83.6199 83.881C84.3096 84.1404 84.9993 83.881 84.9993 83.2325ZM73.2752 69.096L72.9304 68.9663C72.5856 69.096 72.0683 69.2257 72.2407 69.4851L73.1028 69.7444L73.2752 69.096ZM63.4477 57.2939L62.7581 56.5158C62.4132 56.3861 61.896 56.1267 61.5512 56.3861C62.5857 56.2564 62.4133 57.8127 63.4477 57.2939ZM79.6545 80.3793C79.3097 80.6386 79.6545 80.898 79.8269 81.1574L80.8613 80.7683C80.5165 80.3793 79.9993 80.5089 79.6545 80.3793ZM67.9304 64.038C67.4132 64.038 67.0684 63.6489 66.5511 64.038C66.5511 64.427 66.2063 64.8161 66.7236 65.2052C67.758 65.5943 67.5856 64.427 67.9304 64.038ZM108.792 117.082C107.24 117.731 108.275 119.028 108.447 119.806C109.827 119.936 112.24 121.232 112.413 119.417C111.723 118.509 110.344 117.342 108.792 117.082ZM58.7926 54.7001C58.4478 54.8298 58.4477 55.0892 58.4477 55.2188L60.1719 55.6079C59.9995 55.2188 59.6547 54.8298 58.7926 54.7001ZM47.4134 42.3793C47.7582 42.1199 47.4134 41.8605 47.241 41.6011C46.8961 41.6011 46.3789 41.212 46.0341 41.4714C45.5169 42.2496 46.7237 42.6386 47.4134 42.3793ZM58.7926 58.3315L58.965 57.5533L57.4133 57.2939C57.4133 57.9424 58.2754 58.3315 58.7926 58.3315ZM35.6894 30.1881C36.5514 30.4475 37.7583 30.7069 38.1031 29.7991L37.0686 29.41C36.2066 29.2803 35.6894 29.5397 35.6894 30.1881ZM72.758 73.7649L71.2063 73.2462C70.3442 72.8571 69.3098 73.2461 69.3098 74.0243L72.4132 74.5431L72.758 73.7649ZM38.7928 34.2086C38.6203 34.5977 38.9652 34.7274 38.9652 34.9868L39.8272 34.2086C39.4824 33.9492 39.1376 34.0789 38.7928 34.2086ZM56.7236 55.6079L55.8616 55.997C55.1719 56.2564 55.6892 56.9049 55.5168 57.2939C56.7237 58.0721 57.0685 56.9049 57.2409 56.3861C57.7581 55.8673 56.896 56.1267 56.7236 55.6079ZM67.5856 72.2086C67.4132 71.6898 68.1029 71.6898 68.4477 71.4305C69.4822 73.5055 72.0683 71.4305 73.9649 71.8195C73.62 71.4305 73.1028 71.5601 72.9304 71.4305C67.9305 72.3383 73.1028 68.8366 71.2063 67.2803C67.5856 65.3349 68.2753 70.1335 66.5511 70.2632C65.5167 71.3008 66.896 71.5602 67.5856 72.2086ZM77.0683 75.0619L75.3442 74.2837C73.6201 75.7103 69.4821 74.9322 70.689 77.6557C74.1373 80.2496 75.8614 76.7479 77.0683 75.0619ZM74.4821 80.7683C74.3097 80.3793 73.7925 80.5089 73.4476 80.3793C73.4476 80.5089 73.4476 80.898 73.1028 80.898C72.9304 81.6762 74.8269 81.8059 74.4821 80.7683ZM29.4825 23.3144C29.6549 23.055 29.8273 22.9253 29.4825 22.7956C28.9653 22.7956 28.6205 22.4066 28.2756 22.6659C27.7584 23.3144 29.1377 23.4441 29.4825 23.3144ZM60.5167 66.5021C61.7236 66.5021 63.2753 65.8537 63.2753 64.5567C62.7581 64.2973 62.2409 64.8161 61.7236 64.9458C61.3788 65.5943 59.3098 65.5943 60.5167 66.5021ZM102.413 93.7376C101.378 91.6625 98.275 91.7922 96.7233 90.4953C95.5164 86.4748 90.6889 90.625 87.413 89.3281C83.7924 88.8093 83.6199 91.6625 80.8613 92.5704C79.6545 94.3861 81.7234 98.1472 84.9993 98.7956C86.3786 101.649 90.6889 99.8332 93.275 101.519C100.516 102.427 99.3094 96.7206 102.413 93.7376ZM55.6892 64.427L57.7581 64.6864C57.2409 63.0004 61.2064 62.4816 59.6547 60.9253L58.6202 61.3144C58.2753 62.6113 54.3099 62.0926 55.6892 64.427ZM43.4479 44.3246C44.8272 43.5465 45.172 45.2325 46.2065 45.4919C48.1031 45.4919 48.6203 44.0653 49.3099 43.0277C46.3789 44.8434 43.9651 41.9902 41.7238 41.0823C39.9997 41.0823 37.9307 41.8605 38.448 43.4168C40.6893 43.0277 41.5514 44.8434 43.4479 44.3246ZM48.2754 37.5806C42.7582 40.9526 53.6202 40.9526 51.3789 44.584C54.8271 45.1028 50.6892 47.0482 52.7582 47.9561C54.8271 48.4748 55.8616 50.2905 58.2754 49.1233L59.1374 50.8093C54.9995 53.6625 52.4133 46.6591 48.4479 51.0687L45.172 49.3827C42.0686 49.3827 44.8272 51.3281 44.8272 52.4953C46.0341 52.7547 46.7237 52.4953 47.7582 51.7171C49.8272 53.7922 52.7582 53.1438 55.3443 52.1062C56.5512 52.4953 59.3098 51.0687 58.7926 53.0141C61.896 54.311 64.827 55.997 67.2408 57.9424C66.7235 58.8502 68.4477 60.2769 66.0339 60.4066C65.6891 60.7956 64.9994 61.9629 65.6891 62.0926C68.4477 61.9629 68.9649 65.2052 70.3442 66.1131C70.1718 65.0755 71.5511 63.7786 71.2063 62.2223C74.6545 59.369 74.3097 65.0755 77.4131 64.1677C76.551 64.427 75.689 64.8161 76.0338 65.5943C80.1717 66.5021 75.3442 63.5192 78.62 63.2598C79.3097 63.5192 80.8614 62.8707 81.2062 64.038C81.551 64.427 81.0338 64.6864 80.5165 64.8161C80.3441 65.3349 81.0338 66.1131 81.8958 66.1131C82.4131 64.8161 83.9648 64.8161 85.1716 64.1677C84.3096 64.038 83.1027 63.7786 83.6199 63.1301C85.8613 62.741 88.2751 62.352 90.6889 63.1301C89.8268 64.9458 85.1717 62.2223 86.551 65.3349C87.413 66.1131 87.5855 67.9287 89.3096 67.5397C89.9992 68.7069 91.8958 69.096 93.275 68.0584L91.5509 66.8912C93.275 64.8161 89.9992 62.741 92.5854 60.9253C93.2751 60.7956 94.1371 61.055 94.3095 61.7035C93.4475 64.427 96.7233 64.038 96.7233 66.8912C96.3785 67.2803 95.6888 67.0209 95.344 66.8912C95.6888 66.6318 95.344 66.3724 95.1716 66.1131C94.6544 65.9834 94.1371 65.8537 93.6199 66.1131L94.9992 68.3178C93.6199 68.1881 93.6199 69.096 92.7578 69.4851C94.1371 73.1165 86.8958 71.4305 84.8269 73.3758C83.9648 76.7479 90.1716 74.6728 90.6889 77.6557C92.7578 78.9526 95.1716 78.0448 97.0681 77.3963C97.9302 78.6933 100.172 80.6386 101.206 82.195C102.93 84.0107 106.206 83.1028 108.447 84.0107C108.275 85.8264 105.861 84.1404 104.827 85.4373C103.275 85.1779 100.516 84.9185 99.8267 85.4373C100.172 85.8264 100.689 85.8264 101.378 85.956C99.3095 89.1984 105.172 86.4748 104.827 88.939C106.551 90.3656 108.447 91.7922 111.206 91.6625C111.206 91.9219 110.861 92.1813 111.206 92.5704C111.896 92.7001 112.93 93.2188 113.62 92.7001V91.6625C113.965 91.2735 114.654 91.5328 114.999 91.6625L114.482 92.9595C117.585 92.8298 115.861 95.683 118.792 95.5533C118.447 96.3315 117.585 97.2393 118.447 97.7581C120.516 100.093 123.275 97.7581 125.861 97.6284C126.206 99.4441 123.275 98.5363 122.758 99.7035C123.275 101.39 124.654 99.7035 125.689 99.9629C126.551 101.649 129.309 99.1847 129.999 101.519C132.413 102.686 135.688 103.076 138.275 102.168C139.654 100.611 136.551 100.352 136.895 98.9253C131.378 99.3144 134.137 93.8673 132.93 93.2189L136.206 92.4407C137.24 94.1267 138.964 92.1813 140.171 92.5704C140.344 92.8298 140.516 93.0892 140.344 93.3485L141.55 93.4782C141.723 95.8127 138.275 97.7581 139.482 99.9629C140.516 101.519 141.895 103.594 142.757 105.28C144.309 105.41 146.206 105.799 147.24 104.891C147.068 105.41 147.757 106.188 148.619 106.058C147.93 103.076 152.585 104.502 154.481 103.205C159.826 96.7206 147.24 99.8332 146.206 95.2939C147.413 94.5158 148.792 94.9049 150.171 94.9049C152.068 96.9799 155.516 97.7581 158.792 97.4987C158.619 96.8503 157.93 95.683 159.481 95.4236C164.136 94.7752 160.516 99.3144 163.964 98.7956C160.861 100.482 162.412 103.335 161.55 105.669C162.757 105.28 164.309 106.837 164.999 105.54C165.343 105.669 165.861 105.54 166.033 105.929C169.136 105.929 171.378 104.113 172.24 101.908C171.55 98.1472 178.274 101.649 180.86 100.093C183.447 100.352 182.067 98.1472 182.24 97.2393C184.309 95.4236 184.136 98.7956 185.86 98.0175L185.516 99.055C185.516 101 188.102 101.389 190.171 102.038C191.722 101.389 194.309 101.649 194.998 100.093L196.378 100.741C195.516 99.4441 198.102 99.7035 198.274 98.7956C198.102 98.4066 197.584 98.5363 197.24 98.4066C197.757 97.6284 197.067 96.2018 198.964 95.9424C202.757 99.3144 205.343 94.3861 208.274 94.3861C207.929 95.0345 207.929 95.8127 207.24 96.2018C211.55 97.7581 208.446 93.4782 209.826 93.4782C211.55 94.3861 211.722 95.8127 211.033 96.9799L211.895 97.2393C213.274 96.9799 212.24 95.9424 212.929 95.4236L213.964 95.683C214.481 93.7376 216.033 93.997 218.274 93.3485C220.515 92.4407 222.412 90.8844 222.239 88.8093C219.998 88.5499 217.584 87.253 215.86 88.6796C214.826 87.6421 214.136 86.9936 214.308 85.956L210.515 87.1233C208.791 86.8639 210.343 85.567 210.343 84.9185C213.446 85.0482 210.688 81.0277 214.653 81.9356C216.895 84.0107 218.274 86.6045 221.55 87.3827C223.619 86.4748 226.377 87.9014 227.929 85.956C231.032 85.8264 230.515 82.7137 232.757 81.6762C231.377 79.8605 232.757 77.0072 229.136 77.0072C227.067 75.9697 227.239 74.0243 229.136 73.1165C228.101 72.0789 226.722 74.0243 226.032 72.7274C226.032 71.6898 227.584 71.6898 228.446 71.1711C229.998 70.782 230.515 72.2086 231.55 72.5977L232.757 71.5601C233.963 71.6898 232.757 72.468 233.791 72.8571C235.515 73.6352 235.688 71.8195 237.239 71.8195C236.032 71.3008 236.032 70.1335 236.205 69.3554L238.274 70.0038C238.963 69.3554 237.757 68.8366 238.101 68.1881C239.136 67.1506 237.412 65.9834 239.308 65.0755L237.412 64.427L236.722 66.1131C234.136 67.1506 233.446 63.3895 231.55 63.3895C229.136 64.8161 229.136 67.799 231.205 69.8741C228.274 70.2632 227.757 67.41 224.653 67.5397L225.343 66.6318C223.619 64.427 227.757 64.9458 228.274 63.6489L226.722 63.3895L226.895 62.6113L228.791 63.0004C231.377 61.4441 227.067 61.055 228.619 59.2393L227.067 58.8502C226.377 59.1096 226.55 60.0175 225.688 60.2769C225.17 60.2769 224.998 60.0175 224.826 59.7581C225.515 59.1096 226.205 58.3315 227.412 58.0721C229.653 58.7206 230.515 55.997 232.929 56.6455L232.067 57.5533L234.998 58.0721C237.757 57.1642 233.274 56.5158 234.653 55.0892C235.515 53.7922 237.584 54.311 239.136 54.311C241.205 55.3485 241.032 56.9049 239.136 57.8127C239.998 58.0721 240.515 57.5533 241.205 57.2939C242.067 57.9424 243.791 57.9424 244.136 59.2393C241.894 61.4441 246.722 61.4441 247.584 63.1301C249.653 64.038 250.687 62.2223 252.412 62.352C253.446 61.8332 256.205 62.0926 256.377 60.9253C256.377 58.4612 254.308 56.2564 251.894 54.5704C249.998 55.997 247.239 55.0892 247.412 57.0345C245.86 56.9049 244.136 57.4236 242.757 56.9049L242.929 56.6455C244.653 56.2564 243.963 54.5704 243.274 53.5328C242.239 52.625 241.032 53.5328 239.825 53.1438C239.653 53.0141 239.308 52.7547 239.653 52.3656C241.55 50.6796 243.101 52.2359 244.825 52.625C244.998 51.0687 241.722 51.4578 242.239 49.6421C242.412 49.5124 242.756 49.6421 242.929 49.5124C243.274 49.6421 242.929 49.9014 242.929 50.1608C244.481 50.939 246.032 49.5124 247.239 50.6796C248.791 51.5874 251.205 53.0141 250.515 54.311C252.929 51.9765 253.446 56.5158 255.86 55.7376C258.274 53.0141 251.032 53.2735 253.274 51.3281C254.136 51.0687 255.17 51.3281 255.515 52.2359C255.86 51.9765 256.722 51.9765 256.549 51.4578C254.653 50.939 255.515 48.3451 254.998 47.1779C253.791 45.7513 257.239 44.195 254.998 42.7683C258.101 42.1199 253.274 40.9526 254.481 39.6557C252.929 38.0994 250.17 39.3963 248.618 39.6557C247.412 38.3588 249.825 39.0072 250.343 38.3588C251.205 37.5806 249.998 36.8025 250.515 36.0243C247.584 35.2462 251.549 33.5601 248.274 33.1711C249.136 32.0038 247.067 31.6148 247.756 30.4475C248.791 30.3178 249.998 29.9287 251.205 29.9287C251.55 29.0209 251.722 28.113 251.377 27.2052C249.653 26.2973 248.274 23.7035 245.687 24.8707C245.515 24.6113 245.17 24.352 245.515 24.0926C247.584 22.9253 248.963 24.2223 250.515 24.6113C250.687 23.8332 248.791 22.5363 251.205 22.4066C251.032 19.8127 253.274 18.5158 254.481 16.5704C253.101 16.311 253.618 18.2564 251.894 17.8673C251.377 16.8298 252.412 15.6625 251.032 14.625C251.205 13.4578 253.101 12.5499 252.929 11.253L252.067 11.6421C249.653 9.56697 250.17 13.4578 247.584 12.2905C245.515 11.6421 248.274 10.8639 247.929 10.0857C247.584 9.82635 247.239 10.0857 246.894 10.2154L243.791 7.2325C245.515 6.45434 246.032 4.63864 245.687 3.21202L246.722 3.47141C247.584 3.34171 249.998 2.95264 249.136 1.91509C248.791 2.04479 248.274 2.17448 247.929 2.17448C247.412 2.30417 246.722 2.43386 245.86 2.30417V2.17448C245.515 2.17448 245.343 2.04479 245.343 1.91509C245.343 1.7854 245.17 1.7854 245.17 1.65571C242.929 3.21202 238.791 1.7854 237.067 3.08233C239.825 3.34171 242.756 3.47141 244.308 4.50895C243.619 5.93557 240.688 4.37926 239.136 5.15741C240.343 5.67618 239.481 6.84342 238.963 7.36219C239.136 7.88096 240.343 8.27004 239.825 8.78881C237.929 9.17789 237.412 8.39973 236.55 7.88096C232.239 8.27004 228.619 7.62158 224.826 6.71373C226.722 4.24956 230.343 7.36219 233.963 6.71373C234.653 6.58403 233.963 5.67619 234.481 5.54649C235.17 5.54649 235.86 5.54649 236.722 5.54649C233.274 3.47141 228.619 4.37926 223.791 4.37926C223.446 4.89803 224.481 5.15741 223.619 5.80588C221.205 6.06526 217.757 6.45434 215.171 5.93557C216.033 5.54649 216.722 4.11987 214.826 4.11987C214.481 4.76833 213.964 5.4168 213.791 6.19496C212.412 5.80588 212.412 6.97311 211.377 7.10281C209.998 7.2325 208.274 6.32465 207.067 6.32465C206.722 6.32465 206.377 6.84342 206.033 6.97311C204.653 7.2325 202.929 6.71373 201.378 7.10281C201.033 5.80588 202.584 5.93557 203.274 5.4168C203.274 4.63864 201.378 5.28711 201.033 4.63864C201.722 3.47141 203.446 4.24956 204.309 4.76833C205.688 4.24956 206.55 3.34171 208.619 3.21202C208.791 3.47141 208.964 3.73079 208.964 4.24956C209.309 3.86048 209.653 3.73079 210.515 3.86049C210.515 3.34171 208.791 4.11987 209.136 3.21202C211.55 1.91509 215.86 3.34171 219.308 2.04479C218.446 1.00724 215.515 2.69325 214.998 1.26663C212.584 3.34171 206.722 0.618164 202.584 1.52601C202.412 1.00724 201.722 0.87755 201.205 0.618164H184.309C184.136 0.618164 184.136 0.618164 183.964 0.747857C184.481 1.26663 184.826 1.7854 185.86 1.91509C185.86 2.56356 184.136 2.04479 184.309 2.82294C184.654 3.99018 187.585 3.08233 187.585 4.63864C184.136 6.71373 176.033 2.17448 172.93 6.19496C172.24 5.4168 170.171 5.80588 170.171 4.63864C165.516 4.76833 160.861 6.58403 156.895 5.02772C156.723 4.37926 156.895 3.86049 157.93 3.99018C156.206 4.24956 153.275 3.99018 150.861 3.73079C150.516 2.56356 150.688 2.30417 150.516 1.13694C150.688 1.00724 150.861 1.00724 151.033 0.87755H112.758C112.758 1.00724 112.758 1.26663 112.93 1.39632C112.585 1.13694 112.413 1.00724 112.068 0.87755H83.9648C83.9648 0.87755 83.9648 0.87755 83.9648 1.00724C83.9648 1.00724 83.9648 1.00724 83.7924 0.87755H80.689C79.9993 1.39632 79.3096 2.04479 78.2752 2.04479L77.7579 0.747857H76.0338C75.689 1.52601 76.2062 2.69325 74.1373 1.91509C74.3097 3.34171 71.3787 2.30417 71.8959 4.11987C72.9304 4.76833 73.6201 3.6011 74.4821 3.86049C73.9649 5.15741 75.689 5.93557 76.7235 6.45434C77.9303 7.10281 81.2062 7.10281 80.1717 5.28711L81.551 5.93557L82.5855 4.63864C83.7924 4.63864 82.5855 5.4168 83.4475 5.80588C88.2751 4.37926 83.2751 8.01066 85.5165 9.0482C83.9648 9.95605 83.6199 8.01066 82.7579 7.88096L81.7234 10.6045C82.9303 10.6045 84.3096 10.9936 85.5165 10.4748V10.8639C84.482 12.4202 81.551 12.8093 79.4821 12.6796C75.3442 9.56697 76.8959 15.9219 72.5856 13.7171C72.5856 11.7717 69.6546 13.3281 68.6201 12.1608L68.4477 12.939C69.4822 14.1062 70.3442 15.7922 72.2407 15.4031C71.8959 15.9219 72.2407 16.4407 72.5856 16.7001C75.3442 17.4782 73.4476 15.5328 74.4821 14.7547C74.9994 14.7547 75.1718 15.0141 75.3442 15.2735C74.8269 16.5704 77.4131 16.1813 78.4476 16.7001L77.4131 18.5158L78.2752 18.6455L78.62 17.997C78.7924 17.8673 79.1372 17.997 79.3096 17.8673C80.1717 18.5158 81.551 19.683 81.0338 20.7206C80.1717 21.1096 79.3096 21.2393 78.4476 21.369C78.2752 22.4066 80.3441 23.4441 79.4821 24.2223C78.2752 24.0926 76.8959 24.352 76.7235 23.055C75.5166 24.741 77.0683 26.427 78.1028 28.3724C76.2063 29.41 75.8614 26.6864 73.7925 26.8161C74.4821 25.3895 71.8959 24.8707 71.8959 23.8332C70.689 24.2223 72.4132 24.8707 71.7235 25.3895H71.2063C68.1029 26.2973 72.2408 27.4646 72.0684 28.5021C74.827 27.0755 74.827 30.7069 77.2407 30.3178L75.3442 31.3554C74.8269 32.6523 76.8959 33.5601 77.7579 34.468C78.62 34.0789 78.7924 32.9117 80.1717 33.1711L81.2062 36.2837H80.689C79.4821 36.5431 78.9648 35.6352 78.4476 35.1165L77.9304 35.8946L76.0338 35.1165C72.2408 35.5055 75.5166 39.2666 71.7235 38.8776C72.758 41.4714 68.6201 40.8229 67.9304 42.2496L66.3787 40.1745C67.4132 39.3963 68.1029 40.0448 69.1373 40.3042C69.3097 38.8776 69.6546 37.9697 69.4822 36.6728C68.7925 36.4134 68.1029 36.6728 67.5856 36.6728C67.4132 39.0072 63.6201 37.1915 62.4133 38.3588C62.5857 37.1915 62.5857 36.2837 64.1374 35.6352C63.7926 35.1165 63.1029 35.2462 62.4133 35.1165L61.7236 36.2837C60.5167 35.8946 59.3098 35.8946 58.4477 36.5431C56.7236 37.5806 59.6547 37.84 59.9995 38.4885C59.8271 39.2666 59.4823 40.4339 58.103 39.9151C59.6547 41.4714 56.034 41.3417 56.034 42.2496L54.4823 39.9151C58.965 34.2086 48.4478 39.1369 49.1375 34.9868C47.0686 35.3758 49.1375 36.8025 48.2754 37.5806ZM83.4475 103.854C83.1027 103.594 82.9303 102.816 82.4131 102.816C81.7234 103.076 81.8958 103.594 81.7234 103.983L83.4475 104.113V103.854ZM39.1376 49.9014C40.3445 50.5499 41.5514 50.0311 41.5514 48.9936L42.5858 49.253C43.2755 49.3827 43.7927 48.9936 43.7927 48.3451C43.2755 46.0107 41.7238 46.1404 39.31 46.6591C38.1031 47.4373 37.7583 48.8639 39.1376 49.9014ZM42.241 52.7547L41.3789 52.625L41.0341 53.2735L42.0686 53.5328L42.241 52.7547ZM72.758 94.6455C72.4132 95.1642 72.9304 95.683 72.758 96.0721C74.3097 96.5909 75.5166 95.5533 76.0338 94.6455C76.0338 93.4782 73.9649 94.6455 72.758 94.6455ZM31.0342 43.2871C32.0687 43.6762 33.7928 44.3246 34.9997 43.8059C34.9997 43.2871 35.5169 42.6386 34.8273 42.1199C33.6204 41.9902 32.2411 41.0823 31.0342 41.8605C30.517 42.3793 30.8618 42.7683 31.0342 43.2871ZM33.7928 44.8434L32.7583 45.2325C32.7583 45.6216 32.2411 46.0107 32.5859 46.3997L34.8273 46.1404L33.7928 44.8434ZM27.586 40.9526L30.517 40.0448L27.4136 39.0072C26.8963 39.526 26.8963 40.3042 27.586 40.9526ZM11.724 18.2564L11.0344 18.5158C11.0344 18.9049 10.5172 19.2939 10.862 19.683C11.724 19.9424 13.1033 18.9049 11.724 18.2564ZM23.9653 26.5567L23.1033 25.9083C23.1033 23.4441 22.9308 20.9799 20.5171 19.5533C21.724 22.6659 17.4137 20.3315 16.2068 21.8878C15.1723 23.7035 16.0344 25.7786 16.724 27.5943C19.655 30.0584 21.3791 26.1677 23.9653 26.5567ZM7.24134 18.9049C6.55169 18.2564 5.34479 18.1267 4.48273 17.8673L3.44825 19.683L4.48273 19.9424C5.34479 19.9424 7.24134 19.8127 7.24134 18.9049ZM44.4824 71.9492C44.4824 72.468 43.6203 72.9868 44.4824 73.3758C45.3445 73.5055 46.2065 72.9868 46.0341 72.3383C45.8617 71.6898 44.9996 72.0789 44.4824 71.9492ZM59.6547 80.6386C59.4822 79.212 57.9305 77.7854 56.2064 77.6557C55.5168 79.9902 52.5858 77.9151 51.034 79.212C49.6547 80.2496 51.2064 81.5465 50.6892 82.8434C52.9306 83.7513 55.172 83.1028 56.5513 82.195C58.2754 83.3622 59.6547 81.8059 59.6547 80.6386ZM42.5858 63.0004C41.0341 61.9629 38.7928 61.9629 36.7238 61.9629C34.6549 63.0004 34.3101 64.9458 36.379 66.5021C38.2755 67.1506 40.5169 67.5397 42.4134 67.1506C43.1031 66.113 43.4479 64.2973 42.5858 63.0004ZM98.275 147.43C97.4129 147.82 96.3785 148.209 96.5509 148.727C97.4129 149.246 99.1371 149.635 99.6543 148.727C99.8267 148.209 99.1371 147.43 98.275 147.43ZM48.6203 91.1438L49.6548 91.4032L49.8271 90.625L48.7927 90.3656L48.6203 91.1438ZM71.0339 117.212C70.1718 119.806 71.0338 123.308 74.8269 124.215C77.0683 121.492 79.8269 125.383 82.7579 123.308C82.4131 122.14 84.3096 120.843 82.7579 119.806C80.1717 116.693 74.8269 117.082 71.0339 117.212ZM24.9998 63.3895C25.3446 63.1301 25.8619 62.2223 25.3446 61.7035C24.3102 61.4441 23.6205 61.4441 22.7584 61.9629C21.8964 63.1301 23.9653 63.9083 24.9998 63.3895ZM42.241 116.045C43.1031 116.174 44.31 116.823 45.172 116.304C45.172 116.045 45.5169 115.785 45.3445 115.396C44.1376 115.267 42.7582 115.267 42.241 116.045ZM35.3445 122.789C35.6893 121.622 35.1721 120.454 35.3445 119.417C34.1376 119.676 32.7583 119.806 31.7239 119.157C29.3101 120.065 31.0342 121.362 29.6549 122.529C31.0342 124.605 33.6204 122.919 35.3445 122.789ZM153.619 0.747857H160.516C160.688 0.747857 161.033 0.747857 161.205 0.87755C159.137 1.00724 158.102 1.91509 156.895 2.56356C155.861 2.04479 154.137 2.17448 153.619 3.08233C152.585 2.95264 151.895 2.56356 151.895 1.52601C152.585 1.13694 153.102 0.87755 153.619 0.747857ZM164.654 3.99018C164.481 3.34171 163.274 3.47141 162.412 3.47141C162.412 3.73079 162.412 3.86048 162.412 4.11987C163.274 3.99018 163.964 3.99018 164.654 3.99018ZM218.964 5.80588C219.308 5.54649 219.308 5.02772 219.136 4.63864C218.102 4.50895 217.929 4.37926 217.584 5.02772C218.102 5.28711 218.102 5.93557 218.964 5.80588ZM222.239 5.80588C222.412 4.50895 221.205 4.37926 220.86 3.6011C220.86 4.37926 219.826 4.37926 219.998 5.28711C220.86 5.4168 221.205 5.80588 222.239 5.80588ZM222.929 2.04479C222.929 1.00724 220.343 1.52601 220.17 2.04479C221.033 2.69325 221.895 2.04479 222.929 2.04479ZM226.205 2.30417C225.343 2.56356 223.274 1.91509 223.274 2.82294C224.136 2.43386 226.205 3.08233 226.205 2.30417Z" fill="#925036" fill-opacity="0.46"/>
</svg>
