<svg width="296" height="142" viewBox="0 0 296 142" fill="none" xmlns="http://www.w3.org/2000/svg">
<path fill-rule="evenodd" clip-rule="evenodd" d="M1.81081 84.6128C2.17298 83.812 0.905401 83.812 0.362157 83.4117C-0.181087 84.4793 0.181081 85.4135 0 86.4812C1.08649 86.4812 1.99189 85.4135 1.81081 84.6128ZM295.525 14.8139L294.619 14.6805C294.438 15.0808 293.714 15.3477 294.438 15.7481C295.162 16.015 295.706 15.3477 295.525 14.8139ZM282.487 1.46805C283.211 1.46805 283.03 0.800752 282.668 0.533835H282.306C282.306 0.934211 282.125 1.20113 282.487 1.46805ZM268 5.87218C268.181 5.60526 268.544 5.33835 268.181 5.07143C267.819 5.07143 267.638 4.93797 267.457 5.07143C267.095 5.4718 267.276 6.27256 268 5.87218ZM262.206 13.6128L261.662 14.547H262.93C262.93 14.0132 263.292 13.6128 262.206 13.6128ZM247.538 5.07143C247.719 4.67105 247.719 4.27068 247.357 3.8703C246.995 3.60338 246.814 3.8703 246.452 4.00376C245.727 4.67105 246.814 5.33835 247.538 5.07143ZM258.403 21.4868C258.403 21.0865 258.765 20.4192 258.584 20.1523C258.222 19.7519 257.316 19.7519 256.773 20.1523C255.506 20.6861 257.135 22.5545 258.403 21.4868ZM268.181 36.0338L270.173 36.968C271.079 36.968 271.079 36.3008 271.622 36.0338C271.079 35.3665 270.717 34.4323 269.811 34.1654C269.268 34.8327 267.638 35.0996 268.181 36.0338ZM243.192 4.80451C243.192 5.07143 242.83 5.33835 243.192 5.60526L244.46 5.07143L244.279 4.93797C243.916 4.93797 243.554 4.53759 243.192 4.80451ZM241.019 2.80263C240.657 3.46993 241.381 3.33647 242.106 3.33647C242.287 3.06955 242.649 2.80263 242.287 2.53571C241.743 2.40226 241.562 2.80263 241.019 2.80263ZM251.16 14.9474C250.254 14.8139 249.53 15.2143 249.711 15.7481L251.522 15.8816C251.703 15.4812 251.884 15.2143 251.522 14.8139L251.16 14.9474ZM248.081 14.4135L249.168 14.0132C248.806 14.0132 248.444 13.7462 248.081 13.8797C247.9 14.1466 247.719 14.2801 248.081 14.4135ZM240.838 7.47368C241.562 7.47368 241.562 6.80639 241.2 6.53947L240.838 6.67293C240.476 7.07331 240.657 7.34023 240.838 7.47368ZM248.806 20.8195C247.719 20.953 247.719 21.4868 248.081 22.0207C249.168 22.8214 250.435 22.2876 251.522 22.4211C252.427 21.0865 249.349 21.6203 248.806 20.8195ZM254.6 29.7613C254.6 30.2951 254.781 30.8289 255.143 31.3628L255.868 31.0959C255.325 30.562 255.325 29.8947 254.6 29.7613ZM244.279 15.7481L245.365 12.6786L244.822 12.5451C243.735 13.2124 242.649 13.8797 241.925 14.8139C242.468 15.3477 243.192 15.8816 244.279 15.7481ZM246.995 23.2218C247.719 23.2218 248.444 23.2218 248.262 22.688C247.9 22.8214 246.995 22.5545 246.995 23.2218ZM277.96 57.7876C278.684 57.2538 278.865 56.3196 278.322 55.5188C276.511 55.2519 275.244 54.3177 273.614 55.1184C272.889 56.3196 273.976 57.2538 275.425 57.9211C276.33 58.5883 277.054 57.6541 277.96 57.7876ZM248.262 24.5564C247.719 24.9568 247.719 25.3571 248.262 25.891C249.892 26.6917 249.349 24.9568 249.892 24.4229C249.349 24.156 248.444 24.156 248.262 24.5564ZM239.389 15.7481C239.027 16.1485 239.208 16.8158 240.114 16.5489C240.114 16.282 240.476 16.015 240.114 15.6147C239.933 15.7481 239.57 15.6147 239.389 15.7481ZM232.146 4.40414C232.87 3.33647 231.965 2.2688 231.422 1.6015C230.516 1.06767 229.068 0.934211 228.162 1.6015C226.895 2.66917 229.068 3.46993 228.525 4.53759C229.973 4.93797 231.06 4.93797 232.146 4.40414ZM237.035 9.07519C236.13 9.34211 235.949 9.74248 235.587 10.2763C234.862 10.0094 234.319 9.07519 233.233 9.60902C232.327 10.5432 233.776 10.8102 234.5 11.2105C234.681 14.2801 236.13 9.74248 237.941 11.0771L238.303 10.0094C237.76 9.87594 237.76 9.07519 237.035 9.07519ZM250.435 29.3609C250.254 29.3609 249.892 29.2274 249.892 29.094L249.168 29.3609C248.625 29.6278 247.538 29.8947 248.262 30.4286C248.987 30.4286 250.435 30.1617 250.435 29.3609ZM228.887 11.2105C229.068 12.0113 230.154 12.812 230.879 13.3459L231.06 12.9455C229.973 12.4117 230.879 10.8102 228.887 11.2105ZM224.722 7.60714L228.343 8.14098L228.706 7.20677C228.706 6.67293 227.438 6.40602 226.714 6.27256C225.989 6.80639 224.541 6.67293 224.722 7.60714ZM236.492 22.688L237.216 21.6203L236.854 21.4868C236.311 22.0207 235.949 22.1541 236.492 22.688ZM256.954 42.8402C256.954 40.7049 254.057 40.8383 252.246 41.2387C252.427 42.0395 252.608 43.1071 253.333 44.1748C254.6 43.7744 257.316 44.5752 256.954 42.8402ZM234.138 20.0188H235.587C235.225 19.3515 235.406 18.6842 236.311 18.2838C235.949 18.0169 235.949 17.4831 235.406 17.6165C235.225 18.4173 233.233 18.9511 234.138 20.0188ZM221.281 4.67105C220.919 5.07143 221.281 5.60526 222.006 5.60526C222.006 5.20489 222.368 4.53759 221.281 4.67105ZM239.933 30.8289H241.019L240.838 30.562L239.933 30.8289ZM248.081 39.1034C248.081 39.5038 246.633 39.5038 247.176 40.1711L248.625 40.3045L248.987 39.3703C248.987 39.1034 248.262 39.2368 248.081 39.1034ZM247.719 43.9079L248.625 44.0414L248.806 43.3741L248.262 43.2406C247.9 43.3741 247.719 43.5075 247.719 43.9079ZM231.422 17.8835C231.603 17.3496 232.871 16.8158 231.784 16.282C229.973 16.282 229.43 17.6165 228.706 18.5508C230.335 19.3515 227.981 20.2857 229.43 21.0865C230.516 20.6861 229.792 19.7519 230.154 18.9511C230.335 18.5508 230.516 17.6165 231.422 17.8835ZM224.903 15.2143L226.352 12.2782C225.084 12.0113 225.808 14.1466 223.997 13.2124C223.635 14.0132 223.273 15.2143 224.903 15.2143ZM245.546 20.0188C246.089 19.8853 247.538 20.953 247.9 19.8853C246.271 18.8177 245.365 17.3496 243.192 16.9492C242.649 17.8835 239.933 17.3496 240.295 18.9511L241.562 19.218C241.925 20.4192 240.476 19.3515 240.295 20.2857C240.476 20.6861 241.019 20.5526 241.2 20.6861C241.381 22.688 238.484 20.6861 238.846 22.688C239.389 23.2218 240.295 22.688 241.2 22.8214C241.743 23.3553 241.925 24.0226 241.562 24.6898C239.933 24.2895 238.846 25.6241 237.76 25.891C236.854 25.3571 238.122 25.2237 238.122 24.8233C237.398 23.4887 236.311 25.4906 235.043 24.4229L235.225 23.3553L234.862 23.2218C232.87 23.7556 233.595 25.2237 232.146 26.1579C234.681 25.2237 234.681 27.8929 236.673 27.8929L236.854 27.2256C237.76 26.0244 238.846 27.7594 240.295 27.6259C242.649 27.2256 241.381 25.7575 243.554 25.2237C244.279 25.3571 244.279 26.6917 245.365 25.7575C241.381 23.2218 247.9 22.4211 245.546 20.0188ZM217.298 9.34211L217.479 8.54135H217.298C216.935 8.80827 217.116 9.07519 217.298 9.34211ZM231.784 27.6259C232.146 27.2256 231.603 26.9586 231.422 26.6917C231.06 26.5583 230.698 26.6917 230.516 26.8252C230.698 26.9586 230.516 27.0921 230.516 27.2256L231.784 27.6259ZM244.46 45.109C242.649 45.109 243.554 46.9774 245.003 46.7105C245.546 46.0432 245.184 45.2425 244.46 45.109ZM207.519 1.20113C206.795 1.86842 205.889 2.93609 206.795 3.8703C208.062 4.13722 209.33 4.53759 210.235 4.00376C210.235 3.06955 212.408 2.66917 211.141 1.6015C210.054 0.800752 208.968 0.133458 207.519 1.20113ZM250.435 62.4587C250.435 62.5921 250.254 62.7256 250.435 62.859L251.16 62.5921L250.979 62.4587C250.979 62.4587 250.798 62.3252 250.435 62.4587ZM228.525 29.2274C229.249 28.4267 227.8 27.4925 227.619 27.0921C225.808 26.8252 224.36 28.2932 224.179 29.6278C225.446 30.4286 226.714 28.5602 228.525 29.2274ZM227.076 32.5639C227.257 32.0301 228.706 32.0301 227.8 31.3628C226.533 31.8966 226.714 32.8308 225.989 33.8985C226.352 34.5658 227.257 35.0996 227.981 34.5658V34.2989C230.335 35.3665 230.879 33.3647 233.052 33.765C234.138 33.0977 234.319 31.8966 233.414 31.0959C230.154 29.094 229.792 33.6316 227.076 32.5639ZM231.422 37.6353C229.068 36.3008 229.611 38.5695 228.343 39.1034L232.327 38.5695C232.87 38.1692 233.776 37.3684 232.689 36.8346C231.784 36.4342 231.784 37.235 231.422 37.6353ZM230.154 43.2406C229.792 43.9079 231.241 44.3083 231.784 43.9079C231.784 43.641 231.965 43.5075 231.603 43.3741C231.241 43.1071 230.879 42.7068 230.154 43.2406ZM225.808 40.7049C226.17 41.2387 227.076 42.7068 227.8 42.9737C227.257 42.0395 227.438 40.1711 229.249 40.1711L229.068 39.9041C228.706 39.7707 228.162 39.6372 227.8 39.9041L226.533 38.703L225.627 39.1034L226.533 40.0376C226.533 40.3045 226.533 40.7049 225.808 40.7049ZM241.2 63.3929C241.2 63.6598 241.019 63.7932 241.2 63.9267L241.925 63.3929C241.562 63.2594 241.381 63.1259 241.2 63.3929ZM233.957 55.3853C233.414 56.1861 234.862 57.6541 235.768 56.9868C235.768 56.453 235.949 55.9192 235.225 55.3853C234.862 55.3853 234.319 55.2519 233.957 55.3853ZM229.43 53.7838C227.619 54.3177 229.792 55.2519 229.43 56.0526L231.241 55.2519L231.06 54.985C230.698 54.718 230.698 53.6504 229.43 53.7838ZM232.327 60.9906C232.327 60.5902 232.689 60.0564 232.508 59.656C230.879 58.5883 230.698 57.2538 228.343 57.2538L227.438 59.2556C229.249 59.3891 230.154 61.391 232.327 60.9906ZM243.735 80.609L244.822 80.2086L243.373 79.9417C243.192 80.2087 243.373 80.3421 243.735 80.609ZM244.822 83.9455C244.822 84.2124 244.46 84.3459 244.822 84.7462C245.727 84.7462 246.089 84.6128 246.089 83.9455C245.727 83.812 245.184 83.6786 244.822 83.9455ZM242.106 82.2105C241.743 82.7444 242.83 83.1447 243.373 83.0113C243.554 82.7444 243.373 82.6109 243.192 82.344C243.011 82.344 242.468 81.9436 242.106 82.2105ZM239.208 71.8008C238.303 71 237.035 71.8008 235.949 71.8008C235.949 72.735 233.776 73.1353 235.043 74.203C235.587 74.8703 237.398 75.6711 238.122 74.7368C238.665 73.8026 240.657 73.1353 239.208 71.8008ZM229.43 69.1316C229.43 69.265 229.249 69.532 229.611 69.6654L230.516 69.265L230.154 68.8647L229.43 69.1316ZM238.665 81.8102C238.665 82.0771 238.484 82.2105 238.846 82.344L239.57 82.0771L239.389 81.9436C239.208 81.8102 238.846 81.6767 238.665 81.8102ZM229.249 72.3346C228.706 73.1353 229.973 73.9361 229.611 74.7368L231.784 74.6034C231.784 74.3365 232.146 74.0696 231.784 73.8026C231.965 72.735 230.154 72.3346 229.249 72.3346ZM221.1 70.8665L220.738 71C220.738 71.4004 220.376 71.8008 220.557 72.0677C221.462 72.3346 221.825 71.2669 221.1 70.8665ZM231.784 86.7481C231.241 87.015 231.965 87.282 231.965 87.5489L233.233 86.8816C232.689 86.4812 232.508 86.2143 231.784 86.7481ZM223.816 75.5376C223.454 75.8045 222.549 75.8045 222.911 76.2049L224.36 75.8045C224.36 75.6711 223.998 75.6711 223.816 75.5376ZM216.03 65.5282L216.573 64.0602C214.762 64.1936 213.676 62.3252 212.046 63.5263L212.408 64.0602C214.219 63.3929 214.4 65.3947 216.03 65.5282ZM221.462 68.7312C220.738 66.8628 218.927 65.7951 217.841 64.0602L218.203 66.1955C217.298 66.9962 216.03 66.329 215.306 66.8628C214.581 67.3966 214.943 68.1974 215.125 68.7312C214.038 68.9981 214.4 70.4662 212.952 70.0658C212.589 70.4662 212.952 71 212.952 71.4004C214.762 70.8665 215.668 71.9342 217.479 71.9342C218.927 71.2669 222.006 70.5996 221.462 68.7312ZM226.714 90.218L227.438 89.6842L226.533 89.5508C226.171 89.8177 226.533 89.9511 226.714 90.218ZM231.784 99.0263C230.879 100.361 233.233 100.227 234.138 99.8271C234.138 99.5602 234.5 99.1598 233.957 98.8929C233.233 98.4925 232.508 98.4925 231.784 99.0263ZM213.857 76.2049C213.133 75.8045 211.865 75.4041 211.141 75.8045L210.96 76.0714C214.4 76.6053 210.779 79.8083 214.4 79.8083C212.77 79.0075 214.4 77.2726 213.857 76.2049ZM208.062 74.6034C207.338 75.1372 207.881 75.4041 208.606 75.6711L208.787 75.0038C208.787 74.8703 208.606 74.6034 208.062 74.6034ZM209.511 79.0075L209.873 78.3402L209.149 78.6071L209.511 79.0075ZM215.849 85.1466C214.038 86.4812 215.668 89.4173 218.022 88.8835C219.108 87.8158 220.195 86.6147 219.289 85.1466C218.203 84.3459 216.573 84.2124 215.849 85.1466ZM206.795 83.9455C205.889 83.5451 204.803 83.9455 203.898 84.0789C203.173 84.6128 203.173 85.547 203.716 86.2143C204.622 86.3477 205.346 87.282 206.252 86.8816C207.338 85.9474 207.519 84.8797 206.795 83.9455ZM203.898 93.0207L205.165 93.2876C205.889 93.0207 205.346 92.3534 205.527 91.8196C204.26 91.8196 203.716 90.3515 202.449 91.0188C202.087 91.953 201.543 93.2876 202.811 94.2218C204.26 94.6222 203.354 93.5545 203.898 93.0207ZM195.387 95.4229C195.568 94.4887 196.292 93.688 196.835 92.7538C196.473 92.3534 196.292 91.8196 195.568 91.6861C195.387 93.0207 192.127 94.7556 195.387 95.4229ZM224.179 132.925C225.265 133.058 226.533 132.258 226.171 131.323L224.722 131.056C223.092 130.923 224.722 132.258 224.179 132.925ZM196.654 96.0902C196.292 96.891 196.292 97.5583 196.654 98.2256C197.741 98.8929 199.008 99.6936 200.457 99.2932C201.362 98.8929 201 98.0921 201.181 97.4248C201.181 95.4229 198.465 95.2895 196.654 96.0902ZM191.765 96.0902C191.765 96.3571 191.584 96.4906 191.946 96.6241L192.852 96.2237L192.67 96.0902C192.489 95.8233 192.127 95.9568 191.765 96.0902ZM201.906 102.229C201 101.028 199.552 100.494 197.741 100.094C196.111 100.361 197.198 101.295 196.835 102.096C197.922 103.164 197.741 105.432 199.914 105.432C199.914 104.632 200.819 104.098 201.725 104.231C201.725 103.564 202.449 102.897 201.906 102.229ZM213.133 121.981C212.77 122.248 212.227 122.915 212.952 123.316C213.857 124.25 214.943 125.451 216.573 124.117C216.935 123.583 218.203 122.382 216.935 121.714C215.849 121.314 214.219 121.18 213.133 121.981ZM206.07 116.509C205.708 116.91 205.527 117.444 206.07 117.844C206.976 117.844 207.519 117.444 207.7 116.643C207.157 116.643 206.614 115.976 206.07 116.509ZM200.457 114.774L200.638 115.041L201.181 114.774L201 114.508L200.457 114.774ZM185.246 100.494C184.884 100.361 184.703 100.494 184.341 100.628C184.341 101.028 183.797 101.562 184.16 101.962C185.608 102.363 185.065 101.162 185.246 100.494ZM189.954 108.235C189.411 108.102 189.049 107.968 188.506 108.235C188.506 108.502 188.325 108.635 188.687 108.769C189.23 109.036 189.954 108.769 189.954 108.235ZM189.592 109.57C189.411 110.637 186.333 109.97 188.325 111.438C189.592 111.838 190.497 110.904 190.679 110.103C190.679 109.703 190.135 109.703 189.592 109.57ZM186.152 106.767C185.789 107.835 183.616 108.368 184.522 109.57C186.514 110.37 186.876 108.769 187.419 107.835C187.419 107.434 187.057 106.767 186.152 106.767ZM204.803 140.398C204.26 140.799 203.898 141.466 203.898 142H208.062C208.062 141.333 208.062 140.799 207.157 140.265C206.252 139.998 205.527 139.998 204.803 140.398ZM168.587 101.429L167.862 101.162L167.5 102.096C168.225 102.363 168.587 101.562 168.587 101.429ZM89.9974 4.00376C90.3595 4.27068 90.7217 4.53759 91.0839 4.80451C91.8082 4.80451 92.3514 4.67105 93.0758 4.67105C92.5325 4.13722 91.265 4.00376 89.9974 4.00376ZM171.846 115.442C171.846 115.175 171.484 115.175 171.303 115.175C170.941 115.308 170.579 115.308 170.579 115.709C170.941 115.976 171.665 115.976 171.846 115.442ZM172.208 117.31C171.846 117.711 172.389 117.844 172.57 118.244L173.838 117.711L173.476 117.31C173.114 117.177 172.752 117.043 172.208 117.31ZM185.789 126.252C184.16 127.72 181.806 128.521 180.9 130.389C182.168 131.724 184.884 132.658 187.6 133.058C191.403 133.325 188.325 130.256 191.584 129.989C192.127 128.788 193.395 127.453 191.222 126.519C189.773 125.451 187.6 125.451 185.789 126.252ZM172.027 113.573C175.106 111.838 177.641 109.57 178.003 106.633C181.624 106.633 179.633 103.831 178.546 102.763C177.46 102.897 177.279 103.697 176.554 104.098C174.381 103.964 174.743 102.496 173.114 101.562C170.397 100.494 168.949 103.164 166.233 103.297C164.965 102.763 163.335 103.43 163.697 104.365C159.714 104.231 164.241 106.1 161.887 107.301C158.265 109.436 162.249 111.705 162.249 113.974C165.87 115.041 168.406 114.107 172.027 113.573ZM166.776 116.242H165.87C164.241 116.509 163.697 118.778 165.87 118.511C167.319 118.244 167.5 116.776 166.776 116.242ZM159.352 113.306L159.895 113.974L160.619 113.707C160.076 113.707 160.076 112.639 159.352 113.306ZM167.5 120.513C164.784 121.848 167.862 124.25 170.216 123.449C170.941 123.182 172.027 123.049 171.846 122.382C172.027 121.581 171.303 121.581 170.941 120.914C169.854 121.047 168.768 119.712 167.5 120.513ZM160.438 116.376C160.076 116.91 159.352 117.977 159.895 118.645L161.343 118.912L161.887 117.711C161.343 117.31 161.706 116.376 160.438 116.376ZM149.03 105.432L148.124 105.032C147.4 105.299 146.857 105.833 147.219 106.367C148.306 107.034 148.668 105.966 149.03 105.432ZM162.611 129.455L163.335 128.654L162.43 128.521C162.43 128.788 162.249 129.055 162.611 129.455ZM158.989 125.985C158.627 125.985 158.446 125.852 158.265 125.985C158.265 126.118 158.084 126.385 158.446 126.519L159.17 126.252L158.989 125.985ZM140.7 102.363C140.7 103.297 139.614 103.831 140.157 104.632L141.243 104.365C141.787 103.297 144.141 103.03 143.235 101.562L140.7 102.363ZM158.808 129.321L160.076 128.788C159.895 128.654 159.714 128.387 159.352 128.387C159.17 128.788 158.808 128.921 158.808 129.321ZM62.6541 8.80827L63.3784 9.60902L63.9217 9.34211L63.5595 8.80827C63.0163 8.80827 62.6541 8.67481 62.6541 8.80827ZM69.3541 16.1485C69.3541 15.8816 68.992 15.8816 68.8109 15.8816C68.0866 15.8816 68.0865 16.4154 68.0865 16.6823C68.6298 16.9492 69.3541 16.6823 69.3541 16.1485ZM61.2054 8.4079H62.2919C62.8352 6.80639 67.1811 8.00752 66.6379 5.73872C64.8271 3.46993 63.0163 7.07331 61.0244 5.07143C57.946 6.80639 63.5595 6.27256 61.2054 8.4079ZM159.17 131.857C159.352 131.59 159.533 131.19 159.17 130.923C158.627 130.923 158.265 130.656 157.903 130.923C157.179 131.457 158.265 132.124 159.17 131.857ZM62.2919 10.6767C62.6541 9.20865 59.9379 9.34211 59.9379 8.27444L59.2136 8.54135C59.3947 9.60902 60.4811 10.9436 62.2919 10.6767ZM133.819 105.299L134.181 105.833L134.724 105.165C134.362 105.165 134 105.299 133.819 105.299ZM65.7325 16.015C66.0946 15.3477 66.2757 14.6805 65.5514 14.0132C63.9217 13.6128 62.6541 14.6805 61.2054 14.8139C62.2919 16.282 64.4649 14.8139 65.7325 16.015ZM53.9622 4.00376C54.5054 3.73684 53.7811 3.46993 53.7811 3.20301C53.2379 2.93609 52.8757 3.33647 52.5136 3.33647C51.9703 4.13722 53.6 4.13722 53.9622 4.00376ZM120.781 90.8853L120.419 91.953L122.592 92.6203L122.773 92.3534C121.868 91.8196 121.868 90.7519 120.781 90.8853ZM57.946 10.1429C55.0487 9.87594 57.2217 11.7444 56.6784 12.812C58.3081 13.4793 60.3 12.9455 62.1109 13.2124C63.1973 11.2105 59.2136 11.344 57.946 10.1429ZM68.0865 26.8252C68.4487 26.4248 67.7244 26.1579 67.7244 25.891L66.819 26.2914C67.1811 26.5583 67.5433 27.0921 68.0865 26.8252ZM57.7649 17.2162C57.5838 17.4831 57.7649 17.75 57.946 17.8835L58.4892 17.2162C58.1271 17.0827 57.946 16.9492 57.7649 17.2162ZM55.2298 13.6128C54.8676 13.4793 54.5055 13.6128 54.3244 13.7462C53.6001 14.2801 54.5055 14.9474 55.0487 14.4135C55.2298 14.1466 55.5919 13.8797 55.2298 13.6128ZM144.141 128.788C144.141 129.055 143.96 129.188 144.322 129.321L145.046 129.055L144.865 128.921C144.684 128.788 144.503 128.788 144.141 128.788ZM58.1271 20.8195L57.7649 20.2857C57.5838 20.4192 57.2217 20.4192 57.0406 20.2857C56.8595 20.5526 56.6784 20.953 57.0406 21.2199L58.1271 20.8195ZM140.881 119.712C140.519 118.778 139.433 118.645 138.889 117.977C137.441 117.977 135.811 117.844 134.906 118.511C135.63 119.445 135.63 120.78 134.724 121.447L139.251 121.848C139.614 121.581 140.157 120.914 139.433 120.513L140.881 119.712ZM45.6325 4.53759C46.719 4.13722 47.0811 3.33647 46.7189 2.53571C45.0892 2.66917 43.6406 2.80263 42.373 3.06955C41.8298 2.93609 41.2865 2.93609 40.9244 2.93609C41.1054 3.46993 41.2865 3.8703 41.6487 4.27068C42.7352 5.07143 44.546 5.4718 45.6325 4.53759ZM40.9244 5.07143L39.6568 4.67105L39.4757 5.33835L40.7433 5.60526L40.9244 5.07143ZM55.9541 28.1598C55.9541 28.0263 56.1352 27.7594 55.773 27.6259C55.4108 27.6259 55.0487 27.359 54.6865 27.4925C54.3244 28.1598 55.5919 28.2932 55.9541 28.1598ZM59.7568 32.297C59.5757 31.3628 58.6703 31.7632 57.946 31.7632C57.7649 32.1635 57.5838 32.4305 57.946 32.6974C58.8514 32.9643 59.7568 32.6974 59.7568 32.297ZM116.254 99.2932C114.624 99.9605 111.184 98.6259 111.727 101.162C113.176 100.628 116.616 101.429 116.254 99.2932ZM133.095 127.853C133.095 128.521 133.819 129.455 134.906 129.321C135.63 128.921 135.449 128.254 135.087 127.72C134.543 127.32 133.276 127.186 133.095 127.853ZM120.6 108.902C120.781 109.836 119.333 110.504 119.514 111.438L122.049 112.105L122.773 111.038C120.419 110.904 122.592 109.036 120.6 108.902ZM63.3784 39.2368C63.0163 39.2368 62.8352 39.1034 62.6541 39.2368C62.473 39.5038 62.6541 39.6372 62.8352 39.9041L63.3784 39.2368ZM109.735 99.6936C109.735 99.4267 109.373 99.4267 109.011 99.4267C108.83 99.5602 108.468 99.6936 108.468 99.9605C108.83 99.9605 109.735 100.227 109.735 99.6936ZM113.176 107.568C112.633 108.502 114.443 108.635 114.987 108.368C115.349 107.701 114.262 107.434 113.719 107.034C113.357 107.167 112.995 107.301 113.176 107.568ZM99.9569 91.2857C97.965 92.8872 101.587 92.8872 102.492 93.9549C102.854 92.8872 101.405 92.6203 101.949 91.5526C101.405 91.1523 100.5 90.8853 99.9569 91.2857ZM109.735 102.897C109.011 104.098 108.468 106.9 112.089 106.1C112.995 105.432 114.262 104.632 114.262 103.697C112.814 103.43 111.003 101.429 109.735 102.897ZM46.5379 26.2914C47.2622 26.4248 47.6244 27.0921 48.3487 26.6917C51.6082 27.6259 51.9703 24.5564 52.5136 23.2218C52.1514 21.4868 51.7892 19.0846 49.7973 17.8835C46.9 18.5508 43.8217 20.0188 43.4595 22.2876C46.719 22.688 44.0027 25.0902 46.5379 26.2914ZM29.5162 5.4718C29.3351 5.07143 28.7919 5.07143 28.4298 4.93797C28.4298 5.20489 27.8865 5.47181 28.2487 5.73872C28.6108 5.73872 29.5162 6.00564 29.5162 5.4718ZM80.5812 69.265C79.6758 69.265 78.046 68.4643 77.8649 68.9981L79.6758 70.3327C80.5812 70.3327 80.4001 69.6654 80.5812 69.265ZM86.3758 78.4737L86.0136 79.4079L87.4622 78.7406L86.3758 78.4737ZM26.8 2.93609C26.6189 2.53571 26.0757 2.66917 25.7135 2.53571C25.5325 2.80263 25.8946 3.06955 26.0757 3.33647L26.8 2.93609ZM76.7785 67.2632L75.1487 66.8628C74.9676 67.1297 75.1487 67.3966 75.3298 67.6635C76.0541 67.797 76.7785 67.797 76.7785 67.2632ZM23.3595 2.66917C23.7216 2.80263 24.0838 2.80263 24.2649 2.53571C23.9027 2.66917 23.5406 2.66917 23.3595 2.66917ZM88.0055 87.1485C87.2812 87.8158 88.5487 88.4831 89.273 88.2162C89.273 87.9492 89.6352 87.5489 89.4541 87.1485C88.9109 87.015 88.5487 86.7481 88.0055 87.1485ZM98.5082 102.096C98.5082 101.695 99.0514 101.162 98.5082 100.761C98.146 100.628 97.7839 100.761 97.6028 100.895C96.8785 101.429 97.6028 102.496 98.5082 102.096ZM49.6163 41.2387C50.7027 41.6391 50.3406 40.7049 50.7028 40.438L50.3406 40.3045C50.1595 40.5714 49.6163 40.8383 49.6163 41.2387ZM39.4757 30.9624C39.4757 30.6955 40.019 30.4286 39.6568 30.1617C39.1135 29.8947 38.7514 30.2951 38.3892 30.4286C38.0271 30.9624 38.9325 31.4962 39.4757 30.9624ZM111.365 119.445C110.097 120.513 109.554 121.981 110.822 123.316C112.27 123.583 113.538 123.983 114.806 123.583C116.073 122.648 118.246 121.848 117.884 120.246C116.254 119.179 113.357 117.844 111.365 119.445ZM75.6919 78.4737C75.5109 80.0752 78.2271 79.5414 79.4947 79.5414C80.9433 78.6071 79.6757 77.406 78.046 77.2726C77.1406 77.406 77.1406 78.0733 76.9595 78.6071C76.5974 78.3402 76.0541 78.0733 75.6919 78.4737ZM103.76 109.57C100.319 109.303 102.311 111.705 101.224 112.372L101.587 112.506L102.311 111.438C102.854 111.438 103.216 111.972 103.76 112.105C104.665 112.372 104.846 111.438 105.389 111.171C105.208 110.37 105.389 109.436 103.76 109.57ZM95.2487 101.162C94.1622 101.695 93.8001 102.63 93.0758 103.297C94.5244 103.43 96.3352 104.098 97.0595 103.03C96.6974 102.096 96.6974 101.295 95.2487 101.162ZM68.2676 72.468L72.7947 73.4023C73.3379 73.1353 74.0622 73.1353 74.2433 72.6015C74.0622 72.0677 73.519 72.0677 73.1568 71.9342L74.0622 70.8665C74.0622 70.1993 73.1568 70.4662 72.6136 70.4662C72.4325 68.4643 69.3541 68.8647 67.9055 68.0639L68.8109 69.6654C66.819 70.4662 69.7163 71.6673 68.2676 72.468ZM73.1568 78.3402C73.3379 78.0733 73.519 77.6729 73.1568 77.406C72.6136 77.5395 71.5271 77.1391 71.346 77.8064C71.7082 78.3402 72.7947 78.4737 73.1568 78.3402ZM75.6919 81.5432L74.4244 81.1429C74.4244 81.4098 74.0622 81.6767 74.4244 82.0771C75.1487 82.344 75.6919 82.0771 75.6919 81.5432ZM65.3703 69.265L65.0082 69.1316C64.646 69.265 64.2839 69.265 64.2839 69.6654L65.0082 69.9323L65.3703 69.265ZM56.4974 58.9887L55.9541 58.3214C55.5919 58.188 55.2298 57.9211 54.8676 58.188C55.773 58.0545 55.5919 59.3891 56.4974 58.9887ZM70.9839 79.141C70.8028 79.4079 70.9838 79.5414 71.1649 79.8083L72.0703 79.4079C71.7082 79.141 71.346 79.141 70.9839 79.141ZM60.4811 64.8609C60.119 64.8609 59.5757 64.594 59.2136 64.8609C59.2136 65.1278 58.8514 65.5282 59.3946 65.7951C60.4811 66.062 60.3001 65.1278 60.4811 64.8609ZM16.8405 10.0094L16.6595 9.74248L15.573 10.1429L15.7541 10.4098L16.8405 10.0094ZM96.8785 111.038C95.4298 111.571 96.5163 112.639 96.5163 113.44C97.7839 113.573 99.9568 114.641 100.138 113.039C99.5947 112.239 98.146 111.305 96.8785 111.038ZM52.5136 56.7199C52.1514 56.8534 52.1514 57.1203 52.1514 57.1203L53.7811 57.5207C53.6001 57.1203 53.0568 56.7199 52.5136 56.7199ZM42.373 45.9098C42.5541 45.6429 42.373 45.5094 42.1919 45.2425C41.8298 45.2425 41.2865 44.9756 41.1054 45.109C40.5622 45.7763 41.6487 46.1767 42.373 45.9098ZM52.5136 59.7895L52.6946 59.1222L51.4271 58.8553C51.246 59.5226 51.9703 59.7895 52.5136 59.7895ZM31.8703 35.3665C32.5946 35.6335 33.8622 35.7669 34.0433 34.9662L32.9568 34.5658C32.4135 34.5658 31.8703 34.8327 31.8703 35.3665ZM64.8271 73.4023L63.3784 72.8684C62.6541 72.468 61.7487 72.8684 61.7487 73.5357L64.646 74.0695L64.8271 73.4023ZM34.5865 38.8365C34.4054 39.1034 34.7676 39.3703 34.7676 39.5038L35.4919 38.8365C35.1298 38.5696 34.9487 38.703 34.5865 38.8365ZM50.7028 57.5207L49.9784 57.7876C49.2541 58.0545 49.7973 58.5883 49.7973 58.9887C50.8838 59.656 51.0649 58.7218 51.246 58.188C51.4271 57.6541 50.7028 57.9211 50.7028 57.5207ZM60.3 71.9342C60.119 71.4004 60.8433 71.5338 61.0244 71.2669C61.9298 73.0019 64.2838 71.2669 65.9136 71.6673C65.7325 71.4004 65.1892 71.4004 65.0082 71.2669C60.6622 72.0677 65.0082 68.9981 63.5595 67.6635C60.3 65.9286 60.8433 70.1992 59.3946 70.1992C58.3081 71.1335 59.5757 71.4004 60.3 71.9342ZM68.6298 74.3365L67.1811 73.6692C65.7325 74.8703 62.1109 74.203 63.0163 76.6053C66.0946 79.0075 67.5433 75.938 68.6298 74.3365ZM66.2757 79.4079C66.2757 79.141 65.7325 79.2744 65.3703 79.0075C65.3703 79.141 65.3703 79.4079 65.1893 79.4079C65.0082 80.2086 66.6379 80.3421 66.2757 79.4079ZM26.4378 29.2274C26.6189 29.094 26.8 28.8271 26.4378 28.8271C25.8946 28.8271 25.5325 28.5602 25.3514 28.6936C24.8081 29.2274 26.0757 29.3609 26.4378 29.2274ZM53.9622 66.9962C55.0487 66.9962 56.3163 66.4624 56.3163 65.2613C55.773 64.9944 55.4108 65.5282 54.8676 65.6617C54.6865 66.1955 52.8757 66.1955 53.9622 66.9962ZM91.2649 90.7519C90.3595 89.0169 87.6433 89.0169 86.1947 87.9492C85.1082 84.4793 80.7622 88.0827 77.8649 86.8816C74.6055 86.3477 74.4244 88.8835 72.0703 89.8177C70.9838 91.4192 72.7946 94.6222 75.6919 95.2895C76.9595 97.8252 80.7622 96.2237 83.1163 97.6917C89.6352 98.359 88.5487 93.2876 91.2649 90.7519ZM49.7973 65.1278L51.6082 65.3947C51.0649 63.9267 54.6865 63.5263 53.2379 62.1917L52.3325 62.5921C51.9703 63.5263 48.3487 63.1259 49.7973 65.1278ZM38.7514 47.6447C40.0189 46.844 40.3811 48.4455 41.2865 48.7124C43.0973 48.7124 43.4595 47.5113 44.0027 46.5771C41.2865 48.1786 39.2946 45.6429 37.3027 44.9756C35.8541 44.9756 34.0433 45.6429 34.4054 46.9774C36.2163 46.4436 37.1216 48.0451 38.7514 47.6447ZM43.0973 41.7726C38.2081 44.7086 47.8054 44.7087 45.8135 47.7782C48.8919 48.1786 45.2703 49.9135 47.0811 50.7143C49.073 51.1147 49.7973 52.8496 51.9703 51.6485L52.6946 53.1165C49.073 55.5188 46.719 49.5132 43.2784 53.3835L40.3811 51.9154C37.6649 51.9154 40.0189 53.6504 40.0189 54.5846C41.1054 54.718 41.6487 54.5846 42.7352 53.9173C44.546 55.7857 47.2622 55.2519 49.4352 54.3177C50.5217 54.5846 52.8757 53.3835 52.5136 55.1184C55.2298 56.1861 57.7649 57.6541 59.9379 59.3891C59.3946 60.1899 61.0244 61.391 58.8514 61.5244C58.4893 61.9248 57.946 62.859 58.4892 62.9925C61.0244 62.859 61.3865 65.6617 62.6541 66.4624C62.473 65.5282 63.7406 64.4605 63.5595 63.1259C66.6379 60.5902 66.4568 65.6617 68.992 64.7274C68.2676 64.8609 67.5433 65.3947 67.7244 65.9286C71.5271 66.7293 67.1811 64.0602 70.0784 63.9267C70.8028 64.1936 72.0703 63.5263 72.4325 64.594C72.6136 64.8609 72.2514 65.1278 71.8893 65.2613C71.7082 65.7951 72.2514 66.3289 73.1568 66.3289C73.519 65.2613 74.9676 65.2613 76.0541 64.594C75.3298 64.4605 74.2433 64.3271 74.6055 63.6598C76.5974 63.2594 78.7703 62.9925 80.7622 63.6598C80.0379 65.2613 75.873 62.859 77.1406 65.5282C77.8649 66.1955 78.046 67.797 79.6758 67.3966C80.4001 68.4643 82.0298 68.7312 83.1163 67.797L81.6676 66.7293C83.2974 64.8609 80.219 63.1259 82.573 61.5244C83.1163 61.391 84.0217 61.6579 84.0217 62.1917C83.2974 64.594 86.1947 64.1936 86.1947 66.7293C85.8325 67.1297 85.2893 66.8628 84.9271 66.7293C85.1082 66.4624 84.9271 66.329 84.746 66.062C84.2028 65.9286 83.8406 65.7951 83.2974 66.062L84.5649 67.9305C83.2974 67.797 83.2974 68.5978 82.573 68.8647C83.8406 72.0677 77.3217 70.4662 75.5109 72.2011C74.7866 75.1372 80.219 73.2688 80.7622 75.938C82.7541 77.1391 84.746 76.2049 86.3758 75.6711C87.1001 76.8722 89.092 78.4737 89.9974 79.8083C91.446 81.4098 94.5244 80.609 96.3352 81.4098C96.1541 83.0113 93.9812 81.5432 93.0758 82.7444C91.8082 82.4774 89.2731 82.344 88.5487 82.7444C88.7298 83.0113 89.4541 83.0113 89.8163 83.1447C88.0055 85.9474 93.2568 83.5451 92.8947 85.8139C94.3433 87.015 96.1541 88.2162 98.5082 88.2162C98.5082 88.4831 98.146 88.6165 98.5082 89.0169C99.0514 89.0169 99.9568 89.5508 100.681 89.1504V88.2162C101.043 87.8158 101.587 88.0827 101.949 88.2162L101.587 89.2838C104.303 89.1504 102.854 91.6861 105.389 91.5526C105.208 92.2199 104.303 93.0207 105.208 93.4211C107.019 95.4229 109.554 93.4211 111.727 93.2876C111.908 94.8891 109.554 94.0884 109.011 95.156C109.373 96.6241 110.822 95.156 111.727 95.4229C112.451 96.891 114.987 94.7556 115.53 96.7575C117.703 97.8252 120.6 98.0921 122.954 97.2914C124.222 95.9568 121.506 95.6899 121.687 94.4887C116.797 94.8891 119.151 90.0846 118.246 89.4173L121.143 88.75C122.049 90.218 123.497 88.4831 124.584 88.8835C124.765 89.1504 124.946 89.4173 124.765 89.5508L125.851 89.6842C126.033 91.6861 122.954 93.4211 124.041 95.2895C124.946 96.6241 126.214 98.4925 126.938 99.9605C128.387 100.094 130.016 100.361 130.922 99.6936C130.741 100.227 131.284 100.761 132.189 100.761C131.646 98.2256 135.811 99.4267 137.441 98.2256C142.149 92.6203 131.103 95.2895 130.016 91.4192C131.103 90.7519 132.37 91.0188 133.457 91.0188C135.268 92.8872 138.346 93.4211 141.062 93.2876C140.881 92.7538 140.338 91.6861 141.787 91.5526C145.951 91.0188 142.692 94.8891 145.77 94.4887C143.054 95.9568 144.503 98.4925 143.597 100.494C144.684 100.227 146.133 101.562 146.676 100.361C146.857 100.494 147.4 100.361 147.581 100.761C150.297 100.761 152.289 99.1598 153.014 97.2914C152.47 93.9549 158.265 97.0244 160.619 95.6899C162.973 95.9568 161.706 93.9549 161.887 93.1541C163.697 91.5526 163.516 94.4887 165.146 93.8214L164.965 94.7556C164.965 96.4906 167.319 96.7575 169.13 97.4248C170.579 96.891 172.752 97.1579 173.476 95.6899L174.743 96.2237C174.019 95.0226 176.373 95.2895 176.373 94.4887C176.373 94.2218 175.83 94.3553 175.468 94.0883C175.83 93.4211 175.287 92.0865 176.916 91.953C180.176 94.8891 182.711 90.6184 185.246 90.6184C184.884 91.1523 184.884 91.953 184.341 92.2199C188.325 93.5545 185.427 89.8177 186.695 89.8177C188.143 90.6184 188.325 91.8195 187.781 92.8872L188.506 93.1541C189.773 92.8872 188.868 92.0865 189.411 91.5526L190.316 91.6861C190.86 89.9511 192.308 90.218 194.119 89.5508C196.111 88.75 197.741 87.4154 197.56 85.547C195.568 85.2801 193.395 84.2124 191.946 85.4135C191.041 84.4793 190.316 83.9455 190.497 83.0113L187.057 84.0789C185.608 83.812 186.876 82.7444 186.876 82.0771C189.592 82.0771 187.238 78.6071 190.679 79.4079C192.67 81.1429 193.938 83.4117 196.835 84.2124C198.646 83.4117 201 84.6128 202.449 82.8778C205.165 82.7444 204.622 80.0752 206.795 79.141C205.527 77.5395 206.795 75.1372 203.535 75.1372C201.725 74.203 201.906 72.468 203.535 71.6673C202.63 70.7331 201.543 72.468 200.819 71.2669C200.819 70.3327 202.268 70.3327 202.992 69.9323C204.26 69.6654 204.803 70.7331 205.708 71.1335L206.614 70.1992C207.7 70.3327 206.614 71 207.519 71.4004C208.968 72.0677 209.149 70.4662 210.598 70.4662C209.511 70.0658 209.511 68.9981 209.692 68.3308L211.503 68.8647C212.046 68.3308 210.96 67.9305 211.322 67.3966C212.227 66.4624 210.597 65.3947 212.408 64.7274L210.779 64.0602L210.235 65.5282C207.881 66.4624 207.338 63.1259 205.708 63.2594C203.535 64.594 203.535 67.1297 205.346 68.8647C202.63 69.1316 202.268 66.5959 199.552 66.8628L200.276 66.062C198.827 64.1936 202.449 64.594 202.811 63.5263L201.543 63.2594L201.725 62.5921L203.354 62.859C205.527 61.5244 201.906 61.1241 203.173 59.5226L201.725 59.1222C201 59.3891 201.181 60.1899 200.457 60.4568C199.914 60.4568 199.733 60.1899 199.733 60.0564C200.457 59.5226 201 58.8553 202.087 58.5883C204.079 59.2556 204.803 56.8534 206.976 57.3872L206.252 58.188L208.787 58.7218C211.322 57.9211 207.338 57.2538 208.425 56.0526C209.149 54.8515 210.96 55.3853 212.408 55.3853C214.219 56.3196 214.038 57.6541 212.408 58.4549C213.133 58.7218 213.676 58.188 214.219 58.0545C215.125 58.5883 216.573 58.5884 216.935 59.7895C214.943 61.7914 219.289 61.7914 220.014 63.1259C221.825 63.9267 222.911 62.3252 224.179 62.4587C225.084 62.0583 227.619 62.1917 227.619 61.2575C227.619 59.1222 225.808 57.2538 223.635 55.6523C222.006 56.8534 219.47 56.1861 219.652 57.7876C218.203 57.6541 216.754 58.0545 215.487 57.6541L215.668 57.3872C217.116 57.1203 216.573 55.5188 216.03 54.718C215.125 53.9173 214.038 54.718 212.952 54.3177C212.771 54.1842 212.589 53.9173 212.77 53.6504C214.581 52.1823 215.849 53.5169 217.298 53.7838C217.479 52.4493 214.581 52.7162 214.943 51.2481C215.125 51.1147 215.306 51.2481 215.668 51.2481C215.849 51.3816 215.668 51.515 215.668 51.782C217.116 52.4493 218.384 51.2481 219.47 52.3158C220.738 53.1165 222.911 54.3177 222.368 55.5188C224.541 53.5169 224.903 57.5207 227.076 56.7199C229.249 54.3177 222.73 54.5846 224.903 52.9831C225.808 52.7162 226.714 52.9831 226.895 53.7838C227.257 53.5169 227.981 53.6504 227.8 53.1165C226.17 52.7162 226.895 50.3139 226.352 49.3797C225.265 48.1786 228.343 46.7105 226.352 45.5094C229.068 44.9756 224.903 43.9079 225.989 42.8402C224.541 41.5056 222.187 42.5733 220.919 42.8402C219.833 41.6391 222.006 42.3064 222.368 41.6391C223.092 40.9718 222.006 40.3045 222.549 39.5038C220.014 38.8365 223.454 37.3684 220.557 36.968C221.281 35.9004 219.471 35.6335 220.195 34.5658C221.1 34.5658 222.187 34.1654 223.273 34.032C223.635 33.2312 223.816 32.4304 223.454 31.6297C222.006 30.8289 220.738 28.5601 218.384 29.6278C218.203 29.3609 217.841 29.2274 218.203 28.9605C220.014 27.8929 221.281 29.094 222.73 29.3609C222.911 28.6936 221.1 27.4925 223.273 27.359C223.273 25.0902 225.084 24.0226 226.171 22.2876C225.084 22.1541 225.265 23.7556 223.816 23.3553C223.454 22.4211 224.36 21.4868 223.092 20.5526C223.092 19.6184 224.903 18.6842 224.903 17.6165L224.179 17.8835C222.006 16.015 222.549 19.3515 220.195 18.4173C218.384 17.8835 220.738 17.0827 220.376 16.5489C220.014 16.4154 219.833 16.5489 219.47 16.6823L216.754 14.1466C218.203 13.4793 218.746 11.8778 218.565 10.6767L219.47 10.8102C220.195 10.6767 222.368 10.4098 221.643 9.47556C220.557 9.87594 218.746 9.87594 218.203 9.60902C217.116 8.27444 214.219 8.00752 212.589 8.80827C212.227 7.47368 209.692 8.67481 209.692 7.34023C210.779 6.93985 211.865 6.53947 211.865 5.33835C211.865 3.06955 209.149 5.20489 207.7 4.40414C204.622 4.67105 203.173 1.06767 200.095 2.66917C200.095 2.53571 199.914 2.53571 199.914 2.40226C199.733 3.06955 199.733 3.46992 199.733 4.00376C199.914 4.13722 200.095 4.40414 199.914 4.67105C199.914 4.67105 199.733 4.67105 199.733 4.80451C199.733 4.93797 199.733 5.20489 199.552 5.33835C199.189 5.33835 198.646 5.4718 198.284 5.4718C197.922 5.60526 197.379 5.87218 196.835 6.1391C196.835 6.00564 197.016 5.73872 197.016 5.60526C195.93 5.73872 194.843 5.73872 193.938 5.73872C193.938 5.73872 193.938 5.87218 193.757 5.87218C193.395 5.87218 193.214 5.87218 192.852 5.73872C191.946 5.73872 191.222 5.73872 190.679 5.60526C191.946 5.4718 192.127 6.00564 191.946 6.80639C187.057 8.4079 181.443 6.40602 175.649 6.1391C175.649 7.47368 173.114 7.07331 172.208 7.87406C168.587 3.33647 158.446 8.40789 154.281 6.00564C154.281 4.27068 157.903 5.33835 158.446 4.00376C158.446 3.20301 156.454 3.8703 156.454 3.06955C157.722 2.93609 158.084 2.2688 158.808 1.73496C156.816 1.46805 157.179 1.33459 157.179 0.533835C156.092 0.266917 155.73 0.800752 155.187 0.934211C154.824 0.667293 154.824 0.133459 154.281 0C149.935 0.133459 143.416 0.667293 138.165 0.934211C137.622 1.6015 136.173 1.73496 135.811 2.40226C130.741 1.33459 123.497 4.40414 120.419 1.86842C119.695 3.33647 116.073 1.46805 114.987 2.66917C119.333 4.27068 124.765 2.66917 127.662 4.27068C128.206 5.20489 125.851 4.27068 126.033 4.93797C127.119 4.80451 127.662 5.07143 128.024 5.4718C128.024 4.93797 128.206 4.53759 128.387 4.27068C130.922 4.40414 132.008 5.33835 133.638 6.00564C134.543 5.4718 136.897 4.53759 137.622 5.87218C137.441 6.67293 134.906 5.73872 134.906 6.67293C135.811 7.20677 137.622 7.20677 137.079 8.54135C135.087 8.14098 133.095 8.67481 131.465 8.4079C130.922 8.27444 130.741 7.7406 130.197 7.7406C128.749 7.60714 126.576 8.67481 124.765 8.54135C123.497 8.4079 123.497 7.20677 121.868 7.47368C121.687 6.53947 121.143 5.87218 120.6 5.07143C118.246 5.07143 119.151 6.67293 120.238 7.07331C116.978 7.60714 112.814 7.07331 109.916 6.80639C108.83 6.00564 110.097 5.87218 109.735 5.20489C106.838 5.20489 104.122 4.93797 101.587 4.80451C101.587 4.93797 101.405 5.07143 101.224 5.20489C101.768 5.4718 102.854 5.73872 102.13 6.40602L100.319 5.4718C99.9569 6.1391 99.9568 6.93985 100.138 7.60714C103.397 7.07331 106.476 5.60526 108.287 7.7406C103.76 8.80827 99.0514 9.34211 93.8001 8.94173C92.7136 9.47556 92.1703 10.4098 89.8163 10.0094C89.092 9.47556 90.5406 9.07519 90.9028 8.4079C90.3596 8.00752 89.8163 7.34023 89.8163 6.67293L88.9109 5.4718C87.1001 5.4718 84.9271 6.1391 84.3839 4.93797C84.5649 4.80451 84.746 4.67105 85.1082 4.67105C84.3839 4.27068 83.8406 4.00376 83.1163 4.00376L83.2974 5.4718C80.219 6.40602 83.4785 3.33647 80.5812 3.20301C79.6758 3.20301 80.0379 3.8703 79.8568 4.27068C79.4947 4.27068 79.1325 4.80451 78.7704 4.40414C78.2271 3.46993 78.9514 2.53571 80.219 2.40226L79.6758 2.00188C79.1325 1.86842 78.7703 1.6015 78.2271 1.6015C77.5028 1.73496 77.3217 2.13534 77.1406 2.66917C74.6055 2.53571 70.8028 2.53571 70.0784 1.46805C69.8974 1.73496 69.7163 2.00188 69.5352 2.2688C69.5352 2.40226 69.5352 2.40226 69.5352 2.53571H69.3541C68.9919 2.93609 68.4487 3.33647 68.0865 3.73684C68.4487 4.67105 68.0865 6.93985 69.8974 7.7406C70.6217 7.60714 70.4406 6.93985 70.6217 6.53947L72.6136 6.93985L72.7947 6.67293C70.9838 6.53947 69.7163 5.60526 68.6298 4.53759L72.0703 2.93609C72.9757 3.06955 74.4244 3.33647 74.0622 4.13722C73.3379 4.40414 72.2514 4.13722 72.2514 5.07143C74.7866 6.93985 74.7865 3.73684 77.5028 4.80451C79.4947 7.60714 73.7001 5.73872 74.6055 8.54135C72.4325 6.67293 71.5271 9.47556 69.7163 9.47556L69.3541 8.14098C66.819 7.60714 68.9919 10.5432 66.2757 9.60902C66.4568 10.8102 63.7406 10.0094 64.2839 11.4774C65.1893 12.0113 65.7325 10.9436 66.6379 11.344C66.2757 12.4117 67.7244 13.0789 68.6298 13.6128C69.7163 14.1466 72.6136 14.1466 71.7082 12.5451L72.9757 13.0789L73.8811 12.0113C74.9676 12.0113 73.8812 12.6786 74.6055 12.9455C78.9514 11.7444 74.4244 14.8139 76.4163 15.7481C74.9676 16.5489 74.7865 14.8139 73.8811 14.6805L72.9757 17.0827C74.0622 17.0827 75.3298 17.4831 76.4163 16.9492V17.2162C75.5109 18.5508 72.9758 18.9511 70.9839 18.8177C67.3622 16.1485 68.6298 21.7538 64.8271 19.7519C64.8271 18.0169 62.2919 19.3515 61.3865 18.4173L61.2054 19.0846C62.1109 20.1523 62.8352 21.4868 64.646 21.2199C64.4649 21.6203 64.646 22.1541 65.0082 22.4211C67.3622 23.0883 65.7325 21.3534 66.819 20.8195C67.1811 20.8195 67.3622 20.953 67.5433 21.2199C67.1811 22.2876 69.3541 22.0207 70.2595 22.4211L69.3541 24.0226L70.0784 24.156L70.4406 23.6222C70.6217 23.4887 70.8028 23.6222 71.1649 23.6222C71.8892 24.156 73.1568 25.2237 72.6136 26.1579C71.8892 26.5583 71.1649 26.6917 70.2595 26.6917C70.0784 27.6259 71.8892 28.4267 71.1649 29.2274C70.0784 29.094 68.992 29.2274 68.6298 28.1598C67.5433 29.6278 68.8109 31.0959 69.8974 32.8308C68.0865 33.765 67.9055 31.3628 66.0947 31.4962C66.6379 30.2951 64.4649 29.7613 64.2839 28.8271C63.1974 29.094 64.8271 29.6278 64.1028 30.1617H63.5595C60.6622 30.9624 64.4649 31.8966 64.2839 32.8308C66.819 31.6297 66.819 34.6992 68.992 34.4323L67.1811 35.3665C66.819 36.4342 68.4487 37.235 69.3541 38.1692C70.0784 37.7688 70.2595 36.8346 71.5271 36.968L72.4325 39.7707H71.8893C70.8028 40.0376 70.2595 39.2368 69.8974 38.8365L69.5352 39.5038L67.9055 38.8365C64.4649 39.1034 67.3622 42.4399 63.9217 42.1729C64.8271 44.4417 61.2055 43.9079 60.6622 45.109L59.2136 43.3741C60.119 42.7068 60.6622 43.2406 61.7487 43.3741C61.9298 42.1729 62.1109 41.3722 61.9298 40.1711C61.2055 39.9041 60.6622 40.1711 60.119 40.1711C59.9379 42.1729 56.6784 40.5714 55.5919 41.6391C55.5919 40.7049 55.773 39.9041 57.2217 39.2368C56.8595 38.8365 56.3163 38.8365 55.773 38.8365L55.2298 39.7707C54.1433 39.5038 53.0568 39.5038 52.3325 40.0376C50.7027 40.9718 53.419 41.1053 53.6 41.7726C53.419 42.4398 53.0568 43.5075 51.7892 42.9737C53.2379 44.3083 49.9784 44.3083 49.9784 44.9756L48.7108 42.9737C52.6946 38.0357 43.2784 42.3064 44.0027 38.703C42.0108 39.7707 43.8216 41.1053 43.0973 41.7726ZM199.914 3.46993C199.733 2.66917 201 2.13534 200.638 1.33459C200.095 1.6015 199.733 1.73496 199.189 1.86842C199.008 1.46805 199.189 1.33459 199.552 1.06767C199.189 1.20113 198.827 1.46805 198.465 1.46805C198.284 1.46805 198.284 1.6015 198.284 1.73496C198.646 2.40226 199.008 3.06955 199.914 3.46993ZM197.56 4.00376L196.292 4.80451C196.654 5.07143 197.016 5.20489 197.197 5.20489C197.56 4.80451 197.56 4.53759 197.56 4.00376ZM193.033 4.80451L193.214 4.40414C193.033 4.00376 192.67 3.73684 192.127 3.60338C192.308 3.33647 192.308 3.06955 192.308 2.80263C190.497 2.80263 188.325 2.93609 186.333 3.06955C188.868 3.20301 190.135 4.27068 191.584 5.07143C191.946 4.93797 192.489 4.80451 193.033 4.80451ZM202.449 0.533835C202.087 1.06767 202.087 1.73496 201.906 2.13534C203.716 3.73684 204.26 1.20113 205.527 0.667293C206.433 0.934211 206.614 0.800752 206.795 0.533835H202.449ZM106.838 3.73684C106.476 3.8703 106.295 3.8703 105.933 3.73684C106.114 4.53759 108.468 3.8703 109.554 4.13722C109.554 3.46993 108.106 3.73684 106.838 3.73684ZM97.4217 8.94173C97.0595 8.94173 96.6974 8.80827 96.5163 8.80827H96.6974C96.8785 8.94173 97.2406 8.94173 97.4217 8.94173ZM89.4541 4.93797C89.2731 4.67105 89.2731 4.40414 88.7298 4.40414C88.0055 4.80451 87.1001 4.93797 86.7379 5.33835C87.6433 5.20489 88.5487 5.07143 89.4541 4.93797ZM74.2433 99.5602C73.8812 99.2932 73.8812 98.6259 73.3379 98.6259C72.7947 98.8929 72.9757 99.2932 72.6136 99.6936L74.2433 99.8271V99.5602ZM34.9487 52.5827C36.0351 53.1165 37.1216 52.7162 36.9406 51.782L37.846 51.9154C38.3892 51.9154 38.9325 51.6485 38.9325 51.1147C38.5703 49.1128 37.1216 49.1128 34.9487 49.6466C34.0433 50.3139 33.6811 51.6485 34.9487 52.5827ZM37.6649 54.985L36.9406 54.8515L36.5784 55.3853L37.4838 55.5188L37.6649 54.985ZM64.8271 91.5526C64.646 91.953 65.0082 92.4868 64.8271 92.8872C66.0946 93.2876 67.1811 92.4868 67.7244 91.6861C67.7244 90.485 65.9136 91.5526 64.8271 91.5526ZM27.7054 46.7105C28.6108 47.1109 30.2406 47.6447 31.146 47.1109C31.146 46.7105 31.6892 46.0432 30.9649 45.6429C29.8784 45.5094 28.6108 44.7086 27.5243 45.3759C27.3433 45.9098 27.7054 46.3102 27.7054 46.7105ZM30.2406 48.0451L29.3352 48.4455C29.3352 48.7124 28.973 49.1128 29.1541 49.5132L31.146 49.2462L30.2406 48.0451ZM24.627 44.7086L27.1622 43.9079L24.446 42.9737C23.9027 43.5075 24.0838 44.1748 24.627 44.7086ZM10.5027 24.9568L9.95947 25.2237C9.95947 25.4906 9.5973 25.891 9.77838 26.2914C10.5027 26.2914 11.7703 25.4906 10.5027 24.9568ZM21.3676 32.1635L20.6433 31.6297C20.6433 29.4944 20.4622 27.2256 18.2892 26.1579C19.3757 28.8271 15.573 26.8252 14.4865 28.2932C13.5811 29.8947 14.3054 31.6297 14.8487 33.2312C17.5649 35.2331 19.0135 31.7632 21.3676 32.1635ZM6.51891 25.4906C5.97567 24.9568 4.88917 24.8233 4.16485 24.6898L3.25944 26.2914L4.16485 26.4248C4.88917 26.4248 6.51891 26.2914 6.51891 25.4906ZM39.6568 71.8008C39.6568 72.2011 38.9325 72.735 39.6568 73.1353C40.3811 73.2688 41.1054 72.8684 40.9244 72.3346C40.9244 71.5338 40.2 71.8008 39.6568 71.8008ZM53.2379 79.2744C53.0568 78.0733 51.7892 76.7387 50.1595 76.6053C49.6163 78.6072 47.0811 76.8722 45.6325 77.9399C44.3649 78.8741 45.8135 79.9417 45.4514 81.1429C47.4433 81.9436 49.4352 81.4098 50.5217 80.609C51.9703 81.6767 53.2379 80.2086 53.2379 79.2744ZM37.846 63.9267C36.5784 62.9925 34.4054 62.9925 32.5946 62.9925C30.6027 63.9267 30.4216 65.5282 32.2324 66.9962C33.8622 67.6635 35.8541 67.797 37.6649 67.6635C38.3892 66.7293 38.7514 64.9944 37.846 63.9267ZM87.4622 137.596C86.7379 137.863 85.8325 138.263 85.8325 138.797C86.5568 139.197 88.1866 139.598 88.5487 138.797C88.9109 138.263 88.3676 137.596 87.4622 137.596ZM43.2784 88.3496L44.1838 88.6165L44.3649 87.9492L43.4595 87.8158L43.2784 88.3496ZM63.3784 111.171C62.6541 113.44 63.3784 116.376 66.819 117.31C68.8109 115.041 71.1649 118.378 73.8811 116.509C73.519 115.442 75.1487 114.374 73.8811 113.44C71.346 110.771 66.6379 111.171 63.3784 111.171ZM22.4541 64.1936C22.8162 63.9267 23.3595 63.2594 22.8162 62.7256C21.9108 62.5921 21.1865 62.4587 20.4622 62.859C19.5568 63.9267 21.5487 64.7274 22.4541 64.1936ZM37.6649 110.237C38.3892 110.37 39.4757 110.904 40.2 110.504C40.2 110.237 40.5622 110.103 40.3811 109.703C39.4757 109.436 38.2081 109.436 37.6649 110.237ZM31.6892 115.976C32.0514 114.908 31.5081 113.974 31.6892 113.039C30.6027 113.173 29.3352 113.44 28.4298 112.773C26.4379 113.573 27.8865 114.774 26.6189 115.709C27.7054 117.577 30.0595 116.109 31.6892 115.976ZM129.111 0.533835H129.835C130.922 0.533835 132.189 0.934211 131.827 1.06767C130.741 0.934211 128.93 1.33459 128.568 0.800752C128.568 0.667293 128.749 0.533835 129.111 0.533835ZM147.219 0.533835H149.573C148.668 0.533835 147.943 0.533835 147.219 0.533835ZM182.168 6.67293C182.349 5.87218 183.797 6.1391 184.884 6.00564C184.884 6.27256 184.884 6.40602 184.884 6.67293C183.797 6.80639 182.892 6.67293 182.168 6.67293ZM161.524 1.86842C160.438 2.00188 160.438 1.46805 160.257 1.20113C160.619 1.06767 161.162 0.934211 161.887 1.06767C161.887 1.46805 161.887 1.73496 161.524 1.86842ZM114.806 7.87406C114.443 7.60714 114.443 7.07331 114.443 6.53947C115.711 6.40602 115.892 6.27256 116.435 7.07331C115.892 7.20677 115.892 8.00752 114.806 7.87406ZM110.822 7.7406C110.641 6.27256 112.089 6.1391 112.633 5.20489C112.633 6.00564 113.9 6.1391 113.538 7.07331C112.633 7.34023 112.089 7.87406 110.822 7.7406ZM109.916 3.60338C109.916 2.40226 113.176 2.93609 113.176 3.73684C112.27 4.27068 111.184 3.46992 109.916 3.60338ZM75.3298 2.2688C74.4244 2.53571 69.7163 2.2688 74.2433 2.2688C74.7866 1.6015 75.5109 2.13534 75.3298 2.2688Z" fill="#FAA74A"/>
</svg>
