<svg width="25" height="23" viewBox="0 0 25 23" fill="none" xmlns="http://www.w3.org/2000/svg">
<path fill-rule="evenodd" clip-rule="evenodd" d="M24.4792 3.18745C24.6875 3.18745 24.7917 3.29374 24.8958 3.39997C25 3.5062 25 3.71872 25 3.71872L22.9167 12.2187C22.9167 12.4312 22.7083 12.6437 22.5 12.6437L7.29165 14.7687C7.70835 15.5125 8.54165 15.9375 9.375 15.9375H21.25C21.5625 15.9375 21.7708 16.15 21.7708 16.4687C21.7708 16.7875 21.5625 17 21.25 17H9.27085C7.6042 17 6.0417 15.725 5.7292 14.025L3.2292 1.06248H0.52085C0.20835 1.06248 0 0.849968 0 0.531217C0 0.212467 0.20835 -4.97872e-05 0.520801 8.7491e-09H3.6458C3.85415 8.7491e-09 4.16665 0.212467 4.16665 0.424984L4.6875 3.18745H24.4792ZM6.7708 13.7062L21.9791 11.6875L23.75 4.1437H4.8958L6.7708 13.7062Z" fill="white"/>
<path fill-rule="evenodd" clip-rule="evenodd" d="M7 20.5C7 19.1 8.10002 18 9.5 18C10.9 18 12 19.1 12 20.5C12 21.9 10.9 23 9.5 23C8.10002 23 7 21.9 7 20.5ZM7.99999 20.5C7.99999 21.3 8.69998 22 9.5 22C10.3 22 11 21.3 11 20.5C11 19.7 10.3 19 9.5 19C8.69998 19 7.99999 19.7 7.99999 20.5Z" fill="white"/>
<path fill-rule="evenodd" clip-rule="evenodd" d="M17 20.5C17 19.1 18.1 18 19.5 18C20.9 18 22 19.1 22 20.5C22 21.9 20.9 23 19.5 23C18.1 23 17 21.9 17 20.5ZM18 20.5C18 21.3 18.7 22 19.5 22C20.3 22 21 21.3 21 20.5C21 19.7 20.3 19 19.5 19C18.7 19 18 19.7 18 20.5Z" fill="white"/>
</svg>
