<svg width="181" height="27" viewBox="0 0 181 27" fill="none" xmlns="http://www.w3.org/2000/svg">
<path d="M178.93 24.07C176.087 24.5261 173.203 24.6603 170.33 24.47C168.55 25.07 164.99 26.82 160.83 26.07C159.94 26.22 160.24 26.52 160.24 26.82H158.46C158.46 26.12 159.65 25.12 160.24 24.17C158.79 23.7847 157.288 23.6328 155.79 23.72V23.32C156.38 23.12 157.27 23.47 157.57 23.27C155.79 22.57 159.05 21.52 165.57 21.72C165.13 21.97 164.57 22.25 164.84 22.53C165.471 22.5007 166.104 22.5274 166.73 22.61C167.5 22.31 167.04 21.78 167.94 21.52C171.21 22.22 174.17 20.86 179.22 21.32C179.81 21.22 179.81 21.02 180.11 20.92H181.27V20.57C180.486 20.5863 179.701 20.5596 178.92 20.49C178.62 20.09 181 19.79 177.73 19.74C177.44 19.89 178.33 20.29 177.14 20.29C176.84 19.84 175.95 19.39 177.73 19.24C178.907 19.3502 180.093 19.3502 181.27 19.24V17.54C180.708 17.3172 180.114 17.1888 179.51 17.16C179.51 17.46 177.44 17.66 176.25 17.46C176.55 17.16 178.33 17.16 177.44 16.71L181.27 16.51V10.81C181.22 11.66 180.91 12.31 178.92 12.61C178.62 12.21 179.22 12.01 179.51 11.76C177.44 11.81 175.95 11.76 174.51 11.66C176.58 11.21 178.65 10.66 181.31 10.31V7.43C180.135 7.55739 178.951 7.5975 177.77 7.55C178.95 7.41 180.06 7.13 181.31 6.92V0.19H163.65C161.335 0.643887 158.999 0.977667 156.65 1.19C154.47 0.72 157.65 0.5 160.27 0.19H156.64C154.978 0.339469 153.308 0.392891 151.64 0.35C151.652 0.324935 151.658 0.297634 151.658 0.27C151.658 0.242366 151.652 0.215065 151.64 0.19H3.08C2.05048 0.187702 1.022 0.124257 0 0C0.84 6.65 1.29 13.29 1.55 20C1.83363 19.9459 2.12131 19.9158 2.41 19.91C4.08 20.2 3.41 20.57 1.58 20.73C1.65333 22.73 1.71333 24.73 1.76 26.73C3.92 26.73 5.83 26.73 6.86 26.73C8.14952 26.7638 9.43553 26.8807 10.71 27.08C12.49 26.43 16.35 26.88 20.21 26.88C22.28 26.88 24.95 26.73 27.33 26.68C28.81 26.68 29.7 26.68 30.89 26.68C33.56 26.68 36.52 26.53 40.09 26.68C41.8538 26.9829 43.6404 27.1335 45.43 27.13C48.1 27.28 52.84 27.83 56.11 27.93C58.18 27.98 59.11 28.08 60.56 28.18C63.82 28.38 67.38 28.43 70.64 28.58L77.17 29.08C84.88 29.03 93.49 29.23 102.09 29.53C104.76 29.08 105.35 28.28 109.51 28.08C110.1 27.78 109.21 27.63 108.62 27.43C102.09 27.43 100.31 28.43 96.16 28.93C95.5371 28.8963 94.9293 28.7256 94.38 28.43C92.3 28.28 89.63 28.18 87.55 28.08C86.37 28.08 87.26 28.33 86.07 28.38C83.99 28.48 84.29 28.13 82.81 28.13C81.7151 28.1669 80.6233 28.2671 79.54 28.43C76.54 28.53 72.72 28.18 70.35 28.08C71.24 27.83 70.35 27.68 69.16 27.53C65.9999 27.7752 62.8243 27.7418 59.67 27.43C58.78 27.33 60.26 27.18 59.37 27.08C57 27.03 56.37 27.23 54.62 27.13C54.62 26.93 54.33 26.78 54.03 26.68C52.25 27.08 47.5 26.88 44.54 26.73C43.64 26.23 41.87 25.98 39.2 25.78C41.3004 25.0891 43.5336 24.9007 45.72 25.23C45.72 25.48 45.43 25.68 44.54 25.73C48.99 25.83 53.73 26.13 58.18 25.83C59.67 26.28 65.9 26.43 67.38 25.93H68.27C68.86 25.93 69.46 25.93 70.35 25.93C72.5215 25.8554 74.6878 25.6685 76.84 25.37C81.84 24.97 88.71 25.52 92.27 24.82C91.97 24.67 92.57 24.47 91.97 24.42C92.57 24.32 94.35 24.42 95.53 24.37C95.24 24.57 95.83 24.62 96.42 24.72C99.98 24.52 105.32 24.72 108.59 24.57C110.37 24.72 110.96 25.07 113.04 25.17C113.93 25.17 114.22 25.12 115.11 25.12C116.89 25.62 126.68 25.12 127.28 25.67C127.57 25.97 125.79 25.87 125.5 26.22C126.874 26.4257 128.261 26.5426 129.65 26.57C129.95 26.67 129.95 26.87 130.24 26.97C133.51 26.97 133.51 27.37 136.47 27.32C136.77 27.47 137.07 27.62 137.07 27.77C139.528 28.1304 142.023 28.164 144.49 27.87C143.89 27.77 143.3 27.77 143.3 27.57C144.78 27.52 145.67 27.37 146.86 27.27C148.34 27.27 148.34 27.57 150.12 27.57C149.83 27.82 147.75 27.72 147.75 27.92C148.94 28.42 154.28 28.42 157.84 28.27C157.84 27.97 156.06 27.87 154.28 27.87C153.785 27.9212 153.285 27.9212 152.79 27.87C152.79 27.62 153.68 27.57 155.17 27.62C155.17 27.67 155.17 27.77 154.87 27.82C155.571 27.825 156.27 27.741 156.95 27.57C160.21 27.52 162.58 27.72 165.55 27.77H169.41C169.41 27.67 170 27.52 170 27.42C169.11 27.37 166.74 27.52 167.33 27.27C170.89 27.37 172.33 26.87 177.12 27.02C176.56 26.55 179.71 26.74 181.05 26.6C180.015 26.5894 178.987 26.4243 178 26.11C176.702 26.0949 175.407 26.2291 174.14 26.51C173.85 26.26 173.25 25.81 174.14 25.51C173.85 25.36 171.77 25.51 172.36 25.26V25C173.248 24.9218 174.142 24.9218 175.03 25C175.92 25 175.03 25.45 175.92 25.45C176.813 25.4686 177.705 25.4185 178.59 25.3C176.81 25.15 176.52 24.8 177.7 24.5C179.43 24.5 180.32 24.59 181.19 24.64C181.19 24.44 181.19 24.24 181.24 24.04L179.78 24.2C179.52 24.12 179.23 24.07 178.93 24.07ZM179.52 2.9C179.23 2.8 178.93 2.6 178.93 2.35C181.3 2.25 181.3 2.9 179.52 2.9ZM169.73 16.46C169.73 16.26 167.95 16.36 168.55 16.01C169.73 16.01 172.11 15.66 173 15.91C171.892 15.9665 170.795 16.1511 169.73 16.46ZM170.92 8.71C172.11 8.71 172.11 8.81 173.29 8.81C173.29 9.26 171.51 9.36 169.44 9.21C170.03 9.66 167.95 9.66 168.25 10.06H166.47C164.99 9 171.22 9.36 170.92 8.71ZM159.05 8.91C159.84 8.80905 160.64 8.80905 161.43 8.91C162.02 9.31 158.46 9.31 159.05 8.91ZM18.43 8.51C19.67 8.93203 21.0029 9.00127 22.28 8.71C23.17 8.91 22.58 9.46 21.69 9.71C22.28 9.06 16.65 9 18.43 8.51ZM16.05 8.51C16.65 8.81 17.24 9.16 19.91 9.06C18.8476 9.366 17.754 9.55052 16.65 9.61C15.16 9.36 18.43 9 14.84 9C14.57 8.76 14.84 8.61 16.05 8.56V8.51ZM17.84 16.36C18.934 16.28 20.0339 16.3472 21.11 16.56C21.11 16.96 19.03 16.96 17.84 17.11V16.36ZM16.66 16.81C15.47 16.61 16.66 16.56 16.66 16.31C16.0709 16.41 15.4691 16.41 14.88 16.31C14.88 16.56 16.06 16.61 14.28 16.71C13.39 16.16 13.99 15.91 16.66 15.71C16.94 16 18.13 16.61 16.65 16.81H16.66ZM14.84 20.26C15.13 19.86 14.54 19.26 16.62 19.21C16.65 19.61 17.54 20.26 14.84 20.26ZM13.06 9.26C10.68 9.26 13.06 8.76 12.17 8.36C15.73 8.91 13.06 10.71 10.39 11.41C11.28 10.91 10.09 10.41 9.79 9.81C13.68 9.76 9.53 9.11 13.09 9.21L13.06 9.26ZM5.67 11C8.04 11 8.67 11.65 8.04 11.85C5.08 11.91 5.37 11.46 5.67 11ZM4.78 12.5H6.56C6.86 12.7 6.56 12.85 5.37 12.9C5.37 12.76 4.48 12.71 4.78 12.51V12.5ZM3 14.5C4.78 14 2.41 13.5 4.19 13.15C7.19 13.15 7.19 13.55 7.45 13.7C8.64 13.65 10.71 13.85 10.71 13.6C9.82 12.95 11.01 12.5 8.93 12C10.9806 11.5503 13.0639 11.2661 15.16 11.15C13.98 11.2 12.79 11.15 12.79 10.95C14.57 10.8 14.57 10.45 16.65 10.4C18.13 11.75 15.16 12.65 17.24 13.45C14.24 13.6 16.35 12.95 13.98 13.05C12.49 13.15 12.79 13.55 12.79 13.9C10.12 14.05 9.23 14.45 7.15 14.65C9.53 14.65 6.86 15.25 7.75 15.65C6.56 15.65 7.15 15.95 5.37 15.85C2.11 15.41 8.04 14.71 3 14.46V14.5ZM20.5 24.5C19.61 23.95 19.32 23.8 19.91 23.15C22.58 23.07 23.17 24.57 20.5 24.47V24.5ZM21.69 21C25.55 21.35 21.99 22.35 20.5 22.7C20.8 22.4 20.8 22.15 19.32 22.15C19.32 22.5 17.24 22.85 15.16 22.65C15.16 22.45 16.65 21.95 15.16 21.8C12.16 22.05 11.9 21.45 10.16 21.25C10.46 21.55 10.16 21.8 8.97 21.9C8.68 21.65 8.08 21.5 8.38 21.15C6.6 20.94 4.23 21.25 4.52 20.59C7.19 20.59 7.52 20.64 8.38 20.19C12.1252 20.5591 15.8941 20.626 19.65 20.39C18.76 20.04 18.76 19.74 20.84 19.64C20.54 20.14 22.62 20.24 24.1 19.94C24.95 20.56 21.99 20.61 21.69 21ZM18.43 13.09C18.43 12.69 19.32 12.69 18.43 12.34C20.5 12.39 21.1 12.14 23.43 12.24C25.25 12.81 24.95 13.56 18.43 13.11V13.09ZM24.95 8.49C24.36 8.34 23.17 7.38 25.55 7.43C25.25 7.75 26.44 8.36 24.95 8.51V8.49ZM25.55 6.58C25.84 6.08 22.28 5.78 26.73 5.73C25.25 6 28.51 6.55 25.55 6.6V6.58ZM32.37 22C32.37 21.85 32.07 21.75 30.89 21.8C33.26 21.4 32.37 20.99 30.89 20.95C31.9809 20.9874 33.0729 20.917 34.15 20.74C34.74 21.12 35.93 22 32.37 22ZM34.15 5.65C35.04 5.3 33.56 5.25 35.34 5C35.63 5.25 36.23 5.6 34.15 5.65ZM38.6 10.56C38.3 10.41 37.71 10.31 37.41 10.16C39.84 10.06 40.68 10.56 38.6 10.56ZM44.84 23.42C44.84 23.27 45.14 23.17 46.03 23.12C46.8125 23.2547 47.609 23.2883 48.4 23.22C48.69 23.57 45.72 23.62 44.84 23.42ZM51.07 18.16C49.59 17.91 51.07 17.56 52.85 17.51C52.55 17.81 52.84 18.16 51.06 18.16H51.07ZM55.84 25.22H54.03C53.73 24.82 55.51 24.82 56.4 24.67C56.7 25 55.22 24.92 55.84 25.22ZM57.89 11.11C57.0953 11.0868 56.3 11.1203 55.51 11.21C54.62 11.11 54.33 10.61 56.11 10.56C56.7 10.76 58.48 10.71 57.89 11.11ZM58.48 24.37C59.96 23.97 57 23.37 60.56 23.22C59.67 23.52 61.45 23.47 61.74 23.62C60.26 23.82 60.84 24.37 58.48 24.37ZM65.9 25.32C64.71 25.27 64.71 25.42 63.52 25.42C62.04 25.22 64.71 24.87 62.63 24.57C63.727 24.5732 64.8219 24.4727 65.9 24.27V25.32ZM74.2 22C68.57 21.9 71.83 21.3 71.83 20.64C72.4299 20.6184 73.0298 20.6858 73.61 20.84C73.61 20.84 73.61 20.64 74.2 20.64C76.28 21.12 72.72 21.47 74.2 22ZM75.39 1.65H71.53C72.13 1.2 72.42 0.75 75.98 0.8C77.47 1.05 75.98 1.4 75.39 1.65ZM84.84 7.2C86.33 6.8 82.47 6.35 85.44 5.9C86.5387 6.0942 87.6268 6.34453 88.7 6.65C87.4243 6.90335 86.1357 7.08696 84.84 7.2ZM88.4 6.2C87.22 6 88.11 5.7 90.18 5.8C89.93 6 90.22 6.2 88.44 6.15L88.4 6.2ZM156.94 3.8C156.05 3.85 155.75 4 155.75 4.2H153.38C153.42 3.85 156.09 3.5 156.98 3.75L156.94 3.8ZM153.94 9.56C154.715 9.75072 155.521 9.78472 156.31 9.66C156.31 10.11 154.24 10.01 155.72 10.41C154.535 10.4877 153.345 10.4877 152.16 10.41C153.12 10.11 151.93 9.56 154.01 9.51L153.94 9.56ZM143.26 15.61C141.185 15.735 139.105 15.735 137.03 15.61C137.03 15.11 139.1 14.91 139.4 14.46C143.03 14.41 141.55 15.26 143.33 15.56L143.26 15.61ZM134.65 14.56C134.65 14.11 135.84 13.91 138.51 13.91C137.306 14.3857 136.012 14.5906 134.72 14.51L134.65 14.56ZM130.2 18.21C130.5 17.76 133.2 17.71 135.2 17.56C136.38 17.91 134.6 18.46 131.93 18.56C132.35 18.26 131.76 18.16 130.27 18.16L130.2 18.21ZM129.68 11C129.38 10.8 127.9 10.8 128.49 10.45C129.98 10.55 129.68 10.25 130.87 10.25C130.27 10.46 130.84 10.91 129.68 11ZM132.94 11C131.46 10.7 133.24 10.55 132.35 10.25C133.631 10.0744 134.929 10.0744 136.21 10.25C133.84 10.36 136.84 11.06 132.94 11ZM132.05 7.64C131.76 7.34 130.27 6.94 131.46 6.74C129.38 6.74 128.46 6.24 129.09 6.09C133.54 6.09 131.46 6.74 135.32 6.29C133.24 6.75 135.91 7.45 132.05 7.65V7.64ZM134.72 3.84C135.91 4.09 134.13 4.49 132.94 4.69C133.84 4.45 132.65 3.9 134.72 3.85V3.84ZM132.65 4.04C131.46 4.09 131.46 3.94 130.27 3.94C130.27 4.04 129.68 4.04 129.68 4.14C130.275 4.10263 130.873 4.1362 131.46 4.24C128.2 4.24 132.35 4.69 129.09 4.89C127.6 4.4 130.27 3.45 132.65 4.05V4.04ZM127.31 5.64C127.6 5.64 127.9 5.64 127.9 5.54H129.09C129.09 5.59 129.09 5.64 129.68 5.64V5.84C129.38 5.84 129.09 5.84 129.09 5.94H127.9C127.9 5.89 127.6 5.84 127.31 5.84V5.64ZM122.84 2.45C122.54 2.75 124.91 2.65 124.02 3.1C122.54 3.1 121.65 2.95 121.65 2.65C122.56 2.65 122.26 2.5 122.84 2.45ZM127.29 7.45C126.607 7.29789 125.904 7.26407 125.21 7.35C124.91 7 124.02 6.75 124.02 6.35C125.168 6.54034 126.278 6.91163 127.31 7.45H127.29ZM124.91 11.21C126.1 11.41 128.47 11.86 126.1 12.06C124.62 11.76 123.43 12.31 121.65 12.26C119.57 11.81 119.28 11.11 118.09 10.56C124.04 10.06 119 11.76 124.93 11.21H124.91ZM119.91 12.61C118.43 12.86 116.91 12.51 116.05 12.71C115.74 12.21 118.7 12.41 119.89 12.61H119.91ZM122.91 18.51C120.53 18.86 117.27 19.16 115.49 19.66C115.79 19.21 115.49 18.21 114.9 17.66C119.59 17.26 119.3 18.41 122.84 18.51H122.91ZM111.84 2.8C114.21 3.05 111.54 3.8 113.62 3.95C112.542 4.12233 111.451 4.18931 110.36 4.15C112.47 3.65 110.1 3 111.84 2.8ZM110.95 15.31C109.17 15.76 110.95 15.91 112.14 16.16C108.87 16.71 108.28 15.46 105.91 15.86C105.91 15.61 106.5 15.36 107.69 15.31C108.32 15.61 109.84 15.26 110.99 15.31H110.95ZM101.84 14.26C101.55 14.26 101.25 14.26 101.25 14.36C101.856 14.3567 102.458 14.4582 103.03 14.66C101.927 14.7662 100.814 14.6297 99.77 14.26C100.459 14.2076 101.151 14.2076 101.84 14.26ZM106.54 23C102.68 23 101.54 23.35 97.94 23.4C99.12 22.85 97.94 23.05 98.53 22.55C100.818 22.5331 103.1 22.3156 105.35 21.9C107.35 22.28 106.35 22.57 105.99 22.81C106.17 22.72 106.84 22.75 106.54 23ZM104.76 20C104.17 19.6 105.35 19.5 105.35 19.15C103.57 19.5 103.87 18.7 102.09 19.05C102.39 18.75 104.17 18.5 102.09 18.3C102.68 18.65 100.9 18.65 101.5 18.95C97.64 19.05 99.12 18.3 100.9 18.2C100.31 17.9 97.9 17.95 97.64 17.65C100.9 16.85 97.34 15.9 100.9 15.15C100.9 14.95 100.01 14.9 98.53 14.95C99.42 14.65 96.75 14.5 98.53 14.4C98.83 14.9 102.68 15.05 104.76 14.7C105.65 15 103.87 15.25 106.54 15.35C103.87 15.45 102.98 15.8 100.9 16C104.17 15.9 104.17 15.9 105.35 16.3C105.925 16.1211 106.529 16.0532 107.13 16.1C111.84 17.46 110.1 18.86 104.76 20ZM109.76 21.46C108.28 20.85 108.58 19.8 110.95 19.25C111.29 20.11 110.1 20.92 109.84 21.42L109.76 21.46ZM112.14 20.35C113.435 20.381 114.729 20.2465 115.99 19.95V20.5C114.72 20.6817 113.426 20.6172 112.18 20.31L112.14 20.35ZM115.99 21.71C115.7 21.41 112.73 21.56 113.62 21.06C116.63 21 118.11 21.47 116.03 21.67L115.99 21.71ZM118.99 21.56C118.99 21.46 118.1 21.36 118.4 21.16H120.18C120.19 21.27 120.78 21.62 119 21.52L118.99 21.56ZM127.89 22.51C125.821 22.7411 123.735 22.7746 121.66 22.61C121.36 21.91 126.11 22.01 126.11 21.36C122.85 21.21 123.44 21.76 121.11 21.76C120.51 21 124.96 21.06 127.93 20.9C129.38 21.57 125.53 22 127.9 22.47L127.89 22.51ZM136.49 20.96C137.09 21.21 138.27 21.31 138.27 21.61C137.38 21.81 137.68 22.21 136.49 22.36C136.2 21.96 136.49 21.56 134.71 21.41C136.2 21.81 134.12 22.16 135.31 22.56C133.438 22.7745 131.549 22.808 129.67 22.66C129.08 22.01 131.15 21.76 130.56 21.16C127.56 21.11 128.48 20.35 123.74 20.6C123.14 20.2 124.33 19.35 129.37 19.6C129.67 19.95 127.59 19.85 128.19 20.25C130.86 20.35 133.53 20.25 134.42 20.8C134.71 20.25 135.01 19.75 138.27 19.75C138.84 20.26 137.99 20.66 136.5 20.92L136.49 20.96ZM136.49 19.45C139.76 19.1 135.6 18.65 138.57 18.15C137.38 18.1 135.9 17.8 137.98 17.75C139.03 18.1089 140.131 18.2946 141.24 18.3C140.65 18.7 138.24 18.8 138.87 19.45H136.49ZM139.49 20.2C140.775 20.0997 142.065 20.0997 143.35 20.2C143.94 20.65 142.75 20.8 142.16 21.06C142.46 21.06 142.75 21.16 142.16 21.16C141.478 21.0313 140.781 20.9976 140.09 21.06C141.25 20.61 140.07 20.51 139.47 20.16L139.49 20.2ZM149.58 21.46C146.733 21.9039 143.851 22.088 140.97 22.01C140.68 21.66 141.87 21.61 141.87 21.36C143.65 21.41 143.94 21.61 145.72 21.66C146.02 21.56 146.61 21.46 146.32 21.26C147.48 21.27 150.15 21.07 149.56 21.42L149.58 21.46ZM152.84 20.96C151.36 20.7 154.62 20.55 152.55 20.3C150.48 20.05 148.1 20.7 148.1 20.2C150.17 20.1 151.95 19.95 154.33 19.9C156.11 20.1 157 20.2 156.11 20.65C153.42 20.46 154.31 20.92 152.84 20.92V20.96ZM155.22 25.46C155.22 24.91 155.22 24.41 157.59 24.31C159.65 24.77 155.84 25 155.2 25.42L155.22 25.46Z" fill="black"/>
<path d="M102.98 21.6698C104.76 21.7698 105.65 21.9698 108.32 21.9698C108.62 21.9698 108.62 21.7698 108.62 21.6198C106.749 21.3979 104.863 21.331 102.98 21.4198V21.6698Z" fill="black"/>
<path d="M76.5795 22.5699C76.5795 22.2699 74.1995 22.1699 73.0195 22.3199C74.1858 22.5893 75.3871 22.6736 76.5795 22.5699Z" fill="black"/>
<path d="M173.29 23.37C174.48 23.37 175.67 23.37 176.85 23.42H177.45V23.27C176.063 23.2154 174.673 23.2488 173.29 23.37Z" fill="black"/>
<path d="M37.1198 24.0001C36.8198 24.2501 38.0098 24.2501 38.0098 24.4001C39.5938 24.3475 41.1794 24.3809 42.7598 24.5001C43.3498 24.3501 44.8298 24.3501 45.4298 24.1501C42.6664 23.9125 39.89 23.8623 37.1198 24.0001Z" fill="black"/>
<path d="M119.3 22.2202C119 22.2702 119 22.3202 119 22.4202H120.19C120.658 22.6551 121.156 22.8234 121.67 22.9202C123.75 22.9202 126.12 22.8702 126.12 22.5702C123.874 22.1339 121.578 22.0161 119.3 22.2202Z" fill="black"/>
</svg>
