<svg width="90" height="50" viewBox="0 0 90 50" fill="none" xmlns="http://www.w3.org/2000/svg">
<path d="M86.59 20.472C86.4101 13.6249 86.7453 6.76991 87.59 0.0256653H0.960022V15.6434C1.28002 15.5145 0.810022 15.1706 1.55002 15.1133C3.03002 15.3282 3.62002 14.8983 4.81002 15.1133C0.950022 19.4117 6.59002 23.9968 17.86 25.7161C13.45 24.2833 7.82002 23.0654 8.96002 20.7729C13.16 22.4207 15.53 24.4982 22.96 25.4439C16.53 27.1776 9.15002 28.7107 0.960022 30.0003V31.0319L5.28002 30.4158C8.28002 29.8713 11.04 29.2695 13.71 28.6534H16.38C18.3119 27.7696 20.2972 27.146 22.31 26.7908C23.2 26.7908 22.31 27.2922 21.72 27.3639C21.97 27.4928 22.86 27.5072 23.31 27.6361H24.63C24.85 27.4642 24.74 27.2206 25.28 27.1346C24.98 26.9914 24.39 26.9197 23.8 26.7764C24.7042 26.6246 25.5976 26.3609 26.47 25.9884C27.0674 25.9465 27.666 26.0188 28.25 26.2033C27.65 25.7018 32.1 24.3406 35.37 24.4839C39.52 23.6242 38.63 22.7645 42.49 21.9048C43.67 21.9048 41.89 22.1198 42.49 22.3347C43.09 22.5496 44.56 21.8332 45.75 22.1198C45.45 22.6213 43.08 22.5496 43.38 23.1944C45.4467 22.9747 47.2267 22.6881 48.72 22.3347C49.02 22.8362 50.2 23.5526 49.31 23.9824C50.8 24.1257 51.69 24.3406 51.69 24.8421C52.2796 24.7163 52.8741 24.6445 53.47 24.6272C50.8 25.4153 53.76 26.9197 53.47 28.2093C33.88 29.5704 11.93 31.0749 1.55002 35.3734C13.75 31.8916 32.14 29.7424 54.4 29.2266C54.1 29.6564 54.99 29.7997 54.99 30.2295C53.51 30.2295 53.21 30.4445 51.43 30.3728C35.11 31.8916 18.2 33.3244 8.71002 36.405C9.89002 36.405 10.78 36.405 11.97 36.405C22.65 33.8259 36.3 31.9632 56.18 31.605V32.3931C44.6 33.3961 32.74 34.2558 23.54 35.8319L25.62 36.0468C27.1 35.8319 28.29 35.6169 30.07 35.402C31.7059 34.8409 33.3927 34.6475 35.07 34.8289C35.66 34.7572 35.96 34.7572 36.55 34.6856C38.33 34.6856 39.22 34.7572 40.71 34.8289C42.19 34.6856 39.22 34.6856 39.82 34.399C42.82 34.399 47.82 33.8259 51.39 33.7543C53.47 33.6826 57.62 33.5393 57.62 34.399C54.62 34.1841 55.25 34.9722 50.8 34.7572C53.8 35.0438 48.42 34.9722 47.53 35.3304C46.64 34.8289 43.97 35.3304 42.19 35.2587C42.19 35.2587 42.19 35.3304 42.49 35.3304H43.08C43.38 35.3304 43.38 35.3304 43.38 35.4737C43.97 35.5453 44.56 35.6169 44.56 35.8319C44.362 35.8206 44.1639 35.8447 43.97 35.9035C43.97 35.9035 43.97 35.9751 44.27 35.9751C49.91 35.2587 53.76 37.3363 57.27 36.1901C58.41 36.6342 57.8 37.4939 58.81 37.9668C59.4762 37.9169 60.1438 37.9169 60.81 37.9668C61.34 37.4939 60.64 37.0354 59.92 36.5339C67.34 36.1041 71.49 37.8235 69.42 38.8981C70.01 39.2563 70.9 38.6832 71.49 38.8981V39.5429C67.64 39.5429 67.04 40.2593 64.97 40.6175C60.96 39.7721 48.76 39.7721 43.12 40.3452C36 39.2706 29.18 39.7721 19.12 39.8438C17.93 40.202 17.04 40.5602 16.12 40.9184C16.72 40.99 17.01 41.0617 17.61 41.2049C19.98 40.9184 24.73 40.5602 26.8 40.6318C27.99 41.0617 26.8 41.8497 27.1 42.0646C22.95 41.7781 23.84 42.2079 19.39 42.2796C19.39 42.5661 20.28 42.6378 21.17 42.781C25.62 41.7064 30.07 42.996 34.81 42.996C32.14 42.8527 30.07 42.0646 30.36 41.7064C32.1849 42.0848 34.0262 42.2763 35.87 42.2796C36.3373 42.2608 36.8049 42.2847 37.27 42.3512C39.47 42.4945 41.14 42.6807 40.45 43.2109C42.1143 43.3739 43.7838 43.3979 45.45 43.2825C45.16 42.2079 41 42.0646 41.89 41.0617C43.08 40.9184 44.27 40.7751 46.34 40.7751C47.83 41.2049 47.23 41.7064 45.45 41.993C46.5367 42.1459 47.6282 42.2177 48.72 42.2079C49.91 42.1363 48.72 41.5631 49.61 41.4915C50.7277 41.4495 51.8461 41.4973 52.96 41.6348V41.993C53.56 42.3512 51.18 42.2079 50.89 42.3512C52.07 42.8527 51.18 43.5691 51.18 43.9273C50.59 43.4975 48.51 43.4975 46.73 43.3542C45.4721 43.8518 44.1749 44.1166 42.87 44.1422C44.36 44.4288 48.51 44.0706 47.87 44.8586C52.62 44.1422 54.69 44.8586 58.55 44.7154C59.14 45.1452 56.47 44.9303 55.29 45.0019C55.29 45.3601 56.77 45.7183 55.29 46.0049C52.3282 45.6137 49.3541 45.4463 46.38 45.5034C45.49 46.7213 50.84 46.3631 54.1 46.5064C54.4 47.1512 57.36 47.4377 55.29 48.2258C56.18 48.5123 60.29 48.0825 61.22 48.4407C62.15 48.7989 60.92 48.8705 61.22 49.3004C65.67 49.5153 65.37 48.7273 69.22 48.8705C75.87 50.1028 82.29 49.4293 89.32 49.2717C87.7929 39.8128 86.879 30.1719 86.59 20.472V20.472ZM36.89 7.07514C35.11 6.93186 36.3 7.50499 34.52 7.43335C33.63 7.21843 34.81 7.21843 34.52 6.86022C37.52 7.07514 34.81 6.71694 37.19 6.6453C37.2891 6.71782 37.3702 6.83245 37.4221 6.97352C37.474 7.11458 37.4943 7.27519 37.48 7.43335C35.7 7.43335 37.19 7.36171 36.89 7.07514Z" fill="black"/>
</svg>
