<svg width="89" height="35" viewBox="0 0 89 35" fill="none" xmlns="http://www.w3.org/2000/svg">
<path d="M57.9002 26.4302C57.4793 26.4444 57.0622 26.5151 56.6602 26.6402C57.0611 26.6461 57.4602 26.6964 57.8502 26.7902C59.0302 26.7402 60.5202 26.6902 60.5202 26.4402H59.9202C59.7325 26.5383 59.5347 26.6154 59.3302 26.6702C58.8453 26.6503 58.3649 26.5697 57.9002 26.4302Z" fill="black"/>
<path d="M-0.0400391 22.0598C3.76996 21.5998 7.31996 21.0598 10.34 20.5298C8.39996 20.7798 6.33996 20.9998 4.27996 21.2098C2.95996 21.3898 1.48996 21.5598 -0.0400391 21.7398V22.0598Z" fill="black"/>
<path d="M22.5396 19.3302L22.3496 19.2702C20.2796 19.3502 18.6196 19.4502 20.4596 19.7802C23.7296 19.7802 26.9896 19.2802 26.6896 18.9302C25.7082 19.1682 24.6986 19.2691 23.6896 19.2302C23.3179 19.3457 22.9256 19.3798 22.5396 19.3302Z" fill="black"/>
<path d="M34.1104 29.64C35.0004 29.64 34.7004 29.84 35.3004 29.89C36.7804 29.89 37.9704 29.89 37.9704 29.69C37.4021 29.6949 36.8341 29.6615 36.2704 29.59L34.8704 29.54C34.6143 29.5474 34.3596 29.5809 34.1104 29.64Z" fill="black"/>
<path d="M35.89 25.9399C35.87 26.0952 35.8867 26.253 35.9388 26.4007C35.991 26.5483 36.077 26.6816 36.19 26.7899C37.985 26.7221 39.7712 26.5047 41.53 26.1399C39.6478 26.2389 37.7605 26.172 35.89 25.9399Z" fill="black"/>
<path d="M19.2799 25.4398C18.6799 25.3898 17.7899 25.3398 16.8999 25.3398L15.7199 25.5398L15.4199 25.5898V25.7398C16.0099 25.6898 16.8999 25.7398 17.4999 25.7398C18.0999 25.7398 18.6799 25.4898 19.2799 25.4398Z" fill="black"/>
<path d="M85.59 14.27C85.41 9.49123 85.7453 4.70697 86.59 0H-0.0400391V10.9C0.279961 10.81 -0.190039 10.57 0.549961 10.53C2.02996 10.68 2.61996 10.38 3.80996 10.53C-0.0500391 13.53 5.58996 16.73 16.86 17.93C12.45 16.93 6.81996 16.08 7.95996 14.48C12.16 15.63 14.53 17.08 21.96 17.74C15.53 18.95 8.14996 20.02 -0.0400391 20.92V21.64L4.27996 21.21C7.27996 20.83 10.04 20.41 12.71 19.98H15.38C17.3119 19.3632 19.2972 18.9279 21.31 18.68C22.2 18.68 21.31 19.03 20.72 19.08C20.97 19.17 21.86 19.18 22.31 19.27H23.63C23.85 19.15 23.74 18.98 24.28 18.92C23.98 18.82 23.39 18.77 22.8 18.67C23.7042 18.564 24.5975 18.38 25.47 18.12C26.0673 18.0908 26.6659 18.1412 27.25 18.27C26.65 17.92 31.1 16.97 34.37 17.07C38.52 16.47 37.63 15.87 41.49 15.27C42.67 15.27 40.89 15.42 41.49 15.57C42.09 15.72 43.56 15.22 44.75 15.42C44.45 15.77 42.08 15.72 42.38 16.17C44.4466 16.0167 46.2266 15.8167 47.72 15.57C48.02 15.92 49.2 16.42 48.31 16.72C49.8 16.82 50.69 16.97 50.69 17.32C51.2795 17.2322 51.874 17.1821 52.47 17.17C49.8 17.72 52.76 18.77 52.47 19.67C32.88 20.62 10.93 21.67 0.549961 24.67C12.75 22.24 31.14 20.74 53.4 20.38C53.1 20.68 53.99 20.78 53.99 21.08C52.51 21.08 52.21 21.23 50.43 21.18C34.11 22.24 17.2 23.24 7.70996 25.39C8.88996 25.39 9.77996 25.39 10.97 25.39C21.65 23.59 35.3 22.29 55.18 22.04V22.59C43.6 23.29 31.74 23.89 22.54 24.99L24.62 25.14C26.1 24.99 27.29 24.84 29.07 24.69C30.7058 24.2984 32.3926 24.1634 34.07 24.29C34.66 24.24 34.96 24.24 35.55 24.19C37.33 24.19 38.22 24.24 39.71 24.29C41.19 24.19 38.22 24.19 38.82 23.99C41.82 23.99 46.82 23.59 50.39 23.54C52.47 23.49 56.62 23.39 56.62 23.99C53.62 23.84 54.25 24.39 49.8 24.24C52.8 24.44 47.42 24.39 46.53 24.64C45.64 24.29 42.97 24.64 41.19 24.59C41.19 24.59 41.19 24.64 41.49 24.64H42.08C42.38 24.64 42.38 24.64 42.38 24.74C42.97 24.79 43.56 24.84 43.56 24.99C43.362 24.9821 43.1638 24.9989 42.97 25.04C42.97 25.04 42.97 25.09 43.27 25.09C48.91 24.59 52.76 26.04 56.27 25.24C57.41 25.55 56.8 26.15 57.81 26.48C58.4762 26.4452 59.1437 26.4452 59.81 26.48C60.34 26.15 59.64 25.83 58.92 25.48C66.34 25.18 70.49 26.38 68.42 27.13C69.01 27.38 69.9 26.98 70.49 27.13V27.58C66.64 27.58 66.04 28.08 63.97 28.33C59.96 27.74 47.76 27.74 42.12 28.14C35 27.39 28.18 27.74 18.12 27.79C16.93 28.04 16.04 28.29 15.12 28.54C15.72 28.59 16.01 28.64 16.61 28.74C18.98 28.54 23.73 28.29 25.8 28.34C26.99 28.64 25.8 29.19 26.1 29.34C21.95 29.14 22.84 29.44 18.39 29.49C18.39 29.69 19.28 29.74 20.17 29.84C24.62 29.09 29.07 29.99 33.81 29.99C31.14 29.89 29.07 29.34 29.36 29.09C31.1848 29.3541 33.0261 29.4878 34.87 29.49C35.3372 29.4769 35.8048 29.4936 36.27 29.54C38.47 29.64 40.14 29.77 39.45 30.14C41.1142 30.2538 42.7837 30.2705 44.45 30.19C44.16 29.44 40 29.34 40.89 28.64C42.08 28.54 43.27 28.44 45.34 28.44C46.83 28.74 46.23 29.09 44.45 29.29C45.5366 29.3967 46.6281 29.4468 47.72 29.44C48.91 29.39 47.72 28.99 48.61 28.94C49.7276 28.9107 50.846 28.9441 51.96 29.04V29.29C52.56 29.54 50.18 29.44 49.89 29.54C51.07 29.89 50.18 30.39 50.18 30.64C49.59 30.34 47.51 30.34 45.73 30.24C44.472 30.5873 43.1748 30.7721 41.87 30.79C43.36 30.99 47.51 30.74 46.87 31.29C51.62 30.79 53.69 31.29 57.55 31.19C58.14 31.49 55.47 31.34 54.29 31.39C54.29 31.64 55.77 31.89 54.29 32.09C51.3282 31.817 48.354 31.7001 45.38 31.74C44.49 32.59 49.84 32.34 53.1 32.44C53.4 32.89 56.36 33.09 54.29 33.64C55.18 33.84 59.29 33.54 60.22 33.79C61.15 34.04 59.92 34.09 60.22 34.39C64.67 34.54 64.37 33.99 68.22 34.09C74.87 34.95 81.29 34.48 88.32 34.37C86.7928 27.7684 85.8789 21.0398 85.59 14.27ZM35.89 4.92C34.11 4.82 35.3 5.22 33.52 5.17C32.63 5.02 33.81 5.02 33.52 4.77C36.52 4.92 33.81 4.67 36.19 4.62C36.2891 4.67061 36.3702 4.75062 36.4221 4.84907C36.474 4.94753 36.4942 5.05961 36.48 5.17C34.7 5.17 36.19 5.12 35.89 4.92Z" fill="black"/>
<path d="M38.5603 32.8898C41.5603 32.7898 42.7103 32.3398 45.6803 32.2398C42.7103 31.9398 36.4803 32.2398 38.5603 32.8898Z" fill="black"/>
<path d="M16.6095 29.19C14.8219 29.085 13.0282 29.2026 11.2695 29.54C12.7495 29.54 12.1595 29.94 13.9395 29.89C15.7195 29.84 15.4195 29.39 16.6095 29.19Z" fill="black"/>
<path d="M17.2002 33.6401C16.3102 33.6401 16.0102 33.5401 16.0102 33.3901H12.4502C13.2412 33.4649 14.0367 33.4816 14.8302 33.4401C14.8302 33.7401 15.4202 33.9401 16.3102 34.1401C15.7202 34.1901 14.8302 34.1901 13.9402 34.2401C14.8302 34.2401 15.7202 34.1901 16.6102 34.1401C16.0102 33.8901 16.0102 33.7901 17.2002 33.6401Z" fill="black"/>
<path d="M5.62988 28.04H7.40988C7.99988 27.89 8.59988 27.69 9.18988 27.54C8.59988 27.54 7.99988 27.54 7.40988 27.59L5.62988 28.04Z" fill="black"/>
<path d="M45.6797 32.9399C46.5697 33.1899 48.3497 33.2899 46.2697 33.5399C48.9497 33.5399 51.6197 34.0399 52.2097 33.3899C50.0711 32.8918 47.8664 32.7399 45.6797 32.9399Z" fill="black"/>
<path d="M7.70996 31.19C9.48996 31.14 11.27 30.99 12.45 30.84L8.59996 30.54C8.28995 30.7378 7.99269 30.9549 7.70996 31.19Z" fill="black"/>
<path fill-rule="evenodd" clip-rule="evenodd" d="M13.0502 26.2402C12.7502 26.2902 12.4502 26.3902 12.4502 26.4402C12.7502 26.3902 12.7502 26.2902 13.0502 26.2402Z" fill="black"/>
</svg>
