<svg width="174" height="60" viewBox="0 0 174 60" fill="none" xmlns="http://www.w3.org/2000/svg">
<path d="M112.557 22.1312V28.3973C112.557 29.8458 112.609 30.8652 112.728 31.8393C112.795 32.3859 112.375 32.8685 111.831 32.8685H103.172C102.901 32.8685 102.666 32.6797 102.605 32.4126L102.29 31.0406H102.225C100.934 32.6726 98.8033 33.5211 95.9943 33.5211C91.8288 33.5211 89.7949 31.6612 89.7949 27.8426C89.7949 24.024 91.9583 22.0332 96.4135 22.0332C98.4474 22.0332 100.417 22.425 101.677 23.0776H101.741V23.0126C101.741 21.3486 100.287 20.5971 97.0592 20.5971C95.3336 20.5971 93.6662 20.8153 92.3449 21.2034C91.4897 21.4545 90.6282 20.8286 90.5965 19.9285L90.3719 13.5938C90.3551 13.1335 90.6802 12.7329 91.1303 12.6581C93.7314 12.2236 96.713 11.9814 99.6418 11.9814C109.263 11.9814 112.557 14.5598 112.557 22.1312ZM99.5775 27.32C99.5775 28.5931 99.8999 28.984 100.805 28.984C101.192 28.984 101.483 28.919 101.741 28.7231V25.9168C101.483 25.7209 101.192 25.6559 100.805 25.6559C99.9008 25.6559 99.5775 26.0477 99.5775 27.32Z" fill="#F6E0B8"/>
<path d="M124.922 12.6338H127.988C128.488 12.6338 128.893 13.0433 128.893 13.549V19.6166C128.893 20.1223 128.488 20.5319 127.988 20.5319H124.922V22.5556C124.922 23.502 125.309 23.8608 126.536 23.8608C126.949 23.8608 127.372 23.8207 127.811 23.7281C128.37 23.6106 128.893 24.0477 128.893 24.6247V32.139C128.893 32.569 128.598 32.9403 128.182 33.0329C126.557 33.3944 125.435 33.5199 123.792 33.5199C116.753 33.5199 114.138 31.2024 114.138 25.0672V10.9377C114.138 10.432 114.543 10.0225 115.043 10.0225H124.017C124.517 10.0225 124.923 10.432 124.923 10.9377V12.6338H124.922Z" fill="#F6E0B8"/>
<path d="M152.787 19.9435C152.787 20.6326 152.73 21.4917 152.646 22.1461C152.587 22.6029 152.204 22.9456 151.748 22.9456H141.293C141.454 24.2188 142.617 24.6097 145.555 24.6097C147.438 24.6097 148.896 24.4512 150.6 24.0772C151.151 23.9562 151.677 24.3648 151.697 24.9346L151.952 31.9272C151.969 32.3769 151.659 32.7739 151.222 32.8585C149.027 33.2832 146.597 33.5183 143.908 33.5183C134.028 33.5183 129.96 30.3202 129.96 22.618C129.96 14.9158 133.673 11.9786 142.035 11.9786C149.397 11.9786 152.787 14.4911 152.787 19.9417V19.9435ZM146.731 8.78502C146.731 10.2549 145.331 10.8782 142.035 10.8782C138.74 10.8782 137.34 10.2549 137.34 8.78502C137.34 7.31509 138.74 6.7168 142.035 6.7168C145.331 6.7168 146.731 7.34002 146.731 8.78502ZM141.196 20.4002H143.908C143.875 18.3115 143.585 17.7239 142.552 17.7239C141.518 17.7239 141.228 18.3115 141.196 20.4002Z" fill="#F6E0B8"/>
<path d="M173.256 13.5947L173.027 19.0177C173.001 19.6427 172.376 20.0576 171.799 19.8323C170.724 19.4139 169.268 19.161 167.671 19.161C165.637 19.161 164.895 19.4548 164.895 20.2054C170.997 20.2054 174 22.1961 174 26.3406C174 31.6932 171.061 33.5202 162.667 33.5202C160.284 33.5202 157.545 33.2985 154.398 32.8284C153.94 32.7598 153.608 32.353 153.627 31.8864L153.859 26.1314C153.885 25.5064 154.509 25.0897 155.086 25.3141C156.364 25.8118 158.124 26.1118 159.955 26.1118C161.989 26.1118 162.861 25.8509 162.861 25.0024C156.565 25.0024 153.465 23.1096 153.465 19.161C153.465 13.8084 156.403 11.9814 164.798 11.9814C167.294 11.9814 169.871 12.1978 172.503 12.6545C172.952 12.7329 173.275 13.1362 173.256 13.5965V13.5947Z" fill="#F6E0B8"/>
<path d="M84.1589 57.576H76.1997C75.6862 57.576 75.2695 57.1549 75.2695 56.6359V37.7156C75.2695 37.1965 75.6862 36.7754 76.1997 36.7754H84.1589C84.6725 36.7754 85.0891 37.1965 85.0891 37.7156V56.6359C85.0891 57.1549 84.6725 57.576 84.1589 57.576Z" fill="#F6E0B8"/>
<path d="M107.456 57.5767H99.8616C99.3789 57.5767 98.9764 57.2028 98.935 56.7167L98.802 55.1399H98.743C97.3609 57.339 95.4795 58.1706 92.7462 58.1706C88.4248 58.1706 86.8076 56.1202 86.8076 50.7417V40.0925C86.8076 39.5735 87.2243 39.1523 87.7378 39.1523H95.697C96.2106 39.1523 96.6272 39.5735 96.6272 40.0925V49.2255C96.6272 50.4141 96.8914 50.8298 97.656 50.8298C97.6595 50.8298 97.6622 50.8298 97.6657 50.8298C98.1687 50.8272 98.5677 50.398 98.5677 49.8906V40.0925C98.5677 39.5735 98.9843 39.1523 99.4978 39.1523H107.457C107.971 39.1523 108.387 39.5735 108.387 40.0925V56.6357C108.387 57.1547 107.971 57.5758 107.457 57.5758L107.456 57.5767Z" fill="#F6E0B8"/>
<path d="M120.239 41.1139H120.298C121.562 39.3903 123.355 38.5587 125.678 38.5587C130.263 38.5587 132.615 41.8574 132.615 48.0674C132.615 54.8419 129.793 58.1699 124.06 58.1699C121.709 58.1699 120.121 57.6054 118.504 56.1498H118.445L117.651 57.5761H111.349C110.836 57.5761 110.419 57.1549 110.419 56.6359V37.7156C110.419 37.1965 110.836 36.7754 111.349 36.7754H119.308C119.822 36.7754 120.239 37.1965 120.239 37.7156V41.1139ZM120.239 46.1657V50.563C120.474 50.741 120.768 50.8301 121.12 50.8301C122.032 50.8301 122.355 50.1766 122.355 48.3639C122.355 46.5512 122.032 45.8977 121.12 45.8977C120.768 45.8977 120.474 45.9867 120.239 46.1648V46.1657Z" fill="#F6E0B8"/>
<path d="M154.006 47.7991V53.5043C154.006 54.7668 154.05 55.6714 154.149 56.5243C154.214 57.0834 153.784 57.5749 153.226 57.5749H145.039L144.657 55.9109H144.598C143.422 57.3968 141.482 58.1687 138.925 58.1687C135.133 58.1687 133.28 56.4753 133.28 52.9986C133.28 49.5219 135.25 47.7092 139.307 47.7092C141.159 47.7092 142.952 48.0653 144.099 48.66H144.158V48.6004C144.158 47.0851 142.835 46.4013 139.895 46.4013C138.394 46.4013 136.941 46.5829 135.766 46.907C134.897 47.1465 134.036 46.4966 134.004 45.5875L133.811 40.1192C133.794 39.6446 134.13 39.2333 134.594 39.1567C136.939 38.7712 139.617 38.5566 142.248 38.5566C151.009 38.5566 154.007 40.9044 154.007 47.7982L154.006 47.7991ZM142.189 52.5241C142.189 53.6833 142.483 54.0394 143.306 54.0394C143.658 54.0394 143.923 53.9797 144.159 53.8017V51.2464C143.923 51.0684 143.659 51.0087 143.306 51.0087C142.483 51.0087 142.189 51.3649 142.189 52.5241Z" fill="#F6E0B8"/>
<path d="M173.317 40.1218L173.119 44.8183C173.093 45.4504 172.467 45.8796 171.878 45.6632C170.912 45.308 169.633 45.0952 168.236 45.0952C166.383 45.0952 165.708 45.3623 165.708 46.0461C171.264 46.0461 173.998 47.8588 173.998 51.632C173.998 56.5047 171.323 58.1687 163.679 58.1687C161.534 58.1687 159.072 57.9711 156.246 57.5526C155.776 57.4832 155.433 57.0647 155.452 56.5839L155.654 51.5883C155.68 50.9562 156.305 50.5235 156.893 50.7407C158.046 51.1672 159.598 51.4227 161.209 51.4227C163.062 51.4227 163.855 51.185 163.855 50.4122C158.123 50.4122 155.301 48.6885 155.301 45.0934C155.301 40.2207 157.976 38.5566 165.62 38.5566C167.864 38.5566 170.179 38.7481 172.544 39.1532C173.006 39.2324 173.337 39.6473 173.317 40.1201V40.1218Z" fill="#F6E0B8"/>
<path d="M74.1565 56.3535L71.6567 48.3344L74.0059 40.3606C74.1838 39.7579 73.7364 39.1525 73.1145 39.1525H64.7739C64.3317 39.1525 63.9503 39.4676 63.8622 39.9057L62.6907 45.7489H61.9261V37.7146C61.9261 37.1955 61.5095 36.7744 60.9959 36.7744H57.4391C57.0824 36.7744 56.79 37.054 56.7644 37.4137C56.7644 37.4154 56.7644 37.4181 56.7644 37.4199C56.4112 42.3603 54.9631 46.3427 52.5936 50.0839C52.2801 50.5798 52.1074 51.1532 52.1074 51.7417V55.3582C52.1074 56.5824 53.0896 57.5751 54.3007 57.5751H60.9959C61.5095 57.5751 61.9261 57.1539 61.9261 56.6349V50.9484H62.6907L63.8631 56.821C63.9503 57.2599 64.3317 57.5751 64.7747 57.5751H73.2704C73.8985 57.5751 74.3459 56.9581 74.1574 56.3527L74.1565 56.3535Z" fill="#F6E0B8"/>
<path d="M82.0441 11.9814C78.8801 11.9814 76.878 12.9929 75.296 15.3104H75.2317C74.4249 13.0258 72.5839 11.9814 69.4525 11.9814C66.3212 11.9814 64.2864 13.0258 62.8656 15.3104H62.8013L62.6278 13.26C62.5979 12.9065 62.3054 12.6341 61.954 12.6341H53.8159C53.054 12.6341 52.4365 13.2582 52.4365 14.0283V17.8505C52.4365 18.3152 52.5704 18.7693 52.8179 19.1619C53.6371 20.4582 54.5241 22.2478 55.4234 24.8369C56.2919 27.3369 56.8398 29.9268 57.06 32.5613C57.0741 32.7349 57.2168 32.8685 57.3886 32.8685H61.8227C62.5054 32.8685 63.0585 32.3093 63.0585 31.6193V20.5535C63.0585 20.4199 63.1378 20.2989 63.2594 20.2463C63.5685 20.111 63.7967 20.0433 64.0918 20.0433C64.8986 20.0433 65.1893 20.533 65.1893 21.8053V31.6193C65.1893 32.3093 65.7425 32.8685 66.4251 32.8685H74.5755C75.2581 32.8685 75.8113 32.3093 75.8113 31.6193V20.5295C75.8113 20.4057 75.8774 20.2891 75.9866 20.2348C76.2394 20.1074 76.5257 20.0433 76.8128 20.0433C77.6523 20.0433 77.9429 20.5001 77.9429 21.8053V31.6193C77.9429 32.3093 78.4961 32.8685 79.1787 32.8685H87.3291C88.0118 32.8685 88.5649 32.3093 88.5649 31.6193V20.1413C88.5649 14.234 86.7892 11.9823 82.0432 11.9823L82.0441 11.9814Z" fill="#F6E0B8"/>
<path d="M32.0236 32.1427C30.8926 31.0494 29.5458 30.2828 28.0211 29.8662L28.0131 29.8644C27.1173 29.6088 26.1942 29.4869 25.2685 29.5011C22.8391 29.5394 20.4371 30.5419 18.6789 32.2531C16.8397 34.0418 15.8347 36.4323 15.8488 38.9813C15.8417 41.2908 16.7296 43.5184 18.3504 45.2545C19.9482 46.9666 22.0886 48.0323 24.377 48.2549C24.7637 48.2985 25.1592 48.3172 25.5521 48.311C28.5663 48.2638 31.4889 46.7512 33.1784 44.366C34.0927 43.1017 34.6555 41.687 34.852 40.1619C35.0352 38.7365 34.8784 37.2532 34.3983 35.8714C33.9077 34.4593 33.0868 33.1701 32.0245 32.1427H32.0236ZM32.7882 39.7799V39.7844L32.7873 39.7888C32.6772 41.3709 32.0782 42.791 31.0538 43.8968L31.052 43.8986L31.0503 43.9012C30.1633 44.9215 29.3362 45.519 28.4474 45.7807C27.6767 46.0024 26.9394 46.1208 26.2576 46.1315C25.035 46.1511 24.0414 45.8243 23.3033 45.1602C22.0384 44.0401 21.354 42.0859 21.5575 40.1806C21.7301 38.5664 22.4965 37.3039 23.7164 36.6246C24.2564 36.3192 24.8862 36.1527 25.538 36.1421C26.7086 36.1234 27.8141 36.613 28.495 37.4499C28.6227 37.6093 28.7398 37.7785 28.8403 37.9565C29.2313 38.6448 29.3212 39.406 29.1089 40.1699C29.0305 40.4521 28.9151 40.7237 28.7663 40.9756C28.3769 41.6318 27.7885 42.0618 27.1129 42.3823C26.9015 42.4829 26.6831 42.5747 26.4532 42.6201C26.1035 42.6877 25.767 42.604 25.4922 42.3734C25.2517 42.1722 25.0861 41.8704 25.1055 41.549C25.131 41.1118 25.4402 40.8136 25.8648 40.7806C26.1282 40.7602 26.3898 40.8216 26.6523 40.835C26.8795 40.8465 27.1182 40.8216 27.3111 40.6996C27.4776 40.5937 27.5965 40.4218 27.659 40.234C27.6943 40.1289 27.7128 40.0176 27.7181 39.9072C27.7515 39.2217 27.2644 38.5762 26.6707 38.2895C26.3316 38.1257 25.9529 38.0616 25.5785 38.0678C25.072 38.0758 24.5823 38.2779 24.1639 38.651C23.0945 39.593 23.1025 41.159 23.4654 42.3093C23.6433 42.8907 23.9956 43.4294 24.4563 43.8247C24.9514 44.2494 25.5283 44.4799 26.1211 44.4915C26.1704 44.4933 26.2206 44.4942 26.27 44.4933C26.772 44.4853 27.2961 44.3419 27.9198 44.041C29.7634 43.1623 30.9076 41.7173 31.0591 40.0755C31.3313 37.7731 30.3896 35.8135 28.4773 34.6979C27.5789 34.1023 26.514 33.7969 25.3962 33.8147C23.779 33.8406 22.2252 34.535 21.1356 35.7191C20.5542 36.3379 19.9984 37.019 19.6769 37.8168C19.0295 39.4095 19.1854 41.435 19.9412 42.8969C20.0143 43.0376 20.0918 43.181 20.1147 43.3386C20.1578 43.6457 19.8883 43.9671 19.5686 43.8745C19.3977 43.8247 19.2647 43.692 19.1458 43.5585C18.9846 43.3768 18.8366 43.1845 18.7001 42.9833C17.673 41.4715 17.5928 39.3962 18.057 37.6093C18.4508 36.0904 19.3871 34.6668 20.6916 33.5993C21.9547 32.5149 23.6116 31.9041 25.3609 31.8765C26.1546 31.864 26.9288 31.9744 27.6626 32.2033C29.1979 32.7321 30.5711 33.772 31.5312 35.1315C32.531 36.5489 32.9775 38.1996 32.7882 39.779V39.7799Z" fill="#F6E0B8"/>
<path d="M53.0434 34.2056C52.9817 31.2248 52.455 28.2902 51.479 25.4822C50.1278 21.595 48.7854 19.6719 47.702 18.4789C47.8931 18.242 48.0473 17.9206 48.108 17.4755C48.5687 14.1359 47.4227 11.2236 45.2295 9.40645C44.5494 8.84288 43.8959 8.30334 42.9358 7.86174C43.3973 7.61245 43.8633 7.36672 44.3336 7.12633C45.5281 6.51379 46.7057 5.92974 47.9363 5.39198C48.6304 5.08927 49.3209 4.71355 49.7887 4.11347C50.895 2.69697 49.8503 0.793451 48.3459 0.213849C47.2422 -0.210836 45.9914 0.0527004 44.9035 0.51834C42.9314 1.36148 41.0164 2.42364 39.1253 3.41813C38.5069 3.74399 37.8991 4.09032 37.2949 4.44111C36.9919 4.6174 36.6756 4.76875 36.3876 4.96818C36.1216 5.15248 35.8582 5.37684 35.5217 5.39376C35.3526 5.40177 35.1861 5.35548 35.0232 5.31007C32.8616 4.71177 30.6437 4.3503 28.4275 4.01019C25.8757 3.61934 23.1927 3.14658 20.6083 3.45107C19.5222 3.57928 18.4441 3.88377 17.5086 4.45625C15.5038 5.68401 14.3129 7.98015 13.6972 10.1962C13.5774 10.6289 13.5898 10.985 13.6717 11.2797C12.2051 11.9341 10.2127 13.1512 7.43273 16.1649C5.42442 18.3418 3.77814 20.8169 2.5388 23.5226C2.18118 24.3025 1.85703 25.1064 1.57428 25.9131C-0.521231 31.8898 -0.524754 38.0874 1.56371 43.3634C2.64714 46.0994 4.23617 48.6092 6.28764 50.8244C10.21 55.0588 15.7443 58.182 21.4706 59.3929C27.197 60.6037 33.5055 59.9858 38.7782 57.6968C41.5361 56.4993 43.9884 54.8442 46.0654 52.7769C50.0723 48.79 52.5272 43.1115 52.9791 36.7866C53.0398 35.9337 53.0619 35.0656 53.0442 34.2056H53.0434ZM36.9549 6.05972C39.5243 4.49631 41.8761 3.13233 44.2112 2.01142C44.2112 2.01142 46.526 0.894057 47.5267 1.05164C48.3864 1.1843 49.077 1.84403 49.2064 2.64978C49.2514 2.92934 49.2161 3.22671 48.9351 3.51072C48.6973 3.75111 48.3846 4.00485 48.0208 4.17134C47.9609 4.19894 47.901 4.22654 47.842 4.25414C46.5331 4.86758 45.1969 5.52375 43.8712 6.20306C41.2401 7.55102 38.7421 9.03074 36.4475 10.5995C36.2379 10.7428 36.0282 10.888 35.8204 11.034C35.7613 11.0749 35.7032 11.1159 35.6451 11.1577C35.5816 11.2022 35.5314 11.2592 35.4953 11.3233C34.8919 11.2396 34.2859 11.1453 33.6878 11.0411C32.711 10.871 31.7553 10.6707 31.033 10.5149C30.8207 10.4695 30.6023 10.4205 30.3812 10.3707C32.3604 8.81528 34.7131 7.42548 36.9557 6.06061L36.9549 6.05972ZM11.3296 25.5552C11.4203 25.4198 11.5542 25.3522 11.74 25.3477H11.7444C11.9734 25.3442 12.2826 25.4741 12.6147 25.7145C12.9758 25.9772 13.3141 26.2977 13.6409 26.6075L13.7122 26.6752L13.7184 26.6805C13.869 26.8266 14.0196 26.9717 14.1711 27.1168C14.608 27.5361 15.0599 27.9697 15.4783 28.4185C15.8835 28.8725 16.183 29.258 16.0429 29.7361C15.8949 30.1679 15.4246 30.5116 14.9709 30.5187C14.8723 30.5205 14.778 30.5063 14.6908 30.4778C14.2531 30.3282 13.9042 29.9302 13.5669 29.5447C13.4964 29.4646 13.4242 29.3818 13.3528 29.3034C13.1846 29.1004 13.0058 28.8974 12.834 28.7007C12.2333 28.0169 11.6114 27.31 11.2934 26.4615C11.1745 26.1392 11.1895 25.7671 11.3304 25.5561L11.3296 25.5552ZM8.01672 31.7002C8.07486 31.5782 8.22901 31.5016 8.45362 31.4838C8.48709 31.4812 8.52321 31.4785 8.55932 31.4785C8.74958 31.4758 8.97596 31.5052 9.27016 31.572L9.27632 31.5738C10.3668 31.8435 11.4493 32.2344 12.2738 32.546C12.7917 32.7312 13.0912 32.9466 13.189 33.2031C13.2674 33.4096 13.2251 33.6607 13.0586 33.9714C12.8455 34.3329 12.5662 34.5047 12.1804 34.5101C11.7612 34.5163 11.2749 34.3231 10.8143 34.1148C9.80835 33.6384 8.70378 33.0437 8.13211 32.2424C7.99558 32.0367 7.95242 31.8337 8.01584 31.7002H8.01672ZM7.37636 39.4157C6.70692 39.3828 5.87453 39.3419 5.6182 38.7231C5.55655 38.5806 5.55655 38.4337 5.61644 38.2877C5.70012 38.0838 5.89919 37.8995 6.13526 37.8069H6.1379L6.14054 37.8043C6.43915 37.6743 6.79324 37.6235 7.09801 37.587C8.21227 37.4766 9.24902 37.4161 10.269 37.4001C10.4258 37.3974 10.5852 37.3965 10.7376 37.3956C11.156 37.4036 11.622 37.4339 11.8404 37.7001L11.8431 37.7028C12.1012 38.0384 12.0633 38.6002 11.8801 38.9483C11.6731 39.3205 11.23 39.4033 10.6293 39.4131C10.5465 39.414 10.4646 39.4149 10.3835 39.4149C10.3025 39.4149 10.2223 39.4149 10.1439 39.4166C10.0603 39.4175 9.98716 39.4202 9.92286 39.4238C9.79161 39.4255 9.6586 39.4273 9.52472 39.4291C8.86145 39.438 8.17616 39.4478 7.50936 39.4238C7.4662 39.4211 7.42128 39.4193 7.37547 39.4166L7.37636 39.4157ZM9.13979 45.8029C8.98741 45.8056 8.84735 45.7905 8.70818 45.7557C8.45979 45.6988 8.24927 45.5341 8.17175 45.3373C8.11097 45.1833 8.13564 45.0168 8.24134 44.8574C8.49502 44.4977 8.9328 44.244 9.3556 43.9991C9.43047 43.9555 9.50534 43.9128 9.57669 43.8692C10.21 43.5157 10.8433 43.1898 11.4097 42.9263C11.7594 42.7625 12.0386 42.6806 12.2632 42.677C12.5671 42.6726 12.7662 42.8114 12.8913 43.115L12.893 43.1204C13.0322 43.4694 13.026 43.862 12.8789 44.1416C12.6499 44.5565 12.2051 44.7515 11.733 44.958C11.6801 44.9812 11.6264 45.0043 11.5762 45.0266L11.5066 45.0568C11.1437 45.2127 10.7676 45.3747 10.3941 45.5118C9.98716 45.656 9.55555 45.7967 9.13803 45.8029H9.13979ZM15.9857 48.4962C15.8905 49.0606 15.4536 49.5245 15.0308 49.9732C14.9806 50.0257 14.9313 50.0783 14.8837 50.1299L14.7992 50.2127C14.1324 50.8626 13.1247 51.8447 12.2958 52.1305C12.1884 52.1661 12.0774 52.1857 11.9743 52.1875C11.7902 52.1901 11.4758 52.1394 11.4353 51.7672C11.4009 51.3719 11.6502 50.9668 11.888 50.6187C12.4359 49.8584 13.1406 49.0491 14.0408 48.1472C14.3535 47.8382 14.7657 47.483 15.1841 47.4759C15.2766 47.4741 15.3647 47.4901 15.4536 47.523L15.4633 47.5266C15.8377 47.6602 16.0623 48.0768 15.9865 48.4971L15.9857 48.4962ZM20.9201 52.5338C20.8919 52.5863 20.8655 52.6371 20.8417 52.6834C20.6074 53.1214 20.389 53.5781 20.1784 54.0189C19.9776 54.44 19.7697 54.8745 19.5513 55.2849C19.5231 55.3356 19.494 55.3882 19.465 55.4416C19.2201 55.8912 18.9426 56.4014 18.4969 56.5492C18.4582 56.5598 18.4194 56.5661 18.3824 56.5661C18.2908 56.5679 18.2089 56.5385 18.1393 56.4788C17.6822 56.023 17.8839 55.1647 18.0468 54.4747C18.0618 54.4124 18.0759 54.3518 18.0891 54.294C18.1966 53.872 18.3243 53.4446 18.4784 52.9887C18.5216 52.8748 18.563 52.7582 18.6061 52.6344C18.8607 51.9132 19.1496 51.095 19.8525 50.9633C19.9212 50.9526 19.9935 50.9463 20.0683 50.9455C20.4876 50.9392 20.995 51.087 21.187 51.4325C21.3323 51.7539 21.1121 52.1688 20.9192 52.5347L20.9201 52.5338ZM26.2263 57.525L26.221 57.5321C26.0818 57.7173 25.8995 57.8214 25.7066 57.825C25.4837 57.8286 25.2688 57.7012 25.1164 57.4733C24.787 56.9943 24.7377 56.3631 24.7139 55.706C24.7077 55.4095 24.7068 55.1024 24.7059 54.8059C24.7051 54.253 24.7033 53.6805 24.6654 53.1268C24.6214 52.3646 24.7148 52.1055 25.3842 51.9684C25.4617 51.9515 25.5489 51.9426 25.6379 51.9408C25.9065 51.9364 26.1602 52.0041 26.2853 52.1145C26.5284 52.321 26.5337 52.7991 26.539 53.2211C26.5407 53.3395 26.5416 53.4517 26.5478 53.5577C26.5531 53.8675 26.5654 54.1853 26.5777 54.4925C26.5945 54.9118 26.6112 55.3445 26.6094 55.7612C26.5971 56.3595 26.583 57.0379 26.2254 57.525H26.2263ZM33.3056 55.763C33.2721 55.9437 33.1849 56.1601 32.9594 56.1636C32.8475 56.1654 32.7154 56.1165 32.5753 56.0212C32.3525 55.8707 32.1684 55.6579 31.9614 55.3855C31.691 55.0276 31.4567 54.6643 31.24 54.3233C31.0612 54.042 30.8833 53.7535 30.7115 53.4749C30.5767 53.2567 30.4376 53.0306 30.2984 52.8098C30.2614 52.7457 30.2218 52.6807 30.1821 52.6148C29.9196 52.1794 29.6483 51.7289 29.8386 51.3381L29.8403 51.3345C29.9804 51.0737 30.4587 50.8279 30.7476 50.6801L30.8225 50.6454C31.0779 50.527 31.299 50.4246 31.4937 50.4219C31.5897 50.4202 31.6751 50.4424 31.7606 50.4923C32.0865 50.7122 32.2926 51.4325 32.4432 51.9604C32.4978 52.151 32.5489 52.3308 32.6018 52.4795C32.6581 52.6736 32.7269 52.889 32.8008 53.1178C33.0792 53.9859 33.4262 55.0668 33.3056 55.7648V55.763ZM29.0626 49.6046C27.9527 49.991 26.7777 50.1958 25.5718 50.2145C22.9187 50.2563 20.3458 49.4016 18.326 47.8088C16.6225 46.4698 15.3506 44.7256 14.6477 42.7643C13.987 40.9213 13.8285 38.9118 14.1879 36.9522C14.5525 34.9659 15.4334 33.1167 16.7344 31.604C18.1146 29.9997 19.9477 28.8138 22.0361 28.1754C23.0368 27.8673 24.0867 27.7026 25.1578 27.6857C27.4973 27.6492 29.8289 28.3312 31.7245 29.6061L31.7315 29.6106C33.5751 30.8579 34.9959 32.5496 35.8397 34.5038C36.6316 36.3379 36.9117 38.3705 36.6501 40.3817C36.3858 42.4117 35.5843 44.3232 34.3309 45.9116C32.9981 47.5996 31.1775 48.8763 29.0626 49.6037V49.6046ZM17.6064 21.9502C17.6566 21.6778 17.8125 21.4997 18.0037 21.4971C18.0715 21.4962 18.1437 21.5167 18.2203 21.5594L18.2239 21.5612C18.5313 21.7339 18.7867 22.1265 19.0113 22.4738C19.0519 22.537 19.0924 22.5984 19.1302 22.6563C19.3082 22.9296 19.4976 23.1985 19.6808 23.4593C20.1053 24.063 20.5449 24.6871 20.8435 25.3718C21.1447 26.0502 21.0196 26.5069 20.4409 26.8515C20.1626 27.0126 19.9151 27.0954 19.7046 27.099C19.6306 27.0999 19.5601 27.091 19.4958 27.0723C19.1347 26.9423 18.9541 26.4722 18.7955 26.0573C18.7541 25.9505 18.7154 25.849 18.674 25.7528C18.6246 25.6273 18.5744 25.5017 18.5251 25.3771C18.2873 24.7797 18.0627 24.2143 17.8645 23.6134L17.8592 23.5965C17.6874 23.0471 17.5104 22.4791 17.6082 21.9494L17.6064 21.9502ZM24.2594 20.9504C24.3096 20.3957 24.3668 19.7681 24.6936 19.3256C24.8293 19.1368 25.0283 19.0175 25.2115 19.0148C25.3313 19.0131 25.4379 19.0602 25.5313 19.1573L25.5348 19.1609C25.8202 19.4627 25.8634 19.9746 25.9004 20.4269C25.9039 20.4687 25.9074 20.5106 25.9109 20.548C25.9779 21.5318 25.999 22.5503 26.0193 23.535C26.0246 23.8092 26.0307 24.0835 26.0369 24.3532C26.0395 24.5865 26.0395 24.8313 26.0096 25.0299C25.977 25.24 25.9092 25.3771 25.7903 25.4741C25.6405 25.5943 25.4177 25.6647 25.1798 25.6691C24.698 25.6763 24.4338 25.4296 24.3545 25.2151C24.2541 24.9453 24.2409 24.6061 24.2277 24.2776C24.225 24.2161 24.2224 24.1556 24.2197 24.1004C24.1827 22.8459 24.1951 21.8443 24.2594 20.9513V20.9504ZM29.7584 24.672C30.0791 24.1974 30.4199 23.7362 30.7221 23.2492C31.0154 22.7774 31.2884 22.2895 31.6346 21.8532C31.7562 21.7001 31.8901 21.5505 32.0574 21.4517C32.327 21.2923 32.6467 21.2941 32.8193 21.5808C33.2448 22.2886 32.7832 23.194 32.4961 23.8591C32.223 24.4903 31.95 25.1216 31.6769 25.7528C31.4919 26.1811 31.2462 26.7108 30.7229 26.7687C30.6833 26.7731 30.6428 26.7758 30.6014 26.7767C30.1768 26.7829 29.7065 26.5862 29.4325 26.287C28.9956 25.8098 29.473 25.0931 29.7575 24.6729L29.7584 24.672ZM38.7905 26.7811C38.7544 26.8346 38.7201 26.8862 38.6892 26.9334C37.9837 27.9599 37.0685 28.8788 36.2669 29.6435C35.9622 29.9356 35.6019 30.2338 35.2469 30.2401C35.1685 30.2409 35.0945 30.2285 35.0197 30.2018H35.017L35.0135 30.2C34.7625 30.1199 34.5017 29.8857 34.3784 29.6266C34.2128 29.2901 34.2533 28.9411 34.5009 28.5885C34.6418 28.3828 34.8356 28.179 35.0065 28.0045C35.912 27.0856 36.7259 26.3351 37.4922 25.7101C37.5503 25.6647 37.6085 25.6175 37.6675 25.5694C38.0594 25.2516 38.4646 24.923 38.9209 24.9043H38.9244C39.1173 24.9017 39.2627 24.9791 39.3349 25.1243C39.5525 25.646 39.1305 26.2754 38.7914 26.782L38.7905 26.7811ZM41.7819 31.0876C41.9792 31.085 42.1448 31.1117 42.2742 31.1687L42.2795 31.1713C42.4407 31.2461 42.52 31.3823 42.5024 31.5533C42.4337 32.0501 41.8832 32.4303 41.4401 32.7365L41.4145 32.7543C40.7196 33.2155 40.0422 33.585 39.401 33.853C38.9782 34.0346 38.6276 34.1245 38.3272 34.1299C38.0084 34.1352 37.7626 34.0417 37.5794 33.8468C37.4543 33.7114 37.3926 33.5414 37.4006 33.3553C37.4103 33.1345 37.516 32.9164 37.6904 32.757L37.693 32.7552L37.6957 32.7534C38.0031 32.4534 38.425 32.2513 38.8328 32.0554L38.8355 32.0536C38.9174 32.018 39.0081 31.9771 39.1059 31.9335C39.8493 31.6023 40.9724 31.1019 41.781 31.0885L41.7819 31.0876ZM39.7744 51.5153C39.733 51.8064 39.5481 51.996 39.2917 52.0121C39.2794 52.0121 39.2671 52.013 39.2547 52.0138C38.8584 52.0201 38.4496 51.7111 38.0885 51.4396L38.0445 51.4066C37.4217 50.9268 36.8624 50.4914 36.3154 50.0195C36.2167 49.9278 36.111 49.8352 35.9992 49.7373C35.4539 49.2601 34.8365 48.7196 34.8726 48.0875C34.8902 47.8079 35.0258 47.4714 35.2249 47.2088C35.35 47.044 35.6098 46.7672 35.9445 46.7618C35.9895 46.7618 36.0344 46.7654 36.0776 46.7743H36.082C36.5559 46.8963 37.0667 47.4598 37.4772 47.913C37.5864 48.0332 37.6895 48.1472 37.7864 48.2469L37.8225 48.2869C38.144 48.6431 38.477 49.0108 38.7879 49.4034L38.8698 49.5138C39.3111 50.105 39.8599 50.8404 39.7727 51.5161L39.7744 51.5153ZM42.8283 44.8423C42.8168 45.0097 42.6979 45.1592 42.5147 45.2411C42.372 45.3017 42.217 45.3328 42.0408 45.3355C41.6541 45.3418 41.2322 45.2055 40.8605 45.0844L40.8367 45.0764C40.1629 44.8494 39.6079 44.6233 39.0909 44.366C38.521 44.0793 38.1017 43.8424 37.9062 43.4124C37.7811 43.1364 37.7996 42.8114 37.9537 42.5639C38.0867 42.3503 38.2964 42.2301 38.5439 42.2265C38.5932 42.2265 38.6443 42.2301 38.6989 42.239C39.1605 42.3066 39.6062 42.5354 40.0378 42.7554C40.1127 42.7936 40.1875 42.8319 40.258 42.8666L40.2659 42.8711C40.7539 43.1293 41.1609 43.3456 41.5934 43.586L41.67 43.6305C42.1589 43.9146 42.7666 44.2671 42.8283 44.7782C42.8292 44.7987 42.8292 44.82 42.8283 44.8405V44.8423ZM45.1308 38.2396C44.8067 38.6786 44.3019 38.7631 43.6633 38.87C43.6078 38.8789 43.5515 38.8887 43.4951 38.8985C42.6187 39.0276 41.7132 39.0552 40.9125 39.0801C40.8737 39.0801 40.8341 39.0801 40.7944 39.0801C40.6773 39.0819 40.5584 39.0881 40.4324 39.0943C40.3056 39.1006 40.1752 39.1068 40.0475 39.1086C39.3596 39.1193 39.0116 38.9795 38.8478 38.6269C38.6144 38.0829 38.7518 37.5274 39.016 37.3066L39.0196 37.3039C39.3067 37.0884 39.7119 37.0795 40.14 37.0697C40.2527 37.0671 40.3681 37.0644 40.4844 37.0582C40.6544 37.0528 40.8244 37.0475 40.9944 37.0413C41.4066 37.027 41.8329 37.0128 42.2505 37.0065C42.542 37.0021 42.8036 37.0012 43.0485 37.0056C43.1419 37.011 43.2405 37.0145 43.3453 37.0181C44.0148 37.0412 44.9326 37.0724 45.2004 37.6342C45.2832 37.8238 45.2576 38.05 45.1308 38.2405V38.2396ZM47.0942 17.3321C47.0457 17.682 46.9277 17.8583 46.7242 17.9856C46.7198 17.9874 46.7163 17.9901 46.7119 17.9927C46.6467 18.0328 46.5736 18.0675 46.4908 18.1014C45.5184 18.5038 44.4103 18.5991 43.3392 18.6908H43.3268C42.1932 18.7887 41.0411 18.8323 39.9022 18.8216C36.917 18.794 33.7204 18.3925 30.1293 17.5948C30.1275 17.5948 30.1257 17.5948 30.124 17.5939C30.1222 17.5939 30.1205 17.5939 30.1187 17.593C26.5134 16.8683 23.4252 15.9397 20.6796 14.7555C19.6314 14.3032 18.5938 13.7966 17.5941 13.2482L17.5835 13.242C16.6384 12.7238 15.6615 12.1878 14.9295 11.4248C14.667 11.1506 14.5569 10.9289 14.6829 10.4748C15.4862 7.58396 17.3113 5.53888 19.6905 4.86313C20.7193 4.5711 21.9128 4.46604 23.3389 4.54083C23.8603 4.56843 24.3933 4.60493 24.9226 4.64856C26.4896 4.82128 28.0558 5.00914 29.6149 5.24953C30.4138 5.37328 31.2109 5.51039 32.0046 5.6662C32.7092 5.80509 33.554 5.88344 34.2304 6.1541C34.2974 6.18081 34.3238 6.26628 34.2815 6.32593C34.0349 6.6687 33.2783 6.92423 32.97 7.11565C32.6203 7.332 32.2662 7.54835 31.9315 7.78695C31.5501 8.05939 31.2973 8.07453 30.8234 7.99351C28.6521 7.62135 26.4562 7.49671 24.2567 7.47623H24.2373C23.7406 7.49582 23.2314 7.51629 22.769 7.70771C22.5629 7.79319 22.2898 7.84304 22.0811 7.74333C21.8089 7.61334 21.5464 7.46198 21.2971 7.29193C21.2117 7.23317 21.128 7.17352 21.0461 7.10853C21.002 7.0738 20.9597 7.03819 20.9175 7.00169C20.8972 6.98388 20.8232 6.89574 20.8003 6.89574C20.5731 6.68117 20.3044 6.39092 19.9582 6.48352C19.7794 6.53159 19.6394 6.69452 19.605 6.87793C19.5504 7.17174 19.7504 7.41925 19.967 7.58574C20.359 7.88756 20.7924 8.12973 21.2258 8.3621C21.5966 8.56154 21.9745 8.74583 22.3585 8.91945C22.8535 9.14292 23.3574 9.34769 23.8665 9.53733C24.0638 9.61034 24.262 9.68156 24.4602 9.75101C28.5667 11.1755 32.8819 12.1433 37.205 12.5618C38.2479 12.6624 39.3085 12.8013 40.3558 12.8137C41.012 12.8217 41.6515 12.779 42.3077 12.7407C42.4989 12.73 42.6891 12.7131 42.8785 12.6918C43.104 12.6659 43.3357 12.6312 43.533 12.5164C43.8509 12.3321 44.0024 11.9065 43.7488 11.5993C43.6061 11.4266 43.3762 11.3723 43.1621 11.3937C43.0573 11.4043 42.9639 11.4444 42.8635 11.472C42.6935 11.5192 42.5209 11.5548 42.3474 11.5842C42.0743 11.6305 41.7986 11.6608 41.522 11.6795C41.1899 11.7017 40.8649 11.5931 40.6007 11.3883C40.1285 11.0224 39.4309 10.6921 38.8258 10.4419C38.7553 10.4125 38.7474 10.3146 38.8117 10.2736C39.7753 9.66198 40.7707 9.06635 41.7915 8.49031C42.9992 8.97287 43.9637 9.51952 44.7353 10.1579C46.6458 11.7409 47.5064 14.354 47.0959 17.3277L47.0942 17.3321Z" fill="#F6E0B8"/>
</svg>
