<svg width="313" height="142" viewBox="0 0 313 142" fill="none" xmlns="http://www.w3.org/2000/svg">
<rect x="236" y="45" width="12" height="11" rx="5.5" fill="black"/>
<path d="M91.0661 139.355L90.7859 140.198L89.6651 141.041L88.5443 138.512L86.8631 134.017L85.7423 132.05V130.926L85.4621 123.622L83.2204 116.879L82.3798 109.574L81.259 104.516L79.5778 97.4925L79.0174 92.1543L77.3362 89.3447L75.9352 84.0065V79.5111L74.8143 75.8587L75.0945 68.2728L73.6935 65.7442L73.1331 61.8108L72.8529 56.1916L73.6935 50.5725L74.8143 47.4819L73.6935 44.1104L73.1331 40.458L72.8529 35.6817L70.6113 33.9959L68.6499 33.1531L66.128 35.6817L63.326 39.3341L60.8042 43.8295L58.8427 49.1677L57.1615 55.0678L55.4803 59.8441L54.0793 64.9013L52.3981 69.6776L50.997 72.4872L49.596 73.892L47.9148 74.7349L45.393 73.611L43.7118 71.0824L40.9097 66.868L39.5087 62.9346L37.5473 54.2249L36.7067 50.2915L35.5858 45.5152L33.9046 41.0199L32.7838 37.0865L31.9432 33.715L30.262 32.5911L28.0204 31.4673L26.8995 33.9959L25.4985 37.9293L23.8173 42.7056L22.1361 53.382L21.0153 59.2822V61.5298L20.1747 69.6776L18.4934 79.2302L18.2132 84.2874L19.8944 85.9732L20.1747 89.9066L21.0153 93.2781L19.334 96.0877L17.3726 98.8973L14.0102 99.4592H10.3675L6.16448 99.7401L3.36244 98.6163L1.40102 97.2115L0 93.84L1.12081 86.2542L3.08224 82.3207L4.76346 81.4779L5.04366 72.4872L8.1259 61.8108L8.68631 57.3155L10.9279 53.382L10.6477 50.8534L13.1696 46.92V44.3914L18.2132 31.7483L19.0538 29.2196L20.7351 28.0958L21.2955 24.7243L23.8173 21.6338L26.8995 16.8575L29.7016 15.1717H31.9432L33.3442 16.8575L35.0254 20.229L36.1463 24.4434L37.5473 28.9387L39.2285 35.1198L40.0691 39.3341L41.4701 44.1104L42.3107 48.0438L43.1513 53.382L43.7118 57.8774L44.8326 61.8108L47.0742 64.6204L48.4752 65.7442L49.8762 64.0584L50.7168 60.9679L52.3981 57.5964L54.3595 51.6963L56.6011 46.3581L57.7219 42.4247L58.8427 39.6151L57.7219 38.2103L56.6011 35.4007L56.8813 31.7483L58.5625 27.8149L60.524 24.1624L61.3646 20.7909L63.8864 16.5765L65.5676 14.6098L67.8092 11.2383L71.1717 9.27162L73.1331 8.14779L75.9352 8.99066L78.7372 9.27162L81.8194 10.9574L84.3413 13.205L86.3027 16.0146L86.8631 19.6671L87.1433 24.1624L86.8631 28.3768V33.715L87.1433 43.5485V49.1677L88.8245 59.2822L88.5443 64.0584L88.2641 70.8015L87.9839 76.1397V80.9159L87.4235 87.097L86.3027 89.6256L87.4235 94.4019V103.955L88.5443 105.921L88.8245 112.664L89.6651 118.002L90.7859 127.836L91.0661 132.331V139.355ZM14.0102 110.978L12.6092 112.102H11.2081L11.4883 109.574H12.8894L14.0102 110.978ZM34.465 1.12383L33.6244 2.80958L32.2234 2.24767V0H33.9046L34.465 1.12383ZM94.1484 77.2635L92.187 79.2302L91.3463 77.2635L92.4672 75.2968L94.1484 77.2635Z" fill="black"/>
<path d="M151.309 123.339L151.029 124.463L149.908 125.868H148.507L147.106 124.463L146.266 122.216L145.145 120.249L144.304 117.72L143.464 116.877L142.903 117.439L141.502 118.282L139.821 120.249L137.299 121.654L135.338 123.62L132.536 125.025L129.453 126.149L126.651 126.992L124.13 127.835L122.448 128.678L120.487 128.116L117.965 127.835L114.883 126.711L112.081 125.025L110.4 122.778L109.279 120.249V116.315V113.787L109.839 110.977L111.52 108.168L113.202 105.358L115.443 103.391L117.685 101.706L120.767 101.144L123.569 100.863L126.651 100.02L129.453 98.3341L132.816 96.6484L134.497 95.5246L136.178 94.9626L137.019 92.9959L135.618 90.4673L133.937 88.2197L130.294 84.8482L126.651 83.7243L123.849 83.4434L122.729 83.7243H120.767L118.525 84.8482L116.564 85.972L114.042 86.253H111.24L108.158 87.0958H105.356L103.114 85.972L101.433 84.2862L101.153 82.0386L101.713 80.0719L103.675 77.8242L105.636 75.2956L108.158 73.3289L110.96 71.9241L113.762 69.3955L116.564 68.2716L121.608 67.4288L126.091 67.1478L129.173 67.9907L131.695 69.3955L134.497 70.2383L137.579 72.205L139.261 73.8908L140.942 76.4194L142.063 79.7909L142.903 82.8815L144.024 87.0958L145.145 90.1864L145.425 92.9959L145.145 96.3674L145.985 100.301L146.546 104.515L148.507 112.382L149.348 115.192L150.188 117.72L151.029 120.811L151.309 123.339ZM138.98 104.234L138.14 103.11L135.618 102.268L133.376 102.549L131.415 103.391L129.173 104.234L126.932 105.358L124.69 105.639L122.729 106.482L121.047 107.606L119.926 109.292L118.525 111.258L118.245 112.944L117.685 115.192V117.439L118.525 119.406L121.047 120.249H123.569L126.371 119.406L127.772 118.001L129.453 117.439L133.656 114.63L135.618 113.225L137.019 110.977L138.42 109.011L138.7 106.482L138.98 104.234ZM143.744 122.778L142.903 123.339L141.502 122.778L142.063 121.654L143.183 121.092L143.744 122.778ZM150.749 107.325L149.628 108.168L148.787 107.887V106.763L150.469 105.92L150.749 107.325Z" fill="black"/>
<path d="M208.75 71.645V73.0498L207.349 73.8926L205.107 74.4545L202.585 74.7355L199.783 75.5784H197.261L194.459 75.8593L191.097 76.7022L189.136 76.1403L186.614 76.9832L184.652 78.107L183.812 79.5118V81.1975L183.531 84.0071L182.691 85.4119V87.0977L182.13 89.6263L181.29 92.9978L181.01 95.8074V107.327L181.29 110.136L181.01 113.508L180.169 116.036L179.889 118.003L179.609 121.375L180.449 127.556L181.29 128.96L182.13 132.051L183.812 133.456L187.174 134.58L189.136 134.299H193.058L192.218 135.703L189.136 136.827H184.932L182.13 136.265L179.328 135.422L176.807 133.737L174.005 132.894L171.203 130.084L169.801 127.275L169.521 123.903L168.681 120.532L167.84 118.284L168.12 114.913V111.26L167.84 108.45L168.4 105.922L168.12 102.269L167.84 98.336L167.56 95.2455L167.84 92.4359L168.681 89.0644V77.5451L166.159 77.826L163.917 78.6689L161.395 79.5118L159.714 80.9166L158.033 81.1975L156.912 80.9166L156.072 80.0737V79.2308L156.352 77.5451L157.473 76.4213L159.434 75.5784L161.395 75.8593L163.917 75.2974L166.159 75.0165L168.961 74.7355L169.241 73.0498L168.4 70.2402L168.681 67.4306L168.961 63.4972L168.681 60.9686L168.4 58.7209L167.56 56.4732V54.5065L168.681 52.2589L171.203 51.135L172.884 49.1683L175.686 48.0445L177.927 48.3254L179.889 49.1683L181.85 50.5731L182.691 51.6969L184.092 53.3827L184.652 54.7875L186.053 57.0351L186.334 58.159L186.053 60.6876L185.213 62.6543L184.932 64.902L184.092 66.5877L184.372 68.2735L185.773 69.3973L188.295 69.9592L190.817 69.6783H197.542L199.503 69.9592L202.866 70.2402L205.387 71.083L206.508 71.364L208.75 71.645ZM205.948 82.6023L204.827 84.569L202.585 84.2881L202.305 82.6023L203.986 82.0404L205.948 82.6023Z" fill="black"/>
<path d="M264.512 90.7501L262.831 93.2787L260.309 94.6835L257.227 96.0883L253.304 97.2121L249.101 97.4931L245.458 98.336L242.656 99.7408L239.574 100.865L237.052 101.707L232.849 101.988L229.486 101.707L227.245 101.988L225.283 102.831L224.443 104.798L224.723 108.731L225.844 110.698L227.805 113.227L231.728 117.441L233.689 119.408L237.612 121.375L239.574 122.217L242.096 123.341H244.898L247.7 122.498L249.941 122.217L252.463 121.375L254.985 120.813H256.666L256.946 121.655L256.106 122.498L254.425 123.622L251.622 125.027L248.82 126.432L246.018 127.556L243.216 128.398L239.294 128.118L235.371 126.713L232.008 125.027L228.085 122.498L224.723 119.689L222.481 118.003L220.8 116.317L219.399 114.07L218.278 113.227L215.756 107.889L213.795 103.112L212.674 99.1788L212.114 96.3693L212.394 92.9978L213.235 89.6263L214.075 86.8167L214.916 84.85L215.756 82.6023L216.597 81.4785L218.278 80.0737L219.399 79.7927L221.641 76.7022L224.163 74.4545L226.965 73.0497L230.327 72.4878H234.53L237.893 72.2069L242.656 72.7688L246.579 73.8926L257.227 79.2308L260.029 80.9166L262.55 83.1642L263.951 85.1309L264.792 88.2215V90.7501H264.512ZM247.7 85.6929L246.299 84.0071L243.777 82.8833L241.255 81.7594L238.453 81.4785H235.651L233.129 82.3214L230.607 83.4452L228.366 85.1309L226.965 85.9738L225.283 87.0976L225.844 88.2215L226.965 87.9405L228.926 88.2215H232.569L235.371 89.0644H238.453L241.815 88.7834L244.617 87.9405L247.139 87.0976L247.7 85.6929ZM255.545 118.003L254.425 118.846L253.304 118.003L253.864 116.879H255.265L255.545 118.003Z" fill="black"/>
<path d="M271.798 72.2056L270.397 73.0485L268.996 71.6437L270.116 70.2389L271.798 70.5199V72.2056ZM312.147 114.068L311.867 116.597L311.026 119.407L309.905 121.935L307.944 123.621L305.702 125.588L303.741 126.431L301.499 127.554L299.538 128.397L296.736 128.678H291.132L289.17 127.273L286.648 126.992L283.286 126.15L280.484 125.026L278.242 123.621L276.561 122.778L275.44 120.811L274.6 118.845V116.316L275.44 113.787L276.281 112.102L277.402 110.416L278.803 110.135L279.643 111.54L278.803 113.506L278.523 115.754V118.283L279.643 120.249L282.165 121.092L284.687 121.935L286.929 122.778L290.571 123.059L292.813 124.183L295.615 123.34L298.137 122.497L299.818 121.373L302.34 119.688L304.021 118.283L305.422 116.878L305.702 114.349V111.54L304.862 109.292L302.9 107.044L300.378 106.202L297.296 104.797L296.175 103.673L292.813 101.987L290.571 100.582L288.049 99.4586L286.368 98.6157L283.846 98.0538L282.165 97.7728L279.924 96.649L278.242 95.5252L277.122 93.2775L276.001 91.5918L275.16 89.0631L274.88 86.2536L275.72 83.7249L276.001 81.4773L277.122 78.9486L278.523 76.701L279.924 74.7343L280.204 73.6104L281.325 71.9247H283.006L283.566 69.958L285.528 69.3961L287.489 68.2722L290.011 67.9913L292.813 67.4294L296.175 66.3055L299.258 65.4626H301.779L304.301 66.3055L306.263 67.4294L308.504 69.1151L309.905 69.958L311.306 71.9247L311.867 73.0485V75.5771L310.746 77.5438L309.625 78.9486L307.383 79.7915L303.741 80.0725L300.659 79.7915L298.137 79.5106L295.335 80.0725L292.813 81.1963L291.132 82.6011L289.45 84.2868L288.61 86.8155L289.731 88.7822L291.412 90.187L293.654 90.7489L295.335 91.8727L297.016 93.2775L298.977 94.6823L300.659 96.368L302.34 96.649L303.741 97.4919L304.862 99.1776L306.543 100.02L308.224 100.863L310.185 102.549L311.587 104.235L311.867 106.763L312.427 109.573L312.147 114.068Z" fill="black"/>
</svg>
