<svg xmlns="http://www.w3.org/2000/svg" version="1.1" xmlns:xlink="http://www.w3.org/1999/xlink" width="169" height="188"><svg width="169" height="188" viewBox="0 0 169 188" fill="none" xmlns="http://www.w3.org/2000/svg">
<path d="M101.955 100.563C98.3853 97.142 94.1348 94.7437 89.3228 93.44L89.2977 93.4344C86.4706 92.635 83.5572 92.2534 80.6356 92.2979C72.9686 92.4177 65.3877 95.5543 59.839 100.908C54.0346 106.504 50.8627 113.984 50.9072 121.959C50.885 129.184 53.6871 136.154 58.8021 141.586C63.8449 146.942 70.6001 150.277 77.8223 150.973C79.0427 151.109 80.2908 151.168 81.5307 151.148C91.0435 151.001 100.267 146.268 105.599 138.806C108.485 134.85 110.261 130.424 110.881 125.652C111.459 121.193 110.964 116.552 109.449 112.229C107.901 107.811 105.31 103.777 101.957 100.563H101.955ZM104.368 124.457V124.471L104.365 124.485C104.017 129.435 102.127 133.878 98.894 137.338L98.8884 137.343L98.8829 137.352C96.0835 140.544 93.4732 142.413 90.6682 143.232C88.2358 143.926 85.909 144.296 83.7574 144.329C79.8989 144.391 76.7631 143.368 74.4336 141.29C70.4416 137.786 68.2816 131.672 68.9238 125.711C69.4687 120.661 71.8872 116.711 75.7373 114.585C77.4414 113.63 79.4291 113.109 81.4862 113.075C85.1807 113.017 88.6695 114.549 90.8184 117.167C91.2214 117.666 91.5912 118.195 91.9081 118.752C93.1424 120.906 93.4259 123.287 92.756 125.677C92.5085 126.56 92.1444 127.41 91.6746 128.198C90.4459 130.251 88.5889 131.597 86.4567 132.599C85.7895 132.914 85.1001 133.201 84.3745 133.343C83.2709 133.555 82.209 133.293 81.3416 132.572C80.5827 131.942 80.0601 130.998 80.1213 129.992C80.2019 128.624 81.1776 127.691 82.5175 127.588C83.3487 127.524 84.1744 127.716 85.0028 127.758C85.72 127.794 86.4734 127.716 87.0822 127.335C87.6076 127.003 87.9828 126.466 88.1802 125.878C88.2914 125.549 88.3498 125.201 88.3665 124.856C88.4721 122.711 86.9348 120.691 85.0612 119.794C83.9909 119.282 82.7955 119.081 81.6141 119.101C80.0156 119.126 78.47 119.758 77.1495 120.925C73.7747 123.872 73.7998 128.772 74.9451 132.371C75.5066 134.19 76.6186 135.875 78.0725 137.112C79.6348 138.441 81.4556 139.162 83.3265 139.198C83.4822 139.204 83.6406 139.207 83.7963 139.204C85.3809 139.179 87.0349 138.73 89.0031 137.789C94.8214 135.04 98.4325 130.519 98.9107 125.382C99.7697 118.179 96.7979 112.048 90.7628 108.557C87.9273 106.694 84.5663 105.738 81.0386 105.794C75.9347 105.875 71.031 108.047 67.5922 111.752C65.7575 113.688 64.0034 115.819 62.9887 118.315C60.9455 123.298 61.4375 129.636 63.8227 134.209C64.0534 134.65 64.298 135.098 64.3703 135.591C64.5065 136.552 63.6559 137.558 62.6468 137.268C62.1075 137.112 61.6877 136.697 61.3124 136.279C60.8037 135.711 60.3367 135.109 59.9058 134.48C56.6644 129.75 56.4114 123.257 57.8764 117.666C59.1191 112.914 62.0741 108.46 66.1911 105.12C70.1775 101.727 75.4065 99.8162 80.9274 99.7298C83.4321 99.6908 85.8757 100.036 88.1913 100.752C93.0367 102.407 97.3706 105.66 100.401 109.914C103.556 114.348 104.965 119.513 104.368 124.454V124.457Z" fill="#F75D1B"></path>
<path d="M168.289 107.019C168.094 97.6929 166.432 88.5117 163.352 79.7261C159.087 67.5643 154.851 61.5475 151.431 57.8149C152.035 57.0739 152.521 56.0683 152.713 54.6755C154.167 44.2269 150.55 35.1153 143.628 29.43C141.482 27.6667 139.419 25.9787 136.389 24.597C137.846 23.8171 139.317 23.0483 140.801 22.2962C144.571 20.3797 148.287 18.5524 152.171 16.8699C154.361 15.9228 156.541 14.7473 158.017 12.8698C161.509 8.438 158.212 2.48247 153.464 0.66907C149.98 -0.659642 146.033 0.164884 142.6 1.62173C136.375 4.25966 130.332 7.58283 124.363 10.6943C122.412 11.7138 120.494 12.7974 118.587 13.8949C117.631 14.4465 116.633 14.92 115.724 15.544C114.884 16.1206 114.053 16.8225 112.991 16.8755C112.457 16.9005 111.932 16.7557 111.417 16.6136C104.596 14.7417 97.5957 13.6108 90.6015 12.5467C82.5481 11.3238 74.0805 9.84471 65.9242 10.7974C62.4966 11.1985 59.094 12.1512 56.1417 13.9423C49.8146 17.7836 46.0562 24.9675 44.1131 31.9008C43.735 33.2546 43.7739 34.3688 44.0324 35.2908C39.4039 37.3382 33.1157 41.1461 24.3423 50.5752C18.0042 57.3859 12.8085 65.1297 8.89717 73.5951C7.76853 76.0352 6.74552 78.5506 5.85317 81.0743C-0.760232 99.7738 -0.771351 119.164 5.81981 135.671C9.2391 144.231 14.2541 152.084 20.7285 159.014C33.1074 172.262 50.5736 182.034 68.6458 185.823C86.7179 189.611 106.628 187.678 123.268 180.516C131.972 176.769 139.711 171.591 146.266 165.123C158.912 152.649 166.66 134.883 168.086 115.094C168.278 112.426 168.347 109.71 168.292 107.019H168.289ZM117.514 18.9591C125.623 14.0676 133.045 9.80014 140.415 6.29312C140.415 6.29312 147.72 2.79724 150.878 3.29028C153.591 3.70533 155.771 5.76943 156.18 8.29037C156.321 9.16503 156.21 10.0954 155.323 10.984C154.573 11.7361 153.586 12.53 152.438 13.0509C152.249 13.1372 152.06 13.2236 151.873 13.3099C147.743 15.2292 143.525 17.2822 139.342 19.4075C131.038 23.6249 123.154 28.2545 115.913 33.1626C115.251 33.6111 114.589 34.0652 113.933 34.522C113.747 34.6501 113.564 34.7783 113.38 34.9092C113.18 35.0485 113.021 35.2267 112.907 35.4273C111.003 35.1655 109.091 34.8702 107.203 34.5443C104.12 34.0122 101.104 33.3855 98.8244 32.898C98.1545 32.7559 97.4651 32.6027 96.7673 32.4468C103.014 27.5804 110.439 23.2321 117.517 18.9618L117.514 18.9591ZM36.6407 79.9545C36.927 79.5311 37.3495 79.3194 37.9361 79.3055H37.95C38.6728 79.2943 39.6485 79.701 40.6965 80.4531C41.8363 81.2749 42.9038 82.2777 43.9351 83.247L44.1603 83.4587L44.1798 83.4754C44.6551 83.9323 45.1305 84.3863 45.6086 84.8404C46.9875 86.1524 48.4136 87.5089 49.734 88.9129C51.0128 90.3335 51.958 91.5396 51.516 93.0355C51.0489 94.3865 49.5645 95.4617 48.1328 95.484C47.8215 95.4896 47.524 95.445 47.2488 95.3559C45.8672 94.8879 44.7663 93.6427 43.7016 92.4366C43.4792 92.1859 43.2513 91.9268 43.0261 91.6817C42.4952 91.0466 41.9308 90.4115 41.3887 89.7959C39.4929 87.6566 37.5302 85.4448 36.5267 82.7902C36.1514 81.7818 36.1987 80.6175 36.6434 79.9573L36.6407 79.9545ZM26.1854 99.1804C26.3689 98.7988 26.8554 98.5593 27.5643 98.5035C27.6699 98.4952 27.7839 98.4868 27.8979 98.4868C28.4983 98.4785 29.2127 98.5704 30.1412 98.7793L30.1607 98.7849C33.6022 99.6289 37.0187 100.852 39.6207 101.827C41.2553 102.406 42.2005 103.08 42.5091 103.882C42.7565 104.529 42.623 105.314 42.0976 106.286C41.4249 107.417 40.5437 107.955 39.3261 107.972C38.0028 107.991 36.4683 107.387 35.0144 106.735C31.8398 105.245 28.3538 103.384 26.5496 100.877C26.1187 100.233 25.9825 99.5983 26.1826 99.1804H26.1854ZM24.1644 123.32C22.0517 123.217 19.4247 123.089 18.6157 121.153C18.4211 120.707 18.4211 120.248 18.6102 119.791C18.8743 119.153 19.5025 118.576 20.2475 118.287H20.2559L20.2642 118.278C21.2066 117.872 22.3241 117.713 23.286 117.599C26.8026 117.253 30.0745 117.064 33.2937 117.014C33.7885 117.005 34.2916 117.002 34.7726 117C36.093 117.025 37.5636 117.119 38.253 117.952L38.2614 117.961C39.0759 119.011 38.9563 120.769 38.3781 121.858C37.7248 123.022 36.3265 123.281 34.4306 123.312C34.1693 123.315 33.9108 123.317 33.655 123.317C33.3993 123.317 33.1463 123.317 32.8989 123.323C32.6348 123.326 32.4041 123.334 32.2011 123.345C31.7869 123.351 31.3672 123.356 30.9446 123.362C28.8514 123.39 26.6886 123.42 24.5842 123.345C24.448 123.337 24.3062 123.331 24.1617 123.323L24.1644 123.32ZM29.7298 143.304C29.2489 143.312 28.8069 143.265 28.3677 143.156C27.5837 142.978 26.9193 142.462 26.6747 141.847C26.4829 141.365 26.5607 140.844 26.8943 140.345C27.6949 139.22 29.0765 138.426 30.4109 137.66C30.6472 137.524 30.8835 137.39 31.1086 137.253C33.1074 136.148 35.1062 135.128 36.8936 134.304C37.9973 133.791 38.8785 133.535 39.5874 133.524C40.5464 133.51 41.1747 133.944 41.5694 134.894L41.575 134.911C42.0142 136.003 41.9948 137.231 41.5305 138.106C40.8077 139.404 39.4039 140.014 37.9139 140.66C37.7471 140.733 37.5775 140.805 37.419 140.875L37.1994 140.969C36.0541 141.457 34.8671 141.964 33.6884 142.393C32.4041 142.844 31.0419 143.284 29.7242 143.304H29.7298ZM51.3353 151.73C51.035 153.496 49.6562 154.947 48.3218 156.351C48.1634 156.516 48.0077 156.68 47.8576 156.842L47.5907 157.101C45.4863 159.134 42.3061 162.207 39.6902 163.101C39.3511 163.212 39.0008 163.273 38.6756 163.279C38.0946 163.287 37.1021 163.129 36.9743 161.964C36.8658 160.727 37.6525 159.46 38.4031 158.371C40.1322 155.992 42.3562 153.46 45.1972 150.638C46.1841 149.672 47.4851 148.56 48.8055 148.538C49.0974 148.532 49.3754 148.582 49.6562 148.685L49.6868 148.697C50.8682 149.114 51.5771 150.418 51.338 151.733L51.3353 151.73ZM66.9083 164.363C66.8194 164.527 66.736 164.686 66.6609 164.831C65.9214 166.201 65.232 167.63 64.5676 169.009C63.9338 170.326 63.2777 171.686 62.5883 172.97C62.4994 173.129 62.4076 173.293 62.3159 173.46C61.5431 174.867 60.6674 176.463 59.2608 176.925C59.1385 176.959 59.0161 176.978 58.8994 176.978C58.6103 176.984 58.3517 176.892 58.1321 176.705C56.6894 175.279 57.326 172.594 57.8402 170.435C57.8875 170.24 57.932 170.051 57.9737 169.87C58.3128 168.549 58.7159 167.212 59.2024 165.786C59.3386 165.429 59.4693 165.065 59.6055 164.677C60.4089 162.421 61.3207 159.861 63.5391 159.449C63.7559 159.415 63.9838 159.396 64.2201 159.393C65.5434 159.374 67.1446 159.836 67.7506 160.917C68.2093 161.922 67.5143 163.22 66.9055 164.365L66.9083 164.363ZM83.6545 179.978L83.6378 180.001C83.1986 180.58 82.6231 180.906 82.0143 180.917C81.311 180.928 80.6327 180.53 80.1518 179.817C79.1121 178.318 78.9564 176.343 78.8814 174.288C78.8619 173.36 78.8591 172.399 78.8564 171.471C78.8536 169.741 78.848 167.95 78.7285 166.218C78.5895 163.833 78.8842 163.023 80.9969 162.594C81.2415 162.541 81.5167 162.513 81.7975 162.507C82.6454 162.493 83.446 162.705 83.8407 163.051C84.608 163.697 84.6247 165.193 84.6413 166.513C84.6469 166.883 84.6497 167.234 84.6691 167.566C84.6858 168.535 84.7247 169.53 84.7637 170.491C84.8165 171.803 84.8693 173.157 84.8637 174.46C84.8248 176.332 84.7803 178.455 83.6517 179.978H83.6545ZM105.997 174.466C105.891 175.031 105.616 175.708 104.904 175.719C104.551 175.725 104.134 175.572 103.692 175.274C102.989 174.803 102.408 174.137 101.754 173.285C100.901 172.165 100.162 171.028 99.4777 169.962C98.9134 169.081 98.3519 168.179 97.8098 167.307C97.3845 166.624 96.9452 165.917 96.506 165.226C96.3892 165.026 96.2641 164.822 96.1391 164.616C95.3106 163.254 94.4544 161.844 95.0549 160.622L95.0604 160.61C95.5024 159.794 97.0119 159.025 97.9237 158.563L98.16 158.454C98.9662 158.084 99.664 157.764 100.278 157.755C100.581 157.75 100.851 157.819 101.121 157.975C102.149 158.663 102.8 160.917 103.275 162.569C103.447 163.165 103.609 163.727 103.775 164.193C103.953 164.8 104.17 165.474 104.404 166.19C105.282 168.906 106.377 172.287 105.997 174.471V174.466ZM92.6058 155.198C89.1031 156.407 85.3947 157.048 81.589 157.106C73.2159 157.237 65.0958 154.563 58.7215 149.58C53.3451 145.39 49.3309 139.933 47.1126 133.797C45.0276 128.031 44.5273 121.743 45.6615 115.612C46.8123 109.398 49.5923 103.612 53.6982 98.8796C58.0543 93.86 63.8393 90.1496 70.4305 88.1524C73.5884 87.1886 76.9021 86.6733 80.2824 86.6203C87.6659 86.5061 95.0243 88.6399 101.007 92.6288L101.029 92.6427C106.847 96.5453 111.331 101.838 113.994 107.952C116.494 113.69 117.378 120.05 116.552 126.342C115.718 132.694 113.188 138.674 109.232 143.644C105.026 148.925 99.2803 152.919 92.6058 155.195V155.198ZM56.4503 68.6758C56.6087 67.8234 57.1008 67.2663 57.704 67.2579C57.9181 67.2551 58.146 67.3192 58.3879 67.4529L58.399 67.4585C59.3692 67.9989 60.1754 69.2273 60.8842 70.3137C61.0121 70.5114 61.14 70.7036 61.2595 70.8847C61.8211 71.7399 62.4188 72.5811 62.997 73.3973C64.3369 75.2859 65.7241 77.2386 66.6665 79.3807C67.6172 81.5033 67.2224 82.9323 65.396 84.0103C64.5176 84.5145 63.7364 84.7735 63.072 84.7847C62.8385 84.7874 62.6161 84.7596 62.4132 84.7011C61.2734 84.2944 60.7036 82.8236 60.2032 81.5256C60.0725 81.1913 59.9502 80.8737 59.8195 80.5729C59.6639 80.1801 59.5054 79.7874 59.3497 79.3974C58.5992 77.5283 57.8903 75.7594 57.2648 73.8792L57.2481 73.8263C56.706 72.1076 56.1473 70.3304 56.4559 68.673L56.4503 68.6758ZM77.4469 65.5476C77.6054 63.8122 77.7861 61.8483 78.8174 60.4639C79.2455 59.8734 79.8738 59.5001 80.452 59.4918C80.8301 59.4862 81.1665 59.6338 81.4611 59.9375L81.4723 59.9486C82.3729 60.8929 82.5092 62.4946 82.6259 63.9097C82.637 64.0406 82.6482 64.1715 82.6593 64.2885C82.8706 67.3665 82.9373 70.5532 83.0012 73.6341C83.0179 74.492 83.0373 75.35 83.0568 76.194C83.0651 76.9238 83.0651 77.6898 82.9706 78.311C82.8678 78.9684 82.6537 79.3974 82.2784 79.701C81.8058 80.0771 81.1025 80.2971 80.3519 80.311C78.8313 80.3333 77.9974 79.5617 77.7472 78.8904C77.4303 78.0464 77.3886 76.9851 77.3469 75.9572C77.3385 75.765 77.3302 75.5756 77.3218 75.4029C77.2051 71.478 77.244 68.3443 77.4469 65.5504V65.5476ZM94.8019 77.1912C95.8138 75.7065 96.8896 74.2636 97.8431 72.7399C98.7688 71.2635 99.6306 69.7371 100.723 68.3721C101.107 67.893 101.529 67.425 102.057 67.1158C102.908 66.6172 103.917 66.6228 104.462 67.5198C105.805 69.7343 104.348 72.5672 103.442 74.648C102.58 76.623 101.718 78.5979 100.857 80.5729C100.273 81.9127 99.4972 83.5702 97.8459 83.7512C97.7208 83.7651 97.5929 83.7735 97.4623 83.7763C96.1224 83.7958 94.6379 83.1802 93.7733 82.2442C92.3945 80.7512 93.9012 78.5088 94.7991 77.194L94.8019 77.1912ZM123.307 83.7902C123.193 83.9573 123.085 84.1189 122.987 84.2665C120.761 87.4783 117.872 90.353 115.343 92.7458C114.381 93.6595 113.244 94.5926 112.124 94.6121C111.876 94.6149 111.643 94.5759 111.406 94.4923H111.398L111.387 94.4868C110.595 94.2361 109.772 93.5035 109.383 92.6929C108.86 91.6399 108.988 90.548 109.769 89.4449C110.214 88.8014 110.825 88.1635 111.365 87.6176C114.222 84.7429 116.791 82.3946 119.21 80.4392C119.393 80.2971 119.576 80.1495 119.763 79.9991C121 79.0046 122.279 77.9767 123.719 77.9183H123.73C124.338 77.9099 124.797 78.1522 125.025 78.6063C125.712 80.2386 124.38 82.208 123.31 83.793L123.307 83.7902ZM132.748 97.264C133.37 97.2556 133.893 97.3392 134.302 97.5175L134.318 97.5258C134.827 97.7598 135.077 98.186 135.022 98.7208C134.805 100.275 133.067 101.465 131.669 102.423L131.588 102.479C129.395 103.921 127.257 105.077 125.234 105.916C123.899 106.484 122.793 106.766 121.845 106.782C120.839 106.799 120.063 106.506 119.485 105.896C119.09 105.473 118.895 104.941 118.92 104.359C118.951 103.668 119.285 102.986 119.835 102.487L119.843 102.481L119.852 102.476C120.822 101.537 122.153 100.905 123.441 100.292L123.449 100.286C123.707 100.175 123.994 100.047 124.302 99.9103C126.649 98.874 130.193 97.3085 132.745 97.2668L132.748 97.264ZM126.412 161.176C126.282 162.087 125.698 162.68 124.889 162.73C124.85 162.73 124.811 162.733 124.772 162.736C123.521 162.755 122.231 161.789 121.092 160.939L120.953 160.836C118.987 159.335 117.222 157.972 115.496 156.496C115.184 156.209 114.851 155.92 114.498 155.613C112.777 154.12 110.828 152.429 110.942 150.451C110.998 149.577 111.426 148.524 112.054 147.702C112.449 147.187 113.269 146.32 114.325 146.304C114.467 146.304 114.609 146.315 114.745 146.343H114.759C116.254 146.724 117.867 148.488 119.162 149.906C119.507 150.282 119.832 150.638 120.138 150.95L120.252 151.075C121.267 152.19 122.317 153.34 123.299 154.569L123.557 154.914C124.95 156.764 126.682 159.064 126.407 161.179L126.412 161.176ZM136.05 140.298C136.014 140.822 135.639 141.29 135.061 141.546C134.61 141.735 134.121 141.833 133.565 141.841C132.345 141.861 131.013 141.435 129.84 141.056L129.765 141.031C127.638 140.32 125.887 139.613 124.255 138.808C122.456 137.911 121.133 137.17 120.516 135.824C120.121 134.961 120.18 133.944 120.666 133.17C121.086 132.501 121.748 132.125 122.529 132.114C122.684 132.114 122.846 132.125 123.018 132.153C124.475 132.365 125.881 133.081 127.243 133.769C127.48 133.889 127.716 134.008 127.938 134.117L127.963 134.131C129.504 134.939 130.788 135.616 132.153 136.368L132.395 136.507C133.937 137.396 135.856 138.499 136.05 140.098C136.053 140.162 136.053 140.228 136.05 140.293V140.298ZM143.317 119.64C142.294 121.014 140.701 121.278 138.686 121.613C138.51 121.64 138.333 121.671 138.155 121.702C135.389 122.106 132.531 122.192 130.004 122.27C129.882 122.27 129.756 122.27 129.631 122.27C129.262 122.276 128.886 122.295 128.489 122.315C128.089 122.334 127.677 122.354 127.274 122.359C125.103 122.393 124.005 121.955 123.488 120.852C122.751 119.15 123.185 117.412 124.019 116.721L124.03 116.713C124.936 116.039 126.215 116.011 127.566 115.98C127.922 115.972 128.286 115.963 128.653 115.944C129.189 115.927 129.726 115.911 130.262 115.891C131.563 115.846 132.909 115.802 134.227 115.782C135.147 115.768 135.972 115.766 136.745 115.78C137.04 115.796 137.351 115.807 137.682 115.819C139.795 115.891 142.691 115.989 143.536 117.746C143.798 118.34 143.717 119.047 143.317 119.643V119.64ZM149.513 54.2271C149.36 55.3218 148.988 55.8733 148.346 56.2717C148.332 56.2772 148.321 56.2856 148.307 56.2939C148.101 56.4193 147.87 56.5279 147.609 56.6338C144.54 57.8929 141.043 58.1909 137.663 58.4778H137.624C134.046 58.7842 130.41 58.9207 126.815 58.8873C117.394 58.8009 107.306 57.5447 95.9723 55.0488C95.9667 55.0488 95.9611 55.0488 95.9556 55.046C95.95 55.046 95.9445 55.046 95.9389 55.0432C84.5607 52.7758 74.8144 49.8704 66.1494 46.1656C62.8413 44.7506 59.5666 43.1656 56.4114 41.4497L56.378 41.4302C53.3952 39.809 50.3123 38.1321 48.0021 35.7449C47.1737 34.8869 46.8262 34.1933 47.2238 32.7727C49.7591 23.7279 55.519 17.3295 63.0276 15.2153C66.2745 14.3016 70.0413 13.9729 74.5419 14.2069C76.1876 14.2932 77.8695 14.4075 79.5402 14.544C84.4857 15.0843 89.4284 15.6721 94.3488 16.4242C96.8702 16.8114 99.386 17.2404 101.891 17.7278C104.115 18.1624 106.781 18.4075 108.916 19.2543C109.127 19.3379 109.21 19.6053 109.077 19.7919C108.298 20.8644 105.91 21.6638 104.937 22.2627C103.834 22.9396 102.716 23.6165 101.66 24.3631C100.456 25.2154 99.6584 25.2628 98.1628 25.0093C91.3103 23.8449 84.38 23.455 77.4386 23.3909H77.3774C75.8096 23.4522 74.2028 23.5162 72.7433 24.1151C72.0928 24.3826 71.2311 24.5385 70.5722 24.2266C69.7132 23.8199 68.8848 23.3463 68.0981 22.8143C67.8285 22.6304 67.5644 22.4438 67.3058 22.2405C67.1668 22.1318 67.0334 22.0204 66.9 21.9062C66.836 21.8505 66.6025 21.5747 66.5302 21.5747C65.813 20.9034 64.9651 19.9953 63.8726 20.285C63.3083 20.4354 62.8663 20.9452 62.7579 21.519C62.5856 22.4382 63.2166 23.2126 63.9004 23.7335C65.1375 24.6778 66.5052 25.4355 67.8729 26.1625C69.0433 26.7865 70.2359 27.3631 71.4479 27.9063C73.0102 28.6055 74.6003 29.2461 76.2071 29.8395C76.8298 30.0679 77.4553 30.2907 78.0808 30.508C91.0407 34.9649 104.659 37.9928 118.303 39.302C121.595 39.6168 124.942 40.0513 128.247 40.0903C130.318 40.1154 132.336 39.9817 134.407 39.8619C135.011 39.8285 135.611 39.7756 136.209 39.7087C136.92 39.6279 137.651 39.5193 138.274 39.16C139.278 38.5833 139.756 37.2518 138.955 36.2908C138.505 35.7504 137.779 35.5805 137.104 35.6474C136.773 35.6808 136.478 35.8061 136.161 35.8925C135.625 36.0401 135.08 36.1515 134.532 36.2435C133.671 36.3883 132.8 36.483 131.928 36.5415C130.88 36.6112 129.854 36.2713 129.02 35.6306C127.53 34.4858 125.328 33.4523 123.418 32.6696C123.196 32.5777 123.171 32.2713 123.374 32.1431C126.415 30.2294 129.556 28.3659 132.778 26.5636C136.589 28.0734 139.633 29.7838 142.069 31.781C148.098 36.7337 150.814 44.9094 149.519 54.2131L149.513 54.2271Z" fill="#F75D1B"></path>
</svg><style>@media (prefers-color-scheme: light) { :root { filter: none; } }
@media (prefers-color-scheme: dark) { :root { filter: none; } }
</style></svg>